<?xml version="1.0" encoding="utf-8" standalone="no"?>
<!DOCTYPE svg PUBLIC "-//W3C//DTD SVG 1.1//EN"
  "http://www.w3.org/Graphics/SVG/1.1/DTD/svg11.dtd">
<!-- Created with matplotlib (http://matplotlib.org/) -->
<svg height="314.667469pt" version="1.1" viewBox="0 0 440.649688 314.667469" width="440.649688pt" xmlns="http://www.w3.org/2000/svg" xmlns:xlink="http://www.w3.org/1999/xlink">
 <defs>
  <style type="text/css">
*{stroke-linecap:butt;stroke-linejoin:round;}
  </style>
 </defs>
 <g id="figure_1">
  <g id="patch_1">
   <path d="M 0 314.667469 
L 440.649688 314.667469 
L 440.649688 0 
L 0 0 
z
" style="fill:#ffffff;"/>
  </g>
  <g id="axes_1">
   <g id="patch_2">
    <path d="M 68.378125 277.111219 
L 425.498125 277.111219 
L 425.498125 10.999219 
L 68.378125 10.999219 
z
" style="fill:#ffffff;"/>
   </g>
   <g id="matplotlib.axis_1">
    <g id="xtick_1">
     <g id="line2d_1">
      <path clip-path="url(#pdb6c58ab47)" d="M 68.378125 277.111219 
L 68.378125 10.999219 
" style="fill:none;stroke:#b0b0b0;stroke-linecap:square;stroke-width:0.8;"/>
     </g>
     <g id="line2d_2">
      <defs>
       <path d="M 0 0 
L 0 3.5 
" id="mdafdb78be0" style="stroke:#000000;stroke-width:0.8;"/>
      </defs>
      <g>
       <use style="stroke:#000000;stroke-width:0.8;" x="68.378125" xlink:href="#mdafdb78be0" y="277.111219"/>
      </g>
     </g>
     <g id="text_1">
      <!-- 0.0 -->
      <defs>
       <path d="M 31.78125 66.40625 
Q 24.171875 66.40625 20.328125 58.90625 
Q 16.5 51.421875 16.5 36.375 
Q 16.5 21.390625 20.328125 13.890625 
Q 24.171875 6.390625 31.78125 6.390625 
Q 39.453125 6.390625 43.28125 13.890625 
Q 47.125 21.390625 47.125 36.375 
Q 47.125 51.421875 43.28125 58.90625 
Q 39.453125 66.40625 31.78125 66.40625 
z
M 31.78125 74.21875 
Q 44.046875 74.21875 50.515625 64.515625 
Q 56.984375 54.828125 56.984375 36.375 
Q 56.984375 17.96875 50.515625 8.265625 
Q 44.046875 -1.421875 31.78125 -1.421875 
Q 19.53125 -1.421875 13.0625 8.265625 
Q 6.59375 17.96875 6.59375 36.375 
Q 6.59375 54.828125 13.0625 64.515625 
Q 19.53125 74.21875 31.78125 74.21875 
z
" id="DejaVuSans-30"/>
       <path d="M 10.6875 12.40625 
L 21 12.40625 
L 21 0 
L 10.6875 0 
z
" id="DejaVuSans-2e"/>
      </defs>
      <g transform="translate(60.426562 291.709656)scale(0.1 -0.1)">
       <use xlink:href="#DejaVuSans-30"/>
       <use x="63.623047" xlink:href="#DejaVuSans-2e"/>
       <use x="95.410156" xlink:href="#DejaVuSans-30"/>
      </g>
     </g>
    </g>
    <g id="xtick_2">
     <g id="line2d_3">
      <path clip-path="url(#pdb6c58ab47)" d="M 113.018125 277.111219 
L 113.018125 10.999219 
" style="fill:none;stroke:#b0b0b0;stroke-linecap:square;stroke-width:0.8;"/>
     </g>
     <g id="line2d_4">
      <g>
       <use style="stroke:#000000;stroke-width:0.8;" x="113.018125" xlink:href="#mdafdb78be0" y="277.111219"/>
      </g>
     </g>
     <g id="text_2">
      <!-- 0.5 -->
      <defs>
       <path d="M 10.796875 72.90625 
L 49.515625 72.90625 
L 49.515625 64.59375 
L 19.828125 64.59375 
L 19.828125 46.734375 
Q 21.96875 47.46875 24.109375 47.828125 
Q 26.265625 48.1875 28.421875 48.1875 
Q 40.625 48.1875 47.75 41.5 
Q 54.890625 34.8125 54.890625 23.390625 
Q 54.890625 11.625 47.5625 5.09375 
Q 40.234375 -1.421875 26.90625 -1.421875 
Q 22.3125 -1.421875 17.546875 -0.640625 
Q 12.796875 0.140625 7.71875 1.703125 
L 7.71875 11.625 
Q 12.109375 9.234375 16.796875 8.0625 
Q 21.484375 6.890625 26.703125 6.890625 
Q 35.15625 6.890625 40.078125 11.328125 
Q 45.015625 15.765625 45.015625 23.390625 
Q 45.015625 31 40.078125 35.4375 
Q 35.15625 39.890625 26.703125 39.890625 
Q 22.75 39.890625 18.8125 39.015625 
Q 14.890625 38.140625 10.796875 36.28125 
z
" id="DejaVuSans-35"/>
      </defs>
      <g transform="translate(105.066563 291.709656)scale(0.1 -0.1)">
       <use xlink:href="#DejaVuSans-30"/>
       <use x="63.623047" xlink:href="#DejaVuSans-2e"/>
       <use x="95.410156" xlink:href="#DejaVuSans-35"/>
      </g>
     </g>
    </g>
    <g id="xtick_3">
     <g id="line2d_5">
      <path clip-path="url(#pdb6c58ab47)" d="M 157.658125 277.111219 
L 157.658125 10.999219 
" style="fill:none;stroke:#b0b0b0;stroke-linecap:square;stroke-width:0.8;"/>
     </g>
     <g id="line2d_6">
      <g>
       <use style="stroke:#000000;stroke-width:0.8;" x="157.658125" xlink:href="#mdafdb78be0" y="277.111219"/>
      </g>
     </g>
     <g id="text_3">
      <!-- 1.0 -->
      <defs>
       <path d="M 12.40625 8.296875 
L 28.515625 8.296875 
L 28.515625 63.921875 
L 10.984375 60.40625 
L 10.984375 69.390625 
L 28.421875 72.90625 
L 38.28125 72.90625 
L 38.28125 8.296875 
L 54.390625 8.296875 
L 54.390625 0 
L 12.40625 0 
z
" id="DejaVuSans-31"/>
      </defs>
      <g transform="translate(149.706562 291.709656)scale(0.1 -0.1)">
       <use xlink:href="#DejaVuSans-31"/>
       <use x="63.623047" xlink:href="#DejaVuSans-2e"/>
       <use x="95.410156" xlink:href="#DejaVuSans-30"/>
      </g>
     </g>
    </g>
    <g id="xtick_4">
     <g id="line2d_7">
      <path clip-path="url(#pdb6c58ab47)" d="M 202.298125 277.111219 
L 202.298125 10.999219 
" style="fill:none;stroke:#b0b0b0;stroke-linecap:square;stroke-width:0.8;"/>
     </g>
     <g id="line2d_8">
      <g>
       <use style="stroke:#000000;stroke-width:0.8;" x="202.298125" xlink:href="#mdafdb78be0" y="277.111219"/>
      </g>
     </g>
     <g id="text_4">
      <!-- 1.5 -->
      <g transform="translate(194.346563 291.709656)scale(0.1 -0.1)">
       <use xlink:href="#DejaVuSans-31"/>
       <use x="63.623047" xlink:href="#DejaVuSans-2e"/>
       <use x="95.410156" xlink:href="#DejaVuSans-35"/>
      </g>
     </g>
    </g>
    <g id="xtick_5">
     <g id="line2d_9">
      <path clip-path="url(#pdb6c58ab47)" d="M 246.938125 277.111219 
L 246.938125 10.999219 
" style="fill:none;stroke:#b0b0b0;stroke-linecap:square;stroke-width:0.8;"/>
     </g>
     <g id="line2d_10">
      <g>
       <use style="stroke:#000000;stroke-width:0.8;" x="246.938125" xlink:href="#mdafdb78be0" y="277.111219"/>
      </g>
     </g>
     <g id="text_5">
      <!-- 2.0 -->
      <defs>
       <path d="M 19.1875 8.296875 
L 53.609375 8.296875 
L 53.609375 0 
L 7.328125 0 
L 7.328125 8.296875 
Q 12.9375 14.109375 22.625 23.890625 
Q 32.328125 33.6875 34.8125 36.53125 
Q 39.546875 41.84375 41.421875 45.53125 
Q 43.3125 49.21875 43.3125 52.78125 
Q 43.3125 58.59375 39.234375 62.25 
Q 35.15625 65.921875 28.609375 65.921875 
Q 23.96875 65.921875 18.8125 64.3125 
Q 13.671875 62.703125 7.8125 59.421875 
L 7.8125 69.390625 
Q 13.765625 71.78125 18.9375 73 
Q 24.125 74.21875 28.421875 74.21875 
Q 39.75 74.21875 46.484375 68.546875 
Q 53.21875 62.890625 53.21875 53.421875 
Q 53.21875 48.921875 51.53125 44.890625 
Q 49.859375 40.875 45.40625 35.40625 
Q 44.1875 33.984375 37.640625 27.21875 
Q 31.109375 20.453125 19.1875 8.296875 
z
" id="DejaVuSans-32"/>
      </defs>
      <g transform="translate(238.986563 291.709656)scale(0.1 -0.1)">
       <use xlink:href="#DejaVuSans-32"/>
       <use x="63.623047" xlink:href="#DejaVuSans-2e"/>
       <use x="95.410156" xlink:href="#DejaVuSans-30"/>
      </g>
     </g>
    </g>
    <g id="xtick_6">
     <g id="line2d_11">
      <path clip-path="url(#pdb6c58ab47)" d="M 291.578125 277.111219 
L 291.578125 10.999219 
" style="fill:none;stroke:#b0b0b0;stroke-linecap:square;stroke-width:0.8;"/>
     </g>
     <g id="line2d_12">
      <g>
       <use style="stroke:#000000;stroke-width:0.8;" x="291.578125" xlink:href="#mdafdb78be0" y="277.111219"/>
      </g>
     </g>
     <g id="text_6">
      <!-- 2.5 -->
      <g transform="translate(283.626562 291.709656)scale(0.1 -0.1)">
       <use xlink:href="#DejaVuSans-32"/>
       <use x="63.623047" xlink:href="#DejaVuSans-2e"/>
       <use x="95.410156" xlink:href="#DejaVuSans-35"/>
      </g>
     </g>
    </g>
    <g id="xtick_7">
     <g id="line2d_13">
      <path clip-path="url(#pdb6c58ab47)" d="M 336.218125 277.111219 
L 336.218125 10.999219 
" style="fill:none;stroke:#b0b0b0;stroke-linecap:square;stroke-width:0.8;"/>
     </g>
     <g id="line2d_14">
      <g>
       <use style="stroke:#000000;stroke-width:0.8;" x="336.218125" xlink:href="#mdafdb78be0" y="277.111219"/>
      </g>
     </g>
     <g id="text_7">
      <!-- 3.0 -->
      <defs>
       <path d="M 40.578125 39.3125 
Q 47.65625 37.796875 51.625 33 
Q 55.609375 28.21875 55.609375 21.1875 
Q 55.609375 10.40625 48.1875 4.484375 
Q 40.765625 -1.421875 27.09375 -1.421875 
Q 22.515625 -1.421875 17.65625 -0.515625 
Q 12.796875 0.390625 7.625 2.203125 
L 7.625 11.71875 
Q 11.71875 9.328125 16.59375 8.109375 
Q 21.484375 6.890625 26.8125 6.890625 
Q 36.078125 6.890625 40.9375 10.546875 
Q 45.796875 14.203125 45.796875 21.1875 
Q 45.796875 27.640625 41.28125 31.265625 
Q 36.765625 34.90625 28.71875 34.90625 
L 20.21875 34.90625 
L 20.21875 43.015625 
L 29.109375 43.015625 
Q 36.375 43.015625 40.234375 45.921875 
Q 44.09375 48.828125 44.09375 54.296875 
Q 44.09375 59.90625 40.109375 62.90625 
Q 36.140625 65.921875 28.71875 65.921875 
Q 24.65625 65.921875 20.015625 65.03125 
Q 15.375 64.15625 9.8125 62.3125 
L 9.8125 71.09375 
Q 15.4375 72.65625 20.34375 73.4375 
Q 25.25 74.21875 29.59375 74.21875 
Q 40.828125 74.21875 47.359375 69.109375 
Q 53.90625 64.015625 53.90625 55.328125 
Q 53.90625 49.265625 50.4375 45.09375 
Q 46.96875 40.921875 40.578125 39.3125 
z
" id="DejaVuSans-33"/>
      </defs>
      <g transform="translate(328.266563 291.709656)scale(0.1 -0.1)">
       <use xlink:href="#DejaVuSans-33"/>
       <use x="63.623047" xlink:href="#DejaVuSans-2e"/>
       <use x="95.410156" xlink:href="#DejaVuSans-30"/>
      </g>
     </g>
    </g>
    <g id="xtick_8">
     <g id="line2d_15">
      <path clip-path="url(#pdb6c58ab47)" d="M 380.858125 277.111219 
L 380.858125 10.999219 
" style="fill:none;stroke:#b0b0b0;stroke-linecap:square;stroke-width:0.8;"/>
     </g>
     <g id="line2d_16">
      <g>
       <use style="stroke:#000000;stroke-width:0.8;" x="380.858125" xlink:href="#mdafdb78be0" y="277.111219"/>
      </g>
     </g>
     <g id="text_8">
      <!-- 3.5 -->
      <g transform="translate(372.906563 291.709656)scale(0.1 -0.1)">
       <use xlink:href="#DejaVuSans-33"/>
       <use x="63.623047" xlink:href="#DejaVuSans-2e"/>
       <use x="95.410156" xlink:href="#DejaVuSans-35"/>
      </g>
     </g>
    </g>
    <g id="xtick_9">
     <g id="line2d_17">
      <path clip-path="url(#pdb6c58ab47)" d="M 425.498125 277.111219 
L 425.498125 10.999219 
" style="fill:none;stroke:#b0b0b0;stroke-linecap:square;stroke-width:0.8;"/>
     </g>
     <g id="line2d_18">
      <g>
       <use style="stroke:#000000;stroke-width:0.8;" x="425.498125" xlink:href="#mdafdb78be0" y="277.111219"/>
      </g>
     </g>
     <g id="text_9">
      <!-- 4.0 -->
      <defs>
       <path d="M 37.796875 64.3125 
L 12.890625 25.390625 
L 37.796875 25.390625 
z
M 35.203125 72.90625 
L 47.609375 72.90625 
L 47.609375 25.390625 
L 58.015625 25.390625 
L 58.015625 17.1875 
L 47.609375 17.1875 
L 47.609375 0 
L 37.796875 0 
L 37.796875 17.1875 
L 4.890625 17.1875 
L 4.890625 26.703125 
z
" id="DejaVuSans-34"/>
      </defs>
      <g transform="translate(417.546562 291.709656)scale(0.1 -0.1)">
       <use xlink:href="#DejaVuSans-34"/>
       <use x="63.623047" xlink:href="#DejaVuSans-2e"/>
       <use x="95.410156" xlink:href="#DejaVuSans-30"/>
      </g>
     </g>
    </g>
    <g id="text_10">
     <!-- sec -->
     <defs>
      <path d="M 44.28125 53.078125 
L 44.28125 44.578125 
Q 40.484375 46.53125 36.375 47.5 
Q 32.28125 48.484375 27.875 48.484375 
Q 21.1875 48.484375 17.84375 46.4375 
Q 14.5 44.390625 14.5 40.28125 
Q 14.5 37.15625 16.890625 35.375 
Q 19.28125 33.59375 26.515625 31.984375 
L 29.59375 31.296875 
Q 39.15625 29.25 43.1875 25.515625 
Q 47.21875 21.78125 47.21875 15.09375 
Q 47.21875 7.46875 41.1875 3.015625 
Q 35.15625 -1.421875 24.609375 -1.421875 
Q 20.21875 -1.421875 15.453125 -0.5625 
Q 10.6875 0.296875 5.421875 2 
L 5.421875 11.28125 
Q 10.40625 8.6875 15.234375 7.390625 
Q 20.0625 6.109375 24.8125 6.109375 
Q 31.15625 6.109375 34.5625 8.28125 
Q 37.984375 10.453125 37.984375 14.40625 
Q 37.984375 18.0625 35.515625 20.015625 
Q 33.0625 21.96875 24.703125 23.78125 
L 21.578125 24.515625 
Q 13.234375 26.265625 9.515625 29.90625 
Q 5.8125 33.546875 5.8125 39.890625 
Q 5.8125 47.609375 11.28125 51.796875 
Q 16.75 56 26.8125 56 
Q 31.78125 56 36.171875 55.265625 
Q 40.578125 54.546875 44.28125 53.078125 
z
" id="DejaVuSans-73"/>
      <path d="M 56.203125 29.59375 
L 56.203125 25.203125 
L 14.890625 25.203125 
Q 15.484375 15.921875 20.484375 11.0625 
Q 25.484375 6.203125 34.421875 6.203125 
Q 39.59375 6.203125 44.453125 7.46875 
Q 49.3125 8.734375 54.109375 11.28125 
L 54.109375 2.78125 
Q 49.265625 0.734375 44.1875 -0.34375 
Q 39.109375 -1.421875 33.890625 -1.421875 
Q 20.796875 -1.421875 13.15625 6.1875 
Q 5.515625 13.8125 5.515625 26.8125 
Q 5.515625 40.234375 12.765625 48.109375 
Q 20.015625 56 32.328125 56 
Q 43.359375 56 49.78125 48.890625 
Q 56.203125 41.796875 56.203125 29.59375 
z
M 47.21875 32.234375 
Q 47.125 39.59375 43.09375 43.984375 
Q 39.0625 48.390625 32.421875 48.390625 
Q 24.90625 48.390625 20.390625 44.140625 
Q 15.875 39.890625 15.1875 32.171875 
z
" id="DejaVuSans-65"/>
      <path d="M 48.78125 52.59375 
L 48.78125 44.1875 
Q 44.96875 46.296875 41.140625 47.34375 
Q 37.3125 48.390625 33.40625 48.390625 
Q 24.65625 48.390625 19.8125 42.84375 
Q 14.984375 37.3125 14.984375 27.296875 
Q 14.984375 17.28125 19.8125 11.734375 
Q 24.65625 6.203125 33.40625 6.203125 
Q 37.3125 6.203125 41.140625 7.25 
Q 44.96875 8.296875 48.78125 10.40625 
L 48.78125 2.09375 
Q 45.015625 0.34375 40.984375 -0.53125 
Q 36.96875 -1.421875 32.421875 -1.421875 
Q 20.0625 -1.421875 12.78125 6.34375 
Q 5.515625 14.109375 5.515625 27.296875 
Q 5.515625 40.671875 12.859375 48.328125 
Q 20.21875 56 33.015625 56 
Q 37.15625 56 41.109375 55.140625 
Q 45.0625 54.296875 48.78125 52.59375 
z
" id="DejaVuSans-63"/>
     </defs>
     <g transform="translate(238.507656 305.387781)scale(0.1 -0.1)">
      <use xlink:href="#DejaVuSans-73"/>
      <use x="52.099609" xlink:href="#DejaVuSans-65"/>
      <use x="113.623047" xlink:href="#DejaVuSans-63"/>
     </g>
    </g>
   </g>
   <g id="matplotlib.axis_2">
    <g id="ytick_1">
     <g id="line2d_19">
      <path clip-path="url(#pdb6c58ab47)" d="M 68.378125 277.111219 
L 425.498125 277.111219 
" style="fill:none;stroke:#b0b0b0;stroke-linecap:square;stroke-width:0.8;"/>
     </g>
     <g id="line2d_20">
      <defs>
       <path d="M 0 0 
L -3.5 0 
" id="m051e586283" style="stroke:#000000;stroke-width:0.8;"/>
      </defs>
      <g>
       <use style="stroke:#000000;stroke-width:0.8;" x="68.378125" xlink:href="#m051e586283" y="277.111219"/>
      </g>
     </g>
     <g id="text_11">
      <!-- $\mathdefault{10^{-2}}$ -->
      <defs>
       <path d="M 10.59375 35.5 
L 73.1875 35.5 
L 73.1875 27.203125 
L 10.59375 27.203125 
z
" id="DejaVuSans-2212"/>
      </defs>
      <g transform="translate(37.878125 280.910437)scale(0.1 -0.1)">
       <use transform="translate(0 0.765625)" xlink:href="#DejaVuSans-31"/>
       <use transform="translate(63.623047 0.765625)" xlink:href="#DejaVuSans-30"/>
       <use transform="translate(128.203125 39.046875)scale(0.7)" xlink:href="#DejaVuSans-2212"/>
       <use transform="translate(186.855469 39.046875)scale(0.7)" xlink:href="#DejaVuSans-32"/>
      </g>
     </g>
    </g>
    <g id="ytick_2">
     <g id="line2d_21">
      <path clip-path="url(#pdb6c58ab47)" d="M 68.378125 10.999219 
L 425.498125 10.999219 
" style="fill:none;stroke:#b0b0b0;stroke-linecap:square;stroke-width:0.8;"/>
     </g>
     <g id="line2d_22">
      <g>
       <use style="stroke:#000000;stroke-width:0.8;" x="68.378125" xlink:href="#m051e586283" y="10.999219"/>
      </g>
     </g>
     <g id="text_12">
      <!-- $\mathdefault{10^{-1}}$ -->
      <g transform="translate(37.878125 14.798437)scale(0.1 -0.1)">
       <use transform="translate(0 0.684375)" xlink:href="#DejaVuSans-31"/>
       <use transform="translate(63.623047 0.684375)" xlink:href="#DejaVuSans-30"/>
       <use transform="translate(128.203125 38.965625)scale(0.7)" xlink:href="#DejaVuSans-2212"/>
       <use transform="translate(186.855469 38.965625)scale(0.7)" xlink:href="#DejaVuSans-31"/>
      </g>
     </g>
    </g>
    <g id="ytick_3">
     <g id="line2d_23">
      <path clip-path="url(#pdb6c58ab47)" d="M 68.378125 197.003525 
L 425.498125 197.003525 
" style="fill:none;stroke:#b0b0b0;stroke-linecap:square;stroke-width:0.8;"/>
     </g>
     <g id="line2d_24">
      <defs>
       <path d="M 0 0 
L -2 0 
" id="mfbe33f7f89" style="stroke:#000000;stroke-width:0.6;"/>
      </defs>
      <g>
       <use style="stroke:#000000;stroke-width:0.6;" x="68.378125" xlink:href="#mfbe33f7f89" y="197.003525"/>
      </g>
     </g>
     <g id="text_13">
      <!-- $\mathdefault{2\times10^{-2}}$ -->
      <defs>
       <path d="M 70.125 53.71875 
L 47.796875 31.296875 
L 70.125 8.984375 
L 64.3125 3.078125 
L 41.890625 25.484375 
L 19.484375 3.078125 
L 13.71875 8.984375 
L 35.984375 31.296875 
L 13.71875 53.71875 
L 19.484375 59.625 
L 41.890625 37.203125 
L 64.3125 59.625 
z
" id="DejaVuSans-d7"/>
      </defs>
      <g transform="translate(20.878125 200.802743)scale(0.1 -0.1)">
       <use transform="translate(0 0.765625)" xlink:href="#DejaVuSans-32"/>
       <use transform="translate(83.105469 0.765625)" xlink:href="#DejaVuSans-d7"/>
       <use transform="translate(186.376953 0.765625)" xlink:href="#DejaVuSans-31"/>
       <use transform="translate(250 0.765625)" xlink:href="#DejaVuSans-30"/>
       <use transform="translate(314.580078 39.046875)scale(0.7)" xlink:href="#DejaVuSans-2212"/>
       <use transform="translate(373.232422 39.046875)scale(0.7)" xlink:href="#DejaVuSans-32"/>
      </g>
     </g>
    </g>
    <g id="ytick_4">
     <g id="line2d_25">
      <path clip-path="url(#pdb6c58ab47)" d="M 68.378125 150.143527 
L 425.498125 150.143527 
" style="fill:none;stroke:#b0b0b0;stroke-linecap:square;stroke-width:0.8;"/>
     </g>
     <g id="line2d_26">
      <g>
       <use style="stroke:#000000;stroke-width:0.6;" x="68.378125" xlink:href="#mfbe33f7f89" y="150.143527"/>
      </g>
     </g>
     <g id="text_14">
      <!-- $\mathdefault{3\times10^{-2}}$ -->
      <g transform="translate(20.878125 153.942746)scale(0.1 -0.1)">
       <use transform="translate(0 0.765625)" xlink:href="#DejaVuSans-33"/>
       <use transform="translate(83.105469 0.765625)" xlink:href="#DejaVuSans-d7"/>
       <use transform="translate(186.376953 0.765625)" xlink:href="#DejaVuSans-31"/>
       <use transform="translate(250 0.765625)" xlink:href="#DejaVuSans-30"/>
       <use transform="translate(314.580078 39.046875)scale(0.7)" xlink:href="#DejaVuSans-2212"/>
       <use transform="translate(373.232422 39.046875)scale(0.7)" xlink:href="#DejaVuSans-32"/>
      </g>
     </g>
    </g>
    <g id="ytick_5">
     <g id="line2d_27">
      <path clip-path="url(#pdb6c58ab47)" d="M 68.378125 116.89583 
L 425.498125 116.89583 
" style="fill:none;stroke:#b0b0b0;stroke-linecap:square;stroke-width:0.8;"/>
     </g>
     <g id="line2d_28">
      <g>
       <use style="stroke:#000000;stroke-width:0.6;" x="68.378125" xlink:href="#mfbe33f7f89" y="116.89583"/>
      </g>
     </g>
     <g id="text_15">
      <!-- $\mathdefault{4\times10^{-2}}$ -->
      <g transform="translate(20.878125 120.695049)scale(0.1 -0.1)">
       <use transform="translate(0 0.765625)" xlink:href="#DejaVuSans-34"/>
       <use transform="translate(83.105469 0.765625)" xlink:href="#DejaVuSans-d7"/>
       <use transform="translate(186.376953 0.765625)" xlink:href="#DejaVuSans-31"/>
       <use transform="translate(250 0.765625)" xlink:href="#DejaVuSans-30"/>
       <use transform="translate(314.580078 39.046875)scale(0.7)" xlink:href="#DejaVuSans-2212"/>
       <use transform="translate(373.232422 39.046875)scale(0.7)" xlink:href="#DejaVuSans-32"/>
      </g>
     </g>
    </g>
    <g id="ytick_6">
     <g id="line2d_29">
      <path clip-path="url(#pdb6c58ab47)" d="M 68.378125 91.106913 
L 425.498125 91.106913 
" style="fill:none;stroke:#b0b0b0;stroke-linecap:square;stroke-width:0.8;"/>
     </g>
     <g id="line2d_30">
      <g>
       <use style="stroke:#000000;stroke-width:0.6;" x="68.378125" xlink:href="#mfbe33f7f89" y="91.106913"/>
      </g>
     </g>
    </g>
    <g id="ytick_7">
     <g id="line2d_31">
      <path clip-path="url(#pdb6c58ab47)" d="M 68.378125 70.035833 
L 425.498125 70.035833 
" style="fill:none;stroke:#b0b0b0;stroke-linecap:square;stroke-width:0.8;"/>
     </g>
     <g id="line2d_32">
      <g>
       <use style="stroke:#000000;stroke-width:0.6;" x="68.378125" xlink:href="#mfbe33f7f89" y="70.035833"/>
      </g>
     </g>
     <g id="text_16">
      <!-- $\mathdefault{6\times10^{-2}}$ -->
      <defs>
       <path d="M 33.015625 40.375 
Q 26.375 40.375 22.484375 35.828125 
Q 18.609375 31.296875 18.609375 23.390625 
Q 18.609375 15.53125 22.484375 10.953125 
Q 26.375 6.390625 33.015625 6.390625 
Q 39.65625 6.390625 43.53125 10.953125 
Q 47.40625 15.53125 47.40625 23.390625 
Q 47.40625 31.296875 43.53125 35.828125 
Q 39.65625 40.375 33.015625 40.375 
z
M 52.59375 71.296875 
L 52.59375 62.3125 
Q 48.875 64.0625 45.09375 64.984375 
Q 41.3125 65.921875 37.59375 65.921875 
Q 27.828125 65.921875 22.671875 59.328125 
Q 17.53125 52.734375 16.796875 39.40625 
Q 19.671875 43.65625 24.015625 45.921875 
Q 28.375 48.1875 33.59375 48.1875 
Q 44.578125 48.1875 50.953125 41.515625 
Q 57.328125 34.859375 57.328125 23.390625 
Q 57.328125 12.15625 50.6875 5.359375 
Q 44.046875 -1.421875 33.015625 -1.421875 
Q 20.359375 -1.421875 13.671875 8.265625 
Q 6.984375 17.96875 6.984375 36.375 
Q 6.984375 53.65625 15.1875 63.9375 
Q 23.390625 74.21875 37.203125 74.21875 
Q 40.921875 74.21875 44.703125 73.484375 
Q 48.484375 72.75 52.59375 71.296875 
z
" id="DejaVuSans-36"/>
      </defs>
      <g transform="translate(20.878125 73.835052)scale(0.1 -0.1)">
       <use transform="translate(0 0.765625)" xlink:href="#DejaVuSans-36"/>
       <use transform="translate(83.105469 0.765625)" xlink:href="#DejaVuSans-d7"/>
       <use transform="translate(186.376953 0.765625)" xlink:href="#DejaVuSans-31"/>
       <use transform="translate(250 0.765625)" xlink:href="#DejaVuSans-30"/>
       <use transform="translate(314.580078 39.046875)scale(0.7)" xlink:href="#DejaVuSans-2212"/>
       <use transform="translate(373.232422 39.046875)scale(0.7)" xlink:href="#DejaVuSans-32"/>
      </g>
     </g>
    </g>
    <g id="ytick_8">
     <g id="line2d_33">
      <path clip-path="url(#pdb6c58ab47)" d="M 68.378125 52.220489 
L 425.498125 52.220489 
" style="fill:none;stroke:#b0b0b0;stroke-linecap:square;stroke-width:0.8;"/>
     </g>
     <g id="line2d_34">
      <g>
       <use style="stroke:#000000;stroke-width:0.6;" x="68.378125" xlink:href="#mfbe33f7f89" y="52.220489"/>
      </g>
     </g>
    </g>
    <g id="ytick_9">
     <g id="line2d_35">
      <path clip-path="url(#pdb6c58ab47)" d="M 68.378125 36.788136 
L 425.498125 36.788136 
" style="fill:none;stroke:#b0b0b0;stroke-linecap:square;stroke-width:0.8;"/>
     </g>
     <g id="line2d_36">
      <g>
       <use style="stroke:#000000;stroke-width:0.6;" x="68.378125" xlink:href="#mfbe33f7f89" y="36.788136"/>
      </g>
     </g>
    </g>
    <g id="ytick_10">
     <g id="line2d_37">
      <path clip-path="url(#pdb6c58ab47)" d="M 68.378125 23.175836 
L 425.498125 23.175836 
" style="fill:none;stroke:#b0b0b0;stroke-linecap:square;stroke-width:0.8;"/>
     </g>
     <g id="line2d_38">
      <g>
       <use style="stroke:#000000;stroke-width:0.6;" x="68.378125" xlink:href="#mfbe33f7f89" y="23.175836"/>
      </g>
     </g>
    </g>
    <g id="text_17">
     <!-- loss -->
     <defs>
      <path d="M 9.421875 75.984375 
L 18.40625 75.984375 
L 18.40625 0 
L 9.421875 0 
z
" id="DejaVuSans-6c"/>
      <path d="M 30.609375 48.390625 
Q 23.390625 48.390625 19.1875 42.75 
Q 14.984375 37.109375 14.984375 27.296875 
Q 14.984375 17.484375 19.15625 11.84375 
Q 23.34375 6.203125 30.609375 6.203125 
Q 37.796875 6.203125 41.984375 11.859375 
Q 46.1875 17.53125 46.1875 27.296875 
Q 46.1875 37.015625 41.984375 42.703125 
Q 37.796875 48.390625 30.609375 48.390625 
z
M 30.609375 56 
Q 42.328125 56 49.015625 48.375 
Q 55.71875 40.765625 55.71875 27.296875 
Q 55.71875 13.875 49.015625 6.21875 
Q 42.328125 -1.421875 30.609375 -1.421875 
Q 18.84375 -1.421875 12.171875 6.21875 
Q 5.515625 13.875 5.515625 27.296875 
Q 5.515625 40.765625 12.171875 48.375 
Q 18.84375 56 30.609375 56 
z
" id="DejaVuSans-6f"/>
     </defs>
     <g transform="translate(14.798437 153.713031)rotate(-90)scale(0.1 -0.1)">
      <use xlink:href="#DejaVuSans-6c"/>
      <use x="27.783203" xlink:href="#DejaVuSans-6f"/>
      <use x="88.964844" xlink:href="#DejaVuSans-73"/>
      <use x="141.064453" xlink:href="#DejaVuSans-73"/>
     </g>
    </g>
   </g>
   <g id="line2d_39">
    <path clip-path="url(#pdb6c58ab47)" d="M 78.18343 -1 
L 78.377193 33.685786 
L 79.146352 90.618585 
L 79.915511 120.747165 
L 80.68467 129.041955 
L 81.453829 129.228585 
L 82.222988 127.670961 
L 82.992147 132.654549 
L 83.761306 133.247071 
L 84.530466 126.436441 
L 85.299625 125.701647 
L 86.068784 130.220486 
L 86.837943 131.85982 
L 87.607102 130.411425 
L 88.376261 123.079383 
L 89.14542 122.435523 
L 89.914579 130.613319 
L 90.683738 133.672737 
L 91.452897 121.525285 
L 92.991215 131.898678 
L 93.760374 129.479887 
L 94.529534 125.201828 
L 95.298693 122.369665 
L 96.067852 134.054473 
L 96.837011 129.312221 
L 97.60617 132.706081 
L 98.375329 134.416218 
L 99.144488 129.467938 
L 99.913647 129.2067 
L 100.682806 132.139269 
L 101.451965 131.781245 
L 102.221124 129.643942 
L 102.990283 129.547058 
L 103.759442 128.696535 
L 104.528601 129.114517 
L 105.297761 128.509484 
L 106.06692 132.817879 
L 106.836079 134.885999 
L 107.605238 122.237898 
L 108.374397 119.368495 
L 109.143556 130.476167 
L 109.912715 129.976783 
L 110.681874 127.888844 
L 111.451033 129.400043 
L 112.220192 132.949462 
L 112.989351 133.017632 
L 113.75851 130.474864 
L 114.527669 132.888999 
L 115.296829 128.183102 
L 116.065988 124.964472 
L 116.835147 127.20998 
L 117.604306 132.125463 
L 118.373465 131.152319 
L 119.142624 128.678187 
L 119.911783 130.850181 
L 120.680942 126.409041 
L 121.450101 127.588019 
L 122.21926 120.136696 
L 122.988419 121.296622 
L 123.757578 126.823643 
L 124.526737 129.540226 
L 125.295896 131.037078 
L 126.065056 133.446741 
L 126.834215 133.885364 
L 127.603374 133.736432 
L 128.372533 128.568817 
L 129.141692 126.959578 
L 129.910851 131.836258 
L 130.68001 129.287719 
L 131.449169 132.392538 
L 132.218328 132.781704 
L 132.987487 132.820432 
L 133.756646 122.91047 
L 134.525805 123.347761 
L 135.294964 132.809312 
L 136.064124 124.653782 
L 136.833283 126.416752 
L 137.602442 133.282672 
L 138.371601 132.483701 
L 139.14076 128.319476 
L 139.909919 132.766407 
L 140.679078 130.592426 
L 141.448237 130.65858 
L 142.217396 125.589894 
L 142.986555 130.139389 
L 143.755714 132.672485 
L 144.524873 127.880494 
L 145.294032 123.96973 
L 146.063191 127.968279 
L 146.832351 130.674049 
L 147.60151 126.512215 
L 149.139828 116.878223 
L 149.908987 130.615419 
L 150.678146 129.133769 
L 151.447305 122.869694 
L 152.216464 124.511623 
L 152.985623 125.366476 
L 153.754782 127.066539 
L 154.523941 129.357011 
L 155.2931 132.018767 
L 156.062259 135.606552 
L 156.831419 130.148797 
L 157.600578 119.441909 
L 159.138896 130.934801 
L 159.908055 131.618038 
L 160.677214 135.191779 
L 161.446373 132.309568 
L 162.984691 124.0265 
L 163.75385 118.128062 
L 164.523009 121.016924 
L 165.292168 127.064029 
L 166.061327 131.036116 
L 166.830486 125.232759 
L 167.599646 122.808972 
L 168.368805 124.23811 
L 169.137964 117.804626 
L 169.907123 119.875155 
L 170.676282 124.068592 
L 171.445441 130.507083 
L 172.2146 131.42681 
L 172.983759 133.7052 
L 173.752918 134.864065 
L 174.522077 129.305822 
L 175.291236 129.852761 
L 176.060395 128.12604 
L 176.829554 131.29201 
L 177.598714 124.92738 
L 178.367873 133.012257 
L 179.137032 133.593746 
L 179.906191 133.332579 
L 180.67535 125.573708 
L 182.213668 128.824843 
L 182.982827 130.885419 
L 183.751986 135.621675 
L 184.521145 131.83243 
L 185.290304 128.972359 
L 186.059463 129.423906 
L 186.828622 118.829687 
L 187.597781 128.804451 
L 188.366941 132.796855 
L 189.1361 131.123755 
L 190.674418 130.333343 
L 191.443577 126.109174 
L 192.212736 129.939303 
L 192.981895 131.97185 
L 193.751054 129.99804 
L 194.520213 128.921143 
L 195.289372 128.06606 
L 196.058531 120.844494 
L 196.82769 123.855952 
L 197.596849 125.750075 
L 198.366009 130.158642 
L 199.135168 125.810939 
L 199.904327 134.177839 
L 200.673486 134.829685 
L 201.442645 133.695827 
L 202.211804 134.663398 
L 202.980963 134.471005 
L 203.750122 132.960646 
L 204.519281 130.240646 
L 205.28844 134.562882 
L 206.057599 132.936178 
L 206.826758 129.333411 
L 207.595917 130.34484 
L 208.365077 135.261103 
L 209.134236 133.859368 
L 209.903395 130.549017 
L 210.672554 128.3099 
L 211.441713 125.332267 
L 212.210872 126.478666 
L 212.980031 132.195186 
L 213.74919 124.521735 
L 214.518349 130.666935 
L 215.287508 129.835965 
L 216.056667 122.63131 
L 216.825826 133.154251 
L 217.594985 131.996269 
L 218.364144 125.037297 
L 219.133304 127.298342 
L 219.902463 126.512006 
L 220.671622 119.549079 
L 221.440781 126.021617 
L 222.20994 124.360573 
L 222.979099 133.864989 
L 223.748258 133.757091 
L 224.517417 133.408279 
L 225.286576 123.685187 
L 226.055735 133.017222 
L 226.824894 133.791551 
L 227.594053 132.488193 
L 228.363212 129.197562 
L 229.132372 129.672857 
L 229.901531 117.637561 
L 230.67069 127.867346 
L 231.439849 122.216394 
L 232.209008 127.075874 
L 233.747326 133.6376 
L 234.516485 130.219437 
L 235.285644 132.523927 
L 236.054803 118.70506 
L 236.823962 131.980299 
L 237.593121 123.094501 
L 238.36228 126.548604 
L 239.131439 133.068098 
L 239.900599 130.73512 
L 240.669758 132.358732 
L 241.438917 125.821758 
L 242.208076 128.879407 
L 242.977235 120.377563 
L 243.746394 124.778054 
L 244.515553 124.514596 
L 245.284712 132.386945 
L 246.053871 128.728128 
L 246.82303 132.595343 
L 247.592189 134.879331 
L 248.361348 132.316679 
L 249.130507 130.493026 
L 249.899667 126.414785 
L 250.668826 125.866409 
L 251.437985 129.21661 
L 252.207144 125.93275 
L 252.976303 123.488699 
L 253.745462 127.86929 
L 254.514621 128.210465 
L 255.28378 127.73231 
L 256.052939 128.342293 
L 256.822098 129.216205 
L 257.591257 119.553205 
L 258.360416 117.423013 
L 259.129575 128.602907 
L 259.898734 124.242632 
L 260.667894 125.186345 
L 261.437053 132.612767 
L 262.206212 123.118444 
L 262.975371 124.162768 
L 263.74453 130.509785 
L 264.513689 130.022695 
L 265.282848 134.396614 
L 266.052007 130.480591 
L 267.590325 131.334044 
L 268.359484 133.238207 
L 269.128643 133.179419 
L 269.897802 131.868412 
L 270.666962 119.683781 
L 272.20528 131.472279 
L 272.974439 134.063395 
L 273.743598 133.746265 
L 274.512757 133.085306 
L 275.281916 133.484537 
L 276.051075 127.425915 
L 276.820234 124.601316 
L 277.589393 131.485708 
L 278.358552 131.643137 
L 279.127711 133.589806 
L 279.89687 128.868831 
L 280.666029 128.542656 
L 281.435189 124.109251 
L 282.204348 130.002423 
L 282.973507 128.915107 
L 283.742666 130.768843 
L 284.511825 128.912617 
L 285.280984 112.942863 
L 286.050143 111.659873 
L 286.819302 129.816327 
L 287.588461 130.22716 
L 288.35762 132.51241 
L 289.126779 133.29615 
L 289.895938 133.104275 
L 290.665097 130.701271 
L 291.434257 129.790853 
L 292.203416 130.740747 
L 292.972575 131.328484 
L 293.741734 129.060867 
L 294.510893 128.873188 
L 295.280052 123.287826 
L 296.049211 126.538662 
L 296.81837 124.521594 
L 297.587529 128.68031 
L 298.356688 127.583028 
L 299.125847 127.52068 
L 299.895006 129.94258 
L 300.664165 133.127169 
L 301.433324 127.552904 
L 302.202484 131.906658 
L 302.971643 134.778322 
L 303.740802 133.989442 
L 304.509961 125.930129 
L 305.27912 121.997711 
L 306.048279 124.265894 
L 306.817438 135.164982 
L 307.586597 135.02542 
L 308.355756 128.860232 
L 309.124915 129.25711 
L 309.894074 130.895536 
L 310.663233 131.726956 
L 311.432392 129.056218 
L 312.201552 129.419593 
L 312.970711 131.325237 
L 313.73987 125.538911 
L 314.509029 132.49518 
L 315.278188 121.444835 
L 316.047347 120.33905 
L 316.816506 134.491632 
L 317.585665 132.009618 
L 318.354824 128.958366 
L 319.123983 128.027858 
L 319.893142 129.676941 
L 320.662301 133.603044 
L 321.43146 129.858802 
L 322.200619 123.167066 
L 322.969779 124.469657 
L 323.738938 117.561518 
L 325.277256 133.06766 
L 326.046415 126.235083 
L 326.815574 128.047847 
L 327.584733 131.403855 
L 328.353892 128.697865 
L 329.123051 125.53453 
L 329.89221 132.155988 
L 330.661369 129.353686 
L 331.430528 131.168961 
L 332.199687 126.348476 
L 332.968847 124.824207 
L 333.738006 129.646804 
L 334.507165 131.828961 
L 335.276324 132.985575 
L 336.045483 134.538348 
L 336.814642 131.673317 
L 337.583801 135.610959 
L 338.35296 132.535581 
L 339.122119 130.48568 
L 339.891278 132.792695 
L 340.660437 124.986564 
L 341.429596 119.710827 
L 342.198755 127.20485 
L 342.967914 132.783629 
L 343.737074 128.980149 
L 344.506233 127.707847 
L 345.275392 133.579115 
L 346.044551 131.474896 
L 346.81371 132.363447 
L 347.582869 125.885462 
L 348.352028 115.969969 
L 349.121187 120.2853 
L 349.890346 129.22319 
L 350.659505 134.264789 
L 351.428664 124.005319 
L 352.197823 122.404627 
L 352.966982 131.357732 
L 353.736142 131.121605 
L 354.505301 123.813426 
L 355.27446 125.422953 
L 356.043619 128.324485 
L 356.812778 126.442369 
L 357.581937 118.151128 
L 358.351096 130.516485 
L 359.120255 129.95367 
L 359.889414 130.292389 
L 360.658573 127.703726 
L 361.427732 126.695971 
L 362.196891 132.192422 
L 362.96605 133.016369 
L 363.735209 126.130308 
L 364.504369 132.115072 
L 365.273528 133.233466 
L 366.042687 125.56925 
L 366.811846 132.45405 
L 367.581005 132.735126 
L 368.350164 130.133351 
L 369.119323 134.021684 
L 369.888482 133.341471 
L 370.657641 130.397417 
L 371.4268 134.058268 
L 372.195959 129.579077 
L 372.965118 123.938907 
L 373.734277 120.356792 
L 374.503437 131.091485 
L 375.272596 125.414707 
L 376.041755 133.016638 
L 376.810914 125.988803 
L 377.580073 130.937074 
L 378.349232 132.694682 
L 379.118391 122.135919 
L 379.88755 133.557903 
L 380.656709 131.470116 
L 381.425868 120.903855 
L 382.195027 126.949932 
L 382.964186 131.409967 
L 383.733345 126.110798 
L 384.502504 124.785587 
L 385.271664 131.666095 
L 386.040823 121.641983 
L 386.809982 124.454632 
L 387.579141 132.248981 
L 388.3483 133.916251 
L 389.117459 125.492724 
L 391.424936 132.932938 
L 392.194095 132.304087 
L 392.963254 132.9302 
L 394.501572 118.719907 
L 396.039891 131.606984 
L 396.80905 126.781661 
L 397.578209 120.774163 
L 398.347368 123.079081 
L 399.116527 130.126983 
L 399.885686 126.321587 
L 400.654845 127.190059 
L 401.424004 122.097182 
L 402.193163 129.729407 
L 402.962322 131.946396 
L 403.731481 125.725339 
L 404.50064 126.428756 
L 405.269799 130.00271 
L 406.038959 131.235658 
L 406.808118 124.505262 
L 407.577277 131.925707 
L 408.346436 127.583756 
L 409.115595 133.1297 
L 409.884754 130.902164 
L 410.653913 133.489324 
L 412.192231 130.687388 
L 412.96139 130.723558 
L 413.730549 127.010725 
L 414.499708 124.903892 
L 415.268867 123.840741 
L 416.038027 131.574624 
L 416.807186 130.085069 
L 417.576345 134.028442 
L 418.345504 133.67763 
L 419.114663 132.34583 
L 419.883822 128.270077 
L 420.652981 130.664104 
L 421.42214 131.534338 
L 422.191299 124.849008 
L 422.960458 127.042779 
L 423.729617 127.283533 
L 424.498776 124.425349 
L 425.267935 129.098086 
L 426.037094 124.731613 
L 426.806254 125.190499 
L 428.344572 132.62403 
L 429.88289 125.581652 
L 430.652049 127.823565 
L 431.421208 128.665428 
L 432.190367 132.767412 
L 432.959526 129.222285 
L 433.728685 121.791988 
L 435.267003 132.146885 
L 436.036162 133.811617 
L 436.805322 133.518124 
L 437.574481 132.360127 
L 438.34364 131.700179 
L 439.112799 132.225635 
L 439.881958 133.936862 
L 440.651117 134.568025 
L 441.420276 134.116828 
L 441.649688 133.373219 
L 441.649688 133.373219 
" style="fill:none;stroke:#1f77b4;stroke-linecap:square;stroke-width:1.5;"/>
   </g>
   <g id="line2d_40">
    <path clip-path="url(#pdb6c58ab47)" d="M 69.501133 -1 
L 69.929585 122.173182 
L 70.705316 126.980152 
L 71.481046 129.986902 
L 72.256776 135.50485 
L 73.032506 133.297879 
L 73.808237 137.576958 
L 74.583967 140.660073 
L 75.359697 139.968496 
L 76.135427 139.739394 
L 76.911158 145.192904 
L 77.686888 146.470627 
L 78.462618 146.142847 
L 79.238348 146.440294 
L 80.014079 148.685648 
L 80.789809 149.939229 
L 81.565539 149.170196 
L 82.341269 148.580045 
L 83.116999 151.029113 
L 85.44419 149.871305 
L 86.21992 149.811625 
L 86.995651 153.101367 
L 87.771381 153.867536 
L 88.547111 153.045437 
L 89.322841 154.089102 
L 90.098572 154.02112 
L 90.874302 153.615238 
L 91.650032 153.542713 
L 92.425762 154.883116 
L 93.201493 154.644308 
L 93.977223 154.535167 
L 94.752953 154.750783 
L 95.528683 151.32387 
L 96.304413 154.945982 
L 97.080144 154.442693 
L 97.855874 156.482151 
L 98.631604 156.236187 
L 100.183065 156.311673 
L 101.734525 155.535141 
L 102.510255 156.521754 
L 103.285986 154.588216 
L 104.061716 156.857872 
L 104.837446 156.133839 
L 105.613176 155.712345 
L 106.388907 158.566865 
L 107.164637 158.007688 
L 107.940367 155.851508 
L 108.716097 156.907103 
L 109.491828 156.641323 
L 110.267558 158.405241 
L 111.043288 155.628679 
L 111.819018 157.754833 
L 112.594748 158.474596 
L 113.370479 157.174566 
L 114.146209 158.49269 
L 114.921939 158.02978 
L 115.697669 155.729403 
L 116.4734 156.502064 
L 117.24913 155.31699 
L 118.02486 159.667103 
L 118.80059 158.910559 
L 119.576321 157.528245 
L 120.352051 159.04228 
L 121.127781 158.522104 
L 121.903511 156.949817 
L 122.679242 158.372833 
L 123.454972 157.252661 
L 124.230702 159.091089 
L 125.006432 159.262169 
L 125.782162 160.3221 
L 126.557893 160.979477 
L 127.333623 159.588137 
L 128.109353 160.273137 
L 128.885083 159.178869 
L 129.660814 160.505645 
L 130.436544 160.320222 
L 131.212274 158.119896 
L 131.988004 160.321621 
L 132.763735 159.62553 
L 133.539465 160.041299 
L 134.315195 160.121864 
L 135.090925 158.943324 
L 135.866656 160.594545 
L 137.418116 158.644734 
L 138.193846 160.947749 
L 138.969576 161.465611 
L 139.745307 160.778314 
L 140.521037 161.277385 
L 141.296767 161.520238 
L 142.072497 161.100435 
L 142.848228 162.335 
L 143.623958 161.241138 
L 144.399688 162.079096 
L 145.175418 158.022996 
L 145.951149 159.004904 
L 146.726879 161.555245 
L 147.502609 162.279929 
L 149.05407 161.445989 
L 149.8298 161.219966 
L 150.60553 162.957846 
L 151.38126 160.669129 
L 152.15699 161.982317 
L 152.932721 162.409389 
L 153.708451 159.41186 
L 154.484181 162.657578 
L 156.035642 162.853928 
L 156.811372 163.53807 
L 157.587102 161.639394 
L 158.362832 161.362242 
L 159.138563 163.655167 
L 159.914293 161.176979 
L 160.690023 163.563467 
L 161.465753 163.040397 
L 162.241484 164.135049 
L 163.017214 158.903166 
L 163.792944 162.011995 
L 164.568674 160.496698 
L 165.344404 161.306209 
L 166.120135 159.252623 
L 166.895865 164.149817 
L 167.671595 163.639879 
L 168.447325 162.675837 
L 169.223056 164.160745 
L 169.998786 162.121267 
L 170.774516 163.897738 
L 171.550246 162.580884 
L 172.325977 164.627454 
L 173.101707 163.119949 
L 173.877437 162.948075 
L 174.653167 165.686471 
L 175.428898 162.554574 
L 176.204628 163.037274 
L 176.980358 163.039601 
L 177.756088 165.710813 
L 178.531819 165.036526 
L 179.307549 164.600232 
L 180.083279 165.277567 
L 180.859009 164.898526 
L 181.634739 162.329561 
L 182.41047 164.919942 
L 183.1862 163.783671 
L 183.96193 164.421152 
L 184.73766 165.404846 
L 185.513391 165.122632 
L 186.289121 164.479202 
L 187.064851 163.017087 
L 187.840581 162.424629 
L 188.616312 163.381795 
L 189.392042 165.790463 
L 190.167772 163.246093 
L 190.943502 165.597331 
L 191.719233 165.549627 
L 192.494963 163.505442 
L 193.270693 165.906415 
L 194.046423 165.163295 
L 194.822153 163.992007 
L 195.597884 163.584051 
L 196.373614 164.698925 
L 197.149344 164.600724 
L 197.925074 165.838413 
L 198.700805 163.386479 
L 199.476535 164.916785 
L 200.252265 163.582308 
L 201.027995 166.816331 
L 201.803726 166.441932 
L 202.579456 167.406267 
L 203.355186 166.542732 
L 204.130916 167.120735 
L 204.906647 165.938165 
L 205.682377 164.171634 
L 206.458107 166.534794 
L 207.233837 166.443124 
L 208.009567 164.382266 
L 208.785298 166.736762 
L 209.561028 166.177579 
L 210.336758 167.006731 
L 211.112488 166.76176 
L 211.888219 162.721263 
L 212.663949 165.865521 
L 213.439679 167.059703 
L 214.215409 167.110242 
L 214.99114 161.599997 
L 215.76687 166.382707 
L 216.5426 166.180102 
L 217.31833 163.829634 
L 218.094061 164.237027 
L 218.869791 166.809881 
L 219.645521 162.828245 
L 220.421251 167.67179 
L 221.196981 167.147056 
L 221.972712 166.129934 
L 222.748442 166.840144 
L 223.524172 165.32756 
L 224.299902 167.30786 
L 225.075633 166.480594 
L 225.851363 166.791899 
L 226.627093 167.228822 
L 227.402823 165.157998 
L 228.178554 166.833281 
L 228.954284 166.157264 
L 229.730014 167.325507 
L 230.505744 166.987241 
L 231.281475 163.738525 
L 232.057205 167.190797 
L 232.832935 168.94685 
L 233.608665 166.539498 
L 234.384396 167.657124 
L 235.160126 167.334671 
L 235.935856 167.319544 
L 236.711586 167.767763 
L 237.487316 165.344428 
L 238.263047 165.87409 
L 239.038777 161.295606 
L 239.814507 168.647615 
L 240.590237 168.306249 
L 241.365968 166.411378 
L 242.141698 166.31507 
L 242.917428 166.701197 
L 243.693158 167.330788 
L 244.468889 165.952882 
L 245.244619 163.996832 
L 246.020349 167.256961 
L 246.796079 168.670894 
L 247.57181 169.476953 
L 248.34754 168.315564 
L 249.12327 170.030082 
L 249.899 169.792709 
L 250.67473 169.749095 
L 251.450461 168.352505 
L 252.226191 168.03674 
L 253.001921 169.186739 
L 253.777651 166.861919 
L 254.553382 168.79594 
L 255.329112 167.518806 
L 256.104842 168.070628 
L 257.656303 168.466667 
L 258.432033 169.179417 
L 259.207763 166.138178 
L 259.983493 165.731962 
L 260.759224 166.023769 
L 261.534954 167.720468 
L 262.310684 167.949254 
L 263.086414 168.893059 
L 263.862144 165.714758 
L 264.637875 167.483808 
L 265.413605 170.044151 
L 266.189335 170.142854 
L 266.965065 169.972726 
L 267.740796 167.885244 
L 268.516526 170.070336 
L 269.292256 169.633049 
L 270.067986 170.58757 
L 270.843717 168.934724 
L 271.619447 168.533978 
L 272.395177 166.209928 
L 273.170907 169.379973 
L 273.946638 169.50371 
L 274.722368 169.859277 
L 275.498098 169.976755 
L 276.273828 169.721442 
L 277.049558 170.263206 
L 277.825289 169.017717 
L 278.601019 170.032727 
L 279.376749 170.422697 
L 280.152479 168.259265 
L 280.92821 171.003278 
L 281.70394 171.041143 
L 282.47967 168.822086 
L 283.2554 169.619527 
L 284.031131 168.762754 
L 284.806861 169.707822 
L 285.582591 171.380478 
L 286.358321 168.879136 
L 287.134052 165.743238 
L 287.909782 168.384112 
L 288.685512 170.307686 
L 289.461242 169.410294 
L 290.236972 170.92409 
L 291.012703 171.668121 
L 291.788433 171.794577 
L 292.564163 171.393079 
L 293.339893 170.568754 
L 294.115624 172.398586 
L 294.891354 171.514734 
L 295.667084 172.10077 
L 296.442814 171.69681 
L 297.218545 171.896835 
L 297.994275 169.438121 
L 298.770005 167.887686 
L 299.545735 169.203582 
L 300.321466 170.063271 
L 301.097196 171.728363 
L 301.872926 168.949669 
L 302.648656 170.338267 
L 303.424387 170.915667 
L 304.200117 171.771131 
L 304.975847 171.174903 
L 305.751577 171.617301 
L 306.527307 169.087648 
L 307.303038 167.62714 
L 308.078768 171.261028 
L 308.854498 172.759113 
L 309.630228 171.889714 
L 311.181689 169.5947 
L 311.957419 171.163892 
L 312.733149 169.570741 
L 313.50888 170.539491 
L 314.28461 170.828267 
L 315.06034 172.307204 
L 315.83607 170.66258 
L 316.611801 172.582672 
L 317.387531 168.652375 
L 318.163261 172.229355 
L 318.938991 172.167768 
L 319.714721 170.967579 
L 320.490452 170.145881 
L 321.266182 171.225108 
L 322.041912 171.281135 
L 322.817642 171.872925 
L 323.593373 169.665292 
L 324.369103 168.779859 
L 325.144833 172.871992 
L 325.920563 169.053111 
L 326.696294 172.843343 
L 327.472024 172.151776 
L 328.247754 170.296453 
L 329.023484 172.492695 
L 329.799215 172.301965 
L 330.574945 168.751109 
L 331.350675 170.270863 
L 332.126405 173.015891 
L 332.902135 170.842616 
L 333.677866 170.742275 
L 334.453596 171.59876 
L 335.229326 170.480737 
L 336.005056 172.470027 
L 336.780787 173.847187 
L 337.556517 171.449445 
L 338.332247 174.381712 
L 339.107977 171.801371 
L 339.883708 173.514507 
L 341.435168 173.095241 
L 342.210898 169.886645 
L 342.986629 171.807062 
L 343.762359 171.024251 
L 344.538089 172.600688 
L 345.313819 173.128615 
L 346.089549 171.495663 
L 347.64101 173.811595 
L 348.41674 171.70284 
L 349.19247 172.832239 
L 349.968201 172.256736 
L 350.743931 168.934994 
L 351.519661 172.583378 
L 352.295391 171.747779 
L 353.071122 173.25856 
L 353.846852 171.122701 
L 354.622582 172.864894 
L 355.398312 173.713393 
L 356.174043 173.829093 
L 356.949773 171.334928 
L 357.725503 174.236763 
L 358.501233 172.325239 
L 359.276963 172.115648 
L 360.052694 167.307698 
L 360.828424 173.344815 
L 361.604154 173.5093 
L 362.379884 172.886583 
L 363.155615 172.773632 
L 363.931345 174.436514 
L 364.707075 174.092228 
L 365.482805 174.201985 
L 366.258536 173.078931 
L 367.034266 173.617161 
L 367.809996 174.006527 
L 368.585726 173.894313 
L 369.361457 173.932412 
L 370.137187 172.459176 
L 370.912917 174.91322 
L 372.464378 174.87324 
L 373.240108 172.920499 
L 374.015838 175.159229 
L 374.791568 173.049171 
L 375.567298 174.021319 
L 376.343029 173.788209 
L 377.118759 175.34757 
L 377.894489 172.875236 
L 378.670219 175.840363 
L 379.44595 174.137219 
L 380.22168 175.542279 
L 380.99741 174.182217 
L 381.77314 171.020743 
L 382.548871 174.48252 
L 383.324601 173.748132 
L 384.100331 173.17084 
L 384.876061 173.929279 
L 385.651792 174.10324 
L 386.427522 170.649917 
L 387.203252 173.491412 
L 387.978982 174.705192 
L 388.754712 173.345017 
L 389.530443 174.997345 
L 390.306173 174.807968 
L 391.857633 174.814721 
L 393.409094 174.319764 
L 394.184824 174.865227 
L 394.960554 173.179399 
L 395.736285 175.966667 
L 396.512015 171.555165 
L 397.287745 172.989831 
L 398.063475 175.813411 
L 398.839206 173.413847 
L 399.614936 173.495104 
L 400.390666 174.04161 
L 401.166396 173.519445 
L 401.942126 176.190524 
L 402.717857 174.288139 
L 403.493587 174.907293 
L 404.269317 172.238351 
L 405.045047 175.257857 
L 405.820778 175.539983 
L 406.596508 172.950288 
L 407.372238 174.810266 
L 408.147968 174.971123 
L 408.923699 175.272355 
L 409.699429 173.49351 
L 410.475159 175.28821 
L 411.250889 175.265118 
L 412.80235 176.367393 
L 413.57808 174.98137 
L 414.35381 174.773642 
L 415.12954 175.113204 
L 415.905271 176.432881 
L 416.681001 173.890329 
L 417.456731 172.352979 
L 418.232461 173.395585 
L 419.008192 175.717126 
L 419.783922 176.171402 
L 420.559652 176.049337 
L 421.335382 175.389455 
L 422.111113 175.297848 
L 422.886843 176.541633 
L 423.662573 176.737008 
L 424.438303 177.197222 
L 425.214034 174.691479 
L 425.989764 173.326211 
L 426.765494 175.823907 
L 427.541224 173.005176 
L 428.316955 176.168961 
L 429.092685 175.729979 
L 429.868415 175.5806 
L 430.644145 176.295128 
L 431.419875 176.305787 
L 432.195606 174.162156 
L 432.971336 176.251325 
L 433.747066 174.663616 
L 434.522796 174.96557 
L 435.298527 177.039819 
L 436.074257 177.699927 
L 436.849987 175.442846 
L 437.625717 175.238966 
L 438.401448 176.821253 
L 439.177178 176.022745 
L 439.952908 178.076155 
L 440.728638 175.418107 
L 441.504369 176.548297 
L 441.649688 176.47154 
L 441.649688 176.47154 
" style="fill:none;stroke:#ff7f0e;stroke-linecap:square;stroke-width:1.5;"/>
   </g>
   <g id="line2d_41">
    <path clip-path="url(#pdb6c58ab47)" d="M 73.015027 -1 
L 73.557697 29.021436 
L 75.284221 85.649497 
L 77.010745 110.418894 
L 78.737269 119.083004 
L 80.463793 122.191781 
L 82.190317 123.506988 
L 85.643365 124.618743 
L 89.096413 125.689089 
L 92.549461 126.427688 
L 96.002509 127.288077 
L 104.635129 129.202778 
L 106.361653 129.491471 
L 109.814701 130.350331 
L 111.541225 130.756407 
L 113.267749 131.027225 
L 114.994273 131.439805 
L 120.173845 132.360892 
L 123.626893 133.101555 
L 147.798229 137.041076 
L 165.063469 139.407507 
L 166.789993 139.666037 
L 168.516517 139.776645 
L 170.243041 140.098026 
L 173.696089 140.389908 
L 175.422613 140.705788 
L 177.149137 140.79681 
L 178.875661 141.064628 
L 180.602185 141.176416 
L 185.781757 141.797076 
L 194.414377 142.688066 
L 199.593949 143.229534 
L 204.773521 143.724456 
L 206.500046 143.891252 
L 208.22657 143.931603 
L 209.953094 144.14649 
L 211.679618 144.244225 
L 213.406142 144.476565 
L 216.85919 144.665381 
L 218.585714 144.900009 
L 223.765286 145.297305 
L 227.218334 145.553157 
L 228.944858 145.598471 
L 232.397906 145.957213 
L 237.577478 146.293723 
L 241.030526 146.46129 
L 246.210098 146.934781 
L 247.936622 146.930581 
L 251.38967 147.226928 
L 253.116194 147.211507 
L 256.569242 147.447026 
L 265.201862 148.025694 
L 311.81801 150.241359 
L 315.271058 150.327497 
L 318.724106 150.498894 
L 386.058542 152.641081 
L 387.785066 152.531154 
L 392.964638 152.758704 
L 394.691162 152.687433 
L 398.14421 152.946164 
L 401.597258 152.919643 
L 410.229878 153.19239 
L 415.40945 153.277899 
L 418.862498 153.385152 
L 420.589022 153.457942 
L 424.04207 153.443307 
L 429.221642 153.62959 
L 430.948166 153.509945 
L 434.401214 153.777425 
L 437.854262 153.735065 
L 441.649688 153.874237 
L 441.649688 153.874237 
" style="fill:none;stroke:#2ca02c;stroke-linecap:square;stroke-width:1.5;"/>
   </g>
   <g id="line2d_42">
    <path clip-path="url(#pdb6c58ab47)" d="M 182.77755 -1 
L 215.362693 94.305755 
L 288.854977 235.13938 
L 362.347261 252.543276 
L 441.649688 252.809639 
L 441.649688 252.809639 
" style="fill:none;stroke:#d62728;stroke-dasharray:5.55,2.4;stroke-dashoffset:0;stroke-width:1.5;"/>
   </g>
   <g id="line2d_43">
    <path clip-path="url(#pdb6c58ab47)" d="M 133.139008 -1 
L 151.585278 94.305755 
L 193.188854 232.982916 
L 234.79243 250.142215 
L 276.396007 252.68629 
L 317.999583 256.355371 
L 359.603159 261.174164 
L 401.206735 263.060837 
L 441.649688 262.810847 
L 441.649688 262.810847 
" style="fill:none;stroke:#9467bd;stroke-dasharray:5.55,2.4;stroke-dashoffset:0;stroke-width:1.5;"/>
   </g>
   <g id="line2d_44">
    <path clip-path="url(#pdb6c58ab47)" d="M 101.317426 -1 
L 110.699744 94.305755 
L 131.860554 236.38866 
L 153.021364 252.921009 
L 174.182173 251.811732 
L 195.342983 251.40709 
L 216.503793 258.411508 
L 237.664602 258.036379 
L 258.825412 257.099192 
L 279.986222 259.108473 
L 301.147031 263.013133 
L 322.307841 259.498678 
L 343.468651 256.914575 
L 364.62946 261.718423 
L 385.79027 262.208014 
L 406.95108 259.180252 
L 428.111889 261.434246 
L 441.649688 264.355033 
L 441.649688 264.355033 
" style="fill:none;stroke:#8c564b;stroke-dasharray:5.55,2.4;stroke-dashoffset:0;stroke-width:1.5;"/>
   </g>
   <g id="line2d_45">
    <path clip-path="url(#pdb6c58ab47)" d="M 90.727332 -1 
L 97.093204 94.305755 
L 111.450743 241.679137 
L 125.808282 259.37246 
L 140.165822 261.661778 
L 154.523361 258.34733 
L 168.8809 261.913175 
L 183.23844 260.794689 
L 197.595979 262.55571 
L 211.953518 263.218899 
L 226.311058 262.889922 
L 240.668597 262.143133 
L 255.026136 262.321872 
L 269.383676 262.62994 
L 283.741215 262.750429 
L 298.098754 264.885273 
L 312.456293 262.62484 
L 326.813833 264.172424 
L 355.528911 264.65288 
L 369.886451 263.254134 
L 384.24399 264.40751 
L 398.601529 263.167604 
L 412.959069 264.094776 
L 427.316608 263.848944 
L 441.649688 264.822339 
L 441.649688 264.822339 
" style="fill:none;stroke:#e377c2;stroke-dasharray:5.55,2.4;stroke-dashoffset:0;stroke-width:1.5;"/>
   </g>
   <g id="line2d_46">
    <path clip-path="url(#pdb6c58ab47)" d="M 79.982168 -1 
L 83.287424 94.305755 
L 90.742073 236.773598 
L 98.196723 252.130831 
L 105.651372 254.741604 
L 113.106022 254.288923 
L 128.015321 256.048301 
L 135.46997 257.572235 
L 142.92462 258.13596 
L 150.379269 257.953312 
L 157.833918 258.94402 
L 165.288568 258.305154 
L 172.743217 258.602557 
L 187.652516 261.417854 
L 195.107166 261.304171 
L 202.561815 260.78281 
L 210.016465 261.847391 
L 217.471114 262.125803 
L 224.925764 260.720712 
L 232.380413 260.71679 
L 239.835062 261.188295 
L 254.744361 262.366559 
L 262.199011 261.511465 
L 269.65366 261.235218 
L 277.10831 261.907308 
L 284.562959 261.063533 
L 292.017609 261.915093 
L 299.472258 261.413089 
L 306.926908 262.058077 
L 314.381557 260.041174 
L 321.836206 262.34084 
L 329.290856 262.233112 
L 336.745505 262.604479 
L 344.200155 262.309958 
L 351.654804 262.63857 
L 359.109454 262.27662 
L 366.564103 261.444211 
L 374.018753 262.958365 
L 381.473402 262.145364 
L 388.928052 262.287163 
L 396.382701 263.075236 
L 403.83735 263.178907 
L 411.292 262.040967 
L 418.746649 262.663611 
L 426.201299 262.166031 
L 433.655948 262.351803 
L 441.649688 262.068855 
L 441.649688 262.068855 
" style="fill:none;stroke:#7f7f7f;stroke-dasharray:5.55,2.4;stroke-dashoffset:0;stroke-width:1.5;"/>
   </g>
   <g id="patch_3">
    <path d="M 68.378125 277.111219 
L 68.378125 10.999219 
" style="fill:none;stroke:#000000;stroke-linecap:square;stroke-linejoin:miter;stroke-width:0.8;"/>
   </g>
   <g id="patch_4">
    <path d="M 425.498125 277.111219 
L 425.498125 10.999219 
" style="fill:none;stroke:#000000;stroke-linecap:square;stroke-linejoin:miter;stroke-width:0.8;"/>
   </g>
   <g id="patch_5">
    <path d="M 68.378125 277.111219 
L 425.498125 277.111219 
" style="fill:none;stroke:#000000;stroke-linecap:square;stroke-linejoin:miter;stroke-width:0.8;"/>
   </g>
   <g id="patch_6">
    <path d="M 68.378125 10.999219 
L 425.498125 10.999219 
" style="fill:none;stroke:#000000;stroke-linecap:square;stroke-linejoin:miter;stroke-width:0.8;"/>
   </g>
   <g id="legend_1">
    <g id="patch_7">
     <path d="M 310.673125 136.424219 
L 418.498125 136.424219 
Q 420.498125 136.424219 420.498125 134.424219 
L 420.498125 17.999219 
Q 420.498125 15.999219 418.498125 15.999219 
L 310.673125 15.999219 
Q 308.673125 15.999219 308.673125 17.999219 
L 308.673125 134.424219 
Q 308.673125 136.424219 310.673125 136.424219 
z
" style="fill:#ffffff;opacity:0.8;stroke:#cccccc;stroke-linejoin:miter;"/>
    </g>
    <g id="line2d_47">
     <path d="M 312.673125 24.097656 
L 332.673125 24.097656 
" style="fill:none;stroke:#1f77b4;stroke-linecap:square;stroke-width:1.5;"/>
    </g>
    <g id="line2d_48"/>
    <g id="text_18">
     <!-- SGD, lr 0.1 -->
     <defs>
      <path d="M 53.515625 70.515625 
L 53.515625 60.890625 
Q 47.90625 63.578125 42.921875 64.890625 
Q 37.9375 66.21875 33.296875 66.21875 
Q 25.25 66.21875 20.875 63.09375 
Q 16.5 59.96875 16.5 54.203125 
Q 16.5 49.359375 19.40625 46.890625 
Q 22.3125 44.4375 30.421875 42.921875 
L 36.375 41.703125 
Q 47.40625 39.59375 52.65625 34.296875 
Q 57.90625 29 57.90625 20.125 
Q 57.90625 9.515625 50.796875 4.046875 
Q 43.703125 -1.421875 29.984375 -1.421875 
Q 24.8125 -1.421875 18.96875 -0.25 
Q 13.140625 0.921875 6.890625 3.21875 
L 6.890625 13.375 
Q 12.890625 10.015625 18.65625 8.296875 
Q 24.421875 6.59375 29.984375 6.59375 
Q 38.421875 6.59375 43.015625 9.90625 
Q 47.609375 13.234375 47.609375 19.390625 
Q 47.609375 24.75 44.3125 27.78125 
Q 41.015625 30.8125 33.5 32.328125 
L 27.484375 33.5 
Q 16.453125 35.6875 11.515625 40.375 
Q 6.59375 45.0625 6.59375 53.421875 
Q 6.59375 63.09375 13.40625 68.65625 
Q 20.21875 74.21875 32.171875 74.21875 
Q 37.3125 74.21875 42.625 73.28125 
Q 47.953125 72.359375 53.515625 70.515625 
z
" id="DejaVuSans-53"/>
      <path d="M 59.515625 10.40625 
L 59.515625 29.984375 
L 43.40625 29.984375 
L 43.40625 38.09375 
L 69.28125 38.09375 
L 69.28125 6.78125 
Q 63.578125 2.734375 56.6875 0.65625 
Q 49.8125 -1.421875 42 -1.421875 
Q 24.90625 -1.421875 15.25 8.5625 
Q 5.609375 18.5625 5.609375 36.375 
Q 5.609375 54.25 15.25 64.234375 
Q 24.90625 74.21875 42 74.21875 
Q 49.125 74.21875 55.546875 72.453125 
Q 61.96875 70.703125 67.390625 67.28125 
L 67.390625 56.78125 
Q 61.921875 61.421875 55.765625 63.765625 
Q 49.609375 66.109375 42.828125 66.109375 
Q 29.4375 66.109375 22.71875 58.640625 
Q 16.015625 51.171875 16.015625 36.375 
Q 16.015625 21.625 22.71875 14.15625 
Q 29.4375 6.6875 42.828125 6.6875 
Q 48.046875 6.6875 52.140625 7.59375 
Q 56.25 8.5 59.515625 10.40625 
z
" id="DejaVuSans-47"/>
      <path d="M 19.671875 64.796875 
L 19.671875 8.109375 
L 31.59375 8.109375 
Q 46.6875 8.109375 53.6875 14.9375 
Q 60.6875 21.78125 60.6875 36.53125 
Q 60.6875 51.171875 53.6875 57.984375 
Q 46.6875 64.796875 31.59375 64.796875 
z
M 9.8125 72.90625 
L 30.078125 72.90625 
Q 51.265625 72.90625 61.171875 64.09375 
Q 71.09375 55.28125 71.09375 36.53125 
Q 71.09375 17.671875 61.125 8.828125 
Q 51.171875 0 30.078125 0 
L 9.8125 0 
z
" id="DejaVuSans-44"/>
      <path d="M 11.71875 12.40625 
L 22.015625 12.40625 
L 22.015625 4 
L 14.015625 -11.625 
L 7.71875 -11.625 
L 11.71875 4 
z
" id="DejaVuSans-2c"/>
      <path id="DejaVuSans-20"/>
      <path d="M 41.109375 46.296875 
Q 39.59375 47.171875 37.8125 47.578125 
Q 36.03125 48 33.890625 48 
Q 26.265625 48 22.1875 43.046875 
Q 18.109375 38.09375 18.109375 28.8125 
L 18.109375 0 
L 9.078125 0 
L 9.078125 54.6875 
L 18.109375 54.6875 
L 18.109375 46.1875 
Q 20.953125 51.171875 25.484375 53.578125 
Q 30.03125 56 36.53125 56 
Q 37.453125 56 38.578125 55.875 
Q 39.703125 55.765625 41.0625 55.515625 
z
" id="DejaVuSans-72"/>
     </defs>
     <g transform="translate(340.673125 27.597656)scale(0.1 -0.1)">
      <use xlink:href="#DejaVuSans-53"/>
      <use x="63.476562" xlink:href="#DejaVuSans-47"/>
      <use x="140.966797" xlink:href="#DejaVuSans-44"/>
      <use x="217.96875" xlink:href="#DejaVuSans-2c"/>
      <use x="249.755859" xlink:href="#DejaVuSans-20"/>
      <use x="281.542969" xlink:href="#DejaVuSans-6c"/>
      <use x="309.326172" xlink:href="#DejaVuSans-72"/>
      <use x="350.439453" xlink:href="#DejaVuSans-20"/>
      <use x="382.226562" xlink:href="#DejaVuSans-30"/>
      <use x="445.849609" xlink:href="#DejaVuSans-2e"/>
      <use x="477.636719" xlink:href="#DejaVuSans-31"/>
     </g>
    </g>
    <g id="line2d_49">
     <path d="M 312.673125 38.775781 
L 332.673125 38.775781 
" style="fill:none;stroke:#ff7f0e;stroke-linecap:square;stroke-width:1.5;"/>
    </g>
    <g id="line2d_50"/>
    <g id="text_19">
     <!-- SGD, lr 0.01 -->
     <g transform="translate(340.673125 42.275781)scale(0.1 -0.1)">
      <use xlink:href="#DejaVuSans-53"/>
      <use x="63.476562" xlink:href="#DejaVuSans-47"/>
      <use x="140.966797" xlink:href="#DejaVuSans-44"/>
      <use x="217.96875" xlink:href="#DejaVuSans-2c"/>
      <use x="249.755859" xlink:href="#DejaVuSans-20"/>
      <use x="281.542969" xlink:href="#DejaVuSans-6c"/>
      <use x="309.326172" xlink:href="#DejaVuSans-72"/>
      <use x="350.439453" xlink:href="#DejaVuSans-20"/>
      <use x="382.226562" xlink:href="#DejaVuSans-30"/>
      <use x="445.849609" xlink:href="#DejaVuSans-2e"/>
      <use x="477.636719" xlink:href="#DejaVuSans-30"/>
      <use x="541.259766" xlink:href="#DejaVuSans-31"/>
     </g>
    </g>
    <g id="line2d_51">
     <path d="M 312.673125 53.453906 
L 332.673125 53.453906 
" style="fill:none;stroke:#2ca02c;stroke-linecap:square;stroke-width:1.5;"/>
    </g>
    <g id="line2d_52"/>
    <g id="text_20">
     <!-- SGD, lr 0.001 -->
     <g transform="translate(340.673125 56.953906)scale(0.1 -0.1)">
      <use xlink:href="#DejaVuSans-53"/>
      <use x="63.476562" xlink:href="#DejaVuSans-47"/>
      <use x="140.966797" xlink:href="#DejaVuSans-44"/>
      <use x="217.96875" xlink:href="#DejaVuSans-2c"/>
      <use x="249.755859" xlink:href="#DejaVuSans-20"/>
      <use x="281.542969" xlink:href="#DejaVuSans-6c"/>
      <use x="309.326172" xlink:href="#DejaVuSans-72"/>
      <use x="350.439453" xlink:href="#DejaVuSans-20"/>
      <use x="382.226562" xlink:href="#DejaVuSans-30"/>
      <use x="445.849609" xlink:href="#DejaVuSans-2e"/>
      <use x="477.636719" xlink:href="#DejaVuSans-30"/>
      <use x="541.259766" xlink:href="#DejaVuSans-30"/>
      <use x="604.882812" xlink:href="#DejaVuSans-31"/>
     </g>
    </g>
    <g id="line2d_53">
     <path d="M 312.673125 68.132031 
L 332.673125 68.132031 
" style="fill:none;stroke:#d62728;stroke-dasharray:5.55,2.4;stroke-dashoffset:0;stroke-width:1.5;"/>
    </g>
    <g id="line2d_54"/>
    <g id="text_21">
     <!-- SGN, cg iter 20 -->
     <defs>
      <path d="M 9.8125 72.90625 
L 23.09375 72.90625 
L 55.421875 11.921875 
L 55.421875 72.90625 
L 64.984375 72.90625 
L 64.984375 0 
L 51.703125 0 
L 19.390625 60.984375 
L 19.390625 0 
L 9.8125 0 
z
" id="DejaVuSans-4e"/>
      <path d="M 45.40625 27.984375 
Q 45.40625 37.75 41.375 43.109375 
Q 37.359375 48.484375 30.078125 48.484375 
Q 22.859375 48.484375 18.828125 43.109375 
Q 14.796875 37.75 14.796875 27.984375 
Q 14.796875 18.265625 18.828125 12.890625 
Q 22.859375 7.515625 30.078125 7.515625 
Q 37.359375 7.515625 41.375 12.890625 
Q 45.40625 18.265625 45.40625 27.984375 
z
M 54.390625 6.78125 
Q 54.390625 -7.171875 48.1875 -13.984375 
Q 42 -20.796875 29.203125 -20.796875 
Q 24.46875 -20.796875 20.265625 -20.09375 
Q 16.0625 -19.390625 12.109375 -17.921875 
L 12.109375 -9.1875 
Q 16.0625 -11.328125 19.921875 -12.34375 
Q 23.78125 -13.375 27.78125 -13.375 
Q 36.625 -13.375 41.015625 -8.765625 
Q 45.40625 -4.15625 45.40625 5.171875 
L 45.40625 9.625 
Q 42.625 4.78125 38.28125 2.390625 
Q 33.9375 0 27.875 0 
Q 17.828125 0 11.671875 7.65625 
Q 5.515625 15.328125 5.515625 27.984375 
Q 5.515625 40.671875 11.671875 48.328125 
Q 17.828125 56 27.875 56 
Q 33.9375 56 38.28125 53.609375 
Q 42.625 51.21875 45.40625 46.390625 
L 45.40625 54.6875 
L 54.390625 54.6875 
z
" id="DejaVuSans-67"/>
      <path d="M 9.421875 54.6875 
L 18.40625 54.6875 
L 18.40625 0 
L 9.421875 0 
z
M 9.421875 75.984375 
L 18.40625 75.984375 
L 18.40625 64.59375 
L 9.421875 64.59375 
z
" id="DejaVuSans-69"/>
      <path d="M 18.3125 70.21875 
L 18.3125 54.6875 
L 36.8125 54.6875 
L 36.8125 47.703125 
L 18.3125 47.703125 
L 18.3125 18.015625 
Q 18.3125 11.328125 20.140625 9.421875 
Q 21.96875 7.515625 27.59375 7.515625 
L 36.8125 7.515625 
L 36.8125 0 
L 27.59375 0 
Q 17.1875 0 13.234375 3.875 
Q 9.28125 7.765625 9.28125 18.015625 
L 9.28125 47.703125 
L 2.6875 47.703125 
L 2.6875 54.6875 
L 9.28125 54.6875 
L 9.28125 70.21875 
z
" id="DejaVuSans-74"/>
     </defs>
     <g transform="translate(340.673125 71.632031)scale(0.1 -0.1)">
      <use xlink:href="#DejaVuSans-53"/>
      <use x="63.476562" xlink:href="#DejaVuSans-47"/>
      <use x="140.966797" xlink:href="#DejaVuSans-4e"/>
      <use x="215.771484" xlink:href="#DejaVuSans-2c"/>
      <use x="247.558594" xlink:href="#DejaVuSans-20"/>
      <use x="279.345703" xlink:href="#DejaVuSans-63"/>
      <use x="334.326172" xlink:href="#DejaVuSans-67"/>
      <use x="397.802734" xlink:href="#DejaVuSans-20"/>
      <use x="429.589844" xlink:href="#DejaVuSans-69"/>
      <use x="457.373047" xlink:href="#DejaVuSans-74"/>
      <use x="496.582031" xlink:href="#DejaVuSans-65"/>
      <use x="558.105469" xlink:href="#DejaVuSans-72"/>
      <use x="599.21875" xlink:href="#DejaVuSans-20"/>
      <use x="631.005859" xlink:href="#DejaVuSans-32"/>
      <use x="694.628906" xlink:href="#DejaVuSans-30"/>
     </g>
    </g>
    <g id="line2d_55">
     <path d="M 312.673125 82.810156 
L 332.673125 82.810156 
" style="fill:none;stroke:#9467bd;stroke-dasharray:5.55,2.4;stroke-dashoffset:0;stroke-width:1.5;"/>
    </g>
    <g id="line2d_56"/>
    <g id="text_22">
     <!-- SGN, cg iter 10 -->
     <g transform="translate(340.673125 86.310156)scale(0.1 -0.1)">
      <use xlink:href="#DejaVuSans-53"/>
      <use x="63.476562" xlink:href="#DejaVuSans-47"/>
      <use x="140.966797" xlink:href="#DejaVuSans-4e"/>
      <use x="215.771484" xlink:href="#DejaVuSans-2c"/>
      <use x="247.558594" xlink:href="#DejaVuSans-20"/>
      <use x="279.345703" xlink:href="#DejaVuSans-63"/>
      <use x="334.326172" xlink:href="#DejaVuSans-67"/>
      <use x="397.802734" xlink:href="#DejaVuSans-20"/>
      <use x="429.589844" xlink:href="#DejaVuSans-69"/>
      <use x="457.373047" xlink:href="#DejaVuSans-74"/>
      <use x="496.582031" xlink:href="#DejaVuSans-65"/>
      <use x="558.105469" xlink:href="#DejaVuSans-72"/>
      <use x="599.21875" xlink:href="#DejaVuSans-20"/>
      <use x="631.005859" xlink:href="#DejaVuSans-31"/>
      <use x="694.628906" xlink:href="#DejaVuSans-30"/>
     </g>
    </g>
    <g id="line2d_57">
     <path d="M 312.673125 97.488281 
L 332.673125 97.488281 
" style="fill:none;stroke:#8c564b;stroke-dasharray:5.55,2.4;stroke-dashoffset:0;stroke-width:1.5;"/>
    </g>
    <g id="line2d_58"/>
    <g id="text_23">
     <!-- SGN, cg iter 5 -->
     <g transform="translate(340.673125 100.988281)scale(0.1 -0.1)">
      <use xlink:href="#DejaVuSans-53"/>
      <use x="63.476562" xlink:href="#DejaVuSans-47"/>
      <use x="140.966797" xlink:href="#DejaVuSans-4e"/>
      <use x="215.771484" xlink:href="#DejaVuSans-2c"/>
      <use x="247.558594" xlink:href="#DejaVuSans-20"/>
      <use x="279.345703" xlink:href="#DejaVuSans-63"/>
      <use x="334.326172" xlink:href="#DejaVuSans-67"/>
      <use x="397.802734" xlink:href="#DejaVuSans-20"/>
      <use x="429.589844" xlink:href="#DejaVuSans-69"/>
      <use x="457.373047" xlink:href="#DejaVuSans-74"/>
      <use x="496.582031" xlink:href="#DejaVuSans-65"/>
      <use x="558.105469" xlink:href="#DejaVuSans-72"/>
      <use x="599.21875" xlink:href="#DejaVuSans-20"/>
      <use x="631.005859" xlink:href="#DejaVuSans-35"/>
     </g>
    </g>
    <g id="line2d_59">
     <path d="M 312.673125 112.166406 
L 332.673125 112.166406 
" style="fill:none;stroke:#e377c2;stroke-dasharray:5.55,2.4;stroke-dashoffset:0;stroke-width:1.5;"/>
    </g>
    <g id="line2d_60"/>
    <g id="text_24">
     <!-- SGN, cg iter 3 -->
     <g transform="translate(340.673125 115.666406)scale(0.1 -0.1)">
      <use xlink:href="#DejaVuSans-53"/>
      <use x="63.476562" xlink:href="#DejaVuSans-47"/>
      <use x="140.966797" xlink:href="#DejaVuSans-4e"/>
      <use x="215.771484" xlink:href="#DejaVuSans-2c"/>
      <use x="247.558594" xlink:href="#DejaVuSans-20"/>
      <use x="279.345703" xlink:href="#DejaVuSans-63"/>
      <use x="334.326172" xlink:href="#DejaVuSans-67"/>
      <use x="397.802734" xlink:href="#DejaVuSans-20"/>
      <use x="429.589844" xlink:href="#DejaVuSans-69"/>
      <use x="457.373047" xlink:href="#DejaVuSans-74"/>
      <use x="496.582031" xlink:href="#DejaVuSans-65"/>
      <use x="558.105469" xlink:href="#DejaVuSans-72"/>
      <use x="599.21875" xlink:href="#DejaVuSans-20"/>
      <use x="631.005859" xlink:href="#DejaVuSans-33"/>
     </g>
    </g>
    <g id="line2d_61">
     <path d="M 312.673125 126.844531 
L 332.673125 126.844531 
" style="fill:none;stroke:#7f7f7f;stroke-dasharray:5.55,2.4;stroke-dashoffset:0;stroke-width:1.5;"/>
    </g>
    <g id="line2d_62"/>
    <g id="text_25">
     <!-- SGN, cg iter 1 -->
     <g transform="translate(340.673125 130.344531)scale(0.1 -0.1)">
      <use xlink:href="#DejaVuSans-53"/>
      <use x="63.476562" xlink:href="#DejaVuSans-47"/>
      <use x="140.966797" xlink:href="#DejaVuSans-4e"/>
      <use x="215.771484" xlink:href="#DejaVuSans-2c"/>
      <use x="247.558594" xlink:href="#DejaVuSans-20"/>
      <use x="279.345703" xlink:href="#DejaVuSans-63"/>
      <use x="334.326172" xlink:href="#DejaVuSans-67"/>
      <use x="397.802734" xlink:href="#DejaVuSans-20"/>
      <use x="429.589844" xlink:href="#DejaVuSans-69"/>
      <use x="457.373047" xlink:href="#DejaVuSans-74"/>
      <use x="496.582031" xlink:href="#DejaVuSans-65"/>
      <use x="558.105469" xlink:href="#DejaVuSans-72"/>
      <use x="599.21875" xlink:href="#DejaVuSans-20"/>
      <use x="631.005859" xlink:href="#DejaVuSans-31"/>
     </g>
    </g>
   </g>
  </g>
 </g>
 <defs>
  <clipPath id="pdb6c58ab47">
   <rect height="266.112" width="357.12" x="68.378125" y="10.999219"/>
  </clipPath>
 </defs>
</svg>
