<?xml version="1.0" encoding="utf-8" standalone="no"?>
<!DOCTYPE svg PUBLIC "-//W3C//DTD SVG 1.1//EN"
  "http://www.w3.org/Graphics/SVG/1.1/DTD/svg11.dtd">
<!-- Created with matplotlib (http://matplotlib.org/) -->
<svg height="314.667469pt" version="1.1" viewBox="0 0 440.649688 314.667469" width="440.649688pt" xmlns="http://www.w3.org/2000/svg" xmlns:xlink="http://www.w3.org/1999/xlink">
 <defs>
  <style type="text/css">
*{stroke-linecap:butt;stroke-linejoin:round;}
  </style>
 </defs>
 <g id="figure_1">
  <g id="patch_1">
   <path d="M 0 314.667469 
L 440.649688 314.667469 
L 440.649688 0 
L 0 0 
z
" style="fill:#ffffff;"/>
  </g>
  <g id="axes_1">
   <g id="patch_2">
    <path d="M 68.378125 277.111219 
L 425.498125 277.111219 
L 425.498125 10.999219 
L 68.378125 10.999219 
z
" style="fill:#ffffff;"/>
   </g>
   <g id="matplotlib.axis_1">
    <g id="xtick_1">
     <g id="line2d_1">
      <path clip-path="url(#p9ebe807672)" d="M 68.378125 277.111219 
L 68.378125 10.999219 
" style="fill:none;stroke:#b0b0b0;stroke-linecap:square;stroke-width:0.8;"/>
     </g>
     <g id="line2d_2">
      <defs>
       <path d="M 0 0 
L 0 3.5 
" id="m6a26ee0c83" style="stroke:#000000;stroke-width:0.8;"/>
      </defs>
      <g>
       <use style="stroke:#000000;stroke-width:0.8;" x="68.378125" xlink:href="#m6a26ee0c83" y="277.111219"/>
      </g>
     </g>
     <g id="text_1">
      <!-- 0.0 -->
      <defs>
       <path d="M 31.78125 66.40625 
Q 24.171875 66.40625 20.328125 58.90625 
Q 16.5 51.421875 16.5 36.375 
Q 16.5 21.390625 20.328125 13.890625 
Q 24.171875 6.390625 31.78125 6.390625 
Q 39.453125 6.390625 43.28125 13.890625 
Q 47.125 21.390625 47.125 36.375 
Q 47.125 51.421875 43.28125 58.90625 
Q 39.453125 66.40625 31.78125 66.40625 
z
M 31.78125 74.21875 
Q 44.046875 74.21875 50.515625 64.515625 
Q 56.984375 54.828125 56.984375 36.375 
Q 56.984375 17.96875 50.515625 8.265625 
Q 44.046875 -1.421875 31.78125 -1.421875 
Q 19.53125 -1.421875 13.0625 8.265625 
Q 6.59375 17.96875 6.59375 36.375 
Q 6.59375 54.828125 13.0625 64.515625 
Q 19.53125 74.21875 31.78125 74.21875 
z
" id="DejaVuSans-30"/>
       <path d="M 10.6875 12.40625 
L 21 12.40625 
L 21 0 
L 10.6875 0 
z
" id="DejaVuSans-2e"/>
      </defs>
      <g transform="translate(60.426563 291.709656)scale(0.1 -0.1)">
       <use xlink:href="#DejaVuSans-30"/>
       <use x="63.623047" xlink:href="#DejaVuSans-2e"/>
       <use x="95.410156" xlink:href="#DejaVuSans-30"/>
      </g>
     </g>
    </g>
    <g id="xtick_2">
     <g id="line2d_3">
      <path clip-path="url(#p9ebe807672)" d="M 113.018125 277.111219 
L 113.018125 10.999219 
" style="fill:none;stroke:#b0b0b0;stroke-linecap:square;stroke-width:0.8;"/>
     </g>
     <g id="line2d_4">
      <g>
       <use style="stroke:#000000;stroke-width:0.8;" x="113.018125" xlink:href="#m6a26ee0c83" y="277.111219"/>
      </g>
     </g>
     <g id="text_2">
      <!-- 0.5 -->
      <defs>
       <path d="M 10.796875 72.90625 
L 49.515625 72.90625 
L 49.515625 64.59375 
L 19.828125 64.59375 
L 19.828125 46.734375 
Q 21.96875 47.46875 24.109375 47.828125 
Q 26.265625 48.1875 28.421875 48.1875 
Q 40.625 48.1875 47.75 41.5 
Q 54.890625 34.8125 54.890625 23.390625 
Q 54.890625 11.625 47.5625 5.09375 
Q 40.234375 -1.421875 26.90625 -1.421875 
Q 22.3125 -1.421875 17.546875 -0.640625 
Q 12.796875 0.140625 7.71875 1.703125 
L 7.71875 11.625 
Q 12.109375 9.234375 16.796875 8.0625 
Q 21.484375 6.890625 26.703125 6.890625 
Q 35.15625 6.890625 40.078125 11.328125 
Q 45.015625 15.765625 45.015625 23.390625 
Q 45.015625 31 40.078125 35.4375 
Q 35.15625 39.890625 26.703125 39.890625 
Q 22.75 39.890625 18.8125 39.015625 
Q 14.890625 38.140625 10.796875 36.28125 
z
" id="DejaVuSans-35"/>
      </defs>
      <g transform="translate(105.066563 291.709656)scale(0.1 -0.1)">
       <use xlink:href="#DejaVuSans-30"/>
       <use x="63.623047" xlink:href="#DejaVuSans-2e"/>
       <use x="95.410156" xlink:href="#DejaVuSans-35"/>
      </g>
     </g>
    </g>
    <g id="xtick_3">
     <g id="line2d_5">
      <path clip-path="url(#p9ebe807672)" d="M 157.658125 277.111219 
L 157.658125 10.999219 
" style="fill:none;stroke:#b0b0b0;stroke-linecap:square;stroke-width:0.8;"/>
     </g>
     <g id="line2d_6">
      <g>
       <use style="stroke:#000000;stroke-width:0.8;" x="157.658125" xlink:href="#m6a26ee0c83" y="277.111219"/>
      </g>
     </g>
     <g id="text_3">
      <!-- 1.0 -->
      <defs>
       <path d="M 12.40625 8.296875 
L 28.515625 8.296875 
L 28.515625 63.921875 
L 10.984375 60.40625 
L 10.984375 69.390625 
L 28.421875 72.90625 
L 38.28125 72.90625 
L 38.28125 8.296875 
L 54.390625 8.296875 
L 54.390625 0 
L 12.40625 0 
z
" id="DejaVuSans-31"/>
      </defs>
      <g transform="translate(149.706563 291.709656)scale(0.1 -0.1)">
       <use xlink:href="#DejaVuSans-31"/>
       <use x="63.623047" xlink:href="#DejaVuSans-2e"/>
       <use x="95.410156" xlink:href="#DejaVuSans-30"/>
      </g>
     </g>
    </g>
    <g id="xtick_4">
     <g id="line2d_7">
      <path clip-path="url(#p9ebe807672)" d="M 202.298125 277.111219 
L 202.298125 10.999219 
" style="fill:none;stroke:#b0b0b0;stroke-linecap:square;stroke-width:0.8;"/>
     </g>
     <g id="line2d_8">
      <g>
       <use style="stroke:#000000;stroke-width:0.8;" x="202.298125" xlink:href="#m6a26ee0c83" y="277.111219"/>
      </g>
     </g>
     <g id="text_4">
      <!-- 1.5 -->
      <g transform="translate(194.346563 291.709656)scale(0.1 -0.1)">
       <use xlink:href="#DejaVuSans-31"/>
       <use x="63.623047" xlink:href="#DejaVuSans-2e"/>
       <use x="95.410156" xlink:href="#DejaVuSans-35"/>
      </g>
     </g>
    </g>
    <g id="xtick_5">
     <g id="line2d_9">
      <path clip-path="url(#p9ebe807672)" d="M 246.938125 277.111219 
L 246.938125 10.999219 
" style="fill:none;stroke:#b0b0b0;stroke-linecap:square;stroke-width:0.8;"/>
     </g>
     <g id="line2d_10">
      <g>
       <use style="stroke:#000000;stroke-width:0.8;" x="246.938125" xlink:href="#m6a26ee0c83" y="277.111219"/>
      </g>
     </g>
     <g id="text_5">
      <!-- 2.0 -->
      <defs>
       <path d="M 19.1875 8.296875 
L 53.609375 8.296875 
L 53.609375 0 
L 7.328125 0 
L 7.328125 8.296875 
Q 12.9375 14.109375 22.625 23.890625 
Q 32.328125 33.6875 34.8125 36.53125 
Q 39.546875 41.84375 41.421875 45.53125 
Q 43.3125 49.21875 43.3125 52.78125 
Q 43.3125 58.59375 39.234375 62.25 
Q 35.15625 65.921875 28.609375 65.921875 
Q 23.96875 65.921875 18.8125 64.3125 
Q 13.671875 62.703125 7.8125 59.421875 
L 7.8125 69.390625 
Q 13.765625 71.78125 18.9375 73 
Q 24.125 74.21875 28.421875 74.21875 
Q 39.75 74.21875 46.484375 68.546875 
Q 53.21875 62.890625 53.21875 53.421875 
Q 53.21875 48.921875 51.53125 44.890625 
Q 49.859375 40.875 45.40625 35.40625 
Q 44.1875 33.984375 37.640625 27.21875 
Q 31.109375 20.453125 19.1875 8.296875 
z
" id="DejaVuSans-32"/>
      </defs>
      <g transform="translate(238.986563 291.709656)scale(0.1 -0.1)">
       <use xlink:href="#DejaVuSans-32"/>
       <use x="63.623047" xlink:href="#DejaVuSans-2e"/>
       <use x="95.410156" xlink:href="#DejaVuSans-30"/>
      </g>
     </g>
    </g>
    <g id="xtick_6">
     <g id="line2d_11">
      <path clip-path="url(#p9ebe807672)" d="M 291.578125 277.111219 
L 291.578125 10.999219 
" style="fill:none;stroke:#b0b0b0;stroke-linecap:square;stroke-width:0.8;"/>
     </g>
     <g id="line2d_12">
      <g>
       <use style="stroke:#000000;stroke-width:0.8;" x="291.578125" xlink:href="#m6a26ee0c83" y="277.111219"/>
      </g>
     </g>
     <g id="text_6">
      <!-- 2.5 -->
      <g transform="translate(283.626562 291.709656)scale(0.1 -0.1)">
       <use xlink:href="#DejaVuSans-32"/>
       <use x="63.623047" xlink:href="#DejaVuSans-2e"/>
       <use x="95.410156" xlink:href="#DejaVuSans-35"/>
      </g>
     </g>
    </g>
    <g id="xtick_7">
     <g id="line2d_13">
      <path clip-path="url(#p9ebe807672)" d="M 336.218125 277.111219 
L 336.218125 10.999219 
" style="fill:none;stroke:#b0b0b0;stroke-linecap:square;stroke-width:0.8;"/>
     </g>
     <g id="line2d_14">
      <g>
       <use style="stroke:#000000;stroke-width:0.8;" x="336.218125" xlink:href="#m6a26ee0c83" y="277.111219"/>
      </g>
     </g>
     <g id="text_7">
      <!-- 3.0 -->
      <defs>
       <path d="M 40.578125 39.3125 
Q 47.65625 37.796875 51.625 33 
Q 55.609375 28.21875 55.609375 21.1875 
Q 55.609375 10.40625 48.1875 4.484375 
Q 40.765625 -1.421875 27.09375 -1.421875 
Q 22.515625 -1.421875 17.65625 -0.515625 
Q 12.796875 0.390625 7.625 2.203125 
L 7.625 11.71875 
Q 11.71875 9.328125 16.59375 8.109375 
Q 21.484375 6.890625 26.8125 6.890625 
Q 36.078125 6.890625 40.9375 10.546875 
Q 45.796875 14.203125 45.796875 21.1875 
Q 45.796875 27.640625 41.28125 31.265625 
Q 36.765625 34.90625 28.71875 34.90625 
L 20.21875 34.90625 
L 20.21875 43.015625 
L 29.109375 43.015625 
Q 36.375 43.015625 40.234375 45.921875 
Q 44.09375 48.828125 44.09375 54.296875 
Q 44.09375 59.90625 40.109375 62.90625 
Q 36.140625 65.921875 28.71875 65.921875 
Q 24.65625 65.921875 20.015625 65.03125 
Q 15.375 64.15625 9.8125 62.3125 
L 9.8125 71.09375 
Q 15.4375 72.65625 20.34375 73.4375 
Q 25.25 74.21875 29.59375 74.21875 
Q 40.828125 74.21875 47.359375 69.109375 
Q 53.90625 64.015625 53.90625 55.328125 
Q 53.90625 49.265625 50.4375 45.09375 
Q 46.96875 40.921875 40.578125 39.3125 
z
" id="DejaVuSans-33"/>
      </defs>
      <g transform="translate(328.266563 291.709656)scale(0.1 -0.1)">
       <use xlink:href="#DejaVuSans-33"/>
       <use x="63.623047" xlink:href="#DejaVuSans-2e"/>
       <use x="95.410156" xlink:href="#DejaVuSans-30"/>
      </g>
     </g>
    </g>
    <g id="xtick_8">
     <g id="line2d_15">
      <path clip-path="url(#p9ebe807672)" d="M 380.858125 277.111219 
L 380.858125 10.999219 
" style="fill:none;stroke:#b0b0b0;stroke-linecap:square;stroke-width:0.8;"/>
     </g>
     <g id="line2d_16">
      <g>
       <use style="stroke:#000000;stroke-width:0.8;" x="380.858125" xlink:href="#m6a26ee0c83" y="277.111219"/>
      </g>
     </g>
     <g id="text_8">
      <!-- 3.5 -->
      <g transform="translate(372.906563 291.709656)scale(0.1 -0.1)">
       <use xlink:href="#DejaVuSans-33"/>
       <use x="63.623047" xlink:href="#DejaVuSans-2e"/>
       <use x="95.410156" xlink:href="#DejaVuSans-35"/>
      </g>
     </g>
    </g>
    <g id="xtick_9">
     <g id="line2d_17">
      <path clip-path="url(#p9ebe807672)" d="M 425.498125 277.111219 
L 425.498125 10.999219 
" style="fill:none;stroke:#b0b0b0;stroke-linecap:square;stroke-width:0.8;"/>
     </g>
     <g id="line2d_18">
      <g>
       <use style="stroke:#000000;stroke-width:0.8;" x="425.498125" xlink:href="#m6a26ee0c83" y="277.111219"/>
      </g>
     </g>
     <g id="text_9">
      <!-- 4.0 -->
      <defs>
       <path d="M 37.796875 64.3125 
L 12.890625 25.390625 
L 37.796875 25.390625 
z
M 35.203125 72.90625 
L 47.609375 72.90625 
L 47.609375 25.390625 
L 58.015625 25.390625 
L 58.015625 17.1875 
L 47.609375 17.1875 
L 47.609375 0 
L 37.796875 0 
L 37.796875 17.1875 
L 4.890625 17.1875 
L 4.890625 26.703125 
z
" id="DejaVuSans-34"/>
      </defs>
      <g transform="translate(417.546562 291.709656)scale(0.1 -0.1)">
       <use xlink:href="#DejaVuSans-34"/>
       <use x="63.623047" xlink:href="#DejaVuSans-2e"/>
       <use x="95.410156" xlink:href="#DejaVuSans-30"/>
      </g>
     </g>
    </g>
    <g id="text_10">
     <!-- sec -->
     <defs>
      <path d="M 44.28125 53.078125 
L 44.28125 44.578125 
Q 40.484375 46.53125 36.375 47.5 
Q 32.28125 48.484375 27.875 48.484375 
Q 21.1875 48.484375 17.84375 46.4375 
Q 14.5 44.390625 14.5 40.28125 
Q 14.5 37.15625 16.890625 35.375 
Q 19.28125 33.59375 26.515625 31.984375 
L 29.59375 31.296875 
Q 39.15625 29.25 43.1875 25.515625 
Q 47.21875 21.78125 47.21875 15.09375 
Q 47.21875 7.46875 41.1875 3.015625 
Q 35.15625 -1.421875 24.609375 -1.421875 
Q 20.21875 -1.421875 15.453125 -0.5625 
Q 10.6875 0.296875 5.421875 2 
L 5.421875 11.28125 
Q 10.40625 8.6875 15.234375 7.390625 
Q 20.0625 6.109375 24.8125 6.109375 
Q 31.15625 6.109375 34.5625 8.28125 
Q 37.984375 10.453125 37.984375 14.40625 
Q 37.984375 18.0625 35.515625 20.015625 
Q 33.0625 21.96875 24.703125 23.78125 
L 21.578125 24.515625 
Q 13.234375 26.265625 9.515625 29.90625 
Q 5.8125 33.546875 5.8125 39.890625 
Q 5.8125 47.609375 11.28125 51.796875 
Q 16.75 56 26.8125 56 
Q 31.78125 56 36.171875 55.265625 
Q 40.578125 54.546875 44.28125 53.078125 
z
" id="DejaVuSans-73"/>
      <path d="M 56.203125 29.59375 
L 56.203125 25.203125 
L 14.890625 25.203125 
Q 15.484375 15.921875 20.484375 11.0625 
Q 25.484375 6.203125 34.421875 6.203125 
Q 39.59375 6.203125 44.453125 7.46875 
Q 49.3125 8.734375 54.109375 11.28125 
L 54.109375 2.78125 
Q 49.265625 0.734375 44.1875 -0.34375 
Q 39.109375 -1.421875 33.890625 -1.421875 
Q 20.796875 -1.421875 13.15625 6.1875 
Q 5.515625 13.8125 5.515625 26.8125 
Q 5.515625 40.234375 12.765625 48.109375 
Q 20.015625 56 32.328125 56 
Q 43.359375 56 49.78125 48.890625 
Q 56.203125 41.796875 56.203125 29.59375 
z
M 47.21875 32.234375 
Q 47.125 39.59375 43.09375 43.984375 
Q 39.0625 48.390625 32.421875 48.390625 
Q 24.90625 48.390625 20.390625 44.140625 
Q 15.875 39.890625 15.1875 32.171875 
z
" id="DejaVuSans-65"/>
      <path d="M 48.78125 52.59375 
L 48.78125 44.1875 
Q 44.96875 46.296875 41.140625 47.34375 
Q 37.3125 48.390625 33.40625 48.390625 
Q 24.65625 48.390625 19.8125 42.84375 
Q 14.984375 37.3125 14.984375 27.296875 
Q 14.984375 17.28125 19.8125 11.734375 
Q 24.65625 6.203125 33.40625 6.203125 
Q 37.3125 6.203125 41.140625 7.25 
Q 44.96875 8.296875 48.78125 10.40625 
L 48.78125 2.09375 
Q 45.015625 0.34375 40.984375 -0.53125 
Q 36.96875 -1.421875 32.421875 -1.421875 
Q 20.0625 -1.421875 12.78125 6.34375 
Q 5.515625 14.109375 5.515625 27.296875 
Q 5.515625 40.671875 12.859375 48.328125 
Q 20.21875 56 33.015625 56 
Q 37.15625 56 41.109375 55.140625 
Q 45.0625 54.296875 48.78125 52.59375 
z
" id="DejaVuSans-63"/>
     </defs>
     <g transform="translate(238.507656 305.387781)scale(0.1 -0.1)">
      <use xlink:href="#DejaVuSans-73"/>
      <use x="52.099609" xlink:href="#DejaVuSans-65"/>
      <use x="113.623047" xlink:href="#DejaVuSans-63"/>
     </g>
    </g>
   </g>
   <g id="matplotlib.axis_2">
    <g id="ytick_1">
     <g id="line2d_19">
      <path clip-path="url(#p9ebe807672)" d="M 68.378125 277.111219 
L 425.498125 277.111219 
" style="fill:none;stroke:#b0b0b0;stroke-linecap:square;stroke-width:0.8;"/>
     </g>
     <g id="line2d_20">
      <defs>
       <path d="M 0 0 
L -3.5 0 
" id="m4335a9f84d" style="stroke:#000000;stroke-width:0.8;"/>
      </defs>
      <g>
       <use style="stroke:#000000;stroke-width:0.8;" x="68.378125" xlink:href="#m4335a9f84d" y="277.111219"/>
      </g>
     </g>
     <g id="text_11">
      <!-- $\mathdefault{10^{-2}}$ -->
      <defs>
       <path d="M 10.59375 35.5 
L 73.1875 35.5 
L 73.1875 27.203125 
L 10.59375 27.203125 
z
" id="DejaVuSans-2212"/>
      </defs>
      <g transform="translate(37.878125 280.910437)scale(0.1 -0.1)">
       <use transform="translate(0 0.765625)" xlink:href="#DejaVuSans-31"/>
       <use transform="translate(63.623047 0.765625)" xlink:href="#DejaVuSans-30"/>
       <use transform="translate(128.203125 39.046875)scale(0.7)" xlink:href="#DejaVuSans-2212"/>
       <use transform="translate(186.855469 39.046875)scale(0.7)" xlink:href="#DejaVuSans-32"/>
      </g>
     </g>
    </g>
    <g id="ytick_2">
     <g id="line2d_21">
      <path clip-path="url(#p9ebe807672)" d="M 68.378125 10.999219 
L 425.498125 10.999219 
" style="fill:none;stroke:#b0b0b0;stroke-linecap:square;stroke-width:0.8;"/>
     </g>
     <g id="line2d_22">
      <g>
       <use style="stroke:#000000;stroke-width:0.8;" x="68.378125" xlink:href="#m4335a9f84d" y="10.999219"/>
      </g>
     </g>
     <g id="text_12">
      <!-- $\mathdefault{10^{-1}}$ -->
      <g transform="translate(37.878125 14.798437)scale(0.1 -0.1)">
       <use transform="translate(0 0.684375)" xlink:href="#DejaVuSans-31"/>
       <use transform="translate(63.623047 0.684375)" xlink:href="#DejaVuSans-30"/>
       <use transform="translate(128.203125 38.965625)scale(0.7)" xlink:href="#DejaVuSans-2212"/>
       <use transform="translate(186.855469 38.965625)scale(0.7)" xlink:href="#DejaVuSans-31"/>
      </g>
     </g>
    </g>
    <g id="ytick_3">
     <g id="line2d_23">
      <path clip-path="url(#p9ebe807672)" d="M 68.378125 197.003525 
L 425.498125 197.003525 
" style="fill:none;stroke:#b0b0b0;stroke-linecap:square;stroke-width:0.8;"/>
     </g>
     <g id="line2d_24">
      <defs>
       <path d="M 0 0 
L -2 0 
" id="m0a89fd1d2b" style="stroke:#000000;stroke-width:0.6;"/>
      </defs>
      <g>
       <use style="stroke:#000000;stroke-width:0.6;" x="68.378125" xlink:href="#m0a89fd1d2b" y="197.003525"/>
      </g>
     </g>
     <g id="text_13">
      <!-- $\mathdefault{2\times10^{-2}}$ -->
      <defs>
       <path d="M 70.125 53.71875 
L 47.796875 31.296875 
L 70.125 8.984375 
L 64.3125 3.078125 
L 41.890625 25.484375 
L 19.484375 3.078125 
L 13.71875 8.984375 
L 35.984375 31.296875 
L 13.71875 53.71875 
L 19.484375 59.625 
L 41.890625 37.203125 
L 64.3125 59.625 
z
" id="DejaVuSans-d7"/>
      </defs>
      <g transform="translate(20.878125 200.802743)scale(0.1 -0.1)">
       <use transform="translate(0 0.765625)" xlink:href="#DejaVuSans-32"/>
       <use transform="translate(83.105469 0.765625)" xlink:href="#DejaVuSans-d7"/>
       <use transform="translate(186.376953 0.765625)" xlink:href="#DejaVuSans-31"/>
       <use transform="translate(250 0.765625)" xlink:href="#DejaVuSans-30"/>
       <use transform="translate(314.580078 39.046875)scale(0.7)" xlink:href="#DejaVuSans-2212"/>
       <use transform="translate(373.232422 39.046875)scale(0.7)" xlink:href="#DejaVuSans-32"/>
      </g>
     </g>
    </g>
    <g id="ytick_4">
     <g id="line2d_25">
      <path clip-path="url(#p9ebe807672)" d="M 68.378125 150.143527 
L 425.498125 150.143527 
" style="fill:none;stroke:#b0b0b0;stroke-linecap:square;stroke-width:0.8;"/>
     </g>
     <g id="line2d_26">
      <g>
       <use style="stroke:#000000;stroke-width:0.6;" x="68.378125" xlink:href="#m0a89fd1d2b" y="150.143527"/>
      </g>
     </g>
     <g id="text_14">
      <!-- $\mathdefault{3\times10^{-2}}$ -->
      <g transform="translate(20.878125 153.942746)scale(0.1 -0.1)">
       <use transform="translate(0 0.765625)" xlink:href="#DejaVuSans-33"/>
       <use transform="translate(83.105469 0.765625)" xlink:href="#DejaVuSans-d7"/>
       <use transform="translate(186.376953 0.765625)" xlink:href="#DejaVuSans-31"/>
       <use transform="translate(250 0.765625)" xlink:href="#DejaVuSans-30"/>
       <use transform="translate(314.580078 39.046875)scale(0.7)" xlink:href="#DejaVuSans-2212"/>
       <use transform="translate(373.232422 39.046875)scale(0.7)" xlink:href="#DejaVuSans-32"/>
      </g>
     </g>
    </g>
    <g id="ytick_5">
     <g id="line2d_27">
      <path clip-path="url(#p9ebe807672)" d="M 68.378125 116.89583 
L 425.498125 116.89583 
" style="fill:none;stroke:#b0b0b0;stroke-linecap:square;stroke-width:0.8;"/>
     </g>
     <g id="line2d_28">
      <g>
       <use style="stroke:#000000;stroke-width:0.6;" x="68.378125" xlink:href="#m0a89fd1d2b" y="116.89583"/>
      </g>
     </g>
     <g id="text_15">
      <!-- $\mathdefault{4\times10^{-2}}$ -->
      <g transform="translate(20.878125 120.695049)scale(0.1 -0.1)">
       <use transform="translate(0 0.765625)" xlink:href="#DejaVuSans-34"/>
       <use transform="translate(83.105469 0.765625)" xlink:href="#DejaVuSans-d7"/>
       <use transform="translate(186.376953 0.765625)" xlink:href="#DejaVuSans-31"/>
       <use transform="translate(250 0.765625)" xlink:href="#DejaVuSans-30"/>
       <use transform="translate(314.580078 39.046875)scale(0.7)" xlink:href="#DejaVuSans-2212"/>
       <use transform="translate(373.232422 39.046875)scale(0.7)" xlink:href="#DejaVuSans-32"/>
      </g>
     </g>
    </g>
    <g id="ytick_6">
     <g id="line2d_29">
      <path clip-path="url(#p9ebe807672)" d="M 68.378125 91.106913 
L 425.498125 91.106913 
" style="fill:none;stroke:#b0b0b0;stroke-linecap:square;stroke-width:0.8;"/>
     </g>
     <g id="line2d_30">
      <g>
       <use style="stroke:#000000;stroke-width:0.6;" x="68.378125" xlink:href="#m0a89fd1d2b" y="91.106913"/>
      </g>
     </g>
    </g>
    <g id="ytick_7">
     <g id="line2d_31">
      <path clip-path="url(#p9ebe807672)" d="M 68.378125 70.035833 
L 425.498125 70.035833 
" style="fill:none;stroke:#b0b0b0;stroke-linecap:square;stroke-width:0.8;"/>
     </g>
     <g id="line2d_32">
      <g>
       <use style="stroke:#000000;stroke-width:0.6;" x="68.378125" xlink:href="#m0a89fd1d2b" y="70.035833"/>
      </g>
     </g>
     <g id="text_16">
      <!-- $\mathdefault{6\times10^{-2}}$ -->
      <defs>
       <path d="M 33.015625 40.375 
Q 26.375 40.375 22.484375 35.828125 
Q 18.609375 31.296875 18.609375 23.390625 
Q 18.609375 15.53125 22.484375 10.953125 
Q 26.375 6.390625 33.015625 6.390625 
Q 39.65625 6.390625 43.53125 10.953125 
Q 47.40625 15.53125 47.40625 23.390625 
Q 47.40625 31.296875 43.53125 35.828125 
Q 39.65625 40.375 33.015625 40.375 
z
M 52.59375 71.296875 
L 52.59375 62.3125 
Q 48.875 64.0625 45.09375 64.984375 
Q 41.3125 65.921875 37.59375 65.921875 
Q 27.828125 65.921875 22.671875 59.328125 
Q 17.53125 52.734375 16.796875 39.40625 
Q 19.671875 43.65625 24.015625 45.921875 
Q 28.375 48.1875 33.59375 48.1875 
Q 44.578125 48.1875 50.953125 41.515625 
Q 57.328125 34.859375 57.328125 23.390625 
Q 57.328125 12.15625 50.6875 5.359375 
Q 44.046875 -1.421875 33.015625 -1.421875 
Q 20.359375 -1.421875 13.671875 8.265625 
Q 6.984375 17.96875 6.984375 36.375 
Q 6.984375 53.65625 15.1875 63.9375 
Q 23.390625 74.21875 37.203125 74.21875 
Q 40.921875 74.21875 44.703125 73.484375 
Q 48.484375 72.75 52.59375 71.296875 
z
" id="DejaVuSans-36"/>
      </defs>
      <g transform="translate(20.878125 73.835052)scale(0.1 -0.1)">
       <use transform="translate(0 0.765625)" xlink:href="#DejaVuSans-36"/>
       <use transform="translate(83.105469 0.765625)" xlink:href="#DejaVuSans-d7"/>
       <use transform="translate(186.376953 0.765625)" xlink:href="#DejaVuSans-31"/>
       <use transform="translate(250 0.765625)" xlink:href="#DejaVuSans-30"/>
       <use transform="translate(314.580078 39.046875)scale(0.7)" xlink:href="#DejaVuSans-2212"/>
       <use transform="translate(373.232422 39.046875)scale(0.7)" xlink:href="#DejaVuSans-32"/>
      </g>
     </g>
    </g>
    <g id="ytick_8">
     <g id="line2d_33">
      <path clip-path="url(#p9ebe807672)" d="M 68.378125 52.220489 
L 425.498125 52.220489 
" style="fill:none;stroke:#b0b0b0;stroke-linecap:square;stroke-width:0.8;"/>
     </g>
     <g id="line2d_34">
      <g>
       <use style="stroke:#000000;stroke-width:0.6;" x="68.378125" xlink:href="#m0a89fd1d2b" y="52.220489"/>
      </g>
     </g>
    </g>
    <g id="ytick_9">
     <g id="line2d_35">
      <path clip-path="url(#p9ebe807672)" d="M 68.378125 36.788136 
L 425.498125 36.788136 
" style="fill:none;stroke:#b0b0b0;stroke-linecap:square;stroke-width:0.8;"/>
     </g>
     <g id="line2d_36">
      <g>
       <use style="stroke:#000000;stroke-width:0.6;" x="68.378125" xlink:href="#m0a89fd1d2b" y="36.788136"/>
      </g>
     </g>
    </g>
    <g id="ytick_10">
     <g id="line2d_37">
      <path clip-path="url(#p9ebe807672)" d="M 68.378125 23.175836 
L 425.498125 23.175836 
" style="fill:none;stroke:#b0b0b0;stroke-linecap:square;stroke-width:0.8;"/>
     </g>
     <g id="line2d_38">
      <g>
       <use style="stroke:#000000;stroke-width:0.6;" x="68.378125" xlink:href="#m0a89fd1d2b" y="23.175836"/>
      </g>
     </g>
    </g>
    <g id="text_17">
     <!-- test loss -->
     <defs>
      <path d="M 18.3125 70.21875 
L 18.3125 54.6875 
L 36.8125 54.6875 
L 36.8125 47.703125 
L 18.3125 47.703125 
L 18.3125 18.015625 
Q 18.3125 11.328125 20.140625 9.421875 
Q 21.96875 7.515625 27.59375 7.515625 
L 36.8125 7.515625 
L 36.8125 0 
L 27.59375 0 
Q 17.1875 0 13.234375 3.875 
Q 9.28125 7.765625 9.28125 18.015625 
L 9.28125 47.703125 
L 2.6875 47.703125 
L 2.6875 54.6875 
L 9.28125 54.6875 
L 9.28125 70.21875 
z
" id="DejaVuSans-74"/>
      <path id="DejaVuSans-20"/>
      <path d="M 9.421875 75.984375 
L 18.40625 75.984375 
L 18.40625 0 
L 9.421875 0 
z
" id="DejaVuSans-6c"/>
      <path d="M 30.609375 48.390625 
Q 23.390625 48.390625 19.1875 42.75 
Q 14.984375 37.109375 14.984375 27.296875 
Q 14.984375 17.484375 19.15625 11.84375 
Q 23.34375 6.203125 30.609375 6.203125 
Q 37.796875 6.203125 41.984375 11.859375 
Q 46.1875 17.53125 46.1875 27.296875 
Q 46.1875 37.015625 41.984375 42.703125 
Q 37.796875 48.390625 30.609375 48.390625 
z
M 30.609375 56 
Q 42.328125 56 49.015625 48.375 
Q 55.71875 40.765625 55.71875 27.296875 
Q 55.71875 13.875 49.015625 6.21875 
Q 42.328125 -1.421875 30.609375 -1.421875 
Q 18.84375 -1.421875 12.171875 6.21875 
Q 5.515625 13.875 5.515625 27.296875 
Q 5.515625 40.765625 12.171875 48.375 
Q 18.84375 56 30.609375 56 
z
" id="DejaVuSans-6f"/>
     </defs>
     <g transform="translate(14.798438 164.903656)rotate(-90)scale(0.1 -0.1)">
      <use xlink:href="#DejaVuSans-74"/>
      <use x="39.208984" xlink:href="#DejaVuSans-65"/>
      <use x="100.732422" xlink:href="#DejaVuSans-73"/>
      <use x="152.832031" xlink:href="#DejaVuSans-74"/>
      <use x="192.041016" xlink:href="#DejaVuSans-20"/>
      <use x="223.828125" xlink:href="#DejaVuSans-6c"/>
      <use x="251.611328" xlink:href="#DejaVuSans-6f"/>
      <use x="312.792969" xlink:href="#DejaVuSans-73"/>
      <use x="364.892578" xlink:href="#DejaVuSans-73"/>
     </g>
    </g>
   </g>
   <g id="line2d_39">
    <path clip-path="url(#p9ebe807672)" d="M 77.700994 -1 
L 78.377193 80.302498 
L 79.915511 124.505654 
L 80.68467 132.491735 
L 81.453829 123.341114 
L 82.222988 131.063962 
L 82.992147 131.615156 
L 83.761306 130.096523 
L 84.530466 124.351177 
L 85.299625 129.201912 
L 86.068784 128.26378 
L 86.837943 131.866119 
L 87.607102 132.423459 
L 88.376261 126.096119 
L 89.14542 129.302753 
L 89.914579 133.828679 
L 90.683738 134.909906 
L 91.452897 124.522297 
L 92.222056 130.900327 
L 92.991215 131.226847 
L 93.760374 130.101472 
L 94.529534 119.834143 
L 95.298693 129.008434 
L 96.067852 131.589145 
L 96.837011 135.583582 
L 97.60617 133.944312 
L 98.375329 134.154123 
L 99.144488 132.938276 
L 99.913647 136.207659 
L 100.682806 130.356624 
L 101.451965 132.347474 
L 102.221124 135.102616 
L 102.990283 124.721894 
L 103.759442 130.539161 
L 104.528601 129.71689 
L 105.297761 129.160058 
L 106.06692 136.164451 
L 106.836079 131.613715 
L 107.605238 120.214974 
L 108.374397 129.77203 
L 109.143556 127.548684 
L 109.912715 134.705226 
L 110.681874 123.205968 
L 111.451033 133.088501 
L 112.220192 128.820381 
L 112.989351 134.55077 
L 113.75851 132.267911 
L 114.527669 135.662689 
L 115.296829 130.108299 
L 116.065988 135.143114 
L 116.835147 125.012642 
L 117.604306 132.532492 
L 118.373465 129.364479 
L 119.142624 137.109367 
L 119.911783 129.953205 
L 120.680942 129.640225 
L 121.450101 129.987899 
L 122.21926 127.007676 
L 122.988419 125.270049 
L 123.757578 135.650321 
L 124.526737 129.974811 
L 125.295896 135.694503 
L 126.065056 137.021454 
L 126.834215 137.330762 
L 127.603374 130.157398 
L 128.372533 127.230503 
L 129.141692 129.832269 
L 129.910851 136.421294 
L 131.449169 133.477247 
L 132.218328 132.933666 
L 132.987487 129.841713 
L 133.756646 120.672851 
L 134.525805 133.242725 
L 135.294964 127.034303 
L 136.064124 129.450523 
L 136.833283 133.873656 
L 137.602442 134.836066 
L 138.371601 129.148016 
L 139.909919 135.672452 
L 140.679078 134.65109 
L 141.448237 128.537556 
L 142.217396 133.436032 
L 142.986555 132.707514 
L 143.755714 136.245253 
L 144.524873 128.785692 
L 145.294032 132.248586 
L 146.063191 122.793641 
L 146.832351 134.270073 
L 148.370669 121.941131 
L 149.139828 119.159956 
L 149.908987 136.863759 
L 150.678146 126.397148 
L 151.447305 127.309376 
L 152.216464 125.57113 
L 152.985623 128.369453 
L 153.754782 127.548041 
L 154.523941 129.806139 
L 155.2931 136.412261 
L 156.062259 134.135176 
L 156.831419 123.828719 
L 158.369737 128.856261 
L 159.138896 131.908845 
L 159.908055 134.401949 
L 160.677214 137.275901 
L 161.446373 134.627743 
L 162.215532 118.109317 
L 162.984691 114.263463 
L 163.75385 128.821988 
L 165.292168 132.685981 
L 166.061327 128.879951 
L 166.830486 127.001754 
L 167.599646 117.70514 
L 168.368805 124.969356 
L 169.137964 121.553756 
L 169.907123 129.935608 
L 170.676282 131.851675 
L 171.445441 137.341731 
L 172.2146 133.196141 
L 172.983759 130.411398 
L 173.752918 135.9286 
L 174.522077 128.183779 
L 175.291236 132.399896 
L 176.060395 129.090378 
L 176.829554 129.967017 
L 177.598714 134.775833 
L 178.367873 131.179194 
L 179.137032 131.5249 
L 179.906191 137.333883 
L 180.67535 118.251857 
L 181.444509 131.213736 
L 182.213668 126.168573 
L 182.982827 137.165412 
L 183.751986 135.448158 
L 184.521145 128.346223 
L 185.290304 129.116182 
L 186.059463 123.763765 
L 186.828622 115.504067 
L 187.597781 136.179502 
L 188.366941 136.407386 
L 189.1361 129.839707 
L 189.905259 133.715144 
L 190.674418 129.22388 
L 191.443577 128.461129 
L 192.212736 131.222586 
L 192.981895 130.643136 
L 193.751054 126.399075 
L 194.520213 131.590439 
L 195.289372 126.907864 
L 196.058531 129.491901 
L 196.82769 132.934338 
L 197.596849 125.297449 
L 198.366009 131.624945 
L 199.135168 128.061246 
L 199.904327 135.440909 
L 200.673486 134.824399 
L 201.442645 134.938191 
L 202.211804 135.891544 
L 202.980963 129.97115 
L 203.750122 135.212572 
L 204.519281 133.64611 
L 205.28844 137.14044 
L 206.057599 134.611551 
L 206.826758 130.99804 
L 207.595917 136.330742 
L 208.365077 136.591675 
L 209.134236 131.620753 
L 209.903395 132.474242 
L 210.672554 120.770753 
L 212.210872 130.931502 
L 212.980031 132.864103 
L 213.74919 123.040826 
L 214.518349 129.916863 
L 215.287508 134.060346 
L 216.056667 124.424759 
L 216.825826 133.348782 
L 217.594985 128.896997 
L 218.364144 134.212868 
L 219.133304 133.613336 
L 219.902463 127.555517 
L 220.671622 119.652584 
L 221.440781 124.632746 
L 222.20994 135.854842 
L 222.979099 132.646006 
L 223.748258 131.596781 
L 224.517417 133.114738 
L 225.286576 132.943542 
L 226.055735 134.093581 
L 226.824894 133.528555 
L 227.594053 133.740493 
L 228.363212 134.36205 
L 229.132372 125.575053 
L 229.901531 125.160633 
L 230.67069 132.518441 
L 231.439849 129.742128 
L 232.209008 122.900518 
L 232.978167 134.555202 
L 233.747326 136.743552 
L 234.516485 129.640625 
L 235.285644 130.196748 
L 236.054803 122.439681 
L 236.823962 130.555577 
L 237.593121 125.350305 
L 238.36228 132.763271 
L 239.131439 134.488062 
L 239.900599 129.091844 
L 240.669758 128.413906 
L 241.438917 136.250889 
L 242.208076 128.448895 
L 242.977235 129.830794 
L 243.746394 118.91267 
L 244.515553 135.2654 
L 245.284712 127.455475 
L 246.053871 134.427962 
L 246.82303 136.882764 
L 247.592189 134.19543 
L 248.361348 135.465385 
L 249.130507 123.080164 
L 249.899667 129.072183 
L 250.668826 126.023627 
L 251.437985 128.752125 
L 252.207144 116.706014 
L 252.976303 132.467939 
L 253.745462 121.242995 
L 254.514621 132.58989 
L 255.28378 127.294911 
L 256.052939 136.207585 
L 256.822098 131.73704 
L 257.591257 117.980946 
L 258.360416 112.553363 
L 259.129575 125.490881 
L 259.898734 123.840629 
L 260.667894 126.748011 
L 261.437053 132.591811 
L 262.206212 123.194619 
L 262.975371 124.385066 
L 263.74453 131.412687 
L 264.513689 133.437266 
L 265.282848 134.346092 
L 266.052007 129.141539 
L 266.821166 129.731124 
L 267.590325 137.606307 
L 268.359484 137.188381 
L 269.128643 130.778759 
L 269.897802 129.034449 
L 270.666962 118.453073 
L 272.20528 135.141385 
L 272.974439 134.152736 
L 273.743598 134.869534 
L 274.512757 137.350696 
L 275.281916 130.369951 
L 276.051075 130.434231 
L 276.820234 128.956729 
L 277.589393 136.091541 
L 278.358552 134.04583 
L 279.127711 128.333789 
L 280.666029 134.29839 
L 281.435189 130.105336 
L 282.204348 133.700025 
L 282.973507 134.828961 
L 283.742666 135.573498 
L 284.511825 127.168011 
L 285.280984 108.57345 
L 286.819302 135.297285 
L 287.588461 122.570512 
L 288.35762 135.971031 
L 289.126779 134.937367 
L 289.895938 123.114531 
L 290.665097 133.15542 
L 291.434257 135.556028 
L 292.203416 134.656186 
L 292.972575 127.152854 
L 293.741734 128.028598 
L 294.510893 129.513151 
L 295.280052 127.022208 
L 296.049211 126.939246 
L 296.81837 126.680898 
L 297.587529 133.388896 
L 298.356688 127.270121 
L 299.125847 132.398096 
L 299.895006 132.861283 
L 300.664165 134.455256 
L 301.433324 133.871502 
L 302.202484 135.87014 
L 302.971643 136.536218 
L 303.740802 135.824942 
L 305.27912 117.604141 
L 306.048279 135.535611 
L 306.817438 135.387333 
L 308.355756 125.761989 
L 309.124915 118.989653 
L 309.894074 133.000988 
L 310.663233 133.706061 
L 311.432392 128.92706 
L 312.201552 134.733495 
L 312.970711 127.911132 
L 313.73987 128.587881 
L 314.509029 136.178163 
L 315.278188 116.900542 
L 316.047347 137.017346 
L 316.816506 135.759283 
L 317.585665 129.745163 
L 318.354824 135.778642 
L 319.123983 121.902157 
L 319.893142 135.388097 
L 320.662301 134.326669 
L 321.43146 131.995012 
L 322.200619 120.746309 
L 322.969779 131.730895 
L 323.738938 107.346477 
L 324.508097 134.112332 
L 325.277256 127.142962 
L 326.046415 129.667777 
L 326.815574 126.642324 
L 327.584733 118.419924 
L 328.353892 127.391368 
L 329.123051 131.935904 
L 329.89221 137.304912 
L 330.661369 124.935981 
L 331.430528 136.402739 
L 332.199687 116.269655 
L 333.738006 135.775055 
L 334.507165 132.303631 
L 335.276324 135.227581 
L 336.045483 137.436533 
L 336.814642 136.989784 
L 338.35296 130.949414 
L 339.122119 130.462601 
L 339.891278 135.802335 
L 340.660437 127.595665 
L 341.429596 128.474289 
L 342.198755 128.000539 
L 342.967914 131.755134 
L 343.737074 129.207476 
L 344.506233 133.181758 
L 345.275392 132.764035 
L 346.044551 136.781604 
L 346.81371 132.118296 
L 347.582869 111.260435 
L 348.352028 123.233938 
L 349.121187 131.761323 
L 349.890346 135.761178 
L 350.659505 132.084799 
L 351.428664 116.494594 
L 352.197823 128.595268 
L 352.966982 134.07476 
L 353.736142 132.227778 
L 354.505301 125.375028 
L 355.27446 128.861784 
L 356.043619 130.758457 
L 356.812778 122.273131 
L 357.581937 131.62727 
L 358.351096 127.321835 
L 359.120255 127.265773 
L 359.889414 135.860109 
L 360.658573 131.792872 
L 361.427732 135.356817 
L 362.196891 135.331551 
L 362.96605 126.725401 
L 363.735209 128.505994 
L 364.504369 136.392666 
L 365.273528 130.714639 
L 366.042687 127.727105 
L 366.811846 134.21597 
L 367.581005 133.744034 
L 368.350164 135.175519 
L 369.119323 137.201672 
L 369.888482 133.02195 
L 370.657641 127.358441 
L 371.4268 131.343074 
L 372.195959 127.832047 
L 372.965118 124.842429 
L 373.734277 127.522112 
L 374.503437 136.22154 
L 375.272596 133.387652 
L 376.041755 135.844621 
L 376.810914 126.714808 
L 377.580073 129.934642 
L 378.349232 130.15477 
L 379.118391 124.824226 
L 379.88755 136.725669 
L 380.656709 125.090601 
L 381.425868 126.251012 
L 382.195027 124.71765 
L 382.964186 131.607787 
L 383.733345 118.015078 
L 384.502504 127.731521 
L 385.271664 134.900681 
L 386.809982 123.140216 
L 387.579141 136.71866 
L 388.3483 131.802413 
L 389.117459 134.736471 
L 389.886618 132.881239 
L 390.655777 133.025438 
L 391.424936 133.020037 
L 392.194095 133.358689 
L 392.963254 132.835533 
L 393.732413 114.57022 
L 394.501572 118.921206 
L 395.270732 129.202736 
L 396.039891 132.172994 
L 396.80905 120.596617 
L 397.578209 125.006736 
L 398.347368 121.131405 
L 399.116527 133.804403 
L 399.885686 128.401905 
L 400.654845 125.009144 
L 401.424004 126.871096 
L 402.193163 131.916703 
L 402.962322 130.79162 
L 403.731481 127.545829 
L 404.50064 128.741356 
L 405.269799 128.303022 
L 406.038959 128.531225 
L 407.577277 131.45865 
L 408.346436 134.697858 
L 409.115595 134.979381 
L 409.884754 129.659613 
L 410.653913 134.300301 
L 411.423072 127.434719 
L 412.192231 134.381587 
L 412.96139 128.809499 
L 413.730549 128.726196 
L 415.268867 135.017694 
L 416.038027 131.140674 
L 416.807186 131.674096 
L 417.576345 136.650179 
L 418.345504 129.630158 
L 419.114663 130.226013 
L 419.883822 126.213858 
L 420.652981 132.689434 
L 421.42214 125.874232 
L 422.191299 122.22138 
L 422.960458 123.798674 
L 423.729617 126.880339 
L 424.498776 124.330166 
L 425.267935 130.732633 
L 426.037094 124.793636 
L 427.575413 132.47681 
L 428.344572 125.903404 
L 429.113731 129.683833 
L 429.88289 125.578272 
L 430.652049 135.627225 
L 431.421208 129.618551 
L 432.190367 134.633152 
L 432.959526 119.165137 
L 433.728685 130.150702 
L 434.497844 132.690065 
L 435.267003 135.744046 
L 436.036162 135.021763 
L 436.805322 135.497158 
L 437.574481 133.239898 
L 438.34364 137.316885 
L 439.881958 134.918573 
L 440.651117 137.198884 
L 441.420276 135.31568 
L 441.649688 133.992117 
L 441.649688 133.992117 
" style="fill:none;stroke:#1f77b4;stroke-linecap:square;stroke-width:1.5;"/>
   </g>
   <g id="line2d_40">
    <path clip-path="url(#p9ebe807672)" d="M 69.153855 124.184426 
L 69.929585 132.935369 
L 70.705316 135.30363 
L 71.481046 141.766696 
L 72.256776 140.770059 
L 73.032506 144.175688 
L 73.808237 148.111606 
L 74.583967 150.001606 
L 75.359697 145.95025 
L 76.135427 147.154527 
L 76.911158 149.481309 
L 78.462618 149.770983 
L 79.238348 146.620295 
L 80.014079 155.073613 
L 80.789809 153.934567 
L 81.565539 146.124944 
L 82.341269 154.162891 
L 83.116999 152.652426 
L 83.89273 153.616942 
L 84.66846 155.343591 
L 85.44419 154.055181 
L 86.21992 153.120424 
L 86.995651 153.786079 
L 87.771381 156.444717 
L 88.547111 154.660234 
L 89.322841 155.479596 
L 90.098572 154.988862 
L 90.874302 156.410744 
L 91.650032 153.026979 
L 92.425762 150.971045 
L 93.201493 156.768161 
L 93.977223 154.693727 
L 94.752953 148.922974 
L 95.528683 150.951843 
L 97.080144 157.281417 
L 97.855874 155.720864 
L 98.631604 152.910301 
L 99.407334 156.607228 
L 100.183065 155.889603 
L 100.958795 154.181735 
L 101.734525 154.346 
L 102.510255 154.776824 
L 103.285986 155.844068 
L 104.061716 153.956074 
L 104.837446 151.380035 
L 105.613176 153.829631 
L 106.388907 155.703674 
L 107.164637 153.135667 
L 107.940367 155.270015 
L 108.716097 151.458275 
L 109.491828 153.306477 
L 110.267558 153.86533 
L 111.043288 152.480584 
L 111.819018 155.938196 
L 112.594748 151.56139 
L 113.370479 156.768098 
L 114.146209 153.969438 
L 114.921939 156.305971 
L 115.697669 155.701928 
L 116.4734 157.122066 
L 117.24913 157.228901 
L 118.02486 156.028312 
L 118.80059 153.745494 
L 119.576321 156.760914 
L 120.352051 153.842234 
L 121.127781 151.741563 
L 121.903511 157.918552 
L 122.679242 155.890153 
L 123.454972 154.505527 
L 124.230702 156.544438 
L 125.006432 154.30618 
L 125.782162 157.307688 
L 126.557893 156.530612 
L 127.333623 158.207207 
L 128.885083 154.608562 
L 129.660814 158.076826 
L 130.436544 158.466075 
L 131.212274 154.854184 
L 131.988004 155.00503 
L 132.763735 155.410653 
L 133.539465 155.012614 
L 134.315195 155.241501 
L 135.090925 156.207961 
L 135.866656 154.263809 
L 136.642386 156.615523 
L 137.418116 157.059184 
L 138.193846 156.416864 
L 138.969576 156.786089 
L 139.745307 155.068832 
L 140.521037 156.267002 
L 141.296767 153.14506 
L 142.072497 157.255048 
L 142.848228 157.703428 
L 143.623958 157.691959 
L 144.399688 157.288426 
L 145.175418 156.035107 
L 145.951149 155.886502 
L 146.726879 156.159491 
L 147.502609 157.392186 
L 148.278339 158.906931 
L 149.05407 156.027851 
L 149.8298 155.664332 
L 150.60553 158.863078 
L 151.38126 155.268514 
L 152.15699 155.863639 
L 152.932721 154.326032 
L 153.708451 156.413334 
L 154.484181 155.531147 
L 155.259911 156.79278 
L 156.035642 158.418221 
L 156.811372 156.050156 
L 158.362832 158.535443 
L 159.138563 155.876972 
L 159.914293 158.058371 
L 160.690023 156.372578 
L 161.465753 158.252902 
L 163.017214 150.265069 
L 163.792944 153.729213 
L 164.568674 158.707153 
L 165.344404 159.063174 
L 166.120135 154.303147 
L 166.895865 159.36862 
L 167.671595 154.601946 
L 168.447325 154.044169 
L 169.223056 159.189368 
L 169.998786 158.51143 
L 170.774516 158.84817 
L 171.550246 158.90161 
L 172.325977 158.762205 
L 173.101707 158.190754 
L 173.877437 154.924981 
L 174.653167 157.766469 
L 175.428898 156.123899 
L 176.204628 157.34694 
L 176.980358 159.737809 
L 177.756088 158.489 
L 178.531819 156.219532 
L 180.083279 158.177579 
L 180.859009 158.5327 
L 181.634739 157.062624 
L 182.41047 158.799807 
L 183.1862 156.462351 
L 183.96193 159.074495 
L 184.73766 159.347003 
L 185.513391 158.563397 
L 186.289121 156.007848 
L 187.064851 152.370781 
L 187.840581 159.391331 
L 188.616312 160.188708 
L 189.392042 160.55913 
L 190.167772 157.727072 
L 190.943502 160.8584 
L 191.719233 159.014463 
L 192.494963 155.315198 
L 193.270693 158.207324 
L 194.046423 156.788766 
L 194.822153 157.020297 
L 195.597884 158.10382 
L 196.373614 159.706371 
L 197.149344 160.814649 
L 197.925074 160.354413 
L 199.476535 157.095568 
L 200.252265 160.829635 
L 201.027995 160.655293 
L 203.355186 160.766715 
L 204.130916 154.915262 
L 205.682377 158.772653 
L 206.458107 161.435756 
L 207.233837 160.286199 
L 208.009567 159.782239 
L 208.785298 160.434034 
L 209.561028 160.265508 
L 210.336758 161.002468 
L 211.112488 161.044362 
L 211.888219 158.118741 
L 212.663949 158.653085 
L 213.439679 161.054679 
L 214.99114 155.721153 
L 216.5426 160.271518 
L 217.31833 156.674108 
L 218.094061 158.63268 
L 218.869791 158.265716 
L 219.645521 162.349632 
L 220.421251 160.154455 
L 221.196981 160.182529 
L 221.972712 158.582655 
L 222.748442 159.765914 
L 223.524172 160.414891 
L 224.299902 156.171477 
L 225.075633 158.163895 
L 225.851363 161.566783 
L 226.627093 160.790127 
L 227.402823 161.389626 
L 228.178554 159.497114 
L 228.954284 160.41224 
L 229.730014 160.122119 
L 230.505744 160.256971 
L 231.281475 159.508645 
L 232.057205 162.094704 
L 232.832935 159.674003 
L 233.608665 160.097261 
L 234.384396 156.703172 
L 235.160126 162.022683 
L 235.935856 158.705958 
L 236.711586 160.828247 
L 237.487316 160.90724 
L 238.263047 158.993876 
L 239.038777 161.094207 
L 239.814507 162.661765 
L 240.590237 161.450678 
L 241.365968 158.853776 
L 242.141698 156.812362 
L 242.917428 161.909725 
L 243.693158 161.004237 
L 244.468889 162.084308 
L 245.244619 158.749828 
L 246.020349 159.01815 
L 246.796079 159.858551 
L 247.57181 162.266787 
L 248.34754 163.342707 
L 249.12327 162.29393 
L 249.899 161.579493 
L 250.67473 159.062204 
L 251.450461 161.113751 
L 252.226191 158.973867 
L 253.001921 158.740321 
L 253.777651 160.419447 
L 254.553382 162.618676 
L 255.329112 159.410441 
L 256.104842 160.272138 
L 257.656303 162.829578 
L 258.432033 162.364342 
L 259.207763 157.549203 
L 259.983493 159.702169 
L 260.759224 159.132246 
L 261.534954 161.415209 
L 262.310684 160.291324 
L 263.086414 162.134689 
L 263.862144 162.038144 
L 264.637875 160.515389 
L 265.413605 161.556316 
L 266.189335 163.529774 
L 266.965065 162.237162 
L 267.740796 163.908054 
L 268.516526 163.10033 
L 269.292256 163.828895 
L 270.067986 163.269544 
L 270.843717 162.094357 
L 271.619447 162.208207 
L 272.395177 161.047738 
L 273.170907 159.66742 
L 273.946638 162.478788 
L 274.722368 162.60961 
L 275.498098 164.130193 
L 276.273828 163.595117 
L 277.049558 161.797632 
L 277.825289 162.57313 
L 278.601019 163.57087 
L 279.376749 163.070583 
L 280.152479 162.96458 
L 280.92821 161.814697 
L 281.70394 163.899883 
L 282.47967 163.902411 
L 283.2554 161.860608 
L 284.031131 164.324455 
L 284.806861 163.570422 
L 285.582591 164.309552 
L 286.358321 160.911606 
L 287.134052 161.780391 
L 287.909782 163.766582 
L 288.685512 165.089329 
L 289.461242 159.070096 
L 290.236972 163.658397 
L 291.012703 164.322381 
L 291.788433 162.279784 
L 292.564163 163.218073 
L 293.339893 165.406224 
L 294.115624 165.199476 
L 294.891354 163.619491 
L 295.667084 164.394042 
L 296.442814 163.643236 
L 297.218545 164.836389 
L 297.994275 162.21131 
L 298.770005 160.071253 
L 299.545735 163.850344 
L 301.097196 163.369678 
L 301.872926 164.182214 
L 302.648656 163.698061 
L 303.424387 165.719075 
L 304.200117 164.829467 
L 304.975847 165.547199 
L 305.751577 164.552511 
L 306.527307 163.903755 
L 307.303038 161.515249 
L 308.078768 164.577169 
L 308.854498 164.433842 
L 309.630228 159.780903 
L 310.405959 163.956479 
L 311.181689 160.151095 
L 311.957419 163.543518 
L 312.733149 161.350008 
L 313.50888 165.358072 
L 314.28461 164.154992 
L 315.06034 162.144139 
L 315.83607 164.643402 
L 316.611801 163.955187 
L 317.387531 164.586363 
L 318.163261 164.278892 
L 318.938991 164.236607 
L 319.714721 163.619781 
L 320.490452 164.439248 
L 321.266182 163.864302 
L 322.041912 165.5843 
L 322.817642 163.278389 
L 323.593373 163.428251 
L 324.369103 162.863535 
L 325.144833 166.555644 
L 325.920563 164.183571 
L 326.696294 165.787813 
L 329.799215 158.965236 
L 330.574945 164.173593 
L 331.350675 162.799172 
L 332.126405 164.55672 
L 332.902135 162.746356 
L 333.677866 166.370306 
L 334.453596 162.297326 
L 335.229326 165.59068 
L 336.005056 166.094139 
L 336.780787 162.139128 
L 338.332247 167.051481 
L 339.107977 163.566175 
L 339.883708 161.774984 
L 340.659438 164.006624 
L 341.435168 162.574598 
L 342.210898 165.041437 
L 342.986629 165.532181 
L 343.762359 165.063958 
L 344.538089 162.957077 
L 345.313819 164.290688 
L 346.089549 161.349662 
L 346.86528 164.764809 
L 347.64101 164.837341 
L 348.41674 166.503489 
L 349.19247 164.651694 
L 349.968201 159.232677 
L 350.743931 162.448545 
L 351.519661 164.631835 
L 352.295391 165.572538 
L 353.071122 164.242851 
L 353.846852 161.980442 
L 354.622582 164.762419 
L 355.398312 165.804544 
L 356.174043 167.479995 
L 356.949773 166.727279 
L 357.725503 162.595352 
L 358.501233 167.098646 
L 359.276963 163.122022 
L 360.052694 167.522001 
L 360.828424 163.35658 
L 362.379884 166.798233 
L 363.155615 165.806958 
L 363.931345 166.606802 
L 364.707075 165.402075 
L 365.482805 164.494928 
L 366.258536 167.60335 
L 367.034266 164.946767 
L 367.809996 165.103851 
L 368.585726 163.508601 
L 369.361457 165.595438 
L 370.137187 166.266744 
L 370.912917 167.652899 
L 371.688647 167.415301 
L 372.464378 165.857454 
L 373.240108 164.019015 
L 374.015838 167.083703 
L 374.791568 163.140911 
L 375.567298 167.238153 
L 376.343029 166.522081 
L 377.118759 166.401907 
L 377.894489 167.648066 
L 378.670219 165.748086 
L 379.44595 166.643006 
L 380.99741 165.02567 
L 381.77314 163.595493 
L 382.548871 167.821856 
L 383.324601 166.780857 
L 384.100331 164.574261 
L 384.876061 161.001453 
L 385.651792 166.004412 
L 386.427522 164.039172 
L 387.203252 166.70109 
L 387.978982 167.487103 
L 388.754712 165.157565 
L 389.530443 166.478784 
L 390.306173 165.395978 
L 391.081903 167.199808 
L 391.857633 168.354334 
L 392.633364 168.099019 
L 393.409094 166.738364 
L 394.184824 166.109283 
L 394.960554 167.019633 
L 395.736285 167.390961 
L 396.512015 163.495245 
L 397.287745 166.129223 
L 398.839206 166.2759 
L 399.614936 164.750948 
L 400.390666 168.000086 
L 401.166396 164.617761 
L 401.942126 168.048199 
L 402.717857 165.81318 
L 403.493587 164.810449 
L 404.269317 166.247668 
L 405.045047 166.243992 
L 405.820778 164.03567 
L 406.596508 165.221176 
L 407.372238 167.011172 
L 408.147968 165.53817 
L 408.923699 166.20314 
L 409.699429 168.022104 
L 410.475159 166.064051 
L 411.250889 168.525745 
L 412.02662 168.680897 
L 412.80235 167.018273 
L 413.57808 168.400467 
L 414.35381 165.415606 
L 415.12954 168.412266 
L 415.905271 161.055988 
L 416.681001 167.833726 
L 417.456731 167.90226 
L 418.232461 169.170054 
L 419.008192 167.033095 
L 419.783922 167.10534 
L 420.559652 168.236292 
L 421.335382 164.244958 
L 422.111113 166.83989 
L 422.886843 165.768599 
L 423.662573 169.478701 
L 424.438303 167.889329 
L 425.214034 164.80053 
L 425.989764 162.28835 
L 426.765494 166.229874 
L 427.541224 168.162578 
L 428.316955 169.274382 
L 429.092685 167.734809 
L 429.868415 167.670638 
L 430.644145 166.470821 
L 431.419875 165.95543 
L 432.195606 166.78933 
L 432.971336 167.455833 
L 433.747066 165.704387 
L 434.522796 168.688526 
L 435.298527 168.704849 
L 436.074257 163.955764 
L 436.849987 168.453405 
L 437.625717 168.524132 
L 438.401448 167.772203 
L 439.177178 168.921577 
L 439.952908 169.571639 
L 440.728638 168.676606 
L 441.649688 168.523725 
L 441.649688 168.523725 
" style="fill:none;stroke:#ff7f0e;stroke-linecap:square;stroke-width:1.5;"/>
   </g>
   <g id="line2d_41">
    <path clip-path="url(#p9ebe807672)" d="M 72.015556 -1 
L 73.557697 62.864273 
L 75.284221 101.267573 
L 77.010745 118.032888 
L 78.737269 125.195885 
L 80.463793 128.362616 
L 82.190317 130.28726 
L 83.916841 131.197176 
L 85.643365 131.900161 
L 92.549461 133.729456 
L 96.002509 134.604682 
L 97.729033 134.954756 
L 99.455557 135.448203 
L 102.908605 136.042577 
L 104.635129 136.410876 
L 106.361653 136.899843 
L 125.353417 140.277874 
L 128.806465 140.750398 
L 132.259513 141.447289 
L 135.712561 141.903471 
L 139.165609 142.467395 
L 152.977801 144.278629 
L 165.063469 145.747065 
L 166.789993 145.871008 
L 168.516517 146.166225 
L 171.969565 146.43254 
L 178.875661 147.163152 
L 182.328709 147.548095 
L 187.508281 147.993669 
L 194.414377 148.528481 
L 206.500046 149.502533 
L 225.49181 150.77748 
L 227.218334 150.7795 
L 237.577478 151.392746 
L 241.030526 151.495282 
L 246.210098 151.882067 
L 260.02229 152.35237 
L 265.201862 152.654229 
L 277.28753 153.079859 
L 280.740578 153.129914 
L 284.193626 153.364 
L 285.92015 153.355431 
L 287.646674 153.515627 
L 291.099722 153.491939 
L 296.279294 153.780421 
L 299.732342 153.772931 
L 313.544534 154.108655 
L 316.997582 154.169404 
L 320.45063 154.26499 
L 329.08325 154.352797 
L 334.262822 154.490275 
L 335.989346 154.640398 
L 384.332018 155.313343 
L 386.058542 155.249853 
L 391.238114 155.41135 
L 394.691162 155.384187 
L 399.870734 155.456736 
L 413.682926 155.594467 
L 415.40945 155.479855 
L 432.67469 155.793537 
L 434.401214 155.700741 
L 441.649688 155.826156 
L 441.649688 155.826156 
" style="fill:none;stroke:#2ca02c;stroke-linecap:square;stroke-width:1.5;"/>
   </g>
   <g id="line2d_42">
    <path clip-path="url(#p9ebe807672)" d="M 141.870409 43.220238 
L 215.362693 224.211571 
L 288.854977 251.13768 
L 362.347261 252.473802 
L 435.839545 263.96739 
L 441.649688 263.676398 
L 441.649688 263.676398 
" style="fill:none;stroke:#d62728;stroke-dasharray:5.55,2.4;stroke-dashoffset:0;stroke-width:1.5;"/>
   </g>
   <g id="line2d_43">
    <path clip-path="url(#p9ebe807672)" d="M 109.981701 43.220238 
L 151.585278 224.211571 
L 193.188854 246.81093 
L 234.79243 253.227621 
L 276.396007 265.22142 
L 317.999583 260.926513 
L 359.603159 264.134747 
L 401.206735 265.945146 
L 441.649688 263.610813 
L 441.649688 263.610813 
" style="fill:none;stroke:#9467bd;stroke-dasharray:5.55,2.4;stroke-dashoffset:0;stroke-width:1.5;"/>
   </g>
   <g id="line2d_44">
    <path clip-path="url(#p9ebe807672)" d="M 89.538935 43.220238 
L 110.699744 224.211571 
L 131.860554 261.324694 
L 153.021364 245.766196 
L 174.182173 262.257978 
L 195.342983 258.956357 
L 216.503793 259.472214 
L 237.664602 254.361134 
L 258.825412 255.202673 
L 279.986222 271.938219 
L 301.147031 270.559194 
L 322.307841 271.095188 
L 343.468651 273.168234 
L 364.62946 267.817593 
L 385.79027 263.848836 
L 406.95108 268.394715 
L 428.111889 270.100587 
L 441.649688 273.765191 
L 441.649688 273.765191 
" style="fill:none;stroke:#8c564b;stroke-dasharray:5.55,2.4;stroke-dashoffset:0;stroke-width:1.5;"/>
   </g>
   <g id="line2d_45">
    <path clip-path="url(#p9ebe807672)" d="M 82.735664 43.220238 
L 97.093204 224.211571 
L 111.450743 259.203982 
L 125.808282 261.896539 
L 140.165822 263.729056 
L 154.523361 264.825579 
L 168.8809 267.358559 
L 183.23844 268.21986 
L 197.595979 264.130977 
L 211.953518 264.98561 
L 226.311058 267.313266 
L 240.668597 260.808198 
L 255.026136 263.712621 
L 269.383676 264.960476 
L 283.741215 269.598169 
L 298.098754 265.744995 
L 312.456293 267.86298 
L 326.813833 271.036578 
L 341.171372 268.861745 
L 355.528911 268.526836 
L 369.886451 259.064068 
L 384.24399 266.514017 
L 398.601529 266.178916 
L 412.959069 269.032955 
L 427.316608 270.943086 
L 441.649688 263.169952 
L 441.649688 263.169952 
" style="fill:none;stroke:#e377c2;stroke-dasharray:5.55,2.4;stroke-dashoffset:0;stroke-width:1.5;"/>
   </g>
   <g id="line2d_46">
    <path clip-path="url(#p9ebe807672)" d="M 75.832774 43.220238 
L 83.287424 224.211571 
L 90.742073 250.360326 
L 98.196723 252.790463 
L 105.651372 251.392339 
L 113.106022 255.073749 
L 120.560671 255.504298 
L 128.015321 256.496885 
L 142.92462 257.421503 
L 150.379269 256.791872 
L 157.833918 257.293655 
L 165.288568 257.436595 
L 172.743217 257.269863 
L 180.197867 260.295545 
L 187.652516 259.959501 
L 195.107166 259.09439 
L 202.561815 259.805462 
L 210.016465 259.508967 
L 217.471114 260.242801 
L 224.925764 258.906581 
L 232.380413 258.970133 
L 239.835062 260.721764 
L 247.289712 260.508263 
L 254.744361 261.362667 
L 262.199011 260.618608 
L 269.65366 261.789334 
L 277.10831 260.27167 
L 284.562959 260.635847 
L 292.017609 259.892189 
L 299.472258 260.970624 
L 306.926908 261.339842 
L 314.381557 260.328095 
L 321.836206 260.936938 
L 329.290856 261.751242 
L 336.745505 261.910205 
L 344.200155 261.914664 
L 351.654804 262.159084 
L 359.109454 261.276128 
L 366.564103 262.066078 
L 374.018753 262.364029 
L 381.473402 263.159803 
L 388.928052 262.858611 
L 396.382701 262.443182 
L 403.83735 262.871907 
L 411.292 262.109728 
L 418.746649 260.40545 
L 426.201299 260.431467 
L 433.655948 261.363805 
L 441.649688 261.262927 
L 441.649688 261.262927 
" style="fill:none;stroke:#7f7f7f;stroke-dasharray:5.55,2.4;stroke-dashoffset:0;stroke-width:1.5;"/>
   </g>
   <g id="patch_3">
    <path d="M 68.378125 277.111219 
L 68.378125 10.999219 
" style="fill:none;stroke:#000000;stroke-linecap:square;stroke-linejoin:miter;stroke-width:0.8;"/>
   </g>
   <g id="patch_4">
    <path d="M 425.498125 277.111219 
L 425.498125 10.999219 
" style="fill:none;stroke:#000000;stroke-linecap:square;stroke-linejoin:miter;stroke-width:0.8;"/>
   </g>
   <g id="patch_5">
    <path d="M 68.378125 277.111219 
L 425.498125 277.111219 
" style="fill:none;stroke:#000000;stroke-linecap:square;stroke-linejoin:miter;stroke-width:0.8;"/>
   </g>
   <g id="patch_6">
    <path d="M 68.378125 10.999219 
L 425.498125 10.999219 
" style="fill:none;stroke:#000000;stroke-linecap:square;stroke-linejoin:miter;stroke-width:0.8;"/>
   </g>
   <g id="legend_1">
    <g id="patch_7">
     <path d="M 310.673125 136.424219 
L 418.498125 136.424219 
Q 420.498125 136.424219 420.498125 134.424219 
L 420.498125 17.999219 
Q 420.498125 15.999219 418.498125 15.999219 
L 310.673125 15.999219 
Q 308.673125 15.999219 308.673125 17.999219 
L 308.673125 134.424219 
Q 308.673125 136.424219 310.673125 136.424219 
z
" style="fill:#ffffff;opacity:0.8;stroke:#cccccc;stroke-linejoin:miter;"/>
    </g>
    <g id="line2d_47">
     <path d="M 312.673125 24.097656 
L 332.673125 24.097656 
" style="fill:none;stroke:#1f77b4;stroke-linecap:square;stroke-width:1.5;"/>
    </g>
    <g id="line2d_48"/>
    <g id="text_18">
     <!-- SGD, lr 0.1 -->
     <defs>
      <path d="M 53.515625 70.515625 
L 53.515625 60.890625 
Q 47.90625 63.578125 42.921875 64.890625 
Q 37.9375 66.21875 33.296875 66.21875 
Q 25.25 66.21875 20.875 63.09375 
Q 16.5 59.96875 16.5 54.203125 
Q 16.5 49.359375 19.40625 46.890625 
Q 22.3125 44.4375 30.421875 42.921875 
L 36.375 41.703125 
Q 47.40625 39.59375 52.65625 34.296875 
Q 57.90625 29 57.90625 20.125 
Q 57.90625 9.515625 50.796875 4.046875 
Q 43.703125 -1.421875 29.984375 -1.421875 
Q 24.8125 -1.421875 18.96875 -0.25 
Q 13.140625 0.921875 6.890625 3.21875 
L 6.890625 13.375 
Q 12.890625 10.015625 18.65625 8.296875 
Q 24.421875 6.59375 29.984375 6.59375 
Q 38.421875 6.59375 43.015625 9.90625 
Q 47.609375 13.234375 47.609375 19.390625 
Q 47.609375 24.75 44.3125 27.78125 
Q 41.015625 30.8125 33.5 32.328125 
L 27.484375 33.5 
Q 16.453125 35.6875 11.515625 40.375 
Q 6.59375 45.0625 6.59375 53.421875 
Q 6.59375 63.09375 13.40625 68.65625 
Q 20.21875 74.21875 32.171875 74.21875 
Q 37.3125 74.21875 42.625 73.28125 
Q 47.953125 72.359375 53.515625 70.515625 
z
" id="DejaVuSans-53"/>
      <path d="M 59.515625 10.40625 
L 59.515625 29.984375 
L 43.40625 29.984375 
L 43.40625 38.09375 
L 69.28125 38.09375 
L 69.28125 6.78125 
Q 63.578125 2.734375 56.6875 0.65625 
Q 49.8125 -1.421875 42 -1.421875 
Q 24.90625 -1.421875 15.25 8.5625 
Q 5.609375 18.5625 5.609375 36.375 
Q 5.609375 54.25 15.25 64.234375 
Q 24.90625 74.21875 42 74.21875 
Q 49.125 74.21875 55.546875 72.453125 
Q 61.96875 70.703125 67.390625 67.28125 
L 67.390625 56.78125 
Q 61.921875 61.421875 55.765625 63.765625 
Q 49.609375 66.109375 42.828125 66.109375 
Q 29.4375 66.109375 22.71875 58.640625 
Q 16.015625 51.171875 16.015625 36.375 
Q 16.015625 21.625 22.71875 14.15625 
Q 29.4375 6.6875 42.828125 6.6875 
Q 48.046875 6.6875 52.140625 7.59375 
Q 56.25 8.5 59.515625 10.40625 
z
" id="DejaVuSans-47"/>
      <path d="M 19.671875 64.796875 
L 19.671875 8.109375 
L 31.59375 8.109375 
Q 46.6875 8.109375 53.6875 14.9375 
Q 60.6875 21.78125 60.6875 36.53125 
Q 60.6875 51.171875 53.6875 57.984375 
Q 46.6875 64.796875 31.59375 64.796875 
z
M 9.8125 72.90625 
L 30.078125 72.90625 
Q 51.265625 72.90625 61.171875 64.09375 
Q 71.09375 55.28125 71.09375 36.53125 
Q 71.09375 17.671875 61.125 8.828125 
Q 51.171875 0 30.078125 0 
L 9.8125 0 
z
" id="DejaVuSans-44"/>
      <path d="M 11.71875 12.40625 
L 22.015625 12.40625 
L 22.015625 4 
L 14.015625 -11.625 
L 7.71875 -11.625 
L 11.71875 4 
z
" id="DejaVuSans-2c"/>
      <path d="M 41.109375 46.296875 
Q 39.59375 47.171875 37.8125 47.578125 
Q 36.03125 48 33.890625 48 
Q 26.265625 48 22.1875 43.046875 
Q 18.109375 38.09375 18.109375 28.8125 
L 18.109375 0 
L 9.078125 0 
L 9.078125 54.6875 
L 18.109375 54.6875 
L 18.109375 46.1875 
Q 20.953125 51.171875 25.484375 53.578125 
Q 30.03125 56 36.53125 56 
Q 37.453125 56 38.578125 55.875 
Q 39.703125 55.765625 41.0625 55.515625 
z
" id="DejaVuSans-72"/>
     </defs>
     <g transform="translate(340.673125 27.597656)scale(0.1 -0.1)">
      <use xlink:href="#DejaVuSans-53"/>
      <use x="63.476562" xlink:href="#DejaVuSans-47"/>
      <use x="140.966797" xlink:href="#DejaVuSans-44"/>
      <use x="217.96875" xlink:href="#DejaVuSans-2c"/>
      <use x="249.755859" xlink:href="#DejaVuSans-20"/>
      <use x="281.542969" xlink:href="#DejaVuSans-6c"/>
      <use x="309.326172" xlink:href="#DejaVuSans-72"/>
      <use x="350.439453" xlink:href="#DejaVuSans-20"/>
      <use x="382.226562" xlink:href="#DejaVuSans-30"/>
      <use x="445.849609" xlink:href="#DejaVuSans-2e"/>
      <use x="477.636719" xlink:href="#DejaVuSans-31"/>
     </g>
    </g>
    <g id="line2d_49">
     <path d="M 312.673125 38.775781 
L 332.673125 38.775781 
" style="fill:none;stroke:#ff7f0e;stroke-linecap:square;stroke-width:1.5;"/>
    </g>
    <g id="line2d_50"/>
    <g id="text_19">
     <!-- SGD, lr 0.01 -->
     <g transform="translate(340.673125 42.275781)scale(0.1 -0.1)">
      <use xlink:href="#DejaVuSans-53"/>
      <use x="63.476562" xlink:href="#DejaVuSans-47"/>
      <use x="140.966797" xlink:href="#DejaVuSans-44"/>
      <use x="217.96875" xlink:href="#DejaVuSans-2c"/>
      <use x="249.755859" xlink:href="#DejaVuSans-20"/>
      <use x="281.542969" xlink:href="#DejaVuSans-6c"/>
      <use x="309.326172" xlink:href="#DejaVuSans-72"/>
      <use x="350.439453" xlink:href="#DejaVuSans-20"/>
      <use x="382.226562" xlink:href="#DejaVuSans-30"/>
      <use x="445.849609" xlink:href="#DejaVuSans-2e"/>
      <use x="477.636719" xlink:href="#DejaVuSans-30"/>
      <use x="541.259766" xlink:href="#DejaVuSans-31"/>
     </g>
    </g>
    <g id="line2d_51">
     <path d="M 312.673125 53.453906 
L 332.673125 53.453906 
" style="fill:none;stroke:#2ca02c;stroke-linecap:square;stroke-width:1.5;"/>
    </g>
    <g id="line2d_52"/>
    <g id="text_20">
     <!-- SGD, lr 0.001 -->
     <g transform="translate(340.673125 56.953906)scale(0.1 -0.1)">
      <use xlink:href="#DejaVuSans-53"/>
      <use x="63.476562" xlink:href="#DejaVuSans-47"/>
      <use x="140.966797" xlink:href="#DejaVuSans-44"/>
      <use x="217.96875" xlink:href="#DejaVuSans-2c"/>
      <use x="249.755859" xlink:href="#DejaVuSans-20"/>
      <use x="281.542969" xlink:href="#DejaVuSans-6c"/>
      <use x="309.326172" xlink:href="#DejaVuSans-72"/>
      <use x="350.439453" xlink:href="#DejaVuSans-20"/>
      <use x="382.226562" xlink:href="#DejaVuSans-30"/>
      <use x="445.849609" xlink:href="#DejaVuSans-2e"/>
      <use x="477.636719" xlink:href="#DejaVuSans-30"/>
      <use x="541.259766" xlink:href="#DejaVuSans-30"/>
      <use x="604.882812" xlink:href="#DejaVuSans-31"/>
     </g>
    </g>
    <g id="line2d_53">
     <path d="M 312.673125 68.132031 
L 332.673125 68.132031 
" style="fill:none;stroke:#d62728;stroke-dasharray:5.55,2.4;stroke-dashoffset:0;stroke-width:1.5;"/>
    </g>
    <g id="line2d_54"/>
    <g id="text_21">
     <!-- SGN, cg iter 20 -->
     <defs>
      <path d="M 9.8125 72.90625 
L 23.09375 72.90625 
L 55.421875 11.921875 
L 55.421875 72.90625 
L 64.984375 72.90625 
L 64.984375 0 
L 51.703125 0 
L 19.390625 60.984375 
L 19.390625 0 
L 9.8125 0 
z
" id="DejaVuSans-4e"/>
      <path d="M 45.40625 27.984375 
Q 45.40625 37.75 41.375 43.109375 
Q 37.359375 48.484375 30.078125 48.484375 
Q 22.859375 48.484375 18.828125 43.109375 
Q 14.796875 37.75 14.796875 27.984375 
Q 14.796875 18.265625 18.828125 12.890625 
Q 22.859375 7.515625 30.078125 7.515625 
Q 37.359375 7.515625 41.375 12.890625 
Q 45.40625 18.265625 45.40625 27.984375 
z
M 54.390625 6.78125 
Q 54.390625 -7.171875 48.1875 -13.984375 
Q 42 -20.796875 29.203125 -20.796875 
Q 24.46875 -20.796875 20.265625 -20.09375 
Q 16.0625 -19.390625 12.109375 -17.921875 
L 12.109375 -9.1875 
Q 16.0625 -11.328125 19.921875 -12.34375 
Q 23.78125 -13.375 27.78125 -13.375 
Q 36.625 -13.375 41.015625 -8.765625 
Q 45.40625 -4.15625 45.40625 5.171875 
L 45.40625 9.625 
Q 42.625 4.78125 38.28125 2.390625 
Q 33.9375 0 27.875 0 
Q 17.828125 0 11.671875 7.65625 
Q 5.515625 15.328125 5.515625 27.984375 
Q 5.515625 40.671875 11.671875 48.328125 
Q 17.828125 56 27.875 56 
Q 33.9375 56 38.28125 53.609375 
Q 42.625 51.21875 45.40625 46.390625 
L 45.40625 54.6875 
L 54.390625 54.6875 
z
" id="DejaVuSans-67"/>
      <path d="M 9.421875 54.6875 
L 18.40625 54.6875 
L 18.40625 0 
L 9.421875 0 
z
M 9.421875 75.984375 
L 18.40625 75.984375 
L 18.40625 64.59375 
L 9.421875 64.59375 
z
" id="DejaVuSans-69"/>
     </defs>
     <g transform="translate(340.673125 71.632031)scale(0.1 -0.1)">
      <use xlink:href="#DejaVuSans-53"/>
      <use x="63.476562" xlink:href="#DejaVuSans-47"/>
      <use x="140.966797" xlink:href="#DejaVuSans-4e"/>
      <use x="215.771484" xlink:href="#DejaVuSans-2c"/>
      <use x="247.558594" xlink:href="#DejaVuSans-20"/>
      <use x="279.345703" xlink:href="#DejaVuSans-63"/>
      <use x="334.326172" xlink:href="#DejaVuSans-67"/>
      <use x="397.802734" xlink:href="#DejaVuSans-20"/>
      <use x="429.589844" xlink:href="#DejaVuSans-69"/>
      <use x="457.373047" xlink:href="#DejaVuSans-74"/>
      <use x="496.582031" xlink:href="#DejaVuSans-65"/>
      <use x="558.105469" xlink:href="#DejaVuSans-72"/>
      <use x="599.21875" xlink:href="#DejaVuSans-20"/>
      <use x="631.005859" xlink:href="#DejaVuSans-32"/>
      <use x="694.628906" xlink:href="#DejaVuSans-30"/>
     </g>
    </g>
    <g id="line2d_55">
     <path d="M 312.673125 82.810156 
L 332.673125 82.810156 
" style="fill:none;stroke:#9467bd;stroke-dasharray:5.55,2.4;stroke-dashoffset:0;stroke-width:1.5;"/>
    </g>
    <g id="line2d_56"/>
    <g id="text_22">
     <!-- SGN, cg iter 10 -->
     <g transform="translate(340.673125 86.310156)scale(0.1 -0.1)">
      <use xlink:href="#DejaVuSans-53"/>
      <use x="63.476562" xlink:href="#DejaVuSans-47"/>
      <use x="140.966797" xlink:href="#DejaVuSans-4e"/>
      <use x="215.771484" xlink:href="#DejaVuSans-2c"/>
      <use x="247.558594" xlink:href="#DejaVuSans-20"/>
      <use x="279.345703" xlink:href="#DejaVuSans-63"/>
      <use x="334.326172" xlink:href="#DejaVuSans-67"/>
      <use x="397.802734" xlink:href="#DejaVuSans-20"/>
      <use x="429.589844" xlink:href="#DejaVuSans-69"/>
      <use x="457.373047" xlink:href="#DejaVuSans-74"/>
      <use x="496.582031" xlink:href="#DejaVuSans-65"/>
      <use x="558.105469" xlink:href="#DejaVuSans-72"/>
      <use x="599.21875" xlink:href="#DejaVuSans-20"/>
      <use x="631.005859" xlink:href="#DejaVuSans-31"/>
      <use x="694.628906" xlink:href="#DejaVuSans-30"/>
     </g>
    </g>
    <g id="line2d_57">
     <path d="M 312.673125 97.488281 
L 332.673125 97.488281 
" style="fill:none;stroke:#8c564b;stroke-dasharray:5.55,2.4;stroke-dashoffset:0;stroke-width:1.5;"/>
    </g>
    <g id="line2d_58"/>
    <g id="text_23">
     <!-- SGN, cg iter 5 -->
     <g transform="translate(340.673125 100.988281)scale(0.1 -0.1)">
      <use xlink:href="#DejaVuSans-53"/>
      <use x="63.476562" xlink:href="#DejaVuSans-47"/>
      <use x="140.966797" xlink:href="#DejaVuSans-4e"/>
      <use x="215.771484" xlink:href="#DejaVuSans-2c"/>
      <use x="247.558594" xlink:href="#DejaVuSans-20"/>
      <use x="279.345703" xlink:href="#DejaVuSans-63"/>
      <use x="334.326172" xlink:href="#DejaVuSans-67"/>
      <use x="397.802734" xlink:href="#DejaVuSans-20"/>
      <use x="429.589844" xlink:href="#DejaVuSans-69"/>
      <use x="457.373047" xlink:href="#DejaVuSans-74"/>
      <use x="496.582031" xlink:href="#DejaVuSans-65"/>
      <use x="558.105469" xlink:href="#DejaVuSans-72"/>
      <use x="599.21875" xlink:href="#DejaVuSans-20"/>
      <use x="631.005859" xlink:href="#DejaVuSans-35"/>
     </g>
    </g>
    <g id="line2d_59">
     <path d="M 312.673125 112.166406 
L 332.673125 112.166406 
" style="fill:none;stroke:#e377c2;stroke-dasharray:5.55,2.4;stroke-dashoffset:0;stroke-width:1.5;"/>
    </g>
    <g id="line2d_60"/>
    <g id="text_24">
     <!-- SGN, cg iter 3 -->
     <g transform="translate(340.673125 115.666406)scale(0.1 -0.1)">
      <use xlink:href="#DejaVuSans-53"/>
      <use x="63.476562" xlink:href="#DejaVuSans-47"/>
      <use x="140.966797" xlink:href="#DejaVuSans-4e"/>
      <use x="215.771484" xlink:href="#DejaVuSans-2c"/>
      <use x="247.558594" xlink:href="#DejaVuSans-20"/>
      <use x="279.345703" xlink:href="#DejaVuSans-63"/>
      <use x="334.326172" xlink:href="#DejaVuSans-67"/>
      <use x="397.802734" xlink:href="#DejaVuSans-20"/>
      <use x="429.589844" xlink:href="#DejaVuSans-69"/>
      <use x="457.373047" xlink:href="#DejaVuSans-74"/>
      <use x="496.582031" xlink:href="#DejaVuSans-65"/>
      <use x="558.105469" xlink:href="#DejaVuSans-72"/>
      <use x="599.21875" xlink:href="#DejaVuSans-20"/>
      <use x="631.005859" xlink:href="#DejaVuSans-33"/>
     </g>
    </g>
    <g id="line2d_61">
     <path d="M 312.673125 126.844531 
L 332.673125 126.844531 
" style="fill:none;stroke:#7f7f7f;stroke-dasharray:5.55,2.4;stroke-dashoffset:0;stroke-width:1.5;"/>
    </g>
    <g id="line2d_62"/>
    <g id="text_25">
     <!-- SGN, cg iter 1 -->
     <g transform="translate(340.673125 130.344531)scale(0.1 -0.1)">
      <use xlink:href="#DejaVuSans-53"/>
      <use x="63.476562" xlink:href="#DejaVuSans-47"/>
      <use x="140.966797" xlink:href="#DejaVuSans-4e"/>
      <use x="215.771484" xlink:href="#DejaVuSans-2c"/>
      <use x="247.558594" xlink:href="#DejaVuSans-20"/>
      <use x="279.345703" xlink:href="#DejaVuSans-63"/>
      <use x="334.326172" xlink:href="#DejaVuSans-67"/>
      <use x="397.802734" xlink:href="#DejaVuSans-20"/>
      <use x="429.589844" xlink:href="#DejaVuSans-69"/>
      <use x="457.373047" xlink:href="#DejaVuSans-74"/>
      <use x="496.582031" xlink:href="#DejaVuSans-65"/>
      <use x="558.105469" xlink:href="#DejaVuSans-72"/>
      <use x="599.21875" xlink:href="#DejaVuSans-20"/>
      <use x="631.005859" xlink:href="#DejaVuSans-31"/>
     </g>
    </g>
   </g>
  </g>
 </g>
 <defs>
  <clipPath id="p9ebe807672">
   <rect height="266.112" width="357.12" x="68.378125" y="10.999219"/>
  </clipPath>
 </defs>
</svg>
