<?xml version="1.0" encoding="utf-8" standalone="no"?>
<!DOCTYPE svg PUBLIC "-//W3C//DTD SVG 1.1//EN"
  "http://www.w3.org/Graphics/SVG/1.1/DTD/svg11.dtd">
<!-- Created with matplotlib (http://matplotlib.org/) -->
<svg height="314pt" version="1.1" viewBox="0 0 426 314" width="426pt" xmlns="http://www.w3.org/2000/svg" xmlns:xlink="http://www.w3.org/1999/xlink">
 <defs>
  <style type="text/css">
*{stroke-linecap:butt;stroke-linejoin:round;}
  </style>
 </defs>
 <g id="figure_1">
  <g id="patch_1">
   <path d="M 0 314.667469 
L 426.830938 314.667469 
L 426.830938 0 
L 0 0 
z
" style="fill:none;opacity:0;"/>
  </g>
  <g id="axes_1">
   <g id="patch_2">
    <path d="M 51.378125 277.111219 
L 408.498125 277.111219 
L 408.498125 10.999219 
L 51.378125 10.999219 
z
" style="fill:#ffffff;"/>
   </g>
   <g id="matplotlib.axis_1">
    <g id="xtick_1">
     <g id="line2d_1">
      <path clip-path="url(#pcebc54b52f)" d="M 51.378125 277.111219 
L 51.378125 10.999219 
" style="fill:none;stroke:#b0b0b0;stroke-linecap:square;stroke-width:0.8;"/>
     </g>
     <g id="line2d_2">
      <defs>
       <path d="M 0 0 
L 0 3.5 
" id="mb3fb903eac" style="stroke:#000000;stroke-width:0.8;"/>
      </defs>
      <g>
       <use style="stroke:#000000;stroke-width:0.8;" x="51.378125" xlink:href="#mb3fb903eac" y="277.111219"/>
      </g>
     </g>
     <g id="text_1">
      <!-- 0.00 -->
      <defs>
       <path d="M 31.78125 66.40625 
Q 24.171875 66.40625 20.328125 58.90625 
Q 16.5 51.421875 16.5 36.375 
Q 16.5 21.390625 20.328125 13.890625 
Q 24.171875 6.390625 31.78125 6.390625 
Q 39.453125 6.390625 43.28125 13.890625 
Q 47.125 21.390625 47.125 36.375 
Q 47.125 51.421875 43.28125 58.90625 
Q 39.453125 66.40625 31.78125 66.40625 
z
M 31.78125 74.21875 
Q 44.046875 74.21875 50.515625 64.515625 
Q 56.984375 54.828125 56.984375 36.375 
Q 56.984375 17.96875 50.515625 8.265625 
Q 44.046875 -1.421875 31.78125 -1.421875 
Q 19.53125 -1.421875 13.0625 8.265625 
Q 6.59375 17.96875 6.59375 36.375 
Q 6.59375 54.828125 13.0625 64.515625 
Q 19.53125 74.21875 31.78125 74.21875 
z
" id="DejaVuSans-30"/>
       <path d="M 10.6875 12.40625 
L 21 12.40625 
L 21 0 
L 10.6875 0 
z
" id="DejaVuSans-2e"/>
      </defs>
      <g transform="translate(40.245313 291.709656)scale(0.1 -0.1)">
       <use xlink:href="#DejaVuSans-30"/>
       <use x="63.623047" xlink:href="#DejaVuSans-2e"/>
       <use x="95.410156" xlink:href="#DejaVuSans-30"/>
       <use x="159.033203" xlink:href="#DejaVuSans-30"/>
      </g>
     </g>
    </g>
    <g id="xtick_2">
     <g id="line2d_3">
      <path clip-path="url(#pcebc54b52f)" d="M 96.018125 277.111219 
L 96.018125 10.999219 
" style="fill:none;stroke:#b0b0b0;stroke-linecap:square;stroke-width:0.8;"/>
     </g>
     <g id="line2d_4">
      <g>
       <use style="stroke:#000000;stroke-width:0.8;" x="96.018125" xlink:href="#mb3fb903eac" y="277.111219"/>
      </g>
     </g>
     <g id="text_2">
      <!-- 0.25 -->
      <defs>
       <path d="M 19.1875 8.296875 
L 53.609375 8.296875 
L 53.609375 0 
L 7.328125 0 
L 7.328125 8.296875 
Q 12.9375 14.109375 22.625 23.890625 
Q 32.328125 33.6875 34.8125 36.53125 
Q 39.546875 41.84375 41.421875 45.53125 
Q 43.3125 49.21875 43.3125 52.78125 
Q 43.3125 58.59375 39.234375 62.25 
Q 35.15625 65.921875 28.609375 65.921875 
Q 23.96875 65.921875 18.8125 64.3125 
Q 13.671875 62.703125 7.8125 59.421875 
L 7.8125 69.390625 
Q 13.765625 71.78125 18.9375 73 
Q 24.125 74.21875 28.421875 74.21875 
Q 39.75 74.21875 46.484375 68.546875 
Q 53.21875 62.890625 53.21875 53.421875 
Q 53.21875 48.921875 51.53125 44.890625 
Q 49.859375 40.875 45.40625 35.40625 
Q 44.1875 33.984375 37.640625 27.21875 
Q 31.109375 20.453125 19.1875 8.296875 
z
" id="DejaVuSans-32"/>
       <path d="M 10.796875 72.90625 
L 49.515625 72.90625 
L 49.515625 64.59375 
L 19.828125 64.59375 
L 19.828125 46.734375 
Q 21.96875 47.46875 24.109375 47.828125 
Q 26.265625 48.1875 28.421875 48.1875 
Q 40.625 48.1875 47.75 41.5 
Q 54.890625 34.8125 54.890625 23.390625 
Q 54.890625 11.625 47.5625 5.09375 
Q 40.234375 -1.421875 26.90625 -1.421875 
Q 22.3125 -1.421875 17.546875 -0.640625 
Q 12.796875 0.140625 7.71875 1.703125 
L 7.71875 11.625 
Q 12.109375 9.234375 16.796875 8.0625 
Q 21.484375 6.890625 26.703125 6.890625 
Q 35.15625 6.890625 40.078125 11.328125 
Q 45.015625 15.765625 45.015625 23.390625 
Q 45.015625 31 40.078125 35.4375 
Q 35.15625 39.890625 26.703125 39.890625 
Q 22.75 39.890625 18.8125 39.015625 
Q 14.890625 38.140625 10.796875 36.28125 
z
" id="DejaVuSans-35"/>
      </defs>
      <g transform="translate(84.885312 291.709656)scale(0.1 -0.1)">
       <use xlink:href="#DejaVuSans-30"/>
       <use x="63.623047" xlink:href="#DejaVuSans-2e"/>
       <use x="95.410156" xlink:href="#DejaVuSans-32"/>
       <use x="159.033203" xlink:href="#DejaVuSans-35"/>
      </g>
     </g>
    </g>
    <g id="xtick_3">
     <g id="line2d_5">
      <path clip-path="url(#pcebc54b52f)" d="M 140.658125 277.111219 
L 140.658125 10.999219 
" style="fill:none;stroke:#b0b0b0;stroke-linecap:square;stroke-width:0.8;"/>
     </g>
     <g id="line2d_6">
      <g>
       <use style="stroke:#000000;stroke-width:0.8;" x="140.658125" xlink:href="#mb3fb903eac" y="277.111219"/>
      </g>
     </g>
     <g id="text_3">
      <!-- 0.50 -->
      <g transform="translate(129.525313 291.709656)scale(0.1 -0.1)">
       <use xlink:href="#DejaVuSans-30"/>
       <use x="63.623047" xlink:href="#DejaVuSans-2e"/>
       <use x="95.410156" xlink:href="#DejaVuSans-35"/>
       <use x="159.033203" xlink:href="#DejaVuSans-30"/>
      </g>
     </g>
    </g>
    <g id="xtick_4">
     <g id="line2d_7">
      <path clip-path="url(#pcebc54b52f)" d="M 185.298125 277.111219 
L 185.298125 10.999219 
" style="fill:none;stroke:#b0b0b0;stroke-linecap:square;stroke-width:0.8;"/>
     </g>
     <g id="line2d_8">
      <g>
       <use style="stroke:#000000;stroke-width:0.8;" x="185.298125" xlink:href="#mb3fb903eac" y="277.111219"/>
      </g>
     </g>
     <g id="text_4">
      <!-- 0.75 -->
      <defs>
       <path d="M 8.203125 72.90625 
L 55.078125 72.90625 
L 55.078125 68.703125 
L 28.609375 0 
L 18.3125 0 
L 43.21875 64.59375 
L 8.203125 64.59375 
z
" id="DejaVuSans-37"/>
      </defs>
      <g transform="translate(174.165313 291.709656)scale(0.1 -0.1)">
       <use xlink:href="#DejaVuSans-30"/>
       <use x="63.623047" xlink:href="#DejaVuSans-2e"/>
       <use x="95.410156" xlink:href="#DejaVuSans-37"/>
       <use x="159.033203" xlink:href="#DejaVuSans-35"/>
      </g>
     </g>
    </g>
    <g id="xtick_5">
     <g id="line2d_9">
      <path clip-path="url(#pcebc54b52f)" d="M 229.938125 277.111219 
L 229.938125 10.999219 
" style="fill:none;stroke:#b0b0b0;stroke-linecap:square;stroke-width:0.8;"/>
     </g>
     <g id="line2d_10">
      <g>
       <use style="stroke:#000000;stroke-width:0.8;" x="229.938125" xlink:href="#mb3fb903eac" y="277.111219"/>
      </g>
     </g>
     <g id="text_5">
      <!-- 1.00 -->
      <defs>
       <path d="M 12.40625 8.296875 
L 28.515625 8.296875 
L 28.515625 63.921875 
L 10.984375 60.40625 
L 10.984375 69.390625 
L 28.421875 72.90625 
L 38.28125 72.90625 
L 38.28125 8.296875 
L 54.390625 8.296875 
L 54.390625 0 
L 12.40625 0 
z
" id="DejaVuSans-31"/>
      </defs>
      <g transform="translate(218.805313 291.709656)scale(0.1 -0.1)">
       <use xlink:href="#DejaVuSans-31"/>
       <use x="63.623047" xlink:href="#DejaVuSans-2e"/>
       <use x="95.410156" xlink:href="#DejaVuSans-30"/>
       <use x="159.033203" xlink:href="#DejaVuSans-30"/>
      </g>
     </g>
    </g>
    <g id="xtick_6">
     <g id="line2d_11">
      <path clip-path="url(#pcebc54b52f)" d="M 274.578125 277.111219 
L 274.578125 10.999219 
" style="fill:none;stroke:#b0b0b0;stroke-linecap:square;stroke-width:0.8;"/>
     </g>
     <g id="line2d_12">
      <g>
       <use style="stroke:#000000;stroke-width:0.8;" x="274.578125" xlink:href="#mb3fb903eac" y="277.111219"/>
      </g>
     </g>
     <g id="text_6">
      <!-- 1.25 -->
      <g transform="translate(263.445312 291.709656)scale(0.1 -0.1)">
       <use xlink:href="#DejaVuSans-31"/>
       <use x="63.623047" xlink:href="#DejaVuSans-2e"/>
       <use x="95.410156" xlink:href="#DejaVuSans-32"/>
       <use x="159.033203" xlink:href="#DejaVuSans-35"/>
      </g>
     </g>
    </g>
    <g id="xtick_7">
     <g id="line2d_13">
      <path clip-path="url(#pcebc54b52f)" d="M 319.218125 277.111219 
L 319.218125 10.999219 
" style="fill:none;stroke:#b0b0b0;stroke-linecap:square;stroke-width:0.8;"/>
     </g>
     <g id="line2d_14">
      <g>
       <use style="stroke:#000000;stroke-width:0.8;" x="319.218125" xlink:href="#mb3fb903eac" y="277.111219"/>
      </g>
     </g>
     <g id="text_7">
      <!-- 1.50 -->
      <g transform="translate(308.085313 291.709656)scale(0.1 -0.1)">
       <use xlink:href="#DejaVuSans-31"/>
       <use x="63.623047" xlink:href="#DejaVuSans-2e"/>
       <use x="95.410156" xlink:href="#DejaVuSans-35"/>
       <use x="159.033203" xlink:href="#DejaVuSans-30"/>
      </g>
     </g>
    </g>
    <g id="xtick_8">
     <g id="line2d_15">
      <path clip-path="url(#pcebc54b52f)" d="M 363.858125 277.111219 
L 363.858125 10.999219 
" style="fill:none;stroke:#b0b0b0;stroke-linecap:square;stroke-width:0.8;"/>
     </g>
     <g id="line2d_16">
      <g>
       <use style="stroke:#000000;stroke-width:0.8;" x="363.858125" xlink:href="#mb3fb903eac" y="277.111219"/>
      </g>
     </g>
     <g id="text_8">
      <!-- 1.75 -->
      <g transform="translate(352.725313 291.709656)scale(0.1 -0.1)">
       <use xlink:href="#DejaVuSans-31"/>
       <use x="63.623047" xlink:href="#DejaVuSans-2e"/>
       <use x="95.410156" xlink:href="#DejaVuSans-37"/>
       <use x="159.033203" xlink:href="#DejaVuSans-35"/>
      </g>
     </g>
    </g>
    <g id="xtick_9">
     <g id="line2d_17">
      <path clip-path="url(#pcebc54b52f)" d="M 408.498125 277.111219 
L 408.498125 10.999219 
" style="fill:none;stroke:#b0b0b0;stroke-linecap:square;stroke-width:0.8;"/>
     </g>
     <g id="line2d_18">
      <g>
       <use style="stroke:#000000;stroke-width:0.8;" x="408.498125" xlink:href="#mb3fb903eac" y="277.111219"/>
      </g>
     </g>
     <g id="text_9">
      <!-- 2.00 -->
      <g transform="translate(397.365313 291.709656)scale(0.1 -0.1)">
       <use xlink:href="#DejaVuSans-32"/>
       <use x="63.623047" xlink:href="#DejaVuSans-2e"/>
       <use x="95.410156" xlink:href="#DejaVuSans-30"/>
       <use x="159.033203" xlink:href="#DejaVuSans-30"/>
      </g>
     </g>
    </g>
    <g id="text_10">
     <!-- sec -->
     <defs>
      <path d="M 44.28125 53.078125 
L 44.28125 44.578125 
Q 40.484375 46.53125 36.375 47.5 
Q 32.28125 48.484375 27.875 48.484375 
Q 21.1875 48.484375 17.84375 46.4375 
Q 14.5 44.390625 14.5 40.28125 
Q 14.5 37.15625 16.890625 35.375 
Q 19.28125 33.59375 26.515625 31.984375 
L 29.59375 31.296875 
Q 39.15625 29.25 43.1875 25.515625 
Q 47.21875 21.78125 47.21875 15.09375 
Q 47.21875 7.46875 41.1875 3.015625 
Q 35.15625 -1.421875 24.609375 -1.421875 
Q 20.21875 -1.421875 15.453125 -0.5625 
Q 10.6875 0.296875 5.421875 2 
L 5.421875 11.28125 
Q 10.40625 8.6875 15.234375 7.390625 
Q 20.0625 6.109375 24.8125 6.109375 
Q 31.15625 6.109375 34.5625 8.28125 
Q 37.984375 10.453125 37.984375 14.40625 
Q 37.984375 18.0625 35.515625 20.015625 
Q 33.0625 21.96875 24.703125 23.78125 
L 21.578125 24.515625 
Q 13.234375 26.265625 9.515625 29.90625 
Q 5.8125 33.546875 5.8125 39.890625 
Q 5.8125 47.609375 11.28125 51.796875 
Q 16.75 56 26.8125 56 
Q 31.78125 56 36.171875 55.265625 
Q 40.578125 54.546875 44.28125 53.078125 
z
" id="DejaVuSans-73"/>
      <path d="M 56.203125 29.59375 
L 56.203125 25.203125 
L 14.890625 25.203125 
Q 15.484375 15.921875 20.484375 11.0625 
Q 25.484375 6.203125 34.421875 6.203125 
Q 39.59375 6.203125 44.453125 7.46875 
Q 49.3125 8.734375 54.109375 11.28125 
L 54.109375 2.78125 
Q 49.265625 0.734375 44.1875 -0.34375 
Q 39.109375 -1.421875 33.890625 -1.421875 
Q 20.796875 -1.421875 13.15625 6.1875 
Q 5.515625 13.8125 5.515625 26.8125 
Q 5.515625 40.234375 12.765625 48.109375 
Q 20.015625 56 32.328125 56 
Q 43.359375 56 49.78125 48.890625 
Q 56.203125 41.796875 56.203125 29.59375 
z
M 47.21875 32.234375 
Q 47.125 39.59375 43.09375 43.984375 
Q 39.0625 48.390625 32.421875 48.390625 
Q 24.90625 48.390625 20.390625 44.140625 
Q 15.875 39.890625 15.1875 32.171875 
z
" id="DejaVuSans-65"/>
      <path d="M 48.78125 52.59375 
L 48.78125 44.1875 
Q 44.96875 46.296875 41.140625 47.34375 
Q 37.3125 48.390625 33.40625 48.390625 
Q 24.65625 48.390625 19.8125 42.84375 
Q 14.984375 37.3125 14.984375 27.296875 
Q 14.984375 17.28125 19.8125 11.734375 
Q 24.65625 6.203125 33.40625 6.203125 
Q 37.3125 6.203125 41.140625 7.25 
Q 44.96875 8.296875 48.78125 10.40625 
L 48.78125 2.09375 
Q 45.015625 0.34375 40.984375 -0.53125 
Q 36.96875 -1.421875 32.421875 -1.421875 
Q 20.0625 -1.421875 12.78125 6.34375 
Q 5.515625 14.109375 5.515625 27.296875 
Q 5.515625 40.671875 12.859375 48.328125 
Q 20.21875 56 33.015625 56 
Q 37.15625 56 41.109375 55.140625 
Q 45.0625 54.296875 48.78125 52.59375 
z
" id="DejaVuSans-63"/>
     </defs>
     <g transform="translate(221.507656 305.387781)scale(0.1 -0.1)">
      <use xlink:href="#DejaVuSans-73"/>
      <use x="52.099609" xlink:href="#DejaVuSans-65"/>
      <use x="113.623047" xlink:href="#DejaVuSans-63"/>
     </g>
    </g>
   </g>
   <g id="matplotlib.axis_2">
    <g id="ytick_1">
     <g id="line2d_19">
      <path clip-path="url(#pcebc54b52f)" d="M 51.378125 277.111219 
L 408.498125 277.111219 
" style="fill:none;stroke:#b0b0b0;stroke-linecap:square;stroke-width:0.8;"/>
     </g>
     <g id="line2d_20">
      <defs>
       <path d="M 0 0 
L -3.5 0 
" id="m743568c901" style="stroke:#000000;stroke-width:0.8;"/>
      </defs>
      <g>
       <use style="stroke:#000000;stroke-width:0.8;" x="51.378125" xlink:href="#m743568c901" y="277.111219"/>
      </g>
     </g>
     <g id="text_11">
      <!-- $\mathdefault{10^{-3}}$ -->
      <defs>
       <path d="M 10.59375 35.5 
L 73.1875 35.5 
L 73.1875 27.203125 
L 10.59375 27.203125 
z
" id="DejaVuSans-2212"/>
       <path d="M 40.578125 39.3125 
Q 47.65625 37.796875 51.625 33 
Q 55.609375 28.21875 55.609375 21.1875 
Q 55.609375 10.40625 48.1875 4.484375 
Q 40.765625 -1.421875 27.09375 -1.421875 
Q 22.515625 -1.421875 17.65625 -0.515625 
Q 12.796875 0.390625 7.625 2.203125 
L 7.625 11.71875 
Q 11.71875 9.328125 16.59375 8.109375 
Q 21.484375 6.890625 26.8125 6.890625 
Q 36.078125 6.890625 40.9375 10.546875 
Q 45.796875 14.203125 45.796875 21.1875 
Q 45.796875 27.640625 41.28125 31.265625 
Q 36.765625 34.90625 28.71875 34.90625 
L 20.21875 34.90625 
L 20.21875 43.015625 
L 29.109375 43.015625 
Q 36.375 43.015625 40.234375 45.921875 
Q 44.09375 48.828125 44.09375 54.296875 
Q 44.09375 59.90625 40.109375 62.90625 
Q 36.140625 65.921875 28.71875 65.921875 
Q 24.65625 65.921875 20.015625 65.03125 
Q 15.375 64.15625 9.8125 62.3125 
L 9.8125 71.09375 
Q 15.4375 72.65625 20.34375 73.4375 
Q 25.25 74.21875 29.59375 74.21875 
Q 40.828125 74.21875 47.359375 69.109375 
Q 53.90625 64.015625 53.90625 55.328125 
Q 53.90625 49.265625 50.4375 45.09375 
Q 46.96875 40.921875 40.578125 39.3125 
z
" id="DejaVuSans-33"/>
      </defs>
      <g transform="translate(20.878125 280.910437)scale(0.1 -0.1)">
       <use transform="translate(0 0.765625)" xlink:href="#DejaVuSans-31"/>
       <use transform="translate(63.623047 0.765625)" xlink:href="#DejaVuSans-30"/>
       <use transform="translate(128.203125 39.046875)scale(0.7)" xlink:href="#DejaVuSans-2212"/>
       <use transform="translate(186.855469 39.046875)scale(0.7)" xlink:href="#DejaVuSans-33"/>
      </g>
     </g>
    </g>
    <g id="ytick_2">
     <g id="line2d_21">
      <path clip-path="url(#pcebc54b52f)" d="M 51.378125 144.055219 
L 408.498125 144.055219 
" style="fill:none;stroke:#b0b0b0;stroke-linecap:square;stroke-width:0.8;"/>
     </g>
     <g id="line2d_22">
      <g>
       <use style="stroke:#000000;stroke-width:0.8;" x="51.378125" xlink:href="#m743568c901" y="144.055219"/>
      </g>
     </g>
     <g id="text_12">
      <!-- $\mathdefault{10^{-2}}$ -->
      <g transform="translate(20.878125 147.854437)scale(0.1 -0.1)">
       <use transform="translate(0 0.765625)" xlink:href="#DejaVuSans-31"/>
       <use transform="translate(63.623047 0.765625)" xlink:href="#DejaVuSans-30"/>
       <use transform="translate(128.203125 39.046875)scale(0.7)" xlink:href="#DejaVuSans-2212"/>
       <use transform="translate(186.855469 39.046875)scale(0.7)" xlink:href="#DejaVuSans-32"/>
      </g>
     </g>
    </g>
    <g id="ytick_3">
     <g id="line2d_23">
      <path clip-path="url(#pcebc54b52f)" d="M 51.378125 10.999219 
L 408.498125 10.999219 
" style="fill:none;stroke:#b0b0b0;stroke-linecap:square;stroke-width:0.8;"/>
     </g>
     <g id="line2d_24">
      <g>
       <use style="stroke:#000000;stroke-width:0.8;" x="51.378125" xlink:href="#m743568c901" y="10.999219"/>
      </g>
     </g>
     <g id="text_13">
      <!-- $\mathdefault{10^{-1}}$ -->
      <g transform="translate(20.878125 14.798437)scale(0.1 -0.1)">
       <use transform="translate(0 0.684375)" xlink:href="#DejaVuSans-31"/>
       <use transform="translate(63.623047 0.684375)" xlink:href="#DejaVuSans-30"/>
       <use transform="translate(128.203125 38.965625)scale(0.7)" xlink:href="#DejaVuSans-2212"/>
       <use transform="translate(186.855469 38.965625)scale(0.7)" xlink:href="#DejaVuSans-31"/>
      </g>
     </g>
    </g>
    <g id="ytick_4">
     <g id="line2d_25">
      <path clip-path="url(#pcebc54b52f)" d="M 51.378125 237.057372 
L 408.498125 237.057372 
" style="fill:none;stroke:#b0b0b0;stroke-linecap:square;stroke-width:0.8;"/>
     </g>
     <g id="line2d_26">
      <defs>
       <path d="M 0 0 
L -2 0 
" id="md00458aa15" style="stroke:#000000;stroke-width:0.6;"/>
      </defs>
      <g>
       <use style="stroke:#000000;stroke-width:0.6;" x="51.378125" xlink:href="#md00458aa15" y="237.057372"/>
      </g>
     </g>
    </g>
    <g id="ytick_5">
     <g id="line2d_27">
      <path clip-path="url(#pcebc54b52f)" d="M 51.378125 213.627373 
L 408.498125 213.627373 
" style="fill:none;stroke:#b0b0b0;stroke-linecap:square;stroke-width:0.8;"/>
     </g>
     <g id="line2d_28">
      <g>
       <use style="stroke:#000000;stroke-width:0.6;" x="51.378125" xlink:href="#md00458aa15" y="213.627373"/>
      </g>
     </g>
    </g>
    <g id="ytick_6">
     <g id="line2d_29">
      <path clip-path="url(#pcebc54b52f)" d="M 51.378125 197.003525 
L 408.498125 197.003525 
" style="fill:none;stroke:#b0b0b0;stroke-linecap:square;stroke-width:0.8;"/>
     </g>
     <g id="line2d_30">
      <g>
       <use style="stroke:#000000;stroke-width:0.6;" x="51.378125" xlink:href="#md00458aa15" y="197.003525"/>
      </g>
     </g>
    </g>
    <g id="ytick_7">
     <g id="line2d_31">
      <path clip-path="url(#pcebc54b52f)" d="M 51.378125 184.109066 
L 408.498125 184.109066 
" style="fill:none;stroke:#b0b0b0;stroke-linecap:square;stroke-width:0.8;"/>
     </g>
     <g id="line2d_32">
      <g>
       <use style="stroke:#000000;stroke-width:0.6;" x="51.378125" xlink:href="#md00458aa15" y="184.109066"/>
      </g>
     </g>
    </g>
    <g id="ytick_8">
     <g id="line2d_33">
      <path clip-path="url(#pcebc54b52f)" d="M 51.378125 173.573526 
L 408.498125 173.573526 
" style="fill:none;stroke:#b0b0b0;stroke-linecap:square;stroke-width:0.8;"/>
     </g>
     <g id="line2d_34">
      <g>
       <use style="stroke:#000000;stroke-width:0.6;" x="51.378125" xlink:href="#md00458aa15" y="173.573526"/>
      </g>
     </g>
    </g>
    <g id="ytick_9">
     <g id="line2d_35">
      <path clip-path="url(#pcebc54b52f)" d="M 51.378125 164.665854 
L 408.498125 164.665854 
" style="fill:none;stroke:#b0b0b0;stroke-linecap:square;stroke-width:0.8;"/>
     </g>
     <g id="line2d_36">
      <g>
       <use style="stroke:#000000;stroke-width:0.6;" x="51.378125" xlink:href="#md00458aa15" y="164.665854"/>
      </g>
     </g>
    </g>
    <g id="ytick_10">
     <g id="line2d_37">
      <path clip-path="url(#pcebc54b52f)" d="M 51.378125 156.949677 
L 408.498125 156.949677 
" style="fill:none;stroke:#b0b0b0;stroke-linecap:square;stroke-width:0.8;"/>
     </g>
     <g id="line2d_38">
      <g>
       <use style="stroke:#000000;stroke-width:0.6;" x="51.378125" xlink:href="#md00458aa15" y="156.949677"/>
      </g>
     </g>
    </g>
    <g id="ytick_11">
     <g id="line2d_39">
      <path clip-path="url(#pcebc54b52f)" d="M 51.378125 150.143527 
L 408.498125 150.143527 
" style="fill:none;stroke:#b0b0b0;stroke-linecap:square;stroke-width:0.8;"/>
     </g>
     <g id="line2d_40">
      <g>
       <use style="stroke:#000000;stroke-width:0.6;" x="51.378125" xlink:href="#md00458aa15" y="150.143527"/>
      </g>
     </g>
    </g>
    <g id="ytick_12">
     <g id="line2d_41">
      <path clip-path="url(#pcebc54b52f)" d="M 51.378125 104.001372 
L 408.498125 104.001372 
" style="fill:none;stroke:#b0b0b0;stroke-linecap:square;stroke-width:0.8;"/>
     </g>
     <g id="line2d_42">
      <g>
       <use style="stroke:#000000;stroke-width:0.6;" x="51.378125" xlink:href="#md00458aa15" y="104.001372"/>
      </g>
     </g>
    </g>
    <g id="ytick_13">
     <g id="line2d_43">
      <path clip-path="url(#pcebc54b52f)" d="M 51.378125 80.571373 
L 408.498125 80.571373 
" style="fill:none;stroke:#b0b0b0;stroke-linecap:square;stroke-width:0.8;"/>
     </g>
     <g id="line2d_44">
      <g>
       <use style="stroke:#000000;stroke-width:0.6;" x="51.378125" xlink:href="#md00458aa15" y="80.571373"/>
      </g>
     </g>
    </g>
    <g id="ytick_14">
     <g id="line2d_45">
      <path clip-path="url(#pcebc54b52f)" d="M 51.378125 63.947525 
L 408.498125 63.947525 
" style="fill:none;stroke:#b0b0b0;stroke-linecap:square;stroke-width:0.8;"/>
     </g>
     <g id="line2d_46">
      <g>
       <use style="stroke:#000000;stroke-width:0.6;" x="51.378125" xlink:href="#md00458aa15" y="63.947525"/>
      </g>
     </g>
    </g>
    <g id="ytick_15">
     <g id="line2d_47">
      <path clip-path="url(#pcebc54b52f)" d="M 51.378125 51.053066 
L 408.498125 51.053066 
" style="fill:none;stroke:#b0b0b0;stroke-linecap:square;stroke-width:0.8;"/>
     </g>
     <g id="line2d_48">
      <g>
       <use style="stroke:#000000;stroke-width:0.6;" x="51.378125" xlink:href="#md00458aa15" y="51.053066"/>
      </g>
     </g>
    </g>
    <g id="ytick_16">
     <g id="line2d_49">
      <path clip-path="url(#pcebc54b52f)" d="M 51.378125 40.517526 
L 408.498125 40.517526 
" style="fill:none;stroke:#b0b0b0;stroke-linecap:square;stroke-width:0.8;"/>
     </g>
     <g id="line2d_50">
      <g>
       <use style="stroke:#000000;stroke-width:0.6;" x="51.378125" xlink:href="#md00458aa15" y="40.517526"/>
      </g>
     </g>
    </g>
    <g id="ytick_17">
     <g id="line2d_51">
      <path clip-path="url(#pcebc54b52f)" d="M 51.378125 31.609854 
L 408.498125 31.609854 
" style="fill:none;stroke:#b0b0b0;stroke-linecap:square;stroke-width:0.8;"/>
     </g>
     <g id="line2d_52">
      <g>
       <use style="stroke:#000000;stroke-width:0.6;" x="51.378125" xlink:href="#md00458aa15" y="31.609854"/>
      </g>
     </g>
    </g>
    <g id="ytick_18">
     <g id="line2d_53">
      <path clip-path="url(#pcebc54b52f)" d="M 51.378125 23.893677 
L 408.498125 23.893677 
" style="fill:none;stroke:#b0b0b0;stroke-linecap:square;stroke-width:0.8;"/>
     </g>
     <g id="line2d_54">
      <g>
       <use style="stroke:#000000;stroke-width:0.6;" x="51.378125" xlink:href="#md00458aa15" y="23.893677"/>
      </g>
     </g>
    </g>
    <g id="ytick_19">
     <g id="line2d_55">
      <path clip-path="url(#pcebc54b52f)" d="M 51.378125 17.087527 
L 408.498125 17.087527 
" style="fill:none;stroke:#b0b0b0;stroke-linecap:square;stroke-width:0.8;"/>
     </g>
     <g id="line2d_56">
      <g>
       <use style="stroke:#000000;stroke-width:0.6;" x="51.378125" xlink:href="#md00458aa15" y="17.087527"/>
      </g>
     </g>
    </g>
    <g id="text_14">
     <!-- test loss -->
     <defs>
      <path d="M 18.3125 70.21875 
L 18.3125 54.6875 
L 36.8125 54.6875 
L 36.8125 47.703125 
L 18.3125 47.703125 
L 18.3125 18.015625 
Q 18.3125 11.328125 20.140625 9.421875 
Q 21.96875 7.515625 27.59375 7.515625 
L 36.8125 7.515625 
L 36.8125 0 
L 27.59375 0 
Q 17.1875 0 13.234375 3.875 
Q 9.28125 7.765625 9.28125 18.015625 
L 9.28125 47.703125 
L 2.6875 47.703125 
L 2.6875 54.6875 
L 9.28125 54.6875 
L 9.28125 70.21875 
z
" id="DejaVuSans-74"/>
      <path id="DejaVuSans-20"/>
      <path d="M 9.421875 75.984375 
L 18.40625 75.984375 
L 18.40625 0 
L 9.421875 0 
z
" id="DejaVuSans-6c"/>
      <path d="M 30.609375 48.390625 
Q 23.390625 48.390625 19.1875 42.75 
Q 14.984375 37.109375 14.984375 27.296875 
Q 14.984375 17.484375 19.15625 11.84375 
Q 23.34375 6.203125 30.609375 6.203125 
Q 37.796875 6.203125 41.984375 11.859375 
Q 46.1875 17.53125 46.1875 27.296875 
Q 46.1875 37.015625 41.984375 42.703125 
Q 37.796875 48.390625 30.609375 48.390625 
z
M 30.609375 56 
Q 42.328125 56 49.015625 48.375 
Q 55.71875 40.765625 55.71875 27.296875 
Q 55.71875 13.875 49.015625 6.21875 
Q 42.328125 -1.421875 30.609375 -1.421875 
Q 18.84375 -1.421875 12.171875 6.21875 
Q 5.515625 13.875 5.515625 27.296875 
Q 5.515625 40.765625 12.171875 48.375 
Q 18.84375 56 30.609375 56 
z
" id="DejaVuSans-6f"/>
     </defs>
     <g transform="translate(14.798438 164.903656)rotate(-90)scale(0.1 -0.1)">
      <use xlink:href="#DejaVuSans-74"/>
      <use x="39.208984" xlink:href="#DejaVuSans-65"/>
      <use x="100.732422" xlink:href="#DejaVuSans-73"/>
      <use x="152.832031" xlink:href="#DejaVuSans-74"/>
      <use x="192.041016" xlink:href="#DejaVuSans-20"/>
      <use x="223.828125" xlink:href="#DejaVuSans-6c"/>
      <use x="251.611328" xlink:href="#DejaVuSans-6f"/>
      <use x="312.792969" xlink:href="#DejaVuSans-73"/>
      <use x="364.892578" xlink:href="#DejaVuSans-73"/>
     </g>
    </g>
   </g>
   <g id="line2d_57">
    <path clip-path="url(#pcebc54b52f)" d="M 67.261495 -1 
L 67.581905 18.63998 
L 67.90598 47.053866 
L 68.230056 63.051881 
L 68.554132 90.476877 
L 68.878207 100.919482 
L 69.202283 125.007147 
L 69.526358 129.269884 
L 69.850434 147.678713 
L 70.17451 147.325957 
L 70.498585 159.637415 
L 70.822661 157.268423 
L 71.146736 164.860503 
L 71.470812 162.266221 
L 71.794888 166.818508 
L 72.118963 164.694828 
L 72.443039 167.429691 
L 72.767114 165.883146 
L 73.09119 167.547086 
L 73.415266 166.482695 
L 73.739341 167.509047 
L 74.063417 166.798099 
L 74.387492 167.438391 
L 74.711568 166.97146 
L 75.035644 167.374268 
L 75.359719 167.070622 
L 75.683795 167.325513 
L 76.00787 167.129229 
L 76.331946 167.291157 
L 76.656021 167.164742 
L 76.980097 167.267881 
L 77.304173 167.186652 
L 77.628248 167.252456 
L 78.276399 167.242369 
L 79.248626 167.214421 
L 81.517155 167.226016 
L 91.563499 167.224019 
L 408.509432 167.224021 
L 408.509432 167.224021 
" style="fill:none;stroke:#1f77b4;stroke-linecap:square;stroke-width:1.5;"/>
   </g>
   <g id="line2d_58">
    <path clip-path="url(#pcebc54b52f)" d="M 51.737836 84.374346 
L 52.097547 131.510598 
L 52.457258 163.269277 
L 52.816969 162.19272 
L 53.17668 165.828424 
L 53.536391 165.452757 
L 53.896102 166.349253 
L 54.255813 166.649787 
L 54.975235 167.550252 
L 56.41408 169.0725 
L 58.212635 170.628018 
L 60.01119 171.871353 
L 61.809745 172.861821 
L 63.968012 173.785792 
L 66.485989 174.58491 
L 69.363677 175.231526 
L 72.601077 175.725045 
L 76.917609 176.138207 
L 82.672986 176.443609 
L 91.665762 176.667301 
L 110.011026 176.850494 
L 174.759014 177.427854 
L 249.219201 178.407971 
L 369.362691 179.944039 
L 408.571196 180.383375 
L 408.571196 180.383375 
" style="fill:none;stroke:#ff7f0e;stroke-linecap:square;stroke-width:1.5;"/>
   </g>
   <g id="line2d_59">
    <path clip-path="url(#pcebc54b52f)" d="M 51.793932 -1 
L 53.49576 69.83058 
L 54.554578 104.914661 
L 55.260457 122.852925 
L 55.966335 136.254769 
L 56.672214 145.660101 
L 57.378092 151.960437 
L 58.083971 156.06977 
L 58.789849 158.729537 
L 59.495727 160.465049 
L 60.201606 161.620621 
L 60.907484 162.412764 
L 61.966302 163.197348 
L 63.378059 163.842514 
L 65.142755 164.353962 
L 67.966269 164.911941 
L 73.966236 165.809969 
L 85.260292 167.253042 
L 97.966104 168.655362 
L 111.730735 169.947832 
L 126.554183 171.113082 
L 142.789388 172.162149 
L 160.789289 173.096835 
L 180.906825 173.914117 
L 203.847876 174.619705 
L 231.024197 175.224785 
L 263.847546 175.723151 
L 305.494377 176.120985 
L 361.964655 176.423341 
L 408.552634 176.564186 
L 408.552634 176.564186 
" style="fill:none;stroke:#2ca02c;stroke-linecap:square;stroke-width:1.5;"/>
   </g>
   <g id="line2d_60">
    <path clip-path="url(#pcebc54b52f)" d="M 62.280669 142.733085 
L 73.183212 167.916156 
L 84.085756 184.285441 
L 94.9883 207.66177 
L 105.890843 224.276139 
L 116.793387 228.939407 
L 127.695931 231.128606 
L 138.598475 233.127476 
L 149.501018 236.442007 
L 160.403562 238.43344 
L 171.306106 236.391993 
L 182.208649 239.803063 
L 193.111193 239.092495 
L 204.013737 242.049497 
L 214.91628 241.18011 
L 225.818824 242.853554 
L 236.721368 243.779535 
L 247.623912 245.382305 
L 258.526455 242.240762 
L 269.428999 246.401194 
L 280.331543 247.685152 
L 291.234086 248.542773 
L 302.13663 249.179327 
L 313.039174 250.436787 
L 323.941717 250.407114 
L 334.844261 250.576121 
L 345.746805 251.450675 
L 356.649349 251.454522 
L 367.551892 251.497739 
L 378.454436 253.038059 
L 389.35698 253.856269 
L 400.259523 253.996655 
L 411.162067 254.082446 
L 422.064611 254.557656 
" style="fill:none;stroke:#d62728;stroke-dasharray:5.55,2.4;stroke-dashoffset:0;stroke-width:1.5;"/>
   </g>
   <g id="line2d_61">
    <path clip-path="url(#pcebc54b52f)" d="M 57.796363 142.733085 
L 64.214601 167.916156 
L 70.632839 184.285441 
L 77.051077 207.66177 
L 83.469315 224.276139 
L 89.887554 228.939407 
L 96.305792 231.128606 
L 102.72403 233.127476 
L 109.142268 236.442007 
L 115.560506 239.324346 
L 121.978744 238.275464 
L 128.396982 237.406311 
L 134.81522 239.555422 
L 141.233458 237.401016 
L 147.651696 240.878463 
L 154.069934 240.434721 
L 160.488172 242.074129 
L 166.906411 240.760945 
L 173.324649 241.544158 
L 179.742887 242.970792 
L 186.161125 242.871717 
L 192.579363 242.901059 
L 198.997601 243.646966 
L 205.415839 243.431912 
L 211.834077 244.378312 
L 218.252315 244.533008 
L 224.670553 244.999084 
L 231.088791 245.121349 
L 237.507029 245.250833 
L 243.925268 246.091243 
L 250.343506 246.062347 
L 256.761744 246.169476 
L 263.179982 246.775224 
L 269.59822 246.961246 
L 276.016458 247.490706 
L 282.434696 246.697285 
L 288.852934 247.628196 
L 295.271172 247.209804 
L 301.68941 248.1268 
L 308.107648 247.47592 
L 314.525887 248.446679 
L 320.944125 247.767529 
L 327.362363 248.741959 
L 333.780601 248.0439 
L 340.198839 249.01478 
L 346.617077 248.315544 
L 353.035315 249.263734 
L 359.453553 248.594769 
L 365.871791 249.511567 
L 372.290029 248.886527 
L 378.708267 249.755196 
L 385.126505 249.200991 
L 391.544744 249.970279 
L 397.962982 249.508498 
L 404.38122 250.194386 
L 410.799458 249.792207 
" style="fill:none;stroke:#9467bd;stroke-dasharray:5.55,2.4;stroke-dashoffset:0;stroke-width:1.5;"/>
   </g>
   <g id="line2d_62">
    <path clip-path="url(#pcebc54b52f)" d="M 55.488603 142.733085 
L 59.599081 167.916156 
L 63.709559 184.285441 
L 67.820037 207.66177 
L 71.930515 224.276139 
L 76.040993 228.939407 
L 80.15147 231.128606 
L 84.261948 233.127476 
L 88.372426 236.442007 
L 92.482904 236.606012 
L 96.593382 237.682844 
L 100.70386 236.680287 
L 104.814338 237.811742 
L 108.924816 236.838962 
L 113.035294 237.94085 
L 117.145772 236.97562 
L 121.25625 238.053373 
L 125.366728 237.098379 
L 129.477206 238.153831 
L 133.587683 237.210877 
L 137.698161 238.245753 
L 141.808639 237.315451 
L 145.919117 238.331132 
L 150.029595 237.413958 
L 154.140073 238.410944 
L 158.250551 237.508173 
L 162.361029 238.485348 
L 166.471507 237.600073 
L 170.581985 238.553754 
L 174.692463 237.692034 
L 178.802941 238.614932 
L 182.913418 237.786658 
L 187.023896 238.667546 
L 191.134374 237.885983 
L 195.244852 238.711278 
L 199.35533 237.990214 
L 203.465808 238.748157 
L 207.576286 238.097007 
L 211.686764 238.780212 
L 215.797242 238.202422 
L 219.90772 238.8136 
L 224.018198 238.302784 
L 228.128676 238.849886 
L 232.239154 238.396275 
L 236.349631 238.890237 
L 240.460109 238.483032 
L 244.570587 238.934619 
L 248.681065 238.564812 
L 252.791543 238.982531 
L 256.902021 238.644923 
L 261.012499 239.033558 
L 265.122977 238.72956 
L 269.233455 239.088007 
L 273.343933 238.834366 
L 277.454411 239.149066 
L 281.564889 239.024762 
L 285.675367 239.240681 
L 289.785844 239.277781 
L 293.896322 240.225814 
L 298.0068 239.789974 
L 302.117278 240.245875 
L 306.227756 239.858783 
L 310.338234 240.28094 
L 314.448712 239.919779 
L 318.55919 240.317251 
L 322.669668 239.978731 
L 326.780146 240.353857 
L 330.890624 240.036546 
L 335.001102 240.390597 
L 339.111579 240.09327 
L 343.222057 240.427522 
L 347.332535 240.148709 
L 351.443013 240.464773 
L 355.553491 240.202605 
L 359.663969 240.502523 
L 363.774447 240.254703 
L 367.884925 240.540939 
L 371.995403 240.304784 
L 376.105881 240.580156 
L 380.216359 240.352687 
L 384.326837 240.62026 
L 388.437315 240.398325 
L 392.547792 240.661279 
L 396.65827 240.44169 
L 400.768748 240.703183 
L 404.879226 240.482854 
L 408.989704 240.745881 
" style="fill:none;stroke:#8c564b;stroke-dasharray:5.55,2.4;stroke-dashoffset:0;stroke-width:1.5;"/>
   </g>
   <g id="line2d_63">
    <path clip-path="url(#pcebc54b52f)" d="M 53.914526 142.733085 
L 56.450926 167.916156 
L 58.987327 184.285441 
L 61.523727 207.66177 
L 64.060128 224.276139 
L 66.596528 228.939407 
L 69.132929 231.128606 
L 71.669329 233.127476 
L 74.20573 236.442007 
L 76.74213 237.230117 
L 79.278531 237.003915 
L 81.814931 237.131918 
L 84.351332 236.978715 
L 86.887732 237.103289 
L 89.424133 236.975313 
L 91.960533 237.099735 
L 94.496934 236.983746 
L 97.033334 237.107435 
L 99.569735 236.998886 
L 102.106135 237.120814 
L 104.642536 237.016724 
L 107.178936 237.136849 
L 109.715337 237.035486 
L 112.251738 237.153897 
L 114.788138 237.054301 
L 117.324539 237.171102 
L 119.860939 237.072698 
L 122.39734 237.188032 
L 124.93374 237.090469 
L 127.470141 237.204476 
L 130.006541 237.107566 
L 132.542942 237.220348 
L 135.079342 237.138553 
L 137.615743 237.236434 
L 140.152143 237.140005 
L 142.688544 237.251092 
L 145.224944 237.155028 
L 147.761345 237.265176 
L 150.297745 237.169798 
L 152.834146 237.278745 
L 155.370546 237.183038 
L 157.906947 237.291807 
L 160.443347 237.196394 
L 162.979748 237.304426 
L 165.516148 237.20898 
L 168.052549 237.316606 
L 170.588949 237.224096 
L 173.12535 237.328434 
L 175.661751 237.233193 
L 178.198151 237.339859 
L 180.734552 237.244658 
L 183.270952 237.350973 
L 185.807353 237.255899 
L 188.343753 237.361743 
L 190.880154 237.266733 
L 193.416554 237.372232 
L 195.952955 237.277392 
L 198.489355 237.382481 
L 201.025756 237.287629 
L 203.562156 237.392464 
L 206.098557 237.297657 
L 208.634957 237.402259 
L 211.171358 237.307541 
L 213.707758 237.41178 
L 216.244159 237.317141 
L 218.780559 237.421127 
L 221.31696 237.326067 
L 223.85336 237.430314 
L 226.389761 237.335827 
L 228.926161 237.439308 
L 231.462562 237.344883 
L 233.998963 237.448131 
L 236.535363 237.353852 
L 239.071764 237.456853 
L 241.608164 237.362588 
L 244.144565 237.465405 
L 246.680965 237.371189 
L 249.217366 237.473862 
L 251.753766 237.379741 
L 254.290167 237.482146 
L 256.826567 237.388106 
L 259.362968 237.490331 
L 261.899368 237.396807 
L 264.435769 237.498433 
L 266.972169 237.404553 
L 269.50857 237.506411 
L 272.04497 237.412597 
L 274.581371 237.514256 
L 277.117771 237.420606 
L 279.654172 237.522108 
L 282.190572 237.42846 
L 284.726973 237.529816 
L 287.263373 237.436201 
L 289.799774 237.537471 
L 292.336175 237.443979 
L 294.872575 237.545017 
L 297.408976 237.451599 
L 299.945376 237.552488 
L 302.481777 237.459218 
L 305.018177 237.559926 
L 307.554578 237.466671 
L 310.090978 237.567271 
L 312.627379 237.47407 
L 315.163779 237.57459 
L 317.70018 237.481479 
L 320.23658 237.581794 
L 322.772981 237.488768 
L 325.309381 237.588954 
L 327.845782 237.4961 
L 330.382182 237.596089 
L 332.918583 237.503221 
L 335.454983 237.603145 
L 337.991384 237.510336 
L 340.527784 237.610203 
L 343.064185 237.517464 
L 345.600585 237.617129 
L 348.136986 237.524486 
L 350.673386 237.624036 
L 353.209787 237.531577 
L 355.746188 237.630928 
L 358.282588 237.538438 
L 360.818989 237.637749 
L 363.355389 237.545317 
L 365.89179 237.64458 
L 368.42819 237.552217 
L 370.964591 237.65129 
L 373.500991 237.55902 
L 376.037392 237.657986 
L 378.573792 237.565876 
L 381.110193 237.664675 
L 383.646593 237.572555 
L 386.182994 237.671301 
L 388.719394 237.579231 
L 391.255795 237.677929 
L 393.792195 237.585942 
L 396.328596 237.684468 
L 398.864996 237.592559 
L 401.401397 237.690981 
L 403.937797 237.59921 
L 406.474198 237.697502 
L 409.010598 237.605739 
L 409.010598 237.605739 
" style="fill:none;stroke:#e377c2;stroke-dasharray:5.55,2.4;stroke-dashoffset:0;stroke-width:1.5;"/>
   </g>
   <g id="line2d_64">
    <path clip-path="url(#pcebc54b52f)" d="M 53.121386 142.733085 
L 54.864646 167.916156 
L 56.607907 184.285441 
L 58.351167 207.66177 
L 60.094428 224.276139 
L 61.837688 228.939407 
L 63.580949 231.128606 
L 65.32421 233.127476 
L 67.06747 236.442007 
L 68.810731 237.240427 
L 70.553991 236.964262 
L 72.297252 237.257554 
L 74.040512 237.080959 
L 75.783773 237.237845 
L 77.527034 237.104203 
L 79.270294 237.208865 
L 81.013555 237.103305 
L 82.756815 237.183891 
L 84.500076 237.096599 
L 86.243336 237.16515 
L 87.986597 237.08891 
L 89.729857 237.151603 
L 91.473118 237.081736 
L 93.216379 237.141777 
L 94.959639 237.075583 
L 96.7029 237.134528 
L 98.44616 237.07056 
L 100.189421 237.129108 
L 101.932681 237.066612 
L 103.675942 237.125047 
L 105.419203 237.063627 
L 107.162463 237.122049 
L 108.905724 237.061481 
L 110.648984 237.119915 
L 112.392245 237.060064 
L 114.135505 237.118501 
L 115.878766 237.059276 
L 117.622027 237.117701 
L 119.365287 237.059036 
L 121.108548 237.117431 
L 122.851808 237.059273 
L 124.595069 237.117621 
L 126.338329 237.059928 
L 128.08159 237.118213 
L 129.824851 237.060949 
L 131.568111 237.119158 
L 133.311372 237.062291 
L 135.054632 237.120414 
L 136.797893 237.063915 
L 138.541153 237.121943 
L 140.284414 237.065787 
L 142.027674 237.123712 
L 143.770935 237.067877 
L 145.514196 237.125693 
L 147.257456 237.070159 
L 149.000717 237.127859 
L 150.743977 237.072608 
L 152.487238 237.130189 
L 154.230498 237.075203 
L 155.973759 237.132661 
L 157.71702 237.077925 
L 159.46028 237.135258 
L 161.203541 237.080758 
L 162.946801 237.137964 
L 164.690062 237.083686 
L 168.176583 237.086695 
L 173.406365 237.146593 
L 178.636146 237.096102 
L 183.865928 237.15576 
L 189.09571 237.105882 
L 194.325492 237.16524 
L 199.555273 237.115849 
L 204.785055 237.174872 
L 210.014837 237.125871 
L 215.244618 237.184543 
L 220.4744 237.135857 
L 225.704182 237.194174 
L 230.933963 237.145743 
L 236.163745 237.203709 
L 241.393527 237.155487 
L 246.623309 237.213112 
L 251.85309 237.165061 
L 257.082872 237.222359 
L 262.312654 237.17445 
L 267.542435 237.231435 
L 272.772217 237.183643 
L 278.001999 237.240331 
L 283.23178 237.192637 
L 288.461562 237.249044 
L 293.691344 237.201431 
L 298.921126 237.257574 
L 304.150907 237.210029 
L 309.380689 237.265922 
L 314.610471 237.218434 
L 319.840252 237.274092 
L 325.070034 237.226653 
L 330.299816 237.282089 
L 335.529597 237.23469 
L 340.759379 237.289918 
L 345.989161 237.242553 
L 351.218943 237.297585 
L 356.448724 237.250249 
L 361.678506 237.305095 
L 366.908288 237.257783 
L 372.138069 237.312455 
L 377.367851 237.265164 
L 382.597633 237.319671 
L 387.827414 237.272398 
L 393.057196 237.326749 
L 398.286978 237.27949 
L 403.51676 237.333693 
L 408.746541 237.286448 
L 408.746541 237.286448 
" style="fill:none;stroke:#7f7f7f;stroke-dasharray:5.55,2.4;stroke-dashoffset:0;stroke-width:1.5;"/>
   </g>
   <g id="patch_3">
    <path d="M 51.378125 277.111219 
L 51.378125 10.999219 
" style="fill:none;stroke:#000000;stroke-linecap:square;stroke-linejoin:miter;stroke-width:0.8;"/>
   </g>
   <g id="patch_4">
    <path d="M 408.498125 277.111219 
L 408.498125 10.999219 
" style="fill:none;stroke:#000000;stroke-linecap:square;stroke-linejoin:miter;stroke-width:0.8;"/>
   </g>
   <g id="patch_5">
    <path d="M 51.378125 277.111219 
L 408.498125 277.111219 
" style="fill:none;stroke:#000000;stroke-linecap:square;stroke-linejoin:miter;stroke-width:0.8;"/>
   </g>
   <g id="patch_6">
    <path d="M 51.378125 10.999219 
L 408.498125 10.999219 
" style="fill:none;stroke:#000000;stroke-linecap:square;stroke-linejoin:miter;stroke-width:0.8;"/>
   </g>
   <g id="legend_1">
    <g id="patch_7">
     <path d="M 293.673125 136.424219 
L 401.498125 136.424219 
Q 403.498125 136.424219 403.498125 134.424219 
L 403.498125 17.999219 
Q 403.498125 15.999219 401.498125 15.999219 
L 293.673125 15.999219 
Q 291.673125 15.999219 291.673125 17.999219 
L 291.673125 134.424219 
Q 291.673125 136.424219 293.673125 136.424219 
z
" style="fill:#ffffff;opacity:0.8;stroke:#cccccc;stroke-linejoin:miter;"/>
    </g>
    <g id="line2d_65">
     <path d="M 295.673125 24.097656 
L 315.673125 24.097656 
" style="fill:none;stroke:#1f77b4;stroke-linecap:square;stroke-width:1.5;"/>
    </g>
    <g id="line2d_66"/>
    <g id="text_15">
     <!-- SGD, lr 0.1 -->
     <defs>
      <path d="M 53.515625 70.515625 
L 53.515625 60.890625 
Q 47.90625 63.578125 42.921875 64.890625 
Q 37.9375 66.21875 33.296875 66.21875 
Q 25.25 66.21875 20.875 63.09375 
Q 16.5 59.96875 16.5 54.203125 
Q 16.5 49.359375 19.40625 46.890625 
Q 22.3125 44.4375 30.421875 42.921875 
L 36.375 41.703125 
Q 47.40625 39.59375 52.65625 34.296875 
Q 57.90625 29 57.90625 20.125 
Q 57.90625 9.515625 50.796875 4.046875 
Q 43.703125 -1.421875 29.984375 -1.421875 
Q 24.8125 -1.421875 18.96875 -0.25 
Q 13.140625 0.921875 6.890625 3.21875 
L 6.890625 13.375 
Q 12.890625 10.015625 18.65625 8.296875 
Q 24.421875 6.59375 29.984375 6.59375 
Q 38.421875 6.59375 43.015625 9.90625 
Q 47.609375 13.234375 47.609375 19.390625 
Q 47.609375 24.75 44.3125 27.78125 
Q 41.015625 30.8125 33.5 32.328125 
L 27.484375 33.5 
Q 16.453125 35.6875 11.515625 40.375 
Q 6.59375 45.0625 6.59375 53.421875 
Q 6.59375 63.09375 13.40625 68.65625 
Q 20.21875 74.21875 32.171875 74.21875 
Q 37.3125 74.21875 42.625 73.28125 
Q 47.953125 72.359375 53.515625 70.515625 
z
" id="DejaVuSans-53"/>
      <path d="M 59.515625 10.40625 
L 59.515625 29.984375 
L 43.40625 29.984375 
L 43.40625 38.09375 
L 69.28125 38.09375 
L 69.28125 6.78125 
Q 63.578125 2.734375 56.6875 0.65625 
Q 49.8125 -1.421875 42 -1.421875 
Q 24.90625 -1.421875 15.25 8.5625 
Q 5.609375 18.5625 5.609375 36.375 
Q 5.609375 54.25 15.25 64.234375 
Q 24.90625 74.21875 42 74.21875 
Q 49.125 74.21875 55.546875 72.453125 
Q 61.96875 70.703125 67.390625 67.28125 
L 67.390625 56.78125 
Q 61.921875 61.421875 55.765625 63.765625 
Q 49.609375 66.109375 42.828125 66.109375 
Q 29.4375 66.109375 22.71875 58.640625 
Q 16.015625 51.171875 16.015625 36.375 
Q 16.015625 21.625 22.71875 14.15625 
Q 29.4375 6.6875 42.828125 6.6875 
Q 48.046875 6.6875 52.140625 7.59375 
Q 56.25 8.5 59.515625 10.40625 
z
" id="DejaVuSans-47"/>
      <path d="M 19.671875 64.796875 
L 19.671875 8.109375 
L 31.59375 8.109375 
Q 46.6875 8.109375 53.6875 14.9375 
Q 60.6875 21.78125 60.6875 36.53125 
Q 60.6875 51.171875 53.6875 57.984375 
Q 46.6875 64.796875 31.59375 64.796875 
z
M 9.8125 72.90625 
L 30.078125 72.90625 
Q 51.265625 72.90625 61.171875 64.09375 
Q 71.09375 55.28125 71.09375 36.53125 
Q 71.09375 17.671875 61.125 8.828125 
Q 51.171875 0 30.078125 0 
L 9.8125 0 
z
" id="DejaVuSans-44"/>
      <path d="M 11.71875 12.40625 
L 22.015625 12.40625 
L 22.015625 4 
L 14.015625 -11.625 
L 7.71875 -11.625 
L 11.71875 4 
z
" id="DejaVuSans-2c"/>
      <path d="M 41.109375 46.296875 
Q 39.59375 47.171875 37.8125 47.578125 
Q 36.03125 48 33.890625 48 
Q 26.265625 48 22.1875 43.046875 
Q 18.109375 38.09375 18.109375 28.8125 
L 18.109375 0 
L 9.078125 0 
L 9.078125 54.6875 
L 18.109375 54.6875 
L 18.109375 46.1875 
Q 20.953125 51.171875 25.484375 53.578125 
Q 30.03125 56 36.53125 56 
Q 37.453125 56 38.578125 55.875 
Q 39.703125 55.765625 41.0625 55.515625 
z
" id="DejaVuSans-72"/>
     </defs>
     <g transform="translate(323.673125 27.597656)scale(0.1 -0.1)">
      <use xlink:href="#DejaVuSans-53"/>
      <use x="63.476562" xlink:href="#DejaVuSans-47"/>
      <use x="140.966797" xlink:href="#DejaVuSans-44"/>
      <use x="217.96875" xlink:href="#DejaVuSans-2c"/>
      <use x="249.755859" xlink:href="#DejaVuSans-20"/>
      <use x="281.542969" xlink:href="#DejaVuSans-6c"/>
      <use x="309.326172" xlink:href="#DejaVuSans-72"/>
      <use x="350.439453" xlink:href="#DejaVuSans-20"/>
      <use x="382.226562" xlink:href="#DejaVuSans-30"/>
      <use x="445.849609" xlink:href="#DejaVuSans-2e"/>
      <use x="477.636719" xlink:href="#DejaVuSans-31"/>
     </g>
    </g>
    <g id="line2d_67">
     <path d="M 295.673125 38.775781 
L 315.673125 38.775781 
" style="fill:none;stroke:#ff7f0e;stroke-linecap:square;stroke-width:1.5;"/>
    </g>
    <g id="line2d_68"/>
    <g id="text_16">
     <!-- SGD, lr 0.01 -->
     <g transform="translate(323.673125 42.275781)scale(0.1 -0.1)">
      <use xlink:href="#DejaVuSans-53"/>
      <use x="63.476562" xlink:href="#DejaVuSans-47"/>
      <use x="140.966797" xlink:href="#DejaVuSans-44"/>
      <use x="217.96875" xlink:href="#DejaVuSans-2c"/>
      <use x="249.755859" xlink:href="#DejaVuSans-20"/>
      <use x="281.542969" xlink:href="#DejaVuSans-6c"/>
      <use x="309.326172" xlink:href="#DejaVuSans-72"/>
      <use x="350.439453" xlink:href="#DejaVuSans-20"/>
      <use x="382.226562" xlink:href="#DejaVuSans-30"/>
      <use x="445.849609" xlink:href="#DejaVuSans-2e"/>
      <use x="477.636719" xlink:href="#DejaVuSans-30"/>
      <use x="541.259766" xlink:href="#DejaVuSans-31"/>
     </g>
    </g>
    <g id="line2d_69">
     <path d="M 295.673125 53.453906 
L 315.673125 53.453906 
" style="fill:none;stroke:#2ca02c;stroke-linecap:square;stroke-width:1.5;"/>
    </g>
    <g id="line2d_70"/>
    <g id="text_17">
     <!-- SGD, lr 0.001 -->
     <g transform="translate(323.673125 56.953906)scale(0.1 -0.1)">
      <use xlink:href="#DejaVuSans-53"/>
      <use x="63.476562" xlink:href="#DejaVuSans-47"/>
      <use x="140.966797" xlink:href="#DejaVuSans-44"/>
      <use x="217.96875" xlink:href="#DejaVuSans-2c"/>
      <use x="249.755859" xlink:href="#DejaVuSans-20"/>
      <use x="281.542969" xlink:href="#DejaVuSans-6c"/>
      <use x="309.326172" xlink:href="#DejaVuSans-72"/>
      <use x="350.439453" xlink:href="#DejaVuSans-20"/>
      <use x="382.226562" xlink:href="#DejaVuSans-30"/>
      <use x="445.849609" xlink:href="#DejaVuSans-2e"/>
      <use x="477.636719" xlink:href="#DejaVuSans-30"/>
      <use x="541.259766" xlink:href="#DejaVuSans-30"/>
      <use x="604.882812" xlink:href="#DejaVuSans-31"/>
     </g>
    </g>
    <g id="line2d_71">
     <path d="M 295.673125 68.132031 
L 315.673125 68.132031 
" style="fill:none;stroke:#d62728;stroke-dasharray:5.55,2.4;stroke-dashoffset:0;stroke-width:1.5;"/>
    </g>
    <g id="line2d_72"/>
    <g id="text_18">
     <!-- SGN, cg iter 20 -->
     <defs>
      <path d="M 9.8125 72.90625 
L 23.09375 72.90625 
L 55.421875 11.921875 
L 55.421875 72.90625 
L 64.984375 72.90625 
L 64.984375 0 
L 51.703125 0 
L 19.390625 60.984375 
L 19.390625 0 
L 9.8125 0 
z
" id="DejaVuSans-4e"/>
      <path d="M 45.40625 27.984375 
Q 45.40625 37.75 41.375 43.109375 
Q 37.359375 48.484375 30.078125 48.484375 
Q 22.859375 48.484375 18.828125 43.109375 
Q 14.796875 37.75 14.796875 27.984375 
Q 14.796875 18.265625 18.828125 12.890625 
Q 22.859375 7.515625 30.078125 7.515625 
Q 37.359375 7.515625 41.375 12.890625 
Q 45.40625 18.265625 45.40625 27.984375 
z
M 54.390625 6.78125 
Q 54.390625 -7.171875 48.1875 -13.984375 
Q 42 -20.796875 29.203125 -20.796875 
Q 24.46875 -20.796875 20.265625 -20.09375 
Q 16.0625 -19.390625 12.109375 -17.921875 
L 12.109375 -9.1875 
Q 16.0625 -11.328125 19.921875 -12.34375 
Q 23.78125 -13.375 27.78125 -13.375 
Q 36.625 -13.375 41.015625 -8.765625 
Q 45.40625 -4.15625 45.40625 5.171875 
L 45.40625 9.625 
Q 42.625 4.78125 38.28125 2.390625 
Q 33.9375 0 27.875 0 
Q 17.828125 0 11.671875 7.65625 
Q 5.515625 15.328125 5.515625 27.984375 
Q 5.515625 40.671875 11.671875 48.328125 
Q 17.828125 56 27.875 56 
Q 33.9375 56 38.28125 53.609375 
Q 42.625 51.21875 45.40625 46.390625 
L 45.40625 54.6875 
L 54.390625 54.6875 
z
" id="DejaVuSans-67"/>
      <path d="M 9.421875 54.6875 
L 18.40625 54.6875 
L 18.40625 0 
L 9.421875 0 
z
M 9.421875 75.984375 
L 18.40625 75.984375 
L 18.40625 64.59375 
L 9.421875 64.59375 
z
" id="DejaVuSans-69"/>
     </defs>
     <g transform="translate(323.673125 71.632031)scale(0.1 -0.1)">
      <use xlink:href="#DejaVuSans-53"/>
      <use x="63.476562" xlink:href="#DejaVuSans-47"/>
      <use x="140.966797" xlink:href="#DejaVuSans-4e"/>
      <use x="215.771484" xlink:href="#DejaVuSans-2c"/>
      <use x="247.558594" xlink:href="#DejaVuSans-20"/>
      <use x="279.345703" xlink:href="#DejaVuSans-63"/>
      <use x="334.326172" xlink:href="#DejaVuSans-67"/>
      <use x="397.802734" xlink:href="#DejaVuSans-20"/>
      <use x="429.589844" xlink:href="#DejaVuSans-69"/>
      <use x="457.373047" xlink:href="#DejaVuSans-74"/>
      <use x="496.582031" xlink:href="#DejaVuSans-65"/>
      <use x="558.105469" xlink:href="#DejaVuSans-72"/>
      <use x="599.21875" xlink:href="#DejaVuSans-20"/>
      <use x="631.005859" xlink:href="#DejaVuSans-32"/>
      <use x="694.628906" xlink:href="#DejaVuSans-30"/>
     </g>
    </g>
    <g id="line2d_73">
     <path d="M 295.673125 82.810156 
L 315.673125 82.810156 
" style="fill:none;stroke:#9467bd;stroke-dasharray:5.55,2.4;stroke-dashoffset:0;stroke-width:1.5;"/>
    </g>
    <g id="line2d_74"/>
    <g id="text_19">
     <!-- SGN, cg iter 10 -->
     <g transform="translate(323.673125 86.310156)scale(0.1 -0.1)">
      <use xlink:href="#DejaVuSans-53"/>
      <use x="63.476562" xlink:href="#DejaVuSans-47"/>
      <use x="140.966797" xlink:href="#DejaVuSans-4e"/>
      <use x="215.771484" xlink:href="#DejaVuSans-2c"/>
      <use x="247.558594" xlink:href="#DejaVuSans-20"/>
      <use x="279.345703" xlink:href="#DejaVuSans-63"/>
      <use x="334.326172" xlink:href="#DejaVuSans-67"/>
      <use x="397.802734" xlink:href="#DejaVuSans-20"/>
      <use x="429.589844" xlink:href="#DejaVuSans-69"/>
      <use x="457.373047" xlink:href="#DejaVuSans-74"/>
      <use x="496.582031" xlink:href="#DejaVuSans-65"/>
      <use x="558.105469" xlink:href="#DejaVuSans-72"/>
      <use x="599.21875" xlink:href="#DejaVuSans-20"/>
      <use x="631.005859" xlink:href="#DejaVuSans-31"/>
      <use x="694.628906" xlink:href="#DejaVuSans-30"/>
     </g>
    </g>
    <g id="line2d_75">
     <path d="M 295.673125 97.488281 
L 315.673125 97.488281 
" style="fill:none;stroke:#8c564b;stroke-dasharray:5.55,2.4;stroke-dashoffset:0;stroke-width:1.5;"/>
    </g>
    <g id="line2d_76"/>
    <g id="text_20">
     <!-- SGN, cg iter 5 -->
     <g transform="translate(323.673125 100.988281)scale(0.1 -0.1)">
      <use xlink:href="#DejaVuSans-53"/>
      <use x="63.476562" xlink:href="#DejaVuSans-47"/>
      <use x="140.966797" xlink:href="#DejaVuSans-4e"/>
      <use x="215.771484" xlink:href="#DejaVuSans-2c"/>
      <use x="247.558594" xlink:href="#DejaVuSans-20"/>
      <use x="279.345703" xlink:href="#DejaVuSans-63"/>
      <use x="334.326172" xlink:href="#DejaVuSans-67"/>
      <use x="397.802734" xlink:href="#DejaVuSans-20"/>
      <use x="429.589844" xlink:href="#DejaVuSans-69"/>
      <use x="457.373047" xlink:href="#DejaVuSans-74"/>
      <use x="496.582031" xlink:href="#DejaVuSans-65"/>
      <use x="558.105469" xlink:href="#DejaVuSans-72"/>
      <use x="599.21875" xlink:href="#DejaVuSans-20"/>
      <use x="631.005859" xlink:href="#DejaVuSans-35"/>
     </g>
    </g>
    <g id="line2d_77">
     <path d="M 295.673125 112.166406 
L 315.673125 112.166406 
" style="fill:none;stroke:#e377c2;stroke-dasharray:5.55,2.4;stroke-dashoffset:0;stroke-width:1.5;"/>
    </g>
    <g id="line2d_78"/>
    <g id="text_21">
     <!-- SGN, cg iter 3 -->
     <g transform="translate(323.673125 115.666406)scale(0.1 -0.1)">
      <use xlink:href="#DejaVuSans-53"/>
      <use x="63.476562" xlink:href="#DejaVuSans-47"/>
      <use x="140.966797" xlink:href="#DejaVuSans-4e"/>
      <use x="215.771484" xlink:href="#DejaVuSans-2c"/>
      <use x="247.558594" xlink:href="#DejaVuSans-20"/>
      <use x="279.345703" xlink:href="#DejaVuSans-63"/>
      <use x="334.326172" xlink:href="#DejaVuSans-67"/>
      <use x="397.802734" xlink:href="#DejaVuSans-20"/>
      <use x="429.589844" xlink:href="#DejaVuSans-69"/>
      <use x="457.373047" xlink:href="#DejaVuSans-74"/>
      <use x="496.582031" xlink:href="#DejaVuSans-65"/>
      <use x="558.105469" xlink:href="#DejaVuSans-72"/>
      <use x="599.21875" xlink:href="#DejaVuSans-20"/>
      <use x="631.005859" xlink:href="#DejaVuSans-33"/>
     </g>
    </g>
    <g id="line2d_79">
     <path d="M 295.673125 126.844531 
L 315.673125 126.844531 
" style="fill:none;stroke:#7f7f7f;stroke-dasharray:5.55,2.4;stroke-dashoffset:0;stroke-width:1.5;"/>
    </g>
    <g id="line2d_80"/>
    <g id="text_22">
     <!-- SGN, cg iter 2 -->
     <g transform="translate(323.673125 130.344531)scale(0.1 -0.1)">
      <use xlink:href="#DejaVuSans-53"/>
      <use x="63.476562" xlink:href="#DejaVuSans-47"/>
      <use x="140.966797" xlink:href="#DejaVuSans-4e"/>
      <use x="215.771484" xlink:href="#DejaVuSans-2c"/>
      <use x="247.558594" xlink:href="#DejaVuSans-20"/>
      <use x="279.345703" xlink:href="#DejaVuSans-63"/>
      <use x="334.326172" xlink:href="#DejaVuSans-67"/>
      <use x="397.802734" xlink:href="#DejaVuSans-20"/>
      <use x="429.589844" xlink:href="#DejaVuSans-69"/>
      <use x="457.373047" xlink:href="#DejaVuSans-74"/>
      <use x="496.582031" xlink:href="#DejaVuSans-65"/>
      <use x="558.105469" xlink:href="#DejaVuSans-72"/>
      <use x="599.21875" xlink:href="#DejaVuSans-20"/>
      <use x="631.005859" xlink:href="#DejaVuSans-32"/>
     </g>
    </g>
   </g>
  </g>
 </g>
 <defs>
  <clipPath id="pcebc54b52f">
   <rect height="266.112" width="357.12" x="51.378125" y="10.999219"/>
  </clipPath>
 </defs>
</svg>
