<?xml version="1.0" encoding="utf-8" standalone="no"?>
<!DOCTYPE svg PUBLIC "-//W3C//DTD SVG 1.1//EN"
  "http://www.w3.org/Graphics/SVG/1.1/DTD/svg11.dtd">
<!-- Created with matplotlib (http://matplotlib.org/) -->
<svg height="345pt" version="1.1" viewBox="0 0 460 345" width="460pt" xmlns="http://www.w3.org/2000/svg" xmlns:xlink="http://www.w3.org/1999/xlink">
 <defs>
  <style type="text/css">
*{stroke-linecap:butt;stroke-linejoin:round;}
  </style>
 </defs>
 <g id="figure_1">
  <g id="patch_1">
   <path d="M 0 345.6 
L 460.8 345.6 
L 460.8 0 
L 0 0 
z
" style="fill:none;opacity:0;"/>
  </g>
  <g id="axes_1">
   <g id="patch_2">
    <path d="M 57.6 307.584 
L 414.72 307.584 
L 414.72 41.472 
L 57.6 41.472 
z
" style="fill:#ffffff;"/>
   </g>
   <g id="matplotlib.axis_1">
    <g id="xtick_1">
     <g id="line2d_1">
      <path clip-path="url(#pc467274603)" d="M 73.256166 307.584 
L 73.256166 41.472 
" style="fill:none;stroke:#b0b0b0;stroke-linecap:square;stroke-width:0.8;"/>
     </g>
     <g id="line2d_2">
      <defs>
       <path d="M 0 0 
L 0 3.5 
" id="m2b4e618364" style="stroke:#000000;stroke-width:0.8;"/>
      </defs>
      <g>
       <use style="stroke:#000000;stroke-width:0.8;" x="73.256166" xlink:href="#m2b4e618364" y="307.584"/>
      </g>
     </g>
     <g id="text_1">
      <!-- 0 -->
      <defs>
       <path d="M 31.78125 66.40625 
Q 24.171875 66.40625 20.328125 58.90625 
Q 16.5 51.421875 16.5 36.375 
Q 16.5 21.390625 20.328125 13.890625 
Q 24.171875 6.390625 31.78125 6.390625 
Q 39.453125 6.390625 43.28125 13.890625 
Q 47.125 21.390625 47.125 36.375 
Q 47.125 51.421875 43.28125 58.90625 
Q 39.453125 66.40625 31.78125 66.40625 
z
M 31.78125 74.21875 
Q 44.046875 74.21875 50.515625 64.515625 
Q 56.984375 54.828125 56.984375 36.375 
Q 56.984375 17.96875 50.515625 8.265625 
Q 44.046875 -1.421875 31.78125 -1.421875 
Q 19.53125 -1.421875 13.0625 8.265625 
Q 6.59375 17.96875 6.59375 36.375 
Q 6.59375 54.828125 13.0625 64.515625 
Q 19.53125 74.21875 31.78125 74.21875 
z
" id="DejaVuSans-30"/>
      </defs>
      <g transform="translate(70.074916 322.182437)scale(0.1 -0.1)">
       <use xlink:href="#DejaVuSans-30"/>
      </g>
     </g>
    </g>
    <g id="xtick_2">
     <g id="line2d_3">
      <path clip-path="url(#pc467274603)" d="M 136.003947 307.584 
L 136.003947 41.472 
" style="fill:none;stroke:#b0b0b0;stroke-linecap:square;stroke-width:0.8;"/>
     </g>
     <g id="line2d_4">
      <g>
       <use style="stroke:#000000;stroke-width:0.8;" x="136.003947" xlink:href="#m2b4e618364" y="307.584"/>
      </g>
     </g>
     <g id="text_2">
      <!-- 2 -->
      <defs>
       <path d="M 19.1875 8.296875 
L 53.609375 8.296875 
L 53.609375 0 
L 7.328125 0 
L 7.328125 8.296875 
Q 12.9375 14.109375 22.625 23.890625 
Q 32.328125 33.6875 34.8125 36.53125 
Q 39.546875 41.84375 41.421875 45.53125 
Q 43.3125 49.21875 43.3125 52.78125 
Q 43.3125 58.59375 39.234375 62.25 
Q 35.15625 65.921875 28.609375 65.921875 
Q 23.96875 65.921875 18.8125 64.3125 
Q 13.671875 62.703125 7.8125 59.421875 
L 7.8125 69.390625 
Q 13.765625 71.78125 18.9375 73 
Q 24.125 74.21875 28.421875 74.21875 
Q 39.75 74.21875 46.484375 68.546875 
Q 53.21875 62.890625 53.21875 53.421875 
Q 53.21875 48.921875 51.53125 44.890625 
Q 49.859375 40.875 45.40625 35.40625 
Q 44.1875 33.984375 37.640625 27.21875 
Q 31.109375 20.453125 19.1875 8.296875 
z
" id="DejaVuSans-32"/>
      </defs>
      <g transform="translate(132.822697 322.182437)scale(0.1 -0.1)">
       <use xlink:href="#DejaVuSans-32"/>
      </g>
     </g>
    </g>
    <g id="xtick_3">
     <g id="line2d_5">
      <path clip-path="url(#pc467274603)" d="M 198.751729 307.584 
L 198.751729 41.472 
" style="fill:none;stroke:#b0b0b0;stroke-linecap:square;stroke-width:0.8;"/>
     </g>
     <g id="line2d_6">
      <g>
       <use style="stroke:#000000;stroke-width:0.8;" x="198.751729" xlink:href="#m2b4e618364" y="307.584"/>
      </g>
     </g>
     <g id="text_3">
      <!-- 4 -->
      <defs>
       <path d="M 37.796875 64.3125 
L 12.890625 25.390625 
L 37.796875 25.390625 
z
M 35.203125 72.90625 
L 47.609375 72.90625 
L 47.609375 25.390625 
L 58.015625 25.390625 
L 58.015625 17.1875 
L 47.609375 17.1875 
L 47.609375 0 
L 37.796875 0 
L 37.796875 17.1875 
L 4.890625 17.1875 
L 4.890625 26.703125 
z
" id="DejaVuSans-34"/>
      </defs>
      <g transform="translate(195.570479 322.182437)scale(0.1 -0.1)">
       <use xlink:href="#DejaVuSans-34"/>
      </g>
     </g>
    </g>
    <g id="xtick_4">
     <g id="line2d_7">
      <path clip-path="url(#pc467274603)" d="M 261.49951 307.584 
L 261.49951 41.472 
" style="fill:none;stroke:#b0b0b0;stroke-linecap:square;stroke-width:0.8;"/>
     </g>
     <g id="line2d_8">
      <g>
       <use style="stroke:#000000;stroke-width:0.8;" x="261.49951" xlink:href="#m2b4e618364" y="307.584"/>
      </g>
     </g>
     <g id="text_4">
      <!-- 6 -->
      <defs>
       <path d="M 33.015625 40.375 
Q 26.375 40.375 22.484375 35.828125 
Q 18.609375 31.296875 18.609375 23.390625 
Q 18.609375 15.53125 22.484375 10.953125 
Q 26.375 6.390625 33.015625 6.390625 
Q 39.65625 6.390625 43.53125 10.953125 
Q 47.40625 15.53125 47.40625 23.390625 
Q 47.40625 31.296875 43.53125 35.828125 
Q 39.65625 40.375 33.015625 40.375 
z
M 52.59375 71.296875 
L 52.59375 62.3125 
Q 48.875 64.0625 45.09375 64.984375 
Q 41.3125 65.921875 37.59375 65.921875 
Q 27.828125 65.921875 22.671875 59.328125 
Q 17.53125 52.734375 16.796875 39.40625 
Q 19.671875 43.65625 24.015625 45.921875 
Q 28.375 48.1875 33.59375 48.1875 
Q 44.578125 48.1875 50.953125 41.515625 
Q 57.328125 34.859375 57.328125 23.390625 
Q 57.328125 12.15625 50.6875 5.359375 
Q 44.046875 -1.421875 33.015625 -1.421875 
Q 20.359375 -1.421875 13.671875 8.265625 
Q 6.984375 17.96875 6.984375 36.375 
Q 6.984375 53.65625 15.1875 63.9375 
Q 23.390625 74.21875 37.203125 74.21875 
Q 40.921875 74.21875 44.703125 73.484375 
Q 48.484375 72.75 52.59375 71.296875 
z
" id="DejaVuSans-36"/>
      </defs>
      <g transform="translate(258.31826 322.182437)scale(0.1 -0.1)">
       <use xlink:href="#DejaVuSans-36"/>
      </g>
     </g>
    </g>
    <g id="xtick_5">
     <g id="line2d_9">
      <path clip-path="url(#pc467274603)" d="M 324.247292 307.584 
L 324.247292 41.472 
" style="fill:none;stroke:#b0b0b0;stroke-linecap:square;stroke-width:0.8;"/>
     </g>
     <g id="line2d_10">
      <g>
       <use style="stroke:#000000;stroke-width:0.8;" x="324.247292" xlink:href="#m2b4e618364" y="307.584"/>
      </g>
     </g>
     <g id="text_5">
      <!-- 8 -->
      <defs>
       <path d="M 31.78125 34.625 
Q 24.75 34.625 20.71875 30.859375 
Q 16.703125 27.09375 16.703125 20.515625 
Q 16.703125 13.921875 20.71875 10.15625 
Q 24.75 6.390625 31.78125 6.390625 
Q 38.8125 6.390625 42.859375 10.171875 
Q 46.921875 13.96875 46.921875 20.515625 
Q 46.921875 27.09375 42.890625 30.859375 
Q 38.875 34.625 31.78125 34.625 
z
M 21.921875 38.8125 
Q 15.578125 40.375 12.03125 44.71875 
Q 8.5 49.078125 8.5 55.328125 
Q 8.5 64.0625 14.71875 69.140625 
Q 20.953125 74.21875 31.78125 74.21875 
Q 42.671875 74.21875 48.875 69.140625 
Q 55.078125 64.0625 55.078125 55.328125 
Q 55.078125 49.078125 51.53125 44.71875 
Q 48 40.375 41.703125 38.8125 
Q 48.828125 37.15625 52.796875 32.3125 
Q 56.78125 27.484375 56.78125 20.515625 
Q 56.78125 9.90625 50.3125 4.234375 
Q 43.84375 -1.421875 31.78125 -1.421875 
Q 19.734375 -1.421875 13.25 4.234375 
Q 6.78125 9.90625 6.78125 20.515625 
Q 6.78125 27.484375 10.78125 32.3125 
Q 14.796875 37.15625 21.921875 38.8125 
z
M 18.3125 54.390625 
Q 18.3125 48.734375 21.84375 45.5625 
Q 25.390625 42.390625 31.78125 42.390625 
Q 38.140625 42.390625 41.71875 45.5625 
Q 45.3125 48.734375 45.3125 54.390625 
Q 45.3125 60.0625 41.71875 63.234375 
Q 38.140625 66.40625 31.78125 66.40625 
Q 25.390625 66.40625 21.84375 63.234375 
Q 18.3125 60.0625 18.3125 54.390625 
z
" id="DejaVuSans-38"/>
      </defs>
      <g transform="translate(321.066042 322.182437)scale(0.1 -0.1)">
       <use xlink:href="#DejaVuSans-38"/>
      </g>
     </g>
    </g>
    <g id="xtick_6">
     <g id="line2d_11">
      <path clip-path="url(#pc467274603)" d="M 386.995073 307.584 
L 386.995073 41.472 
" style="fill:none;stroke:#b0b0b0;stroke-linecap:square;stroke-width:0.8;"/>
     </g>
     <g id="line2d_12">
      <g>
       <use style="stroke:#000000;stroke-width:0.8;" x="386.995073" xlink:href="#m2b4e618364" y="307.584"/>
      </g>
     </g>
     <g id="text_6">
      <!-- 10 -->
      <defs>
       <path d="M 12.40625 8.296875 
L 28.515625 8.296875 
L 28.515625 63.921875 
L 10.984375 60.40625 
L 10.984375 69.390625 
L 28.421875 72.90625 
L 38.28125 72.90625 
L 38.28125 8.296875 
L 54.390625 8.296875 
L 54.390625 0 
L 12.40625 0 
z
" id="DejaVuSans-31"/>
      </defs>
      <g transform="translate(380.632573 322.182437)scale(0.1 -0.1)">
       <use xlink:href="#DejaVuSans-31"/>
       <use x="63.623047" xlink:href="#DejaVuSans-30"/>
      </g>
     </g>
    </g>
    <g id="text_7">
     <!-- sec -->
     <defs>
      <path d="M 44.28125 53.078125 
L 44.28125 44.578125 
Q 40.484375 46.53125 36.375 47.5 
Q 32.28125 48.484375 27.875 48.484375 
Q 21.1875 48.484375 17.84375 46.4375 
Q 14.5 44.390625 14.5 40.28125 
Q 14.5 37.15625 16.890625 35.375 
Q 19.28125 33.59375 26.515625 31.984375 
L 29.59375 31.296875 
Q 39.15625 29.25 43.1875 25.515625 
Q 47.21875 21.78125 47.21875 15.09375 
Q 47.21875 7.46875 41.1875 3.015625 
Q 35.15625 -1.421875 24.609375 -1.421875 
Q 20.21875 -1.421875 15.453125 -0.5625 
Q 10.6875 0.296875 5.421875 2 
L 5.421875 11.28125 
Q 10.40625 8.6875 15.234375 7.390625 
Q 20.0625 6.109375 24.8125 6.109375 
Q 31.15625 6.109375 34.5625 8.28125 
Q 37.984375 10.453125 37.984375 14.40625 
Q 37.984375 18.0625 35.515625 20.015625 
Q 33.0625 21.96875 24.703125 23.78125 
L 21.578125 24.515625 
Q 13.234375 26.265625 9.515625 29.90625 
Q 5.8125 33.546875 5.8125 39.890625 
Q 5.8125 47.609375 11.28125 51.796875 
Q 16.75 56 26.8125 56 
Q 31.78125 56 36.171875 55.265625 
Q 40.578125 54.546875 44.28125 53.078125 
z
" id="DejaVuSans-73"/>
      <path d="M 56.203125 29.59375 
L 56.203125 25.203125 
L 14.890625 25.203125 
Q 15.484375 15.921875 20.484375 11.0625 
Q 25.484375 6.203125 34.421875 6.203125 
Q 39.59375 6.203125 44.453125 7.46875 
Q 49.3125 8.734375 54.109375 11.28125 
L 54.109375 2.78125 
Q 49.265625 0.734375 44.1875 -0.34375 
Q 39.109375 -1.421875 33.890625 -1.421875 
Q 20.796875 -1.421875 13.15625 6.1875 
Q 5.515625 13.8125 5.515625 26.8125 
Q 5.515625 40.234375 12.765625 48.109375 
Q 20.015625 56 32.328125 56 
Q 43.359375 56 49.78125 48.890625 
Q 56.203125 41.796875 56.203125 29.59375 
z
M 47.21875 32.234375 
Q 47.125 39.59375 43.09375 43.984375 
Q 39.0625 48.390625 32.421875 48.390625 
Q 24.90625 48.390625 20.390625 44.140625 
Q 15.875 39.890625 15.1875 32.171875 
z
" id="DejaVuSans-65"/>
      <path d="M 48.78125 52.59375 
L 48.78125 44.1875 
Q 44.96875 46.296875 41.140625 47.34375 
Q 37.3125 48.390625 33.40625 48.390625 
Q 24.65625 48.390625 19.8125 42.84375 
Q 14.984375 37.3125 14.984375 27.296875 
Q 14.984375 17.28125 19.8125 11.734375 
Q 24.65625 6.203125 33.40625 6.203125 
Q 37.3125 6.203125 41.140625 7.25 
Q 44.96875 8.296875 48.78125 10.40625 
L 48.78125 2.09375 
Q 45.015625 0.34375 40.984375 -0.53125 
Q 36.96875 -1.421875 32.421875 -1.421875 
Q 20.0625 -1.421875 12.78125 6.34375 
Q 5.515625 14.109375 5.515625 27.296875 
Q 5.515625 40.671875 12.859375 48.328125 
Q 20.21875 56 33.015625 56 
Q 37.15625 56 41.109375 55.140625 
Q 45.0625 54.296875 48.78125 52.59375 
z
" id="DejaVuSans-63"/>
     </defs>
     <g transform="translate(227.729531 335.860562)scale(0.1 -0.1)">
      <use xlink:href="#DejaVuSans-73"/>
      <use x="52.099609" xlink:href="#DejaVuSans-65"/>
      <use x="113.623047" xlink:href="#DejaVuSans-63"/>
     </g>
    </g>
   </g>
   <g id="matplotlib.axis_2">
    <g id="ytick_1">
     <g id="line2d_13">
      <path clip-path="url(#pc467274603)" d="M 57.6 294.518215 
L 414.72 294.518215 
" style="fill:none;stroke:#b0b0b0;stroke-linecap:square;stroke-width:0.8;"/>
     </g>
     <g id="line2d_14">
      <defs>
       <path d="M 0 0 
L -3.5 0 
" id="md2564dd41b" style="stroke:#000000;stroke-width:0.8;"/>
      </defs>
      <g>
       <use style="stroke:#000000;stroke-width:0.8;" x="57.6" xlink:href="#md2564dd41b" y="294.518215"/>
      </g>
     </g>
     <g id="text_8">
      <!-- $\mathdefault{10^{-2}}$ -->
      <defs>
       <path d="M 10.59375 35.5 
L 73.1875 35.5 
L 73.1875 27.203125 
L 10.59375 27.203125 
z
" id="DejaVuSans-2212"/>
      </defs>
      <g transform="translate(27.1 298.317434)scale(0.1 -0.1)">
       <use transform="translate(0 0.765625)" xlink:href="#DejaVuSans-31"/>
       <use transform="translate(63.623047 0.765625)" xlink:href="#DejaVuSans-30"/>
       <use transform="translate(128.203125 39.046875)scale(0.7)" xlink:href="#DejaVuSans-2212"/>
       <use transform="translate(186.855469 39.046875)scale(0.7)" xlink:href="#DejaVuSans-32"/>
      </g>
     </g>
    </g>
    <g id="ytick_2">
     <g id="line2d_15">
      <path clip-path="url(#pc467274603)" d="M 57.6 210.169477 
L 414.72 210.169477 
" style="fill:none;stroke:#b0b0b0;stroke-linecap:square;stroke-width:0.8;"/>
     </g>
     <g id="line2d_16">
      <g>
       <use style="stroke:#000000;stroke-width:0.8;" x="57.6" xlink:href="#md2564dd41b" y="210.169477"/>
      </g>
     </g>
     <g id="text_9">
      <!-- $\mathdefault{10^{-1}}$ -->
      <g transform="translate(27.1 213.968695)scale(0.1 -0.1)">
       <use transform="translate(0 0.684375)" xlink:href="#DejaVuSans-31"/>
       <use transform="translate(63.623047 0.684375)" xlink:href="#DejaVuSans-30"/>
       <use transform="translate(128.203125 38.965625)scale(0.7)" xlink:href="#DejaVuSans-2212"/>
       <use transform="translate(186.855469 38.965625)scale(0.7)" xlink:href="#DejaVuSans-31"/>
      </g>
     </g>
    </g>
    <g id="ytick_3">
     <g id="line2d_17">
      <path clip-path="url(#pc467274603)" d="M 57.6 125.820738 
L 414.72 125.820738 
" style="fill:none;stroke:#b0b0b0;stroke-linecap:square;stroke-width:0.8;"/>
     </g>
     <g id="line2d_18">
      <g>
       <use style="stroke:#000000;stroke-width:0.8;" x="57.6" xlink:href="#md2564dd41b" y="125.820738"/>
      </g>
     </g>
     <g id="text_10">
      <!-- $\mathdefault{10^{0}}$ -->
      <g transform="translate(33 129.619957)scale(0.1 -0.1)">
       <use transform="translate(0 0.765625)" xlink:href="#DejaVuSans-31"/>
       <use transform="translate(63.623047 0.765625)" xlink:href="#DejaVuSans-30"/>
       <use transform="translate(128.203125 39.046875)scale(0.7)" xlink:href="#DejaVuSans-30"/>
      </g>
     </g>
    </g>
    <g id="ytick_4">
     <g id="line2d_19">
      <path clip-path="url(#pc467274603)" d="M 57.6 41.472 
L 414.72 41.472 
" style="fill:none;stroke:#b0b0b0;stroke-linecap:square;stroke-width:0.8;"/>
     </g>
     <g id="line2d_20">
      <g>
       <use style="stroke:#000000;stroke-width:0.8;" x="57.6" xlink:href="#md2564dd41b" y="41.472"/>
      </g>
     </g>
     <g id="text_11">
      <!-- $\mathdefault{10^{1}}$ -->
      <g transform="translate(33 45.271219)scale(0.1 -0.1)">
       <use transform="translate(0 0.684375)" xlink:href="#DejaVuSans-31"/>
       <use transform="translate(63.623047 0.684375)" xlink:href="#DejaVuSans-30"/>
       <use transform="translate(128.203125 38.965625)scale(0.7)" xlink:href="#DejaVuSans-31"/>
      </g>
     </g>
    </g>
    <g id="ytick_5">
     <g id="line2d_21">
      <path clip-path="url(#pc467274603)" d="M 57.6 307.584 
L 414.72 307.584 
" style="fill:none;stroke:#b0b0b0;stroke-linecap:square;stroke-width:0.8;"/>
     </g>
     <g id="line2d_22">
      <defs>
       <path d="M 0 0 
L -2 0 
" id="mf80132ecd2" style="stroke:#000000;stroke-width:0.6;"/>
      </defs>
      <g>
       <use style="stroke:#000000;stroke-width:0.6;" x="57.6" xlink:href="#mf80132ecd2" y="307.584"/>
      </g>
     </g>
    </g>
    <g id="ytick_6">
     <g id="line2d_23">
      <path clip-path="url(#pc467274603)" d="M 57.6 302.692452 
L 414.72 302.692452 
" style="fill:none;stroke:#b0b0b0;stroke-linecap:square;stroke-width:0.8;"/>
     </g>
     <g id="line2d_24">
      <g>
       <use style="stroke:#000000;stroke-width:0.6;" x="57.6" xlink:href="#mf80132ecd2" y="302.692452"/>
      </g>
     </g>
    </g>
    <g id="ytick_7">
     <g id="line2d_25">
      <path clip-path="url(#pc467274603)" d="M 57.6 298.377802 
L 414.72 298.377802 
" style="fill:none;stroke:#b0b0b0;stroke-linecap:square;stroke-width:0.8;"/>
     </g>
     <g id="line2d_26">
      <g>
       <use style="stroke:#000000;stroke-width:0.6;" x="57.6" xlink:href="#mf80132ecd2" y="298.377802"/>
      </g>
     </g>
    </g>
    <g id="ytick_8">
     <g id="line2d_27">
      <path clip-path="url(#pc467274603)" d="M 57.6 269.126715 
L 414.72 269.126715 
" style="fill:none;stroke:#b0b0b0;stroke-linecap:square;stroke-width:0.8;"/>
     </g>
     <g id="line2d_28">
      <g>
       <use style="stroke:#000000;stroke-width:0.6;" x="57.6" xlink:href="#mf80132ecd2" y="269.126715"/>
      </g>
     </g>
    </g>
    <g id="ytick_9">
     <g id="line2d_29">
      <path clip-path="url(#pc467274603)" d="M 57.6 254.273639 
L 414.72 254.273639 
" style="fill:none;stroke:#b0b0b0;stroke-linecap:square;stroke-width:0.8;"/>
     </g>
     <g id="line2d_30">
      <g>
       <use style="stroke:#000000;stroke-width:0.6;" x="57.6" xlink:href="#mf80132ecd2" y="254.273639"/>
      </g>
     </g>
    </g>
    <g id="ytick_10">
     <g id="line2d_31">
      <path clip-path="url(#pc467274603)" d="M 57.6 243.735214 
L 414.72 243.735214 
" style="fill:none;stroke:#b0b0b0;stroke-linecap:square;stroke-width:0.8;"/>
     </g>
     <g id="line2d_32">
      <g>
       <use style="stroke:#000000;stroke-width:0.6;" x="57.6" xlink:href="#mf80132ecd2" y="243.735214"/>
      </g>
     </g>
    </g>
    <g id="ytick_11">
     <g id="line2d_33">
      <path clip-path="url(#pc467274603)" d="M 57.6 235.560977 
L 414.72 235.560977 
" style="fill:none;stroke:#b0b0b0;stroke-linecap:square;stroke-width:0.8;"/>
     </g>
     <g id="line2d_34">
      <g>
       <use style="stroke:#000000;stroke-width:0.6;" x="57.6" xlink:href="#mf80132ecd2" y="235.560977"/>
      </g>
     </g>
    </g>
    <g id="ytick_12">
     <g id="line2d_35">
      <path clip-path="url(#pc467274603)" d="M 57.6 228.882139 
L 414.72 228.882139 
" style="fill:none;stroke:#b0b0b0;stroke-linecap:square;stroke-width:0.8;"/>
     </g>
     <g id="line2d_36">
      <g>
       <use style="stroke:#000000;stroke-width:0.6;" x="57.6" xlink:href="#mf80132ecd2" y="228.882139"/>
      </g>
     </g>
    </g>
    <g id="ytick_13">
     <g id="line2d_37">
      <path clip-path="url(#pc467274603)" d="M 57.6 223.235262 
L 414.72 223.235262 
" style="fill:none;stroke:#b0b0b0;stroke-linecap:square;stroke-width:0.8;"/>
     </g>
     <g id="line2d_38">
      <g>
       <use style="stroke:#000000;stroke-width:0.6;" x="57.6" xlink:href="#mf80132ecd2" y="223.235262"/>
      </g>
     </g>
    </g>
    <g id="ytick_14">
     <g id="line2d_39">
      <path clip-path="url(#pc467274603)" d="M 57.6 218.343714 
L 414.72 218.343714 
" style="fill:none;stroke:#b0b0b0;stroke-linecap:square;stroke-width:0.8;"/>
     </g>
     <g id="line2d_40">
      <g>
       <use style="stroke:#000000;stroke-width:0.6;" x="57.6" xlink:href="#mf80132ecd2" y="218.343714"/>
      </g>
     </g>
    </g>
    <g id="ytick_15">
     <g id="line2d_41">
      <path clip-path="url(#pc467274603)" d="M 57.6 214.029063 
L 414.72 214.029063 
" style="fill:none;stroke:#b0b0b0;stroke-linecap:square;stroke-width:0.8;"/>
     </g>
     <g id="line2d_42">
      <g>
       <use style="stroke:#000000;stroke-width:0.6;" x="57.6" xlink:href="#mf80132ecd2" y="214.029063"/>
      </g>
     </g>
    </g>
    <g id="ytick_16">
     <g id="line2d_43">
      <path clip-path="url(#pc467274603)" d="M 57.6 184.777976 
L 414.72 184.777976 
" style="fill:none;stroke:#b0b0b0;stroke-linecap:square;stroke-width:0.8;"/>
     </g>
     <g id="line2d_44">
      <g>
       <use style="stroke:#000000;stroke-width:0.6;" x="57.6" xlink:href="#mf80132ecd2" y="184.777976"/>
      </g>
     </g>
    </g>
    <g id="ytick_17">
     <g id="line2d_45">
      <path clip-path="url(#pc467274603)" d="M 57.6 169.924901 
L 414.72 169.924901 
" style="fill:none;stroke:#b0b0b0;stroke-linecap:square;stroke-width:0.8;"/>
     </g>
     <g id="line2d_46">
      <g>
       <use style="stroke:#000000;stroke-width:0.6;" x="57.6" xlink:href="#mf80132ecd2" y="169.924901"/>
      </g>
     </g>
    </g>
    <g id="ytick_18">
     <g id="line2d_47">
      <path clip-path="url(#pc467274603)" d="M 57.6 159.386476 
L 414.72 159.386476 
" style="fill:none;stroke:#b0b0b0;stroke-linecap:square;stroke-width:0.8;"/>
     </g>
     <g id="line2d_48">
      <g>
       <use style="stroke:#000000;stroke-width:0.6;" x="57.6" xlink:href="#mf80132ecd2" y="159.386476"/>
      </g>
     </g>
    </g>
    <g id="ytick_19">
     <g id="line2d_49">
      <path clip-path="url(#pc467274603)" d="M 57.6 151.212239 
L 414.72 151.212239 
" style="fill:none;stroke:#b0b0b0;stroke-linecap:square;stroke-width:0.8;"/>
     </g>
     <g id="line2d_50">
      <g>
       <use style="stroke:#000000;stroke-width:0.6;" x="57.6" xlink:href="#mf80132ecd2" y="151.212239"/>
      </g>
     </g>
    </g>
    <g id="ytick_20">
     <g id="line2d_51">
      <path clip-path="url(#pc467274603)" d="M 57.6 144.533401 
L 414.72 144.533401 
" style="fill:none;stroke:#b0b0b0;stroke-linecap:square;stroke-width:0.8;"/>
     </g>
     <g id="line2d_52">
      <g>
       <use style="stroke:#000000;stroke-width:0.6;" x="57.6" xlink:href="#mf80132ecd2" y="144.533401"/>
      </g>
     </g>
    </g>
    <g id="ytick_21">
     <g id="line2d_53">
      <path clip-path="url(#pc467274603)" d="M 57.6 138.886523 
L 414.72 138.886523 
" style="fill:none;stroke:#b0b0b0;stroke-linecap:square;stroke-width:0.8;"/>
     </g>
     <g id="line2d_54">
      <g>
       <use style="stroke:#000000;stroke-width:0.6;" x="57.6" xlink:href="#mf80132ecd2" y="138.886523"/>
      </g>
     </g>
    </g>
    <g id="ytick_22">
     <g id="line2d_55">
      <path clip-path="url(#pc467274603)" d="M 57.6 133.994976 
L 414.72 133.994976 
" style="fill:none;stroke:#b0b0b0;stroke-linecap:square;stroke-width:0.8;"/>
     </g>
     <g id="line2d_56">
      <g>
       <use style="stroke:#000000;stroke-width:0.6;" x="57.6" xlink:href="#mf80132ecd2" y="133.994976"/>
      </g>
     </g>
    </g>
    <g id="ytick_23">
     <g id="line2d_57">
      <path clip-path="url(#pc467274603)" d="M 57.6 129.680325 
L 414.72 129.680325 
" style="fill:none;stroke:#b0b0b0;stroke-linecap:square;stroke-width:0.8;"/>
     </g>
     <g id="line2d_58">
      <g>
       <use style="stroke:#000000;stroke-width:0.6;" x="57.6" xlink:href="#mf80132ecd2" y="129.680325"/>
      </g>
     </g>
    </g>
    <g id="ytick_24">
     <g id="line2d_59">
      <path clip-path="url(#pc467274603)" d="M 57.6 100.429238 
L 414.72 100.429238 
" style="fill:none;stroke:#b0b0b0;stroke-linecap:square;stroke-width:0.8;"/>
     </g>
     <g id="line2d_60">
      <g>
       <use style="stroke:#000000;stroke-width:0.6;" x="57.6" xlink:href="#mf80132ecd2" y="100.429238"/>
      </g>
     </g>
    </g>
    <g id="ytick_25">
     <g id="line2d_61">
      <path clip-path="url(#pc467274603)" d="M 57.6 85.576162 
L 414.72 85.576162 
" style="fill:none;stroke:#b0b0b0;stroke-linecap:square;stroke-width:0.8;"/>
     </g>
     <g id="line2d_62">
      <g>
       <use style="stroke:#000000;stroke-width:0.6;" x="57.6" xlink:href="#mf80132ecd2" y="85.576162"/>
      </g>
     </g>
    </g>
    <g id="ytick_26">
     <g id="line2d_63">
      <path clip-path="url(#pc467274603)" d="M 57.6 75.037738 
L 414.72 75.037738 
" style="fill:none;stroke:#b0b0b0;stroke-linecap:square;stroke-width:0.8;"/>
     </g>
     <g id="line2d_64">
      <g>
       <use style="stroke:#000000;stroke-width:0.6;" x="57.6" xlink:href="#mf80132ecd2" y="75.037738"/>
      </g>
     </g>
    </g>
    <g id="ytick_27">
     <g id="line2d_65">
      <path clip-path="url(#pc467274603)" d="M 57.6 66.8635 
L 414.72 66.8635 
" style="fill:none;stroke:#b0b0b0;stroke-linecap:square;stroke-width:0.8;"/>
     </g>
     <g id="line2d_66">
      <g>
       <use style="stroke:#000000;stroke-width:0.6;" x="57.6" xlink:href="#mf80132ecd2" y="66.8635"/>
      </g>
     </g>
    </g>
    <g id="ytick_28">
     <g id="line2d_67">
      <path clip-path="url(#pc467274603)" d="M 57.6 60.184662 
L 414.72 60.184662 
" style="fill:none;stroke:#b0b0b0;stroke-linecap:square;stroke-width:0.8;"/>
     </g>
     <g id="line2d_68">
      <g>
       <use style="stroke:#000000;stroke-width:0.6;" x="57.6" xlink:href="#mf80132ecd2" y="60.184662"/>
      </g>
     </g>
    </g>
    <g id="ytick_29">
     <g id="line2d_69">
      <path clip-path="url(#pc467274603)" d="M 57.6 54.537785 
L 414.72 54.537785 
" style="fill:none;stroke:#b0b0b0;stroke-linecap:square;stroke-width:0.8;"/>
     </g>
     <g id="line2d_70">
      <g>
       <use style="stroke:#000000;stroke-width:0.6;" x="57.6" xlink:href="#mf80132ecd2" y="54.537785"/>
      </g>
     </g>
    </g>
    <g id="ytick_30">
     <g id="line2d_71">
      <path clip-path="url(#pc467274603)" d="M 57.6 49.646237 
L 414.72 49.646237 
" style="fill:none;stroke:#b0b0b0;stroke-linecap:square;stroke-width:0.8;"/>
     </g>
     <g id="line2d_72">
      <g>
       <use style="stroke:#000000;stroke-width:0.6;" x="57.6" xlink:href="#mf80132ecd2" y="49.646237"/>
      </g>
     </g>
    </g>
    <g id="ytick_31">
     <g id="line2d_73">
      <path clip-path="url(#pc467274603)" d="M 57.6 45.331587 
L 414.72 45.331587 
" style="fill:none;stroke:#b0b0b0;stroke-linecap:square;stroke-width:0.8;"/>
     </g>
     <g id="line2d_74">
      <g>
       <use style="stroke:#000000;stroke-width:0.6;" x="57.6" xlink:href="#mf80132ecd2" y="45.331587"/>
      </g>
     </g>
    </g>
    <g id="text_12">
     <!-- loss -->
     <defs>
      <path d="M 9.421875 75.984375 
L 18.40625 75.984375 
L 18.40625 0 
L 9.421875 0 
z
" id="DejaVuSans-6c"/>
      <path d="M 30.609375 48.390625 
Q 23.390625 48.390625 19.1875 42.75 
Q 14.984375 37.109375 14.984375 27.296875 
Q 14.984375 17.484375 19.15625 11.84375 
Q 23.34375 6.203125 30.609375 6.203125 
Q 37.796875 6.203125 41.984375 11.859375 
Q 46.1875 17.53125 46.1875 27.296875 
Q 46.1875 37.015625 41.984375 42.703125 
Q 37.796875 48.390625 30.609375 48.390625 
z
M 30.609375 56 
Q 42.328125 56 49.015625 48.375 
Q 55.71875 40.765625 55.71875 27.296875 
Q 55.71875 13.875 49.015625 6.21875 
Q 42.328125 -1.421875 30.609375 -1.421875 
Q 18.84375 -1.421875 12.171875 6.21875 
Q 5.515625 13.875 5.515625 27.296875 
Q 5.515625 40.765625 12.171875 48.375 
Q 18.84375 56 30.609375 56 
z
" id="DejaVuSans-6f"/>
     </defs>
     <g transform="translate(21.020313 184.185812)rotate(-90)scale(0.1 -0.1)">
      <use xlink:href="#DejaVuSans-6c"/>
      <use x="27.783203" xlink:href="#DejaVuSans-6f"/>
      <use x="88.964844" xlink:href="#DejaVuSans-73"/>
      <use x="141.064453" xlink:href="#DejaVuSans-73"/>
     </g>
    </g>
   </g>
   <g id="line2d_75">
    <path clip-path="url(#pc467274603)" d="M 78.601034 -1 
L 80.174907 173.717645 
L 80.751468 217.360371 
L 81.32803 235.406193 
L 81.904592 244.955961 
L 82.481154 247.585136 
L 83.057715 247.644291 
L 83.634277 247.150576 
L 84.210839 248.730209 
L 84.787401 248.918019 
L 85.363962 246.759274 
L 85.940524 246.526368 
L 86.517086 247.958691 
L 87.093648 248.478306 
L 87.670209 248.019213 
L 88.246771 245.695197 
L 88.823333 245.491114 
L 89.399895 248.083207 
L 89.976456 249.052941 
L 90.553018 245.202599 
L 91.706142 248.490623 
L 92.282704 247.723946 
L 92.859265 246.367942 
L 93.435827 245.47024 
L 94.012389 249.173939 
L 94.588951 247.670801 
L 95.165512 248.746543 
L 95.742074 249.2886 
L 96.318636 247.720158 
L 96.895198 247.637355 
L 97.471759 248.566882 
L 98.048321 248.453401 
L 98.624883 247.775946 
L 99.201445 247.745237 
L 99.778006 247.475649 
L 100.354568 247.608136 
L 100.93113 247.41636 
L 101.507692 248.78198 
L 102.084253 249.437505 
L 102.660815 245.428474 
L 103.237377 244.518968 
L 103.813939 248.039734 
L 104.3905 247.881445 
L 104.967062 247.219638 
L 105.543624 247.698638 
L 106.120186 248.823687 
L 106.696747 248.845295 
L 107.273309 248.039321 
L 107.849871 248.804522 
L 108.426433 247.312908 
L 109.002994 246.292708 
L 109.579556 247.00446 
L 110.156118 248.562506 
L 110.73268 248.254052 
L 111.309242 247.469833 
L 111.885803 248.158284 
L 112.462365 246.750589 
L 113.038927 247.124286 
L 113.615489 244.762462 
L 114.19205 245.13012 
L 114.768612 246.882004 
L 115.345174 247.743071 
L 115.921736 248.217524 
L 116.498297 248.981308 
L 117.074859 249.120337 
L 117.651421 249.07313 
L 118.227983 247.435167 
L 118.804544 246.925091 
L 119.381106 248.470838 
L 119.957668 247.663035 
L 120.53423 248.64716 
L 121.687353 248.782789 
L 122.263915 245.641657 
L 122.840477 245.780264 
L 123.417038 248.779264 
L 123.9936 246.19423 
L 124.570162 246.753033 
L 125.146724 248.929303 
L 125.723285 248.676056 
L 126.299847 247.356134 
L 126.876409 248.765664 
L 127.452971 248.076584 
L 128.029533 248.097553 
L 128.606094 246.490946 
L 129.182656 247.932986 
L 129.759218 248.735894 
L 130.912341 245.977407 
L 131.488903 247.244816 
L 132.065465 248.102456 
L 133.218588 245.263344 
L 133.79515 243.729634 
L 134.371712 248.083872 
L 134.948274 247.614238 
L 135.524835 245.628732 
L 136.101397 246.14917 
L 136.677959 246.42013 
L 137.254521 246.958994 
L 138.407644 248.528687 
L 138.984206 249.665897 
L 139.560768 247.935968 
L 140.137329 244.542238 
L 141.290453 248.185106 
L 141.867015 248.401669 
L 142.443576 249.534428 
L 143.020138 248.620862 
L 144.173262 245.995402 
L 144.749823 244.125791 
L 145.326385 245.041465 
L 145.902947 246.958198 
L 146.479509 248.217219 
L 147.056071 246.377746 
L 147.632632 245.609486 
L 148.209194 246.062475 
L 148.785756 244.023273 
L 149.362318 244.679562 
L 149.938879 246.008744 
L 150.515441 248.049533 
L 151.092003 248.341056 
L 151.668565 249.063231 
L 152.245126 249.430553 
L 152.821688 247.668773 
L 153.39825 247.842134 
L 153.974812 247.294821 
L 154.551373 248.298329 
L 155.127935 246.280951 
L 155.704497 248.843591 
L 156.281059 249.027904 
L 156.85762 248.945122 
L 157.434182 246.485816 
L 158.587306 247.516319 
L 159.163867 248.169453 
L 159.740429 249.67069 
L 160.316991 248.469625 
L 160.893553 247.563076 
L 161.470114 247.706202 
L 162.046676 244.348183 
L 162.623238 247.509855 
L 163.1998 248.775316 
L 163.776361 248.244998 
L 164.929485 247.994463 
L 165.506047 246.655541 
L 166.082609 247.869565 
L 166.65917 248.513816 
L 167.235732 247.888183 
L 168.388856 247.275809 
L 168.965417 244.986811 
L 169.541979 245.941344 
L 170.118541 246.541718 
L 170.695103 247.939089 
L 171.271664 246.56101 
L 171.848226 249.213042 
L 172.424788 249.419656 
L 173.00135 249.06026 
L 173.577911 249.366948 
L 174.154473 249.305966 
L 174.731035 248.827232 
L 175.307597 247.965081 
L 175.884158 249.335088 
L 176.46072 248.819476 
L 177.037282 247.677518 
L 177.613844 247.998108 
L 178.190405 249.556401 
L 178.766967 249.112097 
L 179.343529 248.062825 
L 179.920091 247.353099 
L 180.496652 246.409287 
L 181.073214 246.772658 
L 181.649776 248.584606 
L 182.226338 246.152375 
L 182.802899 248.100201 
L 183.379461 247.836811 
L 183.956023 245.553173 
L 184.532585 248.888598 
L 185.109147 248.521556 
L 185.685708 246.315791 
L 186.26227 247.032468 
L 186.838832 246.783225 
L 187.415394 244.576207 
L 187.991955 246.627788 
L 188.568517 246.101292 
L 189.145079 249.113879 
L 190.298202 248.969117 
L 190.874764 245.887217 
L 191.451326 248.845164 
L 192.027888 249.090601 
L 192.604449 248.67748 
L 193.181011 247.634458 
L 193.757573 247.785111 
L 194.334135 243.970319 
L 194.910696 247.212823 
L 195.487258 245.421658 
L 196.06382 246.961953 
L 197.216943 249.041804 
L 197.793505 247.958359 
L 198.370067 248.688806 
L 198.946629 244.308681 
L 199.52319 248.516494 
L 200.099752 245.699989 
L 200.676314 246.794826 
L 201.252876 248.86129 
L 201.829437 248.121813 
L 202.405999 248.636445 
L 202.982561 246.564439 
L 203.559123 247.533614 
L 204.135685 244.838809 
L 204.712246 246.23362 
L 205.288808 246.150112 
L 205.86537 248.645388 
L 206.441932 247.485663 
L 207.018493 248.711443 
L 207.595055 249.435392 
L 208.171617 248.623116 
L 208.748179 248.045077 
L 209.32474 246.75241 
L 209.901302 246.578592 
L 210.477864 247.640496 
L 211.054426 246.59962 
L 211.630987 245.824937 
L 212.207549 247.21344 
L 212.784111 247.321581 
L 213.360673 247.170021 
L 214.513796 247.640367 
L 215.090358 244.577515 
L 215.66692 243.902314 
L 216.243481 247.445972 
L 216.820043 246.063909 
L 217.396605 246.363034 
L 217.973167 248.716966 
L 218.549728 245.707578 
L 219.12629 246.038594 
L 219.702852 248.05039 
L 220.279414 247.895998 
L 220.855975 249.282386 
L 221.432537 248.041136 
L 222.585661 248.311653 
L 223.162223 248.91521 
L 223.738784 248.896576 
L 224.315346 248.48103 
L 224.891908 244.618903 
L 226.045031 248.355469 
L 226.621593 249.176767 
L 227.774717 248.866745 
L 228.351278 248.993288 
L 228.92784 247.072904 
L 229.504402 246.1776 
L 230.080964 248.359725 
L 230.657525 248.409625 
L 231.234087 249.026655 
L 231.810649 247.530261 
L 232.387211 247.426874 
L 232.963772 246.021631 
L 233.540334 247.889573 
L 234.116896 247.544929 
L 234.693458 248.132502 
L 235.270019 247.54414 
L 235.846581 242.482254 
L 236.423143 242.075589 
L 236.999705 247.830586 
L 237.576266 247.960807 
L 238.152828 248.685156 
L 238.72939 248.933576 
L 239.305952 248.872757 
L 239.882514 248.111084 
L 240.459075 247.822512 
L 241.612199 248.30989 
L 242.188761 247.59113 
L 242.765322 247.531642 
L 243.341884 245.761267 
L 243.918446 246.791674 
L 244.495008 246.15233 
L 245.071569 247.470506 
L 245.648131 247.122704 
L 246.224693 247.102942 
L 246.801255 247.870604 
L 247.377816 248.880014 
L 247.954378 247.113156 
L 248.53094 248.493152 
L 249.107502 249.403375 
L 249.684063 249.153326 
L 250.260625 246.59879 
L 250.837187 245.352343 
L 251.413749 246.071282 
L 251.99031 249.525934 
L 252.566872 249.481697 
L 253.143434 247.527536 
L 253.719996 247.653333 
L 254.296557 248.17266 
L 254.873119 248.436193 
L 255.449681 247.589657 
L 256.026243 247.704835 
L 256.602804 248.308861 
L 257.179366 246.474786 
L 257.755928 248.679695 
L 258.33249 245.177099 
L 258.909052 244.826602 
L 259.485613 249.312504 
L 260.638737 247.558641 
L 261.215299 247.263701 
L 261.79186 247.786405 
L 262.368422 249.030851 
L 262.944984 247.844049 
L 263.521546 245.72299 
L 264.098107 246.135868 
L 264.674669 243.946215 
L 265.827793 248.861152 
L 266.404354 246.69545 
L 266.980916 247.270036 
L 267.557478 248.33378 
L 268.710601 246.473398 
L 269.287163 248.572182 
L 269.863725 247.683944 
L 270.440287 248.259327 
L 271.016848 246.731392 
L 271.59341 246.248249 
L 272.169972 247.776853 
L 272.746534 248.468525 
L 273.899657 249.327312 
L 274.476219 248.419191 
L 275.052781 249.667294 
L 275.629342 248.6925 
L 276.205904 248.042749 
L 276.782466 248.773997 
L 277.359028 246.299711 
L 277.93559 244.627476 
L 278.512151 247.002834 
L 279.088713 248.771123 
L 279.665275 247.565546 
L 280.241837 247.162268 
L 280.818398 249.023266 
L 281.39496 248.356298 
L 281.971522 248.637939 
L 282.548084 246.584632 
L 283.124645 243.441747 
L 283.701207 244.809565 
L 284.277769 247.642581 
L 284.854331 249.240602 
L 285.430892 245.988688 
L 286.007454 245.481321 
L 286.584016 248.319161 
L 287.160578 248.244316 
L 287.737139 245.927864 
L 288.313701 246.438031 
L 288.890263 247.357721 
L 289.466825 246.761153 
L 290.043386 244.133102 
L 290.619948 248.052513 
L 291.19651 247.874119 
L 291.773072 247.981482 
L 292.349633 247.160961 
L 292.926195 246.841536 
L 293.502757 248.58373 
L 294.079319 248.844894 
L 294.65588 246.66224 
L 295.232442 248.559213 
L 295.809004 248.913707 
L 296.385566 246.484403 
L 296.962128 248.666658 
L 297.538689 248.755749 
L 298.115251 247.931072 
L 298.691813 249.163546 
L 299.268375 248.947941 
L 299.844936 248.014773 
L 300.421498 249.175142 
L 300.99806 247.755386 
L 301.574622 245.967638 
L 302.151183 244.832225 
L 302.727745 248.234769 
L 303.304307 246.435418 
L 303.880869 248.844979 
L 304.45743 246.617387 
L 305.033992 248.185826 
L 305.610554 248.74293 
L 306.187116 245.39615 
L 306.763677 249.016542 
L 307.340239 248.354783 
L 307.916801 245.005626 
L 308.493363 246.922033 
L 309.069924 248.335718 
L 309.646486 246.656056 
L 310.223048 246.236007 
L 310.79961 248.416902 
L 311.376171 245.239589 
L 311.952733 246.131106 
L 312.529295 248.601658 
L 313.105857 249.130127 
L 313.682418 246.460147 
L 315.412104 248.818449 
L 315.988666 248.619124 
L 316.565227 248.817581 
L 317.718351 244.313387 
L 318.871474 248.398166 
L 319.448036 246.868697 
L 320.024598 244.964518 
L 320.60116 245.695101 
L 321.177721 247.929054 
L 321.754283 246.722869 
L 322.330845 246.998146 
L 322.907407 245.383872 
L 323.483968 247.803035 
L 324.06053 248.505748 
L 324.637092 246.533878 
L 325.213654 246.756838 
L 325.790215 247.889664 
L 326.366777 248.280468 
L 326.943339 246.147154 
L 327.519901 248.49919 
L 328.096462 247.122935 
L 328.673024 248.880816 
L 329.249586 248.174761 
L 329.826148 248.994805 
L 330.979271 248.106684 
L 331.555833 248.118149 
L 332.132395 246.941303 
L 332.708957 246.273506 
L 333.285518 245.936522 
L 333.86208 248.387909 
L 334.438642 247.915769 
L 335.015204 249.165688 
L 335.591765 249.054492 
L 336.168327 248.632356 
L 336.744889 247.340476 
L 337.321451 248.099304 
L 337.898012 248.375139 
L 338.474574 246.25611 
L 339.051136 246.951463 
L 339.627698 247.027774 
L 340.204259 246.121824 
L 340.780821 247.602928 
L 341.357383 246.218899 
L 341.933945 246.364351 
L 343.087068 248.720536 
L 344.240192 246.488334 
L 344.816753 247.198946 
L 345.393315 247.465789 
L 345.969877 248.765983 
L 346.546439 247.642294 
L 347.123 245.287135 
L 348.276124 248.569296 
L 348.852686 249.096962 
L 349.429247 249.003934 
L 350.005809 248.636887 
L 350.582371 248.427705 
L 351.158933 248.594258 
L 351.735495 249.13666 
L 352.312056 249.336718 
L 352.888618 249.193704 
L 353.46518 248.403461 
L 354.041742 243.424662 
L 354.618303 243.734875 
L 355.194865 244.89154 
L 355.771427 245.255408 
L 356.347989 248.144154 
L 356.92455 246.010051 
L 357.501112 246.885873 
L 358.077674 247.385059 
L 358.654236 249.592726 
L 359.230797 249.209411 
L 359.807359 248.268042 
L 360.383921 246.677106 
L 360.960483 247.37276 
L 361.537044 248.545737 
L 362.113606 248.538117 
L 362.690168 247.787148 
L 363.26673 247.393186 
L 363.843291 247.736696 
L 364.419853 246.822249 
L 364.996415 245.265879 
L 365.572977 248.699683 
L 366.149538 249.521015 
L 366.7261 248.331305 
L 367.302662 247.511133 
L 367.879224 249.199119 
L 368.455785 248.331468 
L 369.032347 248.308943 
L 369.608909 248.614857 
L 370.185471 247.558017 
L 370.762033 247.351448 
L 371.338594 247.387234 
L 371.915156 249.473817 
L 372.491718 248.597729 
L 373.06828 245.622612 
L 373.644841 246.475485 
L 374.221403 245.210037 
L 374.797965 247.576252 
L 375.374527 247.611886 
L 375.951088 247.864912 
L 377.104212 246.710852 
L 377.680774 245.890866 
L 378.257335 245.592346 
L 378.833897 245.790909 
L 379.410459 248.543526 
L 379.987021 249.143588 
L 380.563582 245.039969 
L 381.140144 247.569669 
L 381.716706 246.154465 
L 382.293268 247.84751 
L 382.869829 246.334051 
L 383.446391 243.839225 
L 384.022953 246.397457 
L 384.599515 246.52058 
L 385.176076 249.025803 
L 385.752638 248.87648 
L 386.3292 246.573755 
L 386.905762 247.709676 
L 387.482323 246.740906 
L 387.482323 246.740906 
" style="fill:none;stroke:#1f77b4;stroke-linecap:square;stroke-width:1.5;"/>
   </g>
   <g id="line2d_76">
    <path clip-path="url(#pc467274603)" d="M 74.296914 174.721116 
L 75.337662 245.407961 
L 76.378411 246.931612 
L 77.419159 247.884653 
L 78.459908 249.633661 
L 79.500656 248.934124 
L 80.541405 250.290451 
L 81.582153 251.267697 
L 82.622902 251.048489 
L 83.66365 250.975872 
L 84.704399 252.704455 
L 85.745147 253.109451 
L 86.785896 253.005555 
L 87.826644 253.099836 
L 88.867393 253.811539 
L 89.908141 254.208883 
L 91.989638 253.778067 
L 93.030387 254.554341 
L 96.152632 254.187354 
L 97.193381 254.168437 
L 98.234129 255.211177 
L 99.274878 255.454027 
L 100.315626 255.193449 
L 101.356375 255.524256 
L 104.47862 255.351069 
L 105.519369 255.775933 
L 107.600866 255.665644 
L 108.641614 255.733987 
L 109.682363 254.647769 
L 110.723111 255.795859 
L 111.763859 255.636333 
L 112.804608 256.282774 
L 114.886105 256.227665 
L 115.926853 256.228738 
L 118.00835 255.982603 
L 119.049099 256.295327 
L 120.089847 255.682459 
L 121.130596 256.401865 
L 123.212093 256.038771 
L 124.252841 256.94356 
L 125.29359 256.766319 
L 126.334338 256.082881 
L 127.375087 256.41747 
L 128.415835 256.333226 
L 129.456584 256.89233 
L 130.497332 256.012252 
L 131.538081 256.686172 
L 132.578829 256.914314 
L 133.619578 256.502247 
L 134.660326 256.920049 
L 135.701075 256.773321 
L 136.741823 256.044178 
L 137.782572 256.289086 
L 138.82332 255.913457 
L 139.864069 257.292299 
L 140.904817 257.052499 
L 141.945566 256.614352 
L 142.986314 257.094251 
L 144.027063 256.929372 
L 145.067811 256.431009 
L 146.10856 256.882058 
L 147.149308 256.527 
L 148.190056 257.109722 
L 149.230805 257.163948 
L 150.271553 257.499911 
L 151.312302 257.708278 
L 152.35305 257.267269 
L 153.393799 257.484392 
L 154.434547 257.137545 
L 155.475296 257.558089 
L 156.516044 257.499316 
L 157.556793 256.801885 
L 158.597541 257.49976 
L 159.63829 257.279122 
L 161.719787 257.436443 
L 162.760535 257.062885 
L 163.801284 257.586267 
L 165.882781 256.968242 
L 166.923529 257.698221 
L 167.964278 257.862367 
L 169.005026 257.644516 
L 171.086523 257.879682 
L 172.127272 257.746618 
L 173.16802 258.137934 
L 174.208769 257.791216 
L 175.249517 258.056821 
L 176.290266 256.771171 
L 177.331014 257.082404 
L 178.371763 257.890778 
L 179.412511 258.120479 
L 182.534757 257.784505 
L 183.575505 258.335356 
L 184.616253 257.609908 
L 185.657002 258.026146 
L 186.69775 258.161513 
L 187.738499 257.211395 
L 188.779247 258.240181 
L 190.860744 258.302418 
L 191.901493 258.519268 
L 192.942241 257.91745 
L 193.98299 257.829602 
L 195.023738 258.556384 
L 196.064487 257.77088 
L 197.105235 258.527318 
L 198.145984 258.361522 
L 199.186732 258.708491 
L 200.227481 257.050156 
L 201.268229 258.035552 
L 202.308978 257.555253 
L 203.349726 257.811841 
L 204.390475 257.160922 
L 205.431223 258.713172 
L 206.471972 258.551538 
L 207.51272 258.245969 
L 208.553469 258.716635 
L 209.594217 258.070188 
L 210.634966 258.633271 
L 211.675714 258.215872 
L 212.716463 258.864567 
L 213.757211 258.386737 
L 214.79796 258.332259 
L 215.838708 259.20024 
L 216.879457 258.207532 
L 217.920205 258.360532 
L 218.960953 258.36127 
L 220.001702 259.207956 
L 222.083199 258.855938 
L 223.123947 259.070631 
L 224.164696 258.950488 
L 225.205444 258.136211 
L 226.246193 258.957276 
L 227.286941 258.597115 
L 229.368438 259.110975 
L 230.409187 259.021522 
L 231.449935 258.817576 
L 232.490684 258.354134 
L 233.531432 258.166344 
L 234.572181 258.469734 
L 235.612929 259.233202 
L 236.653678 258.426721 
L 237.694426 259.171986 
L 238.735175 259.156865 
L 239.775923 258.508926 
L 240.816672 259.269955 
L 241.85742 259.034411 
L 242.898169 258.663151 
L 243.938917 258.533842 
L 244.979666 258.887221 
L 246.020414 258.856094 
L 247.061163 259.248401 
L 248.101911 258.471219 
L 249.14266 258.956275 
L 250.183408 258.53329 
L 251.224157 259.558369 
L 252.264905 259.439697 
L 253.305654 259.745359 
L 254.346402 259.471647 
L 255.38715 259.654855 
L 256.427899 259.280019 
L 257.468647 258.720087 
L 258.509396 259.469131 
L 259.550144 259.440074 
L 260.590893 258.78685 
L 261.631641 259.533148 
L 262.67239 259.355905 
L 263.713138 259.618719 
L 264.753887 259.541071 
L 265.794635 258.260367 
L 266.835384 259.256993 
L 267.876132 259.63551 
L 268.916881 259.651529 
L 269.957629 257.904963 
L 270.998378 259.420924 
L 272.039126 259.356705 
L 273.079875 258.611684 
L 274.120623 258.740814 
L 275.161372 259.556324 
L 276.20212 258.294277 
L 277.242869 259.829521 
L 278.283617 259.663198 
L 279.324366 259.340803 
L 280.365114 259.565917 
L 281.405863 259.086477 
L 282.446611 259.714167 
L 283.48736 259.451951 
L 285.568857 259.689115 
L 286.609605 259.032732 
L 287.650354 259.563741 
L 288.691102 259.349466 
L 289.731851 259.719761 
L 290.772599 259.612542 
L 291.813347 258.582806 
L 292.854096 259.677062 
L 293.894844 260.233673 
L 294.935593 259.470622 
L 295.976341 259.824872 
L 298.057838 259.717871 
L 299.098587 259.859941 
L 300.139335 259.091824 
L 301.180084 259.259709 
L 302.220832 257.808481 
L 303.261581 260.138825 
L 304.302329 260.030624 
L 305.343078 259.430012 
L 306.383826 259.399485 
L 308.465323 259.721435 
L 309.506072 259.284684 
L 310.54682 258.664681 
L 311.587569 259.698034 
L 312.628317 260.146204 
L 313.669066 260.401698 
L 314.709814 260.033576 
L 315.750563 260.577022 
L 317.83206 260.487958 
L 318.872808 260.045285 
L 319.913557 259.945198 
L 320.954305 260.30971 
L 321.995054 259.572819 
L 323.035802 260.18584 
L 324.076551 259.78103 
L 326.158048 260.036225 
L 327.198796 260.081471 
L 328.239544 260.307389 
L 329.280293 259.343417 
L 330.321041 259.21466 
L 331.36179 259.307153 
L 332.402538 259.84495 
L 333.443287 259.917468 
L 334.484035 260.216623 
L 335.524784 259.209206 
L 336.565532 259.769937 
L 337.606281 260.581482 
L 339.687778 260.558842 
L 340.728526 259.897179 
L 341.769275 260.589781 
L 342.810023 260.451176 
L 343.850772 260.753727 
L 344.89152 260.22983 
L 345.932269 260.102806 
L 346.973017 259.366159 
L 348.013766 260.370959 
L 353.217508 260.650915 
L 354.258257 260.256136 
L 355.299005 260.57786 
L 356.339754 260.701468 
L 357.380502 260.015731 
L 358.421251 260.885493 
L 359.461999 260.897495 
L 360.502748 260.194127 
L 361.543496 260.44689 
L 362.584245 260.175321 
L 363.624993 260.474876 
L 364.665741 261.005053 
L 365.70649 260.21221 
L 366.747238 259.218234 
L 367.787987 260.055304 
L 368.828735 260.665013 
L 369.869484 260.380569 
L 370.910232 260.860393 
L 371.950981 261.096226 
L 372.991729 261.136309 
L 374.032478 261.009047 
L 375.073226 260.747763 
L 376.113975 261.32776 
L 377.154723 261.047608 
L 378.195472 261.233362 
L 379.23622 261.10532 
L 380.276969 261.168721 
L 381.317717 260.38939 
L 382.358466 259.897953 
L 383.399214 260.315049 
L 384.439963 260.587542 
L 385.480711 261.115321 
L 386.52146 260.234567 
L 387.562208 260.674706 
L 387.562208 260.674706 
" style="fill:none;stroke:#ff7f0e;stroke-linecap:square;stroke-width:1.5;"/>
   </g>
   <g id="line2d_77">
    <path clip-path="url(#pc467274603)" d="M 73.959765 147.043544 
L 74.663364 185.607065 
L 75.366963 215.881926 
L 76.070563 233.831156 
L 76.774162 241.682239 
L 77.477761 244.428476 
L 78.181361 245.413856 
L 78.88496 245.830734 
L 81.699357 246.522388 
L 85.920953 247.269424 
L 90.846148 248.128561 
L 94.364145 248.63713 
L 97.178542 249.041143 
L 102.103737 249.681965 
L 105.621733 250.120594 
L 121.804517 251.679063 
L 133.062106 252.50638 
L 138.690901 252.833006 
L 141.505298 253.015814 
L 157.688082 253.783304 
L 159.79888 253.843166 
L 179.49966 254.517106 
L 180.906859 254.520881 
L 183.017657 254.606388 
L 184.424855 254.649174 
L 200.607639 255.010784 
L 204.125636 255.054193 
L 206.940033 255.134551 
L 211.865228 255.236836 
L 221.012019 255.340683 
L 223.122817 255.412069 
L 230.862409 255.516322 
L 236.491204 255.624637 
L 246.341594 255.719851 
L 288.557552 256.21076 
L 289.964751 256.180138 
L 292.075549 256.231917 
L 323.033918 256.480423 
L 326.551915 256.538391 
L 329.366312 256.520513 
L 334.291507 256.596402 
L 340.623901 256.603238 
L 343.438298 256.655783 
L 357.510284 256.746998 
L 363.842678 256.790804 
L 387.765054 256.948781 
L 387.765054 256.948781 
" style="fill:none;stroke:#2ca02c;stroke-linecap:square;stroke-width:1.5;"/>
   </g>
   <g id="line2d_78">
    <path clip-path="url(#pc467274603)" d="M 94.938239 171.085295 
L 116.620313 247.384951 
L 138.302387 269.072497 
L 159.984461 284.224793 
L 181.666535 286.562417 
L 203.348608 287.810454 
L 225.030682 289.064177 
L 246.712756 290.431303 
L 268.39483 290.286191 
L 290.076904 289.543111 
L 311.758977 290.889522 
L 333.441051 291.600653 
L 355.123125 290.009504 
L 376.805199 290.888531 
L 398.487273 291.636381 
" style="fill:none;stroke:#d62728;stroke-dasharray:5.55,2.4;stroke-dashoffset:0;stroke-width:1.5;"/>
   </g>
   <g id="line2d_79">
    <path clip-path="url(#pc467274603)" d="M 87.899975 171.085295 
L 102.543785 247.384951 
L 117.187595 268.379245 
L 131.831405 283.316337 
L 146.475215 286.23686 
L 161.119025 288.627151 
L 175.762835 289.093568 
L 190.406645 289.955378 
L 205.050454 290.068738 
L 219.694264 288.870169 
L 234.338074 289.494573 
L 248.981884 291.330478 
L 263.625694 289.274275 
L 278.269504 290.306596 
L 292.913314 291.539125 
L 307.557124 292.658105 
L 322.200933 291.931527 
L 336.844743 292.410603 
L 351.488553 291.922474 
L 366.132363 291.960847 
L 380.776173 292.055541 
L 395.419983 292.000768 
" style="fill:none;stroke:#9467bd;stroke-dasharray:5.55,2.4;stroke-dashoffset:0;stroke-width:1.5;"/>
   </g>
   <g id="line2d_80">
    <path clip-path="url(#pc467274603)" d="M 81.641897 171.085295 
L 90.027628 247.384951 
L 98.413359 271.99511 
L 106.79909 286.784583 
L 115.184821 286.283442 
L 123.570552 286.54125 
L 131.956283 288.628353 
L 140.342014 288.201355 
L 148.727745 288.35274 
L 157.113476 288.435793 
L 165.499207 289.136146 
L 173.884938 289.122196 
L 182.270669 287.820811 
L 190.6564 289.474206 
L 199.042131 290.011953 
L 207.427862 288.668558 
L 215.813593 289.540094 
L 224.199324 290.370072 
L 232.585055 287.887678 
L 240.970786 289.969221 
L 249.356517 290.216639 
L 257.742248 289.90178 
L 266.127979 288.63658 
L 274.51371 290.982147 
L 282.899441 291.233016 
L 291.285172 291.150005 
L 299.670903 290.701646 
L 308.056634 291.110456 
L 316.442365 291.745159 
L 324.828096 289.612577 
L 333.213827 292.108983 
L 341.599558 288.22699 
L 349.985289 289.394487 
L 358.37102 290.568755 
L 366.756751 290.916543 
L 375.142482 290.504761 
L 383.528213 291.400065 
L 391.913944 291.04438 
" style="fill:none;stroke:#8c564b;stroke-dasharray:5.55,2.4;stroke-dashoffset:0;stroke-width:1.5;"/>
   </g>
   <g id="line2d_81">
    <path clip-path="url(#pc467274603)" d="M 79.222648 171.085295 
L 85.18913 247.384951 
L 91.155612 273.858933 
L 97.122095 287.701256 
L 103.088577 289.001041 
L 109.055059 288.225938 
L 115.021542 289.404699 
L 120.988024 289.161389 
L 126.954506 289.623609 
L 132.920989 290.200121 
L 138.887471 290.094533 
L 144.853953 289.434068 
L 150.820435 289.481696 
L 156.786918 289.974874 
L 162.7534 290.119004 
L 168.719882 290.674178 
L 174.686365 289.881016 
L 180.652847 290.221293 
L 186.619329 290.704961 
L 192.585812 290.629596 
L 198.552294 290.100202 
L 204.518776 290.613301 
L 210.485258 290.311979 
L 216.451741 290.766778 
L 222.418223 290.39533 
L 228.384705 290.69719 
L 234.351188 290.244306 
L 240.31767 290.856086 
L 246.284152 290.546648 
L 252.250635 289.995743 
L 258.217117 290.89844 
L 264.183599 290.449194 
L 270.150081 290.29184 
L 276.116564 290.942943 
L 282.083046 290.289297 
L 288.049528 290.458442 
L 294.016011 290.633416 
L 299.982493 290.732411 
L 305.948975 290.51685 
L 311.915458 291.04767 
L 317.88194 291.312894 
L 323.848422 290.806286 
L 329.814905 290.806336 
L 335.781387 291.428881 
L 341.747869 291.125095 
L 347.714351 291.139897 
L 353.680834 291.049465 
L 359.647316 291.11606 
L 365.613798 290.968585 
L 371.580281 290.576182 
L 377.546763 289.676577 
L 383.513245 291.004622 
L 389.479728 291.124491 
" style="fill:none;stroke:#e377c2;stroke-dasharray:5.55,2.4;stroke-dashoffset:0;stroke-width:1.5;"/>
   </g>
   <g id="line2d_82">
    <path clip-path="url(#pc467274603)" d="M 78.05203 171.085295 
L 82.847894 247.384951 
L 87.643758 273.83162 
L 92.439622 287.614115 
L 97.235486 288.626087 
L 102.03135 287.651225 
L 106.827214 288.544825 
L 111.623078 288.491745 
L 116.418942 288.84475 
L 121.214806 288.988488 
L 126.010671 289.170823 
L 130.806535 288.791814 
L 135.602399 289.032092 
L 140.398263 289.354641 
L 145.194127 289.180608 
L 149.989991 289.962473 
L 154.785855 289.607944 
L 159.581719 289.714283 
L 164.377583 289.91922 
L 169.173447 289.78823 
L 173.969312 289.661124 
L 178.765176 289.767375 
L 183.56104 289.702794 
L 188.356904 290.101527 
L 193.152768 289.947445 
L 197.948632 289.996601 
L 202.744496 289.592319 
L 207.54036 289.956693 
L 212.336224 290.007516 
L 217.132088 289.631136 
L 221.927953 290.312215 
L 226.723817 290.316865 
L 231.519681 289.760952 
L 236.315545 290.073809 
L 241.111409 290.01222 
L 245.907273 290.387392 
L 250.703137 290.427036 
L 255.499001 290.468736 
L 260.294865 290.502827 
L 265.090729 290.190687 
L 269.886594 290.465973 
L 274.682458 290.489508 
L 279.478322 290.605633 
L 284.274186 290.897262 
L 289.07005 290.483655 
L 293.865914 290.363998 
L 298.661778 290.53046 
L 303.457642 290.610185 
L 308.253506 290.450142 
L 313.04937 290.273323 
L 317.845234 289.589258 
L 322.641099 290.930991 
L 327.436963 290.651554 
L 332.232827 291.044777 
L 337.028691 290.042074 
L 341.824555 290.70339 
L 346.620419 290.422271 
L 351.416283 290.851049 
L 356.212147 290.623924 
L 361.008011 290.678519 
L 365.803875 290.33313 
L 370.59974 290.428215 
L 375.395604 290.751114 
L 380.191468 290.479766 
L 384.987332 290.972278 
L 389.783196 290.957567 
" style="fill:none;stroke:#7f7f7f;stroke-dasharray:5.55,2.4;stroke-dashoffset:0;stroke-width:1.5;"/>
   </g>
   <g id="patch_3">
    <path d="M 57.6 307.584 
L 57.6 41.472 
" style="fill:none;stroke:#000000;stroke-linecap:square;stroke-linejoin:miter;stroke-width:0.8;"/>
   </g>
   <g id="patch_4">
    <path d="M 414.72 307.584 
L 414.72 41.472 
" style="fill:none;stroke:#000000;stroke-linecap:square;stroke-linejoin:miter;stroke-width:0.8;"/>
   </g>
   <g id="patch_5">
    <path d="M 57.6 307.584 
L 414.72 307.584 
" style="fill:none;stroke:#000000;stroke-linecap:square;stroke-linejoin:miter;stroke-width:0.8;"/>
   </g>
   <g id="patch_6">
    <path d="M 57.6 41.472 
L 414.72 41.472 
" style="fill:none;stroke:#000000;stroke-linecap:square;stroke-linejoin:miter;stroke-width:0.8;"/>
   </g>
   <g id="legend_1">
    <g id="patch_7">
     <path d="M 299.895 166.897 
L 407.72 166.897 
Q 409.72 166.897 409.72 164.897 
L 409.72 48.472 
Q 409.72 46.472 407.72 46.472 
L 299.895 46.472 
Q 297.895 46.472 297.895 48.472 
L 297.895 164.897 
Q 297.895 166.897 299.895 166.897 
z
" style="fill:#ffffff;opacity:0.8;stroke:#cccccc;stroke-linejoin:miter;"/>
    </g>
    <g id="line2d_83">
     <path d="M 301.895 54.570438 
L 321.895 54.570438 
" style="fill:none;stroke:#1f77b4;stroke-linecap:square;stroke-width:1.5;"/>
    </g>
    <g id="line2d_84"/>
    <g id="text_13">
     <!-- SGD, lr 0.1 -->
     <defs>
      <path d="M 53.515625 70.515625 
L 53.515625 60.890625 
Q 47.90625 63.578125 42.921875 64.890625 
Q 37.9375 66.21875 33.296875 66.21875 
Q 25.25 66.21875 20.875 63.09375 
Q 16.5 59.96875 16.5 54.203125 
Q 16.5 49.359375 19.40625 46.890625 
Q 22.3125 44.4375 30.421875 42.921875 
L 36.375 41.703125 
Q 47.40625 39.59375 52.65625 34.296875 
Q 57.90625 29 57.90625 20.125 
Q 57.90625 9.515625 50.796875 4.046875 
Q 43.703125 -1.421875 29.984375 -1.421875 
Q 24.8125 -1.421875 18.96875 -0.25 
Q 13.140625 0.921875 6.890625 3.21875 
L 6.890625 13.375 
Q 12.890625 10.015625 18.65625 8.296875 
Q 24.421875 6.59375 29.984375 6.59375 
Q 38.421875 6.59375 43.015625 9.90625 
Q 47.609375 13.234375 47.609375 19.390625 
Q 47.609375 24.75 44.3125 27.78125 
Q 41.015625 30.8125 33.5 32.328125 
L 27.484375 33.5 
Q 16.453125 35.6875 11.515625 40.375 
Q 6.59375 45.0625 6.59375 53.421875 
Q 6.59375 63.09375 13.40625 68.65625 
Q 20.21875 74.21875 32.171875 74.21875 
Q 37.3125 74.21875 42.625 73.28125 
Q 47.953125 72.359375 53.515625 70.515625 
z
" id="DejaVuSans-53"/>
      <path d="M 59.515625 10.40625 
L 59.515625 29.984375 
L 43.40625 29.984375 
L 43.40625 38.09375 
L 69.28125 38.09375 
L 69.28125 6.78125 
Q 63.578125 2.734375 56.6875 0.65625 
Q 49.8125 -1.421875 42 -1.421875 
Q 24.90625 -1.421875 15.25 8.5625 
Q 5.609375 18.5625 5.609375 36.375 
Q 5.609375 54.25 15.25 64.234375 
Q 24.90625 74.21875 42 74.21875 
Q 49.125 74.21875 55.546875 72.453125 
Q 61.96875 70.703125 67.390625 67.28125 
L 67.390625 56.78125 
Q 61.921875 61.421875 55.765625 63.765625 
Q 49.609375 66.109375 42.828125 66.109375 
Q 29.4375 66.109375 22.71875 58.640625 
Q 16.015625 51.171875 16.015625 36.375 
Q 16.015625 21.625 22.71875 14.15625 
Q 29.4375 6.6875 42.828125 6.6875 
Q 48.046875 6.6875 52.140625 7.59375 
Q 56.25 8.5 59.515625 10.40625 
z
" id="DejaVuSans-47"/>
      <path d="M 19.671875 64.796875 
L 19.671875 8.109375 
L 31.59375 8.109375 
Q 46.6875 8.109375 53.6875 14.9375 
Q 60.6875 21.78125 60.6875 36.53125 
Q 60.6875 51.171875 53.6875 57.984375 
Q 46.6875 64.796875 31.59375 64.796875 
z
M 9.8125 72.90625 
L 30.078125 72.90625 
Q 51.265625 72.90625 61.171875 64.09375 
Q 71.09375 55.28125 71.09375 36.53125 
Q 71.09375 17.671875 61.125 8.828125 
Q 51.171875 0 30.078125 0 
L 9.8125 0 
z
" id="DejaVuSans-44"/>
      <path d="M 11.71875 12.40625 
L 22.015625 12.40625 
L 22.015625 4 
L 14.015625 -11.625 
L 7.71875 -11.625 
L 11.71875 4 
z
" id="DejaVuSans-2c"/>
      <path id="DejaVuSans-20"/>
      <path d="M 41.109375 46.296875 
Q 39.59375 47.171875 37.8125 47.578125 
Q 36.03125 48 33.890625 48 
Q 26.265625 48 22.1875 43.046875 
Q 18.109375 38.09375 18.109375 28.8125 
L 18.109375 0 
L 9.078125 0 
L 9.078125 54.6875 
L 18.109375 54.6875 
L 18.109375 46.1875 
Q 20.953125 51.171875 25.484375 53.578125 
Q 30.03125 56 36.53125 56 
Q 37.453125 56 38.578125 55.875 
Q 39.703125 55.765625 41.0625 55.515625 
z
" id="DejaVuSans-72"/>
      <path d="M 10.6875 12.40625 
L 21 12.40625 
L 21 0 
L 10.6875 0 
z
" id="DejaVuSans-2e"/>
     </defs>
     <g transform="translate(329.895 58.070438)scale(0.1 -0.1)">
      <use xlink:href="#DejaVuSans-53"/>
      <use x="63.476562" xlink:href="#DejaVuSans-47"/>
      <use x="140.966797" xlink:href="#DejaVuSans-44"/>
      <use x="217.96875" xlink:href="#DejaVuSans-2c"/>
      <use x="249.755859" xlink:href="#DejaVuSans-20"/>
      <use x="281.542969" xlink:href="#DejaVuSans-6c"/>
      <use x="309.326172" xlink:href="#DejaVuSans-72"/>
      <use x="350.439453" xlink:href="#DejaVuSans-20"/>
      <use x="382.226562" xlink:href="#DejaVuSans-30"/>
      <use x="445.849609" xlink:href="#DejaVuSans-2e"/>
      <use x="477.636719" xlink:href="#DejaVuSans-31"/>
     </g>
    </g>
    <g id="line2d_85">
     <path d="M 301.895 69.248563 
L 321.895 69.248563 
" style="fill:none;stroke:#ff7f0e;stroke-linecap:square;stroke-width:1.5;"/>
    </g>
    <g id="line2d_86"/>
    <g id="text_14">
     <!-- SGD, lr 0.01 -->
     <g transform="translate(329.895 72.748563)scale(0.1 -0.1)">
      <use xlink:href="#DejaVuSans-53"/>
      <use x="63.476562" xlink:href="#DejaVuSans-47"/>
      <use x="140.966797" xlink:href="#DejaVuSans-44"/>
      <use x="217.96875" xlink:href="#DejaVuSans-2c"/>
      <use x="249.755859" xlink:href="#DejaVuSans-20"/>
      <use x="281.542969" xlink:href="#DejaVuSans-6c"/>
      <use x="309.326172" xlink:href="#DejaVuSans-72"/>
      <use x="350.439453" xlink:href="#DejaVuSans-20"/>
      <use x="382.226562" xlink:href="#DejaVuSans-30"/>
      <use x="445.849609" xlink:href="#DejaVuSans-2e"/>
      <use x="477.636719" xlink:href="#DejaVuSans-30"/>
      <use x="541.259766" xlink:href="#DejaVuSans-31"/>
     </g>
    </g>
    <g id="line2d_87">
     <path d="M 301.895 83.926688 
L 321.895 83.926688 
" style="fill:none;stroke:#2ca02c;stroke-linecap:square;stroke-width:1.5;"/>
    </g>
    <g id="line2d_88"/>
    <g id="text_15">
     <!-- SGD, lr 0.001 -->
     <g transform="translate(329.895 87.426688)scale(0.1 -0.1)">
      <use xlink:href="#DejaVuSans-53"/>
      <use x="63.476562" xlink:href="#DejaVuSans-47"/>
      <use x="140.966797" xlink:href="#DejaVuSans-44"/>
      <use x="217.96875" xlink:href="#DejaVuSans-2c"/>
      <use x="249.755859" xlink:href="#DejaVuSans-20"/>
      <use x="281.542969" xlink:href="#DejaVuSans-6c"/>
      <use x="309.326172" xlink:href="#DejaVuSans-72"/>
      <use x="350.439453" xlink:href="#DejaVuSans-20"/>
      <use x="382.226562" xlink:href="#DejaVuSans-30"/>
      <use x="445.849609" xlink:href="#DejaVuSans-2e"/>
      <use x="477.636719" xlink:href="#DejaVuSans-30"/>
      <use x="541.259766" xlink:href="#DejaVuSans-30"/>
      <use x="604.882812" xlink:href="#DejaVuSans-31"/>
     </g>
    </g>
    <g id="line2d_89">
     <path d="M 301.895 98.604813 
L 321.895 98.604813 
" style="fill:none;stroke:#d62728;stroke-dasharray:5.55,2.4;stroke-dashoffset:0;stroke-width:1.5;"/>
    </g>
    <g id="line2d_90"/>
    <g id="text_16">
     <!-- SGN, cg iter 20 -->
     <defs>
      <path d="M 9.8125 72.90625 
L 23.09375 72.90625 
L 55.421875 11.921875 
L 55.421875 72.90625 
L 64.984375 72.90625 
L 64.984375 0 
L 51.703125 0 
L 19.390625 60.984375 
L 19.390625 0 
L 9.8125 0 
z
" id="DejaVuSans-4e"/>
      <path d="M 45.40625 27.984375 
Q 45.40625 37.75 41.375 43.109375 
Q 37.359375 48.484375 30.078125 48.484375 
Q 22.859375 48.484375 18.828125 43.109375 
Q 14.796875 37.75 14.796875 27.984375 
Q 14.796875 18.265625 18.828125 12.890625 
Q 22.859375 7.515625 30.078125 7.515625 
Q 37.359375 7.515625 41.375 12.890625 
Q 45.40625 18.265625 45.40625 27.984375 
z
M 54.390625 6.78125 
Q 54.390625 -7.171875 48.1875 -13.984375 
Q 42 -20.796875 29.203125 -20.796875 
Q 24.46875 -20.796875 20.265625 -20.09375 
Q 16.0625 -19.390625 12.109375 -17.921875 
L 12.109375 -9.1875 
Q 16.0625 -11.328125 19.921875 -12.34375 
Q 23.78125 -13.375 27.78125 -13.375 
Q 36.625 -13.375 41.015625 -8.765625 
Q 45.40625 -4.15625 45.40625 5.171875 
L 45.40625 9.625 
Q 42.625 4.78125 38.28125 2.390625 
Q 33.9375 0 27.875 0 
Q 17.828125 0 11.671875 7.65625 
Q 5.515625 15.328125 5.515625 27.984375 
Q 5.515625 40.671875 11.671875 48.328125 
Q 17.828125 56 27.875 56 
Q 33.9375 56 38.28125 53.609375 
Q 42.625 51.21875 45.40625 46.390625 
L 45.40625 54.6875 
L 54.390625 54.6875 
z
" id="DejaVuSans-67"/>
      <path d="M 9.421875 54.6875 
L 18.40625 54.6875 
L 18.40625 0 
L 9.421875 0 
z
M 9.421875 75.984375 
L 18.40625 75.984375 
L 18.40625 64.59375 
L 9.421875 64.59375 
z
" id="DejaVuSans-69"/>
      <path d="M 18.3125 70.21875 
L 18.3125 54.6875 
L 36.8125 54.6875 
L 36.8125 47.703125 
L 18.3125 47.703125 
L 18.3125 18.015625 
Q 18.3125 11.328125 20.140625 9.421875 
Q 21.96875 7.515625 27.59375 7.515625 
L 36.8125 7.515625 
L 36.8125 0 
L 27.59375 0 
Q 17.1875 0 13.234375 3.875 
Q 9.28125 7.765625 9.28125 18.015625 
L 9.28125 47.703125 
L 2.6875 47.703125 
L 2.6875 54.6875 
L 9.28125 54.6875 
L 9.28125 70.21875 
z
" id="DejaVuSans-74"/>
     </defs>
     <g transform="translate(329.895 102.104813)scale(0.1 -0.1)">
      <use xlink:href="#DejaVuSans-53"/>
      <use x="63.476562" xlink:href="#DejaVuSans-47"/>
      <use x="140.966797" xlink:href="#DejaVuSans-4e"/>
      <use x="215.771484" xlink:href="#DejaVuSans-2c"/>
      <use x="247.558594" xlink:href="#DejaVuSans-20"/>
      <use x="279.345703" xlink:href="#DejaVuSans-63"/>
      <use x="334.326172" xlink:href="#DejaVuSans-67"/>
      <use x="397.802734" xlink:href="#DejaVuSans-20"/>
      <use x="429.589844" xlink:href="#DejaVuSans-69"/>
      <use x="457.373047" xlink:href="#DejaVuSans-74"/>
      <use x="496.582031" xlink:href="#DejaVuSans-65"/>
      <use x="558.105469" xlink:href="#DejaVuSans-72"/>
      <use x="599.21875" xlink:href="#DejaVuSans-20"/>
      <use x="631.005859" xlink:href="#DejaVuSans-32"/>
      <use x="694.628906" xlink:href="#DejaVuSans-30"/>
     </g>
    </g>
    <g id="line2d_91">
     <path d="M 301.895 113.282938 
L 321.895 113.282938 
" style="fill:none;stroke:#9467bd;stroke-dasharray:5.55,2.4;stroke-dashoffset:0;stroke-width:1.5;"/>
    </g>
    <g id="line2d_92"/>
    <g id="text_17">
     <!-- SGN, cg iter 10 -->
     <g transform="translate(329.895 116.782938)scale(0.1 -0.1)">
      <use xlink:href="#DejaVuSans-53"/>
      <use x="63.476562" xlink:href="#DejaVuSans-47"/>
      <use x="140.966797" xlink:href="#DejaVuSans-4e"/>
      <use x="215.771484" xlink:href="#DejaVuSans-2c"/>
      <use x="247.558594" xlink:href="#DejaVuSans-20"/>
      <use x="279.345703" xlink:href="#DejaVuSans-63"/>
      <use x="334.326172" xlink:href="#DejaVuSans-67"/>
      <use x="397.802734" xlink:href="#DejaVuSans-20"/>
      <use x="429.589844" xlink:href="#DejaVuSans-69"/>
      <use x="457.373047" xlink:href="#DejaVuSans-74"/>
      <use x="496.582031" xlink:href="#DejaVuSans-65"/>
      <use x="558.105469" xlink:href="#DejaVuSans-72"/>
      <use x="599.21875" xlink:href="#DejaVuSans-20"/>
      <use x="631.005859" xlink:href="#DejaVuSans-31"/>
      <use x="694.628906" xlink:href="#DejaVuSans-30"/>
     </g>
    </g>
    <g id="line2d_93">
     <path d="M 301.895 127.961063 
L 321.895 127.961063 
" style="fill:none;stroke:#8c564b;stroke-dasharray:5.55,2.4;stroke-dashoffset:0;stroke-width:1.5;"/>
    </g>
    <g id="line2d_94"/>
    <g id="text_18">
     <!-- SGN, cg iter 5 -->
     <defs>
      <path d="M 10.796875 72.90625 
L 49.515625 72.90625 
L 49.515625 64.59375 
L 19.828125 64.59375 
L 19.828125 46.734375 
Q 21.96875 47.46875 24.109375 47.828125 
Q 26.265625 48.1875 28.421875 48.1875 
Q 40.625 48.1875 47.75 41.5 
Q 54.890625 34.8125 54.890625 23.390625 
Q 54.890625 11.625 47.5625 5.09375 
Q 40.234375 -1.421875 26.90625 -1.421875 
Q 22.3125 -1.421875 17.546875 -0.640625 
Q 12.796875 0.140625 7.71875 1.703125 
L 7.71875 11.625 
Q 12.109375 9.234375 16.796875 8.0625 
Q 21.484375 6.890625 26.703125 6.890625 
Q 35.15625 6.890625 40.078125 11.328125 
Q 45.015625 15.765625 45.015625 23.390625 
Q 45.015625 31 40.078125 35.4375 
Q 35.15625 39.890625 26.703125 39.890625 
Q 22.75 39.890625 18.8125 39.015625 
Q 14.890625 38.140625 10.796875 36.28125 
z
" id="DejaVuSans-35"/>
     </defs>
     <g transform="translate(329.895 131.461063)scale(0.1 -0.1)">
      <use xlink:href="#DejaVuSans-53"/>
      <use x="63.476562" xlink:href="#DejaVuSans-47"/>
      <use x="140.966797" xlink:href="#DejaVuSans-4e"/>
      <use x="215.771484" xlink:href="#DejaVuSans-2c"/>
      <use x="247.558594" xlink:href="#DejaVuSans-20"/>
      <use x="279.345703" xlink:href="#DejaVuSans-63"/>
      <use x="334.326172" xlink:href="#DejaVuSans-67"/>
      <use x="397.802734" xlink:href="#DejaVuSans-20"/>
      <use x="429.589844" xlink:href="#DejaVuSans-69"/>
      <use x="457.373047" xlink:href="#DejaVuSans-74"/>
      <use x="496.582031" xlink:href="#DejaVuSans-65"/>
      <use x="558.105469" xlink:href="#DejaVuSans-72"/>
      <use x="599.21875" xlink:href="#DejaVuSans-20"/>
      <use x="631.005859" xlink:href="#DejaVuSans-35"/>
     </g>
    </g>
    <g id="line2d_95">
     <path d="M 301.895 142.639188 
L 321.895 142.639188 
" style="fill:none;stroke:#e377c2;stroke-dasharray:5.55,2.4;stroke-dashoffset:0;stroke-width:1.5;"/>
    </g>
    <g id="line2d_96"/>
    <g id="text_19">
     <!-- SGN, cg iter 3 -->
     <defs>
      <path d="M 40.578125 39.3125 
Q 47.65625 37.796875 51.625 33 
Q 55.609375 28.21875 55.609375 21.1875 
Q 55.609375 10.40625 48.1875 4.484375 
Q 40.765625 -1.421875 27.09375 -1.421875 
Q 22.515625 -1.421875 17.65625 -0.515625 
Q 12.796875 0.390625 7.625 2.203125 
L 7.625 11.71875 
Q 11.71875 9.328125 16.59375 8.109375 
Q 21.484375 6.890625 26.8125 6.890625 
Q 36.078125 6.890625 40.9375 10.546875 
Q 45.796875 14.203125 45.796875 21.1875 
Q 45.796875 27.640625 41.28125 31.265625 
Q 36.765625 34.90625 28.71875 34.90625 
L 20.21875 34.90625 
L 20.21875 43.015625 
L 29.109375 43.015625 
Q 36.375 43.015625 40.234375 45.921875 
Q 44.09375 48.828125 44.09375 54.296875 
Q 44.09375 59.90625 40.109375 62.90625 
Q 36.140625 65.921875 28.71875 65.921875 
Q 24.65625 65.921875 20.015625 65.03125 
Q 15.375 64.15625 9.8125 62.3125 
L 9.8125 71.09375 
Q 15.4375 72.65625 20.34375 73.4375 
Q 25.25 74.21875 29.59375 74.21875 
Q 40.828125 74.21875 47.359375 69.109375 
Q 53.90625 64.015625 53.90625 55.328125 
Q 53.90625 49.265625 50.4375 45.09375 
Q 46.96875 40.921875 40.578125 39.3125 
z
" id="DejaVuSans-33"/>
     </defs>
     <g transform="translate(329.895 146.139188)scale(0.1 -0.1)">
      <use xlink:href="#DejaVuSans-53"/>
      <use x="63.476562" xlink:href="#DejaVuSans-47"/>
      <use x="140.966797" xlink:href="#DejaVuSans-4e"/>
      <use x="215.771484" xlink:href="#DejaVuSans-2c"/>
      <use x="247.558594" xlink:href="#DejaVuSans-20"/>
      <use x="279.345703" xlink:href="#DejaVuSans-63"/>
      <use x="334.326172" xlink:href="#DejaVuSans-67"/>
      <use x="397.802734" xlink:href="#DejaVuSans-20"/>
      <use x="429.589844" xlink:href="#DejaVuSans-69"/>
      <use x="457.373047" xlink:href="#DejaVuSans-74"/>
      <use x="496.582031" xlink:href="#DejaVuSans-65"/>
      <use x="558.105469" xlink:href="#DejaVuSans-72"/>
      <use x="599.21875" xlink:href="#DejaVuSans-20"/>
      <use x="631.005859" xlink:href="#DejaVuSans-33"/>
     </g>
    </g>
    <g id="line2d_97">
     <path d="M 301.895 157.317313 
L 321.895 157.317313 
" style="fill:none;stroke:#7f7f7f;stroke-dasharray:5.55,2.4;stroke-dashoffset:0;stroke-width:1.5;"/>
    </g>
    <g id="line2d_98"/>
    <g id="text_20">
     <!-- SGN, cg iter 2 -->
     <g transform="translate(329.895 160.817313)scale(0.1 -0.1)">
      <use xlink:href="#DejaVuSans-53"/>
      <use x="63.476562" xlink:href="#DejaVuSans-47"/>
      <use x="140.966797" xlink:href="#DejaVuSans-4e"/>
      <use x="215.771484" xlink:href="#DejaVuSans-2c"/>
      <use x="247.558594" xlink:href="#DejaVuSans-20"/>
      <use x="279.345703" xlink:href="#DejaVuSans-63"/>
      <use x="334.326172" xlink:href="#DejaVuSans-67"/>
      <use x="397.802734" xlink:href="#DejaVuSans-20"/>
      <use x="429.589844" xlink:href="#DejaVuSans-69"/>
      <use x="457.373047" xlink:href="#DejaVuSans-74"/>
      <use x="496.582031" xlink:href="#DejaVuSans-65"/>
      <use x="558.105469" xlink:href="#DejaVuSans-72"/>
      <use x="599.21875" xlink:href="#DejaVuSans-20"/>
      <use x="631.005859" xlink:href="#DejaVuSans-32"/>
     </g>
    </g>
   </g>
  </g>
 </g>
 <defs>
  <clipPath id="pc467274603">
   <rect height="266.112" width="357.12" x="57.6" y="41.472"/>
  </clipPath>
 </defs>
</svg>
