<?xml version="1.0" encoding="utf-8" standalone="no"?>
<!DOCTYPE svg PUBLIC "-//W3C//DTD SVG 1.1//EN"
  "http://www.w3.org/Graphics/SVG/1.1/DTD/svg11.dtd">
<!-- Created with matplotlib (http://matplotlib.org/) -->
<svg height="345pt" version="1.1" viewBox="0 0 460 345" width="460pt" xmlns="http://www.w3.org/2000/svg" xmlns:xlink="http://www.w3.org/1999/xlink">
 <defs>
  <style type="text/css">
*{stroke-linecap:butt;stroke-linejoin:round;}
  </style>
 </defs>
 <g id="figure_1">
  <g id="patch_1">
   <path d="M 0 345.6 
L 460.8 345.6 
L 460.8 0 
L 0 0 
z
" style="fill:none;opacity:0;"/>
  </g>
  <g id="axes_1">
   <g id="patch_2">
    <path d="M 57.6 307.584 
L 414.72 307.584 
L 414.72 41.472 
L 57.6 41.472 
z
" style="fill:#ffffff;"/>
   </g>
   <g id="matplotlib.axis_1">
    <g id="xtick_1">
     <g id="line2d_1">
      <path clip-path="url(#peb5c103149)" d="M 73.235936 307.584 
L 73.235936 41.472 
" style="fill:none;stroke:#b0b0b0;stroke-linecap:square;stroke-width:0.8;"/>
     </g>
     <g id="line2d_2">
      <defs>
       <path d="M 0 0 
L 0 3.5 
" id="m8d613d7ddd" style="stroke:#000000;stroke-width:0.8;"/>
      </defs>
      <g>
       <use style="stroke:#000000;stroke-width:0.8;" x="73.235936" xlink:href="#m8d613d7ddd" y="307.584"/>
      </g>
     </g>
     <g id="text_1">
      <!-- 0 -->
      <defs>
       <path d="M 31.78125 66.40625 
Q 24.171875 66.40625 20.328125 58.90625 
Q 16.5 51.421875 16.5 36.375 
Q 16.5 21.390625 20.328125 13.890625 
Q 24.171875 6.390625 31.78125 6.390625 
Q 39.453125 6.390625 43.28125 13.890625 
Q 47.125 21.390625 47.125 36.375 
Q 47.125 51.421875 43.28125 58.90625 
Q 39.453125 66.40625 31.78125 66.40625 
z
M 31.78125 74.21875 
Q 44.046875 74.21875 50.515625 64.515625 
Q 56.984375 54.828125 56.984375 36.375 
Q 56.984375 17.96875 50.515625 8.265625 
Q 44.046875 -1.421875 31.78125 -1.421875 
Q 19.53125 -1.421875 13.0625 8.265625 
Q 6.59375 17.96875 6.59375 36.375 
Q 6.59375 54.828125 13.0625 64.515625 
Q 19.53125 74.21875 31.78125 74.21875 
z
" id="DejaVuSans-30"/>
      </defs>
      <g transform="translate(70.054686 322.182437)scale(0.1 -0.1)">
       <use xlink:href="#DejaVuSans-30"/>
      </g>
     </g>
    </g>
    <g id="xtick_2">
     <g id="line2d_3">
      <path clip-path="url(#peb5c103149)" d="M 132.91508 307.584 
L 132.91508 41.472 
" style="fill:none;stroke:#b0b0b0;stroke-linecap:square;stroke-width:0.8;"/>
     </g>
     <g id="line2d_4">
      <g>
       <use style="stroke:#000000;stroke-width:0.8;" x="132.91508" xlink:href="#m8d613d7ddd" y="307.584"/>
      </g>
     </g>
     <g id="text_2">
      <!-- 100 -->
      <defs>
       <path d="M 12.40625 8.296875 
L 28.515625 8.296875 
L 28.515625 63.921875 
L 10.984375 60.40625 
L 10.984375 69.390625 
L 28.421875 72.90625 
L 38.28125 72.90625 
L 38.28125 8.296875 
L 54.390625 8.296875 
L 54.390625 0 
L 12.40625 0 
z
" id="DejaVuSans-31"/>
      </defs>
      <g transform="translate(123.37133 322.182437)scale(0.1 -0.1)">
       <use xlink:href="#DejaVuSans-31"/>
       <use x="63.623047" xlink:href="#DejaVuSans-30"/>
       <use x="127.246094" xlink:href="#DejaVuSans-30"/>
      </g>
     </g>
    </g>
    <g id="xtick_3">
     <g id="line2d_5">
      <path clip-path="url(#peb5c103149)" d="M 192.594225 307.584 
L 192.594225 41.472 
" style="fill:none;stroke:#b0b0b0;stroke-linecap:square;stroke-width:0.8;"/>
     </g>
     <g id="line2d_6">
      <g>
       <use style="stroke:#000000;stroke-width:0.8;" x="192.594225" xlink:href="#m8d613d7ddd" y="307.584"/>
      </g>
     </g>
     <g id="text_3">
      <!-- 200 -->
      <defs>
       <path d="M 19.1875 8.296875 
L 53.609375 8.296875 
L 53.609375 0 
L 7.328125 0 
L 7.328125 8.296875 
Q 12.9375 14.109375 22.625 23.890625 
Q 32.328125 33.6875 34.8125 36.53125 
Q 39.546875 41.84375 41.421875 45.53125 
Q 43.3125 49.21875 43.3125 52.78125 
Q 43.3125 58.59375 39.234375 62.25 
Q 35.15625 65.921875 28.609375 65.921875 
Q 23.96875 65.921875 18.8125 64.3125 
Q 13.671875 62.703125 7.8125 59.421875 
L 7.8125 69.390625 
Q 13.765625 71.78125 18.9375 73 
Q 24.125 74.21875 28.421875 74.21875 
Q 39.75 74.21875 46.484375 68.546875 
Q 53.21875 62.890625 53.21875 53.421875 
Q 53.21875 48.921875 51.53125 44.890625 
Q 49.859375 40.875 45.40625 35.40625 
Q 44.1875 33.984375 37.640625 27.21875 
Q 31.109375 20.453125 19.1875 8.296875 
z
" id="DejaVuSans-32"/>
      </defs>
      <g transform="translate(183.050475 322.182437)scale(0.1 -0.1)">
       <use xlink:href="#DejaVuSans-32"/>
       <use x="63.623047" xlink:href="#DejaVuSans-30"/>
       <use x="127.246094" xlink:href="#DejaVuSans-30"/>
      </g>
     </g>
    </g>
    <g id="xtick_4">
     <g id="line2d_7">
      <path clip-path="url(#peb5c103149)" d="M 252.273369 307.584 
L 252.273369 41.472 
" style="fill:none;stroke:#b0b0b0;stroke-linecap:square;stroke-width:0.8;"/>
     </g>
     <g id="line2d_8">
      <g>
       <use style="stroke:#000000;stroke-width:0.8;" x="252.273369" xlink:href="#m8d613d7ddd" y="307.584"/>
      </g>
     </g>
     <g id="text_4">
      <!-- 300 -->
      <defs>
       <path d="M 40.578125 39.3125 
Q 47.65625 37.796875 51.625 33 
Q 55.609375 28.21875 55.609375 21.1875 
Q 55.609375 10.40625 48.1875 4.484375 
Q 40.765625 -1.421875 27.09375 -1.421875 
Q 22.515625 -1.421875 17.65625 -0.515625 
Q 12.796875 0.390625 7.625 2.203125 
L 7.625 11.71875 
Q 11.71875 9.328125 16.59375 8.109375 
Q 21.484375 6.890625 26.8125 6.890625 
Q 36.078125 6.890625 40.9375 10.546875 
Q 45.796875 14.203125 45.796875 21.1875 
Q 45.796875 27.640625 41.28125 31.265625 
Q 36.765625 34.90625 28.71875 34.90625 
L 20.21875 34.90625 
L 20.21875 43.015625 
L 29.109375 43.015625 
Q 36.375 43.015625 40.234375 45.921875 
Q 44.09375 48.828125 44.09375 54.296875 
Q 44.09375 59.90625 40.109375 62.90625 
Q 36.140625 65.921875 28.71875 65.921875 
Q 24.65625 65.921875 20.015625 65.03125 
Q 15.375 64.15625 9.8125 62.3125 
L 9.8125 71.09375 
Q 15.4375 72.65625 20.34375 73.4375 
Q 25.25 74.21875 29.59375 74.21875 
Q 40.828125 74.21875 47.359375 69.109375 
Q 53.90625 64.015625 53.90625 55.328125 
Q 53.90625 49.265625 50.4375 45.09375 
Q 46.96875 40.921875 40.578125 39.3125 
z
" id="DejaVuSans-33"/>
      </defs>
      <g transform="translate(242.729619 322.182437)scale(0.1 -0.1)">
       <use xlink:href="#DejaVuSans-33"/>
       <use x="63.623047" xlink:href="#DejaVuSans-30"/>
       <use x="127.246094" xlink:href="#DejaVuSans-30"/>
      </g>
     </g>
    </g>
    <g id="xtick_5">
     <g id="line2d_9">
      <path clip-path="url(#peb5c103149)" d="M 311.952513 307.584 
L 311.952513 41.472 
" style="fill:none;stroke:#b0b0b0;stroke-linecap:square;stroke-width:0.8;"/>
     </g>
     <g id="line2d_10">
      <g>
       <use style="stroke:#000000;stroke-width:0.8;" x="311.952513" xlink:href="#m8d613d7ddd" y="307.584"/>
      </g>
     </g>
     <g id="text_5">
      <!-- 400 -->
      <defs>
       <path d="M 37.796875 64.3125 
L 12.890625 25.390625 
L 37.796875 25.390625 
z
M 35.203125 72.90625 
L 47.609375 72.90625 
L 47.609375 25.390625 
L 58.015625 25.390625 
L 58.015625 17.1875 
L 47.609375 17.1875 
L 47.609375 0 
L 37.796875 0 
L 37.796875 17.1875 
L 4.890625 17.1875 
L 4.890625 26.703125 
z
" id="DejaVuSans-34"/>
      </defs>
      <g transform="translate(302.408763 322.182437)scale(0.1 -0.1)">
       <use xlink:href="#DejaVuSans-34"/>
       <use x="63.623047" xlink:href="#DejaVuSans-30"/>
       <use x="127.246094" xlink:href="#DejaVuSans-30"/>
      </g>
     </g>
    </g>
    <g id="xtick_6">
     <g id="line2d_11">
      <path clip-path="url(#peb5c103149)" d="M 371.631658 307.584 
L 371.631658 41.472 
" style="fill:none;stroke:#b0b0b0;stroke-linecap:square;stroke-width:0.8;"/>
     </g>
     <g id="line2d_12">
      <g>
       <use style="stroke:#000000;stroke-width:0.8;" x="371.631658" xlink:href="#m8d613d7ddd" y="307.584"/>
      </g>
     </g>
     <g id="text_6">
      <!-- 500 -->
      <defs>
       <path d="M 10.796875 72.90625 
L 49.515625 72.90625 
L 49.515625 64.59375 
L 19.828125 64.59375 
L 19.828125 46.734375 
Q 21.96875 47.46875 24.109375 47.828125 
Q 26.265625 48.1875 28.421875 48.1875 
Q 40.625 48.1875 47.75 41.5 
Q 54.890625 34.8125 54.890625 23.390625 
Q 54.890625 11.625 47.5625 5.09375 
Q 40.234375 -1.421875 26.90625 -1.421875 
Q 22.3125 -1.421875 17.546875 -0.640625 
Q 12.796875 0.140625 7.71875 1.703125 
L 7.71875 11.625 
Q 12.109375 9.234375 16.796875 8.0625 
Q 21.484375 6.890625 26.703125 6.890625 
Q 35.15625 6.890625 40.078125 11.328125 
Q 45.015625 15.765625 45.015625 23.390625 
Q 45.015625 31 40.078125 35.4375 
Q 35.15625 39.890625 26.703125 39.890625 
Q 22.75 39.890625 18.8125 39.015625 
Q 14.890625 38.140625 10.796875 36.28125 
z
" id="DejaVuSans-35"/>
      </defs>
      <g transform="translate(362.087908 322.182437)scale(0.1 -0.1)">
       <use xlink:href="#DejaVuSans-35"/>
       <use x="63.623047" xlink:href="#DejaVuSans-30"/>
       <use x="127.246094" xlink:href="#DejaVuSans-30"/>
      </g>
     </g>
    </g>
    <g id="text_7">
     <!-- epochs -->
     <defs>
      <path d="M 56.203125 29.59375 
L 56.203125 25.203125 
L 14.890625 25.203125 
Q 15.484375 15.921875 20.484375 11.0625 
Q 25.484375 6.203125 34.421875 6.203125 
Q 39.59375 6.203125 44.453125 7.46875 
Q 49.3125 8.734375 54.109375 11.28125 
L 54.109375 2.78125 
Q 49.265625 0.734375 44.1875 -0.34375 
Q 39.109375 -1.421875 33.890625 -1.421875 
Q 20.796875 -1.421875 13.15625 6.1875 
Q 5.515625 13.8125 5.515625 26.8125 
Q 5.515625 40.234375 12.765625 48.109375 
Q 20.015625 56 32.328125 56 
Q 43.359375 56 49.78125 48.890625 
Q 56.203125 41.796875 56.203125 29.59375 
z
M 47.21875 32.234375 
Q 47.125 39.59375 43.09375 43.984375 
Q 39.0625 48.390625 32.421875 48.390625 
Q 24.90625 48.390625 20.390625 44.140625 
Q 15.875 39.890625 15.1875 32.171875 
z
" id="DejaVuSans-65"/>
      <path d="M 18.109375 8.203125 
L 18.109375 -20.796875 
L 9.078125 -20.796875 
L 9.078125 54.6875 
L 18.109375 54.6875 
L 18.109375 46.390625 
Q 20.953125 51.265625 25.265625 53.625 
Q 29.59375 56 35.59375 56 
Q 45.5625 56 51.78125 48.09375 
Q 58.015625 40.1875 58.015625 27.296875 
Q 58.015625 14.40625 51.78125 6.484375 
Q 45.5625 -1.421875 35.59375 -1.421875 
Q 29.59375 -1.421875 25.265625 0.953125 
Q 20.953125 3.328125 18.109375 8.203125 
z
M 48.6875 27.296875 
Q 48.6875 37.203125 44.609375 42.84375 
Q 40.53125 48.484375 33.40625 48.484375 
Q 26.265625 48.484375 22.1875 42.84375 
Q 18.109375 37.203125 18.109375 27.296875 
Q 18.109375 17.390625 22.1875 11.75 
Q 26.265625 6.109375 33.40625 6.109375 
Q 40.53125 6.109375 44.609375 11.75 
Q 48.6875 17.390625 48.6875 27.296875 
z
" id="DejaVuSans-70"/>
      <path d="M 30.609375 48.390625 
Q 23.390625 48.390625 19.1875 42.75 
Q 14.984375 37.109375 14.984375 27.296875 
Q 14.984375 17.484375 19.15625 11.84375 
Q 23.34375 6.203125 30.609375 6.203125 
Q 37.796875 6.203125 41.984375 11.859375 
Q 46.1875 17.53125 46.1875 27.296875 
Q 46.1875 37.015625 41.984375 42.703125 
Q 37.796875 48.390625 30.609375 48.390625 
z
M 30.609375 56 
Q 42.328125 56 49.015625 48.375 
Q 55.71875 40.765625 55.71875 27.296875 
Q 55.71875 13.875 49.015625 6.21875 
Q 42.328125 -1.421875 30.609375 -1.421875 
Q 18.84375 -1.421875 12.171875 6.21875 
Q 5.515625 13.875 5.515625 27.296875 
Q 5.515625 40.765625 12.171875 48.375 
Q 18.84375 56 30.609375 56 
z
" id="DejaVuSans-6f"/>
      <path d="M 48.78125 52.59375 
L 48.78125 44.1875 
Q 44.96875 46.296875 41.140625 47.34375 
Q 37.3125 48.390625 33.40625 48.390625 
Q 24.65625 48.390625 19.8125 42.84375 
Q 14.984375 37.3125 14.984375 27.296875 
Q 14.984375 17.28125 19.8125 11.734375 
Q 24.65625 6.203125 33.40625 6.203125 
Q 37.3125 6.203125 41.140625 7.25 
Q 44.96875 8.296875 48.78125 10.40625 
L 48.78125 2.09375 
Q 45.015625 0.34375 40.984375 -0.53125 
Q 36.96875 -1.421875 32.421875 -1.421875 
Q 20.0625 -1.421875 12.78125 6.34375 
Q 5.515625 14.109375 5.515625 27.296875 
Q 5.515625 40.671875 12.859375 48.328125 
Q 20.21875 56 33.015625 56 
Q 37.15625 56 41.109375 55.140625 
Q 45.0625 54.296875 48.78125 52.59375 
z
" id="DejaVuSans-63"/>
      <path d="M 54.890625 33.015625 
L 54.890625 0 
L 45.90625 0 
L 45.90625 32.71875 
Q 45.90625 40.484375 42.875 44.328125 
Q 39.84375 48.1875 33.796875 48.1875 
Q 26.515625 48.1875 22.3125 43.546875 
Q 18.109375 38.921875 18.109375 30.90625 
L 18.109375 0 
L 9.078125 0 
L 9.078125 75.984375 
L 18.109375 75.984375 
L 18.109375 46.1875 
Q 21.34375 51.125 25.703125 53.5625 
Q 30.078125 56 35.796875 56 
Q 45.21875 56 50.046875 50.171875 
Q 54.890625 44.34375 54.890625 33.015625 
z
" id="DejaVuSans-68"/>
      <path d="M 44.28125 53.078125 
L 44.28125 44.578125 
Q 40.484375 46.53125 36.375 47.5 
Q 32.28125 48.484375 27.875 48.484375 
Q 21.1875 48.484375 17.84375 46.4375 
Q 14.5 44.390625 14.5 40.28125 
Q 14.5 37.15625 16.890625 35.375 
Q 19.28125 33.59375 26.515625 31.984375 
L 29.59375 31.296875 
Q 39.15625 29.25 43.1875 25.515625 
Q 47.21875 21.78125 47.21875 15.09375 
Q 47.21875 7.46875 41.1875 3.015625 
Q 35.15625 -1.421875 24.609375 -1.421875 
Q 20.21875 -1.421875 15.453125 -0.5625 
Q 10.6875 0.296875 5.421875 2 
L 5.421875 11.28125 
Q 10.40625 8.6875 15.234375 7.390625 
Q 20.0625 6.109375 24.8125 6.109375 
Q 31.15625 6.109375 34.5625 8.28125 
Q 37.984375 10.453125 37.984375 14.40625 
Q 37.984375 18.0625 35.515625 20.015625 
Q 33.0625 21.96875 24.703125 23.78125 
L 21.578125 24.515625 
Q 13.234375 26.265625 9.515625 29.90625 
Q 5.8125 33.546875 5.8125 39.890625 
Q 5.8125 47.609375 11.28125 51.796875 
Q 16.75 56 26.8125 56 
Q 31.78125 56 36.171875 55.265625 
Q 40.578125 54.546875 44.28125 53.078125 
z
" id="DejaVuSans-73"/>
     </defs>
     <g transform="translate(218.327188 335.860562)scale(0.1 -0.1)">
      <use xlink:href="#DejaVuSans-65"/>
      <use x="61.523438" xlink:href="#DejaVuSans-70"/>
      <use x="125" xlink:href="#DejaVuSans-6f"/>
      <use x="186.181641" xlink:href="#DejaVuSans-63"/>
      <use x="241.162109" xlink:href="#DejaVuSans-68"/>
      <use x="304.541016" xlink:href="#DejaVuSans-73"/>
     </g>
    </g>
   </g>
   <g id="matplotlib.axis_2">
    <g id="ytick_1">
     <g id="line2d_13">
      <path clip-path="url(#peb5c103149)" d="M 57.6 294.518215 
L 414.72 294.518215 
" style="fill:none;stroke:#b0b0b0;stroke-linecap:square;stroke-width:0.8;"/>
     </g>
     <g id="line2d_14">
      <defs>
       <path d="M 0 0 
L -3.5 0 
" id="m9dda43fd71" style="stroke:#000000;stroke-width:0.8;"/>
      </defs>
      <g>
       <use style="stroke:#000000;stroke-width:0.8;" x="57.6" xlink:href="#m9dda43fd71" y="294.518215"/>
      </g>
     </g>
     <g id="text_8">
      <!-- $\mathdefault{10^{-2}}$ -->
      <defs>
       <path d="M 10.59375 35.5 
L 73.1875 35.5 
L 73.1875 27.203125 
L 10.59375 27.203125 
z
" id="DejaVuSans-2212"/>
      </defs>
      <g transform="translate(27.1 298.317434)scale(0.1 -0.1)">
       <use transform="translate(0 0.765625)" xlink:href="#DejaVuSans-31"/>
       <use transform="translate(63.623047 0.765625)" xlink:href="#DejaVuSans-30"/>
       <use transform="translate(128.203125 39.046875)scale(0.7)" xlink:href="#DejaVuSans-2212"/>
       <use transform="translate(186.855469 39.046875)scale(0.7)" xlink:href="#DejaVuSans-32"/>
      </g>
     </g>
    </g>
    <g id="ytick_2">
     <g id="line2d_15">
      <path clip-path="url(#peb5c103149)" d="M 57.6 210.169477 
L 414.72 210.169477 
" style="fill:none;stroke:#b0b0b0;stroke-linecap:square;stroke-width:0.8;"/>
     </g>
     <g id="line2d_16">
      <g>
       <use style="stroke:#000000;stroke-width:0.8;" x="57.6" xlink:href="#m9dda43fd71" y="210.169477"/>
      </g>
     </g>
     <g id="text_9">
      <!-- $\mathdefault{10^{-1}}$ -->
      <g transform="translate(27.1 213.968695)scale(0.1 -0.1)">
       <use transform="translate(0 0.684375)" xlink:href="#DejaVuSans-31"/>
       <use transform="translate(63.623047 0.684375)" xlink:href="#DejaVuSans-30"/>
       <use transform="translate(128.203125 38.965625)scale(0.7)" xlink:href="#DejaVuSans-2212"/>
       <use transform="translate(186.855469 38.965625)scale(0.7)" xlink:href="#DejaVuSans-31"/>
      </g>
     </g>
    </g>
    <g id="ytick_3">
     <g id="line2d_17">
      <path clip-path="url(#peb5c103149)" d="M 57.6 125.820738 
L 414.72 125.820738 
" style="fill:none;stroke:#b0b0b0;stroke-linecap:square;stroke-width:0.8;"/>
     </g>
     <g id="line2d_18">
      <g>
       <use style="stroke:#000000;stroke-width:0.8;" x="57.6" xlink:href="#m9dda43fd71" y="125.820738"/>
      </g>
     </g>
     <g id="text_10">
      <!-- $\mathdefault{10^{0}}$ -->
      <g transform="translate(33 129.619957)scale(0.1 -0.1)">
       <use transform="translate(0 0.765625)" xlink:href="#DejaVuSans-31"/>
       <use transform="translate(63.623047 0.765625)" xlink:href="#DejaVuSans-30"/>
       <use transform="translate(128.203125 39.046875)scale(0.7)" xlink:href="#DejaVuSans-30"/>
      </g>
     </g>
    </g>
    <g id="ytick_4">
     <g id="line2d_19">
      <path clip-path="url(#peb5c103149)" d="M 57.6 41.472 
L 414.72 41.472 
" style="fill:none;stroke:#b0b0b0;stroke-linecap:square;stroke-width:0.8;"/>
     </g>
     <g id="line2d_20">
      <g>
       <use style="stroke:#000000;stroke-width:0.8;" x="57.6" xlink:href="#m9dda43fd71" y="41.472"/>
      </g>
     </g>
     <g id="text_11">
      <!-- $\mathdefault{10^{1}}$ -->
      <g transform="translate(33 45.271219)scale(0.1 -0.1)">
       <use transform="translate(0 0.684375)" xlink:href="#DejaVuSans-31"/>
       <use transform="translate(63.623047 0.684375)" xlink:href="#DejaVuSans-30"/>
       <use transform="translate(128.203125 38.965625)scale(0.7)" xlink:href="#DejaVuSans-31"/>
      </g>
     </g>
    </g>
    <g id="ytick_5">
     <g id="line2d_21">
      <path clip-path="url(#peb5c103149)" d="M 57.6 307.584 
L 414.72 307.584 
" style="fill:none;stroke:#b0b0b0;stroke-linecap:square;stroke-width:0.8;"/>
     </g>
     <g id="line2d_22">
      <defs>
       <path d="M 0 0 
L -2 0 
" id="m284ebcf5b5" style="stroke:#000000;stroke-width:0.6;"/>
      </defs>
      <g>
       <use style="stroke:#000000;stroke-width:0.6;" x="57.6" xlink:href="#m284ebcf5b5" y="307.584"/>
      </g>
     </g>
    </g>
    <g id="ytick_6">
     <g id="line2d_23">
      <path clip-path="url(#peb5c103149)" d="M 57.6 302.692452 
L 414.72 302.692452 
" style="fill:none;stroke:#b0b0b0;stroke-linecap:square;stroke-width:0.8;"/>
     </g>
     <g id="line2d_24">
      <g>
       <use style="stroke:#000000;stroke-width:0.6;" x="57.6" xlink:href="#m284ebcf5b5" y="302.692452"/>
      </g>
     </g>
    </g>
    <g id="ytick_7">
     <g id="line2d_25">
      <path clip-path="url(#peb5c103149)" d="M 57.6 298.377802 
L 414.72 298.377802 
" style="fill:none;stroke:#b0b0b0;stroke-linecap:square;stroke-width:0.8;"/>
     </g>
     <g id="line2d_26">
      <g>
       <use style="stroke:#000000;stroke-width:0.6;" x="57.6" xlink:href="#m284ebcf5b5" y="298.377802"/>
      </g>
     </g>
    </g>
    <g id="ytick_8">
     <g id="line2d_27">
      <path clip-path="url(#peb5c103149)" d="M 57.6 269.126715 
L 414.72 269.126715 
" style="fill:none;stroke:#b0b0b0;stroke-linecap:square;stroke-width:0.8;"/>
     </g>
     <g id="line2d_28">
      <g>
       <use style="stroke:#000000;stroke-width:0.6;" x="57.6" xlink:href="#m284ebcf5b5" y="269.126715"/>
      </g>
     </g>
    </g>
    <g id="ytick_9">
     <g id="line2d_29">
      <path clip-path="url(#peb5c103149)" d="M 57.6 254.273639 
L 414.72 254.273639 
" style="fill:none;stroke:#b0b0b0;stroke-linecap:square;stroke-width:0.8;"/>
     </g>
     <g id="line2d_30">
      <g>
       <use style="stroke:#000000;stroke-width:0.6;" x="57.6" xlink:href="#m284ebcf5b5" y="254.273639"/>
      </g>
     </g>
    </g>
    <g id="ytick_10">
     <g id="line2d_31">
      <path clip-path="url(#peb5c103149)" d="M 57.6 243.735214 
L 414.72 243.735214 
" style="fill:none;stroke:#b0b0b0;stroke-linecap:square;stroke-width:0.8;"/>
     </g>
     <g id="line2d_32">
      <g>
       <use style="stroke:#000000;stroke-width:0.6;" x="57.6" xlink:href="#m284ebcf5b5" y="243.735214"/>
      </g>
     </g>
    </g>
    <g id="ytick_11">
     <g id="line2d_33">
      <path clip-path="url(#peb5c103149)" d="M 57.6 235.560977 
L 414.72 235.560977 
" style="fill:none;stroke:#b0b0b0;stroke-linecap:square;stroke-width:0.8;"/>
     </g>
     <g id="line2d_34">
      <g>
       <use style="stroke:#000000;stroke-width:0.6;" x="57.6" xlink:href="#m284ebcf5b5" y="235.560977"/>
      </g>
     </g>
    </g>
    <g id="ytick_12">
     <g id="line2d_35">
      <path clip-path="url(#peb5c103149)" d="M 57.6 228.882139 
L 414.72 228.882139 
" style="fill:none;stroke:#b0b0b0;stroke-linecap:square;stroke-width:0.8;"/>
     </g>
     <g id="line2d_36">
      <g>
       <use style="stroke:#000000;stroke-width:0.6;" x="57.6" xlink:href="#m284ebcf5b5" y="228.882139"/>
      </g>
     </g>
    </g>
    <g id="ytick_13">
     <g id="line2d_37">
      <path clip-path="url(#peb5c103149)" d="M 57.6 223.235262 
L 414.72 223.235262 
" style="fill:none;stroke:#b0b0b0;stroke-linecap:square;stroke-width:0.8;"/>
     </g>
     <g id="line2d_38">
      <g>
       <use style="stroke:#000000;stroke-width:0.6;" x="57.6" xlink:href="#m284ebcf5b5" y="223.235262"/>
      </g>
     </g>
    </g>
    <g id="ytick_14">
     <g id="line2d_39">
      <path clip-path="url(#peb5c103149)" d="M 57.6 218.343714 
L 414.72 218.343714 
" style="fill:none;stroke:#b0b0b0;stroke-linecap:square;stroke-width:0.8;"/>
     </g>
     <g id="line2d_40">
      <g>
       <use style="stroke:#000000;stroke-width:0.6;" x="57.6" xlink:href="#m284ebcf5b5" y="218.343714"/>
      </g>
     </g>
    </g>
    <g id="ytick_15">
     <g id="line2d_41">
      <path clip-path="url(#peb5c103149)" d="M 57.6 214.029063 
L 414.72 214.029063 
" style="fill:none;stroke:#b0b0b0;stroke-linecap:square;stroke-width:0.8;"/>
     </g>
     <g id="line2d_42">
      <g>
       <use style="stroke:#000000;stroke-width:0.6;" x="57.6" xlink:href="#m284ebcf5b5" y="214.029063"/>
      </g>
     </g>
    </g>
    <g id="ytick_16">
     <g id="line2d_43">
      <path clip-path="url(#peb5c103149)" d="M 57.6 184.777976 
L 414.72 184.777976 
" style="fill:none;stroke:#b0b0b0;stroke-linecap:square;stroke-width:0.8;"/>
     </g>
     <g id="line2d_44">
      <g>
       <use style="stroke:#000000;stroke-width:0.6;" x="57.6" xlink:href="#m284ebcf5b5" y="184.777976"/>
      </g>
     </g>
    </g>
    <g id="ytick_17">
     <g id="line2d_45">
      <path clip-path="url(#peb5c103149)" d="M 57.6 169.924901 
L 414.72 169.924901 
" style="fill:none;stroke:#b0b0b0;stroke-linecap:square;stroke-width:0.8;"/>
     </g>
     <g id="line2d_46">
      <g>
       <use style="stroke:#000000;stroke-width:0.6;" x="57.6" xlink:href="#m284ebcf5b5" y="169.924901"/>
      </g>
     </g>
    </g>
    <g id="ytick_18">
     <g id="line2d_47">
      <path clip-path="url(#peb5c103149)" d="M 57.6 159.386476 
L 414.72 159.386476 
" style="fill:none;stroke:#b0b0b0;stroke-linecap:square;stroke-width:0.8;"/>
     </g>
     <g id="line2d_48">
      <g>
       <use style="stroke:#000000;stroke-width:0.6;" x="57.6" xlink:href="#m284ebcf5b5" y="159.386476"/>
      </g>
     </g>
    </g>
    <g id="ytick_19">
     <g id="line2d_49">
      <path clip-path="url(#peb5c103149)" d="M 57.6 151.212239 
L 414.72 151.212239 
" style="fill:none;stroke:#b0b0b0;stroke-linecap:square;stroke-width:0.8;"/>
     </g>
     <g id="line2d_50">
      <g>
       <use style="stroke:#000000;stroke-width:0.6;" x="57.6" xlink:href="#m284ebcf5b5" y="151.212239"/>
      </g>
     </g>
    </g>
    <g id="ytick_20">
     <g id="line2d_51">
      <path clip-path="url(#peb5c103149)" d="M 57.6 144.533401 
L 414.72 144.533401 
" style="fill:none;stroke:#b0b0b0;stroke-linecap:square;stroke-width:0.8;"/>
     </g>
     <g id="line2d_52">
      <g>
       <use style="stroke:#000000;stroke-width:0.6;" x="57.6" xlink:href="#m284ebcf5b5" y="144.533401"/>
      </g>
     </g>
    </g>
    <g id="ytick_21">
     <g id="line2d_53">
      <path clip-path="url(#peb5c103149)" d="M 57.6 138.886523 
L 414.72 138.886523 
" style="fill:none;stroke:#b0b0b0;stroke-linecap:square;stroke-width:0.8;"/>
     </g>
     <g id="line2d_54">
      <g>
       <use style="stroke:#000000;stroke-width:0.6;" x="57.6" xlink:href="#m284ebcf5b5" y="138.886523"/>
      </g>
     </g>
    </g>
    <g id="ytick_22">
     <g id="line2d_55">
      <path clip-path="url(#peb5c103149)" d="M 57.6 133.994976 
L 414.72 133.994976 
" style="fill:none;stroke:#b0b0b0;stroke-linecap:square;stroke-width:0.8;"/>
     </g>
     <g id="line2d_56">
      <g>
       <use style="stroke:#000000;stroke-width:0.6;" x="57.6" xlink:href="#m284ebcf5b5" y="133.994976"/>
      </g>
     </g>
    </g>
    <g id="ytick_23">
     <g id="line2d_57">
      <path clip-path="url(#peb5c103149)" d="M 57.6 129.680325 
L 414.72 129.680325 
" style="fill:none;stroke:#b0b0b0;stroke-linecap:square;stroke-width:0.8;"/>
     </g>
     <g id="line2d_58">
      <g>
       <use style="stroke:#000000;stroke-width:0.6;" x="57.6" xlink:href="#m284ebcf5b5" y="129.680325"/>
      </g>
     </g>
    </g>
    <g id="ytick_24">
     <g id="line2d_59">
      <path clip-path="url(#peb5c103149)" d="M 57.6 100.429238 
L 414.72 100.429238 
" style="fill:none;stroke:#b0b0b0;stroke-linecap:square;stroke-width:0.8;"/>
     </g>
     <g id="line2d_60">
      <g>
       <use style="stroke:#000000;stroke-width:0.6;" x="57.6" xlink:href="#m284ebcf5b5" y="100.429238"/>
      </g>
     </g>
    </g>
    <g id="ytick_25">
     <g id="line2d_61">
      <path clip-path="url(#peb5c103149)" d="M 57.6 85.576162 
L 414.72 85.576162 
" style="fill:none;stroke:#b0b0b0;stroke-linecap:square;stroke-width:0.8;"/>
     </g>
     <g id="line2d_62">
      <g>
       <use style="stroke:#000000;stroke-width:0.6;" x="57.6" xlink:href="#m284ebcf5b5" y="85.576162"/>
      </g>
     </g>
    </g>
    <g id="ytick_26">
     <g id="line2d_63">
      <path clip-path="url(#peb5c103149)" d="M 57.6 75.037738 
L 414.72 75.037738 
" style="fill:none;stroke:#b0b0b0;stroke-linecap:square;stroke-width:0.8;"/>
     </g>
     <g id="line2d_64">
      <g>
       <use style="stroke:#000000;stroke-width:0.6;" x="57.6" xlink:href="#m284ebcf5b5" y="75.037738"/>
      </g>
     </g>
    </g>
    <g id="ytick_27">
     <g id="line2d_65">
      <path clip-path="url(#peb5c103149)" d="M 57.6 66.8635 
L 414.72 66.8635 
" style="fill:none;stroke:#b0b0b0;stroke-linecap:square;stroke-width:0.8;"/>
     </g>
     <g id="line2d_66">
      <g>
       <use style="stroke:#000000;stroke-width:0.6;" x="57.6" xlink:href="#m284ebcf5b5" y="66.8635"/>
      </g>
     </g>
    </g>
    <g id="ytick_28">
     <g id="line2d_67">
      <path clip-path="url(#peb5c103149)" d="M 57.6 60.184662 
L 414.72 60.184662 
" style="fill:none;stroke:#b0b0b0;stroke-linecap:square;stroke-width:0.8;"/>
     </g>
     <g id="line2d_68">
      <g>
       <use style="stroke:#000000;stroke-width:0.6;" x="57.6" xlink:href="#m284ebcf5b5" y="60.184662"/>
      </g>
     </g>
    </g>
    <g id="ytick_29">
     <g id="line2d_69">
      <path clip-path="url(#peb5c103149)" d="M 57.6 54.537785 
L 414.72 54.537785 
" style="fill:none;stroke:#b0b0b0;stroke-linecap:square;stroke-width:0.8;"/>
     </g>
     <g id="line2d_70">
      <g>
       <use style="stroke:#000000;stroke-width:0.6;" x="57.6" xlink:href="#m284ebcf5b5" y="54.537785"/>
      </g>
     </g>
    </g>
    <g id="ytick_30">
     <g id="line2d_71">
      <path clip-path="url(#peb5c103149)" d="M 57.6 49.646237 
L 414.72 49.646237 
" style="fill:none;stroke:#b0b0b0;stroke-linecap:square;stroke-width:0.8;"/>
     </g>
     <g id="line2d_72">
      <g>
       <use style="stroke:#000000;stroke-width:0.6;" x="57.6" xlink:href="#m284ebcf5b5" y="49.646237"/>
      </g>
     </g>
    </g>
    <g id="ytick_31">
     <g id="line2d_73">
      <path clip-path="url(#peb5c103149)" d="M 57.6 45.331587 
L 414.72 45.331587 
" style="fill:none;stroke:#b0b0b0;stroke-linecap:square;stroke-width:0.8;"/>
     </g>
     <g id="line2d_74">
      <g>
       <use style="stroke:#000000;stroke-width:0.6;" x="57.6" xlink:href="#m284ebcf5b5" y="45.331587"/>
      </g>
     </g>
    </g>
    <g id="text_12">
     <!-- test loss -->
     <defs>
      <path d="M 18.3125 70.21875 
L 18.3125 54.6875 
L 36.8125 54.6875 
L 36.8125 47.703125 
L 18.3125 47.703125 
L 18.3125 18.015625 
Q 18.3125 11.328125 20.140625 9.421875 
Q 21.96875 7.515625 27.59375 7.515625 
L 36.8125 7.515625 
L 36.8125 0 
L 27.59375 0 
Q 17.1875 0 13.234375 3.875 
Q 9.28125 7.765625 9.28125 18.015625 
L 9.28125 47.703125 
L 2.6875 47.703125 
L 2.6875 54.6875 
L 9.28125 54.6875 
L 9.28125 70.21875 
z
" id="DejaVuSans-74"/>
      <path id="DejaVuSans-20"/>
      <path d="M 9.421875 75.984375 
L 18.40625 75.984375 
L 18.40625 0 
L 9.421875 0 
z
" id="DejaVuSans-6c"/>
     </defs>
     <g transform="translate(21.020312 195.376438)rotate(-90)scale(0.1 -0.1)">
      <use xlink:href="#DejaVuSans-74"/>
      <use x="39.208984" xlink:href="#DejaVuSans-65"/>
      <use x="100.732422" xlink:href="#DejaVuSans-73"/>
      <use x="152.832031" xlink:href="#DejaVuSans-74"/>
      <use x="192.041016" xlink:href="#DejaVuSans-20"/>
      <use x="223.828125" xlink:href="#DejaVuSans-6c"/>
      <use x="251.611328" xlink:href="#DejaVuSans-6f"/>
      <use x="312.792969" xlink:href="#DejaVuSans-73"/>
      <use x="364.892578" xlink:href="#DejaVuSans-73"/>
     </g>
    </g>
   </g>
   <g id="line2d_75">
    <path clip-path="url(#peb5c103149)" d="M 78.356355 -1 
L 79.800642 156.687328 
L 80.397433 202.82338 
L 80.994225 232.136334 
L 82.187807 246.147278 
L 82.784599 248.678603 
L 83.38139 245.778157 
L 83.978182 248.226045 
L 84.574973 248.400756 
L 85.171765 247.919399 
L 85.768556 246.098314 
L 86.365348 247.635837 
L 86.962139 247.33848 
L 87.55893 248.480303 
L 88.155722 248.656961 
L 88.752513 246.651403 
L 89.349305 247.6678 
L 89.946096 249.10237 
L 90.542888 249.445083 
L 91.139679 246.152553 
L 91.736471 248.174178 
L 92.333262 248.277675 
L 92.930053 247.920968 
L 93.526845 244.666563 
L 94.123636 247.574511 
L 94.720428 248.392511 
L 95.317219 249.658616 
L 95.914011 249.139021 
L 96.510802 249.205525 
L 97.107594 248.820141 
L 97.704385 249.856428 
L 98.301176 248.001842 
L 98.897968 248.632876 
L 99.494759 249.506166 
L 100.091551 246.215819 
L 100.688342 248.059701 
L 101.881925 247.622571 
L 102.478717 249.842732 
L 103.075508 248.400299 
L 103.672299 244.787274 
L 104.269091 247.816545 
L 104.865882 247.111818 
L 105.462674 249.380206 
L 106.059465 245.73532 
L 106.656257 248.867758 
L 107.253048 247.514904 
L 107.84984 249.331249 
L 108.446631 248.607658 
L 109.043422 249.68369 
L 109.640214 247.923132 
L 110.237005 249.519002 
L 110.833797 246.307976 
L 111.430588 248.691521 
L 112.02738 247.687365 
L 112.624171 250.14224 
L 113.220963 247.873972 
L 113.817754 247.774768 
L 114.414545 247.884969 
L 115.011337 246.940336 
L 115.608128 246.389566 
L 116.20492 249.67977 
L 116.801711 247.88082 
L 117.398503 249.693774 
L 117.995294 250.114374 
L 118.592086 250.212414 
L 119.188877 247.938694 
L 119.785668 247.010965 
L 120.38246 247.835639 
L 120.979251 249.924143 
L 122.172834 248.990977 
L 122.769626 248.81868 
L 123.366417 247.838633 
L 123.963209 244.932405 
L 124.56 248.916642 
L 125.156791 246.948776 
L 125.753583 247.714639 
L 126.350374 249.116626 
L 126.947166 249.421678 
L 127.543957 247.618754 
L 128.73754 249.686785 
L 129.334332 249.363047 
L 129.931123 247.425258 
L 130.527914 248.977914 
L 131.124706 248.746997 
L 131.721497 249.868344 
L 132.318289 247.503909 
L 132.91508 248.601532 
L 133.511872 245.604626 
L 134.108663 249.242277 
L 135.302246 245.334409 
L 135.899037 244.452868 
L 136.495829 250.06439 
L 137.09262 246.746819 
L 137.689412 247.035965 
L 138.286203 246.484999 
L 138.882995 247.371975 
L 139.479786 247.111614 
L 140.076578 247.827357 
L 140.673369 249.92128 
L 141.27016 249.199519 
L 141.866952 245.932712 
L 143.060535 247.526277 
L 144.254118 249.284077 
L 144.850909 250.195025 
L 145.447701 249.355647 
L 146.044492 244.11985 
L 146.641283 242.900841 
L 147.238075 247.515414 
L 148.431658 248.740172 
L 149.028449 247.533786 
L 149.625241 246.938459 
L 150.222032 243.991739 
L 150.818824 246.294256 
L 151.415615 245.211623 
L 152.012406 247.868394 
L 152.609198 248.475725 
L 153.205989 250.215892 
L 153.802781 248.901876 
L 154.399572 248.019204 
L 154.996364 249.767975 
L 155.593155 247.313122 
L 156.189947 248.649492 
L 156.786738 247.600484 
L 157.383529 247.87835 
L 157.980321 249.402586 
L 158.577112 248.26257 
L 159.173904 248.372148 
L 159.770695 250.213404 
L 160.367487 244.16503 
L 160.964278 248.273519 
L 161.56107 246.674368 
L 162.157861 250.160004 
L 162.754652 249.615691 
L 163.351444 247.364612 
L 163.948235 247.608663 
L 164.545027 245.912124 
L 165.141818 243.294071 
L 165.73861 249.847503 
L 166.335401 249.919735 
L 166.932193 247.837997 
L 167.528984 249.066383 
L 168.125775 247.6428 
L 168.722567 247.401033 
L 169.319358 248.276324 
L 169.91615 248.092657 
L 170.512941 246.74743 
L 171.109733 248.392921 
L 171.706524 246.908699 
L 172.303316 247.727754 
L 172.900107 248.818893 
L 173.496898 246.398251 
L 174.09369 248.403859 
L 174.690481 247.274283 
L 175.287273 249.613393 
L 175.884064 249.41798 
L 176.480856 249.454048 
L 177.077647 249.75623 
L 177.674439 247.87966 
L 178.27123 249.541018 
L 178.868021 249.044501 
L 179.464813 250.152089 
L 180.061604 249.350514 
L 180.658396 248.20515 
L 181.255187 249.895441 
L 181.851979 249.978148 
L 182.44877 248.40253 
L 183.045561 248.673058 
L 183.642353 244.963437 
L 184.835936 248.18406 
L 185.432727 248.796631 
L 186.029519 245.682976 
L 186.62631 247.862453 
L 187.223102 249.1758 
L 187.819893 246.121637 
L 188.416684 248.950258 
L 189.013476 247.539189 
L 189.610267 249.224145 
L 190.207059 249.034113 
L 190.80385 247.113984 
L 191.400642 244.609014 
L 191.997433 246.187562 
L 192.594225 249.744596 
L 193.191016 248.727501 
L 193.787807 248.394932 
L 194.384599 248.876074 
L 194.98139 248.82181 
L 195.578182 249.186335 
L 196.174973 249.00724 
L 196.771765 249.074418 
L 197.368556 249.271431 
L 197.965348 246.486242 
L 198.562139 246.354885 
L 199.15893 248.687067 
L 199.755722 247.807067 
L 200.352513 245.638503 
L 200.949305 249.332654 
L 201.546096 250.026288 
L 202.142888 247.774895 
L 202.739679 247.951167 
L 203.336471 245.492433 
L 203.933262 248.064904 
L 204.530053 246.415004 
L 205.126845 248.76467 
L 205.723636 249.311372 
L 206.320428 247.600949 
L 206.917219 247.386065 
L 207.514011 249.87013 
L 208.110802 247.397155 
L 208.707594 247.835172 
L 209.304385 244.374486 
L 209.901176 249.557763 
L 210.497968 247.082274 
L 211.094759 249.292323 
L 211.691551 250.070414 
L 212.288342 249.218618 
L 212.885134 249.621152 
L 213.481925 245.695444 
L 214.078717 247.594717 
L 214.675508 246.628425 
L 215.272299 247.493269 
L 215.869091 243.675049 
L 216.465882 248.67106 
L 217.062674 245.113122 
L 217.659465 248.709714 
L 218.256257 247.03138 
L 218.853048 249.856405 
L 219.44984 248.439389 
L 220.046631 244.07916 
L 220.643422 242.358795 
L 221.240214 246.459562 
L 221.837005 245.936487 
L 222.433797 246.858031 
L 223.030588 248.710323 
L 223.62738 245.731723 
L 224.224171 246.109055 
L 224.820963 248.33658 
L 225.417754 248.978305 
L 226.014545 249.266373 
L 226.611337 247.616701 
L 227.208128 247.80358 
L 227.80492 250.299753 
L 228.401711 250.167285 
L 228.998503 248.135646 
L 229.595294 247.582757 
L 230.192086 244.228809 
L 231.385668 249.518454 
L 231.98246 249.205085 
L 232.579251 249.432287 
L 233.176043 250.218733 
L 233.772834 248.006067 
L 234.369626 248.026441 
L 234.966417 247.558122 
L 235.563209 249.819622 
L 236.16 249.171199 
L 236.756791 247.360671 
L 237.950374 249.251252 
L 238.547166 247.922193 
L 239.143957 249.061591 
L 240.33754 249.65542 
L 240.934332 246.991157 
L 241.531123 241.097294 
L 242.724706 249.56787 
L 243.321497 245.533902 
L 243.918289 249.781425 
L 244.51508 249.453787 
L 245.111872 245.706338 
L 245.708663 248.888969 
L 246.305455 249.649883 
L 246.902246 249.364662 
L 247.499037 246.986353 
L 248.095829 247.263935 
L 248.69262 247.73449 
L 249.289412 246.944943 
L 250.482995 246.836758 
L 251.079786 248.962973 
L 251.676578 247.023523 
L 252.273369 248.648922 
L 252.87016 248.795737 
L 253.466952 249.300974 
L 254.063743 249.115943 
L 254.660535 249.749446 
L 255.257326 249.96057 
L 255.854118 249.735119 
L 257.047701 243.959726 
L 257.644492 249.643411 
L 258.241283 249.596412 
L 259.434866 246.545495 
L 260.031658 244.398887 
L 260.628449 248.840019 
L 261.225241 249.063504 
L 261.822032 247.548718 
L 262.418824 249.389167 
L 263.015615 247.226702 
L 263.612406 247.441209 
L 264.209198 249.847079 
L 264.805989 243.736708 
L 265.402781 250.113072 
L 265.999572 249.714308 
L 266.596364 247.80803 
L 267.193155 249.720444 
L 267.789947 245.322055 
L 268.386738 249.596654 
L 268.983529 249.260216 
L 269.580321 248.521157 
L 270.177112 244.955689 
L 270.773904 248.437441 
L 271.370695 240.708384 
L 271.967487 249.192278 
L 272.564278 246.983218 
L 273.16107 247.783501 
L 273.757861 246.824532 
L 274.354652 244.218302 
L 274.951444 247.061954 
L 276.145027 250.204221 
L 276.741818 246.283677 
L 277.33861 249.918262 
L 277.935401 243.536737 
L 279.128984 249.719307 
L 279.725775 248.61898 
L 280.322567 249.545775 
L 280.919358 250.245941 
L 281.51615 250.104336 
L 282.709733 248.189738 
L 283.306524 248.035434 
L 283.903316 249.727954 
L 284.500107 247.126709 
L 285.096898 247.405205 
L 285.69369 247.255041 
L 286.290481 248.445124 
L 286.887273 247.6376 
L 287.484064 248.897317 
L 288.080856 248.764913 
L 288.677647 250.038349 
L 289.274439 248.560235 
L 289.87123 241.94898 
L 290.468021 245.744186 
L 291.064813 248.447086 
L 291.661604 249.714908 
L 292.258396 248.549617 
L 292.855187 243.608036 
L 293.451979 247.443551 
L 294.04877 249.180369 
L 294.645561 248.594937 
L 295.242353 246.422841 
L 295.839144 247.528027 
L 296.435936 248.12921 
L 297.032727 245.439642 
L 297.629519 248.404595 
L 298.22631 247.039915 
L 298.823102 247.022145 
L 299.419893 249.746266 
L 300.016684 248.457086 
L 300.613476 249.586739 
L 301.210267 249.578731 
L 301.807059 246.850864 
L 302.40385 247.415254 
L 303.000642 249.915069 
L 303.597433 248.115321 
L 304.194225 247.168372 
L 304.791016 249.225128 
L 305.387807 249.07554 
L 305.984599 249.529273 
L 306.58139 250.171497 
L 307.178182 248.846663 
L 307.774973 247.051517 
L 308.371765 248.314515 
L 309.565348 246.254024 
L 310.162139 247.103396 
L 310.75893 249.860828 
L 311.355722 248.962579 
L 311.952513 249.741357 
L 312.549305 246.847507 
L 313.146096 247.868088 
L 313.742888 247.937861 
L 314.339679 246.248255 
L 314.936471 250.02062 
L 315.533262 246.332687 
L 316.130053 246.700499 
L 316.726845 246.214473 
L 317.323636 248.39842 
L 317.920428 244.089979 
L 318.517219 247.169771 
L 319.114011 249.442159 
L 320.307594 245.714479 
L 320.904385 250.018398 
L 321.501176 248.46011 
L 322.097968 249.39011 
L 322.694759 248.802062 
L 324.485134 248.953398 
L 325.081925 248.787575 
L 325.678717 242.998073 
L 326.275508 244.377192 
L 326.872299 247.636098 
L 327.469091 248.577572 
L 328.065882 244.908242 
L 328.662674 246.306104 
L 329.259465 245.077752 
L 329.856257 249.094675 
L 330.453048 247.382261 
L 331.04984 246.306868 
L 331.646631 246.897045 
L 332.243422 248.496336 
L 332.840214 248.139722 
L 333.437005 247.110913 
L 334.033797 247.489856 
L 334.630588 247.350918 
L 335.22738 247.423251 
L 336.420963 248.351148 
L 337.017754 249.377871 
L 337.614545 249.467104 
L 338.211337 247.780913 
L 338.808128 249.251858 
L 339.40492 247.075695 
L 340.001711 249.277623 
L 340.598503 247.511455 
L 341.195294 247.485051 
L 342.388877 249.479248 
L 342.985668 248.250361 
L 343.58246 248.419438 
L 344.179251 249.996692 
L 344.776043 247.771577 
L 345.372834 247.960443 
L 345.969626 246.688722 
L 346.566417 248.741267 
L 347.163209 246.581072 
L 347.76 245.423238 
L 348.356791 245.923188 
L 348.953583 246.899975 
L 349.550374 246.091654 
L 350.147166 248.121025 
L 350.743957 246.238559 
L 351.93754 248.673872 
L 352.534332 246.590319 
L 353.131123 247.78859 
L 353.727914 246.487262 
L 354.324706 249.67245 
L 354.921497 247.767898 
L 355.518289 249.357361 
L 356.11508 244.45451 
L 356.711872 247.936572 
L 357.905455 249.709478 
L 358.502246 249.480538 
L 359.099037 249.631223 
L 359.695829 248.915746 
L 360.29262 250.208016 
L 361.486203 249.44783 
L 362.082995 250.170614 
L 362.679786 249.5737 
L 363.276578 248.167135 
L 363.873369 245.367566 
L 364.47016 245.486196 
L 365.066952 244.15334 
L 365.663743 247.183225 
L 366.260535 247.433926 
L 366.857326 245.047969 
L 367.454118 247.299428 
L 368.050909 250.269796 
L 369.244492 249.589945 
L 369.841283 249.177854 
L 370.438075 246.955587 
L 371.034866 249.525046 
L 371.631658 249.262754 
L 372.228449 248.655373 
L 372.825241 248.926905 
L 373.422032 246.526181 
L 374.018824 249.500372 
L 374.615615 245.478443 
L 375.212406 249.534414 
L 376.405989 249.638915 
L 377.002781 247.547956 
L 377.599572 248.957495 
L 378.196364 248.870212 
L 378.793155 249.099985 
L 379.389947 249.590886 
L 379.986738 249.924273 
L 380.583529 247.327467 
L 381.180321 246.172242 
L 381.777112 249.174186 
L 382.373904 248.380018 
L 382.970695 245.222411 
L 383.567487 245.451797 
L 384.164278 245.854743 
L 384.76107 245.631108 
L 385.357861 249.046558 
L 385.954652 248.646795 
L 386.551444 247.369664 
L 387.148235 248.453144 
L 387.745027 247.392226 
L 388.341818 247.817072 
L 388.93861 246.242409 
L 389.535401 248.681223 
L 390.132193 248.993882 
L 390.728984 248.287704 
L 391.325775 246.024982 
L 391.922567 247.880912 
L 392.519358 246.26551 
L 393.11615 247.9911 
L 393.712941 245.187239 
L 394.309733 244.046875 
L 394.906524 245.871533 
L 395.503316 248.517671 
L 396.100107 249.24328 
L 396.696898 248.173376 
L 397.29369 245.335927 
L 397.890481 246.365103 
L 398.487273 248.581513 
L 398.487273 248.581513 
" style="fill:none;stroke:#1f77b4;stroke-linecap:square;stroke-width:1.5;"/>
   </g>
   <g id="line2d_76">
    <path clip-path="url(#peb5c103149)" d="M 73.832727 246.045459 
L 74.429519 248.81922 
L 75.02631 249.569881 
L 75.623102 251.61846 
L 76.219893 251.302558 
L 77.413476 253.629587 
L 78.010267 254.228655 
L 78.607059 252.944508 
L 79.20385 253.326225 
L 79.800642 254.063738 
L 80.994225 254.155555 
L 81.591016 253.156891 
L 82.187807 255.836314 
L 82.784599 255.475274 
L 83.38139 252.999881 
L 83.978182 255.547645 
L 84.574973 255.068877 
L 85.171765 255.374597 
L 85.768556 255.921888 
L 86.962139 255.217218 
L 87.55893 255.428208 
L 88.155722 256.270909 
L 88.752513 255.705286 
L 89.349305 255.964997 
L 89.946096 255.809451 
L 90.542888 256.26014 
L 91.139679 255.187599 
L 91.736471 254.535935 
L 92.333262 256.37343 
L 92.930053 255.715903 
L 93.526845 253.886764 
L 94.123636 254.529849 
L 95.317219 256.536115 
L 95.914011 256.041471 
L 96.510802 255.150615 
L 97.107594 256.322419 
L 97.704385 256.094956 
L 98.301176 255.553618 
L 99.494759 255.742242 
L 100.091551 256.080523 
L 100.688342 255.482091 
L 101.285134 254.665571 
L 101.881925 255.442013 
L 102.478717 256.036022 
L 103.075508 255.222049 
L 103.672299 255.898567 
L 104.269091 254.690371 
L 104.865882 255.27619 
L 105.462674 255.453328 
L 106.059465 255.014409 
L 106.656257 256.110358 
L 107.253048 254.723055 
L 107.84984 256.37341 
L 108.446631 255.486327 
L 109.043422 256.226931 
L 109.640214 256.035469 
L 110.237005 256.485606 
L 110.833797 256.519469 
L 111.430588 256.138922 
L 112.02738 255.415344 
L 112.624171 256.371133 
L 113.220963 255.446007 
L 113.817754 254.780164 
L 114.414545 256.738066 
L 115.011337 256.09513 
L 115.608128 255.656249 
L 116.20492 256.302517 
L 116.801711 255.593063 
L 117.398503 256.544442 
L 117.995294 256.298135 
L 118.592086 256.82956 
L 119.785668 255.688908 
L 120.38246 256.788233 
L 120.979251 256.911613 
L 121.576043 255.766762 
L 123.963209 255.889529 
L 124.56 256.195865 
L 125.156791 255.579633 
L 125.753583 256.325049 
L 126.350374 256.465675 
L 126.947166 256.26208 
L 127.543957 256.379112 
L 128.140749 255.834799 
L 128.73754 256.214579 
L 129.334332 255.225026 
L 129.931123 256.527757 
L 130.527914 256.669879 
L 131.124706 256.666243 
L 131.721497 256.538337 
L 132.318289 256.141076 
L 132.91508 256.093973 
L 133.511872 256.180502 
L 134.705455 257.051349 
L 135.302246 256.138776 
L 135.899037 256.023552 
L 136.495829 257.037449 
L 137.09262 255.898091 
L 137.689412 256.086726 
L 138.286203 255.599355 
L 138.882995 256.260961 
L 139.479786 255.981337 
L 140.673369 256.896445 
L 141.27016 256.145846 
L 142.463743 256.9336 
L 143.060535 256.090952 
L 143.657326 256.782384 
L 144.254118 256.248043 
L 144.850909 256.844044 
L 146.044492 254.312164 
L 146.641283 255.410184 
L 147.238075 256.988026 
L 147.834866 257.100873 
L 148.431658 255.592102 
L 149.028449 257.19769 
L 149.625241 255.686811 
L 150.222032 255.510014 
L 150.818824 257.140873 
L 151.415615 256.925989 
L 152.609198 257.049663 
L 153.205989 257.005476 
L 153.802781 256.824345 
L 154.399572 255.789203 
L 154.996364 256.689861 
L 155.593155 256.16922 
L 156.189947 256.556884 
L 156.786738 257.31471 
L 157.383529 256.918879 
L 157.980321 256.199532 
L 159.173904 256.820169 
L 159.770695 256.932731 
L 160.367487 256.466765 
L 160.964278 257.017395 
L 161.56107 256.276498 
L 162.157861 257.104462 
L 162.754652 257.190838 
L 163.351444 256.94246 
L 163.948235 256.132436 
L 164.545027 254.979605 
L 165.141818 257.204888 
L 165.73861 257.457631 
L 166.335401 257.575042 
L 166.932193 256.677373 
L 167.528984 257.669901 
L 168.125775 257.085434 
L 168.722567 255.912888 
L 169.319358 256.829597 
L 169.91615 256.379961 
L 170.512941 256.453349 
L 171.109733 256.79679 
L 171.706524 257.304746 
L 172.303316 257.656033 
L 172.900107 257.510154 
L 174.09369 256.477207 
L 174.690481 257.660783 
L 175.884064 257.609183 
L 177.077647 257.64084 
L 177.674439 255.786122 
L 179.464813 257.852904 
L 180.061604 257.488532 
L 180.658396 257.328793 
L 181.255187 257.535391 
L 181.851979 257.481974 
L 182.44877 257.715566 
L 183.045561 257.728845 
L 183.642353 256.801519 
L 184.239144 256.970889 
L 184.835936 257.732115 
L 186.029519 256.041563 
L 187.223102 257.483878 
L 187.819893 256.343618 
L 188.416684 256.964421 
L 189.013476 256.848106 
L 189.610267 258.142572 
L 190.207059 257.446774 
L 190.80385 257.455672 
L 191.400642 256.948565 
L 191.997433 257.323619 
L 192.594225 257.529323 
L 193.191016 256.184301 
L 193.787807 256.815832 
L 194.384599 257.894435 
L 194.98139 257.64826 
L 195.578182 257.838282 
L 196.174973 257.238418 
L 196.771765 257.528483 
L 197.368556 257.436524 
L 197.965348 257.479268 
L 198.562139 257.242073 
L 199.15893 258.061769 
L 199.755722 257.294486 
L 200.352513 257.428645 
L 200.949305 256.352831 
L 201.546096 258.03894 
L 202.142888 256.987648 
L 202.739679 257.660343 
L 203.336471 257.685382 
L 203.933262 257.078908 
L 204.530053 257.744644 
L 205.126845 258.241508 
L 205.723636 257.857634 
L 206.917219 256.38744 
L 207.514011 258.003136 
L 208.110802 257.716126 
L 208.707594 258.058473 
L 209.304385 257.001553 
L 209.901176 257.086602 
L 210.497968 257.352982 
L 211.094759 258.116313 
L 211.691551 258.457345 
L 212.885134 257.898464 
L 213.481925 257.100566 
L 214.078717 257.750839 
L 214.675508 257.072566 
L 215.272299 256.99854 
L 215.869091 257.530767 
L 216.465882 258.22785 
L 217.062674 257.210946 
L 217.659465 257.484075 
L 218.853048 258.294699 
L 219.44984 258.147235 
L 220.046631 256.620995 
L 220.643422 257.303414 
L 221.240214 257.122767 
L 221.837005 257.846391 
L 222.433797 257.490156 
L 223.030588 258.074442 
L 223.62738 258.043841 
L 224.224171 257.561178 
L 224.820963 257.891117 
L 225.417754 258.516638 
L 226.014545 258.106923 
L 226.611337 258.636541 
L 227.208128 258.380519 
L 227.80492 258.61145 
L 228.401711 258.434154 
L 228.998503 258.061659 
L 229.595294 258.097745 
L 230.788877 257.292399 
L 231.385668 258.183511 
L 231.98246 258.224977 
L 232.579251 258.706951 
L 233.176043 258.53735 
L 233.772834 257.967607 
L 234.966417 258.529665 
L 235.563209 258.37109 
L 236.16 258.337491 
L 236.756791 257.973015 
L 237.353583 258.633951 
L 237.950374 258.634752 
L 238.547166 257.987568 
L 239.143957 258.768526 
L 239.740749 258.529522 
L 240.33754 258.763802 
L 240.934332 257.686765 
L 241.531123 257.962142 
L 242.127914 258.591699 
L 242.724706 259.010966 
L 243.321497 257.103067 
L 243.918289 258.557408 
L 244.51508 258.767869 
L 245.111872 258.120433 
L 245.708663 258.41784 
L 246.305455 259.111411 
L 246.902246 259.045879 
L 247.499037 258.545076 
L 248.095829 258.790583 
L 248.69262 258.552602 
L 249.289412 258.930793 
L 250.482995 257.420401 
L 251.079786 258.618249 
L 252.273369 258.465893 
L 252.87016 258.723441 
L 253.466952 258.56998 
L 253.466952 258.56998 
" style="fill:none;stroke:#ff7f0e;stroke-linecap:square;stroke-width:1.5;"/>
   </g>
   <g id="line2d_77">
    <path clip-path="url(#peb5c103149)" d="M 73.832727 170.882325 
L 74.429519 203.945825 
L 75.02631 226.60899 
L 75.623102 238.781572 
L 76.219893 244.095624 
L 76.816684 246.366058 
L 77.413476 247.369808 
L 78.010267 247.979856 
L 79.20385 248.491093 
L 83.978182 249.615705 
L 85.768556 249.920841 
L 86.962139 250.175266 
L 102.478717 252.41466 
L 109.043422 253.097378 
L 123.963209 254.280466 
L 141.866952 255.091406 
L 166.932193 255.687905 
L 174.09369 255.81287 
L 177.077647 255.860299 
L 180.061604 255.893363 
L 182.44877 255.912301 
L 184.239144 255.947798 
L 191.997433 255.988033 
L 199.15893 256.064506 
L 200.949305 256.056665 
L 205.723636 256.077183 
L 209.901176 256.095687 
L 221.240214 256.150381 
L 225.417754 256.185455 
L 289.274439 256.290788 
L 292.258396 256.277029 
L 298.823102 256.308963 
L 301.807059 256.294361 
L 307.178182 256.331149 
L 317.323636 256.332539 
L 323.888342 256.357095 
L 330.453048 256.339511 
L 338.808128 256.363263 
L 340.001711 256.377536 
L 340.001711 256.377536 
" style="fill:none;stroke:#2ca02c;stroke-linecap:square;stroke-width:1.5;"/>
   </g>
   <g id="line2d_78">
    <path clip-path="url(#peb5c103149)" d="M 73.832727 241.054714 
L 74.429519 265.490831 
L 75.02631 285.515943 
L 75.623102 285.195332 
L 76.219893 290.524361 
L 76.816684 290.736797 
L 77.413476 291.764971 
L 78.010267 291.185481 
L 78.607059 290.473597 
L 79.20385 294.082363 
L 79.800642 294.258336 
L 80.397433 291.776552 
L 80.994225 292.903037 
L 81.591016 291.297318 
L 82.187807 294.013261 
" style="fill:none;stroke:#d62728;stroke-dasharray:5.55,2.4;stroke-dashoffset:0;stroke-width:1.5;"/>
   </g>
   <g id="line2d_79">
    <path clip-path="url(#peb5c103149)" d="M 73.832727 241.054714 
L 74.429519 265.490831 
L 75.02631 282.347097 
L 75.623102 285.717088 
L 76.219893 291.269406 
L 76.816684 290.878402 
L 77.413476 289.46307 
L 78.010267 291.105169 
L 78.607059 289.998944 
L 79.20385 292.922991 
L 79.800642 294.146933 
L 80.397433 291.695645 
L 80.994225 292.83848 
L 81.591016 291.341425 
L 82.187807 294.868696 
L 82.784599 293.286035 
L 83.38139 294.983588 
L 83.978182 296.198603 
L 84.574973 295.699654 
L 85.171765 293.721957 
L 85.768556 288.593678 
L 86.365348 293.701812 
" style="fill:none;stroke:#9467bd;stroke-dasharray:5.55,2.4;stroke-dashoffset:0;stroke-width:1.5;"/>
   </g>
   <g id="line2d_80">
    <path clip-path="url(#peb5c103149)" d="M 73.832727 241.054714 
L 74.429519 265.490831 
L 75.02631 288.472953 
L 75.623102 284.568227 
L 76.219893 289.95789 
L 76.816684 290.417167 
L 77.413476 288.171959 
L 78.010267 288.78666 
L 78.607059 287.270598 
L 79.20385 291.540012 
L 79.800642 292.933397 
L 80.397433 291.31901 
L 80.994225 292.840224 
L 81.591016 292.100327 
L 82.187807 289.128532 
L 82.784599 291.043691 
L 83.38139 291.824756 
L 83.978182 294.301695 
L 84.574973 293.242304 
L 85.171765 294.427948 
L 85.768556 286.538092 
L 86.365348 289.888031 
L 86.962139 290.691303 
L 87.55893 295.286179 
L 88.155722 293.097176 
L 88.752513 291.331403 
L 89.349305 293.729323 
L 89.946096 291.86537 
L 90.542888 289.571752 
L 91.139679 294.697147 
L 91.736471 292.042762 
L 92.333262 288.474 
L 92.930053 293.836364 
L 93.526845 295.138522 
L 94.123636 293.0906 
L 94.720428 295.018687 
L 95.317219 291.68701 
L 95.914011 290.668332 
" style="fill:none;stroke:#8c564b;stroke-dasharray:5.55,2.4;stroke-dashoffset:0;stroke-width:1.5;"/>
   </g>
   <g id="line2d_81">
    <path clip-path="url(#peb5c103149)" d="M 73.832727 241.054714 
L 74.429519 265.490831 
L 75.02631 288.855254 
L 75.623102 289.866087 
L 76.219893 290.900821 
L 76.816684 290.950841 
L 77.413476 291.735714 
L 78.010267 291.750138 
L 78.607059 291.671316 
L 79.20385 291.230881 
L 79.800642 291.770433 
L 80.397433 289.602163 
L 80.994225 290.759938 
L 81.591016 290.672224 
L 82.187807 292.374707 
L 82.784599 291.06496 
L 83.38139 291.341291 
L 83.978182 292.705069 
L 84.574973 292.064819 
L 85.171765 292.114443 
L 85.768556 289.054004 
L 86.365348 291.473347 
L 86.962139 291.286708 
L 87.55893 292.245315 
L 88.155722 292.879711 
L 88.752513 290.279 
L 89.349305 291.684304 
L 89.946096 290.405521 
L 90.542888 290.958463 
L 91.139679 291.877473 
L 91.736471 291.511024 
L 92.333262 292.84328 
L 92.930053 292.548633 
L 93.526845 290.724426 
L 94.123636 291.469512 
L 94.720428 292.83194 
L 95.317219 290.694888 
L 95.914011 290.877596 
L 96.510802 290.932006 
L 97.107594 292.578161 
L 97.704385 292.093659 
L 98.301176 293.139946 
L 98.897968 292.165626 
L 99.494759 292.406986 
L 100.091551 292.419323 
L 100.688342 292.808763 
L 101.285134 291.088906 
L 101.881925 292.216561 
L 102.478717 292.913587 
L 103.075508 293.473543 
L 103.672299 293.828847 
L 104.269091 292.675433 
L 104.865882 292.770321 
" style="fill:none;stroke:#e377c2;stroke-dasharray:5.55,2.4;stroke-dashoffset:0;stroke-width:1.5;"/>
   </g>
   <g id="line2d_82">
    <path clip-path="url(#peb5c103149)" d="M 73.832727 241.054714 
L 74.429519 265.490831 
L 75.02631 288.786463 
L 75.623102 288.989118 
L 76.219893 288.973067 
L 76.816684 289.074713 
L 77.413476 289.987624 
L 78.010267 290.31185 
L 78.607059 290.753758 
L 79.20385 290.505807 
L 79.800642 290.021644 
L 80.397433 288.751295 
L 80.994225 289.160277 
L 81.591016 289.409138 
L 82.187807 290.643832 
L 82.784599 290.826785 
L 83.38139 290.32081 
L 83.978182 291.466099 
L 84.574973 290.89051 
L 85.171765 291.380981 
L 85.768556 289.577949 
L 86.365348 290.659719 
L 86.962139 290.911812 
L 87.55893 291.040122 
L 88.155722 291.633052 
L 88.752513 290.084193 
L 89.349305 290.77379 
L 89.946096 291.209307 
L 90.542888 290.909917 
L 91.139679 291.337215 
L 91.736471 290.801518 
L 92.333262 291.920107 
L 92.930053 291.254376 
L 93.526845 291.131724 
L 94.123636 291.555179 
L 94.720428 291.974531 
L 95.317219 290.658926 
L 95.914011 291.101654 
L 96.510802 290.632958 
L 97.107594 291.606795 
L 97.704385 290.903579 
L 98.301176 291.796366 
L 98.897968 291.801725 
L 99.494759 292.080689 
L 100.091551 291.555663 
L 100.688342 291.91191 
L 101.285134 290.937087 
L 101.881925 291.635518 
L 102.478717 291.728533 
L 103.075508 292.202807 
L 103.672299 292.417757 
L 104.269091 292.21461 
L 104.865882 291.313821 
L 105.462674 290.975647 
L 106.059465 290.802926 
L 106.656257 291.504378 
L 107.253048 291.523505 
L 107.84984 290.584831 
L 108.446631 291.455736 
L 109.043422 291.968365 
L 109.640214 291.020185 
L 110.237005 291.713805 
L 110.833797 292.04942 
L 111.430588 292.505946 
L 112.02738 291.465934 
L 112.624171 291.633097 
" style="fill:none;stroke:#7f7f7f;stroke-dasharray:5.55,2.4;stroke-dashoffset:0;stroke-width:1.5;"/>
   </g>
   <g id="patch_3">
    <path d="M 57.6 307.584 
L 57.6 41.472 
" style="fill:none;stroke:#000000;stroke-linecap:square;stroke-linejoin:miter;stroke-width:0.8;"/>
   </g>
   <g id="patch_4">
    <path d="M 414.72 307.584 
L 414.72 41.472 
" style="fill:none;stroke:#000000;stroke-linecap:square;stroke-linejoin:miter;stroke-width:0.8;"/>
   </g>
   <g id="patch_5">
    <path d="M 57.6 307.584 
L 414.72 307.584 
" style="fill:none;stroke:#000000;stroke-linecap:square;stroke-linejoin:miter;stroke-width:0.8;"/>
   </g>
   <g id="patch_6">
    <path d="M 57.6 41.472 
L 414.72 41.472 
" style="fill:none;stroke:#000000;stroke-linecap:square;stroke-linejoin:miter;stroke-width:0.8;"/>
   </g>
   <g id="legend_1">
    <g id="patch_7">
     <path d="M 299.895 166.897 
L 407.72 166.897 
Q 409.72 166.897 409.72 164.897 
L 409.72 48.472 
Q 409.72 46.472 407.72 46.472 
L 299.895 46.472 
Q 297.895 46.472 297.895 48.472 
L 297.895 164.897 
Q 297.895 166.897 299.895 166.897 
z
" style="fill:#ffffff;opacity:0.8;stroke:#cccccc;stroke-linejoin:miter;"/>
    </g>
    <g id="line2d_83">
     <path d="M 301.895 54.570438 
L 321.895 54.570438 
" style="fill:none;stroke:#1f77b4;stroke-linecap:square;stroke-width:1.5;"/>
    </g>
    <g id="line2d_84"/>
    <g id="text_13">
     <!-- SGD, lr 0.1 -->
     <defs>
      <path d="M 53.515625 70.515625 
L 53.515625 60.890625 
Q 47.90625 63.578125 42.921875 64.890625 
Q 37.9375 66.21875 33.296875 66.21875 
Q 25.25 66.21875 20.875 63.09375 
Q 16.5 59.96875 16.5 54.203125 
Q 16.5 49.359375 19.40625 46.890625 
Q 22.3125 44.4375 30.421875 42.921875 
L 36.375 41.703125 
Q 47.40625 39.59375 52.65625 34.296875 
Q 57.90625 29 57.90625 20.125 
Q 57.90625 9.515625 50.796875 4.046875 
Q 43.703125 -1.421875 29.984375 -1.421875 
Q 24.8125 -1.421875 18.96875 -0.25 
Q 13.140625 0.921875 6.890625 3.21875 
L 6.890625 13.375 
Q 12.890625 10.015625 18.65625 8.296875 
Q 24.421875 6.59375 29.984375 6.59375 
Q 38.421875 6.59375 43.015625 9.90625 
Q 47.609375 13.234375 47.609375 19.390625 
Q 47.609375 24.75 44.3125 27.78125 
Q 41.015625 30.8125 33.5 32.328125 
L 27.484375 33.5 
Q 16.453125 35.6875 11.515625 40.375 
Q 6.59375 45.0625 6.59375 53.421875 
Q 6.59375 63.09375 13.40625 68.65625 
Q 20.21875 74.21875 32.171875 74.21875 
Q 37.3125 74.21875 42.625 73.28125 
Q 47.953125 72.359375 53.515625 70.515625 
z
" id="DejaVuSans-53"/>
      <path d="M 59.515625 10.40625 
L 59.515625 29.984375 
L 43.40625 29.984375 
L 43.40625 38.09375 
L 69.28125 38.09375 
L 69.28125 6.78125 
Q 63.578125 2.734375 56.6875 0.65625 
Q 49.8125 -1.421875 42 -1.421875 
Q 24.90625 -1.421875 15.25 8.5625 
Q 5.609375 18.5625 5.609375 36.375 
Q 5.609375 54.25 15.25 64.234375 
Q 24.90625 74.21875 42 74.21875 
Q 49.125 74.21875 55.546875 72.453125 
Q 61.96875 70.703125 67.390625 67.28125 
L 67.390625 56.78125 
Q 61.921875 61.421875 55.765625 63.765625 
Q 49.609375 66.109375 42.828125 66.109375 
Q 29.4375 66.109375 22.71875 58.640625 
Q 16.015625 51.171875 16.015625 36.375 
Q 16.015625 21.625 22.71875 14.15625 
Q 29.4375 6.6875 42.828125 6.6875 
Q 48.046875 6.6875 52.140625 7.59375 
Q 56.25 8.5 59.515625 10.40625 
z
" id="DejaVuSans-47"/>
      <path d="M 19.671875 64.796875 
L 19.671875 8.109375 
L 31.59375 8.109375 
Q 46.6875 8.109375 53.6875 14.9375 
Q 60.6875 21.78125 60.6875 36.53125 
Q 60.6875 51.171875 53.6875 57.984375 
Q 46.6875 64.796875 31.59375 64.796875 
z
M 9.8125 72.90625 
L 30.078125 72.90625 
Q 51.265625 72.90625 61.171875 64.09375 
Q 71.09375 55.28125 71.09375 36.53125 
Q 71.09375 17.671875 61.125 8.828125 
Q 51.171875 0 30.078125 0 
L 9.8125 0 
z
" id="DejaVuSans-44"/>
      <path d="M 11.71875 12.40625 
L 22.015625 12.40625 
L 22.015625 4 
L 14.015625 -11.625 
L 7.71875 -11.625 
L 11.71875 4 
z
" id="DejaVuSans-2c"/>
      <path d="M 41.109375 46.296875 
Q 39.59375 47.171875 37.8125 47.578125 
Q 36.03125 48 33.890625 48 
Q 26.265625 48 22.1875 43.046875 
Q 18.109375 38.09375 18.109375 28.8125 
L 18.109375 0 
L 9.078125 0 
L 9.078125 54.6875 
L 18.109375 54.6875 
L 18.109375 46.1875 
Q 20.953125 51.171875 25.484375 53.578125 
Q 30.03125 56 36.53125 56 
Q 37.453125 56 38.578125 55.875 
Q 39.703125 55.765625 41.0625 55.515625 
z
" id="DejaVuSans-72"/>
      <path d="M 10.6875 12.40625 
L 21 12.40625 
L 21 0 
L 10.6875 0 
z
" id="DejaVuSans-2e"/>
     </defs>
     <g transform="translate(329.895 58.070438)scale(0.1 -0.1)">
      <use xlink:href="#DejaVuSans-53"/>
      <use x="63.476562" xlink:href="#DejaVuSans-47"/>
      <use x="140.966797" xlink:href="#DejaVuSans-44"/>
      <use x="217.96875" xlink:href="#DejaVuSans-2c"/>
      <use x="249.755859" xlink:href="#DejaVuSans-20"/>
      <use x="281.542969" xlink:href="#DejaVuSans-6c"/>
      <use x="309.326172" xlink:href="#DejaVuSans-72"/>
      <use x="350.439453" xlink:href="#DejaVuSans-20"/>
      <use x="382.226562" xlink:href="#DejaVuSans-30"/>
      <use x="445.849609" xlink:href="#DejaVuSans-2e"/>
      <use x="477.636719" xlink:href="#DejaVuSans-31"/>
     </g>
    </g>
    <g id="line2d_85">
     <path d="M 301.895 69.248563 
L 321.895 69.248563 
" style="fill:none;stroke:#ff7f0e;stroke-linecap:square;stroke-width:1.5;"/>
    </g>
    <g id="line2d_86"/>
    <g id="text_14">
     <!-- SGD, lr 0.01 -->
     <g transform="translate(329.895 72.748563)scale(0.1 -0.1)">
      <use xlink:href="#DejaVuSans-53"/>
      <use x="63.476562" xlink:href="#DejaVuSans-47"/>
      <use x="140.966797" xlink:href="#DejaVuSans-44"/>
      <use x="217.96875" xlink:href="#DejaVuSans-2c"/>
      <use x="249.755859" xlink:href="#DejaVuSans-20"/>
      <use x="281.542969" xlink:href="#DejaVuSans-6c"/>
      <use x="309.326172" xlink:href="#DejaVuSans-72"/>
      <use x="350.439453" xlink:href="#DejaVuSans-20"/>
      <use x="382.226562" xlink:href="#DejaVuSans-30"/>
      <use x="445.849609" xlink:href="#DejaVuSans-2e"/>
      <use x="477.636719" xlink:href="#DejaVuSans-30"/>
      <use x="541.259766" xlink:href="#DejaVuSans-31"/>
     </g>
    </g>
    <g id="line2d_87">
     <path d="M 301.895 83.926688 
L 321.895 83.926688 
" style="fill:none;stroke:#2ca02c;stroke-linecap:square;stroke-width:1.5;"/>
    </g>
    <g id="line2d_88"/>
    <g id="text_15">
     <!-- SGD, lr 0.001 -->
     <g transform="translate(329.895 87.426688)scale(0.1 -0.1)">
      <use xlink:href="#DejaVuSans-53"/>
      <use x="63.476562" xlink:href="#DejaVuSans-47"/>
      <use x="140.966797" xlink:href="#DejaVuSans-44"/>
      <use x="217.96875" xlink:href="#DejaVuSans-2c"/>
      <use x="249.755859" xlink:href="#DejaVuSans-20"/>
      <use x="281.542969" xlink:href="#DejaVuSans-6c"/>
      <use x="309.326172" xlink:href="#DejaVuSans-72"/>
      <use x="350.439453" xlink:href="#DejaVuSans-20"/>
      <use x="382.226562" xlink:href="#DejaVuSans-30"/>
      <use x="445.849609" xlink:href="#DejaVuSans-2e"/>
      <use x="477.636719" xlink:href="#DejaVuSans-30"/>
      <use x="541.259766" xlink:href="#DejaVuSans-30"/>
      <use x="604.882812" xlink:href="#DejaVuSans-31"/>
     </g>
    </g>
    <g id="line2d_89">
     <path d="M 301.895 98.604813 
L 321.895 98.604813 
" style="fill:none;stroke:#d62728;stroke-dasharray:5.55,2.4;stroke-dashoffset:0;stroke-width:1.5;"/>
    </g>
    <g id="line2d_90"/>
    <g id="text_16">
     <!-- SGN, cg iter 20 -->
     <defs>
      <path d="M 9.8125 72.90625 
L 23.09375 72.90625 
L 55.421875 11.921875 
L 55.421875 72.90625 
L 64.984375 72.90625 
L 64.984375 0 
L 51.703125 0 
L 19.390625 60.984375 
L 19.390625 0 
L 9.8125 0 
z
" id="DejaVuSans-4e"/>
      <path d="M 45.40625 27.984375 
Q 45.40625 37.75 41.375 43.109375 
Q 37.359375 48.484375 30.078125 48.484375 
Q 22.859375 48.484375 18.828125 43.109375 
Q 14.796875 37.75 14.796875 27.984375 
Q 14.796875 18.265625 18.828125 12.890625 
Q 22.859375 7.515625 30.078125 7.515625 
Q 37.359375 7.515625 41.375 12.890625 
Q 45.40625 18.265625 45.40625 27.984375 
z
M 54.390625 6.78125 
Q 54.390625 -7.171875 48.1875 -13.984375 
Q 42 -20.796875 29.203125 -20.796875 
Q 24.46875 -20.796875 20.265625 -20.09375 
Q 16.0625 -19.390625 12.109375 -17.921875 
L 12.109375 -9.1875 
Q 16.0625 -11.328125 19.921875 -12.34375 
Q 23.78125 -13.375 27.78125 -13.375 
Q 36.625 -13.375 41.015625 -8.765625 
Q 45.40625 -4.15625 45.40625 5.171875 
L 45.40625 9.625 
Q 42.625 4.78125 38.28125 2.390625 
Q 33.9375 0 27.875 0 
Q 17.828125 0 11.671875 7.65625 
Q 5.515625 15.328125 5.515625 27.984375 
Q 5.515625 40.671875 11.671875 48.328125 
Q 17.828125 56 27.875 56 
Q 33.9375 56 38.28125 53.609375 
Q 42.625 51.21875 45.40625 46.390625 
L 45.40625 54.6875 
L 54.390625 54.6875 
z
" id="DejaVuSans-67"/>
      <path d="M 9.421875 54.6875 
L 18.40625 54.6875 
L 18.40625 0 
L 9.421875 0 
z
M 9.421875 75.984375 
L 18.40625 75.984375 
L 18.40625 64.59375 
L 9.421875 64.59375 
z
" id="DejaVuSans-69"/>
     </defs>
     <g transform="translate(329.895 102.104813)scale(0.1 -0.1)">
      <use xlink:href="#DejaVuSans-53"/>
      <use x="63.476562" xlink:href="#DejaVuSans-47"/>
      <use x="140.966797" xlink:href="#DejaVuSans-4e"/>
      <use x="215.771484" xlink:href="#DejaVuSans-2c"/>
      <use x="247.558594" xlink:href="#DejaVuSans-20"/>
      <use x="279.345703" xlink:href="#DejaVuSans-63"/>
      <use x="334.326172" xlink:href="#DejaVuSans-67"/>
      <use x="397.802734" xlink:href="#DejaVuSans-20"/>
      <use x="429.589844" xlink:href="#DejaVuSans-69"/>
      <use x="457.373047" xlink:href="#DejaVuSans-74"/>
      <use x="496.582031" xlink:href="#DejaVuSans-65"/>
      <use x="558.105469" xlink:href="#DejaVuSans-72"/>
      <use x="599.21875" xlink:href="#DejaVuSans-20"/>
      <use x="631.005859" xlink:href="#DejaVuSans-32"/>
      <use x="694.628906" xlink:href="#DejaVuSans-30"/>
     </g>
    </g>
    <g id="line2d_91">
     <path d="M 301.895 113.282938 
L 321.895 113.282938 
" style="fill:none;stroke:#9467bd;stroke-dasharray:5.55,2.4;stroke-dashoffset:0;stroke-width:1.5;"/>
    </g>
    <g id="line2d_92"/>
    <g id="text_17">
     <!-- SGN, cg iter 10 -->
     <g transform="translate(329.895 116.782938)scale(0.1 -0.1)">
      <use xlink:href="#DejaVuSans-53"/>
      <use x="63.476562" xlink:href="#DejaVuSans-47"/>
      <use x="140.966797" xlink:href="#DejaVuSans-4e"/>
      <use x="215.771484" xlink:href="#DejaVuSans-2c"/>
      <use x="247.558594" xlink:href="#DejaVuSans-20"/>
      <use x="279.345703" xlink:href="#DejaVuSans-63"/>
      <use x="334.326172" xlink:href="#DejaVuSans-67"/>
      <use x="397.802734" xlink:href="#DejaVuSans-20"/>
      <use x="429.589844" xlink:href="#DejaVuSans-69"/>
      <use x="457.373047" xlink:href="#DejaVuSans-74"/>
      <use x="496.582031" xlink:href="#DejaVuSans-65"/>
      <use x="558.105469" xlink:href="#DejaVuSans-72"/>
      <use x="599.21875" xlink:href="#DejaVuSans-20"/>
      <use x="631.005859" xlink:href="#DejaVuSans-31"/>
      <use x="694.628906" xlink:href="#DejaVuSans-30"/>
     </g>
    </g>
    <g id="line2d_93">
     <path d="M 301.895 127.961063 
L 321.895 127.961063 
" style="fill:none;stroke:#8c564b;stroke-dasharray:5.55,2.4;stroke-dashoffset:0;stroke-width:1.5;"/>
    </g>
    <g id="line2d_94"/>
    <g id="text_18">
     <!-- SGN, cg iter 5 -->
     <g transform="translate(329.895 131.461063)scale(0.1 -0.1)">
      <use xlink:href="#DejaVuSans-53"/>
      <use x="63.476562" xlink:href="#DejaVuSans-47"/>
      <use x="140.966797" xlink:href="#DejaVuSans-4e"/>
      <use x="215.771484" xlink:href="#DejaVuSans-2c"/>
      <use x="247.558594" xlink:href="#DejaVuSans-20"/>
      <use x="279.345703" xlink:href="#DejaVuSans-63"/>
      <use x="334.326172" xlink:href="#DejaVuSans-67"/>
      <use x="397.802734" xlink:href="#DejaVuSans-20"/>
      <use x="429.589844" xlink:href="#DejaVuSans-69"/>
      <use x="457.373047" xlink:href="#DejaVuSans-74"/>
      <use x="496.582031" xlink:href="#DejaVuSans-65"/>
      <use x="558.105469" xlink:href="#DejaVuSans-72"/>
      <use x="599.21875" xlink:href="#DejaVuSans-20"/>
      <use x="631.005859" xlink:href="#DejaVuSans-35"/>
     </g>
    </g>
    <g id="line2d_95">
     <path d="M 301.895 142.639188 
L 321.895 142.639188 
" style="fill:none;stroke:#e377c2;stroke-dasharray:5.55,2.4;stroke-dashoffset:0;stroke-width:1.5;"/>
    </g>
    <g id="line2d_96"/>
    <g id="text_19">
     <!-- SGN, cg iter 3 -->
     <g transform="translate(329.895 146.139188)scale(0.1 -0.1)">
      <use xlink:href="#DejaVuSans-53"/>
      <use x="63.476562" xlink:href="#DejaVuSans-47"/>
      <use x="140.966797" xlink:href="#DejaVuSans-4e"/>
      <use x="215.771484" xlink:href="#DejaVuSans-2c"/>
      <use x="247.558594" xlink:href="#DejaVuSans-20"/>
      <use x="279.345703" xlink:href="#DejaVuSans-63"/>
      <use x="334.326172" xlink:href="#DejaVuSans-67"/>
      <use x="397.802734" xlink:href="#DejaVuSans-20"/>
      <use x="429.589844" xlink:href="#DejaVuSans-69"/>
      <use x="457.373047" xlink:href="#DejaVuSans-74"/>
      <use x="496.582031" xlink:href="#DejaVuSans-65"/>
      <use x="558.105469" xlink:href="#DejaVuSans-72"/>
      <use x="599.21875" xlink:href="#DejaVuSans-20"/>
      <use x="631.005859" xlink:href="#DejaVuSans-33"/>
     </g>
    </g>
    <g id="line2d_97">
     <path d="M 301.895 157.317313 
L 321.895 157.317313 
" style="fill:none;stroke:#7f7f7f;stroke-dasharray:5.55,2.4;stroke-dashoffset:0;stroke-width:1.5;"/>
    </g>
    <g id="line2d_98"/>
    <g id="text_20">
     <!-- SGN, cg iter 2 -->
     <g transform="translate(329.895 160.817313)scale(0.1 -0.1)">
      <use xlink:href="#DejaVuSans-53"/>
      <use x="63.476562" xlink:href="#DejaVuSans-47"/>
      <use x="140.966797" xlink:href="#DejaVuSans-4e"/>
      <use x="215.771484" xlink:href="#DejaVuSans-2c"/>
      <use x="247.558594" xlink:href="#DejaVuSans-20"/>
      <use x="279.345703" xlink:href="#DejaVuSans-63"/>
      <use x="334.326172" xlink:href="#DejaVuSans-67"/>
      <use x="397.802734" xlink:href="#DejaVuSans-20"/>
      <use x="429.589844" xlink:href="#DejaVuSans-69"/>
      <use x="457.373047" xlink:href="#DejaVuSans-74"/>
      <use x="496.582031" xlink:href="#DejaVuSans-65"/>
      <use x="558.105469" xlink:href="#DejaVuSans-72"/>
      <use x="599.21875" xlink:href="#DejaVuSans-20"/>
      <use x="631.005859" xlink:href="#DejaVuSans-32"/>
     </g>
    </g>
   </g>
  </g>
 </g>
 <defs>
  <clipPath id="peb5c103149">
   <rect height="266.112" width="357.12" x="57.6" y="41.472"/>
  </clipPath>
 </defs>
</svg>
