<?xml version="1.0" encoding="utf-8" standalone="no"?>
<!DOCTYPE svg PUBLIC "-//W3C//DTD SVG 1.1//EN"
  "http://www.w3.org/Graphics/SVG/1.1/DTD/svg11.dtd">
<!-- Created with matplotlib (http://matplotlib.org/) -->
<svg height="345pt" version="1.1" viewBox="0 0 460 345" width="460pt" xmlns="http://www.w3.org/2000/svg" xmlns:xlink="http://www.w3.org/1999/xlink">
 <defs>
  <style type="text/css">
*{stroke-linecap:butt;stroke-linejoin:round;}
  </style>
 </defs>
 <g id="figure_1">
  <g id="patch_1">
   <path d="M 0 345.6 
L 460.8 345.6 
L 460.8 0 
L 0 0 
z
" style="fill:none;opacity:0;"/>
  </g>
  <g id="axes_1">
   <g id="patch_2">
    <path d="M 57.6 307.584 
L 414.72 307.584 
L 414.72 41.472 
L 57.6 41.472 
z
" style="fill:#ffffff;"/>
   </g>
   <g id="matplotlib.axis_1">
    <g id="xtick_1">
     <g id="line2d_1">
      <path clip-path="url(#pa1f9ab25d2)" d="M 73.235936 307.584 
L 73.235936 41.472 
" style="fill:none;stroke:#b0b0b0;stroke-linecap:square;stroke-width:0.8;"/>
     </g>
     <g id="line2d_2">
      <defs>
       <path d="M 0 0 
L 0 3.5 
" id="mf88fdb212f" style="stroke:#000000;stroke-width:0.8;"/>
      </defs>
      <g>
       <use style="stroke:#000000;stroke-width:0.8;" x="73.235936" xlink:href="#mf88fdb212f" y="307.584"/>
      </g>
     </g>
     <g id="text_1">
      <!-- 0 -->
      <defs>
       <path d="M 31.78125 66.40625 
Q 24.171875 66.40625 20.328125 58.90625 
Q 16.5 51.421875 16.5 36.375 
Q 16.5 21.390625 20.328125 13.890625 
Q 24.171875 6.390625 31.78125 6.390625 
Q 39.453125 6.390625 43.28125 13.890625 
Q 47.125 21.390625 47.125 36.375 
Q 47.125 51.421875 43.28125 58.90625 
Q 39.453125 66.40625 31.78125 66.40625 
z
M 31.78125 74.21875 
Q 44.046875 74.21875 50.515625 64.515625 
Q 56.984375 54.828125 56.984375 36.375 
Q 56.984375 17.96875 50.515625 8.265625 
Q 44.046875 -1.421875 31.78125 -1.421875 
Q 19.53125 -1.421875 13.0625 8.265625 
Q 6.59375 17.96875 6.59375 36.375 
Q 6.59375 54.828125 13.0625 64.515625 
Q 19.53125 74.21875 31.78125 74.21875 
z
" id="DejaVuSans-30"/>
      </defs>
      <g transform="translate(70.054686 322.182437)scale(0.1 -0.1)">
       <use xlink:href="#DejaVuSans-30"/>
      </g>
     </g>
    </g>
    <g id="xtick_2">
     <g id="line2d_3">
      <path clip-path="url(#pa1f9ab25d2)" d="M 132.91508 307.584 
L 132.91508 41.472 
" style="fill:none;stroke:#b0b0b0;stroke-linecap:square;stroke-width:0.8;"/>
     </g>
     <g id="line2d_4">
      <g>
       <use style="stroke:#000000;stroke-width:0.8;" x="132.91508" xlink:href="#mf88fdb212f" y="307.584"/>
      </g>
     </g>
     <g id="text_2">
      <!-- 100 -->
      <defs>
       <path d="M 12.40625 8.296875 
L 28.515625 8.296875 
L 28.515625 63.921875 
L 10.984375 60.40625 
L 10.984375 69.390625 
L 28.421875 72.90625 
L 38.28125 72.90625 
L 38.28125 8.296875 
L 54.390625 8.296875 
L 54.390625 0 
L 12.40625 0 
z
" id="DejaVuSans-31"/>
      </defs>
      <g transform="translate(123.37133 322.182437)scale(0.1 -0.1)">
       <use xlink:href="#DejaVuSans-31"/>
       <use x="63.623047" xlink:href="#DejaVuSans-30"/>
       <use x="127.246094" xlink:href="#DejaVuSans-30"/>
      </g>
     </g>
    </g>
    <g id="xtick_3">
     <g id="line2d_5">
      <path clip-path="url(#pa1f9ab25d2)" d="M 192.594225 307.584 
L 192.594225 41.472 
" style="fill:none;stroke:#b0b0b0;stroke-linecap:square;stroke-width:0.8;"/>
     </g>
     <g id="line2d_6">
      <g>
       <use style="stroke:#000000;stroke-width:0.8;" x="192.594225" xlink:href="#mf88fdb212f" y="307.584"/>
      </g>
     </g>
     <g id="text_3">
      <!-- 200 -->
      <defs>
       <path d="M 19.1875 8.296875 
L 53.609375 8.296875 
L 53.609375 0 
L 7.328125 0 
L 7.328125 8.296875 
Q 12.9375 14.109375 22.625 23.890625 
Q 32.328125 33.6875 34.8125 36.53125 
Q 39.546875 41.84375 41.421875 45.53125 
Q 43.3125 49.21875 43.3125 52.78125 
Q 43.3125 58.59375 39.234375 62.25 
Q 35.15625 65.921875 28.609375 65.921875 
Q 23.96875 65.921875 18.8125 64.3125 
Q 13.671875 62.703125 7.8125 59.421875 
L 7.8125 69.390625 
Q 13.765625 71.78125 18.9375 73 
Q 24.125 74.21875 28.421875 74.21875 
Q 39.75 74.21875 46.484375 68.546875 
Q 53.21875 62.890625 53.21875 53.421875 
Q 53.21875 48.921875 51.53125 44.890625 
Q 49.859375 40.875 45.40625 35.40625 
Q 44.1875 33.984375 37.640625 27.21875 
Q 31.109375 20.453125 19.1875 8.296875 
z
" id="DejaVuSans-32"/>
      </defs>
      <g transform="translate(183.050475 322.182437)scale(0.1 -0.1)">
       <use xlink:href="#DejaVuSans-32"/>
       <use x="63.623047" xlink:href="#DejaVuSans-30"/>
       <use x="127.246094" xlink:href="#DejaVuSans-30"/>
      </g>
     </g>
    </g>
    <g id="xtick_4">
     <g id="line2d_7">
      <path clip-path="url(#pa1f9ab25d2)" d="M 252.273369 307.584 
L 252.273369 41.472 
" style="fill:none;stroke:#b0b0b0;stroke-linecap:square;stroke-width:0.8;"/>
     </g>
     <g id="line2d_8">
      <g>
       <use style="stroke:#000000;stroke-width:0.8;" x="252.273369" xlink:href="#mf88fdb212f" y="307.584"/>
      </g>
     </g>
     <g id="text_4">
      <!-- 300 -->
      <defs>
       <path d="M 40.578125 39.3125 
Q 47.65625 37.796875 51.625 33 
Q 55.609375 28.21875 55.609375 21.1875 
Q 55.609375 10.40625 48.1875 4.484375 
Q 40.765625 -1.421875 27.09375 -1.421875 
Q 22.515625 -1.421875 17.65625 -0.515625 
Q 12.796875 0.390625 7.625 2.203125 
L 7.625 11.71875 
Q 11.71875 9.328125 16.59375 8.109375 
Q 21.484375 6.890625 26.8125 6.890625 
Q 36.078125 6.890625 40.9375 10.546875 
Q 45.796875 14.203125 45.796875 21.1875 
Q 45.796875 27.640625 41.28125 31.265625 
Q 36.765625 34.90625 28.71875 34.90625 
L 20.21875 34.90625 
L 20.21875 43.015625 
L 29.109375 43.015625 
Q 36.375 43.015625 40.234375 45.921875 
Q 44.09375 48.828125 44.09375 54.296875 
Q 44.09375 59.90625 40.109375 62.90625 
Q 36.140625 65.921875 28.71875 65.921875 
Q 24.65625 65.921875 20.015625 65.03125 
Q 15.375 64.15625 9.8125 62.3125 
L 9.8125 71.09375 
Q 15.4375 72.65625 20.34375 73.4375 
Q 25.25 74.21875 29.59375 74.21875 
Q 40.828125 74.21875 47.359375 69.109375 
Q 53.90625 64.015625 53.90625 55.328125 
Q 53.90625 49.265625 50.4375 45.09375 
Q 46.96875 40.921875 40.578125 39.3125 
z
" id="DejaVuSans-33"/>
      </defs>
      <g transform="translate(242.729619 322.182437)scale(0.1 -0.1)">
       <use xlink:href="#DejaVuSans-33"/>
       <use x="63.623047" xlink:href="#DejaVuSans-30"/>
       <use x="127.246094" xlink:href="#DejaVuSans-30"/>
      </g>
     </g>
    </g>
    <g id="xtick_5">
     <g id="line2d_9">
      <path clip-path="url(#pa1f9ab25d2)" d="M 311.952513 307.584 
L 311.952513 41.472 
" style="fill:none;stroke:#b0b0b0;stroke-linecap:square;stroke-width:0.8;"/>
     </g>
     <g id="line2d_10">
      <g>
       <use style="stroke:#000000;stroke-width:0.8;" x="311.952513" xlink:href="#mf88fdb212f" y="307.584"/>
      </g>
     </g>
     <g id="text_5">
      <!-- 400 -->
      <defs>
       <path d="M 37.796875 64.3125 
L 12.890625 25.390625 
L 37.796875 25.390625 
z
M 35.203125 72.90625 
L 47.609375 72.90625 
L 47.609375 25.390625 
L 58.015625 25.390625 
L 58.015625 17.1875 
L 47.609375 17.1875 
L 47.609375 0 
L 37.796875 0 
L 37.796875 17.1875 
L 4.890625 17.1875 
L 4.890625 26.703125 
z
" id="DejaVuSans-34"/>
      </defs>
      <g transform="translate(302.408763 322.182437)scale(0.1 -0.1)">
       <use xlink:href="#DejaVuSans-34"/>
       <use x="63.623047" xlink:href="#DejaVuSans-30"/>
       <use x="127.246094" xlink:href="#DejaVuSans-30"/>
      </g>
     </g>
    </g>
    <g id="xtick_6">
     <g id="line2d_11">
      <path clip-path="url(#pa1f9ab25d2)" d="M 371.631658 307.584 
L 371.631658 41.472 
" style="fill:none;stroke:#b0b0b0;stroke-linecap:square;stroke-width:0.8;"/>
     </g>
     <g id="line2d_12">
      <g>
       <use style="stroke:#000000;stroke-width:0.8;" x="371.631658" xlink:href="#mf88fdb212f" y="307.584"/>
      </g>
     </g>
     <g id="text_6">
      <!-- 500 -->
      <defs>
       <path d="M 10.796875 72.90625 
L 49.515625 72.90625 
L 49.515625 64.59375 
L 19.828125 64.59375 
L 19.828125 46.734375 
Q 21.96875 47.46875 24.109375 47.828125 
Q 26.265625 48.1875 28.421875 48.1875 
Q 40.625 48.1875 47.75 41.5 
Q 54.890625 34.8125 54.890625 23.390625 
Q 54.890625 11.625 47.5625 5.09375 
Q 40.234375 -1.421875 26.90625 -1.421875 
Q 22.3125 -1.421875 17.546875 -0.640625 
Q 12.796875 0.140625 7.71875 1.703125 
L 7.71875 11.625 
Q 12.109375 9.234375 16.796875 8.0625 
Q 21.484375 6.890625 26.703125 6.890625 
Q 35.15625 6.890625 40.078125 11.328125 
Q 45.015625 15.765625 45.015625 23.390625 
Q 45.015625 31 40.078125 35.4375 
Q 35.15625 39.890625 26.703125 39.890625 
Q 22.75 39.890625 18.8125 39.015625 
Q 14.890625 38.140625 10.796875 36.28125 
z
" id="DejaVuSans-35"/>
      </defs>
      <g transform="translate(362.087908 322.182437)scale(0.1 -0.1)">
       <use xlink:href="#DejaVuSans-35"/>
       <use x="63.623047" xlink:href="#DejaVuSans-30"/>
       <use x="127.246094" xlink:href="#DejaVuSans-30"/>
      </g>
     </g>
    </g>
    <g id="text_7">
     <!-- epochs -->
     <defs>
      <path d="M 56.203125 29.59375 
L 56.203125 25.203125 
L 14.890625 25.203125 
Q 15.484375 15.921875 20.484375 11.0625 
Q 25.484375 6.203125 34.421875 6.203125 
Q 39.59375 6.203125 44.453125 7.46875 
Q 49.3125 8.734375 54.109375 11.28125 
L 54.109375 2.78125 
Q 49.265625 0.734375 44.1875 -0.34375 
Q 39.109375 -1.421875 33.890625 -1.421875 
Q 20.796875 -1.421875 13.15625 6.1875 
Q 5.515625 13.8125 5.515625 26.8125 
Q 5.515625 40.234375 12.765625 48.109375 
Q 20.015625 56 32.328125 56 
Q 43.359375 56 49.78125 48.890625 
Q 56.203125 41.796875 56.203125 29.59375 
z
M 47.21875 32.234375 
Q 47.125 39.59375 43.09375 43.984375 
Q 39.0625 48.390625 32.421875 48.390625 
Q 24.90625 48.390625 20.390625 44.140625 
Q 15.875 39.890625 15.1875 32.171875 
z
" id="DejaVuSans-65"/>
      <path d="M 18.109375 8.203125 
L 18.109375 -20.796875 
L 9.078125 -20.796875 
L 9.078125 54.6875 
L 18.109375 54.6875 
L 18.109375 46.390625 
Q 20.953125 51.265625 25.265625 53.625 
Q 29.59375 56 35.59375 56 
Q 45.5625 56 51.78125 48.09375 
Q 58.015625 40.1875 58.015625 27.296875 
Q 58.015625 14.40625 51.78125 6.484375 
Q 45.5625 -1.421875 35.59375 -1.421875 
Q 29.59375 -1.421875 25.265625 0.953125 
Q 20.953125 3.328125 18.109375 8.203125 
z
M 48.6875 27.296875 
Q 48.6875 37.203125 44.609375 42.84375 
Q 40.53125 48.484375 33.40625 48.484375 
Q 26.265625 48.484375 22.1875 42.84375 
Q 18.109375 37.203125 18.109375 27.296875 
Q 18.109375 17.390625 22.1875 11.75 
Q 26.265625 6.109375 33.40625 6.109375 
Q 40.53125 6.109375 44.609375 11.75 
Q 48.6875 17.390625 48.6875 27.296875 
z
" id="DejaVuSans-70"/>
      <path d="M 30.609375 48.390625 
Q 23.390625 48.390625 19.1875 42.75 
Q 14.984375 37.109375 14.984375 27.296875 
Q 14.984375 17.484375 19.15625 11.84375 
Q 23.34375 6.203125 30.609375 6.203125 
Q 37.796875 6.203125 41.984375 11.859375 
Q 46.1875 17.53125 46.1875 27.296875 
Q 46.1875 37.015625 41.984375 42.703125 
Q 37.796875 48.390625 30.609375 48.390625 
z
M 30.609375 56 
Q 42.328125 56 49.015625 48.375 
Q 55.71875 40.765625 55.71875 27.296875 
Q 55.71875 13.875 49.015625 6.21875 
Q 42.328125 -1.421875 30.609375 -1.421875 
Q 18.84375 -1.421875 12.171875 6.21875 
Q 5.515625 13.875 5.515625 27.296875 
Q 5.515625 40.765625 12.171875 48.375 
Q 18.84375 56 30.609375 56 
z
" id="DejaVuSans-6f"/>
      <path d="M 48.78125 52.59375 
L 48.78125 44.1875 
Q 44.96875 46.296875 41.140625 47.34375 
Q 37.3125 48.390625 33.40625 48.390625 
Q 24.65625 48.390625 19.8125 42.84375 
Q 14.984375 37.3125 14.984375 27.296875 
Q 14.984375 17.28125 19.8125 11.734375 
Q 24.65625 6.203125 33.40625 6.203125 
Q 37.3125 6.203125 41.140625 7.25 
Q 44.96875 8.296875 48.78125 10.40625 
L 48.78125 2.09375 
Q 45.015625 0.34375 40.984375 -0.53125 
Q 36.96875 -1.421875 32.421875 -1.421875 
Q 20.0625 -1.421875 12.78125 6.34375 
Q 5.515625 14.109375 5.515625 27.296875 
Q 5.515625 40.671875 12.859375 48.328125 
Q 20.21875 56 33.015625 56 
Q 37.15625 56 41.109375 55.140625 
Q 45.0625 54.296875 48.78125 52.59375 
z
" id="DejaVuSans-63"/>
      <path d="M 54.890625 33.015625 
L 54.890625 0 
L 45.90625 0 
L 45.90625 32.71875 
Q 45.90625 40.484375 42.875 44.328125 
Q 39.84375 48.1875 33.796875 48.1875 
Q 26.515625 48.1875 22.3125 43.546875 
Q 18.109375 38.921875 18.109375 30.90625 
L 18.109375 0 
L 9.078125 0 
L 9.078125 75.984375 
L 18.109375 75.984375 
L 18.109375 46.1875 
Q 21.34375 51.125 25.703125 53.5625 
Q 30.078125 56 35.796875 56 
Q 45.21875 56 50.046875 50.171875 
Q 54.890625 44.34375 54.890625 33.015625 
z
" id="DejaVuSans-68"/>
      <path d="M 44.28125 53.078125 
L 44.28125 44.578125 
Q 40.484375 46.53125 36.375 47.5 
Q 32.28125 48.484375 27.875 48.484375 
Q 21.1875 48.484375 17.84375 46.4375 
Q 14.5 44.390625 14.5 40.28125 
Q 14.5 37.15625 16.890625 35.375 
Q 19.28125 33.59375 26.515625 31.984375 
L 29.59375 31.296875 
Q 39.15625 29.25 43.1875 25.515625 
Q 47.21875 21.78125 47.21875 15.09375 
Q 47.21875 7.46875 41.1875 3.015625 
Q 35.15625 -1.421875 24.609375 -1.421875 
Q 20.21875 -1.421875 15.453125 -0.5625 
Q 10.6875 0.296875 5.421875 2 
L 5.421875 11.28125 
Q 10.40625 8.6875 15.234375 7.390625 
Q 20.0625 6.109375 24.8125 6.109375 
Q 31.15625 6.109375 34.5625 8.28125 
Q 37.984375 10.453125 37.984375 14.40625 
Q 37.984375 18.0625 35.515625 20.015625 
Q 33.0625 21.96875 24.703125 23.78125 
L 21.578125 24.515625 
Q 13.234375 26.265625 9.515625 29.90625 
Q 5.8125 33.546875 5.8125 39.890625 
Q 5.8125 47.609375 11.28125 51.796875 
Q 16.75 56 26.8125 56 
Q 31.78125 56 36.171875 55.265625 
Q 40.578125 54.546875 44.28125 53.078125 
z
" id="DejaVuSans-73"/>
     </defs>
     <g transform="translate(218.327188 335.860562)scale(0.1 -0.1)">
      <use xlink:href="#DejaVuSans-65"/>
      <use x="61.523438" xlink:href="#DejaVuSans-70"/>
      <use x="125" xlink:href="#DejaVuSans-6f"/>
      <use x="186.181641" xlink:href="#DejaVuSans-63"/>
      <use x="241.162109" xlink:href="#DejaVuSans-68"/>
      <use x="304.541016" xlink:href="#DejaVuSans-73"/>
     </g>
    </g>
   </g>
   <g id="matplotlib.axis_2">
    <g id="ytick_1">
     <g id="line2d_13">
      <path clip-path="url(#pa1f9ab25d2)" d="M 57.6 294.518215 
L 414.72 294.518215 
" style="fill:none;stroke:#b0b0b0;stroke-linecap:square;stroke-width:0.8;"/>
     </g>
     <g id="line2d_14">
      <defs>
       <path d="M 0 0 
L -3.5 0 
" id="m8855fc2f27" style="stroke:#000000;stroke-width:0.8;"/>
      </defs>
      <g>
       <use style="stroke:#000000;stroke-width:0.8;" x="57.6" xlink:href="#m8855fc2f27" y="294.518215"/>
      </g>
     </g>
     <g id="text_8">
      <!-- $\mathdefault{10^{-2}}$ -->
      <defs>
       <path d="M 10.59375 35.5 
L 73.1875 35.5 
L 73.1875 27.203125 
L 10.59375 27.203125 
z
" id="DejaVuSans-2212"/>
      </defs>
      <g transform="translate(27.1 298.317434)scale(0.1 -0.1)">
       <use transform="translate(0 0.765625)" xlink:href="#DejaVuSans-31"/>
       <use transform="translate(63.623047 0.765625)" xlink:href="#DejaVuSans-30"/>
       <use transform="translate(128.203125 39.046875)scale(0.7)" xlink:href="#DejaVuSans-2212"/>
       <use transform="translate(186.855469 39.046875)scale(0.7)" xlink:href="#DejaVuSans-32"/>
      </g>
     </g>
    </g>
    <g id="ytick_2">
     <g id="line2d_15">
      <path clip-path="url(#pa1f9ab25d2)" d="M 57.6 210.169477 
L 414.72 210.169477 
" style="fill:none;stroke:#b0b0b0;stroke-linecap:square;stroke-width:0.8;"/>
     </g>
     <g id="line2d_16">
      <g>
       <use style="stroke:#000000;stroke-width:0.8;" x="57.6" xlink:href="#m8855fc2f27" y="210.169477"/>
      </g>
     </g>
     <g id="text_9">
      <!-- $\mathdefault{10^{-1}}$ -->
      <g transform="translate(27.1 213.968695)scale(0.1 -0.1)">
       <use transform="translate(0 0.684375)" xlink:href="#DejaVuSans-31"/>
       <use transform="translate(63.623047 0.684375)" xlink:href="#DejaVuSans-30"/>
       <use transform="translate(128.203125 38.965625)scale(0.7)" xlink:href="#DejaVuSans-2212"/>
       <use transform="translate(186.855469 38.965625)scale(0.7)" xlink:href="#DejaVuSans-31"/>
      </g>
     </g>
    </g>
    <g id="ytick_3">
     <g id="line2d_17">
      <path clip-path="url(#pa1f9ab25d2)" d="M 57.6 125.820738 
L 414.72 125.820738 
" style="fill:none;stroke:#b0b0b0;stroke-linecap:square;stroke-width:0.8;"/>
     </g>
     <g id="line2d_18">
      <g>
       <use style="stroke:#000000;stroke-width:0.8;" x="57.6" xlink:href="#m8855fc2f27" y="125.820738"/>
      </g>
     </g>
     <g id="text_10">
      <!-- $\mathdefault{10^{0}}$ -->
      <g transform="translate(33 129.619957)scale(0.1 -0.1)">
       <use transform="translate(0 0.765625)" xlink:href="#DejaVuSans-31"/>
       <use transform="translate(63.623047 0.765625)" xlink:href="#DejaVuSans-30"/>
       <use transform="translate(128.203125 39.046875)scale(0.7)" xlink:href="#DejaVuSans-30"/>
      </g>
     </g>
    </g>
    <g id="ytick_4">
     <g id="line2d_19">
      <path clip-path="url(#pa1f9ab25d2)" d="M 57.6 41.472 
L 414.72 41.472 
" style="fill:none;stroke:#b0b0b0;stroke-linecap:square;stroke-width:0.8;"/>
     </g>
     <g id="line2d_20">
      <g>
       <use style="stroke:#000000;stroke-width:0.8;" x="57.6" xlink:href="#m8855fc2f27" y="41.472"/>
      </g>
     </g>
     <g id="text_11">
      <!-- $\mathdefault{10^{1}}$ -->
      <g transform="translate(33 45.271219)scale(0.1 -0.1)">
       <use transform="translate(0 0.684375)" xlink:href="#DejaVuSans-31"/>
       <use transform="translate(63.623047 0.684375)" xlink:href="#DejaVuSans-30"/>
       <use transform="translate(128.203125 38.965625)scale(0.7)" xlink:href="#DejaVuSans-31"/>
      </g>
     </g>
    </g>
    <g id="ytick_5">
     <g id="line2d_21">
      <path clip-path="url(#pa1f9ab25d2)" d="M 57.6 307.584 
L 414.72 307.584 
" style="fill:none;stroke:#b0b0b0;stroke-linecap:square;stroke-width:0.8;"/>
     </g>
     <g id="line2d_22">
      <defs>
       <path d="M 0 0 
L -2 0 
" id="med77b36ef7" style="stroke:#000000;stroke-width:0.6;"/>
      </defs>
      <g>
       <use style="stroke:#000000;stroke-width:0.6;" x="57.6" xlink:href="#med77b36ef7" y="307.584"/>
      </g>
     </g>
    </g>
    <g id="ytick_6">
     <g id="line2d_23">
      <path clip-path="url(#pa1f9ab25d2)" d="M 57.6 302.692452 
L 414.72 302.692452 
" style="fill:none;stroke:#b0b0b0;stroke-linecap:square;stroke-width:0.8;"/>
     </g>
     <g id="line2d_24">
      <g>
       <use style="stroke:#000000;stroke-width:0.6;" x="57.6" xlink:href="#med77b36ef7" y="302.692452"/>
      </g>
     </g>
    </g>
    <g id="ytick_7">
     <g id="line2d_25">
      <path clip-path="url(#pa1f9ab25d2)" d="M 57.6 298.377802 
L 414.72 298.377802 
" style="fill:none;stroke:#b0b0b0;stroke-linecap:square;stroke-width:0.8;"/>
     </g>
     <g id="line2d_26">
      <g>
       <use style="stroke:#000000;stroke-width:0.6;" x="57.6" xlink:href="#med77b36ef7" y="298.377802"/>
      </g>
     </g>
    </g>
    <g id="ytick_8">
     <g id="line2d_27">
      <path clip-path="url(#pa1f9ab25d2)" d="M 57.6 269.126715 
L 414.72 269.126715 
" style="fill:none;stroke:#b0b0b0;stroke-linecap:square;stroke-width:0.8;"/>
     </g>
     <g id="line2d_28">
      <g>
       <use style="stroke:#000000;stroke-width:0.6;" x="57.6" xlink:href="#med77b36ef7" y="269.126715"/>
      </g>
     </g>
    </g>
    <g id="ytick_9">
     <g id="line2d_29">
      <path clip-path="url(#pa1f9ab25d2)" d="M 57.6 254.273639 
L 414.72 254.273639 
" style="fill:none;stroke:#b0b0b0;stroke-linecap:square;stroke-width:0.8;"/>
     </g>
     <g id="line2d_30">
      <g>
       <use style="stroke:#000000;stroke-width:0.6;" x="57.6" xlink:href="#med77b36ef7" y="254.273639"/>
      </g>
     </g>
    </g>
    <g id="ytick_10">
     <g id="line2d_31">
      <path clip-path="url(#pa1f9ab25d2)" d="M 57.6 243.735214 
L 414.72 243.735214 
" style="fill:none;stroke:#b0b0b0;stroke-linecap:square;stroke-width:0.8;"/>
     </g>
     <g id="line2d_32">
      <g>
       <use style="stroke:#000000;stroke-width:0.6;" x="57.6" xlink:href="#med77b36ef7" y="243.735214"/>
      </g>
     </g>
    </g>
    <g id="ytick_11">
     <g id="line2d_33">
      <path clip-path="url(#pa1f9ab25d2)" d="M 57.6 235.560977 
L 414.72 235.560977 
" style="fill:none;stroke:#b0b0b0;stroke-linecap:square;stroke-width:0.8;"/>
     </g>
     <g id="line2d_34">
      <g>
       <use style="stroke:#000000;stroke-width:0.6;" x="57.6" xlink:href="#med77b36ef7" y="235.560977"/>
      </g>
     </g>
    </g>
    <g id="ytick_12">
     <g id="line2d_35">
      <path clip-path="url(#pa1f9ab25d2)" d="M 57.6 228.882139 
L 414.72 228.882139 
" style="fill:none;stroke:#b0b0b0;stroke-linecap:square;stroke-width:0.8;"/>
     </g>
     <g id="line2d_36">
      <g>
       <use style="stroke:#000000;stroke-width:0.6;" x="57.6" xlink:href="#med77b36ef7" y="228.882139"/>
      </g>
     </g>
    </g>
    <g id="ytick_13">
     <g id="line2d_37">
      <path clip-path="url(#pa1f9ab25d2)" d="M 57.6 223.235262 
L 414.72 223.235262 
" style="fill:none;stroke:#b0b0b0;stroke-linecap:square;stroke-width:0.8;"/>
     </g>
     <g id="line2d_38">
      <g>
       <use style="stroke:#000000;stroke-width:0.6;" x="57.6" xlink:href="#med77b36ef7" y="223.235262"/>
      </g>
     </g>
    </g>
    <g id="ytick_14">
     <g id="line2d_39">
      <path clip-path="url(#pa1f9ab25d2)" d="M 57.6 218.343714 
L 414.72 218.343714 
" style="fill:none;stroke:#b0b0b0;stroke-linecap:square;stroke-width:0.8;"/>
     </g>
     <g id="line2d_40">
      <g>
       <use style="stroke:#000000;stroke-width:0.6;" x="57.6" xlink:href="#med77b36ef7" y="218.343714"/>
      </g>
     </g>
    </g>
    <g id="ytick_15">
     <g id="line2d_41">
      <path clip-path="url(#pa1f9ab25d2)" d="M 57.6 214.029063 
L 414.72 214.029063 
" style="fill:none;stroke:#b0b0b0;stroke-linecap:square;stroke-width:0.8;"/>
     </g>
     <g id="line2d_42">
      <g>
       <use style="stroke:#000000;stroke-width:0.6;" x="57.6" xlink:href="#med77b36ef7" y="214.029063"/>
      </g>
     </g>
    </g>
    <g id="ytick_16">
     <g id="line2d_43">
      <path clip-path="url(#pa1f9ab25d2)" d="M 57.6 184.777976 
L 414.72 184.777976 
" style="fill:none;stroke:#b0b0b0;stroke-linecap:square;stroke-width:0.8;"/>
     </g>
     <g id="line2d_44">
      <g>
       <use style="stroke:#000000;stroke-width:0.6;" x="57.6" xlink:href="#med77b36ef7" y="184.777976"/>
      </g>
     </g>
    </g>
    <g id="ytick_17">
     <g id="line2d_45">
      <path clip-path="url(#pa1f9ab25d2)" d="M 57.6 169.924901 
L 414.72 169.924901 
" style="fill:none;stroke:#b0b0b0;stroke-linecap:square;stroke-width:0.8;"/>
     </g>
     <g id="line2d_46">
      <g>
       <use style="stroke:#000000;stroke-width:0.6;" x="57.6" xlink:href="#med77b36ef7" y="169.924901"/>
      </g>
     </g>
    </g>
    <g id="ytick_18">
     <g id="line2d_47">
      <path clip-path="url(#pa1f9ab25d2)" d="M 57.6 159.386476 
L 414.72 159.386476 
" style="fill:none;stroke:#b0b0b0;stroke-linecap:square;stroke-width:0.8;"/>
     </g>
     <g id="line2d_48">
      <g>
       <use style="stroke:#000000;stroke-width:0.6;" x="57.6" xlink:href="#med77b36ef7" y="159.386476"/>
      </g>
     </g>
    </g>
    <g id="ytick_19">
     <g id="line2d_49">
      <path clip-path="url(#pa1f9ab25d2)" d="M 57.6 151.212239 
L 414.72 151.212239 
" style="fill:none;stroke:#b0b0b0;stroke-linecap:square;stroke-width:0.8;"/>
     </g>
     <g id="line2d_50">
      <g>
       <use style="stroke:#000000;stroke-width:0.6;" x="57.6" xlink:href="#med77b36ef7" y="151.212239"/>
      </g>
     </g>
    </g>
    <g id="ytick_20">
     <g id="line2d_51">
      <path clip-path="url(#pa1f9ab25d2)" d="M 57.6 144.533401 
L 414.72 144.533401 
" style="fill:none;stroke:#b0b0b0;stroke-linecap:square;stroke-width:0.8;"/>
     </g>
     <g id="line2d_52">
      <g>
       <use style="stroke:#000000;stroke-width:0.6;" x="57.6" xlink:href="#med77b36ef7" y="144.533401"/>
      </g>
     </g>
    </g>
    <g id="ytick_21">
     <g id="line2d_53">
      <path clip-path="url(#pa1f9ab25d2)" d="M 57.6 138.886523 
L 414.72 138.886523 
" style="fill:none;stroke:#b0b0b0;stroke-linecap:square;stroke-width:0.8;"/>
     </g>
     <g id="line2d_54">
      <g>
       <use style="stroke:#000000;stroke-width:0.6;" x="57.6" xlink:href="#med77b36ef7" y="138.886523"/>
      </g>
     </g>
    </g>
    <g id="ytick_22">
     <g id="line2d_55">
      <path clip-path="url(#pa1f9ab25d2)" d="M 57.6 133.994976 
L 414.72 133.994976 
" style="fill:none;stroke:#b0b0b0;stroke-linecap:square;stroke-width:0.8;"/>
     </g>
     <g id="line2d_56">
      <g>
       <use style="stroke:#000000;stroke-width:0.6;" x="57.6" xlink:href="#med77b36ef7" y="133.994976"/>
      </g>
     </g>
    </g>
    <g id="ytick_23">
     <g id="line2d_57">
      <path clip-path="url(#pa1f9ab25d2)" d="M 57.6 129.680325 
L 414.72 129.680325 
" style="fill:none;stroke:#b0b0b0;stroke-linecap:square;stroke-width:0.8;"/>
     </g>
     <g id="line2d_58">
      <g>
       <use style="stroke:#000000;stroke-width:0.6;" x="57.6" xlink:href="#med77b36ef7" y="129.680325"/>
      </g>
     </g>
    </g>
    <g id="ytick_24">
     <g id="line2d_59">
      <path clip-path="url(#pa1f9ab25d2)" d="M 57.6 100.429238 
L 414.72 100.429238 
" style="fill:none;stroke:#b0b0b0;stroke-linecap:square;stroke-width:0.8;"/>
     </g>
     <g id="line2d_60">
      <g>
       <use style="stroke:#000000;stroke-width:0.6;" x="57.6" xlink:href="#med77b36ef7" y="100.429238"/>
      </g>
     </g>
    </g>
    <g id="ytick_25">
     <g id="line2d_61">
      <path clip-path="url(#pa1f9ab25d2)" d="M 57.6 85.576162 
L 414.72 85.576162 
" style="fill:none;stroke:#b0b0b0;stroke-linecap:square;stroke-width:0.8;"/>
     </g>
     <g id="line2d_62">
      <g>
       <use style="stroke:#000000;stroke-width:0.6;" x="57.6" xlink:href="#med77b36ef7" y="85.576162"/>
      </g>
     </g>
    </g>
    <g id="ytick_26">
     <g id="line2d_63">
      <path clip-path="url(#pa1f9ab25d2)" d="M 57.6 75.037738 
L 414.72 75.037738 
" style="fill:none;stroke:#b0b0b0;stroke-linecap:square;stroke-width:0.8;"/>
     </g>
     <g id="line2d_64">
      <g>
       <use style="stroke:#000000;stroke-width:0.6;" x="57.6" xlink:href="#med77b36ef7" y="75.037738"/>
      </g>
     </g>
    </g>
    <g id="ytick_27">
     <g id="line2d_65">
      <path clip-path="url(#pa1f9ab25d2)" d="M 57.6 66.8635 
L 414.72 66.8635 
" style="fill:none;stroke:#b0b0b0;stroke-linecap:square;stroke-width:0.8;"/>
     </g>
     <g id="line2d_66">
      <g>
       <use style="stroke:#000000;stroke-width:0.6;" x="57.6" xlink:href="#med77b36ef7" y="66.8635"/>
      </g>
     </g>
    </g>
    <g id="ytick_28">
     <g id="line2d_67">
      <path clip-path="url(#pa1f9ab25d2)" d="M 57.6 60.184662 
L 414.72 60.184662 
" style="fill:none;stroke:#b0b0b0;stroke-linecap:square;stroke-width:0.8;"/>
     </g>
     <g id="line2d_68">
      <g>
       <use style="stroke:#000000;stroke-width:0.6;" x="57.6" xlink:href="#med77b36ef7" y="60.184662"/>
      </g>
     </g>
    </g>
    <g id="ytick_29">
     <g id="line2d_69">
      <path clip-path="url(#pa1f9ab25d2)" d="M 57.6 54.537785 
L 414.72 54.537785 
" style="fill:none;stroke:#b0b0b0;stroke-linecap:square;stroke-width:0.8;"/>
     </g>
     <g id="line2d_70">
      <g>
       <use style="stroke:#000000;stroke-width:0.6;" x="57.6" xlink:href="#med77b36ef7" y="54.537785"/>
      </g>
     </g>
    </g>
    <g id="ytick_30">
     <g id="line2d_71">
      <path clip-path="url(#pa1f9ab25d2)" d="M 57.6 49.646237 
L 414.72 49.646237 
" style="fill:none;stroke:#b0b0b0;stroke-linecap:square;stroke-width:0.8;"/>
     </g>
     <g id="line2d_72">
      <g>
       <use style="stroke:#000000;stroke-width:0.6;" x="57.6" xlink:href="#med77b36ef7" y="49.646237"/>
      </g>
     </g>
    </g>
    <g id="ytick_31">
     <g id="line2d_73">
      <path clip-path="url(#pa1f9ab25d2)" d="M 57.6 45.331587 
L 414.72 45.331587 
" style="fill:none;stroke:#b0b0b0;stroke-linecap:square;stroke-width:0.8;"/>
     </g>
     <g id="line2d_74">
      <g>
       <use style="stroke:#000000;stroke-width:0.6;" x="57.6" xlink:href="#med77b36ef7" y="45.331587"/>
      </g>
     </g>
    </g>
    <g id="text_12">
     <!-- loss -->
     <defs>
      <path d="M 9.421875 75.984375 
L 18.40625 75.984375 
L 18.40625 0 
L 9.421875 0 
z
" id="DejaVuSans-6c"/>
     </defs>
     <g transform="translate(21.020313 184.185812)rotate(-90)scale(0.1 -0.1)">
      <use xlink:href="#DejaVuSans-6c"/>
      <use x="27.783203" xlink:href="#DejaVuSans-6f"/>
      <use x="88.964844" xlink:href="#DejaVuSans-73"/>
      <use x="141.064453" xlink:href="#DejaVuSans-73"/>
     </g>
    </g>
   </g>
   <g id="line2d_75">
    <path clip-path="url(#pa1f9ab25d2)" d="M 78.768339 -1 
L 80.397433 173.717645 
L 80.994225 217.360371 
L 81.591016 235.406193 
L 82.187807 244.955961 
L 82.784599 247.585136 
L 83.38139 247.644291 
L 83.978182 247.150576 
L 84.574973 248.730209 
L 85.171765 248.918019 
L 85.768556 246.759274 
L 86.365348 246.526368 
L 86.962139 247.958691 
L 87.55893 248.478306 
L 88.155722 248.019213 
L 88.752513 245.695197 
L 89.349305 245.491114 
L 89.946096 248.083207 
L 90.542888 249.052941 
L 91.139679 245.202599 
L 92.333262 248.490623 
L 92.930053 247.723946 
L 93.526845 246.367942 
L 94.123636 245.47024 
L 94.720428 249.173939 
L 95.317219 247.670801 
L 95.914011 248.746543 
L 96.510802 249.2886 
L 97.107594 247.720158 
L 97.704385 247.637355 
L 98.301176 248.566882 
L 98.897968 248.453401 
L 99.494759 247.775946 
L 100.091551 247.745237 
L 100.688342 247.475649 
L 101.285134 247.608136 
L 101.881925 247.41636 
L 102.478717 248.78198 
L 103.075508 249.437505 
L 103.672299 245.428474 
L 104.269091 244.518968 
L 104.865882 248.039734 
L 105.462674 247.881445 
L 106.059465 247.219638 
L 106.656257 247.698638 
L 107.253048 248.823687 
L 107.84984 248.845295 
L 108.446631 248.039321 
L 109.043422 248.804522 
L 109.640214 247.312908 
L 110.237005 246.292708 
L 110.833797 247.00446 
L 111.430588 248.562506 
L 112.02738 248.254052 
L 112.624171 247.469833 
L 113.220963 248.158284 
L 113.817754 246.750589 
L 114.414545 247.124286 
L 115.011337 244.762462 
L 115.608128 245.13012 
L 116.20492 246.882004 
L 116.801711 247.743071 
L 117.398503 248.217524 
L 117.995294 248.981308 
L 118.592086 249.120337 
L 119.188877 249.07313 
L 119.785668 247.435167 
L 120.38246 246.925091 
L 120.979251 248.470838 
L 121.576043 247.663035 
L 122.172834 248.64716 
L 123.366417 248.782789 
L 123.963209 245.641657 
L 124.56 245.780264 
L 125.156791 248.779264 
L 125.753583 246.19423 
L 126.350374 246.753033 
L 126.947166 248.929303 
L 127.543957 248.676056 
L 128.140749 247.356134 
L 128.73754 248.765664 
L 129.334332 248.076584 
L 129.931123 248.097553 
L 130.527914 246.490946 
L 131.124706 247.932986 
L 131.721497 248.735894 
L 132.91508 245.977407 
L 133.511872 247.244816 
L 134.108663 248.102456 
L 135.302246 245.263344 
L 135.899037 243.729634 
L 136.495829 248.083872 
L 137.09262 247.614238 
L 137.689412 245.628732 
L 138.286203 246.14917 
L 138.882995 246.42013 
L 139.479786 246.958994 
L 140.673369 248.528687 
L 141.27016 249.665897 
L 141.866952 247.935968 
L 142.463743 244.542238 
L 143.657326 248.185106 
L 144.254118 248.401669 
L 144.850909 249.534428 
L 145.447701 248.620862 
L 146.641283 245.995402 
L 147.238075 244.125791 
L 147.834866 245.041465 
L 148.431658 246.958198 
L 149.028449 248.217219 
L 149.625241 246.377746 
L 150.222032 245.609486 
L 150.818824 246.062475 
L 151.415615 244.023273 
L 152.012406 244.679562 
L 152.609198 246.008744 
L 153.205989 248.049533 
L 153.802781 248.341056 
L 154.399572 249.063231 
L 154.996364 249.430553 
L 155.593155 247.668773 
L 156.189947 247.842134 
L 156.786738 247.294821 
L 157.383529 248.298329 
L 157.980321 246.280951 
L 158.577112 248.843591 
L 159.173904 249.027904 
L 159.770695 248.945122 
L 160.367487 246.485816 
L 161.56107 247.516319 
L 162.157861 248.169453 
L 162.754652 249.67069 
L 163.351444 248.469625 
L 163.948235 247.563076 
L 164.545027 247.706202 
L 165.141818 244.348183 
L 165.73861 247.509855 
L 166.335401 248.775316 
L 166.932193 248.244998 
L 168.125775 247.994463 
L 168.722567 246.655541 
L 169.319358 247.869565 
L 169.91615 248.513816 
L 170.512941 247.888183 
L 171.706524 247.275809 
L 172.303316 244.986811 
L 172.900107 245.941344 
L 173.496898 246.541718 
L 174.09369 247.939089 
L 174.690481 246.56101 
L 175.287273 249.213042 
L 175.884064 249.419656 
L 176.480856 249.06026 
L 177.077647 249.366948 
L 177.674439 249.305966 
L 178.27123 248.827232 
L 178.868021 247.965081 
L 179.464813 249.335088 
L 180.061604 248.819476 
L 180.658396 247.677518 
L 181.255187 247.998108 
L 181.851979 249.556401 
L 182.44877 249.112097 
L 183.045561 248.062825 
L 183.642353 247.353099 
L 184.239144 246.409287 
L 184.835936 246.772658 
L 185.432727 248.584606 
L 186.029519 246.152375 
L 186.62631 248.100201 
L 187.223102 247.836811 
L 187.819893 245.553173 
L 188.416684 248.888598 
L 189.013476 248.521556 
L 189.610267 246.315791 
L 190.207059 247.032468 
L 190.80385 246.783225 
L 191.400642 244.576207 
L 191.997433 246.627788 
L 192.594225 246.101292 
L 193.191016 249.113879 
L 194.384599 248.969117 
L 194.98139 245.887217 
L 195.578182 248.845164 
L 196.174973 249.090601 
L 196.771765 248.67748 
L 197.368556 247.634458 
L 197.965348 247.785111 
L 198.562139 243.970319 
L 199.15893 247.212823 
L 199.755722 245.421658 
L 200.352513 246.961953 
L 201.546096 249.041804 
L 202.142888 247.958359 
L 202.739679 248.688806 
L 203.336471 244.308681 
L 203.933262 248.516494 
L 204.530053 245.699989 
L 205.126845 246.794826 
L 205.723636 248.86129 
L 206.320428 248.121813 
L 206.917219 248.636445 
L 207.514011 246.564439 
L 208.110802 247.533614 
L 208.707594 244.838809 
L 209.304385 246.23362 
L 209.901176 246.150112 
L 210.497968 248.645388 
L 211.094759 247.485663 
L 211.691551 248.711443 
L 212.288342 249.435392 
L 212.885134 248.623116 
L 213.481925 248.045077 
L 214.078717 246.75241 
L 214.675508 246.578592 
L 215.272299 247.640496 
L 215.869091 246.59962 
L 216.465882 245.824937 
L 217.062674 247.21344 
L 217.659465 247.321581 
L 218.256257 247.170021 
L 219.44984 247.640367 
L 220.046631 244.577515 
L 220.643422 243.902314 
L 221.240214 247.445972 
L 221.837005 246.063909 
L 222.433797 246.363034 
L 223.030588 248.716966 
L 223.62738 245.707578 
L 224.224171 246.038594 
L 224.820963 248.05039 
L 225.417754 247.895998 
L 226.014545 249.282386 
L 226.611337 248.041136 
L 227.80492 248.311653 
L 228.401711 248.91521 
L 228.998503 248.896576 
L 229.595294 248.48103 
L 230.192086 244.618903 
L 231.385668 248.355469 
L 231.98246 249.176767 
L 233.176043 248.866745 
L 233.772834 248.993288 
L 234.369626 247.072904 
L 234.966417 246.1776 
L 235.563209 248.359725 
L 236.16 248.409625 
L 236.756791 249.026655 
L 237.353583 247.530261 
L 237.950374 247.426874 
L 238.547166 246.021631 
L 239.143957 247.889573 
L 239.740749 247.544929 
L 240.33754 248.132502 
L 240.934332 247.54414 
L 241.531123 242.482254 
L 242.127914 242.075589 
L 242.724706 247.830586 
L 243.321497 247.960807 
L 243.918289 248.685156 
L 244.51508 248.933576 
L 245.111872 248.872757 
L 245.708663 248.111084 
L 246.305455 247.822512 
L 247.499037 248.30989 
L 248.095829 247.59113 
L 248.69262 247.531642 
L 249.289412 245.761267 
L 249.886203 246.791674 
L 250.482995 246.15233 
L 251.079786 247.470506 
L 251.676578 247.122704 
L 252.273369 247.102942 
L 252.87016 247.870604 
L 253.466952 248.880014 
L 254.063743 247.113156 
L 254.660535 248.493152 
L 255.257326 249.403375 
L 255.854118 249.153326 
L 256.450909 246.59879 
L 257.047701 245.352343 
L 257.644492 246.071282 
L 258.241283 249.525934 
L 258.838075 249.481697 
L 259.434866 247.527536 
L 260.031658 247.653333 
L 260.628449 248.17266 
L 261.225241 248.436193 
L 261.822032 247.589657 
L 262.418824 247.704835 
L 263.015615 248.308861 
L 263.612406 246.474786 
L 264.209198 248.679695 
L 264.805989 245.177099 
L 265.402781 244.826602 
L 265.999572 249.312504 
L 267.193155 247.558641 
L 267.789947 247.263701 
L 268.386738 247.786405 
L 268.983529 249.030851 
L 269.580321 247.844049 
L 270.177112 245.72299 
L 270.773904 246.135868 
L 271.370695 243.946215 
L 272.564278 248.861152 
L 273.16107 246.69545 
L 273.757861 247.270036 
L 274.354652 248.33378 
L 275.548235 246.473398 
L 276.145027 248.572182 
L 276.741818 247.683944 
L 277.33861 248.259327 
L 277.935401 246.731392 
L 278.532193 246.248249 
L 279.128984 247.776853 
L 279.725775 248.468525 
L 280.919358 249.327312 
L 281.51615 248.419191 
L 282.112941 249.667294 
L 282.709733 248.6925 
L 283.306524 248.042749 
L 283.903316 248.773997 
L 284.500107 246.299711 
L 285.096898 244.627476 
L 285.69369 247.002834 
L 286.290481 248.771123 
L 286.887273 247.565546 
L 287.484064 247.162268 
L 288.080856 249.023266 
L 288.677647 248.356298 
L 289.274439 248.637939 
L 289.87123 246.584632 
L 290.468021 243.441747 
L 291.064813 244.809565 
L 291.661604 247.642581 
L 292.258396 249.240602 
L 292.855187 245.988688 
L 293.451979 245.481321 
L 294.04877 248.319161 
L 294.645561 248.244316 
L 295.242353 245.927864 
L 295.839144 246.438031 
L 296.435936 247.357721 
L 297.032727 246.761153 
L 297.629519 244.133102 
L 298.22631 248.052513 
L 298.823102 247.874119 
L 299.419893 247.981482 
L 300.016684 247.160961 
L 300.613476 246.841536 
L 301.210267 248.58373 
L 301.807059 248.844894 
L 302.40385 246.66224 
L 303.000642 248.559213 
L 303.597433 248.913707 
L 304.194225 246.484403 
L 304.791016 248.666658 
L 305.387807 248.755749 
L 305.984599 247.931072 
L 306.58139 249.163546 
L 307.178182 248.947941 
L 307.774973 248.014773 
L 308.371765 249.175142 
L 308.968556 247.755386 
L 309.565348 245.967638 
L 310.162139 244.832225 
L 310.75893 248.234769 
L 311.355722 246.435418 
L 311.952513 248.844979 
L 312.549305 246.617387 
L 313.146096 248.185826 
L 313.742888 248.74293 
L 314.339679 245.39615 
L 314.936471 249.016542 
L 315.533262 248.354783 
L 316.130053 245.005626 
L 316.726845 246.922033 
L 317.323636 248.335718 
L 317.920428 246.656056 
L 318.517219 246.236007 
L 319.114011 248.416902 
L 319.710802 245.239589 
L 320.307594 246.131106 
L 320.904385 248.601658 
L 321.501176 249.130127 
L 322.097968 246.460147 
L 323.888342 248.818449 
L 324.485134 248.619124 
L 325.081925 248.817581 
L 326.275508 244.313387 
L 327.469091 248.398166 
L 328.065882 246.868697 
L 328.662674 244.964518 
L 329.259465 245.695101 
L 329.856257 247.929054 
L 330.453048 246.722869 
L 331.04984 246.998146 
L 331.646631 245.383872 
L 332.243422 247.803035 
L 332.840214 248.505748 
L 333.437005 246.533878 
L 334.033797 246.756838 
L 334.630588 247.889664 
L 335.22738 248.280468 
L 335.824171 246.147154 
L 336.420963 248.49919 
L 337.017754 247.122935 
L 337.614545 248.880816 
L 338.211337 248.174761 
L 338.808128 248.994805 
L 340.001711 248.106684 
L 340.598503 248.118149 
L 341.195294 246.941303 
L 341.792086 246.273506 
L 342.388877 245.936522 
L 342.985668 248.387909 
L 343.58246 247.915769 
L 344.179251 249.165688 
L 344.776043 249.054492 
L 345.372834 248.632356 
L 345.969626 247.340476 
L 346.566417 248.099304 
L 347.163209 248.375139 
L 347.76 246.25611 
L 348.356791 246.951463 
L 348.953583 247.027774 
L 349.550374 246.121824 
L 350.147166 247.602928 
L 350.743957 246.218899 
L 351.340749 246.364351 
L 352.534332 248.720536 
L 353.727914 246.488334 
L 354.324706 247.198946 
L 354.921497 247.465789 
L 355.518289 248.765983 
L 356.11508 247.642294 
L 356.711872 245.287135 
L 357.905455 248.569296 
L 358.502246 249.096962 
L 359.099037 249.003934 
L 359.695829 248.636887 
L 360.29262 248.427705 
L 360.889412 248.594258 
L 361.486203 249.13666 
L 362.082995 249.336718 
L 362.679786 249.193704 
L 363.276578 248.403461 
L 363.873369 243.424662 
L 364.47016 243.734875 
L 365.066952 244.89154 
L 365.663743 245.255408 
L 366.260535 248.144154 
L 366.857326 246.010051 
L 367.454118 246.885873 
L 368.050909 247.385059 
L 368.647701 249.592726 
L 369.244492 249.209411 
L 369.841283 248.268042 
L 370.438075 246.677106 
L 371.034866 247.37276 
L 371.631658 248.545737 
L 372.228449 248.538117 
L 372.825241 247.787148 
L 373.422032 247.393186 
L 374.018824 247.736696 
L 374.615615 246.822249 
L 375.212406 245.265879 
L 375.809198 248.699683 
L 376.405989 249.521015 
L 377.002781 248.331305 
L 377.599572 247.511133 
L 378.196364 249.199119 
L 378.793155 248.331468 
L 379.389947 248.308943 
L 379.986738 248.614857 
L 380.583529 247.558017 
L 381.180321 247.351448 
L 381.777112 247.387234 
L 382.373904 249.473817 
L 382.970695 248.597729 
L 383.567487 245.622612 
L 384.164278 246.475485 
L 384.76107 245.210037 
L 385.357861 247.576252 
L 385.954652 247.611886 
L 386.551444 247.864912 
L 387.745027 246.710852 
L 388.341818 245.890866 
L 388.93861 245.592346 
L 389.535401 245.790909 
L 390.132193 248.543526 
L 390.728984 249.143588 
L 391.325775 245.039969 
L 391.922567 247.569669 
L 392.519358 246.154465 
L 393.11615 247.84751 
L 393.712941 246.334051 
L 394.309733 243.839225 
L 394.906524 246.397457 
L 395.503316 246.52058 
L 396.100107 249.025803 
L 396.696898 248.87648 
L 397.29369 246.573755 
L 397.890481 247.709676 
L 398.487273 246.740906 
L 398.487273 246.740906 
" style="fill:none;stroke:#1f77b4;stroke-linecap:square;stroke-width:1.5;"/>
   </g>
   <g id="line2d_76">
    <path clip-path="url(#pa1f9ab25d2)" d="M 73.832727 174.721116 
L 74.429519 245.407961 
L 75.02631 246.931612 
L 75.623102 247.884653 
L 76.219893 249.633661 
L 76.816684 248.934124 
L 77.413476 250.290451 
L 78.010267 251.267697 
L 78.607059 251.048489 
L 79.20385 250.975872 
L 79.800642 252.704455 
L 80.397433 253.109451 
L 80.994225 253.005555 
L 81.591016 253.099836 
L 82.187807 253.811539 
L 82.784599 254.208883 
L 83.978182 253.778067 
L 84.574973 254.554341 
L 86.365348 254.187354 
L 86.962139 254.168437 
L 87.55893 255.211177 
L 88.155722 255.454027 
L 88.752513 255.193449 
L 89.349305 255.524256 
L 91.139679 255.351069 
L 91.736471 255.775933 
L 92.930053 255.665644 
L 93.526845 255.733987 
L 94.123636 254.647769 
L 94.720428 255.795859 
L 95.317219 255.636333 
L 95.914011 256.282774 
L 97.107594 256.227665 
L 97.704385 256.228738 
L 98.897968 255.982603 
L 99.494759 256.295327 
L 100.091551 255.682459 
L 100.688342 256.401865 
L 101.881925 256.038771 
L 102.478717 256.94356 
L 103.075508 256.766319 
L 103.672299 256.082881 
L 104.269091 256.41747 
L 104.865882 256.333226 
L 105.462674 256.89233 
L 106.059465 256.012252 
L 106.656257 256.686172 
L 107.253048 256.914314 
L 107.84984 256.502247 
L 108.446631 256.920049 
L 109.043422 256.773321 
L 109.640214 256.044178 
L 110.237005 256.289086 
L 110.833797 255.913457 
L 111.430588 257.292299 
L 112.02738 257.052499 
L 112.624171 256.614352 
L 113.220963 257.094251 
L 113.817754 256.929372 
L 114.414545 256.431009 
L 115.011337 256.882058 
L 115.608128 256.527 
L 116.20492 257.109722 
L 116.801711 257.163948 
L 117.398503 257.499911 
L 117.995294 257.708278 
L 118.592086 257.267269 
L 119.188877 257.484392 
L 119.785668 257.137545 
L 120.38246 257.558089 
L 120.979251 257.499316 
L 121.576043 256.801885 
L 122.172834 257.49976 
L 122.769626 257.279122 
L 123.963209 257.436443 
L 124.56 257.062885 
L 125.156791 257.586267 
L 126.350374 256.968242 
L 126.947166 257.698221 
L 127.543957 257.862367 
L 128.140749 257.644516 
L 129.334332 257.879682 
L 129.931123 257.746618 
L 130.527914 258.137934 
L 131.124706 257.791216 
L 131.721497 258.056821 
L 132.318289 256.771171 
L 132.91508 257.082404 
L 133.511872 257.890778 
L 134.108663 258.120479 
L 135.899037 257.784505 
L 136.495829 258.335356 
L 137.09262 257.609908 
L 137.689412 258.026146 
L 138.286203 258.161513 
L 138.882995 257.211395 
L 139.479786 258.240181 
L 140.673369 258.302418 
L 141.27016 258.519268 
L 141.866952 257.91745 
L 142.463743 257.829602 
L 143.060535 258.556384 
L 143.657326 257.77088 
L 144.254118 258.527318 
L 144.850909 258.361522 
L 145.447701 258.708491 
L 146.044492 257.050156 
L 146.641283 258.035552 
L 147.238075 257.555253 
L 147.834866 257.811841 
L 148.431658 257.160922 
L 149.028449 258.713172 
L 149.625241 258.551538 
L 150.222032 258.245969 
L 150.818824 258.716635 
L 151.415615 258.070188 
L 152.012406 258.633271 
L 152.609198 258.215872 
L 153.205989 258.864567 
L 153.802781 258.386737 
L 154.399572 258.332259 
L 154.996364 259.20024 
L 155.593155 258.207532 
L 156.189947 258.360532 
L 156.786738 258.36127 
L 157.383529 259.207956 
L 158.577112 258.855938 
L 159.173904 259.070631 
L 159.770695 258.950488 
L 160.367487 258.136211 
L 160.964278 258.957276 
L 161.56107 258.597115 
L 162.754652 259.110975 
L 163.351444 259.021522 
L 163.948235 258.817576 
L 164.545027 258.354134 
L 165.141818 258.166344 
L 165.73861 258.469734 
L 166.335401 259.233202 
L 166.932193 258.426721 
L 167.528984 259.171986 
L 168.125775 259.156865 
L 168.722567 258.508926 
L 169.319358 259.269955 
L 169.91615 259.034411 
L 170.512941 258.663151 
L 171.109733 258.533842 
L 171.706524 258.887221 
L 172.303316 258.856094 
L 172.900107 259.248401 
L 173.496898 258.471219 
L 174.09369 258.956275 
L 174.690481 258.53329 
L 175.287273 259.558369 
L 175.884064 259.439697 
L 176.480856 259.745359 
L 177.077647 259.471647 
L 177.674439 259.654855 
L 178.27123 259.280019 
L 178.868021 258.720087 
L 179.464813 259.469131 
L 180.061604 259.440074 
L 180.658396 258.78685 
L 181.255187 259.533148 
L 181.851979 259.355905 
L 182.44877 259.618719 
L 183.045561 259.541071 
L 183.642353 258.260367 
L 184.239144 259.256993 
L 184.835936 259.63551 
L 185.432727 259.651529 
L 186.029519 257.904963 
L 186.62631 259.420924 
L 187.223102 259.356705 
L 187.819893 258.611684 
L 188.416684 258.740814 
L 189.013476 259.556324 
L 189.610267 258.294277 
L 190.207059 259.829521 
L 190.80385 259.663198 
L 191.400642 259.340803 
L 191.997433 259.565917 
L 192.594225 259.086477 
L 193.191016 259.714167 
L 193.787807 259.451951 
L 194.98139 259.689115 
L 195.578182 259.032732 
L 196.174973 259.563741 
L 196.771765 259.349466 
L 197.368556 259.719761 
L 197.965348 259.612542 
L 198.562139 258.582806 
L 199.15893 259.677062 
L 199.755722 260.233673 
L 200.352513 259.470622 
L 200.949305 259.824872 
L 202.142888 259.717871 
L 202.739679 259.859941 
L 203.336471 259.091824 
L 203.933262 259.259709 
L 204.530053 257.808481 
L 205.126845 260.138825 
L 205.723636 260.030624 
L 206.320428 259.430012 
L 206.917219 259.399485 
L 208.110802 259.721435 
L 208.707594 259.284684 
L 209.304385 258.664681 
L 209.901176 259.698034 
L 210.497968 260.146204 
L 211.094759 260.401698 
L 211.691551 260.033576 
L 212.288342 260.577022 
L 213.481925 260.487958 
L 214.078717 260.045285 
L 214.675508 259.945198 
L 215.272299 260.30971 
L 215.869091 259.572819 
L 216.465882 260.18584 
L 217.062674 259.78103 
L 218.256257 260.036225 
L 218.853048 260.081471 
L 219.44984 260.307389 
L 220.046631 259.343417 
L 220.643422 259.21466 
L 221.240214 259.307153 
L 221.837005 259.84495 
L 222.433797 259.917468 
L 223.030588 260.216623 
L 223.62738 259.209206 
L 224.224171 259.769937 
L 224.820963 260.581482 
L 226.014545 260.558842 
L 226.611337 259.897179 
L 227.208128 260.589781 
L 227.80492 260.451176 
L 228.401711 260.753727 
L 228.998503 260.22983 
L 229.595294 260.102806 
L 230.192086 259.366159 
L 230.788877 260.370959 
L 233.772834 260.650915 
L 234.369626 260.256136 
L 234.966417 260.57786 
L 235.563209 260.701468 
L 236.16 260.015731 
L 236.756791 260.885493 
L 237.353583 260.897495 
L 237.950374 260.194127 
L 238.547166 260.44689 
L 239.143957 260.175321 
L 239.740749 260.474876 
L 240.33754 261.005053 
L 240.934332 260.21221 
L 241.531123 259.218234 
L 242.127914 260.055304 
L 242.724706 260.665013 
L 243.321497 260.380569 
L 243.918289 260.860393 
L 244.51508 261.096226 
L 245.111872 261.136309 
L 245.708663 261.009047 
L 246.305455 260.747763 
L 246.902246 261.32776 
L 247.499037 261.047608 
L 248.095829 261.233362 
L 248.69262 261.10532 
L 249.289412 261.168721 
L 249.886203 260.38939 
L 250.482995 259.897953 
L 251.079786 260.315049 
L 251.676578 260.587542 
L 252.273369 261.115321 
L 252.87016 260.234567 
L 253.466952 260.674706 
L 253.466952 260.674706 
" style="fill:none;stroke:#ff7f0e;stroke-linecap:square;stroke-width:1.5;"/>
   </g>
   <g id="line2d_77">
    <path clip-path="url(#pa1f9ab25d2)" d="M 73.832727 147.043544 
L 74.429519 185.607065 
L 75.02631 215.881926 
L 75.623102 233.831156 
L 76.219893 241.682239 
L 76.816684 244.428476 
L 77.413476 245.413856 
L 78.010267 245.830734 
L 80.397433 246.522388 
L 83.978182 247.269424 
L 88.155722 248.128561 
L 91.139679 248.63713 
L 93.526845 249.041143 
L 97.704385 249.681965 
L 100.688342 250.120594 
L 114.414545 251.679063 
L 123.963209 252.50638 
L 128.73754 252.833006 
L 131.124706 253.015814 
L 144.850909 253.783304 
L 146.641283 253.843166 
L 163.351444 254.517106 
L 164.545027 254.520881 
L 166.335401 254.606388 
L 167.528984 254.649174 
L 181.255187 255.010784 
L 184.239144 255.054193 
L 186.62631 255.134551 
L 190.80385 255.236836 
L 198.562139 255.340683 
L 200.352513 255.412069 
L 206.917219 255.516322 
L 211.691551 255.624637 
L 220.046631 255.719851 
L 255.854118 256.21076 
L 257.047701 256.180138 
L 258.838075 256.231917 
L 285.096898 256.480423 
L 288.080856 256.538391 
L 290.468021 256.520513 
L 294.645561 256.596402 
L 300.016684 256.603238 
L 302.40385 256.655783 
L 314.339679 256.746998 
L 319.710802 256.790804 
L 340.001711 256.948781 
L 340.001711 256.948781 
" style="fill:none;stroke:#2ca02c;stroke-linecap:square;stroke-width:1.5;"/>
   </g>
   <g id="line2d_78">
    <path clip-path="url(#pa1f9ab25d2)" d="M 73.832727 171.085295 
L 74.429519 247.384951 
L 75.02631 269.072497 
L 75.623102 284.224793 
L 76.219893 286.562417 
L 76.816684 287.810454 
L 77.413476 289.064177 
L 78.010267 290.431303 
L 78.607059 290.286191 
L 79.20385 289.543111 
L 79.800642 290.889522 
L 80.397433 291.600653 
L 80.994225 290.009504 
L 81.591016 290.888531 
L 82.187807 291.636381 
" style="fill:none;stroke:#d62728;stroke-dasharray:5.55,2.4;stroke-dashoffset:0;stroke-width:1.5;"/>
   </g>
   <g id="line2d_79">
    <path clip-path="url(#pa1f9ab25d2)" d="M 73.832727 171.085295 
L 74.429519 247.384951 
L 75.02631 268.379245 
L 75.623102 283.316337 
L 76.219893 286.23686 
L 76.816684 288.627151 
L 77.413476 289.093568 
L 78.010267 289.955378 
L 78.607059 290.068738 
L 79.20385 288.870169 
L 79.800642 289.494573 
L 80.397433 291.330478 
L 80.994225 289.274275 
L 81.591016 290.306596 
L 82.187807 291.539125 
L 82.784599 292.658105 
L 83.38139 291.931527 
L 83.978182 292.410603 
L 84.574973 291.922474 
L 85.171765 291.960847 
L 85.768556 292.055541 
L 86.365348 292.000768 
" style="fill:none;stroke:#9467bd;stroke-dasharray:5.55,2.4;stroke-dashoffset:0;stroke-width:1.5;"/>
   </g>
   <g id="line2d_80">
    <path clip-path="url(#pa1f9ab25d2)" d="M 73.832727 171.085295 
L 74.429519 247.384951 
L 75.02631 271.99511 
L 75.623102 286.784583 
L 76.219893 286.283442 
L 76.816684 286.54125 
L 77.413476 288.628353 
L 78.010267 288.201355 
L 78.607059 288.35274 
L 79.20385 288.435793 
L 79.800642 289.136146 
L 80.397433 289.122196 
L 80.994225 287.820811 
L 81.591016 289.474206 
L 82.187807 290.011953 
L 82.784599 288.668558 
L 83.38139 289.540094 
L 83.978182 290.370072 
L 84.574973 287.887678 
L 85.171765 289.969221 
L 85.768556 290.216639 
L 86.365348 289.90178 
L 86.962139 288.63658 
L 87.55893 290.982147 
L 88.155722 291.233016 
L 88.752513 291.150005 
L 89.349305 290.701646 
L 89.946096 291.110456 
L 90.542888 291.745159 
L 91.139679 289.612577 
L 91.736471 292.108983 
L 92.333262 288.22699 
L 92.930053 289.394487 
L 93.526845 290.568755 
L 94.123636 290.916543 
L 94.720428 290.504761 
L 95.317219 291.400065 
L 95.914011 291.04438 
" style="fill:none;stroke:#8c564b;stroke-dasharray:5.55,2.4;stroke-dashoffset:0;stroke-width:1.5;"/>
   </g>
   <g id="line2d_81">
    <path clip-path="url(#pa1f9ab25d2)" d="M 73.832727 171.085295 
L 74.429519 247.384951 
L 75.02631 273.858933 
L 75.623102 287.701256 
L 76.219893 289.001041 
L 76.816684 288.225938 
L 77.413476 289.404699 
L 78.010267 289.161389 
L 78.607059 289.623609 
L 79.20385 290.200121 
L 79.800642 290.094533 
L 80.397433 289.434068 
L 80.994225 289.481696 
L 81.591016 289.974874 
L 82.187807 290.119004 
L 82.784599 290.674178 
L 83.38139 289.881016 
L 83.978182 290.221293 
L 84.574973 290.704961 
L 85.171765 290.629596 
L 85.768556 290.100202 
L 86.365348 290.613301 
L 86.962139 290.311979 
L 87.55893 290.766778 
L 88.155722 290.39533 
L 88.752513 290.69719 
L 89.349305 290.244306 
L 89.946096 290.856086 
L 90.542888 290.546648 
L 91.139679 289.995743 
L 91.736471 290.89844 
L 92.333262 290.449194 
L 92.930053 290.29184 
L 93.526845 290.942943 
L 94.123636 290.289297 
L 94.720428 290.458442 
L 95.317219 290.633416 
L 95.914011 290.732411 
L 96.510802 290.51685 
L 97.107594 291.04767 
L 97.704385 291.312894 
L 98.301176 290.806286 
L 98.897968 290.806336 
L 99.494759 291.428881 
L 100.091551 291.125095 
L 100.688342 291.139897 
L 101.285134 291.049465 
L 101.881925 291.11606 
L 102.478717 290.968585 
L 103.075508 290.576182 
L 103.672299 289.676577 
L 104.269091 291.004622 
L 104.865882 291.124491 
" style="fill:none;stroke:#e377c2;stroke-dasharray:5.55,2.4;stroke-dashoffset:0;stroke-width:1.5;"/>
   </g>
   <g id="line2d_82">
    <path clip-path="url(#pa1f9ab25d2)" d="M 73.832727 171.085295 
L 74.429519 247.384951 
L 75.02631 273.83162 
L 75.623102 287.614115 
L 76.219893 288.626087 
L 76.816684 287.651225 
L 77.413476 288.544825 
L 78.010267 288.491745 
L 78.607059 288.84475 
L 79.20385 288.988488 
L 79.800642 289.170823 
L 80.397433 288.791814 
L 80.994225 289.032092 
L 81.591016 289.354641 
L 82.187807 289.180608 
L 82.784599 289.962473 
L 83.38139 289.607944 
L 83.978182 289.714283 
L 84.574973 289.91922 
L 85.171765 289.78823 
L 85.768556 289.661124 
L 86.365348 289.767375 
L 86.962139 289.702794 
L 87.55893 290.101527 
L 88.155722 289.947445 
L 88.752513 289.996601 
L 89.349305 289.592319 
L 89.946096 289.956693 
L 90.542888 290.007516 
L 91.139679 289.631136 
L 91.736471 290.312215 
L 92.333262 290.316865 
L 92.930053 289.760952 
L 93.526845 290.073809 
L 94.123636 290.01222 
L 94.720428 290.387392 
L 95.317219 290.427036 
L 95.914011 290.468736 
L 96.510802 290.502827 
L 97.107594 290.190687 
L 97.704385 290.465973 
L 98.301176 290.489508 
L 98.897968 290.605633 
L 99.494759 290.897262 
L 100.091551 290.483655 
L 100.688342 290.363998 
L 101.285134 290.53046 
L 101.881925 290.610185 
L 102.478717 290.450142 
L 103.075508 290.273323 
L 103.672299 289.589258 
L 104.269091 290.930991 
L 104.865882 290.651554 
L 105.462674 291.044777 
L 106.059465 290.042074 
L 106.656257 290.70339 
L 107.253048 290.422271 
L 107.84984 290.851049 
L 108.446631 290.623924 
L 109.043422 290.678519 
L 109.640214 290.33313 
L 110.237005 290.428215 
L 110.833797 290.751114 
L 111.430588 290.479766 
L 112.02738 290.972278 
L 112.624171 290.957567 
" style="fill:none;stroke:#7f7f7f;stroke-dasharray:5.55,2.4;stroke-dashoffset:0;stroke-width:1.5;"/>
   </g>
   <g id="patch_3">
    <path d="M 57.6 307.584 
L 57.6 41.472 
" style="fill:none;stroke:#000000;stroke-linecap:square;stroke-linejoin:miter;stroke-width:0.8;"/>
   </g>
   <g id="patch_4">
    <path d="M 414.72 307.584 
L 414.72 41.472 
" style="fill:none;stroke:#000000;stroke-linecap:square;stroke-linejoin:miter;stroke-width:0.8;"/>
   </g>
   <g id="patch_5">
    <path d="M 57.6 307.584 
L 414.72 307.584 
" style="fill:none;stroke:#000000;stroke-linecap:square;stroke-linejoin:miter;stroke-width:0.8;"/>
   </g>
   <g id="patch_6">
    <path d="M 57.6 41.472 
L 414.72 41.472 
" style="fill:none;stroke:#000000;stroke-linecap:square;stroke-linejoin:miter;stroke-width:0.8;"/>
   </g>
   <g id="legend_1">
    <g id="patch_7">
     <path d="M 299.895 166.897 
L 407.72 166.897 
Q 409.72 166.897 409.72 164.897 
L 409.72 48.472 
Q 409.72 46.472 407.72 46.472 
L 299.895 46.472 
Q 297.895 46.472 297.895 48.472 
L 297.895 164.897 
Q 297.895 166.897 299.895 166.897 
z
" style="fill:#ffffff;opacity:0.8;stroke:#cccccc;stroke-linejoin:miter;"/>
    </g>
    <g id="line2d_83">
     <path d="M 301.895 54.570438 
L 321.895 54.570438 
" style="fill:none;stroke:#1f77b4;stroke-linecap:square;stroke-width:1.5;"/>
    </g>
    <g id="line2d_84"/>
    <g id="text_13">
     <!-- SGD, lr 0.1 -->
     <defs>
      <path d="M 53.515625 70.515625 
L 53.515625 60.890625 
Q 47.90625 63.578125 42.921875 64.890625 
Q 37.9375 66.21875 33.296875 66.21875 
Q 25.25 66.21875 20.875 63.09375 
Q 16.5 59.96875 16.5 54.203125 
Q 16.5 49.359375 19.40625 46.890625 
Q 22.3125 44.4375 30.421875 42.921875 
L 36.375 41.703125 
Q 47.40625 39.59375 52.65625 34.296875 
Q 57.90625 29 57.90625 20.125 
Q 57.90625 9.515625 50.796875 4.046875 
Q 43.703125 -1.421875 29.984375 -1.421875 
Q 24.8125 -1.421875 18.96875 -0.25 
Q 13.140625 0.921875 6.890625 3.21875 
L 6.890625 13.375 
Q 12.890625 10.015625 18.65625 8.296875 
Q 24.421875 6.59375 29.984375 6.59375 
Q 38.421875 6.59375 43.015625 9.90625 
Q 47.609375 13.234375 47.609375 19.390625 
Q 47.609375 24.75 44.3125 27.78125 
Q 41.015625 30.8125 33.5 32.328125 
L 27.484375 33.5 
Q 16.453125 35.6875 11.515625 40.375 
Q 6.59375 45.0625 6.59375 53.421875 
Q 6.59375 63.09375 13.40625 68.65625 
Q 20.21875 74.21875 32.171875 74.21875 
Q 37.3125 74.21875 42.625 73.28125 
Q 47.953125 72.359375 53.515625 70.515625 
z
" id="DejaVuSans-53"/>
      <path d="M 59.515625 10.40625 
L 59.515625 29.984375 
L 43.40625 29.984375 
L 43.40625 38.09375 
L 69.28125 38.09375 
L 69.28125 6.78125 
Q 63.578125 2.734375 56.6875 0.65625 
Q 49.8125 -1.421875 42 -1.421875 
Q 24.90625 -1.421875 15.25 8.5625 
Q 5.609375 18.5625 5.609375 36.375 
Q 5.609375 54.25 15.25 64.234375 
Q 24.90625 74.21875 42 74.21875 
Q 49.125 74.21875 55.546875 72.453125 
Q 61.96875 70.703125 67.390625 67.28125 
L 67.390625 56.78125 
Q 61.921875 61.421875 55.765625 63.765625 
Q 49.609375 66.109375 42.828125 66.109375 
Q 29.4375 66.109375 22.71875 58.640625 
Q 16.015625 51.171875 16.015625 36.375 
Q 16.015625 21.625 22.71875 14.15625 
Q 29.4375 6.6875 42.828125 6.6875 
Q 48.046875 6.6875 52.140625 7.59375 
Q 56.25 8.5 59.515625 10.40625 
z
" id="DejaVuSans-47"/>
      <path d="M 19.671875 64.796875 
L 19.671875 8.109375 
L 31.59375 8.109375 
Q 46.6875 8.109375 53.6875 14.9375 
Q 60.6875 21.78125 60.6875 36.53125 
Q 60.6875 51.171875 53.6875 57.984375 
Q 46.6875 64.796875 31.59375 64.796875 
z
M 9.8125 72.90625 
L 30.078125 72.90625 
Q 51.265625 72.90625 61.171875 64.09375 
Q 71.09375 55.28125 71.09375 36.53125 
Q 71.09375 17.671875 61.125 8.828125 
Q 51.171875 0 30.078125 0 
L 9.8125 0 
z
" id="DejaVuSans-44"/>
      <path d="M 11.71875 12.40625 
L 22.015625 12.40625 
L 22.015625 4 
L 14.015625 -11.625 
L 7.71875 -11.625 
L 11.71875 4 
z
" id="DejaVuSans-2c"/>
      <path id="DejaVuSans-20"/>
      <path d="M 41.109375 46.296875 
Q 39.59375 47.171875 37.8125 47.578125 
Q 36.03125 48 33.890625 48 
Q 26.265625 48 22.1875 43.046875 
Q 18.109375 38.09375 18.109375 28.8125 
L 18.109375 0 
L 9.078125 0 
L 9.078125 54.6875 
L 18.109375 54.6875 
L 18.109375 46.1875 
Q 20.953125 51.171875 25.484375 53.578125 
Q 30.03125 56 36.53125 56 
Q 37.453125 56 38.578125 55.875 
Q 39.703125 55.765625 41.0625 55.515625 
z
" id="DejaVuSans-72"/>
      <path d="M 10.6875 12.40625 
L 21 12.40625 
L 21 0 
L 10.6875 0 
z
" id="DejaVuSans-2e"/>
     </defs>
     <g transform="translate(329.895 58.070438)scale(0.1 -0.1)">
      <use xlink:href="#DejaVuSans-53"/>
      <use x="63.476562" xlink:href="#DejaVuSans-47"/>
      <use x="140.966797" xlink:href="#DejaVuSans-44"/>
      <use x="217.96875" xlink:href="#DejaVuSans-2c"/>
      <use x="249.755859" xlink:href="#DejaVuSans-20"/>
      <use x="281.542969" xlink:href="#DejaVuSans-6c"/>
      <use x="309.326172" xlink:href="#DejaVuSans-72"/>
      <use x="350.439453" xlink:href="#DejaVuSans-20"/>
      <use x="382.226562" xlink:href="#DejaVuSans-30"/>
      <use x="445.849609" xlink:href="#DejaVuSans-2e"/>
      <use x="477.636719" xlink:href="#DejaVuSans-31"/>
     </g>
    </g>
    <g id="line2d_85">
     <path d="M 301.895 69.248563 
L 321.895 69.248563 
" style="fill:none;stroke:#ff7f0e;stroke-linecap:square;stroke-width:1.5;"/>
    </g>
    <g id="line2d_86"/>
    <g id="text_14">
     <!-- SGD, lr 0.01 -->
     <g transform="translate(329.895 72.748563)scale(0.1 -0.1)">
      <use xlink:href="#DejaVuSans-53"/>
      <use x="63.476562" xlink:href="#DejaVuSans-47"/>
      <use x="140.966797" xlink:href="#DejaVuSans-44"/>
      <use x="217.96875" xlink:href="#DejaVuSans-2c"/>
      <use x="249.755859" xlink:href="#DejaVuSans-20"/>
      <use x="281.542969" xlink:href="#DejaVuSans-6c"/>
      <use x="309.326172" xlink:href="#DejaVuSans-72"/>
      <use x="350.439453" xlink:href="#DejaVuSans-20"/>
      <use x="382.226562" xlink:href="#DejaVuSans-30"/>
      <use x="445.849609" xlink:href="#DejaVuSans-2e"/>
      <use x="477.636719" xlink:href="#DejaVuSans-30"/>
      <use x="541.259766" xlink:href="#DejaVuSans-31"/>
     </g>
    </g>
    <g id="line2d_87">
     <path d="M 301.895 83.926688 
L 321.895 83.926688 
" style="fill:none;stroke:#2ca02c;stroke-linecap:square;stroke-width:1.5;"/>
    </g>
    <g id="line2d_88"/>
    <g id="text_15">
     <!-- SGD, lr 0.001 -->
     <g transform="translate(329.895 87.426688)scale(0.1 -0.1)">
      <use xlink:href="#DejaVuSans-53"/>
      <use x="63.476562" xlink:href="#DejaVuSans-47"/>
      <use x="140.966797" xlink:href="#DejaVuSans-44"/>
      <use x="217.96875" xlink:href="#DejaVuSans-2c"/>
      <use x="249.755859" xlink:href="#DejaVuSans-20"/>
      <use x="281.542969" xlink:href="#DejaVuSans-6c"/>
      <use x="309.326172" xlink:href="#DejaVuSans-72"/>
      <use x="350.439453" xlink:href="#DejaVuSans-20"/>
      <use x="382.226562" xlink:href="#DejaVuSans-30"/>
      <use x="445.849609" xlink:href="#DejaVuSans-2e"/>
      <use x="477.636719" xlink:href="#DejaVuSans-30"/>
      <use x="541.259766" xlink:href="#DejaVuSans-30"/>
      <use x="604.882812" xlink:href="#DejaVuSans-31"/>
     </g>
    </g>
    <g id="line2d_89">
     <path d="M 301.895 98.604813 
L 321.895 98.604813 
" style="fill:none;stroke:#d62728;stroke-dasharray:5.55,2.4;stroke-dashoffset:0;stroke-width:1.5;"/>
    </g>
    <g id="line2d_90"/>
    <g id="text_16">
     <!-- SGN, cg iter 20 -->
     <defs>
      <path d="M 9.8125 72.90625 
L 23.09375 72.90625 
L 55.421875 11.921875 
L 55.421875 72.90625 
L 64.984375 72.90625 
L 64.984375 0 
L 51.703125 0 
L 19.390625 60.984375 
L 19.390625 0 
L 9.8125 0 
z
" id="DejaVuSans-4e"/>
      <path d="M 45.40625 27.984375 
Q 45.40625 37.75 41.375 43.109375 
Q 37.359375 48.484375 30.078125 48.484375 
Q 22.859375 48.484375 18.828125 43.109375 
Q 14.796875 37.75 14.796875 27.984375 
Q 14.796875 18.265625 18.828125 12.890625 
Q 22.859375 7.515625 30.078125 7.515625 
Q 37.359375 7.515625 41.375 12.890625 
Q 45.40625 18.265625 45.40625 27.984375 
z
M 54.390625 6.78125 
Q 54.390625 -7.171875 48.1875 -13.984375 
Q 42 -20.796875 29.203125 -20.796875 
Q 24.46875 -20.796875 20.265625 -20.09375 
Q 16.0625 -19.390625 12.109375 -17.921875 
L 12.109375 -9.1875 
Q 16.0625 -11.328125 19.921875 -12.34375 
Q 23.78125 -13.375 27.78125 -13.375 
Q 36.625 -13.375 41.015625 -8.765625 
Q 45.40625 -4.15625 45.40625 5.171875 
L 45.40625 9.625 
Q 42.625 4.78125 38.28125 2.390625 
Q 33.9375 0 27.875 0 
Q 17.828125 0 11.671875 7.65625 
Q 5.515625 15.328125 5.515625 27.984375 
Q 5.515625 40.671875 11.671875 48.328125 
Q 17.828125 56 27.875 56 
Q 33.9375 56 38.28125 53.609375 
Q 42.625 51.21875 45.40625 46.390625 
L 45.40625 54.6875 
L 54.390625 54.6875 
z
" id="DejaVuSans-67"/>
      <path d="M 9.421875 54.6875 
L 18.40625 54.6875 
L 18.40625 0 
L 9.421875 0 
z
M 9.421875 75.984375 
L 18.40625 75.984375 
L 18.40625 64.59375 
L 9.421875 64.59375 
z
" id="DejaVuSans-69"/>
      <path d="M 18.3125 70.21875 
L 18.3125 54.6875 
L 36.8125 54.6875 
L 36.8125 47.703125 
L 18.3125 47.703125 
L 18.3125 18.015625 
Q 18.3125 11.328125 20.140625 9.421875 
Q 21.96875 7.515625 27.59375 7.515625 
L 36.8125 7.515625 
L 36.8125 0 
L 27.59375 0 
Q 17.1875 0 13.234375 3.875 
Q 9.28125 7.765625 9.28125 18.015625 
L 9.28125 47.703125 
L 2.6875 47.703125 
L 2.6875 54.6875 
L 9.28125 54.6875 
L 9.28125 70.21875 
z
" id="DejaVuSans-74"/>
     </defs>
     <g transform="translate(329.895 102.104813)scale(0.1 -0.1)">
      <use xlink:href="#DejaVuSans-53"/>
      <use x="63.476562" xlink:href="#DejaVuSans-47"/>
      <use x="140.966797" xlink:href="#DejaVuSans-4e"/>
      <use x="215.771484" xlink:href="#DejaVuSans-2c"/>
      <use x="247.558594" xlink:href="#DejaVuSans-20"/>
      <use x="279.345703" xlink:href="#DejaVuSans-63"/>
      <use x="334.326172" xlink:href="#DejaVuSans-67"/>
      <use x="397.802734" xlink:href="#DejaVuSans-20"/>
      <use x="429.589844" xlink:href="#DejaVuSans-69"/>
      <use x="457.373047" xlink:href="#DejaVuSans-74"/>
      <use x="496.582031" xlink:href="#DejaVuSans-65"/>
      <use x="558.105469" xlink:href="#DejaVuSans-72"/>
      <use x="599.21875" xlink:href="#DejaVuSans-20"/>
      <use x="631.005859" xlink:href="#DejaVuSans-32"/>
      <use x="694.628906" xlink:href="#DejaVuSans-30"/>
     </g>
    </g>
    <g id="line2d_91">
     <path d="M 301.895 113.282938 
L 321.895 113.282938 
" style="fill:none;stroke:#9467bd;stroke-dasharray:5.55,2.4;stroke-dashoffset:0;stroke-width:1.5;"/>
    </g>
    <g id="line2d_92"/>
    <g id="text_17">
     <!-- SGN, cg iter 10 -->
     <g transform="translate(329.895 116.782938)scale(0.1 -0.1)">
      <use xlink:href="#DejaVuSans-53"/>
      <use x="63.476562" xlink:href="#DejaVuSans-47"/>
      <use x="140.966797" xlink:href="#DejaVuSans-4e"/>
      <use x="215.771484" xlink:href="#DejaVuSans-2c"/>
      <use x="247.558594" xlink:href="#DejaVuSans-20"/>
      <use x="279.345703" xlink:href="#DejaVuSans-63"/>
      <use x="334.326172" xlink:href="#DejaVuSans-67"/>
      <use x="397.802734" xlink:href="#DejaVuSans-20"/>
      <use x="429.589844" xlink:href="#DejaVuSans-69"/>
      <use x="457.373047" xlink:href="#DejaVuSans-74"/>
      <use x="496.582031" xlink:href="#DejaVuSans-65"/>
      <use x="558.105469" xlink:href="#DejaVuSans-72"/>
      <use x="599.21875" xlink:href="#DejaVuSans-20"/>
      <use x="631.005859" xlink:href="#DejaVuSans-31"/>
      <use x="694.628906" xlink:href="#DejaVuSans-30"/>
     </g>
    </g>
    <g id="line2d_93">
     <path d="M 301.895 127.961063 
L 321.895 127.961063 
" style="fill:none;stroke:#8c564b;stroke-dasharray:5.55,2.4;stroke-dashoffset:0;stroke-width:1.5;"/>
    </g>
    <g id="line2d_94"/>
    <g id="text_18">
     <!-- SGN, cg iter 5 -->
     <g transform="translate(329.895 131.461063)scale(0.1 -0.1)">
      <use xlink:href="#DejaVuSans-53"/>
      <use x="63.476562" xlink:href="#DejaVuSans-47"/>
      <use x="140.966797" xlink:href="#DejaVuSans-4e"/>
      <use x="215.771484" xlink:href="#DejaVuSans-2c"/>
      <use x="247.558594" xlink:href="#DejaVuSans-20"/>
      <use x="279.345703" xlink:href="#DejaVuSans-63"/>
      <use x="334.326172" xlink:href="#DejaVuSans-67"/>
      <use x="397.802734" xlink:href="#DejaVuSans-20"/>
      <use x="429.589844" xlink:href="#DejaVuSans-69"/>
      <use x="457.373047" xlink:href="#DejaVuSans-74"/>
      <use x="496.582031" xlink:href="#DejaVuSans-65"/>
      <use x="558.105469" xlink:href="#DejaVuSans-72"/>
      <use x="599.21875" xlink:href="#DejaVuSans-20"/>
      <use x="631.005859" xlink:href="#DejaVuSans-35"/>
     </g>
    </g>
    <g id="line2d_95">
     <path d="M 301.895 142.639188 
L 321.895 142.639188 
" style="fill:none;stroke:#e377c2;stroke-dasharray:5.55,2.4;stroke-dashoffset:0;stroke-width:1.5;"/>
    </g>
    <g id="line2d_96"/>
    <g id="text_19">
     <!-- SGN, cg iter 3 -->
     <g transform="translate(329.895 146.139188)scale(0.1 -0.1)">
      <use xlink:href="#DejaVuSans-53"/>
      <use x="63.476562" xlink:href="#DejaVuSans-47"/>
      <use x="140.966797" xlink:href="#DejaVuSans-4e"/>
      <use x="215.771484" xlink:href="#DejaVuSans-2c"/>
      <use x="247.558594" xlink:href="#DejaVuSans-20"/>
      <use x="279.345703" xlink:href="#DejaVuSans-63"/>
      <use x="334.326172" xlink:href="#DejaVuSans-67"/>
      <use x="397.802734" xlink:href="#DejaVuSans-20"/>
      <use x="429.589844" xlink:href="#DejaVuSans-69"/>
      <use x="457.373047" xlink:href="#DejaVuSans-74"/>
      <use x="496.582031" xlink:href="#DejaVuSans-65"/>
      <use x="558.105469" xlink:href="#DejaVuSans-72"/>
      <use x="599.21875" xlink:href="#DejaVuSans-20"/>
      <use x="631.005859" xlink:href="#DejaVuSans-33"/>
     </g>
    </g>
    <g id="line2d_97">
     <path d="M 301.895 157.317313 
L 321.895 157.317313 
" style="fill:none;stroke:#7f7f7f;stroke-dasharray:5.55,2.4;stroke-dashoffset:0;stroke-width:1.5;"/>
    </g>
    <g id="line2d_98"/>
    <g id="text_20">
     <!-- SGN, cg iter 2 -->
     <g transform="translate(329.895 160.817313)scale(0.1 -0.1)">
      <use xlink:href="#DejaVuSans-53"/>
      <use x="63.476562" xlink:href="#DejaVuSans-47"/>
      <use x="140.966797" xlink:href="#DejaVuSans-4e"/>
      <use x="215.771484" xlink:href="#DejaVuSans-2c"/>
      <use x="247.558594" xlink:href="#DejaVuSans-20"/>
      <use x="279.345703" xlink:href="#DejaVuSans-63"/>
      <use x="334.326172" xlink:href="#DejaVuSans-67"/>
      <use x="397.802734" xlink:href="#DejaVuSans-20"/>
      <use x="429.589844" xlink:href="#DejaVuSans-69"/>
      <use x="457.373047" xlink:href="#DejaVuSans-74"/>
      <use x="496.582031" xlink:href="#DejaVuSans-65"/>
      <use x="558.105469" xlink:href="#DejaVuSans-72"/>
      <use x="599.21875" xlink:href="#DejaVuSans-20"/>
      <use x="631.005859" xlink:href="#DejaVuSans-32"/>
     </g>
    </g>
   </g>
  </g>
 </g>
 <defs>
  <clipPath id="pa1f9ab25d2">
   <rect height="266.112" width="357.12" x="57.6" y="41.472"/>
  </clipPath>
 </defs>
</svg>
