<?xml version="1.0" encoding="utf-8" standalone="no"?>
<!DOCTYPE svg PUBLIC "-//W3C//DTD SVG 1.1//EN"
  "http://www.w3.org/Graphics/SVG/1.1/DTD/svg11.dtd">
<!-- Created with matplotlib (http://matplotlib.org/) -->
<svg height="345.6pt" version="1.1" viewBox="0 0 460.8 345.6" width="460.8pt" xmlns="http://www.w3.org/2000/svg" xmlns:xlink="http://www.w3.org/1999/xlink">
 <defs>
  <style type="text/css">
*{stroke-linecap:butt;stroke-linejoin:round;}
  </style>
 </defs>
 <g id="figure_1">
  <g id="patch_1">
   <path d="M 0 345.6 
L 460.8 345.6 
L 460.8 0 
L 0 0 
z
" style="fill:#ffffff;"/>
  </g>
  <g id="axes_1">
   <g id="patch_2">
    <path d="M 57.6 307.584 
L 414.72 307.584 
L 414.72 41.472 
L 57.6 41.472 
z
" style="fill:#ffffff;"/>
   </g>
   <g id="matplotlib.axis_1">
    <g id="xtick_1">
     <g id="line2d_1">
      <path clip-path="url(#p90a5bb0ef5)" d="M 57.6 307.584 
L 57.6 41.472 
" style="fill:none;stroke:#b0b0b0;stroke-linecap:square;stroke-width:0.8;"/>
     </g>
     <g id="line2d_2">
      <defs>
       <path d="M 0 0 
L 0 3.5 
" id="m7cb6a0c69f" style="stroke:#000000;stroke-width:0.8;"/>
      </defs>
      <g>
       <use style="stroke:#000000;stroke-width:0.8;" x="57.6" xlink:href="#m7cb6a0c69f" y="307.584"/>
      </g>
     </g>
     <g id="text_1">
      <!-- 0 -->
      <defs>
       <path d="M 31.78125 66.40625 
Q 24.171875 66.40625 20.328125 58.90625 
Q 16.5 51.421875 16.5 36.375 
Q 16.5 21.390625 20.328125 13.890625 
Q 24.171875 6.390625 31.78125 6.390625 
Q 39.453125 6.390625 43.28125 13.890625 
Q 47.125 21.390625 47.125 36.375 
Q 47.125 51.421875 43.28125 58.90625 
Q 39.453125 66.40625 31.78125 66.40625 
z
M 31.78125 74.21875 
Q 44.046875 74.21875 50.515625 64.515625 
Q 56.984375 54.828125 56.984375 36.375 
Q 56.984375 17.96875 50.515625 8.265625 
Q 44.046875 -1.421875 31.78125 -1.421875 
Q 19.53125 -1.421875 13.0625 8.265625 
Q 6.59375 17.96875 6.59375 36.375 
Q 6.59375 54.828125 13.0625 64.515625 
Q 19.53125 74.21875 31.78125 74.21875 
z
" id="DejaVuSans-30"/>
      </defs>
      <g transform="translate(54.41875 322.182437)scale(0.1 -0.1)">
       <use xlink:href="#DejaVuSans-30"/>
      </g>
     </g>
    </g>
    <g id="xtick_2">
     <g id="line2d_3">
      <path clip-path="url(#p90a5bb0ef5)" d="M 102.24 307.584 
L 102.24 41.472 
" style="fill:none;stroke:#b0b0b0;stroke-linecap:square;stroke-width:0.8;"/>
     </g>
     <g id="line2d_4">
      <g>
       <use style="stroke:#000000;stroke-width:0.8;" x="102.24" xlink:href="#m7cb6a0c69f" y="307.584"/>
      </g>
     </g>
     <g id="text_2">
      <!-- 25 -->
      <defs>
       <path d="M 19.1875 8.296875 
L 53.609375 8.296875 
L 53.609375 0 
L 7.328125 0 
L 7.328125 8.296875 
Q 12.9375 14.109375 22.625 23.890625 
Q 32.328125 33.6875 34.8125 36.53125 
Q 39.546875 41.84375 41.421875 45.53125 
Q 43.3125 49.21875 43.3125 52.78125 
Q 43.3125 58.59375 39.234375 62.25 
Q 35.15625 65.921875 28.609375 65.921875 
Q 23.96875 65.921875 18.8125 64.3125 
Q 13.671875 62.703125 7.8125 59.421875 
L 7.8125 69.390625 
Q 13.765625 71.78125 18.9375 73 
Q 24.125 74.21875 28.421875 74.21875 
Q 39.75 74.21875 46.484375 68.546875 
Q 53.21875 62.890625 53.21875 53.421875 
Q 53.21875 48.921875 51.53125 44.890625 
Q 49.859375 40.875 45.40625 35.40625 
Q 44.1875 33.984375 37.640625 27.21875 
Q 31.109375 20.453125 19.1875 8.296875 
z
" id="DejaVuSans-32"/>
       <path d="M 10.796875 72.90625 
L 49.515625 72.90625 
L 49.515625 64.59375 
L 19.828125 64.59375 
L 19.828125 46.734375 
Q 21.96875 47.46875 24.109375 47.828125 
Q 26.265625 48.1875 28.421875 48.1875 
Q 40.625 48.1875 47.75 41.5 
Q 54.890625 34.8125 54.890625 23.390625 
Q 54.890625 11.625 47.5625 5.09375 
Q 40.234375 -1.421875 26.90625 -1.421875 
Q 22.3125 -1.421875 17.546875 -0.640625 
Q 12.796875 0.140625 7.71875 1.703125 
L 7.71875 11.625 
Q 12.109375 9.234375 16.796875 8.0625 
Q 21.484375 6.890625 26.703125 6.890625 
Q 35.15625 6.890625 40.078125 11.328125 
Q 45.015625 15.765625 45.015625 23.390625 
Q 45.015625 31 40.078125 35.4375 
Q 35.15625 39.890625 26.703125 39.890625 
Q 22.75 39.890625 18.8125 39.015625 
Q 14.890625 38.140625 10.796875 36.28125 
z
" id="DejaVuSans-35"/>
      </defs>
      <g transform="translate(95.8775 322.182437)scale(0.1 -0.1)">
       <use xlink:href="#DejaVuSans-32"/>
       <use x="63.623047" xlink:href="#DejaVuSans-35"/>
      </g>
     </g>
    </g>
    <g id="xtick_3">
     <g id="line2d_5">
      <path clip-path="url(#p90a5bb0ef5)" d="M 146.88 307.584 
L 146.88 41.472 
" style="fill:none;stroke:#b0b0b0;stroke-linecap:square;stroke-width:0.8;"/>
     </g>
     <g id="line2d_6">
      <g>
       <use style="stroke:#000000;stroke-width:0.8;" x="146.88" xlink:href="#m7cb6a0c69f" y="307.584"/>
      </g>
     </g>
     <g id="text_3">
      <!-- 50 -->
      <g transform="translate(140.5175 322.182437)scale(0.1 -0.1)">
       <use xlink:href="#DejaVuSans-35"/>
       <use x="63.623047" xlink:href="#DejaVuSans-30"/>
      </g>
     </g>
    </g>
    <g id="xtick_4">
     <g id="line2d_7">
      <path clip-path="url(#p90a5bb0ef5)" d="M 191.52 307.584 
L 191.52 41.472 
" style="fill:none;stroke:#b0b0b0;stroke-linecap:square;stroke-width:0.8;"/>
     </g>
     <g id="line2d_8">
      <g>
       <use style="stroke:#000000;stroke-width:0.8;" x="191.52" xlink:href="#m7cb6a0c69f" y="307.584"/>
      </g>
     </g>
     <g id="text_4">
      <!-- 75 -->
      <defs>
       <path d="M 8.203125 72.90625 
L 55.078125 72.90625 
L 55.078125 68.703125 
L 28.609375 0 
L 18.3125 0 
L 43.21875 64.59375 
L 8.203125 64.59375 
z
" id="DejaVuSans-37"/>
      </defs>
      <g transform="translate(185.1575 322.182437)scale(0.1 -0.1)">
       <use xlink:href="#DejaVuSans-37"/>
       <use x="63.623047" xlink:href="#DejaVuSans-35"/>
      </g>
     </g>
    </g>
    <g id="xtick_5">
     <g id="line2d_9">
      <path clip-path="url(#p90a5bb0ef5)" d="M 236.16 307.584 
L 236.16 41.472 
" style="fill:none;stroke:#b0b0b0;stroke-linecap:square;stroke-width:0.8;"/>
     </g>
     <g id="line2d_10">
      <g>
       <use style="stroke:#000000;stroke-width:0.8;" x="236.16" xlink:href="#m7cb6a0c69f" y="307.584"/>
      </g>
     </g>
     <g id="text_5">
      <!-- 100 -->
      <defs>
       <path d="M 12.40625 8.296875 
L 28.515625 8.296875 
L 28.515625 63.921875 
L 10.984375 60.40625 
L 10.984375 69.390625 
L 28.421875 72.90625 
L 38.28125 72.90625 
L 38.28125 8.296875 
L 54.390625 8.296875 
L 54.390625 0 
L 12.40625 0 
z
" id="DejaVuSans-31"/>
      </defs>
      <g transform="translate(226.61625 322.182437)scale(0.1 -0.1)">
       <use xlink:href="#DejaVuSans-31"/>
       <use x="63.623047" xlink:href="#DejaVuSans-30"/>
       <use x="127.246094" xlink:href="#DejaVuSans-30"/>
      </g>
     </g>
    </g>
    <g id="xtick_6">
     <g id="line2d_11">
      <path clip-path="url(#p90a5bb0ef5)" d="M 280.8 307.584 
L 280.8 41.472 
" style="fill:none;stroke:#b0b0b0;stroke-linecap:square;stroke-width:0.8;"/>
     </g>
     <g id="line2d_12">
      <g>
       <use style="stroke:#000000;stroke-width:0.8;" x="280.8" xlink:href="#m7cb6a0c69f" y="307.584"/>
      </g>
     </g>
     <g id="text_6">
      <!-- 125 -->
      <g transform="translate(271.25625 322.182437)scale(0.1 -0.1)">
       <use xlink:href="#DejaVuSans-31"/>
       <use x="63.623047" xlink:href="#DejaVuSans-32"/>
       <use x="127.246094" xlink:href="#DejaVuSans-35"/>
      </g>
     </g>
    </g>
    <g id="xtick_7">
     <g id="line2d_13">
      <path clip-path="url(#p90a5bb0ef5)" d="M 325.44 307.584 
L 325.44 41.472 
" style="fill:none;stroke:#b0b0b0;stroke-linecap:square;stroke-width:0.8;"/>
     </g>
     <g id="line2d_14">
      <g>
       <use style="stroke:#000000;stroke-width:0.8;" x="325.44" xlink:href="#m7cb6a0c69f" y="307.584"/>
      </g>
     </g>
     <g id="text_7">
      <!-- 150 -->
      <g transform="translate(315.89625 322.182437)scale(0.1 -0.1)">
       <use xlink:href="#DejaVuSans-31"/>
       <use x="63.623047" xlink:href="#DejaVuSans-35"/>
       <use x="127.246094" xlink:href="#DejaVuSans-30"/>
      </g>
     </g>
    </g>
    <g id="xtick_8">
     <g id="line2d_15">
      <path clip-path="url(#p90a5bb0ef5)" d="M 370.08 307.584 
L 370.08 41.472 
" style="fill:none;stroke:#b0b0b0;stroke-linecap:square;stroke-width:0.8;"/>
     </g>
     <g id="line2d_16">
      <g>
       <use style="stroke:#000000;stroke-width:0.8;" x="370.08" xlink:href="#m7cb6a0c69f" y="307.584"/>
      </g>
     </g>
     <g id="text_8">
      <!-- 175 -->
      <g transform="translate(360.53625 322.182437)scale(0.1 -0.1)">
       <use xlink:href="#DejaVuSans-31"/>
       <use x="63.623047" xlink:href="#DejaVuSans-37"/>
       <use x="127.246094" xlink:href="#DejaVuSans-35"/>
      </g>
     </g>
    </g>
    <g id="xtick_9">
     <g id="line2d_17">
      <path clip-path="url(#p90a5bb0ef5)" d="M 414.72 307.584 
L 414.72 41.472 
" style="fill:none;stroke:#b0b0b0;stroke-linecap:square;stroke-width:0.8;"/>
     </g>
     <g id="line2d_18">
      <g>
       <use style="stroke:#000000;stroke-width:0.8;" x="414.72" xlink:href="#m7cb6a0c69f" y="307.584"/>
      </g>
     </g>
     <g id="text_9">
      <!-- 200 -->
      <g transform="translate(405.17625 322.182437)scale(0.1 -0.1)">
       <use xlink:href="#DejaVuSans-32"/>
       <use x="63.623047" xlink:href="#DejaVuSans-30"/>
       <use x="127.246094" xlink:href="#DejaVuSans-30"/>
      </g>
     </g>
    </g>
    <g id="text_10">
     <!-- sec -->
     <defs>
      <path d="M 44.28125 53.078125 
L 44.28125 44.578125 
Q 40.484375 46.53125 36.375 47.5 
Q 32.28125 48.484375 27.875 48.484375 
Q 21.1875 48.484375 17.84375 46.4375 
Q 14.5 44.390625 14.5 40.28125 
Q 14.5 37.15625 16.890625 35.375 
Q 19.28125 33.59375 26.515625 31.984375 
L 29.59375 31.296875 
Q 39.15625 29.25 43.1875 25.515625 
Q 47.21875 21.78125 47.21875 15.09375 
Q 47.21875 7.46875 41.1875 3.015625 
Q 35.15625 -1.421875 24.609375 -1.421875 
Q 20.21875 -1.421875 15.453125 -0.5625 
Q 10.6875 0.296875 5.421875 2 
L 5.421875 11.28125 
Q 10.40625 8.6875 15.234375 7.390625 
Q 20.0625 6.109375 24.8125 6.109375 
Q 31.15625 6.109375 34.5625 8.28125 
Q 37.984375 10.453125 37.984375 14.40625 
Q 37.984375 18.0625 35.515625 20.015625 
Q 33.0625 21.96875 24.703125 23.78125 
L 21.578125 24.515625 
Q 13.234375 26.265625 9.515625 29.90625 
Q 5.8125 33.546875 5.8125 39.890625 
Q 5.8125 47.609375 11.28125 51.796875 
Q 16.75 56 26.8125 56 
Q 31.78125 56 36.171875 55.265625 
Q 40.578125 54.546875 44.28125 53.078125 
z
" id="DejaVuSans-73"/>
      <path d="M 56.203125 29.59375 
L 56.203125 25.203125 
L 14.890625 25.203125 
Q 15.484375 15.921875 20.484375 11.0625 
Q 25.484375 6.203125 34.421875 6.203125 
Q 39.59375 6.203125 44.453125 7.46875 
Q 49.3125 8.734375 54.109375 11.28125 
L 54.109375 2.78125 
Q 49.265625 0.734375 44.1875 -0.34375 
Q 39.109375 -1.421875 33.890625 -1.421875 
Q 20.796875 -1.421875 13.15625 6.1875 
Q 5.515625 13.8125 5.515625 26.8125 
Q 5.515625 40.234375 12.765625 48.109375 
Q 20.015625 56 32.328125 56 
Q 43.359375 56 49.78125 48.890625 
Q 56.203125 41.796875 56.203125 29.59375 
z
M 47.21875 32.234375 
Q 47.125 39.59375 43.09375 43.984375 
Q 39.0625 48.390625 32.421875 48.390625 
Q 24.90625 48.390625 20.390625 44.140625 
Q 15.875 39.890625 15.1875 32.171875 
z
" id="DejaVuSans-65"/>
      <path d="M 48.78125 52.59375 
L 48.78125 44.1875 
Q 44.96875 46.296875 41.140625 47.34375 
Q 37.3125 48.390625 33.40625 48.390625 
Q 24.65625 48.390625 19.8125 42.84375 
Q 14.984375 37.3125 14.984375 27.296875 
Q 14.984375 17.28125 19.8125 11.734375 
Q 24.65625 6.203125 33.40625 6.203125 
Q 37.3125 6.203125 41.140625 7.25 
Q 44.96875 8.296875 48.78125 10.40625 
L 48.78125 2.09375 
Q 45.015625 0.34375 40.984375 -0.53125 
Q 36.96875 -1.421875 32.421875 -1.421875 
Q 20.0625 -1.421875 12.78125 6.34375 
Q 5.515625 14.109375 5.515625 27.296875 
Q 5.515625 40.671875 12.859375 48.328125 
Q 20.21875 56 33.015625 56 
Q 37.15625 56 41.109375 55.140625 
Q 45.0625 54.296875 48.78125 52.59375 
z
" id="DejaVuSans-63"/>
     </defs>
     <g transform="translate(227.729531 335.860562)scale(0.1 -0.1)">
      <use xlink:href="#DejaVuSans-73"/>
      <use x="52.099609" xlink:href="#DejaVuSans-65"/>
      <use x="113.623047" xlink:href="#DejaVuSans-63"/>
     </g>
    </g>
   </g>
   <g id="matplotlib.axis_2">
    <g id="ytick_1">
     <g id="line2d_19">
      <path clip-path="url(#p90a5bb0ef5)" d="M 57.6 273.762053 
L 414.72 273.762053 
" style="fill:none;stroke:#b0b0b0;stroke-linecap:square;stroke-width:0.8;"/>
     </g>
     <g id="line2d_20">
      <defs>
       <path d="M 0 0 
L -3.5 0 
" id="mc790b5a40b" style="stroke:#000000;stroke-width:0.8;"/>
      </defs>
      <g>
       <use style="stroke:#000000;stroke-width:0.8;" x="57.6" xlink:href="#mc790b5a40b" y="273.762053"/>
      </g>
     </g>
     <g id="text_11">
      <!-- $\mathdefault{10^{-1}}$ -->
      <defs>
       <path d="M 10.59375 35.5 
L 73.1875 35.5 
L 73.1875 27.203125 
L 10.59375 27.203125 
z
" id="DejaVuSans-2212"/>
      </defs>
      <g transform="translate(27.1 277.561272)scale(0.1 -0.1)">
       <use transform="translate(0 0.684375)" xlink:href="#DejaVuSans-31"/>
       <use transform="translate(63.623047 0.684375)" xlink:href="#DejaVuSans-30"/>
       <use transform="translate(128.203125 38.965625)scale(0.7)" xlink:href="#DejaVuSans-2212"/>
       <use transform="translate(186.855469 38.965625)scale(0.7)" xlink:href="#DejaVuSans-31"/>
      </g>
     </g>
    </g>
    <g id="ytick_2">
     <g id="line2d_21">
      <path clip-path="url(#p90a5bb0ef5)" d="M 57.6 156.692809 
L 414.72 156.692809 
" style="fill:none;stroke:#b0b0b0;stroke-linecap:square;stroke-width:0.8;"/>
     </g>
     <g id="line2d_22">
      <g>
       <use style="stroke:#000000;stroke-width:0.8;" x="57.6" xlink:href="#mc790b5a40b" y="156.692809"/>
      </g>
     </g>
     <g id="text_12">
      <!-- $\mathdefault{10^{0}}$ -->
      <g transform="translate(33 160.492028)scale(0.1 -0.1)">
       <use transform="translate(0 0.765625)" xlink:href="#DejaVuSans-31"/>
       <use transform="translate(63.623047 0.765625)" xlink:href="#DejaVuSans-30"/>
       <use transform="translate(128.203125 39.046875)scale(0.7)" xlink:href="#DejaVuSans-30"/>
      </g>
     </g>
    </g>
    <g id="ytick_3">
     <g id="line2d_23">
      <path clip-path="url(#p90a5bb0ef5)" d="M 57.6 299.733718 
L 414.72 299.733718 
" style="fill:none;stroke:#b0b0b0;stroke-linecap:square;stroke-width:0.8;"/>
     </g>
     <g id="line2d_24">
      <defs>
       <path d="M 0 0 
L -2 0 
" id="m7941a2f0ed" style="stroke:#000000;stroke-width:0.6;"/>
      </defs>
      <g>
       <use style="stroke:#000000;stroke-width:0.6;" x="57.6" xlink:href="#m7941a2f0ed" y="299.733718"/>
      </g>
     </g>
    </g>
    <g id="ytick_4">
     <g id="line2d_25">
      <path clip-path="url(#p90a5bb0ef5)" d="M 57.6 291.896308 
L 414.72 291.896308 
" style="fill:none;stroke:#b0b0b0;stroke-linecap:square;stroke-width:0.8;"/>
     </g>
     <g id="line2d_26">
      <g>
       <use style="stroke:#000000;stroke-width:0.6;" x="57.6" xlink:href="#m7941a2f0ed" y="291.896308"/>
      </g>
     </g>
    </g>
    <g id="ytick_5">
     <g id="line2d_27">
      <path clip-path="url(#p90a5bb0ef5)" d="M 57.6 285.107235 
L 414.72 285.107235 
" style="fill:none;stroke:#b0b0b0;stroke-linecap:square;stroke-width:0.8;"/>
     </g>
     <g id="line2d_28">
      <g>
       <use style="stroke:#000000;stroke-width:0.6;" x="57.6" xlink:href="#m7941a2f0ed" y="285.107235"/>
      </g>
     </g>
    </g>
    <g id="ytick_6">
     <g id="line2d_29">
      <path clip-path="url(#p90a5bb0ef5)" d="M 57.6 279.118848 
L 414.72 279.118848 
" style="fill:none;stroke:#b0b0b0;stroke-linecap:square;stroke-width:0.8;"/>
     </g>
     <g id="line2d_30">
      <g>
       <use style="stroke:#000000;stroke-width:0.6;" x="57.6" xlink:href="#m7941a2f0ed" y="279.118848"/>
      </g>
     </g>
    </g>
    <g id="ytick_7">
     <g id="line2d_31">
      <path clip-path="url(#p90a5bb0ef5)" d="M 57.6 238.520699 
L 414.72 238.520699 
" style="fill:none;stroke:#b0b0b0;stroke-linecap:square;stroke-width:0.8;"/>
     </g>
     <g id="line2d_32">
      <g>
       <use style="stroke:#000000;stroke-width:0.6;" x="57.6" xlink:href="#m7941a2f0ed" y="238.520699"/>
      </g>
     </g>
    </g>
    <g id="ytick_8">
     <g id="line2d_33">
      <path clip-path="url(#p90a5bb0ef5)" d="M 57.6 217.905829 
L 414.72 217.905829 
" style="fill:none;stroke:#b0b0b0;stroke-linecap:square;stroke-width:0.8;"/>
     </g>
     <g id="line2d_34">
      <g>
       <use style="stroke:#000000;stroke-width:0.6;" x="57.6" xlink:href="#m7941a2f0ed" y="217.905829"/>
      </g>
     </g>
    </g>
    <g id="ytick_9">
     <g id="line2d_35">
      <path clip-path="url(#p90a5bb0ef5)" d="M 57.6 203.279345 
L 414.72 203.279345 
" style="fill:none;stroke:#b0b0b0;stroke-linecap:square;stroke-width:0.8;"/>
     </g>
     <g id="line2d_36">
      <g>
       <use style="stroke:#000000;stroke-width:0.6;" x="57.6" xlink:href="#m7941a2f0ed" y="203.279345"/>
      </g>
     </g>
    </g>
    <g id="ytick_10">
     <g id="line2d_37">
      <path clip-path="url(#p90a5bb0ef5)" d="M 57.6 191.934163 
L 414.72 191.934163 
" style="fill:none;stroke:#b0b0b0;stroke-linecap:square;stroke-width:0.8;"/>
     </g>
     <g id="line2d_38">
      <g>
       <use style="stroke:#000000;stroke-width:0.6;" x="57.6" xlink:href="#m7941a2f0ed" y="191.934163"/>
      </g>
     </g>
    </g>
    <g id="ytick_11">
     <g id="line2d_39">
      <path clip-path="url(#p90a5bb0ef5)" d="M 57.6 182.664475 
L 414.72 182.664475 
" style="fill:none;stroke:#b0b0b0;stroke-linecap:square;stroke-width:0.8;"/>
     </g>
     <g id="line2d_40">
      <g>
       <use style="stroke:#000000;stroke-width:0.6;" x="57.6" xlink:href="#m7941a2f0ed" y="182.664475"/>
      </g>
     </g>
    </g>
    <g id="ytick_12">
     <g id="line2d_41">
      <path clip-path="url(#p90a5bb0ef5)" d="M 57.6 174.827065 
L 414.72 174.827065 
" style="fill:none;stroke:#b0b0b0;stroke-linecap:square;stroke-width:0.8;"/>
     </g>
     <g id="line2d_42">
      <g>
       <use style="stroke:#000000;stroke-width:0.6;" x="57.6" xlink:href="#m7941a2f0ed" y="174.827065"/>
      </g>
     </g>
    </g>
    <g id="ytick_13">
     <g id="line2d_43">
      <path clip-path="url(#p90a5bb0ef5)" d="M 57.6 168.037991 
L 414.72 168.037991 
" style="fill:none;stroke:#b0b0b0;stroke-linecap:square;stroke-width:0.8;"/>
     </g>
     <g id="line2d_44">
      <g>
       <use style="stroke:#000000;stroke-width:0.6;" x="57.6" xlink:href="#m7941a2f0ed" y="168.037991"/>
      </g>
     </g>
    </g>
    <g id="ytick_14">
     <g id="line2d_45">
      <path clip-path="url(#p90a5bb0ef5)" d="M 57.6 162.049604 
L 414.72 162.049604 
" style="fill:none;stroke:#b0b0b0;stroke-linecap:square;stroke-width:0.8;"/>
     </g>
     <g id="line2d_46">
      <g>
       <use style="stroke:#000000;stroke-width:0.6;" x="57.6" xlink:href="#m7941a2f0ed" y="162.049604"/>
      </g>
     </g>
    </g>
    <g id="ytick_15">
     <g id="line2d_47">
      <path clip-path="url(#p90a5bb0ef5)" d="M 57.6 121.451456 
L 414.72 121.451456 
" style="fill:none;stroke:#b0b0b0;stroke-linecap:square;stroke-width:0.8;"/>
     </g>
     <g id="line2d_48">
      <g>
       <use style="stroke:#000000;stroke-width:0.6;" x="57.6" xlink:href="#m7941a2f0ed" y="121.451456"/>
      </g>
     </g>
    </g>
    <g id="ytick_16">
     <g id="line2d_49">
      <path clip-path="url(#p90a5bb0ef5)" d="M 57.6 100.836585 
L 414.72 100.836585 
" style="fill:none;stroke:#b0b0b0;stroke-linecap:square;stroke-width:0.8;"/>
     </g>
     <g id="line2d_50">
      <g>
       <use style="stroke:#000000;stroke-width:0.6;" x="57.6" xlink:href="#m7941a2f0ed" y="100.836585"/>
      </g>
     </g>
    </g>
    <g id="ytick_17">
     <g id="line2d_51">
      <path clip-path="url(#p90a5bb0ef5)" d="M 57.6 86.210102 
L 414.72 86.210102 
" style="fill:none;stroke:#b0b0b0;stroke-linecap:square;stroke-width:0.8;"/>
     </g>
     <g id="line2d_52">
      <g>
       <use style="stroke:#000000;stroke-width:0.6;" x="57.6" xlink:href="#m7941a2f0ed" y="86.210102"/>
      </g>
     </g>
    </g>
    <g id="ytick_18">
     <g id="line2d_53">
      <path clip-path="url(#p90a5bb0ef5)" d="M 57.6 74.86492 
L 414.72 74.86492 
" style="fill:none;stroke:#b0b0b0;stroke-linecap:square;stroke-width:0.8;"/>
     </g>
     <g id="line2d_54">
      <g>
       <use style="stroke:#000000;stroke-width:0.6;" x="57.6" xlink:href="#m7941a2f0ed" y="74.86492"/>
      </g>
     </g>
    </g>
    <g id="ytick_19">
     <g id="line2d_55">
      <path clip-path="url(#p90a5bb0ef5)" d="M 57.6 65.595231 
L 414.72 65.595231 
" style="fill:none;stroke:#b0b0b0;stroke-linecap:square;stroke-width:0.8;"/>
     </g>
     <g id="line2d_56">
      <g>
       <use style="stroke:#000000;stroke-width:0.6;" x="57.6" xlink:href="#m7941a2f0ed" y="65.595231"/>
      </g>
     </g>
    </g>
    <g id="ytick_20">
     <g id="line2d_57">
      <path clip-path="url(#p90a5bb0ef5)" d="M 57.6 57.757821 
L 414.72 57.757821 
" style="fill:none;stroke:#b0b0b0;stroke-linecap:square;stroke-width:0.8;"/>
     </g>
     <g id="line2d_58">
      <g>
       <use style="stroke:#000000;stroke-width:0.6;" x="57.6" xlink:href="#m7941a2f0ed" y="57.757821"/>
      </g>
     </g>
    </g>
    <g id="ytick_21">
     <g id="line2d_59">
      <path clip-path="url(#p90a5bb0ef5)" d="M 57.6 50.968748 
L 414.72 50.968748 
" style="fill:none;stroke:#b0b0b0;stroke-linecap:square;stroke-width:0.8;"/>
     </g>
     <g id="line2d_60">
      <g>
       <use style="stroke:#000000;stroke-width:0.6;" x="57.6" xlink:href="#m7941a2f0ed" y="50.968748"/>
      </g>
     </g>
    </g>
    <g id="ytick_22">
     <g id="line2d_61">
      <path clip-path="url(#p90a5bb0ef5)" d="M 57.6 44.980361 
L 414.72 44.980361 
" style="fill:none;stroke:#b0b0b0;stroke-linecap:square;stroke-width:0.8;"/>
     </g>
     <g id="line2d_62">
      <g>
       <use style="stroke:#000000;stroke-width:0.6;" x="57.6" xlink:href="#m7941a2f0ed" y="44.980361"/>
      </g>
     </g>
    </g>
    <g id="text_13">
     <!-- loss -->
     <defs>
      <path d="M 9.421875 75.984375 
L 18.40625 75.984375 
L 18.40625 0 
L 9.421875 0 
z
" id="DejaVuSans-6c"/>
      <path d="M 30.609375 48.390625 
Q 23.390625 48.390625 19.1875 42.75 
Q 14.984375 37.109375 14.984375 27.296875 
Q 14.984375 17.484375 19.15625 11.84375 
Q 23.34375 6.203125 30.609375 6.203125 
Q 37.796875 6.203125 41.984375 11.859375 
Q 46.1875 17.53125 46.1875 27.296875 
Q 46.1875 37.015625 41.984375 42.703125 
Q 37.796875 48.390625 30.609375 48.390625 
z
M 30.609375 56 
Q 42.328125 56 49.015625 48.375 
Q 55.71875 40.765625 55.71875 27.296875 
Q 55.71875 13.875 49.015625 6.21875 
Q 42.328125 -1.421875 30.609375 -1.421875 
Q 18.84375 -1.421875 12.171875 6.21875 
Q 5.515625 13.875 5.515625 27.296875 
Q 5.515625 40.765625 12.171875 48.375 
Q 18.84375 56 30.609375 56 
z
" id="DejaVuSans-6f"/>
     </defs>
     <g transform="translate(21.020313 184.185812)rotate(-90)scale(0.1 -0.1)">
      <use xlink:href="#DejaVuSans-6c"/>
      <use x="27.783203" xlink:href="#DejaVuSans-6f"/>
      <use x="88.964844" xlink:href="#DejaVuSans-73"/>
      <use x="141.064453" xlink:href="#DejaVuSans-73"/>
     </g>
    </g>
   </g>
   <g id="line2d_63">
    <path clip-path="url(#p90a5bb0ef5)" d="M 58.834443 53.568 
L 60.068885 61.017368 
L 61.303328 63.839114 
L 62.53777 67.996646 
L 63.772213 67.295794 
L 65.006656 67.18497 
L 67.475541 81.313077 
L 68.709983 80.481366 
L 69.944426 90.202208 
L 71.178868 96.586792 
L 72.413311 97.301453 
L 73.647754 97.499437 
L 74.882196 97.142444 
L 76.116639 97.904308 
L 77.351081 98.359141 
L 78.585524 98.369903 
L 79.819967 96.172044 
L 81.054409 97.774209 
L 82.288852 97.820602 
L 83.523294 100.550016 
L 84.757737 100.741988 
L 85.99218 100.236817 
L 87.226622 100.900409 
L 88.461065 101.148487 
L 89.695507 101.09103 
L 92.164393 103.284274 
L 93.398835 103.342774 
L 94.633278 101.186636 
L 95.86772 101.850242 
L 97.102163 101.833908 
L 98.336605 102.416142 
L 99.571048 102.718265 
L 100.805491 102.715423 
L 102.039933 102.427874 
L 103.274376 101.122319 
L 104.508818 102.298034 
L 108.212146 104.142931 
L 109.446589 105.772031 
L 110.681031 103.676756 
L 111.915474 107.594248 
L 113.149917 108.415708 
L 114.384359 107.457291 
L 115.618802 110.12774 
L 116.853244 111.929253 
L 118.087687 113.204905 
L 120.556572 116.17664 
L 121.791015 119.591547 
L 123.025457 120.054428 
L 124.2599 122.039531 
L 125.494342 122.492131 
L 126.728785 123.604199 
L 127.963228 121.000055 
L 129.19767 125.021186 
L 130.432113 131.769478 
L 131.666555 129.714258 
L 132.900998 132.767112 
L 134.135441 131.507661 
L 135.369883 135.823187 
L 136.604326 133.701105 
L 137.838768 135.486231 
L 139.073211 138.39701 
L 140.307654 136.268296 
L 141.542096 138.168322 
L 142.776539 140.702971 
L 144.010981 139.910681 
L 145.245424 141.397653 
L 146.479866 140.728283 
L 147.714309 142.118756 
L 148.948752 141.770607 
L 151.417637 141.938003 
L 152.652079 139.7562 
L 153.886522 139.205224 
L 155.120965 142.64543 
L 156.355407 143.656913 
L 157.58985 144.461867 
L 158.824292 145.90226 
L 160.058735 148.246225 
L 161.293178 143.675177 
L 162.52762 149.159969 
L 163.762063 150.306667 
L 164.996505 148.921659 
L 166.230948 150.20561 
L 167.46539 150.022398 
L 168.699833 150.395437 
L 169.934276 151.028226 
L 171.168718 146.683871 
L 172.403161 151.455756 
L 173.637603 152.329961 
L 174.872046 155.929872 
L 176.106489 157.172104 
L 177.340931 158.935281 
L 178.575374 158.946884 
L 179.809816 160.203778 
L 181.044259 149.999747 
L 182.278702 146.573489 
L 183.513144 162.089458 
L 184.747587 164.003746 
L 185.982029 166.127915 
L 187.216472 166.057151 
L 188.450915 165.832403 
L 189.685357 165.028213 
L 190.9198 165.904628 
L 192.154242 165.367528 
L 193.388685 164.579958 
L 195.85757 166.853505 
L 197.092013 166.858323 
L 200.79534 167.45975 
L 202.029783 169.209599 
L 203.264226 166.580438 
L 204.498668 167.788286 
L 205.733111 169.209475 
L 206.967553 172.757728 
L 209.436439 161.68832 
L 210.670881 163.461477 
L 211.905324 164.454204 
L 213.139766 167.913068 
L 214.374209 175.486109 
L 215.608651 184.793863 
L 216.843094 186.6995 
L 218.077537 193.832736 
L 219.311979 196.572675 
L 220.546422 200.21099 
L 221.780864 201.613525 
L 223.015307 212.924318 
L 224.24975 211.164766 
L 225.484192 220.938186 
L 226.718635 209.111857 
L 227.953077 217.224268 
L 229.18752 223.88133 
L 230.421963 222.121409 
L 231.656405 230.837136 
L 232.890848 234.413115 
L 234.12529 235.90805 
L 236.594176 240.665564 
L 237.828618 240.073144 
L 239.063061 242.142547 
L 240.297503 242.189625 
L 241.531946 236.834096 
L 242.766388 243.868563 
L 245.235274 246.022748 
L 246.469716 247.08033 
L 247.704159 243.931224 
L 248.938601 247.570447 
L 250.173044 247.582924 
L 251.407487 248.083126 
L 252.641929 249.35892 
L 253.876372 249.428375 
L 255.110814 250.040771 
L 256.345257 250.374138 
L 257.5797 244.61725 
L 258.814142 249.916967 
L 260.048585 251.663429 
L 261.283027 252.144019 
L 262.51747 251.89395 
L 263.751912 253.066402 
L 264.986355 252.796523 
L 266.220798 253.720292 
L 267.45524 254.819986 
L 268.689683 254.57908 
L 269.924125 254.574237 
L 271.158568 254.218374 
L 272.393011 254.790015 
L 273.627453 255.627977 
L 274.861896 255.816467 
L 276.096338 255.115945 
L 277.330781 256.661385 
L 278.565224 256.125741 
L 279.799666 257.221146 
L 281.034109 257.685402 
L 282.268551 257.512311 
L 283.502994 257.81504 
L 284.737437 258.799525 
L 285.971879 258.522261 
L 287.206322 252.954702 
L 288.440764 258.744092 
L 289.675207 259.119163 
L 290.909649 257.479463 
L 292.144092 260.016264 
L 293.378535 259.429737 
L 294.612977 260.204075 
L 295.84742 261.457591 
L 297.081862 261.136589 
L 299.550748 261.019816 
L 300.78519 261.159635 
L 302.019633 260.376091 
L 303.254075 261.135843 
L 304.488518 261.259724 
L 305.722961 260.692011 
L 306.957403 261.689269 
L 308.191846 263.03802 
L 309.426288 262.767543 
L 311.895173 262.034275 
L 313.129616 262.889608 
L 314.364059 262.904051 
L 315.598501 263.697664 
L 316.832944 264.208547 
L 318.067386 264.151136 
L 319.301829 265.200747 
L 320.536272 265.571381 
L 321.770714 258.622698 
L 323.005157 264.913454 
L 324.239599 264.738772 
L 325.474042 264.158083 
L 326.708485 266.115328 
L 327.942927 265.373957 
L 329.17737 265.886291 
L 330.411812 265.329764 
L 332.880698 267.490837 
L 334.11514 267.057157 
L 335.349583 267.558588 
L 336.584025 267.200892 
L 337.818468 266.570308 
L 339.05291 265.054684 
L 340.287353 267.518496 
L 341.521796 267.560229 
L 342.756238 266.931638 
L 343.990681 266.634328 
L 345.225123 268.191496 
L 346.459566 266.171019 
L 347.694009 267.095258 
L 348.928451 268.805475 
L 350.162894 269.711442 
L 351.397336 267.745587 
L 352.631779 269.421472 
L 353.866222 268.833893 
L 355.100664 269.060317 
L 356.335107 268.588414 
L 357.569549 270.289858 
L 358.803992 269.65263 
L 360.038435 269.385662 
L 361.272877 270.346104 
L 363.741762 270.630821 
L 364.976205 270.396902 
L 366.210647 271.734095 
L 368.679533 269.851991 
L 369.913975 270.983343 
L 371.148418 269.88608 
L 372.38286 271.55447 
L 373.617303 271.029912 
L 374.851746 270.634936 
L 376.086188 270.711319 
L 377.320631 270.466793 
L 378.555073 272.221831 
L 379.789516 271.943097 
L 381.023959 271.274904 
L 382.258401 272.847757 
L 383.492844 273.494551 
L 384.727286 271.959709 
L 385.961729 274.291669 
L 387.196171 269.48603 
L 388.430614 272.258538 
L 389.665057 274.375028 
L 390.899499 273.026256 
L 392.133942 272.603745 
L 393.368384 273.437126 
L 394.602827 273.839146 
L 395.83727 272.048675 
L 397.071712 273.430009 
L 398.306155 273.790921 
L 399.540597 273.784376 
L 400.77504 274.907231 
L 402.009483 273.499739 
L 403.243925 272.686044 
L 404.478368 274.294573 
L 405.71281 274.920117 
L 406.947253 274.609174 
L 408.181696 274.900934 
L 409.416138 274.936503 
L 410.650581 273.93927 
L 411.885023 276.019053 
L 413.119466 273.847044 
L 414.353908 276.465029 
L 415.588351 275.063319 
L 418.057236 275.865353 
L 419.291679 274.938433 
L 420.526121 274.338551 
L 422.995007 275.875532 
L 424.229449 276.031062 
L 425.463892 276.368315 
L 426.698334 276.883382 
L 427.932777 276.904193 
L 429.16722 275.515442 
L 430.401662 275.778946 
L 431.636105 274.540477 
L 432.870547 276.583722 
L 434.10499 276.299167 
L 436.573875 277.789407 
L 437.808318 275.151169 
L 439.04276 276.068149 
L 440.277203 278.332028 
L 441.511645 277.983139 
L 442.746088 278.369638 
L 443.980531 278.336501 
L 445.214973 277.828316 
L 446.449416 277.874652 
L 447.683858 277.467226 
L 448.918301 277.361459 
L 450.152744 278.280802 
L 451.387186 279.65722 
L 452.621629 278.125941 
L 453.856071 279.155698 
L 456.324957 277.800102 
L 457.559399 278.805667 
L 458.793842 279.48094 
L 460.028284 279.852494 
L 461.262727 277.932217 
L 461.8 278.358277 
L 461.8 278.358277 
" style="fill:none;stroke:#1f77b4;stroke-linecap:square;stroke-width:1.5;"/>
   </g>
   <g id="line2d_64">
    <path clip-path="url(#p90a5bb0ef5)" d="M 58.834797 121.336007 
L 60.069594 140.836046 
L 61.304391 152.791649 
L 62.539188 161.090415 
L 63.773985 167.33085 
L 65.008782 172.109192 
L 66.243579 175.902977 
L 67.478376 179.058047 
L 68.713173 181.753344 
L 69.94797 184.147146 
L 72.417564 188.227058 
L 74.887158 191.726744 
L 77.356752 194.836698 
L 79.826346 197.673422 
L 82.29594 200.139764 
L 84.765534 202.401022 
L 87.235128 204.524565 
L 92.174316 208.239223 
L 95.878707 210.693853 
L 100.817895 213.652191 
L 105.757083 216.167681 
L 110.696271 218.374702 
L 116.870256 220.734287 
L 124.279038 223.20421 
L 127.983429 224.246709 
L 130.453023 224.929312 
L 132.922617 225.612692 
L 136.627008 226.608955 
L 147.740181 229.227137 
L 150.209775 229.756786 
L 152.679369 230.284976 
L 165.027339 232.739316 
L 167.496933 233.123143 
L 169.966527 233.62008 
L 199.601655 238.429423 
L 219.358407 241.298615 
L 221.828001 241.628898 
L 236.645565 243.562743 
L 274.924272 247.9081 
L 279.86346 248.357651 
L 282.333054 248.666845 
L 289.741836 249.362355 
L 303.324603 250.714969 
L 304.5594 250.727578 
L 305.794197 250.946758 
L 310.733385 251.370636 
L 320.611761 252.341589 
L 321.846558 252.360431 
L 324.316152 252.665805 
L 328.020543 252.946236 
L 330.490137 253.221077 
L 335.429325 253.567284 
L 341.60331 254.237933 
L 344.072904 254.356786 
L 350.246889 254.916933 
L 353.95128 255.176281 
L 358.890468 255.614904 
L 363.829656 255.967134 
L 366.29925 256.224213 
L 368.768844 256.39823 
L 379.882017 257.326295 
L 381.116814 257.361327 
L 382.351611 257.563509 
L 383.586408 257.573366 
L 388.525596 258.010684 
L 390.99519 258.155455 
L 430.508694 261.14094 
L 432.978288 261.309284 
L 437.917476 261.680156 
L 441.621867 261.876833 
L 445.326258 262.234671 
L 450.265446 262.577645 
L 453.969837 262.788183 
L 457.674228 263.105082 
L 458.909025 263.141498 
L 460.143822 263.323862 
L 461.8 263.367953 
L 461.8 263.367953 
" style="fill:none;stroke:#ff7f0e;stroke-linecap:square;stroke-width:1.5;"/>
   </g>
   <g id="line2d_65">
    <path clip-path="url(#p90a5bb0ef5)" d="M 58.838012 108.615523 
L 60.076024 117.939734 
L 61.314037 120.467608 
L 63.790061 124.37233 
L 71.218135 135.185687 
L 74.932171 140.137789 
L 77.408196 143.10679 
L 79.88422 145.821047 
L 83.598257 149.492712 
L 87.312294 152.782685 
L 91.02633 155.747309 
L 94.740367 158.416174 
L 98.454404 160.823574 
L 102.16844 162.992955 
L 105.882477 164.946775 
L 110.834526 167.270512 
L 115.786575 169.33102 
L 120.738624 171.183501 
L 126.928685 173.257348 
L 134.356759 175.472949 
L 143.022844 177.766941 
L 151.68893 179.829861 
L 162.83104 182.235535 
L 176.449174 184.89492 
L 191.305321 187.517219 
L 207.39948 190.082071 
L 225.969664 192.736759 
L 247.015872 195.431398 
L 265.586055 197.591266 
L 291.584312 200.33656 
L 311.392508 202.236889 
L 336.152753 204.420936 
L 363.389022 206.618916 
L 400.529389 209.321995 
L 455.001927 212.72415 
L 461.8 213.109218 
L 461.8 213.109218 
" style="fill:none;stroke:#2ca02c;stroke-linecap:square;stroke-width:1.5;"/>
   </g>
   <g id="line2d_66">
    <path clip-path="url(#p90a5bb0ef5)" d="M 58.830486 90.399168 
L 60.060971 103.800777 
L 61.291457 107.35598 
L 62.521943 109.679608 
L 63.752428 111.407643 
L 64.982914 112.773095 
L 66.2134 113.877788 
L 67.443885 114.765038 
L 68.674371 115.468013 
L 71.135342 116.49298 
L 74.826799 117.587231 
L 79.748742 118.75278 
L 85.90117 119.983013 
L 95.745055 121.683705 
L 111.741369 124.167171 
L 153.577882 130.341135 
L 194.183908 136.207399 
L 217.563136 139.345832 
L 239.711878 142.094671 
L 263.091105 144.763175 
L 287.700819 147.343154 
L 314.771503 149.955816 
L 344.303159 152.579316 
L 375.065301 155.090295 
L 407.057928 157.478993 
L 441.511526 159.821161 
L 461.8 161.098569 
L 461.8 161.098569 
" style="fill:none;stroke:#d62728;stroke-linecap:square;stroke-width:1.5;"/>
   </g>
   <g id="line2d_67">
    <path clip-path="url(#p90a5bb0ef5)" d="M 58.831291 74.013934 
L 60.062582 79.867401 
L 61.293873 85.180611 
L 62.525164 89.565804 
L 63.756454 92.928655 
L 64.987745 95.422145 
L 66.219036 97.275472 
L 67.450327 98.687972 
L 68.681618 99.802383 
L 69.912909 100.713173 
L 72.375491 102.14741 
L 74.838072 103.26931 
L 78.531945 104.624847 
L 82.225818 105.74321 
L 87.150981 107.000142 
L 93.307435 108.31288 
L 100.695181 109.62022 
L 109.314217 110.88295 
L 119.164544 112.082438 
L 130.246162 113.205589 
L 142.559071 114.226926 
L 156.10327 115.11347 
L 170.878761 115.854413 
L 190.579415 116.603569 
L 220.130396 117.477639 
L 265.688158 118.581688 
L 327.252702 119.838016 
L 413.443063 121.355777 
L 461.8 122.141208 
L 461.8 122.141208 
" style="fill:none;stroke:#9467bd;stroke-linecap:square;stroke-width:1.5;"/>
   </g>
   <g id="line2d_68">
    <path clip-path="url(#p90a5bb0ef5)" d="M 71.693163 167.636204 
L 85.786327 211.55492 
L 99.87949 217.050038 
L 113.972654 219.347828 
L 128.065817 221.443554 
L 142.158981 222.034945 
L 156.252144 223.28696 
L 170.345307 223.038912 
L 184.438471 224.109729 
L 198.531634 223.395677 
L 212.624798 223.833413 
L 226.717961 225.048474 
L 240.811125 225.322219 
L 254.904288 225.841812 
L 268.997451 226.364273 
L 283.090615 226.127498 
L 297.183778 225.466622 
L 311.276942 224.828082 
L 325.370105 225.821166 
L 339.463269 226.069828 
L 353.556432 226.606119 
L 367.649595 226.111044 
L 381.742759 225.889343 
L 395.835922 225.789277 
L 409.929086 226.601648 
L 424.022249 226.355071 
L 438.115412 227.508406 
L 452.208576 227.235552 
L 461.8 227.656169 
" style="fill:none;stroke:#8c564b;stroke-dasharray:5.55,2.4;stroke-dashoffset:0;stroke-width:1.5;"/>
   </g>
   <g id="line2d_69">
    <path clip-path="url(#p90a5bb0ef5)" d="M 65.502574 165.843181 
L 73.405148 211.999223 
L 81.307722 220.658726 
L 89.210296 226.040102 
L 97.112869 230.293582 
L 105.015443 233.210068 
L 112.918017 235.556953 
L 120.820591 237.497498 
L 128.723165 239.267535 
L 136.625739 241.114859 
L 144.528313 242.51576 
L 152.430887 243.835026 
L 160.333461 244.832774 
L 168.236034 245.808997 
L 176.138608 247.093639 
L 184.041182 247.886891 
L 191.943756 248.416081 
L 199.84633 249.658025 
L 207.748904 249.746503 
L 215.651478 251.165562 
L 223.554052 251.659092 
L 231.456626 251.662667 
L 239.359199 252.479199 
L 247.261773 252.741 
L 255.164347 253.816767 
L 263.066921 254.270887 
L 270.969495 255.043661 
L 278.872069 254.667684 
L 286.774643 254.902797 
L 294.677217 255.296952 
L 302.579791 255.641611 
L 310.482364 256.728529 
L 318.384938 257.735503 
L 326.287512 257.469704 
L 334.190086 256.996187 
L 342.09266 257.908491 
L 349.995234 258.81569 
L 357.897808 258.869383 
L 365.800382 258.509861 
L 373.702956 260.258353 
L 381.605529 259.907625 
L 389.508103 260.310582 
L 397.410677 258.750606 
L 405.313251 259.740091 
L 413.215825 260.867968 
L 421.118399 259.960583 
L 429.020973 261.143096 
L 436.923547 261.813317 
L 444.826121 261.044778 
L 452.728694 261.702432 
L 460.631268 262.248205 
L 461.8 262.260837 
" style="fill:none;stroke:#e377c2;stroke-dasharray:5.55,2.4;stroke-dashoffset:0;stroke-width:1.5;"/>
   </g>
   <g id="line2d_70">
    <path clip-path="url(#p90a5bb0ef5)" d="M 62.971097 162.747751 
L 68.342194 203.561717 
L 73.713291 213.148424 
L 79.084388 219.41863 
L 84.455485 224.170314 
L 89.826581 227.81321 
L 95.197678 230.973706 
L 100.568775 233.549224 
L 105.939872 235.982289 
L 111.310969 238.254851 
L 116.682066 239.82634 
L 122.053163 241.732353 
L 127.42426 243.534348 
L 132.795357 245.006917 
L 138.166454 246.352896 
L 143.53755 247.90003 
L 148.908647 248.757074 
L 154.279744 250.065777 
L 159.650841 251.404933 
L 165.021938 252.515619 
L 170.393035 253.429429 
L 175.764132 254.26532 
L 181.135229 255.410311 
L 186.506326 256.415578 
L 191.877423 256.770276 
L 197.24852 258.221541 
L 202.619616 258.765775 
L 207.990713 259.737902 
L 213.36181 260.770339 
L 218.732907 260.83737 
L 224.104004 261.750759 
L 229.475101 262.27739 
L 234.846198 262.998734 
L 240.217295 263.97798 
L 245.588392 265.400269 
L 250.959489 265.583687 
L 256.330585 266.085627 
L 261.701682 266.851233 
L 267.072779 267.190728 
L 272.443876 268.270679 
L 277.814973 268.530175 
L 283.18607 269.308445 
L 288.557167 269.494151 
L 293.928264 269.742797 
L 299.299361 271.255449 
L 304.670458 271.872135 
L 310.041554 272.315886 
L 315.412651 273.524396 
L 320.783748 272.971788 
L 326.154845 273.677275 
L 331.525942 274.45865 
L 336.897039 275.102929 
L 342.268136 275.086872 
L 347.639233 275.591206 
L 353.01033 276.589391 
L 358.381427 276.266304 
L 363.752524 277.77833 
L 369.12362 277.843489 
L 374.494717 277.686047 
L 379.865814 278.899724 
L 385.236911 278.706286 
L 390.608008 279.885897 
L 395.979105 280.131961 
L 401.350202 280.953358 
L 406.721299 280.945817 
L 412.092396 281.993786 
L 417.463493 281.77349 
L 422.834589 280.77087 
L 428.205686 282.920821 
L 433.576783 283.32551 
L 438.94788 282.737974 
L 444.318977 285.036209 
L 449.690074 283.852935 
L 455.061171 284.203042 
L 460.432268 285.910443 
L 461.8 285.941025 
" style="fill:none;stroke:#7f7f7f;stroke-dasharray:5.55,2.4;stroke-dashoffset:0;stroke-width:1.5;"/>
   </g>
   <g id="patch_3">
    <path d="M 57.6 307.584 
L 57.6 41.472 
" style="fill:none;stroke:#000000;stroke-linecap:square;stroke-linejoin:miter;stroke-width:0.8;"/>
   </g>
   <g id="patch_4">
    <path d="M 414.72 307.584 
L 414.72 41.472 
" style="fill:none;stroke:#000000;stroke-linecap:square;stroke-linejoin:miter;stroke-width:0.8;"/>
   </g>
   <g id="patch_5">
    <path d="M 57.6 307.584 
L 414.72 307.584 
" style="fill:none;stroke:#000000;stroke-linecap:square;stroke-linejoin:miter;stroke-width:0.8;"/>
   </g>
   <g id="patch_6">
    <path d="M 57.6 41.472 
L 414.72 41.472 
" style="fill:none;stroke:#000000;stroke-linecap:square;stroke-linejoin:miter;stroke-width:0.8;"/>
   </g>
   <g id="legend_1">
    <g id="patch_7">
     <path d="M 64.6 302.584 
L 172.425 302.584 
Q 174.425 302.584 174.425 300.584 
L 174.425 184.159 
Q 174.425 182.159 172.425 182.159 
L 64.6 182.159 
Q 62.6 182.159 62.6 184.159 
L 62.6 300.584 
Q 62.6 302.584 64.6 302.584 
z
" style="fill:#ffffff;opacity:0.8;stroke:#cccccc;stroke-linejoin:miter;"/>
    </g>
    <g id="line2d_71">
     <path d="M 66.6 190.257437 
L 86.6 190.257437 
" style="fill:none;stroke:#1f77b4;stroke-linecap:square;stroke-width:1.5;"/>
    </g>
    <g id="line2d_72"/>
    <g id="text_14">
     <!-- SGD, lr 10 -->
     <defs>
      <path d="M 53.515625 70.515625 
L 53.515625 60.890625 
Q 47.90625 63.578125 42.921875 64.890625 
Q 37.9375 66.21875 33.296875 66.21875 
Q 25.25 66.21875 20.875 63.09375 
Q 16.5 59.96875 16.5 54.203125 
Q 16.5 49.359375 19.40625 46.890625 
Q 22.3125 44.4375 30.421875 42.921875 
L 36.375 41.703125 
Q 47.40625 39.59375 52.65625 34.296875 
Q 57.90625 29 57.90625 20.125 
Q 57.90625 9.515625 50.796875 4.046875 
Q 43.703125 -1.421875 29.984375 -1.421875 
Q 24.8125 -1.421875 18.96875 -0.25 
Q 13.140625 0.921875 6.890625 3.21875 
L 6.890625 13.375 
Q 12.890625 10.015625 18.65625 8.296875 
Q 24.421875 6.59375 29.984375 6.59375 
Q 38.421875 6.59375 43.015625 9.90625 
Q 47.609375 13.234375 47.609375 19.390625 
Q 47.609375 24.75 44.3125 27.78125 
Q 41.015625 30.8125 33.5 32.328125 
L 27.484375 33.5 
Q 16.453125 35.6875 11.515625 40.375 
Q 6.59375 45.0625 6.59375 53.421875 
Q 6.59375 63.09375 13.40625 68.65625 
Q 20.21875 74.21875 32.171875 74.21875 
Q 37.3125 74.21875 42.625 73.28125 
Q 47.953125 72.359375 53.515625 70.515625 
z
" id="DejaVuSans-53"/>
      <path d="M 59.515625 10.40625 
L 59.515625 29.984375 
L 43.40625 29.984375 
L 43.40625 38.09375 
L 69.28125 38.09375 
L 69.28125 6.78125 
Q 63.578125 2.734375 56.6875 0.65625 
Q 49.8125 -1.421875 42 -1.421875 
Q 24.90625 -1.421875 15.25 8.5625 
Q 5.609375 18.5625 5.609375 36.375 
Q 5.609375 54.25 15.25 64.234375 
Q 24.90625 74.21875 42 74.21875 
Q 49.125 74.21875 55.546875 72.453125 
Q 61.96875 70.703125 67.390625 67.28125 
L 67.390625 56.78125 
Q 61.921875 61.421875 55.765625 63.765625 
Q 49.609375 66.109375 42.828125 66.109375 
Q 29.4375 66.109375 22.71875 58.640625 
Q 16.015625 51.171875 16.015625 36.375 
Q 16.015625 21.625 22.71875 14.15625 
Q 29.4375 6.6875 42.828125 6.6875 
Q 48.046875 6.6875 52.140625 7.59375 
Q 56.25 8.5 59.515625 10.40625 
z
" id="DejaVuSans-47"/>
      <path d="M 19.671875 64.796875 
L 19.671875 8.109375 
L 31.59375 8.109375 
Q 46.6875 8.109375 53.6875 14.9375 
Q 60.6875 21.78125 60.6875 36.53125 
Q 60.6875 51.171875 53.6875 57.984375 
Q 46.6875 64.796875 31.59375 64.796875 
z
M 9.8125 72.90625 
L 30.078125 72.90625 
Q 51.265625 72.90625 61.171875 64.09375 
Q 71.09375 55.28125 71.09375 36.53125 
Q 71.09375 17.671875 61.125 8.828125 
Q 51.171875 0 30.078125 0 
L 9.8125 0 
z
" id="DejaVuSans-44"/>
      <path d="M 11.71875 12.40625 
L 22.015625 12.40625 
L 22.015625 4 
L 14.015625 -11.625 
L 7.71875 -11.625 
L 11.71875 4 
z
" id="DejaVuSans-2c"/>
      <path id="DejaVuSans-20"/>
      <path d="M 41.109375 46.296875 
Q 39.59375 47.171875 37.8125 47.578125 
Q 36.03125 48 33.890625 48 
Q 26.265625 48 22.1875 43.046875 
Q 18.109375 38.09375 18.109375 28.8125 
L 18.109375 0 
L 9.078125 0 
L 9.078125 54.6875 
L 18.109375 54.6875 
L 18.109375 46.1875 
Q 20.953125 51.171875 25.484375 53.578125 
Q 30.03125 56 36.53125 56 
Q 37.453125 56 38.578125 55.875 
Q 39.703125 55.765625 41.0625 55.515625 
z
" id="DejaVuSans-72"/>
     </defs>
     <g transform="translate(94.6 193.757437)scale(0.1 -0.1)">
      <use xlink:href="#DejaVuSans-53"/>
      <use x="63.476562" xlink:href="#DejaVuSans-47"/>
      <use x="140.966797" xlink:href="#DejaVuSans-44"/>
      <use x="217.96875" xlink:href="#DejaVuSans-2c"/>
      <use x="249.755859" xlink:href="#DejaVuSans-20"/>
      <use x="281.542969" xlink:href="#DejaVuSans-6c"/>
      <use x="309.326172" xlink:href="#DejaVuSans-72"/>
      <use x="350.439453" xlink:href="#DejaVuSans-20"/>
      <use x="382.226562" xlink:href="#DejaVuSans-31"/>
      <use x="445.849609" xlink:href="#DejaVuSans-30"/>
     </g>
    </g>
    <g id="line2d_73">
     <path d="M 66.6 204.935563 
L 86.6 204.935563 
" style="fill:none;stroke:#ff7f0e;stroke-linecap:square;stroke-width:1.5;"/>
    </g>
    <g id="line2d_74"/>
    <g id="text_15">
     <!-- SGD, lr 1 -->
     <g transform="translate(94.6 208.435563)scale(0.1 -0.1)">
      <use xlink:href="#DejaVuSans-53"/>
      <use x="63.476562" xlink:href="#DejaVuSans-47"/>
      <use x="140.966797" xlink:href="#DejaVuSans-44"/>
      <use x="217.96875" xlink:href="#DejaVuSans-2c"/>
      <use x="249.755859" xlink:href="#DejaVuSans-20"/>
      <use x="281.542969" xlink:href="#DejaVuSans-6c"/>
      <use x="309.326172" xlink:href="#DejaVuSans-72"/>
      <use x="350.439453" xlink:href="#DejaVuSans-20"/>
      <use x="382.226562" xlink:href="#DejaVuSans-31"/>
     </g>
    </g>
    <g id="line2d_75">
     <path d="M 66.6 219.613687 
L 86.6 219.613687 
" style="fill:none;stroke:#2ca02c;stroke-linecap:square;stroke-width:1.5;"/>
    </g>
    <g id="line2d_76"/>
    <g id="text_16">
     <!-- SGD, lr 0.1 -->
     <defs>
      <path d="M 10.6875 12.40625 
L 21 12.40625 
L 21 0 
L 10.6875 0 
z
" id="DejaVuSans-2e"/>
     </defs>
     <g transform="translate(94.6 223.113687)scale(0.1 -0.1)">
      <use xlink:href="#DejaVuSans-53"/>
      <use x="63.476562" xlink:href="#DejaVuSans-47"/>
      <use x="140.966797" xlink:href="#DejaVuSans-44"/>
      <use x="217.96875" xlink:href="#DejaVuSans-2c"/>
      <use x="249.755859" xlink:href="#DejaVuSans-20"/>
      <use x="281.542969" xlink:href="#DejaVuSans-6c"/>
      <use x="309.326172" xlink:href="#DejaVuSans-72"/>
      <use x="350.439453" xlink:href="#DejaVuSans-20"/>
      <use x="382.226562" xlink:href="#DejaVuSans-30"/>
      <use x="445.849609" xlink:href="#DejaVuSans-2e"/>
      <use x="477.636719" xlink:href="#DejaVuSans-31"/>
     </g>
    </g>
    <g id="line2d_77">
     <path d="M 66.6 234.291812 
L 86.6 234.291812 
" style="fill:none;stroke:#d62728;stroke-linecap:square;stroke-width:1.5;"/>
    </g>
    <g id="line2d_78"/>
    <g id="text_17">
     <!-- SGD, lr 0.01 -->
     <g transform="translate(94.6 237.791812)scale(0.1 -0.1)">
      <use xlink:href="#DejaVuSans-53"/>
      <use x="63.476562" xlink:href="#DejaVuSans-47"/>
      <use x="140.966797" xlink:href="#DejaVuSans-44"/>
      <use x="217.96875" xlink:href="#DejaVuSans-2c"/>
      <use x="249.755859" xlink:href="#DejaVuSans-20"/>
      <use x="281.542969" xlink:href="#DejaVuSans-6c"/>
      <use x="309.326172" xlink:href="#DejaVuSans-72"/>
      <use x="350.439453" xlink:href="#DejaVuSans-20"/>
      <use x="382.226562" xlink:href="#DejaVuSans-30"/>
      <use x="445.849609" xlink:href="#DejaVuSans-2e"/>
      <use x="477.636719" xlink:href="#DejaVuSans-30"/>
      <use x="541.259766" xlink:href="#DejaVuSans-31"/>
     </g>
    </g>
    <g id="line2d_79">
     <path d="M 66.6 248.969937 
L 86.6 248.969937 
" style="fill:none;stroke:#9467bd;stroke-linecap:square;stroke-width:1.5;"/>
    </g>
    <g id="line2d_80"/>
    <g id="text_18">
     <!-- SGD, lr 0.001 -->
     <g transform="translate(94.6 252.469937)scale(0.1 -0.1)">
      <use xlink:href="#DejaVuSans-53"/>
      <use x="63.476562" xlink:href="#DejaVuSans-47"/>
      <use x="140.966797" xlink:href="#DejaVuSans-44"/>
      <use x="217.96875" xlink:href="#DejaVuSans-2c"/>
      <use x="249.755859" xlink:href="#DejaVuSans-20"/>
      <use x="281.542969" xlink:href="#DejaVuSans-6c"/>
      <use x="309.326172" xlink:href="#DejaVuSans-72"/>
      <use x="350.439453" xlink:href="#DejaVuSans-20"/>
      <use x="382.226562" xlink:href="#DejaVuSans-30"/>
      <use x="445.849609" xlink:href="#DejaVuSans-2e"/>
      <use x="477.636719" xlink:href="#DejaVuSans-30"/>
      <use x="541.259766" xlink:href="#DejaVuSans-30"/>
      <use x="604.882812" xlink:href="#DejaVuSans-31"/>
     </g>
    </g>
    <g id="line2d_81">
     <path d="M 66.6 263.648062 
L 86.6 263.648062 
" style="fill:none;stroke:#8c564b;stroke-dasharray:5.55,2.4;stroke-dashoffset:0;stroke-width:1.5;"/>
    </g>
    <g id="line2d_82"/>
    <g id="text_19">
     <!-- SGN, cg iter 10 -->
     <defs>
      <path d="M 9.8125 72.90625 
L 23.09375 72.90625 
L 55.421875 11.921875 
L 55.421875 72.90625 
L 64.984375 72.90625 
L 64.984375 0 
L 51.703125 0 
L 19.390625 60.984375 
L 19.390625 0 
L 9.8125 0 
z
" id="DejaVuSans-4e"/>
      <path d="M 45.40625 27.984375 
Q 45.40625 37.75 41.375 43.109375 
Q 37.359375 48.484375 30.078125 48.484375 
Q 22.859375 48.484375 18.828125 43.109375 
Q 14.796875 37.75 14.796875 27.984375 
Q 14.796875 18.265625 18.828125 12.890625 
Q 22.859375 7.515625 30.078125 7.515625 
Q 37.359375 7.515625 41.375 12.890625 
Q 45.40625 18.265625 45.40625 27.984375 
z
M 54.390625 6.78125 
Q 54.390625 -7.171875 48.1875 -13.984375 
Q 42 -20.796875 29.203125 -20.796875 
Q 24.46875 -20.796875 20.265625 -20.09375 
Q 16.0625 -19.390625 12.109375 -17.921875 
L 12.109375 -9.1875 
Q 16.0625 -11.328125 19.921875 -12.34375 
Q 23.78125 -13.375 27.78125 -13.375 
Q 36.625 -13.375 41.015625 -8.765625 
Q 45.40625 -4.15625 45.40625 5.171875 
L 45.40625 9.625 
Q 42.625 4.78125 38.28125 2.390625 
Q 33.9375 0 27.875 0 
Q 17.828125 0 11.671875 7.65625 
Q 5.515625 15.328125 5.515625 27.984375 
Q 5.515625 40.671875 11.671875 48.328125 
Q 17.828125 56 27.875 56 
Q 33.9375 56 38.28125 53.609375 
Q 42.625 51.21875 45.40625 46.390625 
L 45.40625 54.6875 
L 54.390625 54.6875 
z
" id="DejaVuSans-67"/>
      <path d="M 9.421875 54.6875 
L 18.40625 54.6875 
L 18.40625 0 
L 9.421875 0 
z
M 9.421875 75.984375 
L 18.40625 75.984375 
L 18.40625 64.59375 
L 9.421875 64.59375 
z
" id="DejaVuSans-69"/>
      <path d="M 18.3125 70.21875 
L 18.3125 54.6875 
L 36.8125 54.6875 
L 36.8125 47.703125 
L 18.3125 47.703125 
L 18.3125 18.015625 
Q 18.3125 11.328125 20.140625 9.421875 
Q 21.96875 7.515625 27.59375 7.515625 
L 36.8125 7.515625 
L 36.8125 0 
L 27.59375 0 
Q 17.1875 0 13.234375 3.875 
Q 9.28125 7.765625 9.28125 18.015625 
L 9.28125 47.703125 
L 2.6875 47.703125 
L 2.6875 54.6875 
L 9.28125 54.6875 
L 9.28125 70.21875 
z
" id="DejaVuSans-74"/>
     </defs>
     <g transform="translate(94.6 267.148062)scale(0.1 -0.1)">
      <use xlink:href="#DejaVuSans-53"/>
      <use x="63.476562" xlink:href="#DejaVuSans-47"/>
      <use x="140.966797" xlink:href="#DejaVuSans-4e"/>
      <use x="215.771484" xlink:href="#DejaVuSans-2c"/>
      <use x="247.558594" xlink:href="#DejaVuSans-20"/>
      <use x="279.345703" xlink:href="#DejaVuSans-63"/>
      <use x="334.326172" xlink:href="#DejaVuSans-67"/>
      <use x="397.802734" xlink:href="#DejaVuSans-20"/>
      <use x="429.589844" xlink:href="#DejaVuSans-69"/>
      <use x="457.373047" xlink:href="#DejaVuSans-74"/>
      <use x="496.582031" xlink:href="#DejaVuSans-65"/>
      <use x="558.105469" xlink:href="#DejaVuSans-72"/>
      <use x="599.21875" xlink:href="#DejaVuSans-20"/>
      <use x="631.005859" xlink:href="#DejaVuSans-31"/>
      <use x="694.628906" xlink:href="#DejaVuSans-30"/>
     </g>
    </g>
    <g id="line2d_83">
     <path d="M 66.6 278.326187 
L 86.6 278.326187 
" style="fill:none;stroke:#e377c2;stroke-dasharray:5.55,2.4;stroke-dashoffset:0;stroke-width:1.5;"/>
    </g>
    <g id="line2d_84"/>
    <g id="text_20">
     <!-- SGN, cg iter 5 -->
     <g transform="translate(94.6 281.826187)scale(0.1 -0.1)">
      <use xlink:href="#DejaVuSans-53"/>
      <use x="63.476562" xlink:href="#DejaVuSans-47"/>
      <use x="140.966797" xlink:href="#DejaVuSans-4e"/>
      <use x="215.771484" xlink:href="#DejaVuSans-2c"/>
      <use x="247.558594" xlink:href="#DejaVuSans-20"/>
      <use x="279.345703" xlink:href="#DejaVuSans-63"/>
      <use x="334.326172" xlink:href="#DejaVuSans-67"/>
      <use x="397.802734" xlink:href="#DejaVuSans-20"/>
      <use x="429.589844" xlink:href="#DejaVuSans-69"/>
      <use x="457.373047" xlink:href="#DejaVuSans-74"/>
      <use x="496.582031" xlink:href="#DejaVuSans-65"/>
      <use x="558.105469" xlink:href="#DejaVuSans-72"/>
      <use x="599.21875" xlink:href="#DejaVuSans-20"/>
      <use x="631.005859" xlink:href="#DejaVuSans-35"/>
     </g>
    </g>
    <g id="line2d_85">
     <path d="M 66.6 293.004312 
L 86.6 293.004312 
" style="fill:none;stroke:#7f7f7f;stroke-dasharray:5.55,2.4;stroke-dashoffset:0;stroke-width:1.5;"/>
    </g>
    <g id="line2d_86"/>
    <g id="text_21">
     <!-- SGN, cg iter 3 -->
     <defs>
      <path d="M 40.578125 39.3125 
Q 47.65625 37.796875 51.625 33 
Q 55.609375 28.21875 55.609375 21.1875 
Q 55.609375 10.40625 48.1875 4.484375 
Q 40.765625 -1.421875 27.09375 -1.421875 
Q 22.515625 -1.421875 17.65625 -0.515625 
Q 12.796875 0.390625 7.625 2.203125 
L 7.625 11.71875 
Q 11.71875 9.328125 16.59375 8.109375 
Q 21.484375 6.890625 26.8125 6.890625 
Q 36.078125 6.890625 40.9375 10.546875 
Q 45.796875 14.203125 45.796875 21.1875 
Q 45.796875 27.640625 41.28125 31.265625 
Q 36.765625 34.90625 28.71875 34.90625 
L 20.21875 34.90625 
L 20.21875 43.015625 
L 29.109375 43.015625 
Q 36.375 43.015625 40.234375 45.921875 
Q 44.09375 48.828125 44.09375 54.296875 
Q 44.09375 59.90625 40.109375 62.90625 
Q 36.140625 65.921875 28.71875 65.921875 
Q 24.65625 65.921875 20.015625 65.03125 
Q 15.375 64.15625 9.8125 62.3125 
L 9.8125 71.09375 
Q 15.4375 72.65625 20.34375 73.4375 
Q 25.25 74.21875 29.59375 74.21875 
Q 40.828125 74.21875 47.359375 69.109375 
Q 53.90625 64.015625 53.90625 55.328125 
Q 53.90625 49.265625 50.4375 45.09375 
Q 46.96875 40.921875 40.578125 39.3125 
z
" id="DejaVuSans-33"/>
     </defs>
     <g transform="translate(94.6 296.504312)scale(0.1 -0.1)">
      <use xlink:href="#DejaVuSans-53"/>
      <use x="63.476562" xlink:href="#DejaVuSans-47"/>
      <use x="140.966797" xlink:href="#DejaVuSans-4e"/>
      <use x="215.771484" xlink:href="#DejaVuSans-2c"/>
      <use x="247.558594" xlink:href="#DejaVuSans-20"/>
      <use x="279.345703" xlink:href="#DejaVuSans-63"/>
      <use x="334.326172" xlink:href="#DejaVuSans-67"/>
      <use x="397.802734" xlink:href="#DejaVuSans-20"/>
      <use x="429.589844" xlink:href="#DejaVuSans-69"/>
      <use x="457.373047" xlink:href="#DejaVuSans-74"/>
      <use x="496.582031" xlink:href="#DejaVuSans-65"/>
      <use x="558.105469" xlink:href="#DejaVuSans-72"/>
      <use x="599.21875" xlink:href="#DejaVuSans-20"/>
      <use x="631.005859" xlink:href="#DejaVuSans-33"/>
     </g>
    </g>
   </g>
  </g>
 </g>
 <defs>
  <clipPath id="p90a5bb0ef5">
   <rect height="266.112" width="357.12" x="57.6" y="41.472"/>
  </clipPath>
 </defs>
</svg>
