<?xml version="1.0" encoding="utf-8" standalone="no"?>
<!DOCTYPE svg PUBLIC "-//W3C//DTD SVG 1.1//EN"
  "http://www.w3.org/Graphics/SVG/1.1/DTD/svg11.dtd">
<!-- Created with matplotlib (http://matplotlib.org/) -->
<svg height="345pt" version="1.1" viewBox="0 0 460 345" width="460pt" xmlns="http://www.w3.org/2000/svg" xmlns:xlink="http://www.w3.org/1999/xlink">
 <defs>
  <style type="text/css">
*{stroke-linecap:butt;stroke-linejoin:round;}
  </style>
 </defs>
 <g id="figure_1">
  <g id="patch_1">
   <path d="M 0 345.6 
L 460.8 345.6 
L 460.8 0 
L 0 0 
z
" style="fill:none;opacity:0;"/>
  </g>
  <g id="axes_1">
   <g id="patch_2">
    <path d="M 57.6 307.584 
L 414.72 307.584 
L 414.72 41.472 
L 57.6 41.472 
z
" style="fill:#ffffff;"/>
   </g>
   <g id="matplotlib.axis_1">
    <g id="xtick_1">
     <g id="line2d_1">
      <path clip-path="url(#p05683ec3bd)" d="M 57.6 307.584 
L 57.6 41.472 
" style="fill:none;stroke:#b0b0b0;stroke-linecap:square;stroke-width:0.8;"/>
     </g>
     <g id="line2d_2">
      <defs>
       <path d="M 0 0 
L 0 3.5 
" id="m384a49cddb" style="stroke:#000000;stroke-width:0.8;"/>
      </defs>
      <g>
       <use style="stroke:#000000;stroke-width:0.8;" x="57.6" xlink:href="#m384a49cddb" y="307.584"/>
      </g>
     </g>
     <g id="text_1">
      <!-- 0 -->
      <defs>
       <path d="M 31.78125 66.40625 
Q 24.171875 66.40625 20.328125 58.90625 
Q 16.5 51.421875 16.5 36.375 
Q 16.5 21.390625 20.328125 13.890625 
Q 24.171875 6.390625 31.78125 6.390625 
Q 39.453125 6.390625 43.28125 13.890625 
Q 47.125 21.390625 47.125 36.375 
Q 47.125 51.421875 43.28125 58.90625 
Q 39.453125 66.40625 31.78125 66.40625 
z
M 31.78125 74.21875 
Q 44.046875 74.21875 50.515625 64.515625 
Q 56.984375 54.828125 56.984375 36.375 
Q 56.984375 17.96875 50.515625 8.265625 
Q 44.046875 -1.421875 31.78125 -1.421875 
Q 19.53125 -1.421875 13.0625 8.265625 
Q 6.59375 17.96875 6.59375 36.375 
Q 6.59375 54.828125 13.0625 64.515625 
Q 19.53125 74.21875 31.78125 74.21875 
z
" id="DejaVuSans-30"/>
      </defs>
      <g transform="translate(54.41875 322.182437)scale(0.1 -0.1)">
       <use xlink:href="#DejaVuSans-30"/>
      </g>
     </g>
    </g>
    <g id="xtick_2">
     <g id="line2d_3">
      <path clip-path="url(#p05683ec3bd)" d="M 129.024 307.584 
L 129.024 41.472 
" style="fill:none;stroke:#b0b0b0;stroke-linecap:square;stroke-width:0.8;"/>
     </g>
     <g id="line2d_4">
      <g>
       <use style="stroke:#000000;stroke-width:0.8;" x="129.024" xlink:href="#m384a49cddb" y="307.584"/>
      </g>
     </g>
     <g id="text_2">
      <!-- 20 -->
      <defs>
       <path d="M 19.1875 8.296875 
L 53.609375 8.296875 
L 53.609375 0 
L 7.328125 0 
L 7.328125 8.296875 
Q 12.9375 14.109375 22.625 23.890625 
Q 32.328125 33.6875 34.8125 36.53125 
Q 39.546875 41.84375 41.421875 45.53125 
Q 43.3125 49.21875 43.3125 52.78125 
Q 43.3125 58.59375 39.234375 62.25 
Q 35.15625 65.921875 28.609375 65.921875 
Q 23.96875 65.921875 18.8125 64.3125 
Q 13.671875 62.703125 7.8125 59.421875 
L 7.8125 69.390625 
Q 13.765625 71.78125 18.9375 73 
Q 24.125 74.21875 28.421875 74.21875 
Q 39.75 74.21875 46.484375 68.546875 
Q 53.21875 62.890625 53.21875 53.421875 
Q 53.21875 48.921875 51.53125 44.890625 
Q 49.859375 40.875 45.40625 35.40625 
Q 44.1875 33.984375 37.640625 27.21875 
Q 31.109375 20.453125 19.1875 8.296875 
z
" id="DejaVuSans-32"/>
      </defs>
      <g transform="translate(122.6615 322.182437)scale(0.1 -0.1)">
       <use xlink:href="#DejaVuSans-32"/>
       <use x="63.623047" xlink:href="#DejaVuSans-30"/>
      </g>
     </g>
    </g>
    <g id="xtick_3">
     <g id="line2d_5">
      <path clip-path="url(#p05683ec3bd)" d="M 200.448 307.584 
L 200.448 41.472 
" style="fill:none;stroke:#b0b0b0;stroke-linecap:square;stroke-width:0.8;"/>
     </g>
     <g id="line2d_6">
      <g>
       <use style="stroke:#000000;stroke-width:0.8;" x="200.448" xlink:href="#m384a49cddb" y="307.584"/>
      </g>
     </g>
     <g id="text_3">
      <!-- 40 -->
      <defs>
       <path d="M 37.796875 64.3125 
L 12.890625 25.390625 
L 37.796875 25.390625 
z
M 35.203125 72.90625 
L 47.609375 72.90625 
L 47.609375 25.390625 
L 58.015625 25.390625 
L 58.015625 17.1875 
L 47.609375 17.1875 
L 47.609375 0 
L 37.796875 0 
L 37.796875 17.1875 
L 4.890625 17.1875 
L 4.890625 26.703125 
z
" id="DejaVuSans-34"/>
      </defs>
      <g transform="translate(194.0855 322.182437)scale(0.1 -0.1)">
       <use xlink:href="#DejaVuSans-34"/>
       <use x="63.623047" xlink:href="#DejaVuSans-30"/>
      </g>
     </g>
    </g>
    <g id="xtick_4">
     <g id="line2d_7">
      <path clip-path="url(#p05683ec3bd)" d="M 271.872 307.584 
L 271.872 41.472 
" style="fill:none;stroke:#b0b0b0;stroke-linecap:square;stroke-width:0.8;"/>
     </g>
     <g id="line2d_8">
      <g>
       <use style="stroke:#000000;stroke-width:0.8;" x="271.872" xlink:href="#m384a49cddb" y="307.584"/>
      </g>
     </g>
     <g id="text_4">
      <!-- 60 -->
      <defs>
       <path d="M 33.015625 40.375 
Q 26.375 40.375 22.484375 35.828125 
Q 18.609375 31.296875 18.609375 23.390625 
Q 18.609375 15.53125 22.484375 10.953125 
Q 26.375 6.390625 33.015625 6.390625 
Q 39.65625 6.390625 43.53125 10.953125 
Q 47.40625 15.53125 47.40625 23.390625 
Q 47.40625 31.296875 43.53125 35.828125 
Q 39.65625 40.375 33.015625 40.375 
z
M 52.59375 71.296875 
L 52.59375 62.3125 
Q 48.875 64.0625 45.09375 64.984375 
Q 41.3125 65.921875 37.59375 65.921875 
Q 27.828125 65.921875 22.671875 59.328125 
Q 17.53125 52.734375 16.796875 39.40625 
Q 19.671875 43.65625 24.015625 45.921875 
Q 28.375 48.1875 33.59375 48.1875 
Q 44.578125 48.1875 50.953125 41.515625 
Q 57.328125 34.859375 57.328125 23.390625 
Q 57.328125 12.15625 50.6875 5.359375 
Q 44.046875 -1.421875 33.015625 -1.421875 
Q 20.359375 -1.421875 13.671875 8.265625 
Q 6.984375 17.96875 6.984375 36.375 
Q 6.984375 53.65625 15.1875 63.9375 
Q 23.390625 74.21875 37.203125 74.21875 
Q 40.921875 74.21875 44.703125 73.484375 
Q 48.484375 72.75 52.59375 71.296875 
z
" id="DejaVuSans-36"/>
      </defs>
      <g transform="translate(265.5095 322.182437)scale(0.1 -0.1)">
       <use xlink:href="#DejaVuSans-36"/>
       <use x="63.623047" xlink:href="#DejaVuSans-30"/>
      </g>
     </g>
    </g>
    <g id="xtick_5">
     <g id="line2d_9">
      <path clip-path="url(#p05683ec3bd)" d="M 343.296 307.584 
L 343.296 41.472 
" style="fill:none;stroke:#b0b0b0;stroke-linecap:square;stroke-width:0.8;"/>
     </g>
     <g id="line2d_10">
      <g>
       <use style="stroke:#000000;stroke-width:0.8;" x="343.296" xlink:href="#m384a49cddb" y="307.584"/>
      </g>
     </g>
     <g id="text_5">
      <!-- 80 -->
      <defs>
       <path d="M 31.78125 34.625 
Q 24.75 34.625 20.71875 30.859375 
Q 16.703125 27.09375 16.703125 20.515625 
Q 16.703125 13.921875 20.71875 10.15625 
Q 24.75 6.390625 31.78125 6.390625 
Q 38.8125 6.390625 42.859375 10.171875 
Q 46.921875 13.96875 46.921875 20.515625 
Q 46.921875 27.09375 42.890625 30.859375 
Q 38.875 34.625 31.78125 34.625 
z
M 21.921875 38.8125 
Q 15.578125 40.375 12.03125 44.71875 
Q 8.5 49.078125 8.5 55.328125 
Q 8.5 64.0625 14.71875 69.140625 
Q 20.953125 74.21875 31.78125 74.21875 
Q 42.671875 74.21875 48.875 69.140625 
Q 55.078125 64.0625 55.078125 55.328125 
Q 55.078125 49.078125 51.53125 44.71875 
Q 48 40.375 41.703125 38.8125 
Q 48.828125 37.15625 52.796875 32.3125 
Q 56.78125 27.484375 56.78125 20.515625 
Q 56.78125 9.90625 50.3125 4.234375 
Q 43.84375 -1.421875 31.78125 -1.421875 
Q 19.734375 -1.421875 13.25 4.234375 
Q 6.78125 9.90625 6.78125 20.515625 
Q 6.78125 27.484375 10.78125 32.3125 
Q 14.796875 37.15625 21.921875 38.8125 
z
M 18.3125 54.390625 
Q 18.3125 48.734375 21.84375 45.5625 
Q 25.390625 42.390625 31.78125 42.390625 
Q 38.140625 42.390625 41.71875 45.5625 
Q 45.3125 48.734375 45.3125 54.390625 
Q 45.3125 60.0625 41.71875 63.234375 
Q 38.140625 66.40625 31.78125 66.40625 
Q 25.390625 66.40625 21.84375 63.234375 
Q 18.3125 60.0625 18.3125 54.390625 
z
" id="DejaVuSans-38"/>
      </defs>
      <g transform="translate(336.9335 322.182437)scale(0.1 -0.1)">
       <use xlink:href="#DejaVuSans-38"/>
       <use x="63.623047" xlink:href="#DejaVuSans-30"/>
      </g>
     </g>
    </g>
    <g id="xtick_6">
     <g id="line2d_11">
      <path clip-path="url(#p05683ec3bd)" d="M 414.72 307.584 
L 414.72 41.472 
" style="fill:none;stroke:#b0b0b0;stroke-linecap:square;stroke-width:0.8;"/>
     </g>
     <g id="line2d_12">
      <g>
       <use style="stroke:#000000;stroke-width:0.8;" x="414.72" xlink:href="#m384a49cddb" y="307.584"/>
      </g>
     </g>
     <g id="text_6">
      <!-- 100 -->
      <defs>
       <path d="M 12.40625 8.296875 
L 28.515625 8.296875 
L 28.515625 63.921875 
L 10.984375 60.40625 
L 10.984375 69.390625 
L 28.421875 72.90625 
L 38.28125 72.90625 
L 38.28125 8.296875 
L 54.390625 8.296875 
L 54.390625 0 
L 12.40625 0 
z
" id="DejaVuSans-31"/>
      </defs>
      <g transform="translate(405.17625 322.182437)scale(0.1 -0.1)">
       <use xlink:href="#DejaVuSans-31"/>
       <use x="63.623047" xlink:href="#DejaVuSans-30"/>
       <use x="127.246094" xlink:href="#DejaVuSans-30"/>
      </g>
     </g>
    </g>
    <g id="text_7">
     <!-- epochs -->
     <defs>
      <path d="M 56.203125 29.59375 
L 56.203125 25.203125 
L 14.890625 25.203125 
Q 15.484375 15.921875 20.484375 11.0625 
Q 25.484375 6.203125 34.421875 6.203125 
Q 39.59375 6.203125 44.453125 7.46875 
Q 49.3125 8.734375 54.109375 11.28125 
L 54.109375 2.78125 
Q 49.265625 0.734375 44.1875 -0.34375 
Q 39.109375 -1.421875 33.890625 -1.421875 
Q 20.796875 -1.421875 13.15625 6.1875 
Q 5.515625 13.8125 5.515625 26.8125 
Q 5.515625 40.234375 12.765625 48.109375 
Q 20.015625 56 32.328125 56 
Q 43.359375 56 49.78125 48.890625 
Q 56.203125 41.796875 56.203125 29.59375 
z
M 47.21875 32.234375 
Q 47.125 39.59375 43.09375 43.984375 
Q 39.0625 48.390625 32.421875 48.390625 
Q 24.90625 48.390625 20.390625 44.140625 
Q 15.875 39.890625 15.1875 32.171875 
z
" id="DejaVuSans-65"/>
      <path d="M 18.109375 8.203125 
L 18.109375 -20.796875 
L 9.078125 -20.796875 
L 9.078125 54.6875 
L 18.109375 54.6875 
L 18.109375 46.390625 
Q 20.953125 51.265625 25.265625 53.625 
Q 29.59375 56 35.59375 56 
Q 45.5625 56 51.78125 48.09375 
Q 58.015625 40.1875 58.015625 27.296875 
Q 58.015625 14.40625 51.78125 6.484375 
Q 45.5625 -1.421875 35.59375 -1.421875 
Q 29.59375 -1.421875 25.265625 0.953125 
Q 20.953125 3.328125 18.109375 8.203125 
z
M 48.6875 27.296875 
Q 48.6875 37.203125 44.609375 42.84375 
Q 40.53125 48.484375 33.40625 48.484375 
Q 26.265625 48.484375 22.1875 42.84375 
Q 18.109375 37.203125 18.109375 27.296875 
Q 18.109375 17.390625 22.1875 11.75 
Q 26.265625 6.109375 33.40625 6.109375 
Q 40.53125 6.109375 44.609375 11.75 
Q 48.6875 17.390625 48.6875 27.296875 
z
" id="DejaVuSans-70"/>
      <path d="M 30.609375 48.390625 
Q 23.390625 48.390625 19.1875 42.75 
Q 14.984375 37.109375 14.984375 27.296875 
Q 14.984375 17.484375 19.15625 11.84375 
Q 23.34375 6.203125 30.609375 6.203125 
Q 37.796875 6.203125 41.984375 11.859375 
Q 46.1875 17.53125 46.1875 27.296875 
Q 46.1875 37.015625 41.984375 42.703125 
Q 37.796875 48.390625 30.609375 48.390625 
z
M 30.609375 56 
Q 42.328125 56 49.015625 48.375 
Q 55.71875 40.765625 55.71875 27.296875 
Q 55.71875 13.875 49.015625 6.21875 
Q 42.328125 -1.421875 30.609375 -1.421875 
Q 18.84375 -1.421875 12.171875 6.21875 
Q 5.515625 13.875 5.515625 27.296875 
Q 5.515625 40.765625 12.171875 48.375 
Q 18.84375 56 30.609375 56 
z
" id="DejaVuSans-6f"/>
      <path d="M 48.78125 52.59375 
L 48.78125 44.1875 
Q 44.96875 46.296875 41.140625 47.34375 
Q 37.3125 48.390625 33.40625 48.390625 
Q 24.65625 48.390625 19.8125 42.84375 
Q 14.984375 37.3125 14.984375 27.296875 
Q 14.984375 17.28125 19.8125 11.734375 
Q 24.65625 6.203125 33.40625 6.203125 
Q 37.3125 6.203125 41.140625 7.25 
Q 44.96875 8.296875 48.78125 10.40625 
L 48.78125 2.09375 
Q 45.015625 0.34375 40.984375 -0.53125 
Q 36.96875 -1.421875 32.421875 -1.421875 
Q 20.0625 -1.421875 12.78125 6.34375 
Q 5.515625 14.109375 5.515625 27.296875 
Q 5.515625 40.671875 12.859375 48.328125 
Q 20.21875 56 33.015625 56 
Q 37.15625 56 41.109375 55.140625 
Q 45.0625 54.296875 48.78125 52.59375 
z
" id="DejaVuSans-63"/>
      <path d="M 54.890625 33.015625 
L 54.890625 0 
L 45.90625 0 
L 45.90625 32.71875 
Q 45.90625 40.484375 42.875 44.328125 
Q 39.84375 48.1875 33.796875 48.1875 
Q 26.515625 48.1875 22.3125 43.546875 
Q 18.109375 38.921875 18.109375 30.90625 
L 18.109375 0 
L 9.078125 0 
L 9.078125 75.984375 
L 18.109375 75.984375 
L 18.109375 46.1875 
Q 21.34375 51.125 25.703125 53.5625 
Q 30.078125 56 35.796875 56 
Q 45.21875 56 50.046875 50.171875 
Q 54.890625 44.34375 54.890625 33.015625 
z
" id="DejaVuSans-68"/>
      <path d="M 44.28125 53.078125 
L 44.28125 44.578125 
Q 40.484375 46.53125 36.375 47.5 
Q 32.28125 48.484375 27.875 48.484375 
Q 21.1875 48.484375 17.84375 46.4375 
Q 14.5 44.390625 14.5 40.28125 
Q 14.5 37.15625 16.890625 35.375 
Q 19.28125 33.59375 26.515625 31.984375 
L 29.59375 31.296875 
Q 39.15625 29.25 43.1875 25.515625 
Q 47.21875 21.78125 47.21875 15.09375 
Q 47.21875 7.46875 41.1875 3.015625 
Q 35.15625 -1.421875 24.609375 -1.421875 
Q 20.21875 -1.421875 15.453125 -0.5625 
Q 10.6875 0.296875 5.421875 2 
L 5.421875 11.28125 
Q 10.40625 8.6875 15.234375 7.390625 
Q 20.0625 6.109375 24.8125 6.109375 
Q 31.15625 6.109375 34.5625 8.28125 
Q 37.984375 10.453125 37.984375 14.40625 
Q 37.984375 18.0625 35.515625 20.015625 
Q 33.0625 21.96875 24.703125 23.78125 
L 21.578125 24.515625 
Q 13.234375 26.265625 9.515625 29.90625 
Q 5.8125 33.546875 5.8125 39.890625 
Q 5.8125 47.609375 11.28125 51.796875 
Q 16.75 56 26.8125 56 
Q 31.78125 56 36.171875 55.265625 
Q 40.578125 54.546875 44.28125 53.078125 
z
" id="DejaVuSans-73"/>
     </defs>
     <g transform="translate(218.327188 335.860562)scale(0.1 -0.1)">
      <use xlink:href="#DejaVuSans-65"/>
      <use x="61.523438" xlink:href="#DejaVuSans-70"/>
      <use x="125" xlink:href="#DejaVuSans-6f"/>
      <use x="186.181641" xlink:href="#DejaVuSans-63"/>
      <use x="241.162109" xlink:href="#DejaVuSans-68"/>
      <use x="304.541016" xlink:href="#DejaVuSans-73"/>
     </g>
    </g>
   </g>
   <g id="matplotlib.axis_2">
    <g id="ytick_1">
     <g id="line2d_13">
      <path clip-path="url(#p05683ec3bd)" d="M 57.6 307.584 
L 414.72 307.584 
" style="fill:none;stroke:#b0b0b0;stroke-linecap:square;stroke-width:0.8;"/>
     </g>
     <g id="line2d_14">
      <defs>
       <path d="M 0 0 
L -3.5 0 
" id="me2cde74fbb" style="stroke:#000000;stroke-width:0.8;"/>
      </defs>
      <g>
       <use style="stroke:#000000;stroke-width:0.8;" x="57.6" xlink:href="#me2cde74fbb" y="307.584"/>
      </g>
     </g>
     <g id="text_8">
      <!-- 0.0 -->
      <defs>
       <path d="M 10.6875 12.40625 
L 21 12.40625 
L 21 0 
L 10.6875 0 
z
" id="DejaVuSans-2e"/>
      </defs>
      <g transform="translate(34.696875 311.383219)scale(0.1 -0.1)">
       <use xlink:href="#DejaVuSans-30"/>
       <use x="63.623047" xlink:href="#DejaVuSans-2e"/>
       <use x="95.410156" xlink:href="#DejaVuSans-30"/>
      </g>
     </g>
    </g>
    <g id="ytick_2">
     <g id="line2d_15">
      <path clip-path="url(#p05683ec3bd)" d="M 57.6 254.3616 
L 414.72 254.3616 
" style="fill:none;stroke:#b0b0b0;stroke-linecap:square;stroke-width:0.8;"/>
     </g>
     <g id="line2d_16">
      <g>
       <use style="stroke:#000000;stroke-width:0.8;" x="57.6" xlink:href="#me2cde74fbb" y="254.3616"/>
      </g>
     </g>
     <g id="text_9">
      <!-- 0.2 -->
      <g transform="translate(34.696875 258.160819)scale(0.1 -0.1)">
       <use xlink:href="#DejaVuSans-30"/>
       <use x="63.623047" xlink:href="#DejaVuSans-2e"/>
       <use x="95.410156" xlink:href="#DejaVuSans-32"/>
      </g>
     </g>
    </g>
    <g id="ytick_3">
     <g id="line2d_17">
      <path clip-path="url(#p05683ec3bd)" d="M 57.6 201.1392 
L 414.72 201.1392 
" style="fill:none;stroke:#b0b0b0;stroke-linecap:square;stroke-width:0.8;"/>
     </g>
     <g id="line2d_18">
      <g>
       <use style="stroke:#000000;stroke-width:0.8;" x="57.6" xlink:href="#me2cde74fbb" y="201.1392"/>
      </g>
     </g>
     <g id="text_10">
      <!-- 0.4 -->
      <g transform="translate(34.696875 204.938419)scale(0.1 -0.1)">
       <use xlink:href="#DejaVuSans-30"/>
       <use x="63.623047" xlink:href="#DejaVuSans-2e"/>
       <use x="95.410156" xlink:href="#DejaVuSans-34"/>
      </g>
     </g>
    </g>
    <g id="ytick_4">
     <g id="line2d_19">
      <path clip-path="url(#p05683ec3bd)" d="M 57.6 147.9168 
L 414.72 147.9168 
" style="fill:none;stroke:#b0b0b0;stroke-linecap:square;stroke-width:0.8;"/>
     </g>
     <g id="line2d_20">
      <g>
       <use style="stroke:#000000;stroke-width:0.8;" x="57.6" xlink:href="#me2cde74fbb" y="147.9168"/>
      </g>
     </g>
     <g id="text_11">
      <!-- 0.6 -->
      <g transform="translate(34.696875 151.716019)scale(0.1 -0.1)">
       <use xlink:href="#DejaVuSans-30"/>
       <use x="63.623047" xlink:href="#DejaVuSans-2e"/>
       <use x="95.410156" xlink:href="#DejaVuSans-36"/>
      </g>
     </g>
    </g>
    <g id="ytick_5">
     <g id="line2d_21">
      <path clip-path="url(#p05683ec3bd)" d="M 57.6 94.6944 
L 414.72 94.6944 
" style="fill:none;stroke:#b0b0b0;stroke-linecap:square;stroke-width:0.8;"/>
     </g>
     <g id="line2d_22">
      <g>
       <use style="stroke:#000000;stroke-width:0.8;" x="57.6" xlink:href="#me2cde74fbb" y="94.6944"/>
      </g>
     </g>
     <g id="text_12">
      <!-- 0.8 -->
      <g transform="translate(34.696875 98.493619)scale(0.1 -0.1)">
       <use xlink:href="#DejaVuSans-30"/>
       <use x="63.623047" xlink:href="#DejaVuSans-2e"/>
       <use x="95.410156" xlink:href="#DejaVuSans-38"/>
      </g>
     </g>
    </g>
    <g id="ytick_6">
     <g id="line2d_23">
      <path clip-path="url(#p05683ec3bd)" d="M 57.6 41.472 
L 414.72 41.472 
" style="fill:none;stroke:#b0b0b0;stroke-linecap:square;stroke-width:0.8;"/>
     </g>
     <g id="line2d_24">
      <g>
       <use style="stroke:#000000;stroke-width:0.8;" x="57.6" xlink:href="#me2cde74fbb" y="41.472"/>
      </g>
     </g>
     <g id="text_13">
      <!-- 1.0 -->
      <g transform="translate(34.696875 45.271219)scale(0.1 -0.1)">
       <use xlink:href="#DejaVuSans-31"/>
       <use x="63.623047" xlink:href="#DejaVuSans-2e"/>
       <use x="95.410156" xlink:href="#DejaVuSans-30"/>
      </g>
     </g>
    </g>
    <g id="text_14">
     <!-- test acc -->
     <defs>
      <path d="M 18.3125 70.21875 
L 18.3125 54.6875 
L 36.8125 54.6875 
L 36.8125 47.703125 
L 18.3125 47.703125 
L 18.3125 18.015625 
Q 18.3125 11.328125 20.140625 9.421875 
Q 21.96875 7.515625 27.59375 7.515625 
L 36.8125 7.515625 
L 36.8125 0 
L 27.59375 0 
Q 17.1875 0 13.234375 3.875 
Q 9.28125 7.765625 9.28125 18.015625 
L 9.28125 47.703125 
L 2.6875 47.703125 
L 2.6875 54.6875 
L 9.28125 54.6875 
L 9.28125 70.21875 
z
" id="DejaVuSans-74"/>
      <path id="DejaVuSans-20"/>
      <path d="M 34.28125 27.484375 
Q 23.390625 27.484375 19.1875 25 
Q 14.984375 22.515625 14.984375 16.5 
Q 14.984375 11.71875 18.140625 8.90625 
Q 21.296875 6.109375 26.703125 6.109375 
Q 34.1875 6.109375 38.703125 11.40625 
Q 43.21875 16.703125 43.21875 25.484375 
L 43.21875 27.484375 
z
M 52.203125 31.203125 
L 52.203125 0 
L 43.21875 0 
L 43.21875 8.296875 
Q 40.140625 3.328125 35.546875 0.953125 
Q 30.953125 -1.421875 24.3125 -1.421875 
Q 15.921875 -1.421875 10.953125 3.296875 
Q 6 8.015625 6 15.921875 
Q 6 25.140625 12.171875 29.828125 
Q 18.359375 34.515625 30.609375 34.515625 
L 43.21875 34.515625 
L 43.21875 35.40625 
Q 43.21875 41.609375 39.140625 45 
Q 35.0625 48.390625 27.6875 48.390625 
Q 23 48.390625 18.546875 47.265625 
Q 14.109375 46.140625 10.015625 43.890625 
L 10.015625 52.203125 
Q 14.9375 54.109375 19.578125 55.046875 
Q 24.21875 56 28.609375 56 
Q 40.484375 56 46.34375 49.84375 
Q 52.203125 43.703125 52.203125 31.203125 
z
" id="DejaVuSans-61"/>
     </defs>
     <g transform="translate(28.617187 194.281125)rotate(-90)scale(0.1 -0.1)">
      <use xlink:href="#DejaVuSans-74"/>
      <use x="39.208984" xlink:href="#DejaVuSans-65"/>
      <use x="100.732422" xlink:href="#DejaVuSans-73"/>
      <use x="152.832031" xlink:href="#DejaVuSans-74"/>
      <use x="192.041016" xlink:href="#DejaVuSans-20"/>
      <use x="223.828125" xlink:href="#DejaVuSans-61"/>
      <use x="285.107422" xlink:href="#DejaVuSans-63"/>
      <use x="340.087891" xlink:href="#DejaVuSans-63"/>
     </g>
    </g>
   </g>
   <g id="line2d_25">
    <path clip-path="url(#p05683ec3bd)" d="M 61.1712 281.057956 
L 64.7424 281.691302 
L 68.3136 280.40332 
L 71.8848 281.0686 
L 75.456 280.61621 
L 79.0272 279.812552 
L 82.5984 280.743944 
L 86.1696 281.962737 
L 89.7408 280.52041 
L 93.312 280.962156 
L 96.8832 280.376709 
L 100.4544 282.276749 
L 104.0256 280.488476 
L 107.5968 280.323487 
L 111.168 281.707269 
L 114.7392 281.254879 
L 118.3104 281.073923 
L 121.8816 281.441157 
L 125.4528 280.16382 
L 129.024 280.861033 
L 132.5952 281.222945 
L 136.1664 280.818455 
L 139.7376 274.873513 
L 143.3088 275.315259 
L 146.88 275.288648 
L 150.4512 274.10711 
L 154.0224 266.070528 
L 157.5936 268.252646 
L 161.1648 269.130816 
L 164.736 275.50686 
L 168.3072 269.881252 
L 171.8784 269.689651 
L 175.4496 268.013146 
L 179.0208 265.048658 
L 182.592 267.800256 
L 186.1632 276.784197 
L 189.7344 267.438344 
L 193.3056 269.593851 
L 196.8768 269.961085 
L 200.448 260.13623 
L 204.0192 258.124424 
L 207.5904 250.561521 
L 211.1616 239.565773 
L 214.7328 239.576417 
L 218.304 234.706568 
L 221.8752 232.151892 
L 225.4464 235.121702 
L 229.0176 225.935516 
L 232.5888 222.976351 
L 236.16 221.044378 
L 239.7312 210.559565 
L 243.3024 207.53121 
L 246.8736 199.420116 
L 250.4448 194.475756 
L 254.016 194.262866 
L 257.5872 187.652644 
L 261.1584 203.49163 
L 264.7296 189.47285 
L 268.3008 186.141128 
L 271.872 177.359432 
L 275.4432 181.728991 
L 279.0144 173.303885 
L 282.5856 164.490255 
L 286.1568 164.319944 
L 289.728 163.447096 
L 293.2992 170.616154 
L 296.8704 158.859325 
L 300.4416 158.784814 
L 304.0128 158.444191 
L 307.584 162.430548 
L 311.1552 153.739331 
L 314.7264 158.486769 
L 318.2976 153.792553 
L 321.8688 153.909642 
L 325.44 153.212429 
L 329.0112 152.089436 
L 332.5824 154.984735 
L 336.1536 152.26507 
L 339.7248 147.836966 
L 343.296 143.946409 
L 346.8672 142.59456 
L 350.4384 139.858929 
L 354.0096 140.449697 
L 357.5808 145.048113 
L 361.152 138.794481 
L 364.7232 136.175939 
L 368.2944 139.167037 
L 371.8656 135.936438 
L 375.4368 134.313155 
L 379.008 139.002048 
L 382.5792 139.821673 
L 386.1504 133.834153 
L 389.7216 132.860183 
L 393.2928 124.5362 
L 396.864 119.30976 
L 400.4352 118.830758 
L 404.0064 116.627351 
L 407.5776 113.311596 
L 411.1488 112.332303 
L 414.72 138.55498 
L 418.2912 116.733796 
L 421.8624 106.616218 
L 425.4336 106.733307 
L 429.0048 106.179794 
L 432.576 105.205824 
L 436.1472 105.168568 
L 439.7184 105.610314 
L 443.2896 105.312269 
L 446.8608 105.950938 
L 450.432 105.040835 
L 454.0032 113.89172 
L 457.5744 104.535222 
L 461.1456 111.549934 
L 461.8 110.227472 
L 461.8 110.227472 
" style="fill:none;stroke:#1f77b4;stroke-linecap:square;stroke-width:1.5;"/>
   </g>
   <g id="line2d_26">
    <path clip-path="url(#p05683ec3bd)" d="M 61.1712 175.33698 
L 64.7424 142.099592 
L 68.3136 125.105679 
L 71.8848 113.673508 
L 75.456 106.440584 
L 79.0272 101.043832 
L 82.5984 96.626373 
L 86.1696 93.683174 
L 89.7408 90.543053 
L 96.8832 86.226716 
L 100.4544 84.449088 
L 104.0256 82.485181 
L 111.168 79.898573 
L 118.3104 78.179489 
L 121.8816 77.08843 
L 132.5952 74.198454 
L 136.1664 73.92702 
L 139.7376 73.102072 
L 143.3088 72.958372 
L 150.4512 71.494756 
L 171.8784 69.36586 
L 182.592 68.620746 
L 196.8768 67.77451 
L 200.448 67.348731 
L 204.0192 67.306153 
L 211.1616 66.80054 
L 214.7328 66.731351 
L 218.304 66.188483 
L 221.8752 66.08736 
L 225.4464 66.204449 
L 232.5888 65.571103 
L 236.16 65.320957 
L 250.4448 64.895178 
L 268.3008 64.134098 
L 271.872 64.432143 
L 275.4432 64.123453 
L 282.5856 63.804119 
L 286.1568 63.580585 
L 293.2992 63.745574 
L 300.4416 63.484785 
L 311.1552 63.506074 
L 314.7264 63.250606 
L 321.8688 63.085617 
L 325.44 63.138839 
L 329.0112 62.947238 
L 336.1536 62.771604 
L 339.7248 62.867405 
L 343.296 62.729027 
L 346.8672 62.744993 
L 350.4384 62.40437 
L 361.152 62.40437 
L 364.7232 62.069069 
L 368.2944 62.351148 
L 371.8656 62.30857 
L 379.008 61.850857 
L 382.5792 61.920046 
L 386.1504 61.685868 
L 389.7216 62.085036 
L 393.2928 61.69119 
L 404.0064 61.472978 
L 407.5776 61.669901 
L 411.1488 61.419756 
L 421.8624 61.622001 
L 425.4336 61.494267 
L 429.0048 61.158966 
L 432.576 61.419756 
L 436.1472 61.212188 
L 443.2896 61.2867 
L 446.8608 61.185577 
L 450.432 60.972687 
L 461.8 61.019612 
L 461.8 61.019612 
" style="fill:none;stroke:#ff7f0e;stroke-linecap:square;stroke-width:1.5;"/>
   </g>
   <g id="line2d_27">
    <path clip-path="url(#p05683ec3bd)" d="M 61.1712 247.985556 
L 64.7424 231.970936 
L 68.3136 219.681884 
L 71.8848 210.66601 
L 75.456 202.028014 
L 79.0272 195.15168 
L 82.5984 189.56865 
L 89.7408 176.837852 
L 96.8832 166.070961 
L 100.4544 161.238367 
L 104.0256 157.709722 
L 111.168 151.062244 
L 114.7392 148.385157 
L 121.8816 143.525952 
L 125.4528 141.099011 
L 129.024 138.916892 
L 136.1664 135.22858 
L 139.7376 133.488207 
L 143.3088 131.875569 
L 146.88 130.087296 
L 157.5936 125.781604 
L 161.1648 124.594744 
L 164.736 123.115162 
L 171.8784 120.560486 
L 175.4496 119.283149 
L 179.0208 118.197412 
L 182.592 117.420365 
L 186.1632 116.105772 
L 189.7344 115.046646 
L 193.3056 114.317499 
L 196.8768 113.162573 
L 207.5904 110.852721 
L 214.7328 109.309271 
L 218.304 108.830269 
L 243.3024 103.901875 
L 246.8736 103.417551 
L 254.016 102.134892 
L 268.3008 100.618053 
L 271.872 100.293396 
L 275.4432 99.814395 
L 286.1568 98.718013 
L 289.728 98.217723 
L 293.2992 97.893066 
L 296.8704 97.414065 
L 300.4416 97.147953 
L 307.584 96.370906 
L 318.2976 95.386291 
L 321.8688 95.125501 
L 329.0112 94.210076 
L 332.5824 94.007831 
L 336.1536 93.67253 
L 343.296 93.241428 
L 350.4384 92.490993 
L 354.0096 92.113114 
L 357.5808 92.043924 
L 364.7232 91.336067 
L 375.4368 90.574986 
L 379.008 90.39403 
L 382.5792 90.042762 
L 386.1504 89.936317 
L 393.2928 89.297649 
L 396.864 89.127337 
L 404.0064 88.499313 
L 407.5776 88.435446 
L 425.4336 87.413576 
L 429.0048 87.051663 
L 432.576 87.056986 
L 436.1472 86.844096 
L 439.7184 86.343805 
L 443.2896 86.349128 
L 446.8608 86.019149 
L 450.432 85.90206 
L 454.0032 85.502892 
L 461.8 85.109241 
L 461.8 85.109241 
" style="fill:none;stroke:#2ca02c;stroke-linecap:square;stroke-width:1.5;"/>
   </g>
   <g id="line2d_28">
    <path clip-path="url(#p05683ec3bd)" d="M 61.1712 271.307612 
L 64.7424 267.172232 
L 68.3136 263.909699 
L 71.8848 260.141553 
L 75.456 257.001431 
L 79.0272 254.4095 
L 82.5984 252.120937 
L 86.1696 250.524265 
L 93.312 247.197865 
L 107.5968 241.157123 
L 114.7392 237.239954 
L 118.3104 235.627315 
L 121.8816 234.291433 
L 125.4528 232.737339 
L 132.5952 229.980419 
L 136.1664 228.41568 
L 143.3088 225.908905 
L 150.4512 223.370196 
L 154.0224 222.454771 
L 157.5936 221.129533 
L 164.736 219.527539 
L 168.3072 218.500347 
L 175.4496 216.818519 
L 179.0208 215.77536 
L 189.7344 213.029084 
L 196.8768 211.363223 
L 211.1616 207.573788 
L 218.304 206.174039 
L 229.0176 203.779031 
L 232.5888 202.597494 
L 257.5872 197.615877 
L 261.1584 197.115587 
L 264.7296 196.311928 
L 268.3008 195.832927 
L 275.4432 194.560911 
L 279.0144 194.17771 
L 286.1568 193.001495 
L 293.2992 191.692224 
L 296.8704 191.245156 
L 307.584 189.382372 
L 314.7264 188.312602 
L 321.8688 186.827697 
L 325.44 186.178383 
L 329.0112 185.720671 
L 332.5824 185.082002 
L 336.1536 184.587034 
L 339.7248 183.682253 
L 354.0096 180.882755 
L 361.152 179.930074 
L 364.7232 179.153027 
L 382.5792 176.257728 
L 407.5776 172.234115 
L 411.1488 171.877524 
L 418.2912 170.509709 
L 425.4336 169.620895 
L 429.0048 169.099315 
L 439.7184 167.092831 
L 443.2896 166.576573 
L 450.432 165.799526 
L 457.5744 164.341233 
L 461.8 163.692589 
L 461.8 163.692589 
" style="fill:none;stroke:#d62728;stroke-linecap:square;stroke-width:1.5;"/>
   </g>
   <g id="line2d_29">
    <path clip-path="url(#p05683ec3bd)" d="M 61.1712 282.143693 
L 64.7424 282.143693 
L 68.3136 281.265523 
L 71.8848 279.477251 
L 75.456 275.916672 
L 79.0272 273.65472 
L 82.5984 272.936218 
L 86.1696 271.414057 
L 89.7408 271.105367 
L 93.312 271.20649 
L 96.8832 270.940378 
L 100.4544 270.008986 
L 104.0256 269.396928 
L 107.5968 268.412314 
L 125.4528 267.507533 
L 129.024 267.055142 
L 150.4512 265.485082 
L 161.1648 264.234355 
L 164.736 263.861798 
L 168.3072 263.861798 
L 171.8784 263.67552 
L 175.4496 263.249741 
L 182.592 262.217226 
L 186.1632 261.780803 
L 189.7344 261.179389 
L 200.448 260.056397 
L 204.0192 259.912696 
L 218.304 258.550203 
L 221.8752 258.438436 
L 225.4464 258.033946 
L 229.0176 257.767834 
L 232.5888 257.304799 
L 236.16 257.075942 
L 239.7312 256.729997 
L 243.3024 256.724675 
L 250.4448 256.016817 
L 257.5872 255.292992 
L 261.1584 255.186547 
L 264.7296 254.941724 
L 268.3008 254.57449 
L 275.4432 254.14871 
L 279.0144 253.79212 
L 282.5856 253.637775 
L 286.1568 253.350374 
L 289.728 252.892662 
L 293.2992 252.844762 
L 296.8704 252.552038 
L 300.4416 252.498816 
L 307.584 252.030459 
L 311.1552 252.062392 
L 314.7264 251.950625 
L 318.2976 251.727091 
L 321.8688 251.716447 
L 343.296 250.534909 
L 350.4384 250.375242 
L 354.0096 250.135741 
L 357.5808 250.023974 
L 361.152 249.693996 
L 364.7232 249.544973 
L 368.2944 249.199027 
L 371.8656 249.012749 
L 375.4368 249.012749 
L 379.008 248.853082 
L 382.5792 248.544392 
L 386.1504 248.528425 
L 407.5776 247.362854 
L 411.1488 247.40011 
L 429.0048 246.569841 
L 432.576 246.548552 
L 439.7184 246.186639 
L 461.8 245.341657 
L 461.8 245.341657 
" style="fill:none;stroke:#9467bd;stroke-linecap:square;stroke-width:1.5;"/>
   </g>
   <g id="line2d_30">
    <path clip-path="url(#p05683ec3bd)" d="M 61.1712 67.32212 
L 64.7424 63.809441 
L 68.3136 63.894597 
L 71.8848 62.622582 
L 75.456 62.180836 
L 79.0272 62.718382 
L 82.5984 64.394888 
L 86.1696 61.728445 
L 89.7408 61.542167 
L 93.312 63.740252 
L 96.8832 61.116388 
L 100.4544 64.070231 
L 104.0256 60.898176 
L 107.5968 61.153644 
L 111.168 61.265411 
L 114.7392 62.372436 
L 118.3104 61.792312 
L 121.8816 62.164869 
L 125.4528 63.963786 
L 129.024 61.079132 
L 132.5952 61.600712 
L 136.1664 62.005202 
L 139.7376 62.415014 
L 143.3088 62.372436 
L 146.88 62.654515 
L 150.4512 59.940173 
L 154.0224 61.132355 
L 157.5936 61.457011 
L 161.1648 62.462915 
L 164.736 60.413852 
L 168.3072 62.111647 
L 171.8784 61.355889 
L 175.4496 63.239962 
L 179.0208 61.212188 
L 182.592 64.144742 
L 186.1632 62.542748 
L 189.7344 61.733768 
L 193.3056 63.52204 
L 196.8768 62.643871 
L 200.448 61.105743 
L 204.0192 62.292603 
L 207.5904 61.64329 
L 211.1616 63.458173 
L 214.7328 64.128776 
L 218.304 61.622001 
L 221.8752 60.169029 
L 225.4464 61.568778 
L 229.0176 63.94782 
L 232.5888 64.655677 
L 236.16 66.172516 
L 239.7312 60.600131 
L 243.3024 61.403789 
L 246.8736 60.238218 
L 250.4448 61.3825 
L 254.016 65.693514 
L 257.5872 60.871565 
L 261.1584 61.824246 
L 264.7296 62.909983 
L 268.3008 62.750316 
L 271.872 63.809441 
L 275.4432 63.538007 
L 279.0144 62.739671 
L 282.5856 62.489526 
L 286.1568 61.4783 
L 289.728 62.792893 
L 293.2992 61.371855 
L 296.8704 62.154225 
L 300.4416 61.606034 
L 304.0128 60.126451 
L 307.584 61.850857 
L 311.1552 60.626742 
L 314.7264 63.02175 
L 318.2976 60.706575 
L 321.8688 61.036554 
L 325.44 63.319795 
L 329.0112 63.28254 
L 332.5824 61.536845 
L 336.1536 61.222833 
L 339.7248 61.707156 
L 343.296 62.218092 
L 346.8672 64.485366 
L 350.4384 63.02175 
L 354.0096 59.604872 
L 357.5808 61.632645 
L 361.152 60.121129 
L 364.7232 59.429238 
L 368.2944 61.446367 
L 371.8656 63.080294 
L 375.4368 60.477719 
L 379.008 59.870984 
L 382.5792 61.808279 
L 386.1504 61.16961 
L 389.7216 61.4304 
L 393.2928 61.888113 
L 396.864 61.068488 
L 400.4352 59.168448 
L 404.0064 60.264829 
L 407.5776 60.296763 
L 411.1488 61.717801 
L 414.72 60.030651 
" style="fill:none;stroke:#8c564b;stroke-dasharray:5.55,2.4;stroke-dashoffset:0;stroke-width:1.5;"/>
   </g>
   <g id="line2d_31">
    <path clip-path="url(#p05683ec3bd)" d="M 61.1712 71.154132 
L 64.7424 65.629647 
L 68.3136 62.840794 
L 71.8848 61.664579 
L 75.456 60.509652 
L 79.0272 59.945495 
L 82.5984 61.355889 
L 86.1696 58.992814 
L 89.7408 58.886369 
L 93.312 60.137096 
L 96.8832 58.753313 
L 100.4544 59.040714 
L 104.0256 58.242378 
L 107.5968 58.998136 
L 111.168 58.822502 
L 114.7392 58.710735 
L 118.3104 58.178511 
L 121.8816 56.991652 
L 125.4528 58.2477 
L 129.024 58.231734 
L 132.5952 58.183834 
L 136.1664 58.375434 
L 139.7376 58.114644 
L 143.3088 58.72138 
L 146.88 58.481879 
L 150.4512 58.221089 
L 154.0224 57.188575 
L 157.5936 57.385498 
L 161.1648 57.742088 
L 164.736 57.545165 
L 168.3072 57.491942 
L 171.8784 57.364209 
L 175.4496 58.55639 
L 179.0208 57.215186 
L 182.592 57.444042 
L 186.1632 58.540424 
L 189.7344 57.976266 
L 193.3056 58.838469 
L 196.8768 57.9603 
L 200.448 57.907077 
L 204.0192 57.89111 
L 207.5904 58.109322 
L 211.1616 57.316308 
L 214.7328 57.939011 
L 218.304 58.396723 
L 221.8752 58.614935 
L 225.4464 58.646868 
L 229.0176 58.034811 
L 232.5888 57.837888 
L 236.16 57.422753 
L 239.7312 57.593065 
L 243.3024 57.694188 
L 246.8736 58.061422 
L 250.4448 57.183252 
L 254.016 57.460009 
L 257.5872 57.816599 
L 261.1584 57.43872 
L 264.7296 57.593065 
L 268.3008 57.630321 
L 271.872 57.981588 
L 275.4432 58.162545 
L 279.0144 56.842629 
L 282.5856 57.502587 
L 286.1568 58.183834 
L 289.728 56.853274 
L 293.2992 57.667576 
L 296.8704 57.444042 
L 300.4416 58.013522 
L 304.0128 58.62558 
L 307.584 58.636224 
L 311.1552 57.800632 
L 314.7264 57.736765 
L 318.2976 57.326953 
L 321.8688 57.209864 
L 325.44 57.715476 
L 329.0112 57.491942 
L 332.5824 57.779343 
L 336.1536 57.475976 
L 339.7248 57.79531 
L 343.296 57.880466 
L 346.8672 58.141256 
L 350.4384 58.758636 
L 354.0096 57.193897 
L 357.5808 57.853855 
L 361.152 57.284375 
L 364.7232 57.204541 
L 368.2944 57.720799 
L 371.8656 57.044874 
L 375.4368 57.518554 
L 379.008 58.423334 
L 382.5792 58.992814 
L 386.1504 58.029489 
L 389.7216 57.529198 
L 393.2928 58.258345 
L 396.864 57.566454 
L 400.4352 58.726702 
L 404.0064 57.396142 
L 407.5776 58.231734 
L 411.1488 57.571776 
L 414.72 57.231153 
" style="fill:none;stroke:#e377c2;stroke-dasharray:5.55,2.4;stroke-dashoffset:0;stroke-width:1.5;"/>
   </g>
   <g id="line2d_32">
    <path clip-path="url(#p05683ec3bd)" d="M 61.1712 77.003274 
L 64.7424 70.084362 
L 68.3136 66.071393 
L 71.8848 64.118131 
L 75.456 63.02175 
L 79.0272 61.685868 
L 82.5984 61.78699 
L 86.1696 60.334019 
L 89.7408 60.222252 
L 93.312 60.126451 
L 96.8832 59.179092 
L 100.4544 59.594227 
L 104.0256 58.998136 
L 107.5968 58.428657 
L 111.168 59.014103 
L 114.7392 58.700091 
L 118.3104 58.428657 
L 121.8816 58.492524 
L 125.4528 58.306245 
L 129.024 58.050778 
L 132.5952 58.135933 
L 136.1664 58.444623 
L 139.7376 57.694188 
L 143.3088 58.268989 
L 146.88 58.050778 
L 150.4512 57.609032 
L 154.0224 58.013522 
L 157.5936 57.422753 
L 161.1648 58.604291 
L 164.736 57.901755 
L 168.3072 57.571776 
L 171.8784 57.683543 
L 175.4496 57.199219 
L 179.0208 57.726121 
L 182.592 57.279053 
L 186.1632 57.555809 
L 189.7344 57.587743 
L 193.3056 57.358886 
L 196.8768 57.406787 
L 200.448 57.470653 
L 204.0192 57.779343 
L 207.5904 57.29502 
L 211.1616 57.752732 
L 214.7328 57.571776 
L 218.304 57.848532 
L 221.8752 57.704832 
L 225.4464 57.326953 
L 229.0176 58.141256 
L 232.5888 56.741507 
L 236.16 57.279053 
L 239.7312 57.917722 
L 243.3024 57.167286 
L 246.8736 57.412109 
L 250.4448 57.002296 
L 254.016 57.236475 
L 257.5872 57.406787 
L 261.1584 57.374853 
L 264.7296 57.326953 
L 268.3008 57.704832 
L 271.872 57.406787 
L 275.4432 57.358886 
L 279.0144 57.140675 
L 282.5856 57.428076 
L 286.1568 57.603709 
L 289.728 57.252442 
L 293.2992 57.869821 
L 296.8704 57.39082 
L 300.4416 57.683543 
L 304.0128 57.369531 
L 307.584 57.321631 
L 311.1552 57.518554 
L 314.7264 58.194478 
L 318.2976 57.289697 
L 321.8688 57.252442 
L 325.44 57.401464 
L 329.0112 57.550487 
L 332.5824 57.22583 
L 336.1536 57.69951 
L 339.7248 57.193897 
L 343.296 57.098097 
L 346.8672 57.204541 
L 350.4384 57.135352 
L 354.0096 57.044874 
L 357.5808 57.161964 
L 361.152 57.103419 
L 364.7232 57.396142 
L 368.2944 57.385498 
L 371.8656 57.08213 
L 375.4368 57.369531 
L 379.008 57.545165 
L 382.5792 58.002877 
L 386.1504 57.587743 
L 389.7216 56.885207 
L 393.2928 57.513231 
L 396.864 57.779343 
L 400.4352 57.774021 
L 404.0064 57.518554 
L 407.5776 56.91714 
L 411.1488 57.29502 
L 414.72 57.252442 
" style="fill:none;stroke:#7f7f7f;stroke-dasharray:5.55,2.4;stroke-dashoffset:0;stroke-width:1.5;"/>
   </g>
   <g id="line2d_33">
    <path clip-path="url(#p05683ec3bd)" d="M 61.1712 86.162849 
L 64.7424 78.387057 
L 68.3136 73.682196 
L 71.8848 71.324444 
L 75.456 68.854925 
L 79.0272 67.497754 
L 82.5984 66.028815 
L 86.1696 65.171935 
L 89.7408 64.123453 
L 93.312 63.766863 
L 96.8832 63.16545 
L 100.4544 62.744993 
L 104.0256 61.824246 
L 107.5968 61.850857 
L 111.168 61.483622 
L 114.7392 61.403789 
L 118.3104 60.546908 
L 121.8816 60.770442 
L 125.4528 60.222252 
L 129.024 59.977428 
L 132.5952 59.397304 
L 136.1664 59.684705 
L 139.7376 59.567616 
L 143.3088 59.658094 
L 146.88 58.934269 
L 150.4512 59.280215 
L 154.0224 59.093937 
L 157.5936 58.716058 
L 161.1648 59.115226 
L 164.736 58.790569 
L 168.3072 58.636224 
L 171.8784 58.67348 
L 175.4496 58.455268 
L 179.0208 58.370112 
L 182.592 58.370112 
L 186.1632 58.407368 
L 189.7344 58.295601 
L 193.3056 58.710735 
L 196.8768 58.332856 
L 200.448 58.082711 
L 204.0192 58.439301 
L 207.5904 57.821921 
L 211.1616 57.928366 
L 214.7328 58.242378 
L 218.304 57.758054 
L 221.8752 57.742088 
L 225.4464 58.2477 
L 229.0176 58.183834 
L 232.5888 57.79531 
L 236.16 58.0082 
L 239.7312 57.965622 
L 243.3024 57.774021 
L 246.8736 57.763377 
L 250.4448 57.784666 
L 254.016 57.997555 
L 257.5872 58.061422 
L 261.1584 57.89111 
L 264.7296 57.646287 
L 268.3008 57.630321 
L 271.872 57.933688 
L 275.4432 57.688865 
L 279.0144 57.896433 
L 282.5856 57.9603 
L 286.1568 57.624998 
L 289.728 57.768699 
L 293.2992 58.024166 
L 296.8704 57.89111 
L 300.4416 58.0082 
L 304.0128 57.853855 
L 307.584 57.768699 
L 311.1552 57.609032 
L 314.7264 57.731443 
L 318.2976 57.859177 
L 321.8688 57.69951 
L 325.44 57.84321 
L 329.0112 57.837888 
L 332.5824 57.412109 
L 336.1536 57.763377 
L 339.7248 58.104 
L 343.296 57.768699 
L 346.8672 57.598387 
L 350.4384 57.742088 
L 354.0096 57.598387 
L 357.5808 57.69951 
L 361.152 57.454687 
L 364.7232 57.880466 
L 368.2944 57.74741 
L 371.8656 57.789988 
L 375.4368 58.077389 
L 379.008 57.715476 
L 382.5792 57.976266 
L 386.1504 57.454687 
L 389.7216 57.566454 
L 393.2928 57.444042 
L 396.864 57.65161 
L 400.4352 57.784666 
L 404.0064 57.662254 
L 407.5776 58.013522 
L 411.1488 57.683543 
L 414.72 57.662254 
" style="fill:none;stroke:#bcbd22;stroke-dasharray:5.55,2.4;stroke-dashoffset:0;stroke-width:1.5;"/>
   </g>
   <g id="patch_3">
    <path d="M 57.6 307.584 
L 57.6 41.472 
" style="fill:none;stroke:#000000;stroke-linecap:square;stroke-linejoin:miter;stroke-width:0.8;"/>
   </g>
   <g id="patch_4">
    <path d="M 414.72 307.584 
L 414.72 41.472 
" style="fill:none;stroke:#000000;stroke-linecap:square;stroke-linejoin:miter;stroke-width:0.8;"/>
   </g>
   <g id="patch_5">
    <path d="M 57.6 307.584 
L 414.72 307.584 
" style="fill:none;stroke:#000000;stroke-linecap:square;stroke-linejoin:miter;stroke-width:0.8;"/>
   </g>
   <g id="patch_6">
    <path d="M 57.6 41.472 
L 414.72 41.472 
" style="fill:none;stroke:#000000;stroke-linecap:square;stroke-linejoin:miter;stroke-width:0.8;"/>
   </g>
   <g id="legend_1">
    <g id="patch_7">
     <path d="M 299.895 181.575125 
L 407.72 181.575125 
Q 409.72 181.575125 409.72 179.575125 
L 409.72 48.472 
Q 409.72 46.472 407.72 46.472 
L 299.895 46.472 
Q 297.895 46.472 297.895 48.472 
L 297.895 179.575125 
Q 297.895 181.575125 299.895 181.575125 
z
" style="fill:#ffffff;opacity:0.8;stroke:#cccccc;stroke-linejoin:miter;"/>
    </g>
    <g id="line2d_34">
     <path d="M 301.895 54.570438 
L 321.895 54.570438 
" style="fill:none;stroke:#1f77b4;stroke-linecap:square;stroke-width:1.5;"/>
    </g>
    <g id="line2d_35"/>
    <g id="text_15">
     <!-- SGD, lr 10 -->
     <defs>
      <path d="M 53.515625 70.515625 
L 53.515625 60.890625 
Q 47.90625 63.578125 42.921875 64.890625 
Q 37.9375 66.21875 33.296875 66.21875 
Q 25.25 66.21875 20.875 63.09375 
Q 16.5 59.96875 16.5 54.203125 
Q 16.5 49.359375 19.40625 46.890625 
Q 22.3125 44.4375 30.421875 42.921875 
L 36.375 41.703125 
Q 47.40625 39.59375 52.65625 34.296875 
Q 57.90625 29 57.90625 20.125 
Q 57.90625 9.515625 50.796875 4.046875 
Q 43.703125 -1.421875 29.984375 -1.421875 
Q 24.8125 -1.421875 18.96875 -0.25 
Q 13.140625 0.921875 6.890625 3.21875 
L 6.890625 13.375 
Q 12.890625 10.015625 18.65625 8.296875 
Q 24.421875 6.59375 29.984375 6.59375 
Q 38.421875 6.59375 43.015625 9.90625 
Q 47.609375 13.234375 47.609375 19.390625 
Q 47.609375 24.75 44.3125 27.78125 
Q 41.015625 30.8125 33.5 32.328125 
L 27.484375 33.5 
Q 16.453125 35.6875 11.515625 40.375 
Q 6.59375 45.0625 6.59375 53.421875 
Q 6.59375 63.09375 13.40625 68.65625 
Q 20.21875 74.21875 32.171875 74.21875 
Q 37.3125 74.21875 42.625 73.28125 
Q 47.953125 72.359375 53.515625 70.515625 
z
" id="DejaVuSans-53"/>
      <path d="M 59.515625 10.40625 
L 59.515625 29.984375 
L 43.40625 29.984375 
L 43.40625 38.09375 
L 69.28125 38.09375 
L 69.28125 6.78125 
Q 63.578125 2.734375 56.6875 0.65625 
Q 49.8125 -1.421875 42 -1.421875 
Q 24.90625 -1.421875 15.25 8.5625 
Q 5.609375 18.5625 5.609375 36.375 
Q 5.609375 54.25 15.25 64.234375 
Q 24.90625 74.21875 42 74.21875 
Q 49.125 74.21875 55.546875 72.453125 
Q 61.96875 70.703125 67.390625 67.28125 
L 67.390625 56.78125 
Q 61.921875 61.421875 55.765625 63.765625 
Q 49.609375 66.109375 42.828125 66.109375 
Q 29.4375 66.109375 22.71875 58.640625 
Q 16.015625 51.171875 16.015625 36.375 
Q 16.015625 21.625 22.71875 14.15625 
Q 29.4375 6.6875 42.828125 6.6875 
Q 48.046875 6.6875 52.140625 7.59375 
Q 56.25 8.5 59.515625 10.40625 
z
" id="DejaVuSans-47"/>
      <path d="M 19.671875 64.796875 
L 19.671875 8.109375 
L 31.59375 8.109375 
Q 46.6875 8.109375 53.6875 14.9375 
Q 60.6875 21.78125 60.6875 36.53125 
Q 60.6875 51.171875 53.6875 57.984375 
Q 46.6875 64.796875 31.59375 64.796875 
z
M 9.8125 72.90625 
L 30.078125 72.90625 
Q 51.265625 72.90625 61.171875 64.09375 
Q 71.09375 55.28125 71.09375 36.53125 
Q 71.09375 17.671875 61.125 8.828125 
Q 51.171875 0 30.078125 0 
L 9.8125 0 
z
" id="DejaVuSans-44"/>
      <path d="M 11.71875 12.40625 
L 22.015625 12.40625 
L 22.015625 4 
L 14.015625 -11.625 
L 7.71875 -11.625 
L 11.71875 4 
z
" id="DejaVuSans-2c"/>
      <path d="M 9.421875 75.984375 
L 18.40625 75.984375 
L 18.40625 0 
L 9.421875 0 
z
" id="DejaVuSans-6c"/>
      <path d="M 41.109375 46.296875 
Q 39.59375 47.171875 37.8125 47.578125 
Q 36.03125 48 33.890625 48 
Q 26.265625 48 22.1875 43.046875 
Q 18.109375 38.09375 18.109375 28.8125 
L 18.109375 0 
L 9.078125 0 
L 9.078125 54.6875 
L 18.109375 54.6875 
L 18.109375 46.1875 
Q 20.953125 51.171875 25.484375 53.578125 
Q 30.03125 56 36.53125 56 
Q 37.453125 56 38.578125 55.875 
Q 39.703125 55.765625 41.0625 55.515625 
z
" id="DejaVuSans-72"/>
     </defs>
     <g transform="translate(329.895 58.070438)scale(0.1 -0.1)">
      <use xlink:href="#DejaVuSans-53"/>
      <use x="63.476562" xlink:href="#DejaVuSans-47"/>
      <use x="140.966797" xlink:href="#DejaVuSans-44"/>
      <use x="217.96875" xlink:href="#DejaVuSans-2c"/>
      <use x="249.755859" xlink:href="#DejaVuSans-20"/>
      <use x="281.542969" xlink:href="#DejaVuSans-6c"/>
      <use x="309.326172" xlink:href="#DejaVuSans-72"/>
      <use x="350.439453" xlink:href="#DejaVuSans-20"/>
      <use x="382.226562" xlink:href="#DejaVuSans-31"/>
      <use x="445.849609" xlink:href="#DejaVuSans-30"/>
     </g>
    </g>
    <g id="line2d_36">
     <path d="M 301.895 69.248563 
L 321.895 69.248563 
" style="fill:none;stroke:#ff7f0e;stroke-linecap:square;stroke-width:1.5;"/>
    </g>
    <g id="line2d_37"/>
    <g id="text_16">
     <!-- SGD, lr 1 -->
     <g transform="translate(329.895 72.748563)scale(0.1 -0.1)">
      <use xlink:href="#DejaVuSans-53"/>
      <use x="63.476562" xlink:href="#DejaVuSans-47"/>
      <use x="140.966797" xlink:href="#DejaVuSans-44"/>
      <use x="217.96875" xlink:href="#DejaVuSans-2c"/>
      <use x="249.755859" xlink:href="#DejaVuSans-20"/>
      <use x="281.542969" xlink:href="#DejaVuSans-6c"/>
      <use x="309.326172" xlink:href="#DejaVuSans-72"/>
      <use x="350.439453" xlink:href="#DejaVuSans-20"/>
      <use x="382.226562" xlink:href="#DejaVuSans-31"/>
     </g>
    </g>
    <g id="line2d_38">
     <path d="M 301.895 83.926688 
L 321.895 83.926688 
" style="fill:none;stroke:#2ca02c;stroke-linecap:square;stroke-width:1.5;"/>
    </g>
    <g id="line2d_39"/>
    <g id="text_17">
     <!-- SGD, lr 0.1 -->
     <g transform="translate(329.895 87.426688)scale(0.1 -0.1)">
      <use xlink:href="#DejaVuSans-53"/>
      <use x="63.476562" xlink:href="#DejaVuSans-47"/>
      <use x="140.966797" xlink:href="#DejaVuSans-44"/>
      <use x="217.96875" xlink:href="#DejaVuSans-2c"/>
      <use x="249.755859" xlink:href="#DejaVuSans-20"/>
      <use x="281.542969" xlink:href="#DejaVuSans-6c"/>
      <use x="309.326172" xlink:href="#DejaVuSans-72"/>
      <use x="350.439453" xlink:href="#DejaVuSans-20"/>
      <use x="382.226562" xlink:href="#DejaVuSans-30"/>
      <use x="445.849609" xlink:href="#DejaVuSans-2e"/>
      <use x="477.636719" xlink:href="#DejaVuSans-31"/>
     </g>
    </g>
    <g id="line2d_40">
     <path d="M 301.895 98.604813 
L 321.895 98.604813 
" style="fill:none;stroke:#d62728;stroke-linecap:square;stroke-width:1.5;"/>
    </g>
    <g id="line2d_41"/>
    <g id="text_18">
     <!-- SGD, lr 0.01 -->
     <g transform="translate(329.895 102.104813)scale(0.1 -0.1)">
      <use xlink:href="#DejaVuSans-53"/>
      <use x="63.476562" xlink:href="#DejaVuSans-47"/>
      <use x="140.966797" xlink:href="#DejaVuSans-44"/>
      <use x="217.96875" xlink:href="#DejaVuSans-2c"/>
      <use x="249.755859" xlink:href="#DejaVuSans-20"/>
      <use x="281.542969" xlink:href="#DejaVuSans-6c"/>
      <use x="309.326172" xlink:href="#DejaVuSans-72"/>
      <use x="350.439453" xlink:href="#DejaVuSans-20"/>
      <use x="382.226562" xlink:href="#DejaVuSans-30"/>
      <use x="445.849609" xlink:href="#DejaVuSans-2e"/>
      <use x="477.636719" xlink:href="#DejaVuSans-30"/>
      <use x="541.259766" xlink:href="#DejaVuSans-31"/>
     </g>
    </g>
    <g id="line2d_42">
     <path d="M 301.895 113.282938 
L 321.895 113.282938 
" style="fill:none;stroke:#9467bd;stroke-linecap:square;stroke-width:1.5;"/>
    </g>
    <g id="line2d_43"/>
    <g id="text_19">
     <!-- SGD, lr 0.001 -->
     <g transform="translate(329.895 116.782938)scale(0.1 -0.1)">
      <use xlink:href="#DejaVuSans-53"/>
      <use x="63.476562" xlink:href="#DejaVuSans-47"/>
      <use x="140.966797" xlink:href="#DejaVuSans-44"/>
      <use x="217.96875" xlink:href="#DejaVuSans-2c"/>
      <use x="249.755859" xlink:href="#DejaVuSans-20"/>
      <use x="281.542969" xlink:href="#DejaVuSans-6c"/>
      <use x="309.326172" xlink:href="#DejaVuSans-72"/>
      <use x="350.439453" xlink:href="#DejaVuSans-20"/>
      <use x="382.226562" xlink:href="#DejaVuSans-30"/>
      <use x="445.849609" xlink:href="#DejaVuSans-2e"/>
      <use x="477.636719" xlink:href="#DejaVuSans-30"/>
      <use x="541.259766" xlink:href="#DejaVuSans-30"/>
      <use x="604.882812" xlink:href="#DejaVuSans-31"/>
     </g>
    </g>
    <g id="line2d_44">
     <path d="M 301.895 127.961063 
L 321.895 127.961063 
" style="fill:none;stroke:#8c564b;stroke-dasharray:5.55,2.4;stroke-dashoffset:0;stroke-width:1.5;"/>
    </g>
    <g id="line2d_45"/>
    <g id="text_20">
     <!-- SGN, cg iter 10 -->
     <defs>
      <path d="M 9.8125 72.90625 
L 23.09375 72.90625 
L 55.421875 11.921875 
L 55.421875 72.90625 
L 64.984375 72.90625 
L 64.984375 0 
L 51.703125 0 
L 19.390625 60.984375 
L 19.390625 0 
L 9.8125 0 
z
" id="DejaVuSans-4e"/>
      <path d="M 45.40625 27.984375 
Q 45.40625 37.75 41.375 43.109375 
Q 37.359375 48.484375 30.078125 48.484375 
Q 22.859375 48.484375 18.828125 43.109375 
Q 14.796875 37.75 14.796875 27.984375 
Q 14.796875 18.265625 18.828125 12.890625 
Q 22.859375 7.515625 30.078125 7.515625 
Q 37.359375 7.515625 41.375 12.890625 
Q 45.40625 18.265625 45.40625 27.984375 
z
M 54.390625 6.78125 
Q 54.390625 -7.171875 48.1875 -13.984375 
Q 42 -20.796875 29.203125 -20.796875 
Q 24.46875 -20.796875 20.265625 -20.09375 
Q 16.0625 -19.390625 12.109375 -17.921875 
L 12.109375 -9.1875 
Q 16.0625 -11.328125 19.921875 -12.34375 
Q 23.78125 -13.375 27.78125 -13.375 
Q 36.625 -13.375 41.015625 -8.765625 
Q 45.40625 -4.15625 45.40625 5.171875 
L 45.40625 9.625 
Q 42.625 4.78125 38.28125 2.390625 
Q 33.9375 0 27.875 0 
Q 17.828125 0 11.671875 7.65625 
Q 5.515625 15.328125 5.515625 27.984375 
Q 5.515625 40.671875 11.671875 48.328125 
Q 17.828125 56 27.875 56 
Q 33.9375 56 38.28125 53.609375 
Q 42.625 51.21875 45.40625 46.390625 
L 45.40625 54.6875 
L 54.390625 54.6875 
z
" id="DejaVuSans-67"/>
      <path d="M 9.421875 54.6875 
L 18.40625 54.6875 
L 18.40625 0 
L 9.421875 0 
z
M 9.421875 75.984375 
L 18.40625 75.984375 
L 18.40625 64.59375 
L 9.421875 64.59375 
z
" id="DejaVuSans-69"/>
     </defs>
     <g transform="translate(329.895 131.461063)scale(0.1 -0.1)">
      <use xlink:href="#DejaVuSans-53"/>
      <use x="63.476562" xlink:href="#DejaVuSans-47"/>
      <use x="140.966797" xlink:href="#DejaVuSans-4e"/>
      <use x="215.771484" xlink:href="#DejaVuSans-2c"/>
      <use x="247.558594" xlink:href="#DejaVuSans-20"/>
      <use x="279.345703" xlink:href="#DejaVuSans-63"/>
      <use x="334.326172" xlink:href="#DejaVuSans-67"/>
      <use x="397.802734" xlink:href="#DejaVuSans-20"/>
      <use x="429.589844" xlink:href="#DejaVuSans-69"/>
      <use x="457.373047" xlink:href="#DejaVuSans-74"/>
      <use x="496.582031" xlink:href="#DejaVuSans-65"/>
      <use x="558.105469" xlink:href="#DejaVuSans-72"/>
      <use x="599.21875" xlink:href="#DejaVuSans-20"/>
      <use x="631.005859" xlink:href="#DejaVuSans-31"/>
      <use x="694.628906" xlink:href="#DejaVuSans-30"/>
     </g>
    </g>
    <g id="line2d_46">
     <path d="M 301.895 142.639188 
L 321.895 142.639188 
" style="fill:none;stroke:#e377c2;stroke-dasharray:5.55,2.4;stroke-dashoffset:0;stroke-width:1.5;"/>
    </g>
    <g id="line2d_47"/>
    <g id="text_21">
     <!-- SGN, cg iter 5 -->
     <defs>
      <path d="M 10.796875 72.90625 
L 49.515625 72.90625 
L 49.515625 64.59375 
L 19.828125 64.59375 
L 19.828125 46.734375 
Q 21.96875 47.46875 24.109375 47.828125 
Q 26.265625 48.1875 28.421875 48.1875 
Q 40.625 48.1875 47.75 41.5 
Q 54.890625 34.8125 54.890625 23.390625 
Q 54.890625 11.625 47.5625 5.09375 
Q 40.234375 -1.421875 26.90625 -1.421875 
Q 22.3125 -1.421875 17.546875 -0.640625 
Q 12.796875 0.140625 7.71875 1.703125 
L 7.71875 11.625 
Q 12.109375 9.234375 16.796875 8.0625 
Q 21.484375 6.890625 26.703125 6.890625 
Q 35.15625 6.890625 40.078125 11.328125 
Q 45.015625 15.765625 45.015625 23.390625 
Q 45.015625 31 40.078125 35.4375 
Q 35.15625 39.890625 26.703125 39.890625 
Q 22.75 39.890625 18.8125 39.015625 
Q 14.890625 38.140625 10.796875 36.28125 
z
" id="DejaVuSans-35"/>
     </defs>
     <g transform="translate(329.895 146.139188)scale(0.1 -0.1)">
      <use xlink:href="#DejaVuSans-53"/>
      <use x="63.476562" xlink:href="#DejaVuSans-47"/>
      <use x="140.966797" xlink:href="#DejaVuSans-4e"/>
      <use x="215.771484" xlink:href="#DejaVuSans-2c"/>
      <use x="247.558594" xlink:href="#DejaVuSans-20"/>
      <use x="279.345703" xlink:href="#DejaVuSans-63"/>
      <use x="334.326172" xlink:href="#DejaVuSans-67"/>
      <use x="397.802734" xlink:href="#DejaVuSans-20"/>
      <use x="429.589844" xlink:href="#DejaVuSans-69"/>
      <use x="457.373047" xlink:href="#DejaVuSans-74"/>
      <use x="496.582031" xlink:href="#DejaVuSans-65"/>
      <use x="558.105469" xlink:href="#DejaVuSans-72"/>
      <use x="599.21875" xlink:href="#DejaVuSans-20"/>
      <use x="631.005859" xlink:href="#DejaVuSans-35"/>
     </g>
    </g>
    <g id="line2d_48">
     <path d="M 301.895 157.317313 
L 321.895 157.317313 
" style="fill:none;stroke:#7f7f7f;stroke-dasharray:5.55,2.4;stroke-dashoffset:0;stroke-width:1.5;"/>
    </g>
    <g id="line2d_49"/>
    <g id="text_22">
     <!-- SGN, cg iter 3 -->
     <defs>
      <path d="M 40.578125 39.3125 
Q 47.65625 37.796875 51.625 33 
Q 55.609375 28.21875 55.609375 21.1875 
Q 55.609375 10.40625 48.1875 4.484375 
Q 40.765625 -1.421875 27.09375 -1.421875 
Q 22.515625 -1.421875 17.65625 -0.515625 
Q 12.796875 0.390625 7.625 2.203125 
L 7.625 11.71875 
Q 11.71875 9.328125 16.59375 8.109375 
Q 21.484375 6.890625 26.8125 6.890625 
Q 36.078125 6.890625 40.9375 10.546875 
Q 45.796875 14.203125 45.796875 21.1875 
Q 45.796875 27.640625 41.28125 31.265625 
Q 36.765625 34.90625 28.71875 34.90625 
L 20.21875 34.90625 
L 20.21875 43.015625 
L 29.109375 43.015625 
Q 36.375 43.015625 40.234375 45.921875 
Q 44.09375 48.828125 44.09375 54.296875 
Q 44.09375 59.90625 40.109375 62.90625 
Q 36.140625 65.921875 28.71875 65.921875 
Q 24.65625 65.921875 20.015625 65.03125 
Q 15.375 64.15625 9.8125 62.3125 
L 9.8125 71.09375 
Q 15.4375 72.65625 20.34375 73.4375 
Q 25.25 74.21875 29.59375 74.21875 
Q 40.828125 74.21875 47.359375 69.109375 
Q 53.90625 64.015625 53.90625 55.328125 
Q 53.90625 49.265625 50.4375 45.09375 
Q 46.96875 40.921875 40.578125 39.3125 
z
" id="DejaVuSans-33"/>
     </defs>
     <g transform="translate(329.895 160.817313)scale(0.1 -0.1)">
      <use xlink:href="#DejaVuSans-53"/>
      <use x="63.476562" xlink:href="#DejaVuSans-47"/>
      <use x="140.966797" xlink:href="#DejaVuSans-4e"/>
      <use x="215.771484" xlink:href="#DejaVuSans-2c"/>
      <use x="247.558594" xlink:href="#DejaVuSans-20"/>
      <use x="279.345703" xlink:href="#DejaVuSans-63"/>
      <use x="334.326172" xlink:href="#DejaVuSans-67"/>
      <use x="397.802734" xlink:href="#DejaVuSans-20"/>
      <use x="429.589844" xlink:href="#DejaVuSans-69"/>
      <use x="457.373047" xlink:href="#DejaVuSans-74"/>
      <use x="496.582031" xlink:href="#DejaVuSans-65"/>
      <use x="558.105469" xlink:href="#DejaVuSans-72"/>
      <use x="599.21875" xlink:href="#DejaVuSans-20"/>
      <use x="631.005859" xlink:href="#DejaVuSans-33"/>
     </g>
    </g>
    <g id="line2d_50">
     <path d="M 301.895 171.995438 
L 321.895 171.995438 
" style="fill:none;stroke:#bcbd22;stroke-dasharray:5.55,2.4;stroke-dashoffset:0;stroke-width:1.5;"/>
    </g>
    <g id="line2d_51"/>
    <g id="text_23">
     <!-- SGN, cg iter 2 -->
     <g transform="translate(329.895 175.495438)scale(0.1 -0.1)">
      <use xlink:href="#DejaVuSans-53"/>
      <use x="63.476562" xlink:href="#DejaVuSans-47"/>
      <use x="140.966797" xlink:href="#DejaVuSans-4e"/>
      <use x="215.771484" xlink:href="#DejaVuSans-2c"/>
      <use x="247.558594" xlink:href="#DejaVuSans-20"/>
      <use x="279.345703" xlink:href="#DejaVuSans-63"/>
      <use x="334.326172" xlink:href="#DejaVuSans-67"/>
      <use x="397.802734" xlink:href="#DejaVuSans-20"/>
      <use x="429.589844" xlink:href="#DejaVuSans-69"/>
      <use x="457.373047" xlink:href="#DejaVuSans-74"/>
      <use x="496.582031" xlink:href="#DejaVuSans-65"/>
      <use x="558.105469" xlink:href="#DejaVuSans-72"/>
      <use x="599.21875" xlink:href="#DejaVuSans-20"/>
      <use x="631.005859" xlink:href="#DejaVuSans-32"/>
     </g>
    </g>
   </g>
  </g>
 </g>
 <defs>
  <clipPath id="p05683ec3bd">
   <rect height="266.112" width="357.12" x="57.6" y="41.472"/>
  </clipPath>
 </defs>
</svg>
