<?xml version="1.0" encoding="utf-8" standalone="no"?>
<!DOCTYPE svg PUBLIC "-//W3C//DTD SVG 1.1//EN"
  "http://www.w3.org/Graphics/SVG/1.1/DTD/svg11.dtd">
<!-- Created with matplotlib (http://matplotlib.org/) -->
<svg height="345.6pt" version="1.1" viewBox="0 0 460.8 345.6" width="460.8pt" xmlns="http://www.w3.org/2000/svg" xmlns:xlink="http://www.w3.org/1999/xlink">
 <defs>
  <style type="text/css">
*{stroke-linecap:butt;stroke-linejoin:round;}
  </style>
 </defs>
 <g id="figure_1">
  <g id="patch_1">
   <path d="M 0 345.6 
L 460.8 345.6 
L 460.8 0 
L 0 0 
z
" style="fill:#ffffff;"/>
  </g>
  <g id="axes_1">
   <g id="patch_2">
    <path d="M 57.6 307.584 
L 414.72 307.584 
L 414.72 41.472 
L 57.6 41.472 
z
" style="fill:#ffffff;"/>
   </g>
   <g id="matplotlib.axis_1">
    <g id="xtick_1">
     <g id="line2d_1">
      <path clip-path="url(#p234156783a)" d="M 57.6 307.584 
L 57.6 41.472 
" style="fill:none;stroke:#b0b0b0;stroke-linecap:square;stroke-width:0.8;"/>
     </g>
     <g id="line2d_2">
      <defs>
       <path d="M 0 0 
L 0 3.5 
" id="mbd1068d9b4" style="stroke:#000000;stroke-width:0.8;"/>
      </defs>
      <g>
       <use style="stroke:#000000;stroke-width:0.8;" x="57.6" xlink:href="#mbd1068d9b4" y="307.584"/>
      </g>
     </g>
     <g id="text_1">
      <!-- 0 -->
      <defs>
       <path d="M 31.78125 66.40625 
Q 24.171875 66.40625 20.328125 58.90625 
Q 16.5 51.421875 16.5 36.375 
Q 16.5 21.390625 20.328125 13.890625 
Q 24.171875 6.390625 31.78125 6.390625 
Q 39.453125 6.390625 43.28125 13.890625 
Q 47.125 21.390625 47.125 36.375 
Q 47.125 51.421875 43.28125 58.90625 
Q 39.453125 66.40625 31.78125 66.40625 
z
M 31.78125 74.21875 
Q 44.046875 74.21875 50.515625 64.515625 
Q 56.984375 54.828125 56.984375 36.375 
Q 56.984375 17.96875 50.515625 8.265625 
Q 44.046875 -1.421875 31.78125 -1.421875 
Q 19.53125 -1.421875 13.0625 8.265625 
Q 6.59375 17.96875 6.59375 36.375 
Q 6.59375 54.828125 13.0625 64.515625 
Q 19.53125 74.21875 31.78125 74.21875 
z
" id="DejaVuSans-30"/>
      </defs>
      <g transform="translate(54.41875 322.182437)scale(0.1 -0.1)">
       <use xlink:href="#DejaVuSans-30"/>
      </g>
     </g>
    </g>
    <g id="xtick_2">
     <g id="line2d_3">
      <path clip-path="url(#p234156783a)" d="M 102.24 307.584 
L 102.24 41.472 
" style="fill:none;stroke:#b0b0b0;stroke-linecap:square;stroke-width:0.8;"/>
     </g>
     <g id="line2d_4">
      <g>
       <use style="stroke:#000000;stroke-width:0.8;" x="102.24" xlink:href="#mbd1068d9b4" y="307.584"/>
      </g>
     </g>
     <g id="text_2">
      <!-- 25 -->
      <defs>
       <path d="M 19.1875 8.296875 
L 53.609375 8.296875 
L 53.609375 0 
L 7.328125 0 
L 7.328125 8.296875 
Q 12.9375 14.109375 22.625 23.890625 
Q 32.328125 33.6875 34.8125 36.53125 
Q 39.546875 41.84375 41.421875 45.53125 
Q 43.3125 49.21875 43.3125 52.78125 
Q 43.3125 58.59375 39.234375 62.25 
Q 35.15625 65.921875 28.609375 65.921875 
Q 23.96875 65.921875 18.8125 64.3125 
Q 13.671875 62.703125 7.8125 59.421875 
L 7.8125 69.390625 
Q 13.765625 71.78125 18.9375 73 
Q 24.125 74.21875 28.421875 74.21875 
Q 39.75 74.21875 46.484375 68.546875 
Q 53.21875 62.890625 53.21875 53.421875 
Q 53.21875 48.921875 51.53125 44.890625 
Q 49.859375 40.875 45.40625 35.40625 
Q 44.1875 33.984375 37.640625 27.21875 
Q 31.109375 20.453125 19.1875 8.296875 
z
" id="DejaVuSans-32"/>
       <path d="M 10.796875 72.90625 
L 49.515625 72.90625 
L 49.515625 64.59375 
L 19.828125 64.59375 
L 19.828125 46.734375 
Q 21.96875 47.46875 24.109375 47.828125 
Q 26.265625 48.1875 28.421875 48.1875 
Q 40.625 48.1875 47.75 41.5 
Q 54.890625 34.8125 54.890625 23.390625 
Q 54.890625 11.625 47.5625 5.09375 
Q 40.234375 -1.421875 26.90625 -1.421875 
Q 22.3125 -1.421875 17.546875 -0.640625 
Q 12.796875 0.140625 7.71875 1.703125 
L 7.71875 11.625 
Q 12.109375 9.234375 16.796875 8.0625 
Q 21.484375 6.890625 26.703125 6.890625 
Q 35.15625 6.890625 40.078125 11.328125 
Q 45.015625 15.765625 45.015625 23.390625 
Q 45.015625 31 40.078125 35.4375 
Q 35.15625 39.890625 26.703125 39.890625 
Q 22.75 39.890625 18.8125 39.015625 
Q 14.890625 38.140625 10.796875 36.28125 
z
" id="DejaVuSans-35"/>
      </defs>
      <g transform="translate(95.8775 322.182437)scale(0.1 -0.1)">
       <use xlink:href="#DejaVuSans-32"/>
       <use x="63.623047" xlink:href="#DejaVuSans-35"/>
      </g>
     </g>
    </g>
    <g id="xtick_3">
     <g id="line2d_5">
      <path clip-path="url(#p234156783a)" d="M 146.88 307.584 
L 146.88 41.472 
" style="fill:none;stroke:#b0b0b0;stroke-linecap:square;stroke-width:0.8;"/>
     </g>
     <g id="line2d_6">
      <g>
       <use style="stroke:#000000;stroke-width:0.8;" x="146.88" xlink:href="#mbd1068d9b4" y="307.584"/>
      </g>
     </g>
     <g id="text_3">
      <!-- 50 -->
      <g transform="translate(140.5175 322.182437)scale(0.1 -0.1)">
       <use xlink:href="#DejaVuSans-35"/>
       <use x="63.623047" xlink:href="#DejaVuSans-30"/>
      </g>
     </g>
    </g>
    <g id="xtick_4">
     <g id="line2d_7">
      <path clip-path="url(#p234156783a)" d="M 191.52 307.584 
L 191.52 41.472 
" style="fill:none;stroke:#b0b0b0;stroke-linecap:square;stroke-width:0.8;"/>
     </g>
     <g id="line2d_8">
      <g>
       <use style="stroke:#000000;stroke-width:0.8;" x="191.52" xlink:href="#mbd1068d9b4" y="307.584"/>
      </g>
     </g>
     <g id="text_4">
      <!-- 75 -->
      <defs>
       <path d="M 8.203125 72.90625 
L 55.078125 72.90625 
L 55.078125 68.703125 
L 28.609375 0 
L 18.3125 0 
L 43.21875 64.59375 
L 8.203125 64.59375 
z
" id="DejaVuSans-37"/>
      </defs>
      <g transform="translate(185.1575 322.182437)scale(0.1 -0.1)">
       <use xlink:href="#DejaVuSans-37"/>
       <use x="63.623047" xlink:href="#DejaVuSans-35"/>
      </g>
     </g>
    </g>
    <g id="xtick_5">
     <g id="line2d_9">
      <path clip-path="url(#p234156783a)" d="M 236.16 307.584 
L 236.16 41.472 
" style="fill:none;stroke:#b0b0b0;stroke-linecap:square;stroke-width:0.8;"/>
     </g>
     <g id="line2d_10">
      <g>
       <use style="stroke:#000000;stroke-width:0.8;" x="236.16" xlink:href="#mbd1068d9b4" y="307.584"/>
      </g>
     </g>
     <g id="text_5">
      <!-- 100 -->
      <defs>
       <path d="M 12.40625 8.296875 
L 28.515625 8.296875 
L 28.515625 63.921875 
L 10.984375 60.40625 
L 10.984375 69.390625 
L 28.421875 72.90625 
L 38.28125 72.90625 
L 38.28125 8.296875 
L 54.390625 8.296875 
L 54.390625 0 
L 12.40625 0 
z
" id="DejaVuSans-31"/>
      </defs>
      <g transform="translate(226.61625 322.182437)scale(0.1 -0.1)">
       <use xlink:href="#DejaVuSans-31"/>
       <use x="63.623047" xlink:href="#DejaVuSans-30"/>
       <use x="127.246094" xlink:href="#DejaVuSans-30"/>
      </g>
     </g>
    </g>
    <g id="xtick_6">
     <g id="line2d_11">
      <path clip-path="url(#p234156783a)" d="M 280.8 307.584 
L 280.8 41.472 
" style="fill:none;stroke:#b0b0b0;stroke-linecap:square;stroke-width:0.8;"/>
     </g>
     <g id="line2d_12">
      <g>
       <use style="stroke:#000000;stroke-width:0.8;" x="280.8" xlink:href="#mbd1068d9b4" y="307.584"/>
      </g>
     </g>
     <g id="text_6">
      <!-- 125 -->
      <g transform="translate(271.25625 322.182437)scale(0.1 -0.1)">
       <use xlink:href="#DejaVuSans-31"/>
       <use x="63.623047" xlink:href="#DejaVuSans-32"/>
       <use x="127.246094" xlink:href="#DejaVuSans-35"/>
      </g>
     </g>
    </g>
    <g id="xtick_7">
     <g id="line2d_13">
      <path clip-path="url(#p234156783a)" d="M 325.44 307.584 
L 325.44 41.472 
" style="fill:none;stroke:#b0b0b0;stroke-linecap:square;stroke-width:0.8;"/>
     </g>
     <g id="line2d_14">
      <g>
       <use style="stroke:#000000;stroke-width:0.8;" x="325.44" xlink:href="#mbd1068d9b4" y="307.584"/>
      </g>
     </g>
     <g id="text_7">
      <!-- 150 -->
      <g transform="translate(315.89625 322.182437)scale(0.1 -0.1)">
       <use xlink:href="#DejaVuSans-31"/>
       <use x="63.623047" xlink:href="#DejaVuSans-35"/>
       <use x="127.246094" xlink:href="#DejaVuSans-30"/>
      </g>
     </g>
    </g>
    <g id="xtick_8">
     <g id="line2d_15">
      <path clip-path="url(#p234156783a)" d="M 370.08 307.584 
L 370.08 41.472 
" style="fill:none;stroke:#b0b0b0;stroke-linecap:square;stroke-width:0.8;"/>
     </g>
     <g id="line2d_16">
      <g>
       <use style="stroke:#000000;stroke-width:0.8;" x="370.08" xlink:href="#mbd1068d9b4" y="307.584"/>
      </g>
     </g>
     <g id="text_8">
      <!-- 175 -->
      <g transform="translate(360.53625 322.182437)scale(0.1 -0.1)">
       <use xlink:href="#DejaVuSans-31"/>
       <use x="63.623047" xlink:href="#DejaVuSans-37"/>
       <use x="127.246094" xlink:href="#DejaVuSans-35"/>
      </g>
     </g>
    </g>
    <g id="xtick_9">
     <g id="line2d_17">
      <path clip-path="url(#p234156783a)" d="M 414.72 307.584 
L 414.72 41.472 
" style="fill:none;stroke:#b0b0b0;stroke-linecap:square;stroke-width:0.8;"/>
     </g>
     <g id="line2d_18">
      <g>
       <use style="stroke:#000000;stroke-width:0.8;" x="414.72" xlink:href="#mbd1068d9b4" y="307.584"/>
      </g>
     </g>
     <g id="text_9">
      <!-- 200 -->
      <g transform="translate(405.17625 322.182437)scale(0.1 -0.1)">
       <use xlink:href="#DejaVuSans-32"/>
       <use x="63.623047" xlink:href="#DejaVuSans-30"/>
       <use x="127.246094" xlink:href="#DejaVuSans-30"/>
      </g>
     </g>
    </g>
    <g id="text_10">
     <!-- sec -->
     <defs>
      <path d="M 44.28125 53.078125 
L 44.28125 44.578125 
Q 40.484375 46.53125 36.375 47.5 
Q 32.28125 48.484375 27.875 48.484375 
Q 21.1875 48.484375 17.84375 46.4375 
Q 14.5 44.390625 14.5 40.28125 
Q 14.5 37.15625 16.890625 35.375 
Q 19.28125 33.59375 26.515625 31.984375 
L 29.59375 31.296875 
Q 39.15625 29.25 43.1875 25.515625 
Q 47.21875 21.78125 47.21875 15.09375 
Q 47.21875 7.46875 41.1875 3.015625 
Q 35.15625 -1.421875 24.609375 -1.421875 
Q 20.21875 -1.421875 15.453125 -0.5625 
Q 10.6875 0.296875 5.421875 2 
L 5.421875 11.28125 
Q 10.40625 8.6875 15.234375 7.390625 
Q 20.0625 6.109375 24.8125 6.109375 
Q 31.15625 6.109375 34.5625 8.28125 
Q 37.984375 10.453125 37.984375 14.40625 
Q 37.984375 18.0625 35.515625 20.015625 
Q 33.0625 21.96875 24.703125 23.78125 
L 21.578125 24.515625 
Q 13.234375 26.265625 9.515625 29.90625 
Q 5.8125 33.546875 5.8125 39.890625 
Q 5.8125 47.609375 11.28125 51.796875 
Q 16.75 56 26.8125 56 
Q 31.78125 56 36.171875 55.265625 
Q 40.578125 54.546875 44.28125 53.078125 
z
" id="DejaVuSans-73"/>
      <path d="M 56.203125 29.59375 
L 56.203125 25.203125 
L 14.890625 25.203125 
Q 15.484375 15.921875 20.484375 11.0625 
Q 25.484375 6.203125 34.421875 6.203125 
Q 39.59375 6.203125 44.453125 7.46875 
Q 49.3125 8.734375 54.109375 11.28125 
L 54.109375 2.78125 
Q 49.265625 0.734375 44.1875 -0.34375 
Q 39.109375 -1.421875 33.890625 -1.421875 
Q 20.796875 -1.421875 13.15625 6.1875 
Q 5.515625 13.8125 5.515625 26.8125 
Q 5.515625 40.234375 12.765625 48.109375 
Q 20.015625 56 32.328125 56 
Q 43.359375 56 49.78125 48.890625 
Q 56.203125 41.796875 56.203125 29.59375 
z
M 47.21875 32.234375 
Q 47.125 39.59375 43.09375 43.984375 
Q 39.0625 48.390625 32.421875 48.390625 
Q 24.90625 48.390625 20.390625 44.140625 
Q 15.875 39.890625 15.1875 32.171875 
z
" id="DejaVuSans-65"/>
      <path d="M 48.78125 52.59375 
L 48.78125 44.1875 
Q 44.96875 46.296875 41.140625 47.34375 
Q 37.3125 48.390625 33.40625 48.390625 
Q 24.65625 48.390625 19.8125 42.84375 
Q 14.984375 37.3125 14.984375 27.296875 
Q 14.984375 17.28125 19.8125 11.734375 
Q 24.65625 6.203125 33.40625 6.203125 
Q 37.3125 6.203125 41.140625 7.25 
Q 44.96875 8.296875 48.78125 10.40625 
L 48.78125 2.09375 
Q 45.015625 0.34375 40.984375 -0.53125 
Q 36.96875 -1.421875 32.421875 -1.421875 
Q 20.0625 -1.421875 12.78125 6.34375 
Q 5.515625 14.109375 5.515625 27.296875 
Q 5.515625 40.671875 12.859375 48.328125 
Q 20.21875 56 33.015625 56 
Q 37.15625 56 41.109375 55.140625 
Q 45.0625 54.296875 48.78125 52.59375 
z
" id="DejaVuSans-63"/>
     </defs>
     <g transform="translate(227.729531 335.860562)scale(0.1 -0.1)">
      <use xlink:href="#DejaVuSans-73"/>
      <use x="52.099609" xlink:href="#DejaVuSans-65"/>
      <use x="113.623047" xlink:href="#DejaVuSans-63"/>
     </g>
    </g>
   </g>
   <g id="matplotlib.axis_2">
    <g id="ytick_1">
     <g id="line2d_19">
      <path clip-path="url(#p234156783a)" d="M 57.6 271.353192 
L 414.72 271.353192 
" style="fill:none;stroke:#b0b0b0;stroke-linecap:square;stroke-width:0.8;"/>
     </g>
     <g id="line2d_20">
      <defs>
       <path d="M 0 0 
L -3.5 0 
" id="m72f0529aa2" style="stroke:#000000;stroke-width:0.8;"/>
      </defs>
      <g>
       <use style="stroke:#000000;stroke-width:0.8;" x="57.6" xlink:href="#m72f0529aa2" y="271.353192"/>
      </g>
     </g>
     <g id="text_11">
      <!-- $\mathdefault{10^{-1}}$ -->
      <defs>
       <path d="M 10.59375 35.5 
L 73.1875 35.5 
L 73.1875 27.203125 
L 10.59375 27.203125 
z
" id="DejaVuSans-2212"/>
      </defs>
      <g transform="translate(27.1 275.152411)scale(0.1 -0.1)">
       <use transform="translate(0 0.684375)" xlink:href="#DejaVuSans-31"/>
       <use transform="translate(63.623047 0.684375)" xlink:href="#DejaVuSans-30"/>
       <use transform="translate(128.203125 38.965625)scale(0.7)" xlink:href="#DejaVuSans-2212"/>
       <use transform="translate(186.855469 38.965625)scale(0.7)" xlink:href="#DejaVuSans-31"/>
      </g>
     </g>
    </g>
    <g id="ytick_2">
     <g id="line2d_21">
      <path clip-path="url(#p234156783a)" d="M 57.6 155.188422 
L 414.72 155.188422 
" style="fill:none;stroke:#b0b0b0;stroke-linecap:square;stroke-width:0.8;"/>
     </g>
     <g id="line2d_22">
      <g>
       <use style="stroke:#000000;stroke-width:0.8;" x="57.6" xlink:href="#m72f0529aa2" y="155.188422"/>
      </g>
     </g>
     <g id="text_12">
      <!-- $\mathdefault{10^{0}}$ -->
      <g transform="translate(33 158.987641)scale(0.1 -0.1)">
       <use transform="translate(0 0.765625)" xlink:href="#DejaVuSans-31"/>
       <use transform="translate(63.623047 0.765625)" xlink:href="#DejaVuSans-30"/>
       <use transform="translate(128.203125 39.046875)scale(0.7)" xlink:href="#DejaVuSans-30"/>
      </g>
     </g>
    </g>
    <g id="ytick_3">
     <g id="line2d_23">
      <path clip-path="url(#p234156783a)" d="M 57.6 306.322272 
L 414.72 306.322272 
" style="fill:none;stroke:#b0b0b0;stroke-linecap:square;stroke-width:0.8;"/>
     </g>
     <g id="line2d_24">
      <defs>
       <path d="M 0 0 
L -2 0 
" id="m8623f56029" style="stroke:#000000;stroke-width:0.6;"/>
      </defs>
      <g>
       <use style="stroke:#000000;stroke-width:0.6;" x="57.6" xlink:href="#m8623f56029" y="306.322272"/>
      </g>
     </g>
    </g>
    <g id="ytick_4">
     <g id="line2d_25">
      <path clip-path="url(#p234156783a)" d="M 57.6 297.124201 
L 414.72 297.124201 
" style="fill:none;stroke:#b0b0b0;stroke-linecap:square;stroke-width:0.8;"/>
     </g>
     <g id="line2d_26">
      <g>
       <use style="stroke:#000000;stroke-width:0.6;" x="57.6" xlink:href="#m8623f56029" y="297.124201"/>
      </g>
     </g>
    </g>
    <g id="ytick_5">
     <g id="line2d_27">
      <path clip-path="url(#p234156783a)" d="M 57.6 289.347343 
L 414.72 289.347343 
" style="fill:none;stroke:#b0b0b0;stroke-linecap:square;stroke-width:0.8;"/>
     </g>
     <g id="line2d_28">
      <g>
       <use style="stroke:#000000;stroke-width:0.6;" x="57.6" xlink:href="#m8623f56029" y="289.347343"/>
      </g>
     </g>
    </g>
    <g id="ytick_6">
     <g id="line2d_29">
      <path clip-path="url(#p234156783a)" d="M 57.6 282.610722 
L 414.72 282.610722 
" style="fill:none;stroke:#b0b0b0;stroke-linecap:square;stroke-width:0.8;"/>
     </g>
     <g id="line2d_30">
      <g>
       <use style="stroke:#000000;stroke-width:0.6;" x="57.6" xlink:href="#m8623f56029" y="282.610722"/>
      </g>
     </g>
    </g>
    <g id="ytick_7">
     <g id="line2d_31">
      <path clip-path="url(#p234156783a)" d="M 57.6 276.668601 
L 414.72 276.668601 
" style="fill:none;stroke:#b0b0b0;stroke-linecap:square;stroke-width:0.8;"/>
     </g>
     <g id="line2d_32">
      <g>
       <use style="stroke:#000000;stroke-width:0.6;" x="57.6" xlink:href="#m8623f56029" y="276.668601"/>
      </g>
     </g>
    </g>
    <g id="ytick_8">
     <g id="line2d_33">
      <path clip-path="url(#p234156783a)" d="M 57.6 236.384112 
L 414.72 236.384112 
" style="fill:none;stroke:#b0b0b0;stroke-linecap:square;stroke-width:0.8;"/>
     </g>
     <g id="line2d_34">
      <g>
       <use style="stroke:#000000;stroke-width:0.6;" x="57.6" xlink:href="#m8623f56029" y="236.384112"/>
      </g>
     </g>
    </g>
    <g id="ytick_9">
     <g id="line2d_35">
      <path clip-path="url(#p234156783a)" d="M 57.6 215.928512 
L 414.72 215.928512 
" style="fill:none;stroke:#b0b0b0;stroke-linecap:square;stroke-width:0.8;"/>
     </g>
     <g id="line2d_36">
      <g>
       <use style="stroke:#000000;stroke-width:0.6;" x="57.6" xlink:href="#m8623f56029" y="215.928512"/>
      </g>
     </g>
    </g>
    <g id="ytick_10">
     <g id="line2d_37">
      <path clip-path="url(#p234156783a)" d="M 57.6 201.415032 
L 414.72 201.415032 
" style="fill:none;stroke:#b0b0b0;stroke-linecap:square;stroke-width:0.8;"/>
     </g>
     <g id="line2d_38">
      <g>
       <use style="stroke:#000000;stroke-width:0.6;" x="57.6" xlink:href="#m8623f56029" y="201.415032"/>
      </g>
     </g>
    </g>
    <g id="ytick_11">
     <g id="line2d_39">
      <path clip-path="url(#p234156783a)" d="M 57.6 190.157503 
L 414.72 190.157503 
" style="fill:none;stroke:#b0b0b0;stroke-linecap:square;stroke-width:0.8;"/>
     </g>
     <g id="line2d_40">
      <g>
       <use style="stroke:#000000;stroke-width:0.6;" x="57.6" xlink:href="#m8623f56029" y="190.157503"/>
      </g>
     </g>
    </g>
    <g id="ytick_12">
     <g id="line2d_41">
      <path clip-path="url(#p234156783a)" d="M 57.6 180.959431 
L 414.72 180.959431 
" style="fill:none;stroke:#b0b0b0;stroke-linecap:square;stroke-width:0.8;"/>
     </g>
     <g id="line2d_42">
      <g>
       <use style="stroke:#000000;stroke-width:0.6;" x="57.6" xlink:href="#m8623f56029" y="180.959431"/>
      </g>
     </g>
    </g>
    <g id="ytick_13">
     <g id="line2d_43">
      <path clip-path="url(#p234156783a)" d="M 57.6 173.182573 
L 414.72 173.182573 
" style="fill:none;stroke:#b0b0b0;stroke-linecap:square;stroke-width:0.8;"/>
     </g>
     <g id="line2d_44">
      <g>
       <use style="stroke:#000000;stroke-width:0.6;" x="57.6" xlink:href="#m8623f56029" y="173.182573"/>
      </g>
     </g>
    </g>
    <g id="ytick_14">
     <g id="line2d_45">
      <path clip-path="url(#p234156783a)" d="M 57.6 166.445952 
L 414.72 166.445952 
" style="fill:none;stroke:#b0b0b0;stroke-linecap:square;stroke-width:0.8;"/>
     </g>
     <g id="line2d_46">
      <g>
       <use style="stroke:#000000;stroke-width:0.6;" x="57.6" xlink:href="#m8623f56029" y="166.445952"/>
      </g>
     </g>
    </g>
    <g id="ytick_15">
     <g id="line2d_47">
      <path clip-path="url(#p234156783a)" d="M 57.6 160.503831 
L 414.72 160.503831 
" style="fill:none;stroke:#b0b0b0;stroke-linecap:square;stroke-width:0.8;"/>
     </g>
     <g id="line2d_48">
      <g>
       <use style="stroke:#000000;stroke-width:0.6;" x="57.6" xlink:href="#m8623f56029" y="160.503831"/>
      </g>
     </g>
    </g>
    <g id="ytick_16">
     <g id="line2d_49">
      <path clip-path="url(#p234156783a)" d="M 57.6 120.219342 
L 414.72 120.219342 
" style="fill:none;stroke:#b0b0b0;stroke-linecap:square;stroke-width:0.8;"/>
     </g>
     <g id="line2d_50">
      <g>
       <use style="stroke:#000000;stroke-width:0.6;" x="57.6" xlink:href="#m8623f56029" y="120.219342"/>
      </g>
     </g>
    </g>
    <g id="ytick_17">
     <g id="line2d_51">
      <path clip-path="url(#p234156783a)" d="M 57.6 99.763742 
L 414.72 99.763742 
" style="fill:none;stroke:#b0b0b0;stroke-linecap:square;stroke-width:0.8;"/>
     </g>
     <g id="line2d_52">
      <g>
       <use style="stroke:#000000;stroke-width:0.6;" x="57.6" xlink:href="#m8623f56029" y="99.763742"/>
      </g>
     </g>
    </g>
    <g id="ytick_18">
     <g id="line2d_53">
      <path clip-path="url(#p234156783a)" d="M 57.6 85.250262 
L 414.72 85.250262 
" style="fill:none;stroke:#b0b0b0;stroke-linecap:square;stroke-width:0.8;"/>
     </g>
     <g id="line2d_54">
      <g>
       <use style="stroke:#000000;stroke-width:0.6;" x="57.6" xlink:href="#m8623f56029" y="85.250262"/>
      </g>
     </g>
    </g>
    <g id="ytick_19">
     <g id="line2d_55">
      <path clip-path="url(#p234156783a)" d="M 57.6 73.992733 
L 414.72 73.992733 
" style="fill:none;stroke:#b0b0b0;stroke-linecap:square;stroke-width:0.8;"/>
     </g>
     <g id="line2d_56">
      <g>
       <use style="stroke:#000000;stroke-width:0.6;" x="57.6" xlink:href="#m8623f56029" y="73.992733"/>
      </g>
     </g>
    </g>
    <g id="ytick_20">
     <g id="line2d_57">
      <path clip-path="url(#p234156783a)" d="M 57.6 64.794661 
L 414.72 64.794661 
" style="fill:none;stroke:#b0b0b0;stroke-linecap:square;stroke-width:0.8;"/>
     </g>
     <g id="line2d_58">
      <g>
       <use style="stroke:#000000;stroke-width:0.6;" x="57.6" xlink:href="#m8623f56029" y="64.794661"/>
      </g>
     </g>
    </g>
    <g id="ytick_21">
     <g id="line2d_59">
      <path clip-path="url(#p234156783a)" d="M 57.6 57.017803 
L 414.72 57.017803 
" style="fill:none;stroke:#b0b0b0;stroke-linecap:square;stroke-width:0.8;"/>
     </g>
     <g id="line2d_60">
      <g>
       <use style="stroke:#000000;stroke-width:0.6;" x="57.6" xlink:href="#m8623f56029" y="57.017803"/>
      </g>
     </g>
    </g>
    <g id="ytick_22">
     <g id="line2d_61">
      <path clip-path="url(#p234156783a)" d="M 57.6 50.281182 
L 414.72 50.281182 
" style="fill:none;stroke:#b0b0b0;stroke-linecap:square;stroke-width:0.8;"/>
     </g>
     <g id="line2d_62">
      <g>
       <use style="stroke:#000000;stroke-width:0.6;" x="57.6" xlink:href="#m8623f56029" y="50.281182"/>
      </g>
     </g>
    </g>
    <g id="ytick_23">
     <g id="line2d_63">
      <path clip-path="url(#p234156783a)" d="M 57.6 44.339061 
L 414.72 44.339061 
" style="fill:none;stroke:#b0b0b0;stroke-linecap:square;stroke-width:0.8;"/>
     </g>
     <g id="line2d_64">
      <g>
       <use style="stroke:#000000;stroke-width:0.6;" x="57.6" xlink:href="#m8623f56029" y="44.339061"/>
      </g>
     </g>
    </g>
    <g id="text_13">
     <!-- loss -->
     <defs>
      <path d="M 9.421875 75.984375 
L 18.40625 75.984375 
L 18.40625 0 
L 9.421875 0 
z
" id="DejaVuSans-6c"/>
      <path d="M 30.609375 48.390625 
Q 23.390625 48.390625 19.1875 42.75 
Q 14.984375 37.109375 14.984375 27.296875 
Q 14.984375 17.484375 19.15625 11.84375 
Q 23.34375 6.203125 30.609375 6.203125 
Q 37.796875 6.203125 41.984375 11.859375 
Q 46.1875 17.53125 46.1875 27.296875 
Q 46.1875 37.015625 41.984375 42.703125 
Q 37.796875 48.390625 30.609375 48.390625 
z
M 30.609375 56 
Q 42.328125 56 49.015625 48.375 
Q 55.71875 40.765625 55.71875 27.296875 
Q 55.71875 13.875 49.015625 6.21875 
Q 42.328125 -1.421875 30.609375 -1.421875 
Q 18.84375 -1.421875 12.171875 6.21875 
Q 5.515625 13.875 5.515625 27.296875 
Q 5.515625 40.765625 12.171875 48.375 
Q 18.84375 56 30.609375 56 
z
" id="DejaVuSans-6f"/>
     </defs>
     <g transform="translate(21.020313 184.185812)rotate(-90)scale(0.1 -0.1)">
      <use xlink:href="#DejaVuSans-6c"/>
      <use x="27.783203" xlink:href="#DejaVuSans-6f"/>
      <use x="88.964844" xlink:href="#DejaVuSans-73"/>
      <use x="141.064453" xlink:href="#DejaVuSans-73"/>
     </g>
    </g>
   </g>
   <g id="line2d_65">
    <path clip-path="url(#p234156783a)" d="M 58.695196 53.568 
L 59.790392 63.471807 
L 60.885588 68.6221 
L 61.980784 75.855945 
L 63.07598 78.870735 
L 64.171176 79.258209 
L 65.266372 84.516043 
L 66.361569 88.235451 
L 67.456765 87.815701 
L 68.551961 93.588858 
L 69.647157 97.678664 
L 70.742353 97.820835 
L 71.837549 97.344105 
L 72.932745 97.527628 
L 74.027941 98.90079 
L 75.123137 99.744501 
L 76.218333 99.391082 
L 77.313529 98.802111 
L 78.408725 100.01875 
L 79.503921 98.020162 
L 80.599117 101.891082 
L 81.694314 103.597006 
L 82.78951 103.876267 
L 83.884706 103.48271 
L 84.979902 103.7317 
L 86.075098 105.166564 
L 87.170294 106.864994 
L 89.360686 108.242138 
L 90.455882 108.007453 
L 91.551078 108.764811 
L 92.646274 109.116644 
L 93.74147 109.307799 
L 94.836666 110.254999 
L 95.931862 110.983526 
L 97.027059 110.345938 
L 98.122255 110.292162 
L 99.217451 111.498225 
L 100.312647 111.463187 
L 101.407843 112.309371 
L 102.503039 112.82165 
L 103.598235 115.262986 
L 104.693431 115.087403 
L 105.788627 117.76521 
L 106.883823 118.798256 
L 107.979019 117.666687 
L 109.074215 120.74973 
L 110.169411 122.176895 
L 111.264607 123.993528 
L 112.359804 124.483651 
L 113.455 125.902792 
L 114.550196 127.90188 
L 115.645392 128.230776 
L 116.740588 129.701225 
L 117.835784 130.38807 
L 118.93098 131.872016 
L 120.026176 129.265008 
L 121.121372 131.976762 
L 122.216568 135.882802 
L 123.311764 135.112283 
L 124.40696 138.071415 
L 125.502156 136.951112 
L 126.597352 139.937695 
L 127.692549 139.293955 
L 128.787745 139.868233 
L 129.882941 142.447383 
L 130.978137 141.57551 
L 132.073333 142.82345 
L 133.168529 142.66482 
L 134.263725 145.498834 
L 135.358921 146.039551 
L 136.454117 147.779925 
L 137.549313 148.734312 
L 138.644509 149.111882 
L 139.739705 148.525701 
L 140.834901 148.360127 
L 143.025294 148.587179 
L 144.12049 151.027664 
L 147.406078 153.900092 
L 148.501274 154.352678 
L 149.59647 150.612876 
L 150.691666 155.408001 
L 151.786862 156.522188 
L 152.882058 155.794531 
L 153.977254 157.168581 
L 155.07245 157.139148 
L 156.167646 156.945846 
L 157.262842 157.567485 
L 158.358039 155.091018 
L 159.453235 157.818855 
L 160.548431 158.990352 
L 161.643627 160.539839 
L 163.834019 162.293289 
L 164.929215 162.500896 
L 166.024411 162.831497 
L 167.119607 156.961007 
L 168.214803 155.311018 
L 169.309999 164.238934 
L 171.500391 166.153976 
L 172.595587 166.758767 
L 173.690784 166.393998 
L 174.78598 166.206919 
L 175.881176 166.590868 
L 176.976372 165.907211 
L 178.071568 165.508979 
L 180.26196 165.581435 
L 181.357156 163.193678 
L 182.452352 167.048109 
L 183.547548 167.324501 
L 184.642744 167.10596 
L 185.73794 167.924764 
L 186.833136 167.538627 
L 187.928332 167.710199 
L 189.023529 168.416229 
L 190.118725 170.337156 
L 191.213921 167.681154 
L 192.309117 164.116833 
L 193.404313 165.052461 
L 194.499509 166.303548 
L 195.594705 168.696803 
L 196.689901 171.807617 
L 197.785097 175.623707 
L 198.880293 177.094086 
L 199.975489 178.046553 
L 201.070685 179.405349 
L 202.165881 182.904738 
L 203.261077 183.262723 
L 204.356274 185.731944 
L 205.45147 185.691582 
L 206.546666 188.875699 
L 207.641862 182.003315 
L 208.737058 187.027368 
L 209.832254 188.230812 
L 210.92745 188.709762 
L 212.022646 190.658755 
L 213.117842 193.382954 
L 214.213038 192.526995 
L 215.308234 193.274441 
L 216.40343 192.942177 
L 217.498626 190.82892 
L 218.593822 194.433759 
L 219.689019 194.016298 
L 220.784215 192.791652 
L 221.879411 193.410748 
L 222.974607 195.044298 
L 224.069803 195.561687 
L 225.164999 195.36305 
L 226.260195 194.231237 
L 228.450587 196.19042 
L 229.545783 195.975534 
L 230.640979 195.153151 
L 231.736175 194.663926 
L 232.831371 196.177272 
L 233.926567 196.413231 
L 235.021764 194.599646 
L 236.11696 195.627843 
L 237.212156 197.097177 
L 238.307352 196.285666 
L 239.402548 196.170269 
L 240.497744 195.715108 
L 241.59294 196.386329 
L 242.688136 196.298458 
L 243.783332 197.313404 
L 244.878528 196.862475 
L 245.973724 196.278577 
L 247.06892 195.533735 
L 248.164116 196.522756 
L 249.259312 196.800532 
L 250.354509 197.282759 
L 251.449705 197.202687 
L 252.544901 196.106528 
L 253.640097 196.208565 
L 254.735293 196.102357 
L 255.830489 197.794947 
L 256.925685 197.984369 
L 258.020881 196.638308 
L 259.116077 196.876 
L 260.211273 198.060899 
L 261.306469 197.325084 
L 262.401665 198.222616 
L 263.496861 196.61828 
L 264.592057 198.003707 
L 265.687254 197.448095 
L 266.78245 197.56017 
L 267.877646 197.397723 
L 268.972842 197.990023 
L 270.068038 196.073276 
L 271.163234 198.598784 
L 272.25843 198.122624 
L 273.353626 199.489825 
L 274.448822 198.819814 
L 275.544018 197.140295 
L 276.639214 198.107975 
L 277.73441 198.570564 
L 278.829606 198.405869 
L 279.924802 199.685307 
L 281.019998 199.125627 
L 282.115195 196.781125 
L 283.210391 198.306969 
L 284.305587 197.925235 
L 285.400783 199.534782 
L 286.495979 200.424536 
L 287.591175 199.328974 
L 290.876763 200.111307 
L 291.971959 197.570975 
L 293.067155 199.345532 
L 294.162351 198.807818 
L 295.257547 199.048909 
L 296.352743 199.719492 
L 297.44794 199.842025 
L 298.543136 199.101069 
L 299.638332 199.218537 
L 300.733528 199.12883 
L 301.828724 197.325917 
L 302.92392 200.215631 
L 304.019116 200.36933 
L 305.114312 199.439366 
L 306.209508 199.219112 
L 309.495096 199.917602 
L 310.590292 199.229458 
L 311.685488 200.101737 
L 312.780685 199.939024 
L 313.875881 200.362572 
L 316.066273 200.052233 
L 317.161469 201.078824 
L 318.256665 200.290257 
L 319.351861 201.179587 
L 320.447057 199.638887 
L 321.542253 200.151071 
L 322.637449 199.789831 
L 323.732645 198.425254 
L 324.827841 200.43753 
L 325.923037 198.722039 
L 327.018233 200.817628 
L 328.11343 201.524545 
L 329.208626 201.600652 
L 331.399018 200.103655 
L 332.494214 199.821344 
L 333.58941 200.64215 
L 334.684606 200.322265 
L 335.779802 199.236367 
L 336.874998 201.0386 
L 337.970194 199.948728 
L 339.06539 199.417136 
L 340.160586 199.55209 
L 341.255782 200.469609 
L 342.350978 201.710438 
L 343.446175 199.931515 
L 344.541371 201.647704 
L 345.636567 200.150097 
L 346.731763 200.837777 
L 347.826959 201.78325 
L 348.922155 202.385179 
L 350.017351 199.995247 
L 351.112547 201.389662 
L 352.207743 194.686515 
L 353.302939 200.278689 
L 354.398135 200.97967 
L 355.493331 201.270237 
L 356.588527 201.978503 
L 357.683723 201.257313 
L 358.77892 199.526744 
L 359.874116 201.168914 
L 360.969312 200.96537 
L 362.064508 202.112465 
L 363.159704 202.320018 
L 364.2549 200.920367 
L 365.350096 200.494124 
L 366.445292 201.276511 
L 367.540488 202.62838 
L 368.635684 201.048105 
L 369.73088 200.310556 
L 370.826076 200.693284 
L 371.921272 202.700805 
L 373.016468 200.900661 
L 374.111665 201.856116 
L 376.302057 200.372025 
L 377.397253 201.680557 
L 378.492449 200.394337 
L 379.587645 200.100114 
L 380.682841 200.505611 
L 381.778037 200.019893 
L 382.873233 201.027209 
L 383.968429 200.468265 
L 385.063625 200.425274 
L 386.158821 202.071966 
L 387.254017 201.48395 
L 388.349213 202.09156 
L 389.44441 200.261783 
L 390.539606 202.071793 
L 391.634802 201.474692 
L 392.729998 202.41771 
L 393.825194 200.838235 
L 394.92039 201.859293 
L 396.015586 201.53313 
L 397.110782 201.825397 
L 398.205978 202.382457 
L 399.301174 200.114676 
L 400.39637 201.296193 
L 401.491566 201.257339 
L 402.586762 202.338319 
L 403.681958 201.405452 
L 404.777155 201.636298 
L 405.872351 201.724209 
L 406.967547 201.438173 
L 408.062743 202.693059 
L 409.157939 201.457113 
L 410.253135 200.549363 
L 411.348331 202.250843 
L 412.443527 201.809797 
L 413.538723 204.476808 
L 414.633919 202.584114 
L 415.729115 201.279775 
L 416.824311 201.64097 
L 417.919507 203.899286 
L 419.014703 202.467795 
L 420.1099 200.803848 
L 421.205096 201.960907 
L 422.300292 201.152854 
L 424.490684 202.294371 
L 425.58588 202.469234 
L 426.681076 202.224266 
L 427.776272 202.898637 
L 428.871468 201.797401 
L 429.966664 201.800166 
L 431.06186 202.281149 
L 432.157056 202.335365 
L 433.252252 201.541568 
L 434.347448 202.561978 
L 435.442645 203.242972 
L 436.537841 202.887308 
L 437.633037 202.090745 
L 438.728233 203.090167 
L 439.823429 203.014316 
L 440.918625 202.317549 
L 443.109017 202.909194 
L 444.204213 202.260429 
L 445.299409 201.95923 
L 446.394605 201.384771 
L 447.489801 201.018119 
L 449.680193 202.32616 
L 450.77539 201.80509 
L 451.870586 202.365001 
L 452.965782 201.108839 
L 454.060978 202.759174 
L 455.156174 201.722198 
L 456.25137 201.646809 
L 457.346566 201.824289 
L 458.441762 202.3645 
L 459.536958 201.909839 
L 460.632154 202.019548 
L 461.8 202.990955 
L 461.8 202.990955 
" style="fill:none;stroke:#1f77b4;stroke-linecap:square;stroke-width:1.5;"/>
   </g>
   <g id="line2d_66">
    <path clip-path="url(#p234156783a)" d="M 58.678487 120.106099 
L 59.756974 139.436985 
L 60.835461 151.299649 
L 61.913948 159.484574 
L 62.992435 165.650704 
L 64.070922 170.392651 
L 65.149408 174.166513 
L 66.227895 177.319979 
L 67.306382 180.002979 
L 69.463356 184.482915 
L 71.62033 188.246474 
L 73.777304 191.523819 
L 75.934278 194.447409 
L 78.091252 197.071172 
L 81.326712 200.490236 
L 84.562173 203.493606 
L 86.719147 205.341328 
L 89.954608 207.868407 
L 93.190069 210.136809 
L 97.504016 212.81964 
L 101.817964 215.166937 
L 109.367372 218.541548 
L 115.838294 220.971839 
L 125.544676 224.077244 
L 133.094085 226.19205 
L 147.114415 229.571584 
L 150.349875 230.262428 
L 154.663823 231.181264 
L 172.998101 234.683183 
L 183.78297 236.565978 
L 189.175405 237.481915 
L 192.410866 237.97545 
L 210.745143 240.804366 
L 218.294552 241.854358 
L 222.608499 242.467458 
L 253.88462 246.337759 
L 273.297385 248.434368 
L 275.454359 248.695467 
L 283.003767 249.509656 
L 285.160741 249.643934 
L 287.317715 249.955042 
L 289.474689 250.149598 
L 306.73048 251.857617 
L 311.044427 252.268678 
L 334.77114 254.468685 
L 336.928113 254.62941 
L 339.085087 254.837543 
L 340.163574 254.876063 
L 341.242061 255.073951 
L 343.399035 255.216086 
L 344.477522 255.34722 
L 345.556009 255.356365 
L 346.634496 255.535835 
L 349.869957 255.75237 
L 355.262391 256.245538 
L 360.654826 256.685654 
L 366.04726 257.228262 
L 368.204234 257.299991 
L 369.282721 257.469874 
L 371.439695 257.623285 
L 374.675156 257.881518 
L 376.83213 258.065701 
L 381.146077 258.4153 
L 390.85246 259.149349 
L 391.930947 259.316342 
L 393.009433 259.303618 
L 397.323381 259.749221 
L 458.797136 264.315048 
L 461.8 264.551721 
L 461.8 264.551721 
" style="fill:none;stroke:#ff7f0e;stroke-linecap:square;stroke-width:1.5;"/>
   </g>
   <g id="line2d_67">
    <path clip-path="url(#p234156783a)" d="M 58.709631 107.474536 
L 59.819262 116.732219 
L 60.928894 119.239415 
L 63.148156 123.11075 
L 69.805943 133.842027 
L 73.134836 138.756658 
L 75.354099 141.702517 
L 78.682992 145.658437 
L 82.011886 149.165512 
L 85.340779 152.316583 
L 88.669673 155.158149 
L 91.998566 157.716378 
L 95.32746 160.02379 
L 98.656353 162.102289 
L 103.094878 164.562141 
L 107.533403 166.730892 
L 111.971927 168.665745 
L 117.520083 170.822754 
L 123.068239 172.752186 
L 129.726026 174.827664 
L 136.383813 176.701781 
L 144.151231 178.693812 
L 153.028281 180.78019 
L 164.124592 183.17055 
L 176.330535 185.567462 
L 189.646109 187.941813 
L 204.071314 190.279305 
L 220.715782 192.719111 
L 237.360249 194.935947 
L 256.223979 197.238681 
L 281.745496 200.04121 
L 303.93812 202.238754 
L 333.898161 204.924471 
L 367.187096 207.581587 
L 390.489351 209.255428 
L 422.668655 211.351669 
L 458.176852 213.436749 
L 461.8 213.639161 
L 461.8 213.639161 
" style="fill:none;stroke:#2ca02c;stroke-linecap:square;stroke-width:1.5;"/>
   </g>
   <g id="line2d_68">
    <path clip-path="url(#p234156783a)" d="M 58.72518 89.410992 
L 59.850361 102.706664 
L 60.975541 106.232734 
L 62.100722 108.538567 
L 63.225902 110.253326 
L 64.351083 111.607882 
L 65.476263 112.703923 
L 66.601444 113.584262 
L 67.726624 114.281742 
L 69.976985 115.298947 
L 73.352527 116.384837 
L 77.853249 117.541408 
L 83.479151 118.762079 
L 92.480595 120.449648 
L 107.107942 122.913879 
L 146.489259 129.219725 
L 183.620216 135.030577 
L 204.998645 138.132514 
L 225.251894 140.847982 
L 246.630324 143.483906 
L 269.133934 146.033384 
L 293.887905 148.616126 
L 320.892237 151.21042 
L 349.021749 153.693367 
L 378.276442 156.055299 
L 409.781496 158.37149 
L 442.411731 160.545724 
L 461.8 161.7369 
L 461.8 161.7369 
" style="fill:none;stroke:#d62728;stroke-linecap:square;stroke-width:1.5;"/>
   </g>
   <g id="line2d_69">
    <path clip-path="url(#p234156783a)" d="M 58.747582 73.148346 
L 61.042747 84.22862 
L 62.190329 88.579754 
L 63.337911 91.916838 
L 64.485493 94.391095 
L 65.633075 96.230098 
L 66.780658 97.631792 
L 67.92824 98.737568 
L 70.223404 100.403624 
L 72.518568 101.649735 
L 74.813733 102.66029 
L 78.256479 103.91349 
L 82.846808 105.283527 
L 87.437137 106.429767 
L 93.175048 107.642462 
L 100.060541 108.862161 
L 108.093616 110.050969 
L 117.274274 111.18882 
L 127.602513 112.25769 
L 139.078335 113.227771 
L 151.701739 114.06724 
L 166.620308 114.821466 
L 186.129205 115.568292 
L 215.966342 116.468606 
L 260.722047 117.585666 
L 321.543903 118.8692 
L 407.612567 120.445902 
L 461.8 121.36517 
L 461.8 121.36517 
" style="fill:none;stroke:#9467bd;stroke-linecap:square;stroke-width:1.5;"/>
   </g>
   <g id="line2d_70">
    <path clip-path="url(#p234156783a)" d="M 69.57161 165.961873 
L 81.543219 209.54513 
L 93.514829 214.483601 
L 105.486439 216.766336 
L 117.458048 218.405262 
L 129.429658 218.942282 
L 141.401268 220.018572 
L 153.372877 220.076146 
L 165.344487 220.860398 
L 177.316097 219.974902 
L 189.287707 220.782377 
L 201.259316 221.97687 
L 213.230926 221.842774 
L 225.202536 222.830658 
L 237.174145 222.081759 
L 249.145755 222.260918 
L 261.117365 222.777772 
L 273.088974 222.152784 
L 285.060584 222.95996 
L 297.032194 223.585594 
L 309.003803 223.952682 
L 320.975413 223.536811 
L 332.947023 223.151423 
L 344.918632 223.266611 
L 356.890242 222.87526 
L 368.861852 223.802844 
L 380.833461 224.176603 
L 392.805071 224.395227 
L 404.776681 224.776433 
L 416.74829 223.590498 
L 428.7199 224.592266 
L 440.69151 224.456435 
L 452.66312 224.639249 
L 461.8 224.960356 
" style="fill:none;stroke:#8c564b;stroke-dasharray:5.55,2.4;stroke-dashoffset:0;stroke-width:1.5;"/>
   </g>
   <g id="line2d_71">
    <path clip-path="url(#p234156783a)" d="M 64.356294 164.610027 
L 71.112588 211.185276 
L 77.868883 219.562486 
L 84.625177 224.839244 
L 91.381471 228.764402 
L 98.137765 231.613522 
L 104.894059 233.966932 
L 111.650353 236.055496 
L 118.406648 237.571245 
L 125.162942 239.358991 
L 131.919236 240.913201 
L 138.67553 242.024601 
L 145.431824 242.982112 
L 152.188119 244.544297 
L 158.944413 245.173839 
L 165.700707 246.191517 
L 172.457001 246.729058 
L 179.213295 247.810499 
L 185.969589 248.226031 
L 192.725884 249.300668 
L 199.482178 249.591436 
L 206.238472 250.116694 
L 212.994766 250.811295 
L 219.75106 250.911693 
L 226.507355 252.024864 
L 233.263649 252.506976 
L 240.019943 252.74748 
L 246.776237 252.418472 
L 253.532531 253.311376 
L 260.288825 253.524201 
L 267.04512 253.760134 
L 273.801414 254.493889 
L 280.557708 255.13373 
L 287.314002 254.975416 
L 294.070296 255.253611 
L 300.826591 255.673641 
L 307.582885 256.048393 
L 314.339179 256.201536 
L 321.095473 255.946424 
L 327.851767 257.063106 
L 334.608061 256.844529 
L 341.364356 257.804752 
L 348.12065 256.769933 
L 354.876944 256.864717 
L 361.633238 258.592755 
L 368.389532 258.115167 
L 375.145827 258.594228 
L 381.902121 258.742274 
L 388.658415 258.233889 
L 395.414709 259.363426 
L 402.171003 259.393948 
L 408.927297 259.147798 
L 415.683592 259.182656 
L 422.439886 260.450534 
L 429.19618 260.015688 
L 435.952474 258.959846 
L 442.708768 260.77199 
L 449.465063 260.926464 
L 456.221357 261.718408 
L 461.8 261.422179 
" style="fill:none;stroke:#e377c2;stroke-dasharray:5.55,2.4;stroke-dashoffset:0;stroke-width:1.5;"/>
   </g>
   <g id="line2d_72">
    <path clip-path="url(#p234156783a)" d="M 62.339191 161.753172 
L 67.078383 203.780439 
L 71.817574 213.284 
L 76.556766 219.537662 
L 81.295957 224.056451 
L 86.035149 227.609768 
L 90.77434 230.716509 
L 95.513532 233.324523 
L 100.252723 235.732441 
L 104.991915 237.876823 
L 109.731106 239.652825 
L 114.470298 241.38805 
L 119.209489 243.180076 
L 123.94868 244.499349 
L 128.687872 246.135459 
L 133.427063 247.535797 
L 138.166255 248.604563 
L 142.905446 249.681621 
L 147.644638 250.909787 
L 152.383829 252.030739 
L 157.123021 253.005095 
L 161.862212 253.912414 
L 166.601404 255.04631 
L 171.340595 256.162396 
L 176.079787 256.719832 
L 180.818978 258.055558 
L 185.558169 258.669163 
L 190.297361 259.412447 
L 195.036552 260.473969 
L 199.775744 260.766433 
L 204.514935 261.681916 
L 209.254127 262.298414 
L 213.993318 262.968184 
L 218.73251 264.128943 
L 223.471701 264.866725 
L 228.210893 265.493437 
L 232.950084 266.309722 
L 237.689276 266.87181 
L 242.428467 267.22431 
L 247.167658 268.049702 
L 251.90685 268.062087 
L 256.646041 269.246499 
L 261.385233 269.66561 
L 266.124424 269.986363 
L 270.863616 271.100148 
L 275.602807 272.2643 
L 280.341999 272.711671 
L 285.08119 273.451052 
L 289.820382 273.279901 
L 294.559573 273.326429 
L 299.298764 274.838648 
L 304.037956 275.170245 
L 308.777147 275.379024 
L 313.516339 276.16589 
L 318.25553 276.677335 
L 322.994722 276.650608 
L 327.733913 277.641259 
L 332.473105 277.726193 
L 337.212296 278.114891 
L 341.951488 278.953083 
L 346.690679 279.75552 
L 351.429871 280.148194 
L 356.169062 280.413192 
L 360.908253 280.601898 
L 365.647445 281.29726 
L 370.386636 282.271764 
L 375.125828 282.575685 
L 379.865019 282.265064 
L 384.604211 283.111422 
L 389.343402 283.796341 
L 394.082594 283.852405 
L 398.821785 284.539725 
L 403.560977 284.088332 
L 408.300168 284.582516 
L 413.03936 286.393044 
L 417.778551 286.250991 
L 422.517742 286.210476 
L 427.256934 286.604003 
L 431.996125 286.465429 
L 436.735317 286.478284 
L 441.474508 288.645331 
L 446.2137 288.918291 
L 450.952891 288.567457 
L 455.692083 288.86732 
L 460.431274 289.292475 
L 461.8 289.234346 
" style="fill:none;stroke:#7f7f7f;stroke-dasharray:5.55,2.4;stroke-dashoffset:0;stroke-width:1.5;"/>
   </g>
   <g id="patch_3">
    <path d="M 57.6 307.584 
L 57.6 41.472 
" style="fill:none;stroke:#000000;stroke-linecap:square;stroke-linejoin:miter;stroke-width:0.8;"/>
   </g>
   <g id="patch_4">
    <path d="M 414.72 307.584 
L 414.72 41.472 
" style="fill:none;stroke:#000000;stroke-linecap:square;stroke-linejoin:miter;stroke-width:0.8;"/>
   </g>
   <g id="patch_5">
    <path d="M 57.6 307.584 
L 414.72 307.584 
" style="fill:none;stroke:#000000;stroke-linecap:square;stroke-linejoin:miter;stroke-width:0.8;"/>
   </g>
   <g id="patch_6">
    <path d="M 57.6 41.472 
L 414.72 41.472 
" style="fill:none;stroke:#000000;stroke-linecap:square;stroke-linejoin:miter;stroke-width:0.8;"/>
   </g>
   <g id="legend_1">
    <g id="patch_7">
     <path d="M 64.6 302.584 
L 172.425 302.584 
Q 174.425 302.584 174.425 300.584 
L 174.425 184.159 
Q 174.425 182.159 172.425 182.159 
L 64.6 182.159 
Q 62.6 182.159 62.6 184.159 
L 62.6 300.584 
Q 62.6 302.584 64.6 302.584 
z
" style="fill:#ffffff;opacity:0.8;stroke:#cccccc;stroke-linejoin:miter;"/>
    </g>
    <g id="line2d_73">
     <path d="M 66.6 190.257437 
L 86.6 190.257437 
" style="fill:none;stroke:#1f77b4;stroke-linecap:square;stroke-width:1.5;"/>
    </g>
    <g id="line2d_74"/>
    <g id="text_14">
     <!-- SGD, lr 10 -->
     <defs>
      <path d="M 53.515625 70.515625 
L 53.515625 60.890625 
Q 47.90625 63.578125 42.921875 64.890625 
Q 37.9375 66.21875 33.296875 66.21875 
Q 25.25 66.21875 20.875 63.09375 
Q 16.5 59.96875 16.5 54.203125 
Q 16.5 49.359375 19.40625 46.890625 
Q 22.3125 44.4375 30.421875 42.921875 
L 36.375 41.703125 
Q 47.40625 39.59375 52.65625 34.296875 
Q 57.90625 29 57.90625 20.125 
Q 57.90625 9.515625 50.796875 4.046875 
Q 43.703125 -1.421875 29.984375 -1.421875 
Q 24.8125 -1.421875 18.96875 -0.25 
Q 13.140625 0.921875 6.890625 3.21875 
L 6.890625 13.375 
Q 12.890625 10.015625 18.65625 8.296875 
Q 24.421875 6.59375 29.984375 6.59375 
Q 38.421875 6.59375 43.015625 9.90625 
Q 47.609375 13.234375 47.609375 19.390625 
Q 47.609375 24.75 44.3125 27.78125 
Q 41.015625 30.8125 33.5 32.328125 
L 27.484375 33.5 
Q 16.453125 35.6875 11.515625 40.375 
Q 6.59375 45.0625 6.59375 53.421875 
Q 6.59375 63.09375 13.40625 68.65625 
Q 20.21875 74.21875 32.171875 74.21875 
Q 37.3125 74.21875 42.625 73.28125 
Q 47.953125 72.359375 53.515625 70.515625 
z
" id="DejaVuSans-53"/>
      <path d="M 59.515625 10.40625 
L 59.515625 29.984375 
L 43.40625 29.984375 
L 43.40625 38.09375 
L 69.28125 38.09375 
L 69.28125 6.78125 
Q 63.578125 2.734375 56.6875 0.65625 
Q 49.8125 -1.421875 42 -1.421875 
Q 24.90625 -1.421875 15.25 8.5625 
Q 5.609375 18.5625 5.609375 36.375 
Q 5.609375 54.25 15.25 64.234375 
Q 24.90625 74.21875 42 74.21875 
Q 49.125 74.21875 55.546875 72.453125 
Q 61.96875 70.703125 67.390625 67.28125 
L 67.390625 56.78125 
Q 61.921875 61.421875 55.765625 63.765625 
Q 49.609375 66.109375 42.828125 66.109375 
Q 29.4375 66.109375 22.71875 58.640625 
Q 16.015625 51.171875 16.015625 36.375 
Q 16.015625 21.625 22.71875 14.15625 
Q 29.4375 6.6875 42.828125 6.6875 
Q 48.046875 6.6875 52.140625 7.59375 
Q 56.25 8.5 59.515625 10.40625 
z
" id="DejaVuSans-47"/>
      <path d="M 19.671875 64.796875 
L 19.671875 8.109375 
L 31.59375 8.109375 
Q 46.6875 8.109375 53.6875 14.9375 
Q 60.6875 21.78125 60.6875 36.53125 
Q 60.6875 51.171875 53.6875 57.984375 
Q 46.6875 64.796875 31.59375 64.796875 
z
M 9.8125 72.90625 
L 30.078125 72.90625 
Q 51.265625 72.90625 61.171875 64.09375 
Q 71.09375 55.28125 71.09375 36.53125 
Q 71.09375 17.671875 61.125 8.828125 
Q 51.171875 0 30.078125 0 
L 9.8125 0 
z
" id="DejaVuSans-44"/>
      <path d="M 11.71875 12.40625 
L 22.015625 12.40625 
L 22.015625 4 
L 14.015625 -11.625 
L 7.71875 -11.625 
L 11.71875 4 
z
" id="DejaVuSans-2c"/>
      <path id="DejaVuSans-20"/>
      <path d="M 41.109375 46.296875 
Q 39.59375 47.171875 37.8125 47.578125 
Q 36.03125 48 33.890625 48 
Q 26.265625 48 22.1875 43.046875 
Q 18.109375 38.09375 18.109375 28.8125 
L 18.109375 0 
L 9.078125 0 
L 9.078125 54.6875 
L 18.109375 54.6875 
L 18.109375 46.1875 
Q 20.953125 51.171875 25.484375 53.578125 
Q 30.03125 56 36.53125 56 
Q 37.453125 56 38.578125 55.875 
Q 39.703125 55.765625 41.0625 55.515625 
z
" id="DejaVuSans-72"/>
     </defs>
     <g transform="translate(94.6 193.757437)scale(0.1 -0.1)">
      <use xlink:href="#DejaVuSans-53"/>
      <use x="63.476562" xlink:href="#DejaVuSans-47"/>
      <use x="140.966797" xlink:href="#DejaVuSans-44"/>
      <use x="217.96875" xlink:href="#DejaVuSans-2c"/>
      <use x="249.755859" xlink:href="#DejaVuSans-20"/>
      <use x="281.542969" xlink:href="#DejaVuSans-6c"/>
      <use x="309.326172" xlink:href="#DejaVuSans-72"/>
      <use x="350.439453" xlink:href="#DejaVuSans-20"/>
      <use x="382.226562" xlink:href="#DejaVuSans-31"/>
      <use x="445.849609" xlink:href="#DejaVuSans-30"/>
     </g>
    </g>
    <g id="line2d_75">
     <path d="M 66.6 204.935563 
L 86.6 204.935563 
" style="fill:none;stroke:#ff7f0e;stroke-linecap:square;stroke-width:1.5;"/>
    </g>
    <g id="line2d_76"/>
    <g id="text_15">
     <!-- SGD, lr 1 -->
     <g transform="translate(94.6 208.435563)scale(0.1 -0.1)">
      <use xlink:href="#DejaVuSans-53"/>
      <use x="63.476562" xlink:href="#DejaVuSans-47"/>
      <use x="140.966797" xlink:href="#DejaVuSans-44"/>
      <use x="217.96875" xlink:href="#DejaVuSans-2c"/>
      <use x="249.755859" xlink:href="#DejaVuSans-20"/>
      <use x="281.542969" xlink:href="#DejaVuSans-6c"/>
      <use x="309.326172" xlink:href="#DejaVuSans-72"/>
      <use x="350.439453" xlink:href="#DejaVuSans-20"/>
      <use x="382.226562" xlink:href="#DejaVuSans-31"/>
     </g>
    </g>
    <g id="line2d_77">
     <path d="M 66.6 219.613687 
L 86.6 219.613687 
" style="fill:none;stroke:#2ca02c;stroke-linecap:square;stroke-width:1.5;"/>
    </g>
    <g id="line2d_78"/>
    <g id="text_16">
     <!-- SGD, lr 0.1 -->
     <defs>
      <path d="M 10.6875 12.40625 
L 21 12.40625 
L 21 0 
L 10.6875 0 
z
" id="DejaVuSans-2e"/>
     </defs>
     <g transform="translate(94.6 223.113687)scale(0.1 -0.1)">
      <use xlink:href="#DejaVuSans-53"/>
      <use x="63.476562" xlink:href="#DejaVuSans-47"/>
      <use x="140.966797" xlink:href="#DejaVuSans-44"/>
      <use x="217.96875" xlink:href="#DejaVuSans-2c"/>
      <use x="249.755859" xlink:href="#DejaVuSans-20"/>
      <use x="281.542969" xlink:href="#DejaVuSans-6c"/>
      <use x="309.326172" xlink:href="#DejaVuSans-72"/>
      <use x="350.439453" xlink:href="#DejaVuSans-20"/>
      <use x="382.226562" xlink:href="#DejaVuSans-30"/>
      <use x="445.849609" xlink:href="#DejaVuSans-2e"/>
      <use x="477.636719" xlink:href="#DejaVuSans-31"/>
     </g>
    </g>
    <g id="line2d_79">
     <path d="M 66.6 234.291812 
L 86.6 234.291812 
" style="fill:none;stroke:#d62728;stroke-linecap:square;stroke-width:1.5;"/>
    </g>
    <g id="line2d_80"/>
    <g id="text_17">
     <!-- SGD, lr 0.01 -->
     <g transform="translate(94.6 237.791812)scale(0.1 -0.1)">
      <use xlink:href="#DejaVuSans-53"/>
      <use x="63.476562" xlink:href="#DejaVuSans-47"/>
      <use x="140.966797" xlink:href="#DejaVuSans-44"/>
      <use x="217.96875" xlink:href="#DejaVuSans-2c"/>
      <use x="249.755859" xlink:href="#DejaVuSans-20"/>
      <use x="281.542969" xlink:href="#DejaVuSans-6c"/>
      <use x="309.326172" xlink:href="#DejaVuSans-72"/>
      <use x="350.439453" xlink:href="#DejaVuSans-20"/>
      <use x="382.226562" xlink:href="#DejaVuSans-30"/>
      <use x="445.849609" xlink:href="#DejaVuSans-2e"/>
      <use x="477.636719" xlink:href="#DejaVuSans-30"/>
      <use x="541.259766" xlink:href="#DejaVuSans-31"/>
     </g>
    </g>
    <g id="line2d_81">
     <path d="M 66.6 248.969937 
L 86.6 248.969937 
" style="fill:none;stroke:#9467bd;stroke-linecap:square;stroke-width:1.5;"/>
    </g>
    <g id="line2d_82"/>
    <g id="text_18">
     <!-- SGD, lr 0.001 -->
     <g transform="translate(94.6 252.469937)scale(0.1 -0.1)">
      <use xlink:href="#DejaVuSans-53"/>
      <use x="63.476562" xlink:href="#DejaVuSans-47"/>
      <use x="140.966797" xlink:href="#DejaVuSans-44"/>
      <use x="217.96875" xlink:href="#DejaVuSans-2c"/>
      <use x="249.755859" xlink:href="#DejaVuSans-20"/>
      <use x="281.542969" xlink:href="#DejaVuSans-6c"/>
      <use x="309.326172" xlink:href="#DejaVuSans-72"/>
      <use x="350.439453" xlink:href="#DejaVuSans-20"/>
      <use x="382.226562" xlink:href="#DejaVuSans-30"/>
      <use x="445.849609" xlink:href="#DejaVuSans-2e"/>
      <use x="477.636719" xlink:href="#DejaVuSans-30"/>
      <use x="541.259766" xlink:href="#DejaVuSans-30"/>
      <use x="604.882812" xlink:href="#DejaVuSans-31"/>
     </g>
    </g>
    <g id="line2d_83">
     <path d="M 66.6 263.648062 
L 86.6 263.648062 
" style="fill:none;stroke:#8c564b;stroke-dasharray:5.55,2.4;stroke-dashoffset:0;stroke-width:1.5;"/>
    </g>
    <g id="line2d_84"/>
    <g id="text_19">
     <!-- SGN, cg iter 10 -->
     <defs>
      <path d="M 9.8125 72.90625 
L 23.09375 72.90625 
L 55.421875 11.921875 
L 55.421875 72.90625 
L 64.984375 72.90625 
L 64.984375 0 
L 51.703125 0 
L 19.390625 60.984375 
L 19.390625 0 
L 9.8125 0 
z
" id="DejaVuSans-4e"/>
      <path d="M 45.40625 27.984375 
Q 45.40625 37.75 41.375 43.109375 
Q 37.359375 48.484375 30.078125 48.484375 
Q 22.859375 48.484375 18.828125 43.109375 
Q 14.796875 37.75 14.796875 27.984375 
Q 14.796875 18.265625 18.828125 12.890625 
Q 22.859375 7.515625 30.078125 7.515625 
Q 37.359375 7.515625 41.375 12.890625 
Q 45.40625 18.265625 45.40625 27.984375 
z
M 54.390625 6.78125 
Q 54.390625 -7.171875 48.1875 -13.984375 
Q 42 -20.796875 29.203125 -20.796875 
Q 24.46875 -20.796875 20.265625 -20.09375 
Q 16.0625 -19.390625 12.109375 -17.921875 
L 12.109375 -9.1875 
Q 16.0625 -11.328125 19.921875 -12.34375 
Q 23.78125 -13.375 27.78125 -13.375 
Q 36.625 -13.375 41.015625 -8.765625 
Q 45.40625 -4.15625 45.40625 5.171875 
L 45.40625 9.625 
Q 42.625 4.78125 38.28125 2.390625 
Q 33.9375 0 27.875 0 
Q 17.828125 0 11.671875 7.65625 
Q 5.515625 15.328125 5.515625 27.984375 
Q 5.515625 40.671875 11.671875 48.328125 
Q 17.828125 56 27.875 56 
Q 33.9375 56 38.28125 53.609375 
Q 42.625 51.21875 45.40625 46.390625 
L 45.40625 54.6875 
L 54.390625 54.6875 
z
" id="DejaVuSans-67"/>
      <path d="M 9.421875 54.6875 
L 18.40625 54.6875 
L 18.40625 0 
L 9.421875 0 
z
M 9.421875 75.984375 
L 18.40625 75.984375 
L 18.40625 64.59375 
L 9.421875 64.59375 
z
" id="DejaVuSans-69"/>
      <path d="M 18.3125 70.21875 
L 18.3125 54.6875 
L 36.8125 54.6875 
L 36.8125 47.703125 
L 18.3125 47.703125 
L 18.3125 18.015625 
Q 18.3125 11.328125 20.140625 9.421875 
Q 21.96875 7.515625 27.59375 7.515625 
L 36.8125 7.515625 
L 36.8125 0 
L 27.59375 0 
Q 17.1875 0 13.234375 3.875 
Q 9.28125 7.765625 9.28125 18.015625 
L 9.28125 47.703125 
L 2.6875 47.703125 
L 2.6875 54.6875 
L 9.28125 54.6875 
L 9.28125 70.21875 
z
" id="DejaVuSans-74"/>
     </defs>
     <g transform="translate(94.6 267.148062)scale(0.1 -0.1)">
      <use xlink:href="#DejaVuSans-53"/>
      <use x="63.476562" xlink:href="#DejaVuSans-47"/>
      <use x="140.966797" xlink:href="#DejaVuSans-4e"/>
      <use x="215.771484" xlink:href="#DejaVuSans-2c"/>
      <use x="247.558594" xlink:href="#DejaVuSans-20"/>
      <use x="279.345703" xlink:href="#DejaVuSans-63"/>
      <use x="334.326172" xlink:href="#DejaVuSans-67"/>
      <use x="397.802734" xlink:href="#DejaVuSans-20"/>
      <use x="429.589844" xlink:href="#DejaVuSans-69"/>
      <use x="457.373047" xlink:href="#DejaVuSans-74"/>
      <use x="496.582031" xlink:href="#DejaVuSans-65"/>
      <use x="558.105469" xlink:href="#DejaVuSans-72"/>
      <use x="599.21875" xlink:href="#DejaVuSans-20"/>
      <use x="631.005859" xlink:href="#DejaVuSans-31"/>
      <use x="694.628906" xlink:href="#DejaVuSans-30"/>
     </g>
    </g>
    <g id="line2d_85">
     <path d="M 66.6 278.326187 
L 86.6 278.326187 
" style="fill:none;stroke:#e377c2;stroke-dasharray:5.55,2.4;stroke-dashoffset:0;stroke-width:1.5;"/>
    </g>
    <g id="line2d_86"/>
    <g id="text_20">
     <!-- SGN, cg iter 5 -->
     <g transform="translate(94.6 281.826187)scale(0.1 -0.1)">
      <use xlink:href="#DejaVuSans-53"/>
      <use x="63.476562" xlink:href="#DejaVuSans-47"/>
      <use x="140.966797" xlink:href="#DejaVuSans-4e"/>
      <use x="215.771484" xlink:href="#DejaVuSans-2c"/>
      <use x="247.558594" xlink:href="#DejaVuSans-20"/>
      <use x="279.345703" xlink:href="#DejaVuSans-63"/>
      <use x="334.326172" xlink:href="#DejaVuSans-67"/>
      <use x="397.802734" xlink:href="#DejaVuSans-20"/>
      <use x="429.589844" xlink:href="#DejaVuSans-69"/>
      <use x="457.373047" xlink:href="#DejaVuSans-74"/>
      <use x="496.582031" xlink:href="#DejaVuSans-65"/>
      <use x="558.105469" xlink:href="#DejaVuSans-72"/>
      <use x="599.21875" xlink:href="#DejaVuSans-20"/>
      <use x="631.005859" xlink:href="#DejaVuSans-35"/>
     </g>
    </g>
    <g id="line2d_87">
     <path d="M 66.6 293.004312 
L 86.6 293.004312 
" style="fill:none;stroke:#7f7f7f;stroke-dasharray:5.55,2.4;stroke-dashoffset:0;stroke-width:1.5;"/>
    </g>
    <g id="line2d_88"/>
    <g id="text_21">
     <!-- SGN, cg iter 3 -->
     <defs>
      <path d="M 40.578125 39.3125 
Q 47.65625 37.796875 51.625 33 
Q 55.609375 28.21875 55.609375 21.1875 
Q 55.609375 10.40625 48.1875 4.484375 
Q 40.765625 -1.421875 27.09375 -1.421875 
Q 22.515625 -1.421875 17.65625 -0.515625 
Q 12.796875 0.390625 7.625 2.203125 
L 7.625 11.71875 
Q 11.71875 9.328125 16.59375 8.109375 
Q 21.484375 6.890625 26.8125 6.890625 
Q 36.078125 6.890625 40.9375 10.546875 
Q 45.796875 14.203125 45.796875 21.1875 
Q 45.796875 27.640625 41.28125 31.265625 
Q 36.765625 34.90625 28.71875 34.90625 
L 20.21875 34.90625 
L 20.21875 43.015625 
L 29.109375 43.015625 
Q 36.375 43.015625 40.234375 45.921875 
Q 44.09375 48.828125 44.09375 54.296875 
Q 44.09375 59.90625 40.109375 62.90625 
Q 36.140625 65.921875 28.71875 65.921875 
Q 24.65625 65.921875 20.015625 65.03125 
Q 15.375 64.15625 9.8125 62.3125 
L 9.8125 71.09375 
Q 15.4375 72.65625 20.34375 73.4375 
Q 25.25 74.21875 29.59375 74.21875 
Q 40.828125 74.21875 47.359375 69.109375 
Q 53.90625 64.015625 53.90625 55.328125 
Q 53.90625 49.265625 50.4375 45.09375 
Q 46.96875 40.921875 40.578125 39.3125 
z
" id="DejaVuSans-33"/>
     </defs>
     <g transform="translate(94.6 296.504312)scale(0.1 -0.1)">
      <use xlink:href="#DejaVuSans-53"/>
      <use x="63.476562" xlink:href="#DejaVuSans-47"/>
      <use x="140.966797" xlink:href="#DejaVuSans-4e"/>
      <use x="215.771484" xlink:href="#DejaVuSans-2c"/>
      <use x="247.558594" xlink:href="#DejaVuSans-20"/>
      <use x="279.345703" xlink:href="#DejaVuSans-63"/>
      <use x="334.326172" xlink:href="#DejaVuSans-67"/>
      <use x="397.802734" xlink:href="#DejaVuSans-20"/>
      <use x="429.589844" xlink:href="#DejaVuSans-69"/>
      <use x="457.373047" xlink:href="#DejaVuSans-74"/>
      <use x="496.582031" xlink:href="#DejaVuSans-65"/>
      <use x="558.105469" xlink:href="#DejaVuSans-72"/>
      <use x="599.21875" xlink:href="#DejaVuSans-20"/>
      <use x="631.005859" xlink:href="#DejaVuSans-33"/>
     </g>
    </g>
   </g>
  </g>
 </g>
 <defs>
  <clipPath id="p234156783a">
   <rect height="266.112" width="357.12" x="57.6" y="41.472"/>
  </clipPath>
 </defs>
</svg>
