<?xml version="1.0" encoding="utf-8" standalone="no"?>
<!DOCTYPE svg PUBLIC "-//W3C//DTD SVG 1.1//EN"
  "http://www.w3.org/Graphics/SVG/1.1/DTD/svg11.dtd">
<!-- Created with matplotlib (http://matplotlib.org/) -->
<svg height="345.6pt" version="1.1" viewBox="0 0 460.8 345.6" width="460.8pt" xmlns="http://www.w3.org/2000/svg" xmlns:xlink="http://www.w3.org/1999/xlink">
 <defs>
  <style type="text/css">
*{stroke-linecap:butt;stroke-linejoin:round;}
  </style>
 </defs>
 <g id="figure_1">
  <g id="patch_1">
   <path d="M 0 345.6 
L 460.8 345.6 
L 460.8 0 
L 0 0 
z
" style="fill:#ffffff;"/>
  </g>
  <g id="axes_1">
   <g id="patch_2">
    <path d="M 57.6 307.584 
L 414.72 307.584 
L 414.72 41.472 
L 57.6 41.472 
z
" style="fill:#ffffff;"/>
   </g>
   <g id="matplotlib.axis_1">
    <g id="xtick_1">
     <g id="line2d_1">
      <path clip-path="url(#p31b26279d5)" d="M 73.290733 307.584 
L 73.290733 41.472 
" style="fill:none;stroke:#b0b0b0;stroke-linecap:square;stroke-width:0.8;"/>
     </g>
     <g id="line2d_2">
      <defs>
       <path d="M 0 0 
L 0 3.5 
" id="mfb87e8b971" style="stroke:#000000;stroke-width:0.8;"/>
      </defs>
      <g>
       <use style="stroke:#000000;stroke-width:0.8;" x="73.290733" xlink:href="#mfb87e8b971" y="307.584"/>
      </g>
     </g>
     <g id="text_1">
      <!-- 0 -->
      <defs>
       <path d="M 31.78125 66.40625 
Q 24.171875 66.40625 20.328125 58.90625 
Q 16.5 51.421875 16.5 36.375 
Q 16.5 21.390625 20.328125 13.890625 
Q 24.171875 6.390625 31.78125 6.390625 
Q 39.453125 6.390625 43.28125 13.890625 
Q 47.125 21.390625 47.125 36.375 
Q 47.125 51.421875 43.28125 58.90625 
Q 39.453125 66.40625 31.78125 66.40625 
z
M 31.78125 74.21875 
Q 44.046875 74.21875 50.515625 64.515625 
Q 56.984375 54.828125 56.984375 36.375 
Q 56.984375 17.96875 50.515625 8.265625 
Q 44.046875 -1.421875 31.78125 -1.421875 
Q 19.53125 -1.421875 13.0625 8.265625 
Q 6.59375 17.96875 6.59375 36.375 
Q 6.59375 54.828125 13.0625 64.515625 
Q 19.53125 74.21875 31.78125 74.21875 
z
" id="DejaVuSans-30"/>
      </defs>
      <g transform="translate(70.109483 322.182437)scale(0.1 -0.1)">
       <use xlink:href="#DejaVuSans-30"/>
      </g>
     </g>
    </g>
    <g id="xtick_2">
     <g id="line2d_3">
      <path clip-path="url(#p31b26279d5)" d="M 127.490156 307.584 
L 127.490156 41.472 
" style="fill:none;stroke:#b0b0b0;stroke-linecap:square;stroke-width:0.8;"/>
     </g>
     <g id="line2d_4">
      <g>
       <use style="stroke:#000000;stroke-width:0.8;" x="127.490156" xlink:href="#mfb87e8b971" y="307.584"/>
      </g>
     </g>
     <g id="text_2">
      <!-- 100 -->
      <defs>
       <path d="M 12.40625 8.296875 
L 28.515625 8.296875 
L 28.515625 63.921875 
L 10.984375 60.40625 
L 10.984375 69.390625 
L 28.421875 72.90625 
L 38.28125 72.90625 
L 38.28125 8.296875 
L 54.390625 8.296875 
L 54.390625 0 
L 12.40625 0 
z
" id="DejaVuSans-31"/>
      </defs>
      <g transform="translate(117.946406 322.182437)scale(0.1 -0.1)">
       <use xlink:href="#DejaVuSans-31"/>
       <use x="63.623047" xlink:href="#DejaVuSans-30"/>
       <use x="127.246094" xlink:href="#DejaVuSans-30"/>
      </g>
     </g>
    </g>
    <g id="xtick_3">
     <g id="line2d_5">
      <path clip-path="url(#p31b26279d5)" d="M 181.68958 307.584 
L 181.68958 41.472 
" style="fill:none;stroke:#b0b0b0;stroke-linecap:square;stroke-width:0.8;"/>
     </g>
     <g id="line2d_6">
      <g>
       <use style="stroke:#000000;stroke-width:0.8;" x="181.68958" xlink:href="#mfb87e8b971" y="307.584"/>
      </g>
     </g>
     <g id="text_3">
      <!-- 200 -->
      <defs>
       <path d="M 19.1875 8.296875 
L 53.609375 8.296875 
L 53.609375 0 
L 7.328125 0 
L 7.328125 8.296875 
Q 12.9375 14.109375 22.625 23.890625 
Q 32.328125 33.6875 34.8125 36.53125 
Q 39.546875 41.84375 41.421875 45.53125 
Q 43.3125 49.21875 43.3125 52.78125 
Q 43.3125 58.59375 39.234375 62.25 
Q 35.15625 65.921875 28.609375 65.921875 
Q 23.96875 65.921875 18.8125 64.3125 
Q 13.671875 62.703125 7.8125 59.421875 
L 7.8125 69.390625 
Q 13.765625 71.78125 18.9375 73 
Q 24.125 74.21875 28.421875 74.21875 
Q 39.75 74.21875 46.484375 68.546875 
Q 53.21875 62.890625 53.21875 53.421875 
Q 53.21875 48.921875 51.53125 44.890625 
Q 49.859375 40.875 45.40625 35.40625 
Q 44.1875 33.984375 37.640625 27.21875 
Q 31.109375 20.453125 19.1875 8.296875 
z
" id="DejaVuSans-32"/>
      </defs>
      <g transform="translate(172.14583 322.182437)scale(0.1 -0.1)">
       <use xlink:href="#DejaVuSans-32"/>
       <use x="63.623047" xlink:href="#DejaVuSans-30"/>
       <use x="127.246094" xlink:href="#DejaVuSans-30"/>
      </g>
     </g>
    </g>
    <g id="xtick_4">
     <g id="line2d_7">
      <path clip-path="url(#p31b26279d5)" d="M 235.889003 307.584 
L 235.889003 41.472 
" style="fill:none;stroke:#b0b0b0;stroke-linecap:square;stroke-width:0.8;"/>
     </g>
     <g id="line2d_8">
      <g>
       <use style="stroke:#000000;stroke-width:0.8;" x="235.889003" xlink:href="#mfb87e8b971" y="307.584"/>
      </g>
     </g>
     <g id="text_4">
      <!-- 300 -->
      <defs>
       <path d="M 40.578125 39.3125 
Q 47.65625 37.796875 51.625 33 
Q 55.609375 28.21875 55.609375 21.1875 
Q 55.609375 10.40625 48.1875 4.484375 
Q 40.765625 -1.421875 27.09375 -1.421875 
Q 22.515625 -1.421875 17.65625 -0.515625 
Q 12.796875 0.390625 7.625 2.203125 
L 7.625 11.71875 
Q 11.71875 9.328125 16.59375 8.109375 
Q 21.484375 6.890625 26.8125 6.890625 
Q 36.078125 6.890625 40.9375 10.546875 
Q 45.796875 14.203125 45.796875 21.1875 
Q 45.796875 27.640625 41.28125 31.265625 
Q 36.765625 34.90625 28.71875 34.90625 
L 20.21875 34.90625 
L 20.21875 43.015625 
L 29.109375 43.015625 
Q 36.375 43.015625 40.234375 45.921875 
Q 44.09375 48.828125 44.09375 54.296875 
Q 44.09375 59.90625 40.109375 62.90625 
Q 36.140625 65.921875 28.71875 65.921875 
Q 24.65625 65.921875 20.015625 65.03125 
Q 15.375 64.15625 9.8125 62.3125 
L 9.8125 71.09375 
Q 15.4375 72.65625 20.34375 73.4375 
Q 25.25 74.21875 29.59375 74.21875 
Q 40.828125 74.21875 47.359375 69.109375 
Q 53.90625 64.015625 53.90625 55.328125 
Q 53.90625 49.265625 50.4375 45.09375 
Q 46.96875 40.921875 40.578125 39.3125 
z
" id="DejaVuSans-33"/>
      </defs>
      <g transform="translate(226.345253 322.182437)scale(0.1 -0.1)">
       <use xlink:href="#DejaVuSans-33"/>
       <use x="63.623047" xlink:href="#DejaVuSans-30"/>
       <use x="127.246094" xlink:href="#DejaVuSans-30"/>
      </g>
     </g>
    </g>
    <g id="xtick_5">
     <g id="line2d_9">
      <path clip-path="url(#p31b26279d5)" d="M 290.088426 307.584 
L 290.088426 41.472 
" style="fill:none;stroke:#b0b0b0;stroke-linecap:square;stroke-width:0.8;"/>
     </g>
     <g id="line2d_10">
      <g>
       <use style="stroke:#000000;stroke-width:0.8;" x="290.088426" xlink:href="#mfb87e8b971" y="307.584"/>
      </g>
     </g>
     <g id="text_5">
      <!-- 400 -->
      <defs>
       <path d="M 37.796875 64.3125 
L 12.890625 25.390625 
L 37.796875 25.390625 
z
M 35.203125 72.90625 
L 47.609375 72.90625 
L 47.609375 25.390625 
L 58.015625 25.390625 
L 58.015625 17.1875 
L 47.609375 17.1875 
L 47.609375 0 
L 37.796875 0 
L 37.796875 17.1875 
L 4.890625 17.1875 
L 4.890625 26.703125 
z
" id="DejaVuSans-34"/>
      </defs>
      <g transform="translate(280.544676 322.182437)scale(0.1 -0.1)">
       <use xlink:href="#DejaVuSans-34"/>
       <use x="63.623047" xlink:href="#DejaVuSans-30"/>
       <use x="127.246094" xlink:href="#DejaVuSans-30"/>
      </g>
     </g>
    </g>
    <g id="xtick_6">
     <g id="line2d_11">
      <path clip-path="url(#p31b26279d5)" d="M 344.287849 307.584 
L 344.287849 41.472 
" style="fill:none;stroke:#b0b0b0;stroke-linecap:square;stroke-width:0.8;"/>
     </g>
     <g id="line2d_12">
      <g>
       <use style="stroke:#000000;stroke-width:0.8;" x="344.287849" xlink:href="#mfb87e8b971" y="307.584"/>
      </g>
     </g>
     <g id="text_6">
      <!-- 500 -->
      <defs>
       <path d="M 10.796875 72.90625 
L 49.515625 72.90625 
L 49.515625 64.59375 
L 19.828125 64.59375 
L 19.828125 46.734375 
Q 21.96875 47.46875 24.109375 47.828125 
Q 26.265625 48.1875 28.421875 48.1875 
Q 40.625 48.1875 47.75 41.5 
Q 54.890625 34.8125 54.890625 23.390625 
Q 54.890625 11.625 47.5625 5.09375 
Q 40.234375 -1.421875 26.90625 -1.421875 
Q 22.3125 -1.421875 17.546875 -0.640625 
Q 12.796875 0.140625 7.71875 1.703125 
L 7.71875 11.625 
Q 12.109375 9.234375 16.796875 8.0625 
Q 21.484375 6.890625 26.703125 6.890625 
Q 35.15625 6.890625 40.078125 11.328125 
Q 45.015625 15.765625 45.015625 23.390625 
Q 45.015625 31 40.078125 35.4375 
Q 35.15625 39.890625 26.703125 39.890625 
Q 22.75 39.890625 18.8125 39.015625 
Q 14.890625 38.140625 10.796875 36.28125 
z
" id="DejaVuSans-35"/>
      </defs>
      <g transform="translate(334.744099 322.182437)scale(0.1 -0.1)">
       <use xlink:href="#DejaVuSans-35"/>
       <use x="63.623047" xlink:href="#DejaVuSans-30"/>
       <use x="127.246094" xlink:href="#DejaVuSans-30"/>
      </g>
     </g>
    </g>
    <g id="xtick_7">
     <g id="line2d_13">
      <path clip-path="url(#p31b26279d5)" d="M 398.487273 307.584 
L 398.487273 41.472 
" style="fill:none;stroke:#b0b0b0;stroke-linecap:square;stroke-width:0.8;"/>
     </g>
     <g id="line2d_14">
      <g>
       <use style="stroke:#000000;stroke-width:0.8;" x="398.487273" xlink:href="#mfb87e8b971" y="307.584"/>
      </g>
     </g>
     <g id="text_7">
      <!-- 600 -->
      <defs>
       <path d="M 33.015625 40.375 
Q 26.375 40.375 22.484375 35.828125 
Q 18.609375 31.296875 18.609375 23.390625 
Q 18.609375 15.53125 22.484375 10.953125 
Q 26.375 6.390625 33.015625 6.390625 
Q 39.65625 6.390625 43.53125 10.953125 
Q 47.40625 15.53125 47.40625 23.390625 
Q 47.40625 31.296875 43.53125 35.828125 
Q 39.65625 40.375 33.015625 40.375 
z
M 52.59375 71.296875 
L 52.59375 62.3125 
Q 48.875 64.0625 45.09375 64.984375 
Q 41.3125 65.921875 37.59375 65.921875 
Q 27.828125 65.921875 22.671875 59.328125 
Q 17.53125 52.734375 16.796875 39.40625 
Q 19.671875 43.65625 24.015625 45.921875 
Q 28.375 48.1875 33.59375 48.1875 
Q 44.578125 48.1875 50.953125 41.515625 
Q 57.328125 34.859375 57.328125 23.390625 
Q 57.328125 12.15625 50.6875 5.359375 
Q 44.046875 -1.421875 33.015625 -1.421875 
Q 20.359375 -1.421875 13.671875 8.265625 
Q 6.984375 17.96875 6.984375 36.375 
Q 6.984375 53.65625 15.1875 63.9375 
Q 23.390625 74.21875 37.203125 74.21875 
Q 40.921875 74.21875 44.703125 73.484375 
Q 48.484375 72.75 52.59375 71.296875 
z
" id="DejaVuSans-36"/>
      </defs>
      <g transform="translate(388.943523 322.182437)scale(0.1 -0.1)">
       <use xlink:href="#DejaVuSans-36"/>
       <use x="63.623047" xlink:href="#DejaVuSans-30"/>
       <use x="127.246094" xlink:href="#DejaVuSans-30"/>
      </g>
     </g>
    </g>
    <g id="text_8">
     <!-- epochs -->
     <defs>
      <path d="M 56.203125 29.59375 
L 56.203125 25.203125 
L 14.890625 25.203125 
Q 15.484375 15.921875 20.484375 11.0625 
Q 25.484375 6.203125 34.421875 6.203125 
Q 39.59375 6.203125 44.453125 7.46875 
Q 49.3125 8.734375 54.109375 11.28125 
L 54.109375 2.78125 
Q 49.265625 0.734375 44.1875 -0.34375 
Q 39.109375 -1.421875 33.890625 -1.421875 
Q 20.796875 -1.421875 13.15625 6.1875 
Q 5.515625 13.8125 5.515625 26.8125 
Q 5.515625 40.234375 12.765625 48.109375 
Q 20.015625 56 32.328125 56 
Q 43.359375 56 49.78125 48.890625 
Q 56.203125 41.796875 56.203125 29.59375 
z
M 47.21875 32.234375 
Q 47.125 39.59375 43.09375 43.984375 
Q 39.0625 48.390625 32.421875 48.390625 
Q 24.90625 48.390625 20.390625 44.140625 
Q 15.875 39.890625 15.1875 32.171875 
z
" id="DejaVuSans-65"/>
      <path d="M 18.109375 8.203125 
L 18.109375 -20.796875 
L 9.078125 -20.796875 
L 9.078125 54.6875 
L 18.109375 54.6875 
L 18.109375 46.390625 
Q 20.953125 51.265625 25.265625 53.625 
Q 29.59375 56 35.59375 56 
Q 45.5625 56 51.78125 48.09375 
Q 58.015625 40.1875 58.015625 27.296875 
Q 58.015625 14.40625 51.78125 6.484375 
Q 45.5625 -1.421875 35.59375 -1.421875 
Q 29.59375 -1.421875 25.265625 0.953125 
Q 20.953125 3.328125 18.109375 8.203125 
z
M 48.6875 27.296875 
Q 48.6875 37.203125 44.609375 42.84375 
Q 40.53125 48.484375 33.40625 48.484375 
Q 26.265625 48.484375 22.1875 42.84375 
Q 18.109375 37.203125 18.109375 27.296875 
Q 18.109375 17.390625 22.1875 11.75 
Q 26.265625 6.109375 33.40625 6.109375 
Q 40.53125 6.109375 44.609375 11.75 
Q 48.6875 17.390625 48.6875 27.296875 
z
" id="DejaVuSans-70"/>
      <path d="M 30.609375 48.390625 
Q 23.390625 48.390625 19.1875 42.75 
Q 14.984375 37.109375 14.984375 27.296875 
Q 14.984375 17.484375 19.15625 11.84375 
Q 23.34375 6.203125 30.609375 6.203125 
Q 37.796875 6.203125 41.984375 11.859375 
Q 46.1875 17.53125 46.1875 27.296875 
Q 46.1875 37.015625 41.984375 42.703125 
Q 37.796875 48.390625 30.609375 48.390625 
z
M 30.609375 56 
Q 42.328125 56 49.015625 48.375 
Q 55.71875 40.765625 55.71875 27.296875 
Q 55.71875 13.875 49.015625 6.21875 
Q 42.328125 -1.421875 30.609375 -1.421875 
Q 18.84375 -1.421875 12.171875 6.21875 
Q 5.515625 13.875 5.515625 27.296875 
Q 5.515625 40.765625 12.171875 48.375 
Q 18.84375 56 30.609375 56 
z
" id="DejaVuSans-6f"/>
      <path d="M 48.78125 52.59375 
L 48.78125 44.1875 
Q 44.96875 46.296875 41.140625 47.34375 
Q 37.3125 48.390625 33.40625 48.390625 
Q 24.65625 48.390625 19.8125 42.84375 
Q 14.984375 37.3125 14.984375 27.296875 
Q 14.984375 17.28125 19.8125 11.734375 
Q 24.65625 6.203125 33.40625 6.203125 
Q 37.3125 6.203125 41.140625 7.25 
Q 44.96875 8.296875 48.78125 10.40625 
L 48.78125 2.09375 
Q 45.015625 0.34375 40.984375 -0.53125 
Q 36.96875 -1.421875 32.421875 -1.421875 
Q 20.0625 -1.421875 12.78125 6.34375 
Q 5.515625 14.109375 5.515625 27.296875 
Q 5.515625 40.671875 12.859375 48.328125 
Q 20.21875 56 33.015625 56 
Q 37.15625 56 41.109375 55.140625 
Q 45.0625 54.296875 48.78125 52.59375 
z
" id="DejaVuSans-63"/>
      <path d="M 54.890625 33.015625 
L 54.890625 0 
L 45.90625 0 
L 45.90625 32.71875 
Q 45.90625 40.484375 42.875 44.328125 
Q 39.84375 48.1875 33.796875 48.1875 
Q 26.515625 48.1875 22.3125 43.546875 
Q 18.109375 38.921875 18.109375 30.90625 
L 18.109375 0 
L 9.078125 0 
L 9.078125 75.984375 
L 18.109375 75.984375 
L 18.109375 46.1875 
Q 21.34375 51.125 25.703125 53.5625 
Q 30.078125 56 35.796875 56 
Q 45.21875 56 50.046875 50.171875 
Q 54.890625 44.34375 54.890625 33.015625 
z
" id="DejaVuSans-68"/>
      <path d="M 44.28125 53.078125 
L 44.28125 44.578125 
Q 40.484375 46.53125 36.375 47.5 
Q 32.28125 48.484375 27.875 48.484375 
Q 21.1875 48.484375 17.84375 46.4375 
Q 14.5 44.390625 14.5 40.28125 
Q 14.5 37.15625 16.890625 35.375 
Q 19.28125 33.59375 26.515625 31.984375 
L 29.59375 31.296875 
Q 39.15625 29.25 43.1875 25.515625 
Q 47.21875 21.78125 47.21875 15.09375 
Q 47.21875 7.46875 41.1875 3.015625 
Q 35.15625 -1.421875 24.609375 -1.421875 
Q 20.21875 -1.421875 15.453125 -0.5625 
Q 10.6875 0.296875 5.421875 2 
L 5.421875 11.28125 
Q 10.40625 8.6875 15.234375 7.390625 
Q 20.0625 6.109375 24.8125 6.109375 
Q 31.15625 6.109375 34.5625 8.28125 
Q 37.984375 10.453125 37.984375 14.40625 
Q 37.984375 18.0625 35.515625 20.015625 
Q 33.0625 21.96875 24.703125 23.78125 
L 21.578125 24.515625 
Q 13.234375 26.265625 9.515625 29.90625 
Q 5.8125 33.546875 5.8125 39.890625 
Q 5.8125 47.609375 11.28125 51.796875 
Q 16.75 56 26.8125 56 
Q 31.78125 56 36.171875 55.265625 
Q 40.578125 54.546875 44.28125 53.078125 
z
" id="DejaVuSans-73"/>
     </defs>
     <g transform="translate(218.327188 335.860562)scale(0.1 -0.1)">
      <use xlink:href="#DejaVuSans-65"/>
      <use x="61.523438" xlink:href="#DejaVuSans-70"/>
      <use x="125" xlink:href="#DejaVuSans-6f"/>
      <use x="186.181641" xlink:href="#DejaVuSans-63"/>
      <use x="241.162109" xlink:href="#DejaVuSans-68"/>
      <use x="304.541016" xlink:href="#DejaVuSans-73"/>
     </g>
    </g>
   </g>
   <g id="matplotlib.axis_2">
    <g id="ytick_1">
     <g id="line2d_15">
      <path clip-path="url(#p31b26279d5)" d="M 57.6 290.730859 
L 414.72 290.730859 
" style="fill:none;stroke:#b0b0b0;stroke-linecap:square;stroke-width:0.8;"/>
     </g>
     <g id="line2d_16">
      <defs>
       <path d="M 0 0 
L -3.5 0 
" id="mb3a2ae4854" style="stroke:#000000;stroke-width:0.8;"/>
      </defs>
      <g>
       <use style="stroke:#000000;stroke-width:0.8;" x="57.6" xlink:href="#mb3a2ae4854" y="290.730859"/>
      </g>
     </g>
     <g id="text_9">
      <!-- $\mathdefault{10^{-1}}$ -->
      <defs>
       <path d="M 10.59375 35.5 
L 73.1875 35.5 
L 73.1875 27.203125 
L 10.59375 27.203125 
z
" id="DejaVuSans-2212"/>
      </defs>
      <g transform="translate(27.1 294.530078)scale(0.1 -0.1)">
       <use transform="translate(0 0.684375)" xlink:href="#DejaVuSans-31"/>
       <use transform="translate(63.623047 0.684375)" xlink:href="#DejaVuSans-30"/>
       <use transform="translate(128.203125 38.965625)scale(0.7)" xlink:href="#DejaVuSans-2212"/>
       <use transform="translate(186.855469 38.965625)scale(0.7)" xlink:href="#DejaVuSans-31"/>
      </g>
     </g>
    </g>
    <g id="ytick_2">
     <g id="line2d_17">
      <path clip-path="url(#p31b26279d5)" d="M 57.6 47.300573 
L 414.72 47.300573 
" style="fill:none;stroke:#b0b0b0;stroke-linecap:square;stroke-width:0.8;"/>
     </g>
     <g id="line2d_18">
      <g>
       <use style="stroke:#000000;stroke-width:0.8;" x="57.6" xlink:href="#mb3a2ae4854" y="47.300573"/>
      </g>
     </g>
     <g id="text_10">
      <!-- $\mathdefault{10^{0}}$ -->
      <g transform="translate(33 51.099792)scale(0.1 -0.1)">
       <use transform="translate(0 0.765625)" xlink:href="#DejaVuSans-31"/>
       <use transform="translate(63.623047 0.765625)" xlink:href="#DejaVuSans-30"/>
       <use transform="translate(128.203125 39.046875)scale(0.7)" xlink:href="#DejaVuSans-30"/>
      </g>
     </g>
    </g>
    <g id="ytick_3">
     <g id="line2d_19">
      <path clip-path="url(#p31b26279d5)" d="M 57.6 301.869618 
L 414.72 301.869618 
" style="fill:none;stroke:#b0b0b0;stroke-linecap:square;stroke-width:0.8;"/>
     </g>
     <g id="line2d_20">
      <defs>
       <path d="M 0 0 
L -2 0 
" id="m0f4e039632" style="stroke:#000000;stroke-width:0.6;"/>
      </defs>
      <g>
       <use style="stroke:#000000;stroke-width:0.6;" x="57.6" xlink:href="#m0f4e039632" y="301.869618"/>
      </g>
     </g>
    </g>
    <g id="ytick_4">
     <g id="line2d_21">
      <path clip-path="url(#p31b26279d5)" d="M 57.6 217.451041 
L 414.72 217.451041 
" style="fill:none;stroke:#b0b0b0;stroke-linecap:square;stroke-width:0.8;"/>
     </g>
     <g id="line2d_22">
      <g>
       <use style="stroke:#000000;stroke-width:0.6;" x="57.6" xlink:href="#m0f4e039632" y="217.451041"/>
      </g>
     </g>
    </g>
    <g id="ytick_5">
     <g id="line2d_23">
      <path clip-path="url(#p31b26279d5)" d="M 57.6 174.585096 
L 414.72 174.585096 
" style="fill:none;stroke:#b0b0b0;stroke-linecap:square;stroke-width:0.8;"/>
     </g>
     <g id="line2d_24">
      <g>
       <use style="stroke:#000000;stroke-width:0.6;" x="57.6" xlink:href="#m0f4e039632" y="174.585096"/>
      </g>
     </g>
    </g>
    <g id="ytick_6">
     <g id="line2d_25">
      <path clip-path="url(#p31b26279d5)" d="M 57.6 144.171223 
L 414.72 144.171223 
" style="fill:none;stroke:#b0b0b0;stroke-linecap:square;stroke-width:0.8;"/>
     </g>
     <g id="line2d_26">
      <g>
       <use style="stroke:#000000;stroke-width:0.6;" x="57.6" xlink:href="#m0f4e039632" y="144.171223"/>
      </g>
     </g>
    </g>
    <g id="ytick_7">
     <g id="line2d_27">
      <path clip-path="url(#p31b26279d5)" d="M 57.6 120.580391 
L 414.72 120.580391 
" style="fill:none;stroke:#b0b0b0;stroke-linecap:square;stroke-width:0.8;"/>
     </g>
     <g id="line2d_28">
      <g>
       <use style="stroke:#000000;stroke-width:0.6;" x="57.6" xlink:href="#m0f4e039632" y="120.580391"/>
      </g>
     </g>
    </g>
    <g id="ytick_8">
     <g id="line2d_29">
      <path clip-path="url(#p31b26279d5)" d="M 57.6 101.305278 
L 414.72 101.305278 
" style="fill:none;stroke:#b0b0b0;stroke-linecap:square;stroke-width:0.8;"/>
     </g>
     <g id="line2d_30">
      <g>
       <use style="stroke:#000000;stroke-width:0.6;" x="57.6" xlink:href="#m0f4e039632" y="101.305278"/>
      </g>
     </g>
    </g>
    <g id="ytick_9">
     <g id="line2d_31">
      <path clip-path="url(#p31b26279d5)" d="M 57.6 85.008402 
L 414.72 85.008402 
" style="fill:none;stroke:#b0b0b0;stroke-linecap:square;stroke-width:0.8;"/>
     </g>
     <g id="line2d_32">
      <g>
       <use style="stroke:#000000;stroke-width:0.6;" x="57.6" xlink:href="#m0f4e039632" y="85.008402"/>
      </g>
     </g>
    </g>
    <g id="ytick_10">
     <g id="line2d_33">
      <path clip-path="url(#p31b26279d5)" d="M 57.6 70.891406 
L 414.72 70.891406 
" style="fill:none;stroke:#b0b0b0;stroke-linecap:square;stroke-width:0.8;"/>
     </g>
     <g id="line2d_34">
      <g>
       <use style="stroke:#000000;stroke-width:0.6;" x="57.6" xlink:href="#m0f4e039632" y="70.891406"/>
      </g>
     </g>
    </g>
    <g id="ytick_11">
     <g id="line2d_35">
      <path clip-path="url(#p31b26279d5)" d="M 57.6 58.439332 
L 414.72 58.439332 
" style="fill:none;stroke:#b0b0b0;stroke-linecap:square;stroke-width:0.8;"/>
     </g>
     <g id="line2d_36">
      <g>
       <use style="stroke:#000000;stroke-width:0.6;" x="57.6" xlink:href="#m0f4e039632" y="58.439332"/>
      </g>
     </g>
    </g>
    <g id="text_11">
     <!-- test acc -->
     <defs>
      <path d="M 18.3125 70.21875 
L 18.3125 54.6875 
L 36.8125 54.6875 
L 36.8125 47.703125 
L 18.3125 47.703125 
L 18.3125 18.015625 
Q 18.3125 11.328125 20.140625 9.421875 
Q 21.96875 7.515625 27.59375 7.515625 
L 36.8125 7.515625 
L 36.8125 0 
L 27.59375 0 
Q 17.1875 0 13.234375 3.875 
Q 9.28125 7.765625 9.28125 18.015625 
L 9.28125 47.703125 
L 2.6875 47.703125 
L 2.6875 54.6875 
L 9.28125 54.6875 
L 9.28125 70.21875 
z
" id="DejaVuSans-74"/>
      <path id="DejaVuSans-20"/>
      <path d="M 34.28125 27.484375 
Q 23.390625 27.484375 19.1875 25 
Q 14.984375 22.515625 14.984375 16.5 
Q 14.984375 11.71875 18.140625 8.90625 
Q 21.296875 6.109375 26.703125 6.109375 
Q 34.1875 6.109375 38.703125 11.40625 
Q 43.21875 16.703125 43.21875 25.484375 
L 43.21875 27.484375 
z
M 52.203125 31.203125 
L 52.203125 0 
L 43.21875 0 
L 43.21875 8.296875 
Q 40.140625 3.328125 35.546875 0.953125 
Q 30.953125 -1.421875 24.3125 -1.421875 
Q 15.921875 -1.421875 10.953125 3.296875 
Q 6 8.015625 6 15.921875 
Q 6 25.140625 12.171875 29.828125 
Q 18.359375 34.515625 30.609375 34.515625 
L 43.21875 34.515625 
L 43.21875 35.40625 
Q 43.21875 41.609375 39.140625 45 
Q 35.0625 48.390625 27.6875 48.390625 
Q 23 48.390625 18.546875 47.265625 
Q 14.109375 46.140625 10.015625 43.890625 
L 10.015625 52.203125 
Q 14.9375 54.109375 19.578125 55.046875 
Q 24.21875 56 28.609375 56 
Q 40.484375 56 46.34375 49.84375 
Q 52.203125 43.703125 52.203125 31.203125 
z
" id="DejaVuSans-61"/>
     </defs>
     <g transform="translate(21.020312 194.281125)rotate(-90)scale(0.1 -0.1)">
      <use xlink:href="#DejaVuSans-74"/>
      <use x="39.208984" xlink:href="#DejaVuSans-65"/>
      <use x="100.732422" xlink:href="#DejaVuSans-73"/>
      <use x="152.832031" xlink:href="#DejaVuSans-74"/>
      <use x="192.041016" xlink:href="#DejaVuSans-20"/>
      <use x="223.828125" xlink:href="#DejaVuSans-61"/>
      <use x="285.107422" xlink:href="#DejaVuSans-63"/>
      <use x="340.087891" xlink:href="#DejaVuSans-63"/>
     </g>
    </g>
   </g>
   <g id="line2d_37">
    <path clip-path="url(#p31b26279d5)" d="M 73.832727 289.741729 
L 74.374722 290.435256 
L 74.916716 289.000707 
L 75.45871 289.836033 
L 76.000704 286.65561 
L 76.542698 281.435993 
L 77.084693 272.883763 
L 77.626687 278.863034 
L 78.168681 283.026097 
L 79.25267 261.099564 
L 79.794664 263.89196 
L 80.336658 280.712307 
L 80.878652 260.311701 
L 81.420647 250.541523 
L 81.962641 248.970163 
L 82.504635 249.341163 
L 83.046629 244.044278 
L 83.588623 241.088136 
L 84.130618 249.176906 
L 84.672612 232.070647 
L 85.214606 220.382772 
L 85.7566 217.023738 
L 86.298595 225.1801 
L 86.840589 220.731163 
L 87.924577 195.072344 
L 89.008566 188.187832 
L 89.55056 191.406588 
L 90.634548 180.969251 
L 91.176543 178.505104 
L 91.718537 172.45701 
L 92.260531 174.754384 
L 92.802525 184.362211 
L 93.34452 172.074333 
L 93.886514 173.369281 
L 94.428508 173.526165 
L 94.970502 164.236903 
L 95.512497 162.745623 
L 96.596485 146.709673 
L 97.138479 145.004403 
L 97.680474 140.725986 
L 98.222468 142.834418 
L 99.306456 130.212265 
L 99.84845 129.17054 
L 100.390445 128.553132 
L 100.932439 123.33727 
L 101.474433 121.790388 
L 102.558422 116.755677 
L 103.100416 114.873952 
L 103.64241 112.226946 
L 104.184404 118.15363 
L 104.726399 112.989707 
L 105.268393 111.673526 
L 105.810387 106.733591 
L 106.352381 107.70628 
L 107.43637 101.338761 
L 107.978364 100.119079 
L 108.520358 100.256814 
L 109.062352 102.353566 
L 109.604347 98.970168 
L 110.146341 100.356304 
L 110.688335 97.067398 
L 111.230329 96.810409 
L 111.772324 92.898443 
L 112.314318 94.553293 
L 112.856312 92.74721 
L 113.398306 92.825239 
L 113.940301 92.024936 
L 114.482295 90.542494 
L 115.024289 90.878826 
L 115.566283 92.149282 
L 116.108277 88.286187 
L 116.650272 87.059513 
L 117.192266 86.557168 
L 117.73426 85.73736 
L 118.276254 85.802772 
L 118.818249 87.488469 
L 119.360243 85.335129 
L 119.902237 84.479614 
L 120.444231 85.235189 
L 120.986226 84.4015 
L 121.52822 83.830915 
L 122.070214 85.236702 
L 122.612208 85.220054 
L 123.154202 83.371895 
L 123.696197 83.425444 
L 124.238191 81.100401 
L 124.780185 79.689309 
L 125.322179 79.575912 
L 126.406168 77.955764 
L 126.948162 77.593289 
L 127.490156 85.061275 
L 128.032151 78.727149 
L 128.574145 76.209877 
L 129.658133 76.122363 
L 130.200127 75.761958 
L 130.742122 75.83948 
L 131.284116 76.055734 
L 131.82611 75.804865 
L 132.368104 75.998855 
L 132.910099 75.752272 
L 133.452093 77.866793 
L 133.994087 75.542161 
L 134.536081 77.178746 
L 135.078076 75.569783 
L 135.62007 75.853329 
L 136.162064 75.513165 
L 138.330041 75.220891 
L 138.872035 73.787817 
L 139.414029 77.569356 
L 139.956024 76.308591 
L 140.498018 77.952938 
L 141.040012 74.849821 
L 141.582006 75.831171 
L 142.124001 72.989494 
L 143.207989 72.651688 
L 143.749983 72.737719 
L 144.291978 70.520713 
L 144.833972 70.153941 
L 145.375966 67.579282 
L 145.91796 66.647178 
L 146.459954 66.226541 
L 147.001949 64.712493 
L 147.543943 68.983296 
L 148.085937 65.937375 
L 148.627931 66.052189 
L 149.169926 64.762364 
L 150.253914 64.508267 
L 150.795908 64.572979 
L 151.337903 64.418731 
L 151.879897 67.380952 
L 152.421891 64.56302 
L 152.963885 64.220034 
L 153.505879 64.428676 
L 154.589868 64.524441 
L 155.131862 64.354114 
L 155.673856 64.493339 
L 156.757845 64.234924 
L 159.467816 64.254779 
L 160.00981 64.148099 
L 160.551805 64.329271 
L 161.093799 64.267191 
L 161.635793 63.99447 
L 162.177787 64.202666 
L 162.719781 64.249815 
L 163.261776 64.07869 
L 163.80377 64.223756 
L 164.887758 64.305677 
L 165.429753 64.005612 
L 165.971747 64.153058 
L 166.513741 64.169178 
L 167.055735 64.311885 
L 167.59773 64.086125 
L 168.139724 64.217553 
L 168.681718 64.143139 
L 169.223712 63.956097 
L 169.765706 64.223756 
L 170.307701 64.107192 
L 170.849695 64.22996 
L 171.391689 64.042764 
L 171.933683 64.30071 
L 173.017672 63.858372 
L 173.559666 64.09356 
L 174.643655 64.052674 
L 175.185649 64.282087 
L 175.727643 64.084885 
L 176.269637 64.221275 
L 176.811632 63.915264 
L 177.89562 64.272156 
L 179.521603 64.068778 
L 180.063597 64.193983 
L 180.605591 63.970949 
L 181.147585 64.360325 
L 182.231574 64.077451 
L 182.773568 64.190262 
L 183.315562 64.048958 
L 183.857557 64.198945 
L 184.941545 63.923924 
L 186.025533 64.099756 
L 186.567528 63.95981 
L 187.109522 64.249815 
L 187.651516 64.079929 
L 188.735505 64.107192 
L 189.277499 63.850954 
L 189.819493 64.122065 
L 190.361487 64.068778 
L 190.903482 64.249815 
L 191.445476 63.895472 
L 191.98747 63.796568 
L 192.529464 63.996946 
L 194.155447 64.097277 
L 195.239435 63.954859 
L 195.78143 64.267191 
L 197.407412 63.937535 
L 198.491401 63.995708 
L 199.033395 64.25602 
L 200.117384 63.946197 
L 201.201372 63.92145 
L 201.743366 64.176619 
L 202.28536 63.977138 
L 202.827355 64.187781 
L 203.911343 63.842299 
L 204.453337 64.00066 
L 204.995332 63.909079 
L 206.621314 64.032856 
L 207.163309 63.842299 
L 207.705303 64.108431 
L 209.87328 64.016757 
L 210.415274 64.155538 
L 213.125245 64.066301 
L 213.667239 64.170418 
L 214.751228 64.011804 
L 215.835216 63.927636 
L 216.377211 64.1419 
L 216.919205 63.782975 
L 217.461199 64.032856 
L 218.003193 63.883104 
L 218.545187 64.047719 
L 219.087182 66.197462 
L 219.629176 64.145619 
L 220.713164 63.990755 
L 221.255159 64.016757 
L 221.797153 64.171658 
L 222.339147 63.818813 
L 222.881141 63.930111 
L 223.423136 63.920213 
L 223.96513 64.107192 
L 224.507124 63.915264 
L 225.049118 64.032856 
L 225.591112 63.951147 
L 226.675101 64.05639 
L 227.217095 63.766914 
L 227.759089 63.914027 
L 228.301084 63.827465 
L 228.843078 64.039049 
L 229.385072 64.032856 
L 229.927066 64.167938 
L 230.469061 63.961048 
L 231.553049 63.952384 
L 232.095043 63.800275 
L 232.637037 63.879394 
L 233.179032 64.083646 
L 233.721026 64.131982 
L 234.805014 63.910316 
L 236.430997 64.022948 
L 238.598974 64.035333 
L 239.140968 64.144379 
L 239.682963 63.923924 
L 240.766951 64.086125 
L 242.392934 64.057629 
L 242.934928 64.052674 
L 243.476922 64.196464 
L 245.102905 64.055151 
L 246.728888 64.026664 
L 247.270882 64.063823 
L 247.812876 64.34045 
L 248.35487 63.974663 
L 249.438859 64.077451 
L 251.064841 64.045242 
L 251.606836 63.794096 
L 252.14883 63.874447 
L 252.690824 63.821285 
L 253.232818 63.983328 
L 255.400795 64.076212 
L 256.484784 64.03781 
L 257.026778 64.096038 
L 257.568772 63.933823 
L 258.110766 64.161738 
L 258.652761 64.074973 
L 259.736749 64.174139 
L 260.278743 64.167938 
L 261.362732 63.843536 
L 261.904726 64.010565 
L 262.44672 64.315611 
L 263.530709 63.999422 
L 265.698686 63.978376 
L 266.24068 64.102234 
L 266.782674 64.003136 
L 268.408657 64.248574 
L 268.950651 64.122065 
L 270.03464 64.128263 
L 270.576634 64.02171 
L 271.118628 64.195223 
L 271.660622 64.145619 
L 272.202616 63.90042 
L 272.744611 63.901657 
L 273.286605 64.14066 
L 274.370593 64.193983 
L 274.912588 64.690058 
L 275.454582 63.998184 
L 275.996576 64.143139 
L 278.164553 64.253538 
L 278.706547 64.156778 
L 280.33253 64.207628 
L 280.874524 64.066301 
L 283.042501 64.096038 
L 283.584495 63.91279 
L 284.12649 64.103474 
L 284.668484 64.083646 
L 285.210478 63.906605 
L 285.752472 63.926399 
L 286.836461 64.726205 
L 287.378455 64.108431 
L 287.920449 64.155538 
L 288.462443 63.881867 
L 289.004438 64.201426 
L 290.088426 64.144379 
L 290.63042 64.176619 
L 291.172415 64.003136 
L 291.714409 64.077451 
L 292.256403 64.267191 
L 292.798397 64.02171 
L 293.882386 64.242369 
L 294.42438 64.097277 
L 294.966374 64.150578 
L 296.050363 64.108431 
L 297.134351 64.203907 
L 297.676345 63.922687 
L 298.21834 64.076212 
L 299.302328 64.129503 
L 299.844322 64.154298 
L 300.386317 64.324304 
L 300.928311 64.074973 
L 303.096288 64.234924 
L 304.72227 63.954859 
L 305.264265 64.18282 
L 305.806259 63.94001 
L 306.348253 64.306918 
L 306.890247 64.135701 
L 307.432242 64.145619 
L 307.974236 64.294502 
L 308.51623 64.155538 
L 309.058224 64.193983 
L 309.600219 64.066301 
L 310.142213 64.162978 
L 311.226201 63.949909 
L 311.768195 64.171658 
L 312.31019 64.127023 
L 312.852184 64.453542 
L 313.394178 64.077451 
L 316.646144 64.262226 
L 317.188138 64.00066 
L 317.730132 64.196464 
L 320.440103 64.10967 
L 324.776057 64.233683 
L 325.318051 64.127023 
L 325.860046 64.218794 
L 326.40204 63.974663 
L 326.944034 63.974663 
L 327.486028 64.149339 
L 328.028022 64.102234 
L 328.570017 64.207628 
L 331.279988 64.096038 
L 331.821982 64.231201 
L 332.363976 64.122065 
L 332.905971 64.310643 
L 335.073947 64.187781 
L 335.615942 64.351629 
L 337.241924 64.149339 
L 339.951896 64.238646 
L 340.49389 61.774601 
L 341.035884 61.41757 
L 342.119873 61.815828 
L 343.203861 61.659493 
L 344.287849 60.896897 
L 344.829844 61.537252 
L 345.371838 61.861924 
L 345.913832 60.967856 
L 346.455826 61.007566 
L 346.997821 59.640774 
L 347.539815 59.481689 
L 348.081809 57.949456 
L 348.623803 56.868774 
L 349.165798 56.862987 
L 349.707792 55.927423 
L 350.79178 55.855181 
L 351.875769 54.79332 
L 352.959757 54.653825 
L 353.501751 54.54055 
L 354.043746 54.545079 
L 354.58574 54.737727 
L 355.127734 54.524702 
L 356.753717 54.491879 
L 357.837705 54.425135 
L 358.921694 54.416088 
L 362.173659 54.3833 
L 362.715653 57.267654 
L 363.257648 54.52357 
L 363.799642 54.401389 
L 364.341636 54.489616 
L 364.88363 54.341481 
L 365.425625 54.425135 
L 365.967619 54.364084 
L 366.509613 54.433052 
L 367.593601 54.357302 
L 368.67759 54.336961 
L 369.219584 54.420611 
L 369.761578 54.301938 
L 371.387561 54.344871 
L 371.929555 54.496406 
L 372.47155 54.309845 
L 373.555538 54.27709 
L 374.639526 54.271444 
L 376.265509 54.440969 
L 376.807503 54.709374 
L 377.349498 54.382169 
L 378.433486 54.416088 
L 378.97548 54.284996 
L 379.517475 54.370865 
L 381.143457 54.27709 
L 381.685452 54.486222 
L 382.227446 54.336961 
L 387.647388 54.503196 
L 388.189382 54.265797 
L 389.273371 54.316624 
L 390.899353 54.356172 
L 395.235307 54.323402 
L 395.777302 54.405911 
L 396.86129 54.326792 
L 398.487273 54.362953 
L 398.487273 54.362953 
" style="fill:none;stroke:#1f77b4;stroke-linecap:square;stroke-width:1.5;"/>
   </g>
   <g id="line2d_38">
    <path clip-path="url(#p31b26279d5)" d="M 73.832727 120.874703 
L 74.374722 97.455755 
L 74.916716 87.153488 
L 75.45871 80.930247 
L 76.000704 76.732298 
L 77.084693 71.89388 
L 78.710675 67.848581 
L 79.794664 65.875603 
L 80.336658 65.009573 
L 81.420647 63.791625 
L 81.962641 63.435117 
L 83.046629 62.442269 
L 84.130618 61.72006 
L 84.672612 61.275094 
L 86.298595 60.590755 
L 87.924577 59.820329 
L 89.55056 59.347721 
L 90.634548 58.992875 
L 98.764462 57.617912 
L 104.184404 56.91392 
L 108.520358 56.55675 
L 109.062352 56.586757 
L 110.146341 56.444877 
L 112.314318 56.338881 
L 116.108277 56.142146 
L 117.192266 56.072055 
L 118.276254 55.962988 
L 120.986226 55.878109 
L 122.612208 55.711989 
L 126.948162 55.584998 
L 133.452093 55.344019 
L 140.498018 55.196961 
L 144.833972 55.055796 
L 145.375966 55.091069 
L 146.459954 54.985284 
L 147.543943 54.995516 
L 148.627931 54.93868 
L 150.253914 54.934135 
L 151.879897 54.860297 
L 154.047874 54.902321 
L 155.131862 54.806939 
L 166.513741 54.642492 
L 168.681718 54.628894 
L 180.063597 54.495274 
L 184.399551 54.41835 
L 186.025533 54.399127 
L 186.567528 54.472644 
L 187.651516 54.396866 
L 189.277499 54.367475 
L 190.361487 54.419481 
L 191.445476 54.318883 
L 194.155447 54.335831 
L 197.407412 54.26241 
L 199.033395 54.332441 
L 200.117384 54.321143 
L 201.201372 54.294031 
L 205.537326 54.273702 
L 206.621314 54.222896 
L 209.331285 54.266927 
L 209.87328 54.160834 
L 210.415274 54.253377 
L 211.499262 54.22854 
L 219.629176 54.138275 
L 220.713164 54.166474 
L 222.339147 54.131508 
L 246.186893 53.997388 
L 247.270882 53.999641 
L 251.064841 53.995136 
L 252.690824 53.961352 
L 253.774813 53.983873 
L 262.44672 53.943338 
L 264.072703 53.921951 
L 265.698686 53.930955 
L 268.408657 53.900568 
L 269.492645 53.943338 
L 304.72227 53.903943 
L 306.890247 53.869064 
L 310.142213 53.858939 
L 311.768195 53.89044 
L 312.852184 53.872439 
L 313.936172 53.874689 
L 316.646144 53.912947 
L 317.730132 53.846567 
L 319.898109 53.90957 
L 321.524092 53.865689 
L 324.776057 53.853315 
L 358.921694 53.846567 
L 359.463688 53.897192 
L 360.547676 53.846567 
L 362.173659 53.844317 
L 363.799642 53.867939 
L 367.593601 53.851066 
L 371.387561 53.874689 
L 372.47155 53.842068 
L 375.181521 53.871314 
L 378.97548 53.839818 
L 380.059469 53.874689 
L 383.311434 53.849941 
L 386.5634 53.842068 
L 398.487273 53.900568 
L 398.487273 53.900568 
" style="fill:none;stroke:#ff7f0e;stroke-linecap:square;stroke-width:1.5;"/>
   </g>
   <g id="line2d_39">
    <path clip-path="url(#p31b26279d5)" d="M 73.832727 204.905036 
L 74.374722 180.082061 
L 74.916716 164.816861 
L 76.000704 145.356627 
L 76.542698 138.571013 
L 78.710675 118.275619 
L 79.794664 110.479173 
L 81.420647 103.460896 
L 82.504635 100.035479 
L 84.130618 95.478042 
L 85.7566 92.209085 
L 87.924577 88.332933 
L 91.718537 83.293108 
L 92.260531 82.81718 
L 93.34452 81.521875 
L 93.886514 81.080026 
L 94.428508 80.470601 
L 97.138479 78.431542 
L 97.680474 78.152329 
L 99.84845 76.622026 
L 103.64241 74.425378 
L 110.146341 72.078146 
L 112.856312 71.224951 
L 113.398306 71.103058 
L 114.482295 70.684133 
L 125.864174 67.8961 
L 126.948162 67.739496 
L 130.742122 67.050378 
L 131.284116 66.825058 
L 132.910099 66.614176 
L 133.994087 66.340404 
L 135.62007 66.039566 
L 141.040012 65.122132 
L 144.291978 64.732438 
L 162.177787 62.700003 
L 164.345764 62.622983 
L 167.59773 62.437389 
L 170.307701 62.238725 
L 175.727643 61.829169 
L 188.19351 61.015992 
L 190.361487 60.859632 
L 197.949407 60.433826 
L 206.621314 59.983501 
L 210.415274 59.723974 
L 222.881141 59.287313 
L 224.507124 59.223389 
L 230.469061 59.080293 
L 236.972991 58.975164 
L 251.064841 58.630977 
L 253.774813 58.562745 
L 258.110766 58.494556 
L 261.362732 58.407621 
L 264.614697 58.305505 
L 266.24068 58.280871 
L 271.118628 58.211691 
L 273.828599 58.150757 
L 282.500507 58.041867 
L 284.12649 58.000916 
L 296.050363 57.826757 
L 300.928311 57.736869 
L 305.264265 57.68787 
L 306.890247 57.635398 
L 317.730132 57.50724 
L 331.279988 57.293215 
L 398.487273 56.507143 
L 398.487273 56.507143 
" style="fill:none;stroke:#2ca02c;stroke-linecap:square;stroke-width:1.5;"/>
   </g>
   <g id="line2d_40">
    <path clip-path="url(#p31b26279d5)" d="M 73.832727 258.122436 
L 74.374722 246.569003 
L 76.000704 222.851536 
L 77.084693 213.116717 
L 79.25267 201.586993 
L 80.878652 194.037969 
L 81.962641 187.999628 
L 82.504635 185.539983 
L 84.672612 177.562125 
L 85.214606 175.462684 
L 87.924577 167.738932 
L 88.466572 166.152227 
L 89.55056 164.233707 
L 90.634548 162.014056 
L 92.260531 158.77869 
L 92.802525 157.592757 
L 95.512497 152.957638 
L 96.596485 150.740839 
L 97.680474 149.318901 
L 99.306456 146.861388 
L 99.84845 145.675171 
L 102.558422 142.002563 
L 106.352381 137.841594 
L 106.894375 137.491168 
L 116.108277 128.134437 
L 118.276254 125.740834 
L 119.360243 124.955595 
L 119.902237 124.300909 
L 124.780185 120.162565 
L 125.864174 119.25246 
L 126.406168 118.769147 
L 126.948162 118.497214 
L 128.032151 117.443106 
L 129.116139 116.751599 
L 130.200127 115.833874 
L 131.284116 114.797854 
L 132.368104 114.16715 
L 132.910099 113.85122 
L 133.994087 112.78917 
L 135.62007 111.667696 
L 136.704058 111.082393 
L 137.788047 110.494548 
L 141.582006 108.903618 
L 142.124001 108.750371 
L 142.665995 108.457739 
L 143.749983 108.10013 
L 145.375966 107.282191 
L 147.543943 106.561232 
L 150.253914 105.183238 
L 151.879897 104.458249 
L 154.047874 103.399772 
L 154.589868 103.157419 
L 156.757845 102.672589 
L 157.841833 102.301971 
L 159.467816 101.686558 
L 161.635793 101.146816 
L 162.719781 100.669348 
L 163.80377 100.43142 
L 164.887758 99.958904 
L 165.429753 99.771182 
L 165.971747 99.752081 
L 167.59773 99.248018 
L 168.681718 99.033957 
L 170.307701 98.521285 
L 171.391689 98.180309 
L 173.017672 97.666642 
L 174.643655 97.079248 
L 176.811632 96.663597 
L 178.437614 96.330232 
L 180.063597 95.910813 
L 182.231574 95.243183 
L 183.857557 94.877776 
L 184.941545 94.713754 
L 186.567528 94.360069 
L 198.491401 92.137972 
L 199.575389 92.060449 
L 200.659378 91.883006 
L 201.743366 91.723562 
L 206.621314 90.393003 
L 210.957268 89.847724 
L 213.667239 89.343001 
L 220.17117 88.286187 
L 221.255159 87.981288 
L 222.881141 87.722194 
L 223.96513 87.621521 
L 229.385072 86.988703 
L 236.430997 86.014497 
L 238.05698 85.732797 
L 239.140968 85.535294 
L 241.850939 85.200383 
L 244.018916 84.852956 
L 247.270882 84.488631 
L 249.980853 84.089617 
L 251.606836 83.941496 
L 255.942789 83.380818 
L 257.026778 83.27825 
L 258.652761 83.141646 
L 259.736749 83.031898 
L 263.530709 82.722546 
L 266.24068 82.439153 
L 273.286605 81.764729 
L 274.912588 81.628603 
L 284.12649 80.683501 
L 285.752472 80.542968 
L 289.004438 80.112393 
L 292.798397 79.899201 
L 294.966374 79.801391 
L 298.21834 79.547223 
L 302.554294 79.200701 
L 307.432242 78.826818 
L 314.478167 78.258542 
L 317.188138 78.129684 
L 318.814121 78.003811 
L 322.066086 77.793413 
L 368.135596 74.763425 
L 371.929555 74.601794 
L 397.945278 73.786458 
L 398.487273 73.779668 
L 398.487273 73.779668 
" style="fill:none;stroke:#d62728;stroke-linecap:square;stroke-width:1.5;"/>
   </g>
   <g id="line2d_41">
    <path clip-path="url(#p31b26279d5)" d="M 73.832727 295.488 
L 74.374722 295.488 
L 74.916716 291.900227 
L 75.45871 284.960334 
L 76.000704 272.340441 
L 76.542698 265.046485 
L 77.084693 262.831074 
L 77.626687 258.262319 
L 78.168681 257.379504 
L 78.710675 257.680691 
L 79.25267 256.91013 
L 79.794664 254.256556 
L 80.336658 252.548356 
L 80.878652 249.849831 
L 81.420647 249.355458 
L 81.962641 249.06992 
L 82.504635 248.147211 
L 83.046629 248.076566 
L 83.588623 247.442875 
L 84.130618 246.249228 
L 84.672612 245.564279 
L 85.214606 245.089502 
L 85.7566 244.282472 
L 86.298595 243.70493 
L 86.840589 242.706797 
L 87.382583 242.237969 
L 88.466572 240.173258 
L 89.55056 238.238145 
L 90.092554 238.238145 
L 90.634548 237.78868 
L 91.718537 235.500586 
L 93.886514 231.025726 
L 94.428508 230.008888 
L 94.970502 229.409365 
L 95.512497 229.090218 
L 97.680474 226.122636 
L 98.222468 225.88192 
L 98.764462 225.009629 
L 99.306456 224.44337 
L 99.84845 223.459655 
L 100.390445 222.968425 
L 100.932439 222.26349 
L 101.474433 222.252426 
L 102.558422 220.785703 
L 103.64241 219.317529 
L 104.184404 219.10254 
L 104.726399 218.599032 
L 105.268393 217.874771 
L 105.810387 217.551523 
L 106.352381 217.029003 
L 106.894375 216.336302 
L 107.43637 216.017718 
L 107.978364 215.466385 
L 108.520358 214.572698 
L 109.062352 214.480146 
L 109.604347 213.916302 
L 110.146341 213.814108 
L 111.230329 212.919028 
L 111.772324 212.974749 
L 112.314318 212.777326 
L 112.856312 212.348316 
L 113.398306 212.32817 
L 116.650272 210.105647 
L 117.73426 209.824941 
L 118.276254 209.36854 
L 118.818249 209.167955 
L 119.360243 208.563614 
L 119.902237 208.282119 
L 120.444231 207.66353 
L 120.986226 207.326764 
L 121.52822 207.326764 
L 122.070214 207.038959 
L 122.612208 206.494278 
L 123.154202 206.446633 
L 126.406168 204.389897 
L 126.948162 204.450646 
L 129.658133 203.01143 
L 130.200127 202.960719 
L 130.742122 202.578865 
L 132.910099 201.632498 
L 133.994087 201.033411 
L 134.536081 200.942935 
L 135.078076 200.712573 
L 135.62007 200.685505 
L 136.704058 199.854277 
L 137.246053 199.452246 
L 137.788047 199.372023 
L 138.330041 199.171732 
L 138.872035 198.741279 
L 139.956024 198.48473 
L 140.498018 198.087864 
L 141.040012 197.868025 
L 141.582006 197.294206 
L 142.665995 196.993213 
L 143.207989 196.766943 
L 143.749983 196.714796 
L 144.291978 196.199053 
L 145.91796 195.350753 
L 147.543943 194.794667 
L 148.085937 194.54325 
L 148.627931 194.436898 
L 149.169926 194.080337 
L 149.71192 193.459233 
L 150.253914 193.227782 
L 151.337903 192.44879 
L 153.505879 191.518205 
L 154.047874 191.01891 
L 154.589868 190.858481 
L 155.131862 190.534254 
L 155.673856 190.399112 
L 157.841833 189.113692 
L 158.383828 189.004583 
L 158.925822 188.581338 
L 159.467816 188.392433 
L 161.093799 187.301801 
L 162.719781 186.636193 
L 163.80377 186.198704 
L 164.345764 186.135791 
L 165.429753 185.485274 
L 165.971747 185.454025 
L 167.59773 184.86592 
L 168.139724 184.86592 
L 168.681718 184.458892 
L 169.765706 184.134395 
L 173.017672 182.754863 
L 173.559666 182.264879 
L 174.643655 182.060442 
L 175.727643 181.65275 
L 176.269637 181.543545 
L 177.353626 181.096603 
L 177.89562 181.089107 
L 179.521603 180.342227 
L 180.063597 180.022684 
L 181.147585 179.78551 
L 181.68958 179.511938 
L 182.231574 179.379105 
L 182.773568 179.047751 
L 183.857557 178.783413 
L 184.399551 178.483164 
L 184.941545 178.424678 
L 186.567528 177.808889 
L 187.109522 177.406379 
L 190.361487 176.397795 
L 190.903482 175.964903 
L 193.071458 175.317095 
L 194.697441 175.079613 
L 195.78143 174.712036 
L 197.407412 174.131473 
L 199.575389 173.404124 
L 200.117384 173.355347 
L 202.827355 172.45701 
L 203.911343 172.139738 
L 204.453337 172.181067 
L 206.07932 171.504614 
L 207.163309 171.197008 
L 207.705303 170.801855 
L 208.789291 170.604831 
L 210.415274 170.032828 
L 210.957268 170.032828 
L 213.667239 169.021656 
L 214.751228 168.75786 
L 215.835216 168.721181 
L 217.461199 168.341801 
L 218.545187 167.960467 
L 219.629176 167.854601 
L 221.797153 167.136197 
L 222.339147 167.103359 
L 225.049118 166.135959 
L 226.133107 165.960424 
L 226.675101 165.788424 
L 227.217095 165.804638 
L 228.843078 165.390327 
L 229.927066 165.312824 
L 231.011055 165.193452 
L 231.553049 165.003379 
L 232.095043 165.032351 
L 233.179032 164.797585 
L 234.26302 164.576161 
L 234.805014 164.387194 
L 235.889003 164.320016 
L 240.766951 163.247769 
L 241.308945 163.12438 
L 241.850939 162.8528 
L 243.476922 162.616525 
L 244.560911 162.299173 
L 246.728888 161.998413 
L 250.522847 161.014409 
L 251.606836 161.042308 
L 252.14883 160.94934 
L 252.690824 160.98032 
L 253.774813 160.766741 
L 254.316807 160.720367 
L 255.942789 160.174692 
L 258.110766 159.748134 
L 259.194755 159.561481 
L 260.820738 159.164792 
L 261.362732 158.951806 
L 263.530709 158.639189 
L 265.156691 158.197641 
L 266.24068 158.064932 
L 267.324668 157.809034 
L 268.408657 157.613765 
L 272.744611 156.809462 
L 273.828599 156.761815 
L 274.912588 156.517959 
L 275.454582 156.354712 
L 276.53857 156.247995 
L 278.164553 155.89305 
L 280.874524 155.424575 
L 281.958513 155.169116 
L 284.12649 154.890869 
L 286.836461 154.403509 
L 290.088426 153.825682 
L 291.172415 153.724379 
L 291.714409 153.501856 
L 293.340392 153.274038 
L 295.508368 152.81987 
L 299.302328 152.281997 
L 300.386317 151.999851 
L 301.470305 151.573787 
L 303.096288 151.256776 
L 303.638282 151.07041 
L 304.180276 151.008361 
L 304.72227 150.833691 
L 308.51623 150.406684 
L 309.600219 150.32261 
L 310.684207 150.235804 
L 312.852184 149.794475 
L 313.936172 149.688607 
L 316.646144 149.354981 
L 317.188138 149.177477 
L 318.814121 148.975374 
L 322.60808 148.451158 
L 323.692069 148.121408 
L 324.776057 147.932266 
L 325.860046 147.743463 
L 326.944034 147.579559 
L 328.028022 147.429537 
L 328.570017 147.440441 
L 329.112011 147.323287 
L 329.654005 147.36414 
L 336.157936 146.280096 
L 337.241924 145.983923 
L 339.951896 145.404749 
L 341.035884 145.233749 
L 344.829844 144.754291 
L 345.371838 144.594953 
L 345.913832 144.571073 
L 346.455826 144.385524 
L 348.081809 144.361692 
L 349.165798 144.276997 
L 350.249786 144.202944 
L 351.333774 143.989013 
L 351.875769 143.999567 
L 352.959757 143.759716 
L 354.58574 143.683394 
L 355.127734 143.418012 
L 360.005682 142.727471 
L 361.631665 142.615422 
L 362.715653 142.39428 
L 363.799642 142.256624 
L 364.88363 142.077681 
L 365.425625 142.077681 
L 366.509613 141.904214 
L 367.593601 141.870589 
L 370.845567 141.527194 
L 371.929555 141.308314 
L 373.555538 141.156651 
L 374.639526 140.961609 
L 377.891492 140.610927 
L 381.143457 140.483229 
L 383.853428 139.963818 
L 385.479411 139.816607 
L 386.5634 139.618956 
L 387.647388 139.522798 
L 390.357359 139.265122 
L 391.983342 139.11384 
L 393.609325 138.940134 
L 397.403284 138.435741 
L 398.487273 138.29314 
L 398.487273 138.29314 
" style="fill:none;stroke:#9467bd;stroke-linecap:square;stroke-width:1.5;"/>
   </g>
   <g id="line2d_42">
    <path clip-path="url(#p31b26279d5)" d="M 73.832727 58.239827 
L 74.374722 56.81902 
L 74.916716 56.851415 
L 75.45871 56.340032 
L 76.000704 55.991679 
L 76.542698 56.205384 
L 77.084693 56.544058 
L 77.626687 55.679941 
L 78.168681 56.253699 
L 78.710675 56.015785 
L 79.25267 56.631783 
L 79.794664 56.450641 
L 80.336658 55.720003 
L 80.878652 56.185833 
L 81.420647 55.720003 
L 81.962641 55.781842 
L 82.504635 55.801318 
L 83.046629 55.7097 
L 83.588623 56.100775 
L 84.130618 55.636462 
L 84.672612 55.750918 
L 85.214606 55.782988 
L 85.7566 57.003112 
L 86.298595 56.256 
L 86.840589 55.622736 
L 87.382583 55.35885 
L 87.924577 55.375966 
L 88.466572 55.69253 
L 89.008566 56.036452 
L 89.55056 55.404498 
L 90.092554 56.607536 
L 90.634548 55.506134 
L 91.176543 56.395322 
L 91.718537 55.612442 
L 92.260531 56.609845 
L 92.802525 55.927423 
L 93.34452 55.740612 
L 93.886514 56.029563 
L 94.428508 55.726872 
L 94.970502 55.910218 
L 95.512497 56.355004 
L 96.054491 55.572421 
L 96.596485 55.937747 
L 97.138479 56.005453 
L 97.680474 55.452449 
L 98.222468 55.54613 
L 98.764462 55.740612 
L 99.306456 55.717713 
L 99.84845 56.214585 
L 100.390445 56.509449 
L 100.932439 55.32919 
L 101.474433 55.271035 
L 102.016427 55.074 
L 102.558422 56.188133 
L 103.100416 56.281318 
L 103.64241 55.364555 
L 104.184404 55.35885 
L 104.726399 56.058272 
L 105.268393 55.496994 
L 105.810387 55.969873 
L 106.352381 55.817359 
L 106.894375 55.309801 
L 107.43637 55.815067 
L 107.978364 55.359991 
L 108.520358 55.603293 
L 109.062352 55.723437 
L 109.604347 55.660488 
L 110.146341 55.447881 
L 110.688335 55.105865 
L 111.230329 55.589571 
L 111.772324 55.320066 
L 112.314318 56.266357 
L 112.856312 55.085379 
L 113.398306 55.089931 
L 113.940301 56.207684 
L 114.482295 55.769243 
L 115.024289 55.279015 
L 115.566283 55.494709 
L 116.108277 55.681085 
L 116.650272 55.693675 
L 117.192266 55.962988 
L 117.73426 55.951514 
L 118.276254 55.653623 
L 118.818249 55.331471 
L 119.360243 55.166207 
L 119.902237 55.467295 
L 120.444231 55.693675 
L 120.986226 56.390714 
L 121.52822 55.16393 
L 122.070214 55.155958 
L 122.612208 55.836841 
L 123.154202 55.147987 
L 123.696197 55.551845 
L 124.238191 55.737177 
L 124.780185 55.48557 
L 125.322179 55.331471 
L 125.864174 54.922772 
L 126.406168 54.873925 
L 126.948162 55.998566 
L 127.490156 54.923908 
" style="fill:none;stroke:#8c564b;stroke-dasharray:5.55,2.4;stroke-dashoffset:0;stroke-width:1.5;"/>
   </g>
   <g id="line2d_43">
    <path clip-path="url(#p31b26279d5)" d="M 73.832727 59.116935 
L 74.374722 56.967194 
L 74.916716 56.026118 
L 75.45871 55.70741 
L 76.000704 55.15482 
L 76.542698 54.978462 
L 77.084693 55.452449 
L 77.626687 54.571123 
L 78.168681 54.404781 
L 78.710675 54.673094 
L 79.25267 54.549608 
L 79.794664 54.394605 
L 80.336658 54.259022 
L 80.878652 54.45228 
L 81.420647 54.304197 
L 81.962641 54.090916 
L 82.504635 54.567725 
L 83.046629 54.057101 
L 83.588623 54.545079 
L 84.130618 54.14617 
L 84.672612 54.248861 
L 85.214606 54.164218 
L 85.7566 54.266927 
L 86.298595 54.132635 
L 86.840589 54.176628 
L 87.382583 54.023297 
L 87.924577 53.842068 
L 88.466572 54.017664 
L 89.008566 53.966982 
L 89.55056 54.22854 
L 90.092554 54.063863 
L 90.634548 53.930955 
L 91.176543 54.08077 
L 91.718537 53.998515 
L 92.260531 54.015411 
L 92.802525 54.030057 
L 93.34452 53.994009 
L 93.886514 54.119103 
L 94.428508 53.911821 
L 94.970502 53.963604 
L 95.512497 54.010905 
L 96.054491 54.16309 
L 96.596485 54.008652 
L 97.138479 53.946715 
L 97.680474 54.006399 
L 98.222468 54.125869 
L 98.764462 54.092043 
L 99.306456 54.041325 
L 99.84845 53.963604 
L 100.390445 53.92983 
L 100.932439 53.887065 
L 101.474433 54.075134 
L 102.016427 54.098807 
L 102.558422 54.158578 
L 103.100416 53.824074 
L 103.64241 54.124741 
L 104.184404 53.923076 
L 104.726399 53.844317 
L 105.268393 53.828572 
L 105.810387 54.026677 
L 106.352381 54.112337 
L 106.894375 53.983873 
L 107.43637 53.903943 
L 107.978364 53.941086 
L 108.520358 53.817328 
L 109.062352 53.930955 
L 109.604347 53.837569 
L 110.146341 53.910696 
L 110.688335 54.141658 
L 111.230329 54.10219 
L 111.772324 54.103317 
L 112.314318 53.923076 
L 112.856312 53.860064 
L 113.398306 53.915198 
L 113.940301 53.914072 
L 114.482295 53.90732 
L 115.024289 53.937709 
L 115.566283 54.117975 
L 116.108277 54.116848 
L 116.650272 53.979368 
L 117.192266 54.335831 
L 117.73426 54.270314 
L 118.276254 53.784724 
L 118.818249 54.035691 
L 119.360243 53.901693 
L 119.902237 53.763369 
L 120.444231 53.893816 
L 120.986226 54.051466 
L 121.52822 53.928704 
L 122.070214 54.174372 
L 122.612208 54.336961 
L 123.154202 54.067244 
L 123.696197 53.816203 
L 124.238191 54.234185 
L 124.780185 54.043578 
L 125.322179 54.094298 
L 125.864174 53.800463 
L 126.406168 53.919699 
L 126.948162 53.948967 
L 127.490156 53.889315 
" style="fill:none;stroke:#e377c2;stroke-dasharray:5.55,2.4;stroke-dashoffset:0;stroke-width:1.5;"/>
   </g>
   <g id="line2d_44">
    <path clip-path="url(#p31b26279d5)" d="M 73.832727 61.617116 
L 74.374722 58.700432 
L 74.916716 57.073824 
L 75.45871 56.334274 
L 76.000704 55.809338 
L 76.542698 55.438746 
L 77.084693 55.372542 
L 77.626687 54.969368 
L 78.168681 54.797859 
L 78.710675 54.851213 
L 79.25267 54.56546 
L 79.794664 54.56546 
L 80.336658 54.466987 
L 80.878652 54.230798 
L 81.420647 54.325662 
L 81.962641 54.214996 
L 82.504635 54.239829 
L 83.046629 54.1755 
L 83.588623 54.079643 
L 84.130618 53.971486 
L 84.672612 54.104445 
L 85.214606 54.049213 
L 85.7566 53.882564 
L 86.298595 54.096553 
L 86.840589 53.990631 
L 87.382583 53.873564 
L 87.924577 53.983873 
L 88.466572 53.74876 
L 89.008566 54.004147 
L 89.55056 53.925327 
L 90.092554 53.97036 
L 90.634548 53.981621 
L 91.176543 53.698206 
L 91.718537 53.817328 
L 92.260531 53.899442 
L 92.802525 53.727412 
L 93.34452 53.870189 
L 93.886514 53.762245 
L 94.428508 53.77236 
L 94.970502 53.810581 
L 95.512497 53.801587 
L 96.054491 53.758874 
L 96.596485 53.758874 
L 97.138479 53.88819 
L 97.680474 53.865689 
L 98.222468 53.875814 
L 98.764462 53.710561 
L 99.306456 53.865689 
L 99.84845 53.568 
L 100.390445 53.684729 
L 100.932439 53.935458 
L 101.474433 53.683606 
L 102.016427 53.677991 
L 102.558422 53.721795 
L 103.100416 53.745389 
L 103.64241 53.745389 
L 104.184404 53.818452 
L 104.726399 53.751007 
L 105.268393 53.7836 
L 105.810387 53.817328 
L 106.352381 53.761121 
L 106.894375 53.671254 
L 107.43637 53.738647 
L 107.978364 53.85669 
L 108.520358 53.726289 
L 109.062352 53.857814 
L 109.604347 53.879189 
L 110.146341 53.7364 
L 110.688335 53.730782 
L 111.230329 53.765617 
L 111.772324 53.733029 
L 112.314318 53.938835 
L 112.856312 53.763369 
L 113.398306 53.746513 
L 113.940301 53.821825 
L 114.482295 53.792593 
L 115.024289 53.676868 
L 115.566283 53.776856 
L 116.108277 53.718425 
L 116.650272 53.743142 
L 117.192266 53.768988 
L 117.73426 53.68136 
L 118.276254 53.69596 
L 118.818249 53.759998 
L 119.360243 53.763369 
L 119.902237 53.75775 
L 120.444231 53.751007 
L 120.986226 53.69596 
L 121.52822 53.923076 
L 122.070214 53.88594 
L 122.612208 53.935458 
L 123.154202 53.742018 
L 123.696197 53.666762 
L 124.238191 53.781352 
L 124.780185 53.921951 
L 125.322179 53.831946 
L 125.864174 53.910696 
L 126.406168 53.647676 
L 126.948162 53.782476 
L 127.490156 53.775732 
" style="fill:none;stroke:#7f7f7f;stroke-dasharray:5.55,2.4;stroke-dashoffset:0;stroke-width:1.5;"/>
   </g>
   <g id="patch_3">
    <path d="M 57.6 307.584 
L 57.6 41.472 
" style="fill:none;stroke:#000000;stroke-linecap:square;stroke-linejoin:miter;stroke-width:0.8;"/>
   </g>
   <g id="patch_4">
    <path d="M 414.72 307.584 
L 414.72 41.472 
" style="fill:none;stroke:#000000;stroke-linecap:square;stroke-linejoin:miter;stroke-width:0.8;"/>
   </g>
   <g id="patch_5">
    <path d="M 57.6 307.584 
L 414.72 307.584 
" style="fill:none;stroke:#000000;stroke-linecap:square;stroke-linejoin:miter;stroke-width:0.8;"/>
   </g>
   <g id="patch_6">
    <path d="M 57.6 41.472 
L 414.72 41.472 
" style="fill:none;stroke:#000000;stroke-linecap:square;stroke-linejoin:miter;stroke-width:0.8;"/>
   </g>
   <g id="legend_1">
    <g id="patch_7">
     <path d="M 299.895 302.584 
L 407.72 302.584 
Q 409.72 302.584 409.72 300.584 
L 409.72 184.159 
Q 409.72 182.159 407.72 182.159 
L 299.895 182.159 
Q 297.895 182.159 297.895 184.159 
L 297.895 300.584 
Q 297.895 302.584 299.895 302.584 
z
" style="fill:#ffffff;opacity:0.8;stroke:#cccccc;stroke-linejoin:miter;"/>
    </g>
    <g id="line2d_45">
     <path d="M 301.895 190.257437 
L 321.895 190.257437 
" style="fill:none;stroke:#1f77b4;stroke-linecap:square;stroke-width:1.5;"/>
    </g>
    <g id="line2d_46"/>
    <g id="text_12">
     <!-- SGD, lr 10 -->
     <defs>
      <path d="M 53.515625 70.515625 
L 53.515625 60.890625 
Q 47.90625 63.578125 42.921875 64.890625 
Q 37.9375 66.21875 33.296875 66.21875 
Q 25.25 66.21875 20.875 63.09375 
Q 16.5 59.96875 16.5 54.203125 
Q 16.5 49.359375 19.40625 46.890625 
Q 22.3125 44.4375 30.421875 42.921875 
L 36.375 41.703125 
Q 47.40625 39.59375 52.65625 34.296875 
Q 57.90625 29 57.90625 20.125 
Q 57.90625 9.515625 50.796875 4.046875 
Q 43.703125 -1.421875 29.984375 -1.421875 
Q 24.8125 -1.421875 18.96875 -0.25 
Q 13.140625 0.921875 6.890625 3.21875 
L 6.890625 13.375 
Q 12.890625 10.015625 18.65625 8.296875 
Q 24.421875 6.59375 29.984375 6.59375 
Q 38.421875 6.59375 43.015625 9.90625 
Q 47.609375 13.234375 47.609375 19.390625 
Q 47.609375 24.75 44.3125 27.78125 
Q 41.015625 30.8125 33.5 32.328125 
L 27.484375 33.5 
Q 16.453125 35.6875 11.515625 40.375 
Q 6.59375 45.0625 6.59375 53.421875 
Q 6.59375 63.09375 13.40625 68.65625 
Q 20.21875 74.21875 32.171875 74.21875 
Q 37.3125 74.21875 42.625 73.28125 
Q 47.953125 72.359375 53.515625 70.515625 
z
" id="DejaVuSans-53"/>
      <path d="M 59.515625 10.40625 
L 59.515625 29.984375 
L 43.40625 29.984375 
L 43.40625 38.09375 
L 69.28125 38.09375 
L 69.28125 6.78125 
Q 63.578125 2.734375 56.6875 0.65625 
Q 49.8125 -1.421875 42 -1.421875 
Q 24.90625 -1.421875 15.25 8.5625 
Q 5.609375 18.5625 5.609375 36.375 
Q 5.609375 54.25 15.25 64.234375 
Q 24.90625 74.21875 42 74.21875 
Q 49.125 74.21875 55.546875 72.453125 
Q 61.96875 70.703125 67.390625 67.28125 
L 67.390625 56.78125 
Q 61.921875 61.421875 55.765625 63.765625 
Q 49.609375 66.109375 42.828125 66.109375 
Q 29.4375 66.109375 22.71875 58.640625 
Q 16.015625 51.171875 16.015625 36.375 
Q 16.015625 21.625 22.71875 14.15625 
Q 29.4375 6.6875 42.828125 6.6875 
Q 48.046875 6.6875 52.140625 7.59375 
Q 56.25 8.5 59.515625 10.40625 
z
" id="DejaVuSans-47"/>
      <path d="M 19.671875 64.796875 
L 19.671875 8.109375 
L 31.59375 8.109375 
Q 46.6875 8.109375 53.6875 14.9375 
Q 60.6875 21.78125 60.6875 36.53125 
Q 60.6875 51.171875 53.6875 57.984375 
Q 46.6875 64.796875 31.59375 64.796875 
z
M 9.8125 72.90625 
L 30.078125 72.90625 
Q 51.265625 72.90625 61.171875 64.09375 
Q 71.09375 55.28125 71.09375 36.53125 
Q 71.09375 17.671875 61.125 8.828125 
Q 51.171875 0 30.078125 0 
L 9.8125 0 
z
" id="DejaVuSans-44"/>
      <path d="M 11.71875 12.40625 
L 22.015625 12.40625 
L 22.015625 4 
L 14.015625 -11.625 
L 7.71875 -11.625 
L 11.71875 4 
z
" id="DejaVuSans-2c"/>
      <path d="M 9.421875 75.984375 
L 18.40625 75.984375 
L 18.40625 0 
L 9.421875 0 
z
" id="DejaVuSans-6c"/>
      <path d="M 41.109375 46.296875 
Q 39.59375 47.171875 37.8125 47.578125 
Q 36.03125 48 33.890625 48 
Q 26.265625 48 22.1875 43.046875 
Q 18.109375 38.09375 18.109375 28.8125 
L 18.109375 0 
L 9.078125 0 
L 9.078125 54.6875 
L 18.109375 54.6875 
L 18.109375 46.1875 
Q 20.953125 51.171875 25.484375 53.578125 
Q 30.03125 56 36.53125 56 
Q 37.453125 56 38.578125 55.875 
Q 39.703125 55.765625 41.0625 55.515625 
z
" id="DejaVuSans-72"/>
     </defs>
     <g transform="translate(329.895 193.757437)scale(0.1 -0.1)">
      <use xlink:href="#DejaVuSans-53"/>
      <use x="63.476562" xlink:href="#DejaVuSans-47"/>
      <use x="140.966797" xlink:href="#DejaVuSans-44"/>
      <use x="217.96875" xlink:href="#DejaVuSans-2c"/>
      <use x="249.755859" xlink:href="#DejaVuSans-20"/>
      <use x="281.542969" xlink:href="#DejaVuSans-6c"/>
      <use x="309.326172" xlink:href="#DejaVuSans-72"/>
      <use x="350.439453" xlink:href="#DejaVuSans-20"/>
      <use x="382.226562" xlink:href="#DejaVuSans-31"/>
      <use x="445.849609" xlink:href="#DejaVuSans-30"/>
     </g>
    </g>
    <g id="line2d_47">
     <path d="M 301.895 204.935563 
L 321.895 204.935563 
" style="fill:none;stroke:#ff7f0e;stroke-linecap:square;stroke-width:1.5;"/>
    </g>
    <g id="line2d_48"/>
    <g id="text_13">
     <!-- SGD, lr 1 -->
     <g transform="translate(329.895 208.435563)scale(0.1 -0.1)">
      <use xlink:href="#DejaVuSans-53"/>
      <use x="63.476562" xlink:href="#DejaVuSans-47"/>
      <use x="140.966797" xlink:href="#DejaVuSans-44"/>
      <use x="217.96875" xlink:href="#DejaVuSans-2c"/>
      <use x="249.755859" xlink:href="#DejaVuSans-20"/>
      <use x="281.542969" xlink:href="#DejaVuSans-6c"/>
      <use x="309.326172" xlink:href="#DejaVuSans-72"/>
      <use x="350.439453" xlink:href="#DejaVuSans-20"/>
      <use x="382.226562" xlink:href="#DejaVuSans-31"/>
     </g>
    </g>
    <g id="line2d_49">
     <path d="M 301.895 219.613687 
L 321.895 219.613687 
" style="fill:none;stroke:#2ca02c;stroke-linecap:square;stroke-width:1.5;"/>
    </g>
    <g id="line2d_50"/>
    <g id="text_14">
     <!-- SGD, lr 0.1 -->
     <defs>
      <path d="M 10.6875 12.40625 
L 21 12.40625 
L 21 0 
L 10.6875 0 
z
" id="DejaVuSans-2e"/>
     </defs>
     <g transform="translate(329.895 223.113687)scale(0.1 -0.1)">
      <use xlink:href="#DejaVuSans-53"/>
      <use x="63.476562" xlink:href="#DejaVuSans-47"/>
      <use x="140.966797" xlink:href="#DejaVuSans-44"/>
      <use x="217.96875" xlink:href="#DejaVuSans-2c"/>
      <use x="249.755859" xlink:href="#DejaVuSans-20"/>
      <use x="281.542969" xlink:href="#DejaVuSans-6c"/>
      <use x="309.326172" xlink:href="#DejaVuSans-72"/>
      <use x="350.439453" xlink:href="#DejaVuSans-20"/>
      <use x="382.226562" xlink:href="#DejaVuSans-30"/>
      <use x="445.849609" xlink:href="#DejaVuSans-2e"/>
      <use x="477.636719" xlink:href="#DejaVuSans-31"/>
     </g>
    </g>
    <g id="line2d_51">
     <path d="M 301.895 234.291812 
L 321.895 234.291812 
" style="fill:none;stroke:#d62728;stroke-linecap:square;stroke-width:1.5;"/>
    </g>
    <g id="line2d_52"/>
    <g id="text_15">
     <!-- SGD, lr 0.01 -->
     <g transform="translate(329.895 237.791812)scale(0.1 -0.1)">
      <use xlink:href="#DejaVuSans-53"/>
      <use x="63.476562" xlink:href="#DejaVuSans-47"/>
      <use x="140.966797" xlink:href="#DejaVuSans-44"/>
      <use x="217.96875" xlink:href="#DejaVuSans-2c"/>
      <use x="249.755859" xlink:href="#DejaVuSans-20"/>
      <use x="281.542969" xlink:href="#DejaVuSans-6c"/>
      <use x="309.326172" xlink:href="#DejaVuSans-72"/>
      <use x="350.439453" xlink:href="#DejaVuSans-20"/>
      <use x="382.226562" xlink:href="#DejaVuSans-30"/>
      <use x="445.849609" xlink:href="#DejaVuSans-2e"/>
      <use x="477.636719" xlink:href="#DejaVuSans-30"/>
      <use x="541.259766" xlink:href="#DejaVuSans-31"/>
     </g>
    </g>
    <g id="line2d_53">
     <path d="M 301.895 248.969937 
L 321.895 248.969937 
" style="fill:none;stroke:#9467bd;stroke-linecap:square;stroke-width:1.5;"/>
    </g>
    <g id="line2d_54"/>
    <g id="text_16">
     <!-- SGD, lr 0.001 -->
     <g transform="translate(329.895 252.469937)scale(0.1 -0.1)">
      <use xlink:href="#DejaVuSans-53"/>
      <use x="63.476562" xlink:href="#DejaVuSans-47"/>
      <use x="140.966797" xlink:href="#DejaVuSans-44"/>
      <use x="217.96875" xlink:href="#DejaVuSans-2c"/>
      <use x="249.755859" xlink:href="#DejaVuSans-20"/>
      <use x="281.542969" xlink:href="#DejaVuSans-6c"/>
      <use x="309.326172" xlink:href="#DejaVuSans-72"/>
      <use x="350.439453" xlink:href="#DejaVuSans-20"/>
      <use x="382.226562" xlink:href="#DejaVuSans-30"/>
      <use x="445.849609" xlink:href="#DejaVuSans-2e"/>
      <use x="477.636719" xlink:href="#DejaVuSans-30"/>
      <use x="541.259766" xlink:href="#DejaVuSans-30"/>
      <use x="604.882812" xlink:href="#DejaVuSans-31"/>
     </g>
    </g>
    <g id="line2d_55">
     <path d="M 301.895 263.648062 
L 321.895 263.648062 
" style="fill:none;stroke:#8c564b;stroke-dasharray:5.55,2.4;stroke-dashoffset:0;stroke-width:1.5;"/>
    </g>
    <g id="line2d_56"/>
    <g id="text_17">
     <!-- SGN, cg iter 10 -->
     <defs>
      <path d="M 9.8125 72.90625 
L 23.09375 72.90625 
L 55.421875 11.921875 
L 55.421875 72.90625 
L 64.984375 72.90625 
L 64.984375 0 
L 51.703125 0 
L 19.390625 60.984375 
L 19.390625 0 
L 9.8125 0 
z
" id="DejaVuSans-4e"/>
      <path d="M 45.40625 27.984375 
Q 45.40625 37.75 41.375 43.109375 
Q 37.359375 48.484375 30.078125 48.484375 
Q 22.859375 48.484375 18.828125 43.109375 
Q 14.796875 37.75 14.796875 27.984375 
Q 14.796875 18.265625 18.828125 12.890625 
Q 22.859375 7.515625 30.078125 7.515625 
Q 37.359375 7.515625 41.375 12.890625 
Q 45.40625 18.265625 45.40625 27.984375 
z
M 54.390625 6.78125 
Q 54.390625 -7.171875 48.1875 -13.984375 
Q 42 -20.796875 29.203125 -20.796875 
Q 24.46875 -20.796875 20.265625 -20.09375 
Q 16.0625 -19.390625 12.109375 -17.921875 
L 12.109375 -9.1875 
Q 16.0625 -11.328125 19.921875 -12.34375 
Q 23.78125 -13.375 27.78125 -13.375 
Q 36.625 -13.375 41.015625 -8.765625 
Q 45.40625 -4.15625 45.40625 5.171875 
L 45.40625 9.625 
Q 42.625 4.78125 38.28125 2.390625 
Q 33.9375 0 27.875 0 
Q 17.828125 0 11.671875 7.65625 
Q 5.515625 15.328125 5.515625 27.984375 
Q 5.515625 40.671875 11.671875 48.328125 
Q 17.828125 56 27.875 56 
Q 33.9375 56 38.28125 53.609375 
Q 42.625 51.21875 45.40625 46.390625 
L 45.40625 54.6875 
L 54.390625 54.6875 
z
" id="DejaVuSans-67"/>
      <path d="M 9.421875 54.6875 
L 18.40625 54.6875 
L 18.40625 0 
L 9.421875 0 
z
M 9.421875 75.984375 
L 18.40625 75.984375 
L 18.40625 64.59375 
L 9.421875 64.59375 
z
" id="DejaVuSans-69"/>
     </defs>
     <g transform="translate(329.895 267.148062)scale(0.1 -0.1)">
      <use xlink:href="#DejaVuSans-53"/>
      <use x="63.476562" xlink:href="#DejaVuSans-47"/>
      <use x="140.966797" xlink:href="#DejaVuSans-4e"/>
      <use x="215.771484" xlink:href="#DejaVuSans-2c"/>
      <use x="247.558594" xlink:href="#DejaVuSans-20"/>
      <use x="279.345703" xlink:href="#DejaVuSans-63"/>
      <use x="334.326172" xlink:href="#DejaVuSans-67"/>
      <use x="397.802734" xlink:href="#DejaVuSans-20"/>
      <use x="429.589844" xlink:href="#DejaVuSans-69"/>
      <use x="457.373047" xlink:href="#DejaVuSans-74"/>
      <use x="496.582031" xlink:href="#DejaVuSans-65"/>
      <use x="558.105469" xlink:href="#DejaVuSans-72"/>
      <use x="599.21875" xlink:href="#DejaVuSans-20"/>
      <use x="631.005859" xlink:href="#DejaVuSans-31"/>
      <use x="694.628906" xlink:href="#DejaVuSans-30"/>
     </g>
    </g>
    <g id="line2d_57">
     <path d="M 301.895 278.326187 
L 321.895 278.326187 
" style="fill:none;stroke:#e377c2;stroke-dasharray:5.55,2.4;stroke-dashoffset:0;stroke-width:1.5;"/>
    </g>
    <g id="line2d_58"/>
    <g id="text_18">
     <!-- SGN, cg iter 5 -->
     <g transform="translate(329.895 281.826187)scale(0.1 -0.1)">
      <use xlink:href="#DejaVuSans-53"/>
      <use x="63.476562" xlink:href="#DejaVuSans-47"/>
      <use x="140.966797" xlink:href="#DejaVuSans-4e"/>
      <use x="215.771484" xlink:href="#DejaVuSans-2c"/>
      <use x="247.558594" xlink:href="#DejaVuSans-20"/>
      <use x="279.345703" xlink:href="#DejaVuSans-63"/>
      <use x="334.326172" xlink:href="#DejaVuSans-67"/>
      <use x="397.802734" xlink:href="#DejaVuSans-20"/>
      <use x="429.589844" xlink:href="#DejaVuSans-69"/>
      <use x="457.373047" xlink:href="#DejaVuSans-74"/>
      <use x="496.582031" xlink:href="#DejaVuSans-65"/>
      <use x="558.105469" xlink:href="#DejaVuSans-72"/>
      <use x="599.21875" xlink:href="#DejaVuSans-20"/>
      <use x="631.005859" xlink:href="#DejaVuSans-35"/>
     </g>
    </g>
    <g id="line2d_59">
     <path d="M 301.895 293.004312 
L 321.895 293.004312 
" style="fill:none;stroke:#7f7f7f;stroke-dasharray:5.55,2.4;stroke-dashoffset:0;stroke-width:1.5;"/>
    </g>
    <g id="line2d_60"/>
    <g id="text_19">
     <!-- SGN, cg iter 3 -->
     <g transform="translate(329.895 296.504312)scale(0.1 -0.1)">
      <use xlink:href="#DejaVuSans-53"/>
      <use x="63.476562" xlink:href="#DejaVuSans-47"/>
      <use x="140.966797" xlink:href="#DejaVuSans-4e"/>
      <use x="215.771484" xlink:href="#DejaVuSans-2c"/>
      <use x="247.558594" xlink:href="#DejaVuSans-20"/>
      <use x="279.345703" xlink:href="#DejaVuSans-63"/>
      <use x="334.326172" xlink:href="#DejaVuSans-67"/>
      <use x="397.802734" xlink:href="#DejaVuSans-20"/>
      <use x="429.589844" xlink:href="#DejaVuSans-69"/>
      <use x="457.373047" xlink:href="#DejaVuSans-74"/>
      <use x="496.582031" xlink:href="#DejaVuSans-65"/>
      <use x="558.105469" xlink:href="#DejaVuSans-72"/>
      <use x="599.21875" xlink:href="#DejaVuSans-20"/>
      <use x="631.005859" xlink:href="#DejaVuSans-33"/>
     </g>
    </g>
   </g>
  </g>
 </g>
 <defs>
  <clipPath id="p31b26279d5">
   <rect height="266.112" width="357.12" x="57.6" y="41.472"/>
  </clipPath>
 </defs>
</svg>
