<?xml version="1.0" encoding="utf-8" standalone="no"?>
<!DOCTYPE svg PUBLIC "-//W3C//DTD SVG 1.1//EN"
  "http://www.w3.org/Graphics/SVG/1.1/DTD/svg11.dtd">
<!-- Created with matplotlib (http://matplotlib.org/) -->
<svg height="345.6pt" version="1.1" viewBox="0 0 460.8 345.6" width="460.8pt" xmlns="http://www.w3.org/2000/svg" xmlns:xlink="http://www.w3.org/1999/xlink">
 <defs>
  <style type="text/css">
*{stroke-linecap:butt;stroke-linejoin:round;}
  </style>
 </defs>
 <g id="figure_1">
  <g id="patch_1">
   <path d="M 0 345.6 
L 460.8 345.6 
L 460.8 0 
L 0 0 
z
" style="fill:#ffffff;"/>
  </g>
  <g id="axes_1">
   <g id="patch_2">
    <path d="M 57.6 307.584 
L 414.72 307.584 
L 414.72 41.472 
L 57.6 41.472 
z
" style="fill:#ffffff;"/>
   </g>
   <g id="matplotlib.axis_1">
    <g id="xtick_1">
     <g id="line2d_1">
      <path clip-path="url(#p1e917ff37f)" d="M 73.290733 307.584 
L 73.290733 41.472 
" style="fill:none;stroke:#b0b0b0;stroke-linecap:square;stroke-width:0.8;"/>
     </g>
     <g id="line2d_2">
      <defs>
       <path d="M 0 0 
L 0 3.5 
" id="m4636a506e9" style="stroke:#000000;stroke-width:0.8;"/>
      </defs>
      <g>
       <use style="stroke:#000000;stroke-width:0.8;" x="73.290733" xlink:href="#m4636a506e9" y="307.584"/>
      </g>
     </g>
     <g id="text_1">
      <!-- 0 -->
      <defs>
       <path d="M 31.78125 66.40625 
Q 24.171875 66.40625 20.328125 58.90625 
Q 16.5 51.421875 16.5 36.375 
Q 16.5 21.390625 20.328125 13.890625 
Q 24.171875 6.390625 31.78125 6.390625 
Q 39.453125 6.390625 43.28125 13.890625 
Q 47.125 21.390625 47.125 36.375 
Q 47.125 51.421875 43.28125 58.90625 
Q 39.453125 66.40625 31.78125 66.40625 
z
M 31.78125 74.21875 
Q 44.046875 74.21875 50.515625 64.515625 
Q 56.984375 54.828125 56.984375 36.375 
Q 56.984375 17.96875 50.515625 8.265625 
Q 44.046875 -1.421875 31.78125 -1.421875 
Q 19.53125 -1.421875 13.0625 8.265625 
Q 6.59375 17.96875 6.59375 36.375 
Q 6.59375 54.828125 13.0625 64.515625 
Q 19.53125 74.21875 31.78125 74.21875 
z
" id="DejaVuSans-30"/>
      </defs>
      <g transform="translate(70.109483 322.182437)scale(0.1 -0.1)">
       <use xlink:href="#DejaVuSans-30"/>
      </g>
     </g>
    </g>
    <g id="xtick_2">
     <g id="line2d_3">
      <path clip-path="url(#p1e917ff37f)" d="M 127.490156 307.584 
L 127.490156 41.472 
" style="fill:none;stroke:#b0b0b0;stroke-linecap:square;stroke-width:0.8;"/>
     </g>
     <g id="line2d_4">
      <g>
       <use style="stroke:#000000;stroke-width:0.8;" x="127.490156" xlink:href="#m4636a506e9" y="307.584"/>
      </g>
     </g>
     <g id="text_2">
      <!-- 100 -->
      <defs>
       <path d="M 12.40625 8.296875 
L 28.515625 8.296875 
L 28.515625 63.921875 
L 10.984375 60.40625 
L 10.984375 69.390625 
L 28.421875 72.90625 
L 38.28125 72.90625 
L 38.28125 8.296875 
L 54.390625 8.296875 
L 54.390625 0 
L 12.40625 0 
z
" id="DejaVuSans-31"/>
      </defs>
      <g transform="translate(117.946406 322.182437)scale(0.1 -0.1)">
       <use xlink:href="#DejaVuSans-31"/>
       <use x="63.623047" xlink:href="#DejaVuSans-30"/>
       <use x="127.246094" xlink:href="#DejaVuSans-30"/>
      </g>
     </g>
    </g>
    <g id="xtick_3">
     <g id="line2d_5">
      <path clip-path="url(#p1e917ff37f)" d="M 181.68958 307.584 
L 181.68958 41.472 
" style="fill:none;stroke:#b0b0b0;stroke-linecap:square;stroke-width:0.8;"/>
     </g>
     <g id="line2d_6">
      <g>
       <use style="stroke:#000000;stroke-width:0.8;" x="181.68958" xlink:href="#m4636a506e9" y="307.584"/>
      </g>
     </g>
     <g id="text_3">
      <!-- 200 -->
      <defs>
       <path d="M 19.1875 8.296875 
L 53.609375 8.296875 
L 53.609375 0 
L 7.328125 0 
L 7.328125 8.296875 
Q 12.9375 14.109375 22.625 23.890625 
Q 32.328125 33.6875 34.8125 36.53125 
Q 39.546875 41.84375 41.421875 45.53125 
Q 43.3125 49.21875 43.3125 52.78125 
Q 43.3125 58.59375 39.234375 62.25 
Q 35.15625 65.921875 28.609375 65.921875 
Q 23.96875 65.921875 18.8125 64.3125 
Q 13.671875 62.703125 7.8125 59.421875 
L 7.8125 69.390625 
Q 13.765625 71.78125 18.9375 73 
Q 24.125 74.21875 28.421875 74.21875 
Q 39.75 74.21875 46.484375 68.546875 
Q 53.21875 62.890625 53.21875 53.421875 
Q 53.21875 48.921875 51.53125 44.890625 
Q 49.859375 40.875 45.40625 35.40625 
Q 44.1875 33.984375 37.640625 27.21875 
Q 31.109375 20.453125 19.1875 8.296875 
z
" id="DejaVuSans-32"/>
      </defs>
      <g transform="translate(172.14583 322.182437)scale(0.1 -0.1)">
       <use xlink:href="#DejaVuSans-32"/>
       <use x="63.623047" xlink:href="#DejaVuSans-30"/>
       <use x="127.246094" xlink:href="#DejaVuSans-30"/>
      </g>
     </g>
    </g>
    <g id="xtick_4">
     <g id="line2d_7">
      <path clip-path="url(#p1e917ff37f)" d="M 235.889003 307.584 
L 235.889003 41.472 
" style="fill:none;stroke:#b0b0b0;stroke-linecap:square;stroke-width:0.8;"/>
     </g>
     <g id="line2d_8">
      <g>
       <use style="stroke:#000000;stroke-width:0.8;" x="235.889003" xlink:href="#m4636a506e9" y="307.584"/>
      </g>
     </g>
     <g id="text_4">
      <!-- 300 -->
      <defs>
       <path d="M 40.578125 39.3125 
Q 47.65625 37.796875 51.625 33 
Q 55.609375 28.21875 55.609375 21.1875 
Q 55.609375 10.40625 48.1875 4.484375 
Q 40.765625 -1.421875 27.09375 -1.421875 
Q 22.515625 -1.421875 17.65625 -0.515625 
Q 12.796875 0.390625 7.625 2.203125 
L 7.625 11.71875 
Q 11.71875 9.328125 16.59375 8.109375 
Q 21.484375 6.890625 26.8125 6.890625 
Q 36.078125 6.890625 40.9375 10.546875 
Q 45.796875 14.203125 45.796875 21.1875 
Q 45.796875 27.640625 41.28125 31.265625 
Q 36.765625 34.90625 28.71875 34.90625 
L 20.21875 34.90625 
L 20.21875 43.015625 
L 29.109375 43.015625 
Q 36.375 43.015625 40.234375 45.921875 
Q 44.09375 48.828125 44.09375 54.296875 
Q 44.09375 59.90625 40.109375 62.90625 
Q 36.140625 65.921875 28.71875 65.921875 
Q 24.65625 65.921875 20.015625 65.03125 
Q 15.375 64.15625 9.8125 62.3125 
L 9.8125 71.09375 
Q 15.4375 72.65625 20.34375 73.4375 
Q 25.25 74.21875 29.59375 74.21875 
Q 40.828125 74.21875 47.359375 69.109375 
Q 53.90625 64.015625 53.90625 55.328125 
Q 53.90625 49.265625 50.4375 45.09375 
Q 46.96875 40.921875 40.578125 39.3125 
z
" id="DejaVuSans-33"/>
      </defs>
      <g transform="translate(226.345253 322.182437)scale(0.1 -0.1)">
       <use xlink:href="#DejaVuSans-33"/>
       <use x="63.623047" xlink:href="#DejaVuSans-30"/>
       <use x="127.246094" xlink:href="#DejaVuSans-30"/>
      </g>
     </g>
    </g>
    <g id="xtick_5">
     <g id="line2d_9">
      <path clip-path="url(#p1e917ff37f)" d="M 290.088426 307.584 
L 290.088426 41.472 
" style="fill:none;stroke:#b0b0b0;stroke-linecap:square;stroke-width:0.8;"/>
     </g>
     <g id="line2d_10">
      <g>
       <use style="stroke:#000000;stroke-width:0.8;" x="290.088426" xlink:href="#m4636a506e9" y="307.584"/>
      </g>
     </g>
     <g id="text_5">
      <!-- 400 -->
      <defs>
       <path d="M 37.796875 64.3125 
L 12.890625 25.390625 
L 37.796875 25.390625 
z
M 35.203125 72.90625 
L 47.609375 72.90625 
L 47.609375 25.390625 
L 58.015625 25.390625 
L 58.015625 17.1875 
L 47.609375 17.1875 
L 47.609375 0 
L 37.796875 0 
L 37.796875 17.1875 
L 4.890625 17.1875 
L 4.890625 26.703125 
z
" id="DejaVuSans-34"/>
      </defs>
      <g transform="translate(280.544676 322.182437)scale(0.1 -0.1)">
       <use xlink:href="#DejaVuSans-34"/>
       <use x="63.623047" xlink:href="#DejaVuSans-30"/>
       <use x="127.246094" xlink:href="#DejaVuSans-30"/>
      </g>
     </g>
    </g>
    <g id="xtick_6">
     <g id="line2d_11">
      <path clip-path="url(#p1e917ff37f)" d="M 344.287849 307.584 
L 344.287849 41.472 
" style="fill:none;stroke:#b0b0b0;stroke-linecap:square;stroke-width:0.8;"/>
     </g>
     <g id="line2d_12">
      <g>
       <use style="stroke:#000000;stroke-width:0.8;" x="344.287849" xlink:href="#m4636a506e9" y="307.584"/>
      </g>
     </g>
     <g id="text_6">
      <!-- 500 -->
      <defs>
       <path d="M 10.796875 72.90625 
L 49.515625 72.90625 
L 49.515625 64.59375 
L 19.828125 64.59375 
L 19.828125 46.734375 
Q 21.96875 47.46875 24.109375 47.828125 
Q 26.265625 48.1875 28.421875 48.1875 
Q 40.625 48.1875 47.75 41.5 
Q 54.890625 34.8125 54.890625 23.390625 
Q 54.890625 11.625 47.5625 5.09375 
Q 40.234375 -1.421875 26.90625 -1.421875 
Q 22.3125 -1.421875 17.546875 -0.640625 
Q 12.796875 0.140625 7.71875 1.703125 
L 7.71875 11.625 
Q 12.109375 9.234375 16.796875 8.0625 
Q 21.484375 6.890625 26.703125 6.890625 
Q 35.15625 6.890625 40.078125 11.328125 
Q 45.015625 15.765625 45.015625 23.390625 
Q 45.015625 31 40.078125 35.4375 
Q 35.15625 39.890625 26.703125 39.890625 
Q 22.75 39.890625 18.8125 39.015625 
Q 14.890625 38.140625 10.796875 36.28125 
z
" id="DejaVuSans-35"/>
      </defs>
      <g transform="translate(334.744099 322.182437)scale(0.1 -0.1)">
       <use xlink:href="#DejaVuSans-35"/>
       <use x="63.623047" xlink:href="#DejaVuSans-30"/>
       <use x="127.246094" xlink:href="#DejaVuSans-30"/>
      </g>
     </g>
    </g>
    <g id="xtick_7">
     <g id="line2d_13">
      <path clip-path="url(#p1e917ff37f)" d="M 398.487273 307.584 
L 398.487273 41.472 
" style="fill:none;stroke:#b0b0b0;stroke-linecap:square;stroke-width:0.8;"/>
     </g>
     <g id="line2d_14">
      <g>
       <use style="stroke:#000000;stroke-width:0.8;" x="398.487273" xlink:href="#m4636a506e9" y="307.584"/>
      </g>
     </g>
     <g id="text_7">
      <!-- 600 -->
      <defs>
       <path d="M 33.015625 40.375 
Q 26.375 40.375 22.484375 35.828125 
Q 18.609375 31.296875 18.609375 23.390625 
Q 18.609375 15.53125 22.484375 10.953125 
Q 26.375 6.390625 33.015625 6.390625 
Q 39.65625 6.390625 43.53125 10.953125 
Q 47.40625 15.53125 47.40625 23.390625 
Q 47.40625 31.296875 43.53125 35.828125 
Q 39.65625 40.375 33.015625 40.375 
z
M 52.59375 71.296875 
L 52.59375 62.3125 
Q 48.875 64.0625 45.09375 64.984375 
Q 41.3125 65.921875 37.59375 65.921875 
Q 27.828125 65.921875 22.671875 59.328125 
Q 17.53125 52.734375 16.796875 39.40625 
Q 19.671875 43.65625 24.015625 45.921875 
Q 28.375 48.1875 33.59375 48.1875 
Q 44.578125 48.1875 50.953125 41.515625 
Q 57.328125 34.859375 57.328125 23.390625 
Q 57.328125 12.15625 50.6875 5.359375 
Q 44.046875 -1.421875 33.015625 -1.421875 
Q 20.359375 -1.421875 13.671875 8.265625 
Q 6.984375 17.96875 6.984375 36.375 
Q 6.984375 53.65625 15.1875 63.9375 
Q 23.390625 74.21875 37.203125 74.21875 
Q 40.921875 74.21875 44.703125 73.484375 
Q 48.484375 72.75 52.59375 71.296875 
z
" id="DejaVuSans-36"/>
      </defs>
      <g transform="translate(388.943523 322.182437)scale(0.1 -0.1)">
       <use xlink:href="#DejaVuSans-36"/>
       <use x="63.623047" xlink:href="#DejaVuSans-30"/>
       <use x="127.246094" xlink:href="#DejaVuSans-30"/>
      </g>
     </g>
    </g>
    <g id="text_8">
     <!-- epochs -->
     <defs>
      <path d="M 56.203125 29.59375 
L 56.203125 25.203125 
L 14.890625 25.203125 
Q 15.484375 15.921875 20.484375 11.0625 
Q 25.484375 6.203125 34.421875 6.203125 
Q 39.59375 6.203125 44.453125 7.46875 
Q 49.3125 8.734375 54.109375 11.28125 
L 54.109375 2.78125 
Q 49.265625 0.734375 44.1875 -0.34375 
Q 39.109375 -1.421875 33.890625 -1.421875 
Q 20.796875 -1.421875 13.15625 6.1875 
Q 5.515625 13.8125 5.515625 26.8125 
Q 5.515625 40.234375 12.765625 48.109375 
Q 20.015625 56 32.328125 56 
Q 43.359375 56 49.78125 48.890625 
Q 56.203125 41.796875 56.203125 29.59375 
z
M 47.21875 32.234375 
Q 47.125 39.59375 43.09375 43.984375 
Q 39.0625 48.390625 32.421875 48.390625 
Q 24.90625 48.390625 20.390625 44.140625 
Q 15.875 39.890625 15.1875 32.171875 
z
" id="DejaVuSans-65"/>
      <path d="M 18.109375 8.203125 
L 18.109375 -20.796875 
L 9.078125 -20.796875 
L 9.078125 54.6875 
L 18.109375 54.6875 
L 18.109375 46.390625 
Q 20.953125 51.265625 25.265625 53.625 
Q 29.59375 56 35.59375 56 
Q 45.5625 56 51.78125 48.09375 
Q 58.015625 40.1875 58.015625 27.296875 
Q 58.015625 14.40625 51.78125 6.484375 
Q 45.5625 -1.421875 35.59375 -1.421875 
Q 29.59375 -1.421875 25.265625 0.953125 
Q 20.953125 3.328125 18.109375 8.203125 
z
M 48.6875 27.296875 
Q 48.6875 37.203125 44.609375 42.84375 
Q 40.53125 48.484375 33.40625 48.484375 
Q 26.265625 48.484375 22.1875 42.84375 
Q 18.109375 37.203125 18.109375 27.296875 
Q 18.109375 17.390625 22.1875 11.75 
Q 26.265625 6.109375 33.40625 6.109375 
Q 40.53125 6.109375 44.609375 11.75 
Q 48.6875 17.390625 48.6875 27.296875 
z
" id="DejaVuSans-70"/>
      <path d="M 30.609375 48.390625 
Q 23.390625 48.390625 19.1875 42.75 
Q 14.984375 37.109375 14.984375 27.296875 
Q 14.984375 17.484375 19.15625 11.84375 
Q 23.34375 6.203125 30.609375 6.203125 
Q 37.796875 6.203125 41.984375 11.859375 
Q 46.1875 17.53125 46.1875 27.296875 
Q 46.1875 37.015625 41.984375 42.703125 
Q 37.796875 48.390625 30.609375 48.390625 
z
M 30.609375 56 
Q 42.328125 56 49.015625 48.375 
Q 55.71875 40.765625 55.71875 27.296875 
Q 55.71875 13.875 49.015625 6.21875 
Q 42.328125 -1.421875 30.609375 -1.421875 
Q 18.84375 -1.421875 12.171875 6.21875 
Q 5.515625 13.875 5.515625 27.296875 
Q 5.515625 40.765625 12.171875 48.375 
Q 18.84375 56 30.609375 56 
z
" id="DejaVuSans-6f"/>
      <path d="M 48.78125 52.59375 
L 48.78125 44.1875 
Q 44.96875 46.296875 41.140625 47.34375 
Q 37.3125 48.390625 33.40625 48.390625 
Q 24.65625 48.390625 19.8125 42.84375 
Q 14.984375 37.3125 14.984375 27.296875 
Q 14.984375 17.28125 19.8125 11.734375 
Q 24.65625 6.203125 33.40625 6.203125 
Q 37.3125 6.203125 41.140625 7.25 
Q 44.96875 8.296875 48.78125 10.40625 
L 48.78125 2.09375 
Q 45.015625 0.34375 40.984375 -0.53125 
Q 36.96875 -1.421875 32.421875 -1.421875 
Q 20.0625 -1.421875 12.78125 6.34375 
Q 5.515625 14.109375 5.515625 27.296875 
Q 5.515625 40.671875 12.859375 48.328125 
Q 20.21875 56 33.015625 56 
Q 37.15625 56 41.109375 55.140625 
Q 45.0625 54.296875 48.78125 52.59375 
z
" id="DejaVuSans-63"/>
      <path d="M 54.890625 33.015625 
L 54.890625 0 
L 45.90625 0 
L 45.90625 32.71875 
Q 45.90625 40.484375 42.875 44.328125 
Q 39.84375 48.1875 33.796875 48.1875 
Q 26.515625 48.1875 22.3125 43.546875 
Q 18.109375 38.921875 18.109375 30.90625 
L 18.109375 0 
L 9.078125 0 
L 9.078125 75.984375 
L 18.109375 75.984375 
L 18.109375 46.1875 
Q 21.34375 51.125 25.703125 53.5625 
Q 30.078125 56 35.796875 56 
Q 45.21875 56 50.046875 50.171875 
Q 54.890625 44.34375 54.890625 33.015625 
z
" id="DejaVuSans-68"/>
      <path d="M 44.28125 53.078125 
L 44.28125 44.578125 
Q 40.484375 46.53125 36.375 47.5 
Q 32.28125 48.484375 27.875 48.484375 
Q 21.1875 48.484375 17.84375 46.4375 
Q 14.5 44.390625 14.5 40.28125 
Q 14.5 37.15625 16.890625 35.375 
Q 19.28125 33.59375 26.515625 31.984375 
L 29.59375 31.296875 
Q 39.15625 29.25 43.1875 25.515625 
Q 47.21875 21.78125 47.21875 15.09375 
Q 47.21875 7.46875 41.1875 3.015625 
Q 35.15625 -1.421875 24.609375 -1.421875 
Q 20.21875 -1.421875 15.453125 -0.5625 
Q 10.6875 0.296875 5.421875 2 
L 5.421875 11.28125 
Q 10.40625 8.6875 15.234375 7.390625 
Q 20.0625 6.109375 24.8125 6.109375 
Q 31.15625 6.109375 34.5625 8.28125 
Q 37.984375 10.453125 37.984375 14.40625 
Q 37.984375 18.0625 35.515625 20.015625 
Q 33.0625 21.96875 24.703125 23.78125 
L 21.578125 24.515625 
Q 13.234375 26.265625 9.515625 29.90625 
Q 5.8125 33.546875 5.8125 39.890625 
Q 5.8125 47.609375 11.28125 51.796875 
Q 16.75 56 26.8125 56 
Q 31.78125 56 36.171875 55.265625 
Q 40.578125 54.546875 44.28125 53.078125 
z
" id="DejaVuSans-73"/>
     </defs>
     <g transform="translate(218.327188 335.860562)scale(0.1 -0.1)">
      <use xlink:href="#DejaVuSans-65"/>
      <use x="61.523438" xlink:href="#DejaVuSans-70"/>
      <use x="125" xlink:href="#DejaVuSans-6f"/>
      <use x="186.181641" xlink:href="#DejaVuSans-63"/>
      <use x="241.162109" xlink:href="#DejaVuSans-68"/>
      <use x="304.541016" xlink:href="#DejaVuSans-73"/>
     </g>
    </g>
   </g>
   <g id="matplotlib.axis_2">
    <g id="ytick_1">
     <g id="line2d_15">
      <path clip-path="url(#p1e917ff37f)" d="M 57.6 271.353192 
L 414.72 271.353192 
" style="fill:none;stroke:#b0b0b0;stroke-linecap:square;stroke-width:0.8;"/>
     </g>
     <g id="line2d_16">
      <defs>
       <path d="M 0 0 
L -3.5 0 
" id="mef01be505f" style="stroke:#000000;stroke-width:0.8;"/>
      </defs>
      <g>
       <use style="stroke:#000000;stroke-width:0.8;" x="57.6" xlink:href="#mef01be505f" y="271.353192"/>
      </g>
     </g>
     <g id="text_9">
      <!-- $\mathdefault{10^{-1}}$ -->
      <defs>
       <path d="M 10.59375 35.5 
L 73.1875 35.5 
L 73.1875 27.203125 
L 10.59375 27.203125 
z
" id="DejaVuSans-2212"/>
      </defs>
      <g transform="translate(27.1 275.152411)scale(0.1 -0.1)">
       <use transform="translate(0 0.684375)" xlink:href="#DejaVuSans-31"/>
       <use transform="translate(63.623047 0.684375)" xlink:href="#DejaVuSans-30"/>
       <use transform="translate(128.203125 38.965625)scale(0.7)" xlink:href="#DejaVuSans-2212"/>
       <use transform="translate(186.855469 38.965625)scale(0.7)" xlink:href="#DejaVuSans-31"/>
      </g>
     </g>
    </g>
    <g id="ytick_2">
     <g id="line2d_17">
      <path clip-path="url(#p1e917ff37f)" d="M 57.6 155.188422 
L 414.72 155.188422 
" style="fill:none;stroke:#b0b0b0;stroke-linecap:square;stroke-width:0.8;"/>
     </g>
     <g id="line2d_18">
      <g>
       <use style="stroke:#000000;stroke-width:0.8;" x="57.6" xlink:href="#mef01be505f" y="155.188422"/>
      </g>
     </g>
     <g id="text_10">
      <!-- $\mathdefault{10^{0}}$ -->
      <g transform="translate(33 158.987641)scale(0.1 -0.1)">
       <use transform="translate(0 0.765625)" xlink:href="#DejaVuSans-31"/>
       <use transform="translate(63.623047 0.765625)" xlink:href="#DejaVuSans-30"/>
       <use transform="translate(128.203125 39.046875)scale(0.7)" xlink:href="#DejaVuSans-30"/>
      </g>
     </g>
    </g>
    <g id="ytick_3">
     <g id="line2d_19">
      <path clip-path="url(#p1e917ff37f)" d="M 57.6 306.322272 
L 414.72 306.322272 
" style="fill:none;stroke:#b0b0b0;stroke-linecap:square;stroke-width:0.8;"/>
     </g>
     <g id="line2d_20">
      <defs>
       <path d="M 0 0 
L -2 0 
" id="m63d3406b3c" style="stroke:#000000;stroke-width:0.6;"/>
      </defs>
      <g>
       <use style="stroke:#000000;stroke-width:0.6;" x="57.6" xlink:href="#m63d3406b3c" y="306.322272"/>
      </g>
     </g>
    </g>
    <g id="ytick_4">
     <g id="line2d_21">
      <path clip-path="url(#p1e917ff37f)" d="M 57.6 297.124201 
L 414.72 297.124201 
" style="fill:none;stroke:#b0b0b0;stroke-linecap:square;stroke-width:0.8;"/>
     </g>
     <g id="line2d_22">
      <g>
       <use style="stroke:#000000;stroke-width:0.6;" x="57.6" xlink:href="#m63d3406b3c" y="297.124201"/>
      </g>
     </g>
    </g>
    <g id="ytick_5">
     <g id="line2d_23">
      <path clip-path="url(#p1e917ff37f)" d="M 57.6 289.347343 
L 414.72 289.347343 
" style="fill:none;stroke:#b0b0b0;stroke-linecap:square;stroke-width:0.8;"/>
     </g>
     <g id="line2d_24">
      <g>
       <use style="stroke:#000000;stroke-width:0.6;" x="57.6" xlink:href="#m63d3406b3c" y="289.347343"/>
      </g>
     </g>
    </g>
    <g id="ytick_6">
     <g id="line2d_25">
      <path clip-path="url(#p1e917ff37f)" d="M 57.6 282.610722 
L 414.72 282.610722 
" style="fill:none;stroke:#b0b0b0;stroke-linecap:square;stroke-width:0.8;"/>
     </g>
     <g id="line2d_26">
      <g>
       <use style="stroke:#000000;stroke-width:0.6;" x="57.6" xlink:href="#m63d3406b3c" y="282.610722"/>
      </g>
     </g>
    </g>
    <g id="ytick_7">
     <g id="line2d_27">
      <path clip-path="url(#p1e917ff37f)" d="M 57.6 276.668601 
L 414.72 276.668601 
" style="fill:none;stroke:#b0b0b0;stroke-linecap:square;stroke-width:0.8;"/>
     </g>
     <g id="line2d_28">
      <g>
       <use style="stroke:#000000;stroke-width:0.6;" x="57.6" xlink:href="#m63d3406b3c" y="276.668601"/>
      </g>
     </g>
    </g>
    <g id="ytick_8">
     <g id="line2d_29">
      <path clip-path="url(#p1e917ff37f)" d="M 57.6 236.384112 
L 414.72 236.384112 
" style="fill:none;stroke:#b0b0b0;stroke-linecap:square;stroke-width:0.8;"/>
     </g>
     <g id="line2d_30">
      <g>
       <use style="stroke:#000000;stroke-width:0.6;" x="57.6" xlink:href="#m63d3406b3c" y="236.384112"/>
      </g>
     </g>
    </g>
    <g id="ytick_9">
     <g id="line2d_31">
      <path clip-path="url(#p1e917ff37f)" d="M 57.6 215.928512 
L 414.72 215.928512 
" style="fill:none;stroke:#b0b0b0;stroke-linecap:square;stroke-width:0.8;"/>
     </g>
     <g id="line2d_32">
      <g>
       <use style="stroke:#000000;stroke-width:0.6;" x="57.6" xlink:href="#m63d3406b3c" y="215.928512"/>
      </g>
     </g>
    </g>
    <g id="ytick_10">
     <g id="line2d_33">
      <path clip-path="url(#p1e917ff37f)" d="M 57.6 201.415032 
L 414.72 201.415032 
" style="fill:none;stroke:#b0b0b0;stroke-linecap:square;stroke-width:0.8;"/>
     </g>
     <g id="line2d_34">
      <g>
       <use style="stroke:#000000;stroke-width:0.6;" x="57.6" xlink:href="#m63d3406b3c" y="201.415032"/>
      </g>
     </g>
    </g>
    <g id="ytick_11">
     <g id="line2d_35">
      <path clip-path="url(#p1e917ff37f)" d="M 57.6 190.157503 
L 414.72 190.157503 
" style="fill:none;stroke:#b0b0b0;stroke-linecap:square;stroke-width:0.8;"/>
     </g>
     <g id="line2d_36">
      <g>
       <use style="stroke:#000000;stroke-width:0.6;" x="57.6" xlink:href="#m63d3406b3c" y="190.157503"/>
      </g>
     </g>
    </g>
    <g id="ytick_12">
     <g id="line2d_37">
      <path clip-path="url(#p1e917ff37f)" d="M 57.6 180.959431 
L 414.72 180.959431 
" style="fill:none;stroke:#b0b0b0;stroke-linecap:square;stroke-width:0.8;"/>
     </g>
     <g id="line2d_38">
      <g>
       <use style="stroke:#000000;stroke-width:0.6;" x="57.6" xlink:href="#m63d3406b3c" y="180.959431"/>
      </g>
     </g>
    </g>
    <g id="ytick_13">
     <g id="line2d_39">
      <path clip-path="url(#p1e917ff37f)" d="M 57.6 173.182573 
L 414.72 173.182573 
" style="fill:none;stroke:#b0b0b0;stroke-linecap:square;stroke-width:0.8;"/>
     </g>
     <g id="line2d_40">
      <g>
       <use style="stroke:#000000;stroke-width:0.6;" x="57.6" xlink:href="#m63d3406b3c" y="173.182573"/>
      </g>
     </g>
    </g>
    <g id="ytick_14">
     <g id="line2d_41">
      <path clip-path="url(#p1e917ff37f)" d="M 57.6 166.445952 
L 414.72 166.445952 
" style="fill:none;stroke:#b0b0b0;stroke-linecap:square;stroke-width:0.8;"/>
     </g>
     <g id="line2d_42">
      <g>
       <use style="stroke:#000000;stroke-width:0.6;" x="57.6" xlink:href="#m63d3406b3c" y="166.445952"/>
      </g>
     </g>
    </g>
    <g id="ytick_15">
     <g id="line2d_43">
      <path clip-path="url(#p1e917ff37f)" d="M 57.6 160.503831 
L 414.72 160.503831 
" style="fill:none;stroke:#b0b0b0;stroke-linecap:square;stroke-width:0.8;"/>
     </g>
     <g id="line2d_44">
      <g>
       <use style="stroke:#000000;stroke-width:0.6;" x="57.6" xlink:href="#m63d3406b3c" y="160.503831"/>
      </g>
     </g>
    </g>
    <g id="ytick_16">
     <g id="line2d_45">
      <path clip-path="url(#p1e917ff37f)" d="M 57.6 120.219342 
L 414.72 120.219342 
" style="fill:none;stroke:#b0b0b0;stroke-linecap:square;stroke-width:0.8;"/>
     </g>
     <g id="line2d_46">
      <g>
       <use style="stroke:#000000;stroke-width:0.6;" x="57.6" xlink:href="#m63d3406b3c" y="120.219342"/>
      </g>
     </g>
    </g>
    <g id="ytick_17">
     <g id="line2d_47">
      <path clip-path="url(#p1e917ff37f)" d="M 57.6 99.763742 
L 414.72 99.763742 
" style="fill:none;stroke:#b0b0b0;stroke-linecap:square;stroke-width:0.8;"/>
     </g>
     <g id="line2d_48">
      <g>
       <use style="stroke:#000000;stroke-width:0.6;" x="57.6" xlink:href="#m63d3406b3c" y="99.763742"/>
      </g>
     </g>
    </g>
    <g id="ytick_18">
     <g id="line2d_49">
      <path clip-path="url(#p1e917ff37f)" d="M 57.6 85.250262 
L 414.72 85.250262 
" style="fill:none;stroke:#b0b0b0;stroke-linecap:square;stroke-width:0.8;"/>
     </g>
     <g id="line2d_50">
      <g>
       <use style="stroke:#000000;stroke-width:0.6;" x="57.6" xlink:href="#m63d3406b3c" y="85.250262"/>
      </g>
     </g>
    </g>
    <g id="ytick_19">
     <g id="line2d_51">
      <path clip-path="url(#p1e917ff37f)" d="M 57.6 73.992733 
L 414.72 73.992733 
" style="fill:none;stroke:#b0b0b0;stroke-linecap:square;stroke-width:0.8;"/>
     </g>
     <g id="line2d_52">
      <g>
       <use style="stroke:#000000;stroke-width:0.6;" x="57.6" xlink:href="#m63d3406b3c" y="73.992733"/>
      </g>
     </g>
    </g>
    <g id="ytick_20">
     <g id="line2d_53">
      <path clip-path="url(#p1e917ff37f)" d="M 57.6 64.794661 
L 414.72 64.794661 
" style="fill:none;stroke:#b0b0b0;stroke-linecap:square;stroke-width:0.8;"/>
     </g>
     <g id="line2d_54">
      <g>
       <use style="stroke:#000000;stroke-width:0.6;" x="57.6" xlink:href="#m63d3406b3c" y="64.794661"/>
      </g>
     </g>
    </g>
    <g id="ytick_21">
     <g id="line2d_55">
      <path clip-path="url(#p1e917ff37f)" d="M 57.6 57.017803 
L 414.72 57.017803 
" style="fill:none;stroke:#b0b0b0;stroke-linecap:square;stroke-width:0.8;"/>
     </g>
     <g id="line2d_56">
      <g>
       <use style="stroke:#000000;stroke-width:0.6;" x="57.6" xlink:href="#m63d3406b3c" y="57.017803"/>
      </g>
     </g>
    </g>
    <g id="ytick_22">
     <g id="line2d_57">
      <path clip-path="url(#p1e917ff37f)" d="M 57.6 50.281182 
L 414.72 50.281182 
" style="fill:none;stroke:#b0b0b0;stroke-linecap:square;stroke-width:0.8;"/>
     </g>
     <g id="line2d_58">
      <g>
       <use style="stroke:#000000;stroke-width:0.6;" x="57.6" xlink:href="#m63d3406b3c" y="50.281182"/>
      </g>
     </g>
    </g>
    <g id="ytick_23">
     <g id="line2d_59">
      <path clip-path="url(#p1e917ff37f)" d="M 57.6 44.339061 
L 414.72 44.339061 
" style="fill:none;stroke:#b0b0b0;stroke-linecap:square;stroke-width:0.8;"/>
     </g>
     <g id="line2d_60">
      <g>
       <use style="stroke:#000000;stroke-width:0.6;" x="57.6" xlink:href="#m63d3406b3c" y="44.339061"/>
      </g>
     </g>
    </g>
    <g id="text_11">
     <!-- loss -->
     <defs>
      <path d="M 9.421875 75.984375 
L 18.40625 75.984375 
L 18.40625 0 
L 9.421875 0 
z
" id="DejaVuSans-6c"/>
     </defs>
     <g transform="translate(21.020313 184.185812)rotate(-90)scale(0.1 -0.1)">
      <use xlink:href="#DejaVuSans-6c"/>
      <use x="27.783203" xlink:href="#DejaVuSans-6f"/>
      <use x="88.964844" xlink:href="#DejaVuSans-73"/>
      <use x="141.064453" xlink:href="#DejaVuSans-73"/>
     </g>
    </g>
   </g>
   <g id="line2d_61">
    <path clip-path="url(#p1e917ff37f)" d="M 73.832727 53.568 
L 74.374722 63.471807 
L 74.916716 68.6221 
L 75.45871 75.855945 
L 76.000704 78.870735 
L 76.542698 79.258209 
L 77.084693 84.516043 
L 77.626687 88.235451 
L 78.168681 87.815701 
L 78.710675 93.588858 
L 79.25267 97.678664 
L 79.794664 97.820835 
L 80.336658 97.344105 
L 80.878652 97.527628 
L 81.420647 98.90079 
L 81.962641 99.744501 
L 82.504635 99.391082 
L 83.046629 98.802111 
L 83.588623 100.01875 
L 84.130618 98.020162 
L 84.672612 101.891082 
L 85.214606 103.597006 
L 85.7566 103.876267 
L 86.298595 103.48271 
L 86.840589 103.7317 
L 87.924577 106.864994 
L 89.008566 108.242138 
L 89.55056 108.007453 
L 90.092554 108.764811 
L 90.634548 109.116644 
L 91.176543 109.307799 
L 92.260531 110.983526 
L 92.802525 110.345938 
L 93.34452 110.292162 
L 93.886514 111.498225 
L 94.428508 111.463187 
L 94.970502 112.309371 
L 95.512497 112.82165 
L 96.054491 115.262986 
L 96.596485 115.087403 
L 97.138479 117.76521 
L 97.680474 118.798256 
L 98.222468 117.666687 
L 98.764462 120.74973 
L 99.306456 122.176895 
L 99.84845 123.993528 
L 100.390445 124.483651 
L 100.932439 125.902792 
L 101.474433 127.90188 
L 102.016427 128.230776 
L 102.558422 129.701225 
L 103.100416 130.38807 
L 103.64241 131.872016 
L 104.184404 129.265008 
L 104.726399 131.976762 
L 105.268393 135.882802 
L 105.810387 135.112283 
L 106.352381 138.071415 
L 106.894375 136.951112 
L 107.43637 139.937695 
L 107.978364 139.293955 
L 108.520358 139.868233 
L 109.062352 142.447383 
L 109.604347 141.57551 
L 110.146341 142.82345 
L 110.688335 142.66482 
L 111.230329 145.498834 
L 111.772324 146.039551 
L 112.314318 147.779925 
L 112.856312 148.734312 
L 113.398306 149.111882 
L 113.940301 148.525701 
L 114.482295 148.360127 
L 115.566283 148.587179 
L 116.108277 151.027664 
L 117.73426 153.900092 
L 118.276254 154.352678 
L 118.818249 150.612876 
L 119.360243 155.408001 
L 119.902237 156.522188 
L 120.444231 155.794531 
L 120.986226 157.168581 
L 121.52822 157.139148 
L 122.070214 156.945846 
L 122.612208 157.567485 
L 123.154202 155.091018 
L 123.696197 157.818855 
L 124.238191 158.990352 
L 124.780185 160.539839 
L 125.864174 162.293289 
L 126.406168 162.500896 
L 126.948162 162.831497 
L 127.490156 156.961007 
L 128.032151 155.311018 
L 128.574145 164.238934 
L 130.200127 166.758767 
L 130.742122 166.393998 
L 131.284116 166.206919 
L 131.82611 166.590868 
L 132.368104 165.907211 
L 132.910099 165.508979 
L 133.994087 165.581435 
L 134.536081 163.193678 
L 135.078076 167.048109 
L 135.62007 167.324501 
L 136.162064 167.10596 
L 136.704058 167.924764 
L 137.246053 167.538627 
L 137.788047 167.710199 
L 138.330041 168.416229 
L 138.872035 170.337156 
L 139.414029 167.681154 
L 139.956024 164.116833 
L 140.498018 165.052461 
L 141.040012 166.303548 
L 141.582006 168.696803 
L 142.124001 171.807617 
L 142.665995 175.623707 
L 143.207989 177.094086 
L 143.749983 178.046553 
L 144.291978 179.405349 
L 144.833972 182.904738 
L 145.375966 183.262723 
L 145.91796 185.731944 
L 146.459954 185.691582 
L 147.001949 188.875699 
L 147.543943 182.003315 
L 148.085937 187.027368 
L 148.627931 188.230812 
L 149.169926 188.709762 
L 149.71192 190.658755 
L 150.253914 193.382954 
L 150.795908 192.526995 
L 151.337903 193.274441 
L 151.879897 192.942177 
L 152.421891 190.82892 
L 152.963885 194.433759 
L 153.505879 194.016298 
L 154.047874 192.791652 
L 154.589868 193.410748 
L 155.131862 195.044298 
L 155.673856 195.561687 
L 156.215851 195.36305 
L 156.757845 194.231237 
L 157.841833 196.19042 
L 158.383828 195.975534 
L 158.925822 195.153151 
L 159.467816 194.663926 
L 160.00981 196.177272 
L 160.551805 196.413231 
L 161.093799 194.599646 
L 161.635793 195.627843 
L 162.177787 197.097177 
L 162.719781 196.285666 
L 163.261776 196.170269 
L 163.80377 195.715108 
L 164.345764 196.386329 
L 164.887758 196.298458 
L 165.429753 197.313404 
L 166.513741 196.278577 
L 167.055735 195.533735 
L 167.59773 196.522756 
L 168.139724 196.800532 
L 168.681718 197.282759 
L 169.223712 197.202687 
L 169.765706 196.106528 
L 170.307701 196.208565 
L 170.849695 196.102357 
L 171.391689 197.794947 
L 171.933683 197.984369 
L 172.475678 196.638308 
L 173.017672 196.876 
L 173.559666 198.060899 
L 174.10166 197.325084 
L 174.643655 198.222616 
L 175.185649 196.61828 
L 175.727643 198.003707 
L 176.269637 197.448095 
L 176.811632 197.56017 
L 177.353626 197.397723 
L 177.89562 197.990023 
L 178.437614 196.073276 
L 178.979608 198.598784 
L 179.521603 198.122624 
L 180.063597 199.489825 
L 180.605591 198.819814 
L 181.147585 197.140295 
L 181.68958 198.107975 
L 182.231574 198.570564 
L 182.773568 198.405869 
L 183.315562 199.685307 
L 183.857557 199.125627 
L 184.399551 196.781125 
L 184.941545 198.306969 
L 185.483539 197.925235 
L 186.025533 199.534782 
L 186.567528 200.424536 
L 187.109522 199.328974 
L 188.735505 200.111307 
L 189.277499 197.570975 
L 189.819493 199.345532 
L 190.361487 198.807818 
L 190.903482 199.048909 
L 191.445476 199.719492 
L 191.98747 199.842025 
L 192.529464 199.101069 
L 193.071458 199.218537 
L 193.613453 199.12883 
L 194.155447 197.325917 
L 194.697441 200.215631 
L 195.239435 200.36933 
L 195.78143 199.439366 
L 196.323424 199.219112 
L 197.949407 199.917602 
L 198.491401 199.229458 
L 199.033395 200.101737 
L 199.575389 199.939024 
L 200.117384 200.362572 
L 201.201372 200.052233 
L 201.743366 201.078824 
L 202.28536 200.290257 
L 202.827355 201.179587 
L 203.369349 199.638887 
L 203.911343 200.151071 
L 204.453337 199.789831 
L 204.995332 198.425254 
L 205.537326 200.43753 
L 206.07932 198.722039 
L 206.621314 200.817628 
L 207.163309 201.524545 
L 207.705303 201.600652 
L 208.789291 200.103655 
L 209.331285 199.821344 
L 209.87328 200.64215 
L 210.415274 200.322265 
L 210.957268 199.236367 
L 211.499262 201.0386 
L 212.041257 199.948728 
L 212.583251 199.417136 
L 213.125245 199.55209 
L 213.667239 200.469609 
L 214.209234 201.710438 
L 214.751228 199.931515 
L 215.293222 201.647704 
L 215.835216 200.150097 
L 216.377211 200.837777 
L 216.919205 201.78325 
L 217.461199 202.385179 
L 218.003193 199.995247 
L 218.545187 201.389662 
L 219.087182 194.686515 
L 219.629176 200.278689 
L 220.17117 200.97967 
L 220.713164 201.270237 
L 221.255159 201.978503 
L 221.797153 201.257313 
L 222.339147 199.526744 
L 222.881141 201.168914 
L 223.423136 200.96537 
L 223.96513 202.112465 
L 224.507124 202.320018 
L 225.049118 200.920367 
L 225.591112 200.494124 
L 226.133107 201.276511 
L 226.675101 202.62838 
L 227.217095 201.048105 
L 227.759089 200.310556 
L 228.301084 200.693284 
L 228.843078 202.700805 
L 229.385072 200.900661 
L 229.927066 201.856116 
L 231.011055 200.372025 
L 231.553049 201.680557 
L 232.095043 200.394337 
L 232.637037 200.100114 
L 233.179032 200.505611 
L 233.721026 200.019893 
L 234.26302 201.027209 
L 234.805014 200.468265 
L 235.347009 200.425274 
L 235.889003 202.071966 
L 236.430997 201.48395 
L 236.972991 202.09156 
L 237.514986 200.261783 
L 238.05698 202.071793 
L 238.598974 201.474692 
L 239.140968 202.41771 
L 239.682963 200.838235 
L 240.224957 201.859293 
L 240.766951 201.53313 
L 241.308945 201.825397 
L 241.850939 202.382457 
L 242.392934 200.114676 
L 242.934928 201.296193 
L 243.476922 201.257339 
L 244.018916 202.338319 
L 244.560911 201.405452 
L 245.102905 201.636298 
L 245.644899 201.724209 
L 246.186893 201.438173 
L 246.728888 202.693059 
L 247.270882 201.457113 
L 247.812876 200.549363 
L 248.35487 202.250843 
L 248.896864 201.809797 
L 249.438859 204.476808 
L 249.980853 202.584114 
L 250.522847 201.279775 
L 251.064841 201.64097 
L 251.606836 203.899286 
L 252.690824 200.803848 
L 253.232818 201.960907 
L 253.774813 201.152854 
L 254.858801 202.294371 
L 255.400795 202.469234 
L 255.942789 202.224266 
L 256.484784 202.898637 
L 257.026778 201.797401 
L 257.568772 201.800166 
L 258.110766 202.281149 
L 258.652761 202.335365 
L 259.194755 201.541568 
L 259.736749 202.561978 
L 260.278743 203.242972 
L 260.820738 202.887308 
L 261.362732 202.090745 
L 261.904726 203.090167 
L 262.44672 203.014316 
L 262.988715 202.317549 
L 264.072703 202.909194 
L 264.614697 202.260429 
L 265.156691 201.95923 
L 265.698686 201.384771 
L 266.24068 201.018119 
L 267.324668 202.32616 
L 267.866663 201.80509 
L 268.408657 202.365001 
L 268.950651 201.108839 
L 269.492645 202.759174 
L 270.03464 201.722198 
L 270.576634 201.646809 
L 271.118628 201.824289 
L 271.660622 202.3645 
L 272.202616 201.909839 
L 272.744611 202.019548 
L 273.286605 203.063071 
L 274.370593 201.022901 
L 274.912588 202.980388 
L 275.454582 200.510755 
L 275.996576 202.910753 
L 276.53857 203.066583 
L 277.080565 201.75749 
L 277.622559 202.473087 
L 278.164553 200.282958 
L 278.706547 202.195947 
L 279.248542 201.54634 
L 279.790536 203.034066 
L 280.33253 202.807642 
L 280.874524 201.162811 
L 281.416518 203.141618 
L 281.958513 202.387371 
L 282.500507 203.48627 
L 283.042501 200.619643 
L 283.584495 202.648919 
L 284.668484 202.856388 
L 285.210478 202.344357 
L 285.752472 203.456615 
L 286.294467 201.878043 
L 286.836461 203.154208 
L 287.378455 203.142293 
L 287.920449 201.445268 
L 289.004438 203.508643 
L 289.546432 203.557023 
L 290.088426 201.391666 
L 290.63042 202.184374 
L 291.172415 201.857363 
L 291.714409 202.370476 
L 292.256403 203.325118 
L 292.798397 202.959109 
L 293.340392 201.932165 
L 294.42438 203.202246 
L 294.966374 201.420501 
L 295.508368 203.557146 
L 296.050363 202.871477 
L 296.592357 203.044457 
L 297.134351 202.986807 
L 297.676345 202.662068 
L 298.21834 202.48536 
L 298.760334 201.853587 
L 299.302328 201.951368 
L 299.844322 203.207224 
L 300.386317 202.581407 
L 300.928311 202.552217 
L 301.470305 202.655532 
L 302.012299 203.011056 
L 302.554294 203.895757 
L 303.096288 201.985288 
L 303.638282 202.565283 
L 304.180276 202.414513 
L 305.264265 202.745307 
L 305.806259 202.445223 
L 306.348253 203.885455 
L 306.890247 203.547342 
L 307.432242 202.626318 
L 307.974236 203.20186 
L 308.51623 203.230574 
L 309.058224 201.883874 
L 310.684207 203.535898 
L 311.226201 202.993249 
L 311.768195 203.69408 
L 312.852184 204.653785 
L 313.394178 203.797261 
L 313.936172 202.27481 
L 314.478167 204.254212 
L 315.562155 200.187745 
L 316.104149 202.095558 
L 316.646144 203.124724 
L 317.188138 201.938192 
L 317.730132 202.216146 
L 318.272126 203.933308 
L 318.814121 204.044385 
L 319.356115 203.377945 
L 319.898109 205.406102 
L 320.440103 205.212065 
L 320.982097 203.573126 
L 321.524092 203.948831 
L 322.066086 202.215889 
L 322.60808 203.993528 
L 323.150074 203.083385 
L 323.692069 204.269357 
L 324.234063 204.207933 
L 324.776057 203.542208 
L 325.318051 205.233036 
L 325.860046 203.148464 
L 326.40204 203.316531 
L 326.944034 203.740424 
L 327.486028 203.695481 
L 328.028022 203.31464 
L 328.570017 202.071922 
L 329.112011 203.133039 
L 329.654005 203.896462 
L 330.195999 202.953025 
L 330.737994 203.409728 
L 331.279988 203.462168 
L 332.363976 202.956104 
L 332.905971 203.31099 
L 333.447965 204.69967 
L 333.989959 203.755337 
L 334.531953 204.544097 
L 335.073947 202.444063 
L 335.615942 203.111378 
L 336.157936 204.146796 
L 336.69993 204.641241 
L 337.241924 204.593006 
L 337.783919 203.613899 
L 338.325913 202.935021 
L 338.867907 205.666511 
L 339.409901 215.822145 
L 339.951896 214.058998 
L 340.49389 214.361737 
L 341.035884 223.69965 
L 341.577878 222.592042 
L 342.119873 225.955505 
L 342.661867 225.572099 
L 343.203861 227.673802 
L 343.745855 226.582132 
L 344.287849 225.921227 
L 344.829844 226.55923 
L 345.913832 228.421458 
L 346.455826 229.175982 
L 346.997821 231.314892 
L 347.539815 232.402019 
L 348.623803 244.140728 
L 349.165798 242.312287 
L 349.707792 251.717419 
L 350.249786 256.979614 
L 350.79178 259.236061 
L 351.333774 258.816113 
L 351.875769 266.997057 
L 352.417763 269.244766 
L 352.959757 267.183987 
L 353.501751 271.652283 
L 354.043746 272.936006 
L 354.58574 271.607716 
L 355.669728 274.781388 
L 356.211723 268.301183 
L 356.753717 274.525976 
L 357.295711 276.831868 
L 357.837705 276.911861 
L 358.379699 274.538286 
L 358.921694 276.917941 
L 359.463688 278.625433 
L 360.005682 278.736089 
L 360.547676 280.351971 
L 361.089671 278.83556 
L 361.631665 279.376698 
L 362.173659 279.576031 
L 362.715653 263.342222 
L 363.799642 278.509996 
L 364.341636 280.399325 
L 364.88363 278.698884 
L 365.425625 279.107457 
L 365.967619 279.203972 
L 366.509613 280.513251 
L 367.051607 280.490659 
L 367.593601 281.204825 
L 368.135596 280.603621 
L 368.67759 280.657984 
L 369.219584 282.424426 
L 369.761578 281.116488 
L 370.303573 281.988368 
L 370.845567 281.067186 
L 371.387561 282.308205 
L 371.929555 282.574372 
L 372.47155 283.691445 
L 373.013544 283.646376 
L 373.555538 284.251966 
L 374.097532 285.216519 
L 374.639526 284.855439 
L 375.181521 286.119114 
L 375.723515 283.256394 
L 376.265509 282.452017 
L 376.807503 234.889606 
L 377.349498 270.958148 
L 377.891492 279.14178 
L 378.433486 280.520145 
L 378.97548 281.479301 
L 379.517475 283.041968 
L 380.601463 281.731493 
L 381.143457 283.266653 
L 381.685452 283.156951 
L 382.227446 283.452554 
L 382.76944 285.870578 
L 383.311434 285.518148 
L 383.853428 286.840108 
L 384.395423 287.260927 
L 384.937417 286.494076 
L 385.479411 285.303055 
L 386.021405 283.832713 
L 386.5634 283.931036 
L 387.105394 285.868597 
L 387.647388 284.44533 
L 388.731377 285.927695 
L 389.273371 285.618327 
L 389.815365 285.934531 
L 390.357359 287.558255 
L 390.899353 262.762562 
L 391.441348 285.783588 
L 391.983342 285.476611 
L 392.525336 285.911749 
L 393.06733 286.496274 
L 393.609325 287.590843 
L 394.151319 287.454836 
L 394.693313 287.672079 
L 395.235307 285.611154 
L 395.777302 287.994764 
L 396.319296 287.122619 
L 396.86129 285.377488 
L 397.403284 286.886345 
L 397.945278 289.213389 
L 398.487273 286.848386 
L 398.487273 286.848386 
" style="fill:none;stroke:#1f77b4;stroke-linecap:square;stroke-width:1.5;"/>
   </g>
   <g id="line2d_62">
    <path clip-path="url(#p1e917ff37f)" d="M 73.832727 120.106099 
L 74.374722 139.436985 
L 74.916716 151.299649 
L 75.45871 159.484574 
L 76.000704 165.650704 
L 77.084693 174.166513 
L 78.168681 180.002979 
L 79.25267 184.482915 
L 80.336658 188.246474 
L 81.962641 193.008837 
L 83.588623 197.071172 
L 85.7566 201.526127 
L 87.382583 204.463773 
L 90.092554 208.643411 
L 92.260531 211.530917 
L 94.428508 214.002673 
L 96.596485 216.205642 
L 99.84845 218.959956 
L 102.558422 220.971839 
L 107.43637 224.077244 
L 111.230329 226.19205 
L 118.276254 229.571584 
L 121.52822 230.922231 
L 123.154202 231.601091 
L 126.948162 233.078132 
L 129.116139 233.906912 
L 133.994087 235.614745 
L 135.62007 236.190969 
L 145.91796 239.534183 
L 149.71192 240.640213 
L 154.589868 242.027719 
L 174.643655 246.926155 
L 175.727643 247.145626 
L 177.353626 247.547045 
L 198.491401 251.857617 
L 200.659378 252.268678 
L 212.583251 254.468685 
L 213.667239 254.62941 
L 214.751228 254.837543 
L 215.293222 254.876063 
L 215.835216 255.073951 
L 216.919205 255.216086 
L 217.461199 255.34722 
L 218.003193 255.356365 
L 218.545187 255.535835 
L 220.17117 255.75237 
L 222.881141 256.245538 
L 225.591112 256.685654 
L 228.301084 257.228262 
L 229.385072 257.299991 
L 229.927066 257.469874 
L 231.011055 257.623285 
L 232.637037 257.881518 
L 233.721026 258.065701 
L 235.889003 258.4153 
L 240.766951 259.149349 
L 241.308945 259.316342 
L 241.850939 259.303618 
L 244.018916 259.749221 
L 274.912588 264.315048 
L 281.958513 265.271111 
L 282.500507 265.420881 
L 283.584495 265.556711 
L 290.63042 266.500063 
L 291.714409 266.561669 
L 292.798397 266.82569 
L 296.050363 267.184833 
L 297.134351 267.399061 
L 300.928311 267.839314 
L 307.974236 268.823452 
L 309.058224 268.909967 
L 310.684207 269.142966 
L 312.852184 269.35878 
L 314.478167 269.628305 
L 316.104149 269.829669 
L 319.898109 270.251988 
L 321.524092 270.52455 
L 325.318051 271.010217 
L 331.821982 271.787167 
L 332.363976 271.899409 
L 333.447965 271.920664 
L 333.989959 272.055661 
L 335.073947 272.127665 
L 336.69993 272.364673 
L 338.867907 272.600507 
L 341.035884 272.87771 
L 342.119873 273.023752 
L 346.455826 273.497919 
L 346.997821 273.642617 
L 347.539815 273.603255 
L 349.165798 273.803006 
L 350.79178 273.970094 
L 354.043746 274.365088 
L 356.211723 274.631567 
L 358.379699 274.885197 
L 358.921694 274.889176 
L 360.005682 275.056973 
L 362.715653 275.390828 
L 363.799642 275.478964 
L 365.425625 275.642211 
L 365.967619 275.781704 
L 367.593601 275.848231 
L 372.47155 276.463628 
L 375.181521 276.694614 
L 376.807503 276.917098 
L 378.97548 277.104097 
L 380.059469 277.248838 
L 381.143457 277.378681 
L 391.441348 278.396497 
L 392.525336 278.60558 
L 393.609325 278.706634 
L 397.945278 279.148821 
L 398.487273 279.212209 
L 398.487273 279.212209 
" style="fill:none;stroke:#ff7f0e;stroke-linecap:square;stroke-width:1.5;"/>
   </g>
   <g id="line2d_63">
    <path clip-path="url(#p1e917ff37f)" d="M 73.832727 107.474536 
L 74.374722 116.732219 
L 75.45871 121.250095 
L 78.710675 132.09182 
L 80.878652 138.756658 
L 82.504635 143.078274 
L 84.130618 146.870914 
L 86.298595 151.301822 
L 88.466572 155.158149 
L 90.634548 158.512262 
L 92.802525 161.433301 
L 94.970502 163.977035 
L 97.138479 166.212185 
L 99.84845 168.665745 
L 103.100416 171.22726 
L 106.352381 173.470681 
L 110.146341 175.78714 
L 114.482295 178.144995 
L 119.360243 180.529986 
L 125.322179 183.17055 
L 131.82611 185.773525 
L 138.872035 188.318535 
L 147.001949 190.954361 
L 155.673856 193.480816 
L 166.513741 196.315453 
L 175.185649 198.373156 
L 185.483539 200.608919 
L 196.865418 202.860698 
L 210.957268 205.388185 
L 219.629176 206.820803 
L 235.347009 209.178301 
L 249.438859 211.076893 
L 278.164553 214.469942 
L 312.852184 218.010721 
L 329.112011 219.492596 
L 354.043746 221.565717 
L 364.88363 222.391075 
L 374.639526 223.109172 
L 398.487273 224.740299 
L 398.487273 224.740299 
" style="fill:none;stroke:#2ca02c;stroke-linecap:square;stroke-width:1.5;"/>
   </g>
   <g id="line2d_64">
    <path clip-path="url(#p1e917ff37f)" d="M 73.832727 89.410992 
L 74.374722 102.706664 
L 74.916716 106.232734 
L 75.45871 108.538567 
L 76.542698 111.607882 
L 77.626687 113.584262 
L 78.710675 114.838848 
L 79.794664 115.696638 
L 81.420647 116.695319 
L 84.130618 118.052358 
L 87.924577 119.633761 
L 93.34452 121.610925 
L 104.184404 125.270605 
L 132.910099 134.690929 
L 143.207989 137.817177 
L 152.963885 140.557096 
L 163.261776 143.217011 
L 174.10166 145.787697 
L 186.025533 148.38996 
L 199.033395 151.00227 
L 212.583251 153.502617 
L 226.675101 155.881244 
L 241.850939 158.213315 
L 257.568772 160.40277 
L 274.370593 162.510448 
L 292.798397 164.581572 
L 312.31019 166.546213 
L 334.531953 168.550647 
L 358.921694 170.521693 
L 386.021405 172.486172 
L 398.487273 173.323271 
L 398.487273 173.323271 
" style="fill:none;stroke:#d62728;stroke-linecap:square;stroke-width:1.5;"/>
   </g>
   <g id="line2d_65">
    <path clip-path="url(#p1e917ff37f)" d="M 73.832727 73.148346 
L 74.916716 84.22862 
L 75.45871 88.579754 
L 76.000704 91.916838 
L 76.542698 94.391095 
L 77.084693 96.230098 
L 78.168681 98.737568 
L 79.25267 100.403624 
L 80.336658 101.649735 
L 81.962641 103.10654 
L 84.130618 104.632444 
L 86.298595 105.879679 
L 89.008566 107.182281 
L 92.260531 108.479533 
L 96.054491 109.732504 
L 100.390445 110.922712 
L 105.268393 112.037194 
L 110.688335 113.050634 
L 116.650272 113.930325 
L 123.154202 114.665539 
L 131.82611 115.408917 
L 144.833972 116.276224 
L 164.887758 117.371745 
L 191.98747 118.618362 
L 229.927066 120.124388 
L 290.088426 122.264967 
L 398.487273 125.89778 
L 398.487273 125.89778 
" style="fill:none;stroke:#9467bd;stroke-linecap:square;stroke-width:1.5;"/>
   </g>
   <g id="line2d_66">
    <path clip-path="url(#p1e917ff37f)" d="M 73.832727 165.961873 
L 74.374722 209.54513 
L 74.916716 214.483601 
L 75.45871 216.766336 
L 76.000704 218.405262 
L 76.542698 218.942282 
L 77.084693 220.018572 
L 77.626687 220.076146 
L 78.168681 220.860398 
L 78.710675 219.974902 
L 79.25267 220.782377 
L 79.794664 221.97687 
L 80.336658 221.842774 
L 80.878652 222.830658 
L 81.420647 222.081759 
L 81.962641 222.260918 
L 82.504635 222.777772 
L 83.046629 222.152784 
L 83.588623 222.95996 
L 84.130618 223.585594 
L 84.672612 223.952682 
L 85.214606 223.536811 
L 85.7566 223.151423 
L 86.298595 223.266611 
L 86.840589 222.87526 
L 87.382583 223.802844 
L 87.924577 224.176603 
L 88.466572 224.395227 
L 89.008566 224.776433 
L 89.55056 223.590498 
L 90.092554 224.592266 
L 90.634548 224.456435 
L 91.176543 224.639249 
L 91.718537 225.05998 
L 92.260531 224.403646 
L 92.802525 224.937725 
L 93.34452 225.060512 
L 93.886514 224.171759 
L 94.428508 225.756791 
L 94.970502 226.447904 
L 95.512497 225.66542 
L 96.054491 226.087222 
L 96.596485 224.927994 
L 97.138479 225.303037 
L 97.680474 225.374293 
L 98.222468 224.45211 
L 98.764462 226.142982 
L 99.306456 226.112555 
L 99.84845 226.500734 
L 100.390445 225.945172 
L 100.932439 226.151598 
L 101.474433 226.653959 
L 102.016427 227.011301 
L 102.558422 227.217423 
L 103.100416 227.034346 
L 103.64241 226.802658 
L 104.184404 226.882856 
L 104.726399 226.59583 
L 105.268393 227.319215 
L 105.810387 226.666978 
L 106.352381 226.996095 
L 106.894375 226.860919 
L 107.43637 227.450479 
L 107.978364 226.522719 
L 108.520358 226.136963 
L 109.062352 227.030397 
L 109.604347 227.794418 
L 110.146341 228.137152 
L 110.688335 227.583864 
L 111.230329 226.622341 
L 111.772324 227.561637 
L 112.314318 227.567415 
L 112.856312 227.924938 
L 113.398306 228.256763 
L 113.940301 227.911996 
L 114.482295 228.391058 
L 115.024289 227.865568 
L 115.566283 228.196969 
L 116.108277 228.216486 
L 116.650272 227.99332 
L 117.192266 228.088701 
L 117.73426 227.553887 
L 118.276254 228.082735 
L 118.818249 227.656077 
L 119.360243 228.128307 
L 119.902237 228.022428 
L 120.444231 227.650454 
L 120.986226 228.626795 
L 121.52822 228.759913 
L 122.070214 229.043774 
L 122.612208 228.250057 
L 123.154202 228.83613 
L 123.696197 228.466407 
L 124.238191 228.915104 
L 124.780185 228.909463 
L 125.322179 229.319716 
L 125.864174 228.819126 
L 126.406168 230.443216 
L 126.948162 230.343257 
L 127.490156 230.136207 
" style="fill:none;stroke:#8c564b;stroke-dasharray:5.55,2.4;stroke-dashoffset:0;stroke-width:1.5;"/>
   </g>
   <g id="line2d_67">
    <path clip-path="url(#p1e917ff37f)" d="M 73.832727 164.610027 
L 74.374722 211.185276 
L 74.916716 219.562486 
L 75.45871 224.839244 
L 76.000704 228.764402 
L 76.542698 231.613522 
L 77.084693 233.966932 
L 77.626687 236.055496 
L 78.168681 237.571245 
L 78.710675 239.358991 
L 79.25267 240.913201 
L 79.794664 242.024601 
L 80.336658 242.982112 
L 80.878652 244.544297 
L 81.420647 245.173839 
L 81.962641 246.191517 
L 82.504635 246.729058 
L 83.046629 247.810499 
L 83.588623 248.226031 
L 84.130618 249.300668 
L 84.672612 249.591436 
L 85.214606 250.116694 
L 85.7566 250.811295 
L 86.298595 250.911693 
L 86.840589 252.024864 
L 87.382583 252.506976 
L 87.924577 252.74748 
L 88.466572 252.418472 
L 89.008566 253.311376 
L 89.55056 253.524201 
L 90.092554 253.760134 
L 90.634548 254.493889 
L 91.176543 255.13373 
L 91.718537 254.975416 
L 92.260531 255.253611 
L 92.802525 255.673641 
L 93.34452 256.048393 
L 93.886514 256.201536 
L 94.428508 255.946424 
L 94.970502 257.063106 
L 95.512497 256.844529 
L 96.054491 257.804752 
L 96.596485 256.769933 
L 97.138479 256.864717 
L 97.680474 258.592755 
L 98.222468 258.115167 
L 98.764462 258.594228 
L 99.306456 258.742274 
L 99.84845 258.233889 
L 100.390445 259.363426 
L 100.932439 259.393948 
L 101.474433 259.147798 
L 102.016427 259.182656 
L 102.558422 260.450534 
L 103.100416 260.015688 
L 103.64241 258.959846 
L 104.184404 260.77199 
L 104.726399 260.926464 
L 105.268393 261.718408 
L 105.810387 261.359645 
L 106.352381 260.151176 
L 106.894375 260.76467 
L 107.43637 262.587467 
L 107.978364 262.197342 
L 108.520358 262.575576 
L 109.062352 262.955307 
L 109.604347 262.196449 
L 110.146341 262.501115 
L 110.688335 260.769626 
L 111.230329 263.344045 
L 111.772324 261.971907 
L 112.314318 261.312503 
L 112.856312 261.851786 
L 113.398306 262.3486 
L 113.940301 263.722153 
L 114.482295 263.299737 
L 115.024289 264.02598 
L 115.566283 262.624997 
L 116.108277 262.904092 
L 116.650272 263.514784 
L 117.192266 263.300802 
L 117.73426 262.648452 
L 118.276254 263.791009 
L 118.818249 264.341516 
L 119.360243 263.914489 
L 119.902237 263.703288 
L 120.444231 263.902401 
L 120.986226 263.17529 
L 121.52822 263.93052 
L 122.070214 264.265983 
L 122.612208 263.406543 
L 123.154202 263.876743 
L 123.696197 264.563437 
L 124.238191 263.753584 
L 124.780185 264.27056 
L 125.322179 264.567013 
L 125.864174 264.626007 
L 126.406168 265.006211 
L 126.948162 266.2001 
L 127.490156 265.648922 
" style="fill:none;stroke:#e377c2;stroke-dasharray:5.55,2.4;stroke-dashoffset:0;stroke-width:1.5;"/>
   </g>
   <g id="line2d_68">
    <path clip-path="url(#p1e917ff37f)" d="M 73.832727 161.753172 
L 74.374722 203.780439 
L 74.916716 213.284 
L 75.45871 219.537662 
L 76.000704 224.056451 
L 76.542698 227.609768 
L 77.084693 230.716509 
L 77.626687 233.324523 
L 78.168681 235.732441 
L 78.710675 237.876823 
L 79.25267 239.652825 
L 79.794664 241.38805 
L 80.336658 243.180076 
L 80.878652 244.499349 
L 81.420647 246.135459 
L 81.962641 247.535797 
L 82.504635 248.604563 
L 83.046629 249.681621 
L 83.588623 250.909787 
L 84.130618 252.030739 
L 84.672612 253.005095 
L 85.214606 253.912414 
L 85.7566 255.04631 
L 86.298595 256.162396 
L 86.840589 256.719832 
L 87.382583 258.055558 
L 87.924577 258.669163 
L 88.466572 259.412447 
L 89.008566 260.473969 
L 89.55056 260.766433 
L 90.092554 261.681916 
L 90.634548 262.298414 
L 91.176543 262.968184 
L 91.718537 264.128943 
L 92.260531 264.866725 
L 92.802525 265.493437 
L 93.34452 266.309722 
L 93.886514 266.87181 
L 94.428508 267.22431 
L 94.970502 268.049702 
L 95.512497 268.062087 
L 96.054491 269.246499 
L 96.596485 269.66561 
L 97.138479 269.986363 
L 97.680474 271.100148 
L 98.222468 272.2643 
L 98.764462 272.711671 
L 99.306456 273.451052 
L 99.84845 273.279901 
L 100.390445 273.326429 
L 100.932439 274.838648 
L 101.474433 275.170245 
L 102.016427 275.379024 
L 102.558422 276.16589 
L 103.100416 276.677335 
L 103.64241 276.650608 
L 104.184404 277.641259 
L 104.726399 277.726193 
L 105.268393 278.114891 
L 105.810387 278.953083 
L 106.352381 279.75552 
L 106.894375 280.148194 
L 107.43637 280.413192 
L 107.978364 280.601898 
L 108.520358 281.29726 
L 109.062352 282.271764 
L 109.604347 282.575685 
L 110.146341 282.265064 
L 110.688335 283.111422 
L 111.230329 283.796341 
L 111.772324 283.852405 
L 112.314318 284.539725 
L 112.856312 284.088332 
L 113.398306 284.582516 
L 113.940301 286.393044 
L 114.482295 286.250991 
L 115.024289 286.210476 
L 115.566283 286.604003 
L 116.108277 286.465429 
L 116.650272 286.478284 
L 117.192266 288.645331 
L 117.73426 288.918291 
L 118.276254 288.567457 
L 118.818249 288.86732 
L 119.360243 289.292475 
L 119.902237 289.091204 
L 120.444231 291.008541 
L 120.986226 291.932198 
L 121.52822 291.183642 
L 122.070214 291.789699 
L 122.612208 290.883976 
L 123.154202 291.493532 
L 123.696197 293.52315 
L 124.238191 294.250855 
L 124.780185 292.634904 
L 125.322179 292.416521 
L 125.864174 294.480778 
L 126.406168 294.347442 
L 126.948162 295.488 
L 127.490156 295.391307 
" style="fill:none;stroke:#7f7f7f;stroke-dasharray:5.55,2.4;stroke-dashoffset:0;stroke-width:1.5;"/>
   </g>
   <g id="patch_3">
    <path d="M 57.6 307.584 
L 57.6 41.472 
" style="fill:none;stroke:#000000;stroke-linecap:square;stroke-linejoin:miter;stroke-width:0.8;"/>
   </g>
   <g id="patch_4">
    <path d="M 414.72 307.584 
L 414.72 41.472 
" style="fill:none;stroke:#000000;stroke-linecap:square;stroke-linejoin:miter;stroke-width:0.8;"/>
   </g>
   <g id="patch_5">
    <path d="M 57.6 307.584 
L 414.72 307.584 
" style="fill:none;stroke:#000000;stroke-linecap:square;stroke-linejoin:miter;stroke-width:0.8;"/>
   </g>
   <g id="patch_6">
    <path d="M 57.6 41.472 
L 414.72 41.472 
" style="fill:none;stroke:#000000;stroke-linecap:square;stroke-linejoin:miter;stroke-width:0.8;"/>
   </g>
   <g id="legend_1">
    <g id="patch_7">
     <path d="M 299.895 166.897 
L 407.72 166.897 
Q 409.72 166.897 409.72 164.897 
L 409.72 48.472 
Q 409.72 46.472 407.72 46.472 
L 299.895 46.472 
Q 297.895 46.472 297.895 48.472 
L 297.895 164.897 
Q 297.895 166.897 299.895 166.897 
z
" style="fill:#ffffff;opacity:0.8;stroke:#cccccc;stroke-linejoin:miter;"/>
    </g>
    <g id="line2d_69">
     <path d="M 301.895 54.570438 
L 321.895 54.570438 
" style="fill:none;stroke:#1f77b4;stroke-linecap:square;stroke-width:1.5;"/>
    </g>
    <g id="line2d_70"/>
    <g id="text_12">
     <!-- SGD, lr 10 -->
     <defs>
      <path d="M 53.515625 70.515625 
L 53.515625 60.890625 
Q 47.90625 63.578125 42.921875 64.890625 
Q 37.9375 66.21875 33.296875 66.21875 
Q 25.25 66.21875 20.875 63.09375 
Q 16.5 59.96875 16.5 54.203125 
Q 16.5 49.359375 19.40625 46.890625 
Q 22.3125 44.4375 30.421875 42.921875 
L 36.375 41.703125 
Q 47.40625 39.59375 52.65625 34.296875 
Q 57.90625 29 57.90625 20.125 
Q 57.90625 9.515625 50.796875 4.046875 
Q 43.703125 -1.421875 29.984375 -1.421875 
Q 24.8125 -1.421875 18.96875 -0.25 
Q 13.140625 0.921875 6.890625 3.21875 
L 6.890625 13.375 
Q 12.890625 10.015625 18.65625 8.296875 
Q 24.421875 6.59375 29.984375 6.59375 
Q 38.421875 6.59375 43.015625 9.90625 
Q 47.609375 13.234375 47.609375 19.390625 
Q 47.609375 24.75 44.3125 27.78125 
Q 41.015625 30.8125 33.5 32.328125 
L 27.484375 33.5 
Q 16.453125 35.6875 11.515625 40.375 
Q 6.59375 45.0625 6.59375 53.421875 
Q 6.59375 63.09375 13.40625 68.65625 
Q 20.21875 74.21875 32.171875 74.21875 
Q 37.3125 74.21875 42.625 73.28125 
Q 47.953125 72.359375 53.515625 70.515625 
z
" id="DejaVuSans-53"/>
      <path d="M 59.515625 10.40625 
L 59.515625 29.984375 
L 43.40625 29.984375 
L 43.40625 38.09375 
L 69.28125 38.09375 
L 69.28125 6.78125 
Q 63.578125 2.734375 56.6875 0.65625 
Q 49.8125 -1.421875 42 -1.421875 
Q 24.90625 -1.421875 15.25 8.5625 
Q 5.609375 18.5625 5.609375 36.375 
Q 5.609375 54.25 15.25 64.234375 
Q 24.90625 74.21875 42 74.21875 
Q 49.125 74.21875 55.546875 72.453125 
Q 61.96875 70.703125 67.390625 67.28125 
L 67.390625 56.78125 
Q 61.921875 61.421875 55.765625 63.765625 
Q 49.609375 66.109375 42.828125 66.109375 
Q 29.4375 66.109375 22.71875 58.640625 
Q 16.015625 51.171875 16.015625 36.375 
Q 16.015625 21.625 22.71875 14.15625 
Q 29.4375 6.6875 42.828125 6.6875 
Q 48.046875 6.6875 52.140625 7.59375 
Q 56.25 8.5 59.515625 10.40625 
z
" id="DejaVuSans-47"/>
      <path d="M 19.671875 64.796875 
L 19.671875 8.109375 
L 31.59375 8.109375 
Q 46.6875 8.109375 53.6875 14.9375 
Q 60.6875 21.78125 60.6875 36.53125 
Q 60.6875 51.171875 53.6875 57.984375 
Q 46.6875 64.796875 31.59375 64.796875 
z
M 9.8125 72.90625 
L 30.078125 72.90625 
Q 51.265625 72.90625 61.171875 64.09375 
Q 71.09375 55.28125 71.09375 36.53125 
Q 71.09375 17.671875 61.125 8.828125 
Q 51.171875 0 30.078125 0 
L 9.8125 0 
z
" id="DejaVuSans-44"/>
      <path d="M 11.71875 12.40625 
L 22.015625 12.40625 
L 22.015625 4 
L 14.015625 -11.625 
L 7.71875 -11.625 
L 11.71875 4 
z
" id="DejaVuSans-2c"/>
      <path id="DejaVuSans-20"/>
      <path d="M 41.109375 46.296875 
Q 39.59375 47.171875 37.8125 47.578125 
Q 36.03125 48 33.890625 48 
Q 26.265625 48 22.1875 43.046875 
Q 18.109375 38.09375 18.109375 28.8125 
L 18.109375 0 
L 9.078125 0 
L 9.078125 54.6875 
L 18.109375 54.6875 
L 18.109375 46.1875 
Q 20.953125 51.171875 25.484375 53.578125 
Q 30.03125 56 36.53125 56 
Q 37.453125 56 38.578125 55.875 
Q 39.703125 55.765625 41.0625 55.515625 
z
" id="DejaVuSans-72"/>
     </defs>
     <g transform="translate(329.895 58.070438)scale(0.1 -0.1)">
      <use xlink:href="#DejaVuSans-53"/>
      <use x="63.476562" xlink:href="#DejaVuSans-47"/>
      <use x="140.966797" xlink:href="#DejaVuSans-44"/>
      <use x="217.96875" xlink:href="#DejaVuSans-2c"/>
      <use x="249.755859" xlink:href="#DejaVuSans-20"/>
      <use x="281.542969" xlink:href="#DejaVuSans-6c"/>
      <use x="309.326172" xlink:href="#DejaVuSans-72"/>
      <use x="350.439453" xlink:href="#DejaVuSans-20"/>
      <use x="382.226562" xlink:href="#DejaVuSans-31"/>
      <use x="445.849609" xlink:href="#DejaVuSans-30"/>
     </g>
    </g>
    <g id="line2d_71">
     <path d="M 301.895 69.248563 
L 321.895 69.248563 
" style="fill:none;stroke:#ff7f0e;stroke-linecap:square;stroke-width:1.5;"/>
    </g>
    <g id="line2d_72"/>
    <g id="text_13">
     <!-- SGD, lr 1 -->
     <g transform="translate(329.895 72.748563)scale(0.1 -0.1)">
      <use xlink:href="#DejaVuSans-53"/>
      <use x="63.476562" xlink:href="#DejaVuSans-47"/>
      <use x="140.966797" xlink:href="#DejaVuSans-44"/>
      <use x="217.96875" xlink:href="#DejaVuSans-2c"/>
      <use x="249.755859" xlink:href="#DejaVuSans-20"/>
      <use x="281.542969" xlink:href="#DejaVuSans-6c"/>
      <use x="309.326172" xlink:href="#DejaVuSans-72"/>
      <use x="350.439453" xlink:href="#DejaVuSans-20"/>
      <use x="382.226562" xlink:href="#DejaVuSans-31"/>
     </g>
    </g>
    <g id="line2d_73">
     <path d="M 301.895 83.926688 
L 321.895 83.926688 
" style="fill:none;stroke:#2ca02c;stroke-linecap:square;stroke-width:1.5;"/>
    </g>
    <g id="line2d_74"/>
    <g id="text_14">
     <!-- SGD, lr 0.1 -->
     <defs>
      <path d="M 10.6875 12.40625 
L 21 12.40625 
L 21 0 
L 10.6875 0 
z
" id="DejaVuSans-2e"/>
     </defs>
     <g transform="translate(329.895 87.426688)scale(0.1 -0.1)">
      <use xlink:href="#DejaVuSans-53"/>
      <use x="63.476562" xlink:href="#DejaVuSans-47"/>
      <use x="140.966797" xlink:href="#DejaVuSans-44"/>
      <use x="217.96875" xlink:href="#DejaVuSans-2c"/>
      <use x="249.755859" xlink:href="#DejaVuSans-20"/>
      <use x="281.542969" xlink:href="#DejaVuSans-6c"/>
      <use x="309.326172" xlink:href="#DejaVuSans-72"/>
      <use x="350.439453" xlink:href="#DejaVuSans-20"/>
      <use x="382.226562" xlink:href="#DejaVuSans-30"/>
      <use x="445.849609" xlink:href="#DejaVuSans-2e"/>
      <use x="477.636719" xlink:href="#DejaVuSans-31"/>
     </g>
    </g>
    <g id="line2d_75">
     <path d="M 301.895 98.604813 
L 321.895 98.604813 
" style="fill:none;stroke:#d62728;stroke-linecap:square;stroke-width:1.5;"/>
    </g>
    <g id="line2d_76"/>
    <g id="text_15">
     <!-- SGD, lr 0.01 -->
     <g transform="translate(329.895 102.104813)scale(0.1 -0.1)">
      <use xlink:href="#DejaVuSans-53"/>
      <use x="63.476562" xlink:href="#DejaVuSans-47"/>
      <use x="140.966797" xlink:href="#DejaVuSans-44"/>
      <use x="217.96875" xlink:href="#DejaVuSans-2c"/>
      <use x="249.755859" xlink:href="#DejaVuSans-20"/>
      <use x="281.542969" xlink:href="#DejaVuSans-6c"/>
      <use x="309.326172" xlink:href="#DejaVuSans-72"/>
      <use x="350.439453" xlink:href="#DejaVuSans-20"/>
      <use x="382.226562" xlink:href="#DejaVuSans-30"/>
      <use x="445.849609" xlink:href="#DejaVuSans-2e"/>
      <use x="477.636719" xlink:href="#DejaVuSans-30"/>
      <use x="541.259766" xlink:href="#DejaVuSans-31"/>
     </g>
    </g>
    <g id="line2d_77">
     <path d="M 301.895 113.282938 
L 321.895 113.282938 
" style="fill:none;stroke:#9467bd;stroke-linecap:square;stroke-width:1.5;"/>
    </g>
    <g id="line2d_78"/>
    <g id="text_16">
     <!-- SGD, lr 0.001 -->
     <g transform="translate(329.895 116.782938)scale(0.1 -0.1)">
      <use xlink:href="#DejaVuSans-53"/>
      <use x="63.476562" xlink:href="#DejaVuSans-47"/>
      <use x="140.966797" xlink:href="#DejaVuSans-44"/>
      <use x="217.96875" xlink:href="#DejaVuSans-2c"/>
      <use x="249.755859" xlink:href="#DejaVuSans-20"/>
      <use x="281.542969" xlink:href="#DejaVuSans-6c"/>
      <use x="309.326172" xlink:href="#DejaVuSans-72"/>
      <use x="350.439453" xlink:href="#DejaVuSans-20"/>
      <use x="382.226562" xlink:href="#DejaVuSans-30"/>
      <use x="445.849609" xlink:href="#DejaVuSans-2e"/>
      <use x="477.636719" xlink:href="#DejaVuSans-30"/>
      <use x="541.259766" xlink:href="#DejaVuSans-30"/>
      <use x="604.882812" xlink:href="#DejaVuSans-31"/>
     </g>
    </g>
    <g id="line2d_79">
     <path d="M 301.895 127.961063 
L 321.895 127.961063 
" style="fill:none;stroke:#8c564b;stroke-dasharray:5.55,2.4;stroke-dashoffset:0;stroke-width:1.5;"/>
    </g>
    <g id="line2d_80"/>
    <g id="text_17">
     <!-- SGN, cg iter 10 -->
     <defs>
      <path d="M 9.8125 72.90625 
L 23.09375 72.90625 
L 55.421875 11.921875 
L 55.421875 72.90625 
L 64.984375 72.90625 
L 64.984375 0 
L 51.703125 0 
L 19.390625 60.984375 
L 19.390625 0 
L 9.8125 0 
z
" id="DejaVuSans-4e"/>
      <path d="M 45.40625 27.984375 
Q 45.40625 37.75 41.375 43.109375 
Q 37.359375 48.484375 30.078125 48.484375 
Q 22.859375 48.484375 18.828125 43.109375 
Q 14.796875 37.75 14.796875 27.984375 
Q 14.796875 18.265625 18.828125 12.890625 
Q 22.859375 7.515625 30.078125 7.515625 
Q 37.359375 7.515625 41.375 12.890625 
Q 45.40625 18.265625 45.40625 27.984375 
z
M 54.390625 6.78125 
Q 54.390625 -7.171875 48.1875 -13.984375 
Q 42 -20.796875 29.203125 -20.796875 
Q 24.46875 -20.796875 20.265625 -20.09375 
Q 16.0625 -19.390625 12.109375 -17.921875 
L 12.109375 -9.1875 
Q 16.0625 -11.328125 19.921875 -12.34375 
Q 23.78125 -13.375 27.78125 -13.375 
Q 36.625 -13.375 41.015625 -8.765625 
Q 45.40625 -4.15625 45.40625 5.171875 
L 45.40625 9.625 
Q 42.625 4.78125 38.28125 2.390625 
Q 33.9375 0 27.875 0 
Q 17.828125 0 11.671875 7.65625 
Q 5.515625 15.328125 5.515625 27.984375 
Q 5.515625 40.671875 11.671875 48.328125 
Q 17.828125 56 27.875 56 
Q 33.9375 56 38.28125 53.609375 
Q 42.625 51.21875 45.40625 46.390625 
L 45.40625 54.6875 
L 54.390625 54.6875 
z
" id="DejaVuSans-67"/>
      <path d="M 9.421875 54.6875 
L 18.40625 54.6875 
L 18.40625 0 
L 9.421875 0 
z
M 9.421875 75.984375 
L 18.40625 75.984375 
L 18.40625 64.59375 
L 9.421875 64.59375 
z
" id="DejaVuSans-69"/>
      <path d="M 18.3125 70.21875 
L 18.3125 54.6875 
L 36.8125 54.6875 
L 36.8125 47.703125 
L 18.3125 47.703125 
L 18.3125 18.015625 
Q 18.3125 11.328125 20.140625 9.421875 
Q 21.96875 7.515625 27.59375 7.515625 
L 36.8125 7.515625 
L 36.8125 0 
L 27.59375 0 
Q 17.1875 0 13.234375 3.875 
Q 9.28125 7.765625 9.28125 18.015625 
L 9.28125 47.703125 
L 2.6875 47.703125 
L 2.6875 54.6875 
L 9.28125 54.6875 
L 9.28125 70.21875 
z
" id="DejaVuSans-74"/>
     </defs>
     <g transform="translate(329.895 131.461063)scale(0.1 -0.1)">
      <use xlink:href="#DejaVuSans-53"/>
      <use x="63.476562" xlink:href="#DejaVuSans-47"/>
      <use x="140.966797" xlink:href="#DejaVuSans-4e"/>
      <use x="215.771484" xlink:href="#DejaVuSans-2c"/>
      <use x="247.558594" xlink:href="#DejaVuSans-20"/>
      <use x="279.345703" xlink:href="#DejaVuSans-63"/>
      <use x="334.326172" xlink:href="#DejaVuSans-67"/>
      <use x="397.802734" xlink:href="#DejaVuSans-20"/>
      <use x="429.589844" xlink:href="#DejaVuSans-69"/>
      <use x="457.373047" xlink:href="#DejaVuSans-74"/>
      <use x="496.582031" xlink:href="#DejaVuSans-65"/>
      <use x="558.105469" xlink:href="#DejaVuSans-72"/>
      <use x="599.21875" xlink:href="#DejaVuSans-20"/>
      <use x="631.005859" xlink:href="#DejaVuSans-31"/>
      <use x="694.628906" xlink:href="#DejaVuSans-30"/>
     </g>
    </g>
    <g id="line2d_81">
     <path d="M 301.895 142.639188 
L 321.895 142.639188 
" style="fill:none;stroke:#e377c2;stroke-dasharray:5.55,2.4;stroke-dashoffset:0;stroke-width:1.5;"/>
    </g>
    <g id="line2d_82"/>
    <g id="text_18">
     <!-- SGN, cg iter 5 -->
     <g transform="translate(329.895 146.139188)scale(0.1 -0.1)">
      <use xlink:href="#DejaVuSans-53"/>
      <use x="63.476562" xlink:href="#DejaVuSans-47"/>
      <use x="140.966797" xlink:href="#DejaVuSans-4e"/>
      <use x="215.771484" xlink:href="#DejaVuSans-2c"/>
      <use x="247.558594" xlink:href="#DejaVuSans-20"/>
      <use x="279.345703" xlink:href="#DejaVuSans-63"/>
      <use x="334.326172" xlink:href="#DejaVuSans-67"/>
      <use x="397.802734" xlink:href="#DejaVuSans-20"/>
      <use x="429.589844" xlink:href="#DejaVuSans-69"/>
      <use x="457.373047" xlink:href="#DejaVuSans-74"/>
      <use x="496.582031" xlink:href="#DejaVuSans-65"/>
      <use x="558.105469" xlink:href="#DejaVuSans-72"/>
      <use x="599.21875" xlink:href="#DejaVuSans-20"/>
      <use x="631.005859" xlink:href="#DejaVuSans-35"/>
     </g>
    </g>
    <g id="line2d_83">
     <path d="M 301.895 157.317313 
L 321.895 157.317313 
" style="fill:none;stroke:#7f7f7f;stroke-dasharray:5.55,2.4;stroke-dashoffset:0;stroke-width:1.5;"/>
    </g>
    <g id="line2d_84"/>
    <g id="text_19">
     <!-- SGN, cg iter 3 -->
     <g transform="translate(329.895 160.817313)scale(0.1 -0.1)">
      <use xlink:href="#DejaVuSans-53"/>
      <use x="63.476562" xlink:href="#DejaVuSans-47"/>
      <use x="140.966797" xlink:href="#DejaVuSans-4e"/>
      <use x="215.771484" xlink:href="#DejaVuSans-2c"/>
      <use x="247.558594" xlink:href="#DejaVuSans-20"/>
      <use x="279.345703" xlink:href="#DejaVuSans-63"/>
      <use x="334.326172" xlink:href="#DejaVuSans-67"/>
      <use x="397.802734" xlink:href="#DejaVuSans-20"/>
      <use x="429.589844" xlink:href="#DejaVuSans-69"/>
      <use x="457.373047" xlink:href="#DejaVuSans-74"/>
      <use x="496.582031" xlink:href="#DejaVuSans-65"/>
      <use x="558.105469" xlink:href="#DejaVuSans-72"/>
      <use x="599.21875" xlink:href="#DejaVuSans-20"/>
      <use x="631.005859" xlink:href="#DejaVuSans-33"/>
     </g>
    </g>
   </g>
  </g>
 </g>
 <defs>
  <clipPath id="p1e917ff37f">
   <rect height="266.112" width="357.12" x="57.6" y="41.472"/>
  </clipPath>
 </defs>
</svg>
