<?xml version="1.0" encoding="utf-8" standalone="no"?>
<!DOCTYPE svg PUBLIC "-//W3C//DTD SVG 1.1//EN"
  "http://www.w3.org/Graphics/SVG/1.1/DTD/svg11.dtd">
<!-- Created with matplotlib (http://matplotlib.org/) -->
<svg height="345.6pt" version="1.1" viewBox="0 0 460.8 345.6" width="460.8pt" xmlns="http://www.w3.org/2000/svg" xmlns:xlink="http://www.w3.org/1999/xlink">
 <defs>
  <style type="text/css">
*{stroke-linecap:butt;stroke-linejoin:round;}
  </style>
 </defs>
 <g id="figure_1">
  <g id="patch_1">
   <path d="M 0 345.6 
L 460.8 345.6 
L 460.8 0 
L 0 0 
z
" style="fill:#ffffff;"/>
  </g>
  <g id="axes_1">
   <g id="patch_2">
    <path d="M 57.6 307.584 
L 414.72 307.584 
L 414.72 41.472 
L 57.6 41.472 
z
" style="fill:#ffffff;"/>
   </g>
   <g id="matplotlib.axis_1">
    <g id="xtick_1">
     <g id="line2d_1">
      <path clip-path="url(#pb5f1e553d5)" d="M 57.6 307.584 
L 57.6 41.472 
" style="fill:none;stroke:#b0b0b0;stroke-linecap:square;stroke-width:0.8;"/>
     </g>
     <g id="line2d_2">
      <defs>
       <path d="M 0 0 
L 0 3.5 
" id="m24092d3fc5" style="stroke:#000000;stroke-width:0.8;"/>
      </defs>
      <g>
       <use style="stroke:#000000;stroke-width:0.8;" x="57.6" xlink:href="#m24092d3fc5" y="307.584"/>
      </g>
     </g>
     <g id="text_1">
      <!-- 0 -->
      <defs>
       <path d="M 31.78125 66.40625 
Q 24.171875 66.40625 20.328125 58.90625 
Q 16.5 51.421875 16.5 36.375 
Q 16.5 21.390625 20.328125 13.890625 
Q 24.171875 6.390625 31.78125 6.390625 
Q 39.453125 6.390625 43.28125 13.890625 
Q 47.125 21.390625 47.125 36.375 
Q 47.125 51.421875 43.28125 58.90625 
Q 39.453125 66.40625 31.78125 66.40625 
z
M 31.78125 74.21875 
Q 44.046875 74.21875 50.515625 64.515625 
Q 56.984375 54.828125 56.984375 36.375 
Q 56.984375 17.96875 50.515625 8.265625 
Q 44.046875 -1.421875 31.78125 -1.421875 
Q 19.53125 -1.421875 13.0625 8.265625 
Q 6.59375 17.96875 6.59375 36.375 
Q 6.59375 54.828125 13.0625 64.515625 
Q 19.53125 74.21875 31.78125 74.21875 
z
" id="DejaVuSans-30"/>
      </defs>
      <g transform="translate(54.41875 322.182437)scale(0.1 -0.1)">
       <use xlink:href="#DejaVuSans-30"/>
      </g>
     </g>
    </g>
    <g id="xtick_2">
     <g id="line2d_3">
      <path clip-path="url(#pb5f1e553d5)" d="M 129.024 307.584 
L 129.024 41.472 
" style="fill:none;stroke:#b0b0b0;stroke-linecap:square;stroke-width:0.8;"/>
     </g>
     <g id="line2d_4">
      <g>
       <use style="stroke:#000000;stroke-width:0.8;" x="129.024" xlink:href="#m24092d3fc5" y="307.584"/>
      </g>
     </g>
     <g id="text_2">
      <!-- 20 -->
      <defs>
       <path d="M 19.1875 8.296875 
L 53.609375 8.296875 
L 53.609375 0 
L 7.328125 0 
L 7.328125 8.296875 
Q 12.9375 14.109375 22.625 23.890625 
Q 32.328125 33.6875 34.8125 36.53125 
Q 39.546875 41.84375 41.421875 45.53125 
Q 43.3125 49.21875 43.3125 52.78125 
Q 43.3125 58.59375 39.234375 62.25 
Q 35.15625 65.921875 28.609375 65.921875 
Q 23.96875 65.921875 18.8125 64.3125 
Q 13.671875 62.703125 7.8125 59.421875 
L 7.8125 69.390625 
Q 13.765625 71.78125 18.9375 73 
Q 24.125 74.21875 28.421875 74.21875 
Q 39.75 74.21875 46.484375 68.546875 
Q 53.21875 62.890625 53.21875 53.421875 
Q 53.21875 48.921875 51.53125 44.890625 
Q 49.859375 40.875 45.40625 35.40625 
Q 44.1875 33.984375 37.640625 27.21875 
Q 31.109375 20.453125 19.1875 8.296875 
z
" id="DejaVuSans-32"/>
      </defs>
      <g transform="translate(122.6615 322.182437)scale(0.1 -0.1)">
       <use xlink:href="#DejaVuSans-32"/>
       <use x="63.623047" xlink:href="#DejaVuSans-30"/>
      </g>
     </g>
    </g>
    <g id="xtick_3">
     <g id="line2d_5">
      <path clip-path="url(#pb5f1e553d5)" d="M 200.448 307.584 
L 200.448 41.472 
" style="fill:none;stroke:#b0b0b0;stroke-linecap:square;stroke-width:0.8;"/>
     </g>
     <g id="line2d_6">
      <g>
       <use style="stroke:#000000;stroke-width:0.8;" x="200.448" xlink:href="#m24092d3fc5" y="307.584"/>
      </g>
     </g>
     <g id="text_3">
      <!-- 40 -->
      <defs>
       <path d="M 37.796875 64.3125 
L 12.890625 25.390625 
L 37.796875 25.390625 
z
M 35.203125 72.90625 
L 47.609375 72.90625 
L 47.609375 25.390625 
L 58.015625 25.390625 
L 58.015625 17.1875 
L 47.609375 17.1875 
L 47.609375 0 
L 37.796875 0 
L 37.796875 17.1875 
L 4.890625 17.1875 
L 4.890625 26.703125 
z
" id="DejaVuSans-34"/>
      </defs>
      <g transform="translate(194.0855 322.182437)scale(0.1 -0.1)">
       <use xlink:href="#DejaVuSans-34"/>
       <use x="63.623047" xlink:href="#DejaVuSans-30"/>
      </g>
     </g>
    </g>
    <g id="xtick_4">
     <g id="line2d_7">
      <path clip-path="url(#pb5f1e553d5)" d="M 271.872 307.584 
L 271.872 41.472 
" style="fill:none;stroke:#b0b0b0;stroke-linecap:square;stroke-width:0.8;"/>
     </g>
     <g id="line2d_8">
      <g>
       <use style="stroke:#000000;stroke-width:0.8;" x="271.872" xlink:href="#m24092d3fc5" y="307.584"/>
      </g>
     </g>
     <g id="text_4">
      <!-- 60 -->
      <defs>
       <path d="M 33.015625 40.375 
Q 26.375 40.375 22.484375 35.828125 
Q 18.609375 31.296875 18.609375 23.390625 
Q 18.609375 15.53125 22.484375 10.953125 
Q 26.375 6.390625 33.015625 6.390625 
Q 39.65625 6.390625 43.53125 10.953125 
Q 47.40625 15.53125 47.40625 23.390625 
Q 47.40625 31.296875 43.53125 35.828125 
Q 39.65625 40.375 33.015625 40.375 
z
M 52.59375 71.296875 
L 52.59375 62.3125 
Q 48.875 64.0625 45.09375 64.984375 
Q 41.3125 65.921875 37.59375 65.921875 
Q 27.828125 65.921875 22.671875 59.328125 
Q 17.53125 52.734375 16.796875 39.40625 
Q 19.671875 43.65625 24.015625 45.921875 
Q 28.375 48.1875 33.59375 48.1875 
Q 44.578125 48.1875 50.953125 41.515625 
Q 57.328125 34.859375 57.328125 23.390625 
Q 57.328125 12.15625 50.6875 5.359375 
Q 44.046875 -1.421875 33.015625 -1.421875 
Q 20.359375 -1.421875 13.671875 8.265625 
Q 6.984375 17.96875 6.984375 36.375 
Q 6.984375 53.65625 15.1875 63.9375 
Q 23.390625 74.21875 37.203125 74.21875 
Q 40.921875 74.21875 44.703125 73.484375 
Q 48.484375 72.75 52.59375 71.296875 
z
" id="DejaVuSans-36"/>
      </defs>
      <g transform="translate(265.5095 322.182437)scale(0.1 -0.1)">
       <use xlink:href="#DejaVuSans-36"/>
       <use x="63.623047" xlink:href="#DejaVuSans-30"/>
      </g>
     </g>
    </g>
    <g id="xtick_5">
     <g id="line2d_9">
      <path clip-path="url(#pb5f1e553d5)" d="M 343.296 307.584 
L 343.296 41.472 
" style="fill:none;stroke:#b0b0b0;stroke-linecap:square;stroke-width:0.8;"/>
     </g>
     <g id="line2d_10">
      <g>
       <use style="stroke:#000000;stroke-width:0.8;" x="343.296" xlink:href="#m24092d3fc5" y="307.584"/>
      </g>
     </g>
     <g id="text_5">
      <!-- 80 -->
      <defs>
       <path d="M 31.78125 34.625 
Q 24.75 34.625 20.71875 30.859375 
Q 16.703125 27.09375 16.703125 20.515625 
Q 16.703125 13.921875 20.71875 10.15625 
Q 24.75 6.390625 31.78125 6.390625 
Q 38.8125 6.390625 42.859375 10.171875 
Q 46.921875 13.96875 46.921875 20.515625 
Q 46.921875 27.09375 42.890625 30.859375 
Q 38.875 34.625 31.78125 34.625 
z
M 21.921875 38.8125 
Q 15.578125 40.375 12.03125 44.71875 
Q 8.5 49.078125 8.5 55.328125 
Q 8.5 64.0625 14.71875 69.140625 
Q 20.953125 74.21875 31.78125 74.21875 
Q 42.671875 74.21875 48.875 69.140625 
Q 55.078125 64.0625 55.078125 55.328125 
Q 55.078125 49.078125 51.53125 44.71875 
Q 48 40.375 41.703125 38.8125 
Q 48.828125 37.15625 52.796875 32.3125 
Q 56.78125 27.484375 56.78125 20.515625 
Q 56.78125 9.90625 50.3125 4.234375 
Q 43.84375 -1.421875 31.78125 -1.421875 
Q 19.734375 -1.421875 13.25 4.234375 
Q 6.78125 9.90625 6.78125 20.515625 
Q 6.78125 27.484375 10.78125 32.3125 
Q 14.796875 37.15625 21.921875 38.8125 
z
M 18.3125 54.390625 
Q 18.3125 48.734375 21.84375 45.5625 
Q 25.390625 42.390625 31.78125 42.390625 
Q 38.140625 42.390625 41.71875 45.5625 
Q 45.3125 48.734375 45.3125 54.390625 
Q 45.3125 60.0625 41.71875 63.234375 
Q 38.140625 66.40625 31.78125 66.40625 
Q 25.390625 66.40625 21.84375 63.234375 
Q 18.3125 60.0625 18.3125 54.390625 
z
" id="DejaVuSans-38"/>
      </defs>
      <g transform="translate(336.9335 322.182437)scale(0.1 -0.1)">
       <use xlink:href="#DejaVuSans-38"/>
       <use x="63.623047" xlink:href="#DejaVuSans-30"/>
      </g>
     </g>
    </g>
    <g id="xtick_6">
     <g id="line2d_11">
      <path clip-path="url(#pb5f1e553d5)" d="M 414.72 307.584 
L 414.72 41.472 
" style="fill:none;stroke:#b0b0b0;stroke-linecap:square;stroke-width:0.8;"/>
     </g>
     <g id="line2d_12">
      <g>
       <use style="stroke:#000000;stroke-width:0.8;" x="414.72" xlink:href="#m24092d3fc5" y="307.584"/>
      </g>
     </g>
     <g id="text_6">
      <!-- 100 -->
      <defs>
       <path d="M 12.40625 8.296875 
L 28.515625 8.296875 
L 28.515625 63.921875 
L 10.984375 60.40625 
L 10.984375 69.390625 
L 28.421875 72.90625 
L 38.28125 72.90625 
L 38.28125 8.296875 
L 54.390625 8.296875 
L 54.390625 0 
L 12.40625 0 
z
" id="DejaVuSans-31"/>
      </defs>
      <g transform="translate(405.17625 322.182437)scale(0.1 -0.1)">
       <use xlink:href="#DejaVuSans-31"/>
       <use x="63.623047" xlink:href="#DejaVuSans-30"/>
       <use x="127.246094" xlink:href="#DejaVuSans-30"/>
      </g>
     </g>
    </g>
    <g id="text_7">
     <!-- epochs -->
     <defs>
      <path d="M 56.203125 29.59375 
L 56.203125 25.203125 
L 14.890625 25.203125 
Q 15.484375 15.921875 20.484375 11.0625 
Q 25.484375 6.203125 34.421875 6.203125 
Q 39.59375 6.203125 44.453125 7.46875 
Q 49.3125 8.734375 54.109375 11.28125 
L 54.109375 2.78125 
Q 49.265625 0.734375 44.1875 -0.34375 
Q 39.109375 -1.421875 33.890625 -1.421875 
Q 20.796875 -1.421875 13.15625 6.1875 
Q 5.515625 13.8125 5.515625 26.8125 
Q 5.515625 40.234375 12.765625 48.109375 
Q 20.015625 56 32.328125 56 
Q 43.359375 56 49.78125 48.890625 
Q 56.203125 41.796875 56.203125 29.59375 
z
M 47.21875 32.234375 
Q 47.125 39.59375 43.09375 43.984375 
Q 39.0625 48.390625 32.421875 48.390625 
Q 24.90625 48.390625 20.390625 44.140625 
Q 15.875 39.890625 15.1875 32.171875 
z
" id="DejaVuSans-65"/>
      <path d="M 18.109375 8.203125 
L 18.109375 -20.796875 
L 9.078125 -20.796875 
L 9.078125 54.6875 
L 18.109375 54.6875 
L 18.109375 46.390625 
Q 20.953125 51.265625 25.265625 53.625 
Q 29.59375 56 35.59375 56 
Q 45.5625 56 51.78125 48.09375 
Q 58.015625 40.1875 58.015625 27.296875 
Q 58.015625 14.40625 51.78125 6.484375 
Q 45.5625 -1.421875 35.59375 -1.421875 
Q 29.59375 -1.421875 25.265625 0.953125 
Q 20.953125 3.328125 18.109375 8.203125 
z
M 48.6875 27.296875 
Q 48.6875 37.203125 44.609375 42.84375 
Q 40.53125 48.484375 33.40625 48.484375 
Q 26.265625 48.484375 22.1875 42.84375 
Q 18.109375 37.203125 18.109375 27.296875 
Q 18.109375 17.390625 22.1875 11.75 
Q 26.265625 6.109375 33.40625 6.109375 
Q 40.53125 6.109375 44.609375 11.75 
Q 48.6875 17.390625 48.6875 27.296875 
z
" id="DejaVuSans-70"/>
      <path d="M 30.609375 48.390625 
Q 23.390625 48.390625 19.1875 42.75 
Q 14.984375 37.109375 14.984375 27.296875 
Q 14.984375 17.484375 19.15625 11.84375 
Q 23.34375 6.203125 30.609375 6.203125 
Q 37.796875 6.203125 41.984375 11.859375 
Q 46.1875 17.53125 46.1875 27.296875 
Q 46.1875 37.015625 41.984375 42.703125 
Q 37.796875 48.390625 30.609375 48.390625 
z
M 30.609375 56 
Q 42.328125 56 49.015625 48.375 
Q 55.71875 40.765625 55.71875 27.296875 
Q 55.71875 13.875 49.015625 6.21875 
Q 42.328125 -1.421875 30.609375 -1.421875 
Q 18.84375 -1.421875 12.171875 6.21875 
Q 5.515625 13.875 5.515625 27.296875 
Q 5.515625 40.765625 12.171875 48.375 
Q 18.84375 56 30.609375 56 
z
" id="DejaVuSans-6f"/>
      <path d="M 48.78125 52.59375 
L 48.78125 44.1875 
Q 44.96875 46.296875 41.140625 47.34375 
Q 37.3125 48.390625 33.40625 48.390625 
Q 24.65625 48.390625 19.8125 42.84375 
Q 14.984375 37.3125 14.984375 27.296875 
Q 14.984375 17.28125 19.8125 11.734375 
Q 24.65625 6.203125 33.40625 6.203125 
Q 37.3125 6.203125 41.140625 7.25 
Q 44.96875 8.296875 48.78125 10.40625 
L 48.78125 2.09375 
Q 45.015625 0.34375 40.984375 -0.53125 
Q 36.96875 -1.421875 32.421875 -1.421875 
Q 20.0625 -1.421875 12.78125 6.34375 
Q 5.515625 14.109375 5.515625 27.296875 
Q 5.515625 40.671875 12.859375 48.328125 
Q 20.21875 56 33.015625 56 
Q 37.15625 56 41.109375 55.140625 
Q 45.0625 54.296875 48.78125 52.59375 
z
" id="DejaVuSans-63"/>
      <path d="M 54.890625 33.015625 
L 54.890625 0 
L 45.90625 0 
L 45.90625 32.71875 
Q 45.90625 40.484375 42.875 44.328125 
Q 39.84375 48.1875 33.796875 48.1875 
Q 26.515625 48.1875 22.3125 43.546875 
Q 18.109375 38.921875 18.109375 30.90625 
L 18.109375 0 
L 9.078125 0 
L 9.078125 75.984375 
L 18.109375 75.984375 
L 18.109375 46.1875 
Q 21.34375 51.125 25.703125 53.5625 
Q 30.078125 56 35.796875 56 
Q 45.21875 56 50.046875 50.171875 
Q 54.890625 44.34375 54.890625 33.015625 
z
" id="DejaVuSans-68"/>
      <path d="M 44.28125 53.078125 
L 44.28125 44.578125 
Q 40.484375 46.53125 36.375 47.5 
Q 32.28125 48.484375 27.875 48.484375 
Q 21.1875 48.484375 17.84375 46.4375 
Q 14.5 44.390625 14.5 40.28125 
Q 14.5 37.15625 16.890625 35.375 
Q 19.28125 33.59375 26.515625 31.984375 
L 29.59375 31.296875 
Q 39.15625 29.25 43.1875 25.515625 
Q 47.21875 21.78125 47.21875 15.09375 
Q 47.21875 7.46875 41.1875 3.015625 
Q 35.15625 -1.421875 24.609375 -1.421875 
Q 20.21875 -1.421875 15.453125 -0.5625 
Q 10.6875 0.296875 5.421875 2 
L 5.421875 11.28125 
Q 10.40625 8.6875 15.234375 7.390625 
Q 20.0625 6.109375 24.8125 6.109375 
Q 31.15625 6.109375 34.5625 8.28125 
Q 37.984375 10.453125 37.984375 14.40625 
Q 37.984375 18.0625 35.515625 20.015625 
Q 33.0625 21.96875 24.703125 23.78125 
L 21.578125 24.515625 
Q 13.234375 26.265625 9.515625 29.90625 
Q 5.8125 33.546875 5.8125 39.890625 
Q 5.8125 47.609375 11.28125 51.796875 
Q 16.75 56 26.8125 56 
Q 31.78125 56 36.171875 55.265625 
Q 40.578125 54.546875 44.28125 53.078125 
z
" id="DejaVuSans-73"/>
     </defs>
     <g transform="translate(218.327188 335.860562)scale(0.1 -0.1)">
      <use xlink:href="#DejaVuSans-65"/>
      <use x="61.523438" xlink:href="#DejaVuSans-70"/>
      <use x="125" xlink:href="#DejaVuSans-6f"/>
      <use x="186.181641" xlink:href="#DejaVuSans-63"/>
      <use x="241.162109" xlink:href="#DejaVuSans-68"/>
      <use x="304.541016" xlink:href="#DejaVuSans-73"/>
     </g>
    </g>
   </g>
   <g id="matplotlib.axis_2">
    <g id="ytick_1">
     <g id="line2d_13">
      <path clip-path="url(#pb5f1e553d5)" d="M 57.6 290.730859 
L 414.72 290.730859 
" style="fill:none;stroke:#b0b0b0;stroke-linecap:square;stroke-width:0.8;"/>
     </g>
     <g id="line2d_14">
      <defs>
       <path d="M 0 0 
L -3.5 0 
" id="m50e5497680" style="stroke:#000000;stroke-width:0.8;"/>
      </defs>
      <g>
       <use style="stroke:#000000;stroke-width:0.8;" x="57.6" xlink:href="#m50e5497680" y="290.730859"/>
      </g>
     </g>
     <g id="text_8">
      <!-- $\mathdefault{10^{-1}}$ -->
      <defs>
       <path d="M 10.59375 35.5 
L 73.1875 35.5 
L 73.1875 27.203125 
L 10.59375 27.203125 
z
" id="DejaVuSans-2212"/>
      </defs>
      <g transform="translate(27.1 294.530078)scale(0.1 -0.1)">
       <use transform="translate(0 0.684375)" xlink:href="#DejaVuSans-31"/>
       <use transform="translate(63.623047 0.684375)" xlink:href="#DejaVuSans-30"/>
       <use transform="translate(128.203125 38.965625)scale(0.7)" xlink:href="#DejaVuSans-2212"/>
       <use transform="translate(186.855469 38.965625)scale(0.7)" xlink:href="#DejaVuSans-31"/>
      </g>
     </g>
    </g>
    <g id="ytick_2">
     <g id="line2d_15">
      <path clip-path="url(#pb5f1e553d5)" d="M 57.6 47.300573 
L 414.72 47.300573 
" style="fill:none;stroke:#b0b0b0;stroke-linecap:square;stroke-width:0.8;"/>
     </g>
     <g id="line2d_16">
      <g>
       <use style="stroke:#000000;stroke-width:0.8;" x="57.6" xlink:href="#m50e5497680" y="47.300573"/>
      </g>
     </g>
     <g id="text_9">
      <!-- $\mathdefault{10^{0}}$ -->
      <g transform="translate(33 51.099792)scale(0.1 -0.1)">
       <use transform="translate(0 0.765625)" xlink:href="#DejaVuSans-31"/>
       <use transform="translate(63.623047 0.765625)" xlink:href="#DejaVuSans-30"/>
       <use transform="translate(128.203125 39.046875)scale(0.7)" xlink:href="#DejaVuSans-30"/>
      </g>
     </g>
    </g>
    <g id="ytick_3">
     <g id="line2d_17">
      <path clip-path="url(#pb5f1e553d5)" d="M 57.6 301.869618 
L 414.72 301.869618 
" style="fill:none;stroke:#b0b0b0;stroke-linecap:square;stroke-width:0.8;"/>
     </g>
     <g id="line2d_18">
      <defs>
       <path d="M 0 0 
L -2 0 
" id="mce7ab6744d" style="stroke:#000000;stroke-width:0.6;"/>
      </defs>
      <g>
       <use style="stroke:#000000;stroke-width:0.6;" x="57.6" xlink:href="#mce7ab6744d" y="301.869618"/>
      </g>
     </g>
    </g>
    <g id="ytick_4">
     <g id="line2d_19">
      <path clip-path="url(#pb5f1e553d5)" d="M 57.6 217.451041 
L 414.72 217.451041 
" style="fill:none;stroke:#b0b0b0;stroke-linecap:square;stroke-width:0.8;"/>
     </g>
     <g id="line2d_20">
      <g>
       <use style="stroke:#000000;stroke-width:0.6;" x="57.6" xlink:href="#mce7ab6744d" y="217.451041"/>
      </g>
     </g>
    </g>
    <g id="ytick_5">
     <g id="line2d_21">
      <path clip-path="url(#pb5f1e553d5)" d="M 57.6 174.585096 
L 414.72 174.585096 
" style="fill:none;stroke:#b0b0b0;stroke-linecap:square;stroke-width:0.8;"/>
     </g>
     <g id="line2d_22">
      <g>
       <use style="stroke:#000000;stroke-width:0.6;" x="57.6" xlink:href="#mce7ab6744d" y="174.585096"/>
      </g>
     </g>
    </g>
    <g id="ytick_6">
     <g id="line2d_23">
      <path clip-path="url(#pb5f1e553d5)" d="M 57.6 144.171223 
L 414.72 144.171223 
" style="fill:none;stroke:#b0b0b0;stroke-linecap:square;stroke-width:0.8;"/>
     </g>
     <g id="line2d_24">
      <g>
       <use style="stroke:#000000;stroke-width:0.6;" x="57.6" xlink:href="#mce7ab6744d" y="144.171223"/>
      </g>
     </g>
    </g>
    <g id="ytick_7">
     <g id="line2d_25">
      <path clip-path="url(#pb5f1e553d5)" d="M 57.6 120.580391 
L 414.72 120.580391 
" style="fill:none;stroke:#b0b0b0;stroke-linecap:square;stroke-width:0.8;"/>
     </g>
     <g id="line2d_26">
      <g>
       <use style="stroke:#000000;stroke-width:0.6;" x="57.6" xlink:href="#mce7ab6744d" y="120.580391"/>
      </g>
     </g>
    </g>
    <g id="ytick_8">
     <g id="line2d_27">
      <path clip-path="url(#pb5f1e553d5)" d="M 57.6 101.305278 
L 414.72 101.305278 
" style="fill:none;stroke:#b0b0b0;stroke-linecap:square;stroke-width:0.8;"/>
     </g>
     <g id="line2d_28">
      <g>
       <use style="stroke:#000000;stroke-width:0.6;" x="57.6" xlink:href="#mce7ab6744d" y="101.305278"/>
      </g>
     </g>
    </g>
    <g id="ytick_9">
     <g id="line2d_29">
      <path clip-path="url(#pb5f1e553d5)" d="M 57.6 85.008402 
L 414.72 85.008402 
" style="fill:none;stroke:#b0b0b0;stroke-linecap:square;stroke-width:0.8;"/>
     </g>
     <g id="line2d_30">
      <g>
       <use style="stroke:#000000;stroke-width:0.6;" x="57.6" xlink:href="#mce7ab6744d" y="85.008402"/>
      </g>
     </g>
    </g>
    <g id="ytick_10">
     <g id="line2d_31">
      <path clip-path="url(#pb5f1e553d5)" d="M 57.6 70.891406 
L 414.72 70.891406 
" style="fill:none;stroke:#b0b0b0;stroke-linecap:square;stroke-width:0.8;"/>
     </g>
     <g id="line2d_32">
      <g>
       <use style="stroke:#000000;stroke-width:0.6;" x="57.6" xlink:href="#mce7ab6744d" y="70.891406"/>
      </g>
     </g>
    </g>
    <g id="ytick_11">
     <g id="line2d_33">
      <path clip-path="url(#pb5f1e553d5)" d="M 57.6 58.439332 
L 414.72 58.439332 
" style="fill:none;stroke:#b0b0b0;stroke-linecap:square;stroke-width:0.8;"/>
     </g>
     <g id="line2d_34">
      <g>
       <use style="stroke:#000000;stroke-width:0.6;" x="57.6" xlink:href="#mce7ab6744d" y="58.439332"/>
      </g>
     </g>
    </g>
    <g id="text_10">
     <!-- test acc -->
     <defs>
      <path d="M 18.3125 70.21875 
L 18.3125 54.6875 
L 36.8125 54.6875 
L 36.8125 47.703125 
L 18.3125 47.703125 
L 18.3125 18.015625 
Q 18.3125 11.328125 20.140625 9.421875 
Q 21.96875 7.515625 27.59375 7.515625 
L 36.8125 7.515625 
L 36.8125 0 
L 27.59375 0 
Q 17.1875 0 13.234375 3.875 
Q 9.28125 7.765625 9.28125 18.015625 
L 9.28125 47.703125 
L 2.6875 47.703125 
L 2.6875 54.6875 
L 9.28125 54.6875 
L 9.28125 70.21875 
z
" id="DejaVuSans-74"/>
      <path id="DejaVuSans-20"/>
      <path d="M 34.28125 27.484375 
Q 23.390625 27.484375 19.1875 25 
Q 14.984375 22.515625 14.984375 16.5 
Q 14.984375 11.71875 18.140625 8.90625 
Q 21.296875 6.109375 26.703125 6.109375 
Q 34.1875 6.109375 38.703125 11.40625 
Q 43.21875 16.703125 43.21875 25.484375 
L 43.21875 27.484375 
z
M 52.203125 31.203125 
L 52.203125 0 
L 43.21875 0 
L 43.21875 8.296875 
Q 40.140625 3.328125 35.546875 0.953125 
Q 30.953125 -1.421875 24.3125 -1.421875 
Q 15.921875 -1.421875 10.953125 3.296875 
Q 6 8.015625 6 15.921875 
Q 6 25.140625 12.171875 29.828125 
Q 18.359375 34.515625 30.609375 34.515625 
L 43.21875 34.515625 
L 43.21875 35.40625 
Q 43.21875 41.609375 39.140625 45 
Q 35.0625 48.390625 27.6875 48.390625 
Q 23 48.390625 18.546875 47.265625 
Q 14.109375 46.140625 10.015625 43.890625 
L 10.015625 52.203125 
Q 14.9375 54.109375 19.578125 55.046875 
Q 24.21875 56 28.609375 56 
Q 40.484375 56 46.34375 49.84375 
Q 52.203125 43.703125 52.203125 31.203125 
z
" id="DejaVuSans-61"/>
     </defs>
     <g transform="translate(21.020312 194.281125)rotate(-90)scale(0.1 -0.1)">
      <use xlink:href="#DejaVuSans-74"/>
      <use x="39.208984" xlink:href="#DejaVuSans-65"/>
      <use x="100.732422" xlink:href="#DejaVuSans-73"/>
      <use x="152.832031" xlink:href="#DejaVuSans-74"/>
      <use x="192.041016" xlink:href="#DejaVuSans-20"/>
      <use x="223.828125" xlink:href="#DejaVuSans-61"/>
      <use x="285.107422" xlink:href="#DejaVuSans-63"/>
      <use x="340.087891" xlink:href="#DejaVuSans-63"/>
     </g>
    </g>
   </g>
   <g id="line2d_35">
    <path clip-path="url(#pb5f1e553d5)" d="M 61.1712 289.741729 
L 64.7424 290.435256 
L 68.3136 289.000707 
L 71.8848 289.836033 
L 75.456 286.65561 
L 79.0272 281.435993 
L 82.5984 272.883763 
L 86.1696 278.863034 
L 89.7408 283.026097 
L 93.312 271.007386 
L 96.8832 261.099564 
L 100.4544 263.89196 
L 104.0256 280.712307 
L 107.5968 260.311701 
L 111.168 250.541523 
L 114.7392 248.970163 
L 118.3104 249.341163 
L 121.8816 244.044278 
L 125.4528 241.088136 
L 129.024 249.176906 
L 132.5952 232.070647 
L 136.1664 220.382772 
L 139.7376 217.023738 
L 143.3088 225.1801 
L 146.88 220.731163 
L 150.4512 208.3694 
L 154.0224 195.072344 
L 157.5936 191.762521 
L 161.1648 188.187832 
L 164.736 191.406588 
L 168.3072 185.739518 
L 171.8784 180.969251 
L 175.4496 178.505104 
L 179.0208 172.45701 
L 182.592 174.754384 
L 186.1632 184.362211 
L 189.7344 172.074333 
L 193.3056 173.369281 
L 196.8768 173.526165 
L 200.448 164.236903 
L 204.0192 162.745623 
L 207.5904 154.887944 
L 211.1616 146.709673 
L 214.7328 145.004403 
L 218.304 140.725986 
L 221.8752 142.834418 
L 229.0176 130.212265 
L 232.5888 129.17054 
L 236.16 128.553132 
L 239.7312 123.33727 
L 243.3024 121.790388 
L 250.4448 116.755677 
L 254.016 114.873952 
L 257.5872 112.226946 
L 261.1584 118.15363 
L 264.7296 112.989707 
L 268.3008 111.673526 
L 271.872 106.733591 
L 275.4432 107.70628 
L 279.0144 104.596306 
L 282.5856 101.338761 
L 286.1568 100.119079 
L 289.728 100.256814 
L 293.2992 102.353566 
L 296.8704 98.970168 
L 300.4416 100.356304 
L 304.0128 97.067398 
L 307.584 96.810409 
L 311.1552 92.898443 
L 314.7264 94.553293 
L 318.2976 92.74721 
L 321.8688 92.825239 
L 325.44 92.024936 
L 329.0112 90.542494 
L 332.5824 90.878826 
L 336.1536 92.149282 
L 339.7248 88.286187 
L 343.296 87.059513 
L 346.8672 86.557168 
L 350.4384 85.73736 
L 354.0096 85.802772 
L 357.5808 87.488469 
L 361.152 85.335129 
L 364.7232 84.479614 
L 368.2944 85.235189 
L 371.8656 84.4015 
L 375.4368 83.830915 
L 379.008 85.236702 
L 382.5792 85.220054 
L 386.1504 83.371895 
L 389.7216 83.425444 
L 393.2928 81.100401 
L 396.864 79.689309 
L 400.4352 79.575912 
L 407.5776 77.955764 
L 411.1488 77.593289 
L 414.72 85.061275 
L 418.2912 78.727149 
L 421.8624 76.209877 
L 429.0048 76.122363 
L 432.576 75.761958 
L 436.1472 75.83948 
L 439.7184 76.055734 
L 443.2896 75.804865 
L 446.8608 75.998855 
L 450.432 75.752272 
L 454.0032 77.866793 
L 457.5744 75.542161 
L 461.1456 77.178746 
L 461.8 76.883913 
L 461.8 76.883913 
" style="fill:none;stroke:#1f77b4;stroke-linecap:square;stroke-width:1.5;"/>
   </g>
   <g id="line2d_36">
    <path clip-path="url(#pb5f1e553d5)" d="M 61.1712 120.874703 
L 64.7424 97.455755 
L 68.3136 87.153488 
L 71.8848 80.930247 
L 75.456 76.732298 
L 79.0272 74.170165 
L 82.5984 71.89388 
L 89.7408 68.953449 
L 96.8832 66.814885 
L 104.0256 65.009573 
L 111.168 63.791625 
L 114.7392 63.435117 
L 121.8816 62.442269 
L 129.024 61.72006 
L 132.5952 61.275094 
L 136.1664 61.065353 
L 139.7376 60.743115 
L 143.3088 60.590755 
L 150.4512 60.027613 
L 161.1648 59.489994 
L 189.7344 58.432285 
L 200.448 58.174189 
L 243.3024 57.217711 
L 268.3008 56.809766 
L 271.872 56.829431 
L 282.5856 56.609845 
L 289.728 56.55675 
L 293.2992 56.586757 
L 300.4416 56.444877 
L 314.7264 56.338881 
L 339.7248 56.142146 
L 346.8672 56.072055 
L 354.0096 55.962988 
L 371.8656 55.878109 
L 382.5792 55.711989 
L 411.1488 55.584998 
L 454.0032 55.344019 
L 461.8 55.328868 
L 461.8 55.328868 
" style="fill:none;stroke:#ff7f0e;stroke-linecap:square;stroke-width:1.5;"/>
   </g>
   <g id="line2d_37">
    <path clip-path="url(#pb5f1e553d5)" d="M 61.1712 204.905036 
L 64.7424 180.082061 
L 68.3136 164.816861 
L 71.8848 154.037282 
L 75.456 145.356627 
L 79.0272 138.571013 
L 82.5984 133.400483 
L 86.1696 127.640511 
L 89.7408 122.51146 
L 96.8832 114.018009 
L 100.4544 110.479173 
L 104.0256 107.983698 
L 111.168 103.460896 
L 114.7392 101.66534 
L 125.4528 96.894876 
L 129.024 95.478042 
L 136.1664 93.239101 
L 146.88 90.162819 
L 157.5936 87.607589 
L 164.736 86.049572 
L 175.4496 83.87872 
L 189.7344 81.521875 
L 193.3056 81.080026 
L 196.8768 80.470601 
L 214.7328 78.431542 
L 218.304 78.152329 
L 229.0176 77.003581 
L 239.7312 75.942007 
L 254.016 74.666143 
L 264.7296 74.047554 
L 286.1568 72.905951 
L 296.8704 72.2373 
L 325.44 70.855731 
L 336.1536 70.4141 
L 346.8672 69.990028 
L 354.0096 69.623783 
L 357.5808 69.563735 
L 371.8656 68.961234 
L 386.1504 68.548109 
L 396.864 68.140454 
L 411.1488 67.739496 
L 436.1472 67.050378 
L 439.7184 66.825058 
L 450.432 66.614176 
L 457.5744 66.340404 
L 461.8 66.25375 
L 461.8 66.25375 
" style="fill:none;stroke:#2ca02c;stroke-linecap:square;stroke-width:1.5;"/>
   </g>
   <g id="line2d_38">
    <path clip-path="url(#pb5f1e553d5)" d="M 61.1712 258.122436 
L 64.7424 246.569003 
L 68.3136 238.412022 
L 71.8848 229.628598 
L 75.456 222.851536 
L 79.0272 217.546233 
L 82.5984 213.116717 
L 86.1696 210.174707 
L 89.7408 207.010221 
L 93.312 204.06804 
L 107.5968 194.037969 
L 111.168 190.883147 
L 114.7392 187.999628 
L 118.3104 185.539983 
L 121.8816 183.630313 
L 125.4528 181.445732 
L 129.024 179.567335 
L 136.1664 175.462684 
L 146.88 170.550544 
L 150.4512 168.881328 
L 154.0224 167.738932 
L 157.5936 166.152227 
L 161.1648 165.254734 
L 164.736 164.233707 
L 168.3072 163.039041 
L 175.4496 160.989616 
L 179.0208 159.824726 
L 182.592 158.77869 
L 186.1632 157.592757 
L 196.8768 154.817768 
L 200.448 153.811204 
L 204.0192 152.957638 
L 211.1616 150.740839 
L 218.304 149.318901 
L 221.8752 148.495202 
L 225.4464 147.524981 
L 229.0176 146.861388 
L 232.5888 145.675171 
L 239.7312 144.221453 
L 243.3024 143.565072 
L 246.8736 142.722257 
L 250.4448 142.002563 
L 261.1584 140.266498 
L 264.7296 139.487393 
L 268.3008 139.02821 
L 275.4432 137.841594 
L 279.0144 137.491168 
L 318.2976 131.428232 
L 325.44 130.267866 
L 329.0112 129.874655 
L 339.7248 128.134437 
L 346.8672 126.978024 
L 357.5808 125.339744 
L 361.152 124.955595 
L 364.7232 124.300909 
L 396.864 120.162565 
L 404.0064 119.25246 
L 407.5776 118.769147 
L 411.1488 118.497214 
L 418.2912 117.443106 
L 425.4336 116.751599 
L 432.576 115.833874 
L 439.7184 114.797854 
L 443.2896 114.420177 
L 450.432 113.85122 
L 457.5744 112.78917 
L 461.8 112.317277 
L 461.8 112.317277 
" style="fill:none;stroke:#d62728;stroke-linecap:square;stroke-width:1.5;"/>
   </g>
   <g id="line2d_39">
    <path clip-path="url(#pb5f1e553d5)" d="M 61.1712 295.488 
L 64.7424 295.488 
L 68.3136 291.900227 
L 71.8848 284.960334 
L 75.456 272.340441 
L 79.0272 265.046485 
L 82.5984 262.831074 
L 86.1696 258.262319 
L 89.7408 257.379504 
L 93.312 257.680691 
L 96.8832 256.91013 
L 100.4544 254.256556 
L 104.0256 252.548356 
L 107.5968 249.849831 
L 111.168 249.355458 
L 114.7392 249.06992 
L 118.3104 248.147211 
L 121.8816 248.076566 
L 125.4528 247.442875 
L 129.024 246.249228 
L 132.5952 245.564279 
L 136.1664 245.089502 
L 139.7376 244.282472 
L 143.3088 243.70493 
L 146.88 242.706797 
L 150.4512 242.237969 
L 154.0224 241.107969 
L 164.736 238.238145 
L 168.3072 238.238145 
L 171.8784 237.78868 
L 175.4496 236.762106 
L 182.592 234.346932 
L 186.1632 233.328512 
L 189.7344 231.937192 
L 196.8768 230.008888 
L 200.448 229.409365 
L 204.0192 229.090218 
L 218.304 226.122636 
L 221.8752 225.88192 
L 225.4464 225.009629 
L 229.0176 224.44337 
L 232.5888 223.459655 
L 236.16 222.968425 
L 239.7312 222.26349 
L 243.3024 222.252426 
L 246.8736 221.436899 
L 254.016 220.095126 
L 257.5872 219.317529 
L 261.1584 219.10254 
L 264.7296 218.599032 
L 268.3008 217.874771 
L 271.872 217.551523 
L 275.4432 217.029003 
L 279.0144 216.336302 
L 282.5856 216.017718 
L 286.1568 215.466385 
L 289.728 214.572698 
L 293.2992 214.480146 
L 296.8704 213.916302 
L 300.4416 213.814108 
L 304.0128 213.294446 
L 307.584 212.919028 
L 311.1552 212.974749 
L 314.7264 212.777326 
L 318.2976 212.348316 
L 321.8688 212.32817 
L 343.296 210.105647 
L 350.4384 209.824941 
L 354.0096 209.36854 
L 357.5808 209.167955 
L 361.152 208.563614 
L 364.7232 208.282119 
L 368.2944 207.66353 
L 371.8656 207.326764 
L 375.4368 207.326764 
L 379.008 207.038959 
L 382.5792 206.494278 
L 386.1504 206.446633 
L 396.864 205.488764 
L 400.4352 205.187083 
L 404.0064 204.633104 
L 407.5776 204.389897 
L 411.1488 204.450646 
L 429.0048 203.01143 
L 432.576 202.960719 
L 436.1472 202.578865 
L 450.432 201.632498 
L 457.5744 201.033411 
L 461.8 200.900723 
L 461.8 200.900723 
" style="fill:none;stroke:#9467bd;stroke-linecap:square;stroke-width:1.5;"/>
   </g>
   <g id="line2d_40">
    <path clip-path="url(#pb5f1e553d5)" d="M 61.1712 58.239827 
L 64.7424 56.81902 
L 68.3136 56.851415 
L 71.8848 56.340032 
L 75.456 55.991679 
L 79.0272 56.205384 
L 82.5984 56.544058 
L 86.1696 55.679941 
L 89.7408 56.253699 
L 93.312 56.015785 
L 96.8832 56.631783 
L 100.4544 56.450641 
L 104.0256 55.720003 
L 107.5968 56.185833 
L 111.168 55.720003 
L 114.7392 55.781842 
L 118.3104 55.801318 
L 121.8816 55.7097 
L 125.4528 56.100775 
L 129.024 55.636462 
L 132.5952 55.750918 
L 136.1664 55.782988 
L 139.7376 57.003112 
L 143.3088 56.256 
L 146.88 55.622736 
L 150.4512 55.35885 
L 154.0224 55.375966 
L 157.5936 55.69253 
L 161.1648 56.036452 
L 164.736 55.404498 
L 168.3072 56.607536 
L 171.8784 55.506134 
L 175.4496 56.395322 
L 179.0208 55.612442 
L 182.592 56.609845 
L 186.1632 55.927423 
L 189.7344 55.740612 
L 193.3056 56.029563 
L 196.8768 55.726872 
L 200.448 55.910218 
L 204.0192 56.355004 
L 207.5904 55.572421 
L 211.1616 55.937747 
L 214.7328 56.005453 
L 218.304 55.452449 
L 221.8752 55.54613 
L 225.4464 55.740612 
L 229.0176 55.717713 
L 232.5888 56.214585 
L 236.16 56.509449 
L 239.7312 55.32919 
L 243.3024 55.271035 
L 246.8736 55.074 
L 250.4448 56.188133 
L 254.016 56.281318 
L 257.5872 55.364555 
L 261.1584 55.35885 
L 264.7296 56.058272 
L 268.3008 55.496994 
L 271.872 55.969873 
L 275.4432 55.817359 
L 279.0144 55.309801 
L 282.5856 55.815067 
L 286.1568 55.359991 
L 289.728 55.603293 
L 293.2992 55.723437 
L 296.8704 55.660488 
L 300.4416 55.447881 
L 304.0128 55.105865 
L 307.584 55.589571 
L 311.1552 55.320066 
L 314.7264 56.266357 
L 318.2976 55.085379 
L 321.8688 55.089931 
L 325.44 56.207684 
L 329.0112 55.769243 
L 332.5824 55.279015 
L 336.1536 55.494709 
L 339.7248 55.681085 
L 343.296 55.693675 
L 346.8672 55.962988 
L 350.4384 55.951514 
L 354.0096 55.653623 
L 357.5808 55.331471 
L 361.152 55.166207 
L 364.7232 55.467295 
L 368.2944 55.693675 
L 371.8656 56.390714 
L 375.4368 55.16393 
L 379.008 55.155958 
L 382.5792 55.836841 
L 386.1504 55.147987 
L 389.7216 55.551845 
L 393.2928 55.737177 
L 396.864 55.48557 
L 400.4352 55.331471 
L 404.0064 54.922772 
L 407.5776 54.873925 
L 411.1488 55.998566 
L 414.72 54.923908 
" style="fill:none;stroke:#8c564b;stroke-dasharray:5.55,2.4;stroke-dashoffset:0;stroke-width:1.5;"/>
   </g>
   <g id="line2d_41">
    <path clip-path="url(#pb5f1e553d5)" d="M 61.1712 59.116935 
L 64.7424 56.967194 
L 68.3136 56.026118 
L 71.8848 55.70741 
L 75.456 55.15482 
L 79.0272 54.978462 
L 82.5984 55.452449 
L 86.1696 54.571123 
L 89.7408 54.404781 
L 93.312 54.673094 
L 96.8832 54.549608 
L 100.4544 54.394605 
L 104.0256 54.259022 
L 107.5968 54.45228 
L 111.168 54.304197 
L 114.7392 54.090916 
L 118.3104 54.567725 
L 121.8816 54.057101 
L 125.4528 54.545079 
L 129.024 54.14617 
L 132.5952 54.248861 
L 136.1664 54.164218 
L 139.7376 54.266927 
L 143.3088 54.132635 
L 146.88 54.176628 
L 150.4512 54.023297 
L 154.0224 53.842068 
L 157.5936 54.017664 
L 161.1648 53.966982 
L 164.736 54.22854 
L 168.3072 54.063863 
L 171.8784 53.930955 
L 175.4496 54.08077 
L 179.0208 53.998515 
L 182.592 54.015411 
L 186.1632 54.030057 
L 189.7344 53.994009 
L 193.3056 54.119103 
L 196.8768 53.911821 
L 200.448 53.963604 
L 204.0192 54.010905 
L 207.5904 54.16309 
L 211.1616 54.008652 
L 214.7328 53.946715 
L 218.304 54.006399 
L 221.8752 54.125869 
L 225.4464 54.092043 
L 229.0176 54.041325 
L 232.5888 53.963604 
L 236.16 53.92983 
L 239.7312 53.887065 
L 243.3024 54.075134 
L 246.8736 54.098807 
L 250.4448 54.158578 
L 254.016 53.824074 
L 257.5872 54.124741 
L 261.1584 53.923076 
L 264.7296 53.844317 
L 268.3008 53.828572 
L 271.872 54.026677 
L 275.4432 54.112337 
L 279.0144 53.983873 
L 282.5856 53.903943 
L 286.1568 53.941086 
L 289.728 53.817328 
L 293.2992 53.930955 
L 296.8704 53.837569 
L 300.4416 53.910696 
L 304.0128 54.141658 
L 307.584 54.10219 
L 311.1552 54.103317 
L 314.7264 53.923076 
L 318.2976 53.860064 
L 321.8688 53.915198 
L 325.44 53.914072 
L 329.0112 53.90732 
L 332.5824 53.937709 
L 336.1536 54.117975 
L 339.7248 54.116848 
L 343.296 53.979368 
L 346.8672 54.335831 
L 350.4384 54.270314 
L 354.0096 53.784724 
L 357.5808 54.035691 
L 361.152 53.901693 
L 364.7232 53.763369 
L 368.2944 53.893816 
L 371.8656 54.051466 
L 375.4368 53.928704 
L 379.008 54.174372 
L 382.5792 54.336961 
L 386.1504 54.067244 
L 389.7216 53.816203 
L 393.2928 54.234185 
L 396.864 54.043578 
L 400.4352 54.094298 
L 404.0064 53.800463 
L 407.5776 53.919699 
L 411.1488 53.948967 
L 414.72 53.889315 
" style="fill:none;stroke:#e377c2;stroke-dasharray:5.55,2.4;stroke-dashoffset:0;stroke-width:1.5;"/>
   </g>
   <g id="line2d_42">
    <path clip-path="url(#pb5f1e553d5)" d="M 61.1712 61.617116 
L 64.7424 58.700432 
L 68.3136 57.073824 
L 71.8848 56.334274 
L 75.456 55.809338 
L 79.0272 55.438746 
L 82.5984 55.372542 
L 86.1696 54.969368 
L 89.7408 54.797859 
L 93.312 54.851213 
L 96.8832 54.56546 
L 100.4544 54.56546 
L 104.0256 54.466987 
L 107.5968 54.230798 
L 111.168 54.325662 
L 114.7392 54.214996 
L 118.3104 54.239829 
L 121.8816 54.1755 
L 125.4528 54.079643 
L 129.024 53.971486 
L 132.5952 54.104445 
L 136.1664 54.049213 
L 139.7376 53.882564 
L 143.3088 54.096553 
L 146.88 53.990631 
L 150.4512 53.873564 
L 154.0224 53.983873 
L 157.5936 53.74876 
L 161.1648 54.004147 
L 164.736 53.925327 
L 168.3072 53.97036 
L 171.8784 53.981621 
L 175.4496 53.698206 
L 179.0208 53.817328 
L 182.592 53.899442 
L 186.1632 53.727412 
L 189.7344 53.870189 
L 193.3056 53.762245 
L 196.8768 53.77236 
L 200.448 53.810581 
L 204.0192 53.801587 
L 207.5904 53.758874 
L 211.1616 53.758874 
L 214.7328 53.88819 
L 218.304 53.865689 
L 221.8752 53.875814 
L 225.4464 53.710561 
L 229.0176 53.865689 
L 232.5888 53.568 
L 236.16 53.684729 
L 239.7312 53.935458 
L 243.3024 53.683606 
L 246.8736 53.677991 
L 250.4448 53.721795 
L 254.016 53.745389 
L 257.5872 53.745389 
L 261.1584 53.818452 
L 264.7296 53.751007 
L 268.3008 53.7836 
L 271.872 53.817328 
L 275.4432 53.761121 
L 279.0144 53.671254 
L 282.5856 53.738647 
L 286.1568 53.85669 
L 289.728 53.726289 
L 293.2992 53.857814 
L 296.8704 53.879189 
L 300.4416 53.7364 
L 304.0128 53.730782 
L 307.584 53.765617 
L 311.1552 53.733029 
L 314.7264 53.938835 
L 318.2976 53.763369 
L 321.8688 53.746513 
L 325.44 53.821825 
L 329.0112 53.792593 
L 332.5824 53.676868 
L 336.1536 53.776856 
L 339.7248 53.718425 
L 343.296 53.743142 
L 346.8672 53.768988 
L 350.4384 53.68136 
L 354.0096 53.69596 
L 357.5808 53.759998 
L 361.152 53.763369 
L 364.7232 53.75775 
L 368.2944 53.751007 
L 371.8656 53.69596 
L 375.4368 53.923076 
L 379.008 53.88594 
L 382.5792 53.935458 
L 386.1504 53.742018 
L 389.7216 53.666762 
L 393.2928 53.781352 
L 396.864 53.921951 
L 400.4352 53.831946 
L 404.0064 53.910696 
L 407.5776 53.647676 
L 411.1488 53.782476 
L 414.72 53.775732 
" style="fill:none;stroke:#7f7f7f;stroke-dasharray:5.55,2.4;stroke-dashoffset:0;stroke-width:1.5;"/>
   </g>
   <g id="patch_3">
    <path d="M 57.6 307.584 
L 57.6 41.472 
" style="fill:none;stroke:#000000;stroke-linecap:square;stroke-linejoin:miter;stroke-width:0.8;"/>
   </g>
   <g id="patch_4">
    <path d="M 414.72 307.584 
L 414.72 41.472 
" style="fill:none;stroke:#000000;stroke-linecap:square;stroke-linejoin:miter;stroke-width:0.8;"/>
   </g>
   <g id="patch_5">
    <path d="M 57.6 307.584 
L 414.72 307.584 
" style="fill:none;stroke:#000000;stroke-linecap:square;stroke-linejoin:miter;stroke-width:0.8;"/>
   </g>
   <g id="patch_6">
    <path d="M 57.6 41.472 
L 414.72 41.472 
" style="fill:none;stroke:#000000;stroke-linecap:square;stroke-linejoin:miter;stroke-width:0.8;"/>
   </g>
   <g id="legend_1">
    <g id="patch_7">
     <path d="M 299.895 302.584 
L 407.72 302.584 
Q 409.72 302.584 409.72 300.584 
L 409.72 184.159 
Q 409.72 182.159 407.72 182.159 
L 299.895 182.159 
Q 297.895 182.159 297.895 184.159 
L 297.895 300.584 
Q 297.895 302.584 299.895 302.584 
z
" style="fill:#ffffff;opacity:0.8;stroke:#cccccc;stroke-linejoin:miter;"/>
    </g>
    <g id="line2d_43">
     <path d="M 301.895 190.257437 
L 321.895 190.257437 
" style="fill:none;stroke:#1f77b4;stroke-linecap:square;stroke-width:1.5;"/>
    </g>
    <g id="line2d_44"/>
    <g id="text_11">
     <!-- SGD, lr 10 -->
     <defs>
      <path d="M 53.515625 70.515625 
L 53.515625 60.890625 
Q 47.90625 63.578125 42.921875 64.890625 
Q 37.9375 66.21875 33.296875 66.21875 
Q 25.25 66.21875 20.875 63.09375 
Q 16.5 59.96875 16.5 54.203125 
Q 16.5 49.359375 19.40625 46.890625 
Q 22.3125 44.4375 30.421875 42.921875 
L 36.375 41.703125 
Q 47.40625 39.59375 52.65625 34.296875 
Q 57.90625 29 57.90625 20.125 
Q 57.90625 9.515625 50.796875 4.046875 
Q 43.703125 -1.421875 29.984375 -1.421875 
Q 24.8125 -1.421875 18.96875 -0.25 
Q 13.140625 0.921875 6.890625 3.21875 
L 6.890625 13.375 
Q 12.890625 10.015625 18.65625 8.296875 
Q 24.421875 6.59375 29.984375 6.59375 
Q 38.421875 6.59375 43.015625 9.90625 
Q 47.609375 13.234375 47.609375 19.390625 
Q 47.609375 24.75 44.3125 27.78125 
Q 41.015625 30.8125 33.5 32.328125 
L 27.484375 33.5 
Q 16.453125 35.6875 11.515625 40.375 
Q 6.59375 45.0625 6.59375 53.421875 
Q 6.59375 63.09375 13.40625 68.65625 
Q 20.21875 74.21875 32.171875 74.21875 
Q 37.3125 74.21875 42.625 73.28125 
Q 47.953125 72.359375 53.515625 70.515625 
z
" id="DejaVuSans-53"/>
      <path d="M 59.515625 10.40625 
L 59.515625 29.984375 
L 43.40625 29.984375 
L 43.40625 38.09375 
L 69.28125 38.09375 
L 69.28125 6.78125 
Q 63.578125 2.734375 56.6875 0.65625 
Q 49.8125 -1.421875 42 -1.421875 
Q 24.90625 -1.421875 15.25 8.5625 
Q 5.609375 18.5625 5.609375 36.375 
Q 5.609375 54.25 15.25 64.234375 
Q 24.90625 74.21875 42 74.21875 
Q 49.125 74.21875 55.546875 72.453125 
Q 61.96875 70.703125 67.390625 67.28125 
L 67.390625 56.78125 
Q 61.921875 61.421875 55.765625 63.765625 
Q 49.609375 66.109375 42.828125 66.109375 
Q 29.4375 66.109375 22.71875 58.640625 
Q 16.015625 51.171875 16.015625 36.375 
Q 16.015625 21.625 22.71875 14.15625 
Q 29.4375 6.6875 42.828125 6.6875 
Q 48.046875 6.6875 52.140625 7.59375 
Q 56.25 8.5 59.515625 10.40625 
z
" id="DejaVuSans-47"/>
      <path d="M 19.671875 64.796875 
L 19.671875 8.109375 
L 31.59375 8.109375 
Q 46.6875 8.109375 53.6875 14.9375 
Q 60.6875 21.78125 60.6875 36.53125 
Q 60.6875 51.171875 53.6875 57.984375 
Q 46.6875 64.796875 31.59375 64.796875 
z
M 9.8125 72.90625 
L 30.078125 72.90625 
Q 51.265625 72.90625 61.171875 64.09375 
Q 71.09375 55.28125 71.09375 36.53125 
Q 71.09375 17.671875 61.125 8.828125 
Q 51.171875 0 30.078125 0 
L 9.8125 0 
z
" id="DejaVuSans-44"/>
      <path d="M 11.71875 12.40625 
L 22.015625 12.40625 
L 22.015625 4 
L 14.015625 -11.625 
L 7.71875 -11.625 
L 11.71875 4 
z
" id="DejaVuSans-2c"/>
      <path d="M 9.421875 75.984375 
L 18.40625 75.984375 
L 18.40625 0 
L 9.421875 0 
z
" id="DejaVuSans-6c"/>
      <path d="M 41.109375 46.296875 
Q 39.59375 47.171875 37.8125 47.578125 
Q 36.03125 48 33.890625 48 
Q 26.265625 48 22.1875 43.046875 
Q 18.109375 38.09375 18.109375 28.8125 
L 18.109375 0 
L 9.078125 0 
L 9.078125 54.6875 
L 18.109375 54.6875 
L 18.109375 46.1875 
Q 20.953125 51.171875 25.484375 53.578125 
Q 30.03125 56 36.53125 56 
Q 37.453125 56 38.578125 55.875 
Q 39.703125 55.765625 41.0625 55.515625 
z
" id="DejaVuSans-72"/>
     </defs>
     <g transform="translate(329.895 193.757437)scale(0.1 -0.1)">
      <use xlink:href="#DejaVuSans-53"/>
      <use x="63.476562" xlink:href="#DejaVuSans-47"/>
      <use x="140.966797" xlink:href="#DejaVuSans-44"/>
      <use x="217.96875" xlink:href="#DejaVuSans-2c"/>
      <use x="249.755859" xlink:href="#DejaVuSans-20"/>
      <use x="281.542969" xlink:href="#DejaVuSans-6c"/>
      <use x="309.326172" xlink:href="#DejaVuSans-72"/>
      <use x="350.439453" xlink:href="#DejaVuSans-20"/>
      <use x="382.226562" xlink:href="#DejaVuSans-31"/>
      <use x="445.849609" xlink:href="#DejaVuSans-30"/>
     </g>
    </g>
    <g id="line2d_45">
     <path d="M 301.895 204.935563 
L 321.895 204.935563 
" style="fill:none;stroke:#ff7f0e;stroke-linecap:square;stroke-width:1.5;"/>
    </g>
    <g id="line2d_46"/>
    <g id="text_12">
     <!-- SGD, lr 1 -->
     <g transform="translate(329.895 208.435563)scale(0.1 -0.1)">
      <use xlink:href="#DejaVuSans-53"/>
      <use x="63.476562" xlink:href="#DejaVuSans-47"/>
      <use x="140.966797" xlink:href="#DejaVuSans-44"/>
      <use x="217.96875" xlink:href="#DejaVuSans-2c"/>
      <use x="249.755859" xlink:href="#DejaVuSans-20"/>
      <use x="281.542969" xlink:href="#DejaVuSans-6c"/>
      <use x="309.326172" xlink:href="#DejaVuSans-72"/>
      <use x="350.439453" xlink:href="#DejaVuSans-20"/>
      <use x="382.226562" xlink:href="#DejaVuSans-31"/>
     </g>
    </g>
    <g id="line2d_47">
     <path d="M 301.895 219.613687 
L 321.895 219.613687 
" style="fill:none;stroke:#2ca02c;stroke-linecap:square;stroke-width:1.5;"/>
    </g>
    <g id="line2d_48"/>
    <g id="text_13">
     <!-- SGD, lr 0.1 -->
     <defs>
      <path d="M 10.6875 12.40625 
L 21 12.40625 
L 21 0 
L 10.6875 0 
z
" id="DejaVuSans-2e"/>
     </defs>
     <g transform="translate(329.895 223.113687)scale(0.1 -0.1)">
      <use xlink:href="#DejaVuSans-53"/>
      <use x="63.476562" xlink:href="#DejaVuSans-47"/>
      <use x="140.966797" xlink:href="#DejaVuSans-44"/>
      <use x="217.96875" xlink:href="#DejaVuSans-2c"/>
      <use x="249.755859" xlink:href="#DejaVuSans-20"/>
      <use x="281.542969" xlink:href="#DejaVuSans-6c"/>
      <use x="309.326172" xlink:href="#DejaVuSans-72"/>
      <use x="350.439453" xlink:href="#DejaVuSans-20"/>
      <use x="382.226562" xlink:href="#DejaVuSans-30"/>
      <use x="445.849609" xlink:href="#DejaVuSans-2e"/>
      <use x="477.636719" xlink:href="#DejaVuSans-31"/>
     </g>
    </g>
    <g id="line2d_49">
     <path d="M 301.895 234.291812 
L 321.895 234.291812 
" style="fill:none;stroke:#d62728;stroke-linecap:square;stroke-width:1.5;"/>
    </g>
    <g id="line2d_50"/>
    <g id="text_14">
     <!-- SGD, lr 0.01 -->
     <g transform="translate(329.895 237.791812)scale(0.1 -0.1)">
      <use xlink:href="#DejaVuSans-53"/>
      <use x="63.476562" xlink:href="#DejaVuSans-47"/>
      <use x="140.966797" xlink:href="#DejaVuSans-44"/>
      <use x="217.96875" xlink:href="#DejaVuSans-2c"/>
      <use x="249.755859" xlink:href="#DejaVuSans-20"/>
      <use x="281.542969" xlink:href="#DejaVuSans-6c"/>
      <use x="309.326172" xlink:href="#DejaVuSans-72"/>
      <use x="350.439453" xlink:href="#DejaVuSans-20"/>
      <use x="382.226562" xlink:href="#DejaVuSans-30"/>
      <use x="445.849609" xlink:href="#DejaVuSans-2e"/>
      <use x="477.636719" xlink:href="#DejaVuSans-30"/>
      <use x="541.259766" xlink:href="#DejaVuSans-31"/>
     </g>
    </g>
    <g id="line2d_51">
     <path d="M 301.895 248.969937 
L 321.895 248.969937 
" style="fill:none;stroke:#9467bd;stroke-linecap:square;stroke-width:1.5;"/>
    </g>
    <g id="line2d_52"/>
    <g id="text_15">
     <!-- SGD, lr 0.001 -->
     <g transform="translate(329.895 252.469937)scale(0.1 -0.1)">
      <use xlink:href="#DejaVuSans-53"/>
      <use x="63.476562" xlink:href="#DejaVuSans-47"/>
      <use x="140.966797" xlink:href="#DejaVuSans-44"/>
      <use x="217.96875" xlink:href="#DejaVuSans-2c"/>
      <use x="249.755859" xlink:href="#DejaVuSans-20"/>
      <use x="281.542969" xlink:href="#DejaVuSans-6c"/>
      <use x="309.326172" xlink:href="#DejaVuSans-72"/>
      <use x="350.439453" xlink:href="#DejaVuSans-20"/>
      <use x="382.226562" xlink:href="#DejaVuSans-30"/>
      <use x="445.849609" xlink:href="#DejaVuSans-2e"/>
      <use x="477.636719" xlink:href="#DejaVuSans-30"/>
      <use x="541.259766" xlink:href="#DejaVuSans-30"/>
      <use x="604.882812" xlink:href="#DejaVuSans-31"/>
     </g>
    </g>
    <g id="line2d_53">
     <path d="M 301.895 263.648062 
L 321.895 263.648062 
" style="fill:none;stroke:#8c564b;stroke-dasharray:5.55,2.4;stroke-dashoffset:0;stroke-width:1.5;"/>
    </g>
    <g id="line2d_54"/>
    <g id="text_16">
     <!-- SGN, cg iter 10 -->
     <defs>
      <path d="M 9.8125 72.90625 
L 23.09375 72.90625 
L 55.421875 11.921875 
L 55.421875 72.90625 
L 64.984375 72.90625 
L 64.984375 0 
L 51.703125 0 
L 19.390625 60.984375 
L 19.390625 0 
L 9.8125 0 
z
" id="DejaVuSans-4e"/>
      <path d="M 45.40625 27.984375 
Q 45.40625 37.75 41.375 43.109375 
Q 37.359375 48.484375 30.078125 48.484375 
Q 22.859375 48.484375 18.828125 43.109375 
Q 14.796875 37.75 14.796875 27.984375 
Q 14.796875 18.265625 18.828125 12.890625 
Q 22.859375 7.515625 30.078125 7.515625 
Q 37.359375 7.515625 41.375 12.890625 
Q 45.40625 18.265625 45.40625 27.984375 
z
M 54.390625 6.78125 
Q 54.390625 -7.171875 48.1875 -13.984375 
Q 42 -20.796875 29.203125 -20.796875 
Q 24.46875 -20.796875 20.265625 -20.09375 
Q 16.0625 -19.390625 12.109375 -17.921875 
L 12.109375 -9.1875 
Q 16.0625 -11.328125 19.921875 -12.34375 
Q 23.78125 -13.375 27.78125 -13.375 
Q 36.625 -13.375 41.015625 -8.765625 
Q 45.40625 -4.15625 45.40625 5.171875 
L 45.40625 9.625 
Q 42.625 4.78125 38.28125 2.390625 
Q 33.9375 0 27.875 0 
Q 17.828125 0 11.671875 7.65625 
Q 5.515625 15.328125 5.515625 27.984375 
Q 5.515625 40.671875 11.671875 48.328125 
Q 17.828125 56 27.875 56 
Q 33.9375 56 38.28125 53.609375 
Q 42.625 51.21875 45.40625 46.390625 
L 45.40625 54.6875 
L 54.390625 54.6875 
z
" id="DejaVuSans-67"/>
      <path d="M 9.421875 54.6875 
L 18.40625 54.6875 
L 18.40625 0 
L 9.421875 0 
z
M 9.421875 75.984375 
L 18.40625 75.984375 
L 18.40625 64.59375 
L 9.421875 64.59375 
z
" id="DejaVuSans-69"/>
     </defs>
     <g transform="translate(329.895 267.148062)scale(0.1 -0.1)">
      <use xlink:href="#DejaVuSans-53"/>
      <use x="63.476562" xlink:href="#DejaVuSans-47"/>
      <use x="140.966797" xlink:href="#DejaVuSans-4e"/>
      <use x="215.771484" xlink:href="#DejaVuSans-2c"/>
      <use x="247.558594" xlink:href="#DejaVuSans-20"/>
      <use x="279.345703" xlink:href="#DejaVuSans-63"/>
      <use x="334.326172" xlink:href="#DejaVuSans-67"/>
      <use x="397.802734" xlink:href="#DejaVuSans-20"/>
      <use x="429.589844" xlink:href="#DejaVuSans-69"/>
      <use x="457.373047" xlink:href="#DejaVuSans-74"/>
      <use x="496.582031" xlink:href="#DejaVuSans-65"/>
      <use x="558.105469" xlink:href="#DejaVuSans-72"/>
      <use x="599.21875" xlink:href="#DejaVuSans-20"/>
      <use x="631.005859" xlink:href="#DejaVuSans-31"/>
      <use x="694.628906" xlink:href="#DejaVuSans-30"/>
     </g>
    </g>
    <g id="line2d_55">
     <path d="M 301.895 278.326187 
L 321.895 278.326187 
" style="fill:none;stroke:#e377c2;stroke-dasharray:5.55,2.4;stroke-dashoffset:0;stroke-width:1.5;"/>
    </g>
    <g id="line2d_56"/>
    <g id="text_17">
     <!-- SGN, cg iter 5 -->
     <defs>
      <path d="M 10.796875 72.90625 
L 49.515625 72.90625 
L 49.515625 64.59375 
L 19.828125 64.59375 
L 19.828125 46.734375 
Q 21.96875 47.46875 24.109375 47.828125 
Q 26.265625 48.1875 28.421875 48.1875 
Q 40.625 48.1875 47.75 41.5 
Q 54.890625 34.8125 54.890625 23.390625 
Q 54.890625 11.625 47.5625 5.09375 
Q 40.234375 -1.421875 26.90625 -1.421875 
Q 22.3125 -1.421875 17.546875 -0.640625 
Q 12.796875 0.140625 7.71875 1.703125 
L 7.71875 11.625 
Q 12.109375 9.234375 16.796875 8.0625 
Q 21.484375 6.890625 26.703125 6.890625 
Q 35.15625 6.890625 40.078125 11.328125 
Q 45.015625 15.765625 45.015625 23.390625 
Q 45.015625 31 40.078125 35.4375 
Q 35.15625 39.890625 26.703125 39.890625 
Q 22.75 39.890625 18.8125 39.015625 
Q 14.890625 38.140625 10.796875 36.28125 
z
" id="DejaVuSans-35"/>
     </defs>
     <g transform="translate(329.895 281.826187)scale(0.1 -0.1)">
      <use xlink:href="#DejaVuSans-53"/>
      <use x="63.476562" xlink:href="#DejaVuSans-47"/>
      <use x="140.966797" xlink:href="#DejaVuSans-4e"/>
      <use x="215.771484" xlink:href="#DejaVuSans-2c"/>
      <use x="247.558594" xlink:href="#DejaVuSans-20"/>
      <use x="279.345703" xlink:href="#DejaVuSans-63"/>
      <use x="334.326172" xlink:href="#DejaVuSans-67"/>
      <use x="397.802734" xlink:href="#DejaVuSans-20"/>
      <use x="429.589844" xlink:href="#DejaVuSans-69"/>
      <use x="457.373047" xlink:href="#DejaVuSans-74"/>
      <use x="496.582031" xlink:href="#DejaVuSans-65"/>
      <use x="558.105469" xlink:href="#DejaVuSans-72"/>
      <use x="599.21875" xlink:href="#DejaVuSans-20"/>
      <use x="631.005859" xlink:href="#DejaVuSans-35"/>
     </g>
    </g>
    <g id="line2d_57">
     <path d="M 301.895 293.004312 
L 321.895 293.004312 
" style="fill:none;stroke:#7f7f7f;stroke-dasharray:5.55,2.4;stroke-dashoffset:0;stroke-width:1.5;"/>
    </g>
    <g id="line2d_58"/>
    <g id="text_18">
     <!-- SGN, cg iter 3 -->
     <defs>
      <path d="M 40.578125 39.3125 
Q 47.65625 37.796875 51.625 33 
Q 55.609375 28.21875 55.609375 21.1875 
Q 55.609375 10.40625 48.1875 4.484375 
Q 40.765625 -1.421875 27.09375 -1.421875 
Q 22.515625 -1.421875 17.65625 -0.515625 
Q 12.796875 0.390625 7.625 2.203125 
L 7.625 11.71875 
Q 11.71875 9.328125 16.59375 8.109375 
Q 21.484375 6.890625 26.8125 6.890625 
Q 36.078125 6.890625 40.9375 10.546875 
Q 45.796875 14.203125 45.796875 21.1875 
Q 45.796875 27.640625 41.28125 31.265625 
Q 36.765625 34.90625 28.71875 34.90625 
L 20.21875 34.90625 
L 20.21875 43.015625 
L 29.109375 43.015625 
Q 36.375 43.015625 40.234375 45.921875 
Q 44.09375 48.828125 44.09375 54.296875 
Q 44.09375 59.90625 40.109375 62.90625 
Q 36.140625 65.921875 28.71875 65.921875 
Q 24.65625 65.921875 20.015625 65.03125 
Q 15.375 64.15625 9.8125 62.3125 
L 9.8125 71.09375 
Q 15.4375 72.65625 20.34375 73.4375 
Q 25.25 74.21875 29.59375 74.21875 
Q 40.828125 74.21875 47.359375 69.109375 
Q 53.90625 64.015625 53.90625 55.328125 
Q 53.90625 49.265625 50.4375 45.09375 
Q 46.96875 40.921875 40.578125 39.3125 
z
" id="DejaVuSans-33"/>
     </defs>
     <g transform="translate(329.895 296.504312)scale(0.1 -0.1)">
      <use xlink:href="#DejaVuSans-53"/>
      <use x="63.476562" xlink:href="#DejaVuSans-47"/>
      <use x="140.966797" xlink:href="#DejaVuSans-4e"/>
      <use x="215.771484" xlink:href="#DejaVuSans-2c"/>
      <use x="247.558594" xlink:href="#DejaVuSans-20"/>
      <use x="279.345703" xlink:href="#DejaVuSans-63"/>
      <use x="334.326172" xlink:href="#DejaVuSans-67"/>
      <use x="397.802734" xlink:href="#DejaVuSans-20"/>
      <use x="429.589844" xlink:href="#DejaVuSans-69"/>
      <use x="457.373047" xlink:href="#DejaVuSans-74"/>
      <use x="496.582031" xlink:href="#DejaVuSans-65"/>
      <use x="558.105469" xlink:href="#DejaVuSans-72"/>
      <use x="599.21875" xlink:href="#DejaVuSans-20"/>
      <use x="631.005859" xlink:href="#DejaVuSans-33"/>
     </g>
    </g>
   </g>
  </g>
 </g>
 <defs>
  <clipPath id="pb5f1e553d5">
   <rect height="266.112" width="357.12" x="57.6" y="41.472"/>
  </clipPath>
 </defs>
</svg>
