<?xml version="1.0" encoding="utf-8" standalone="no"?>
<!DOCTYPE svg PUBLIC "-//W3C//DTD SVG 1.1//EN"
  "http://www.w3.org/Graphics/SVG/1.1/DTD/svg11.dtd">
<!-- Created with matplotlib (http://matplotlib.org/) -->
<svg height="345pt" version="1.1" viewBox="0 0 460 345" width="460pt" xmlns="http://www.w3.org/2000/svg" xmlns:xlink="http://www.w3.org/1999/xlink">
 <defs>
  <style type="text/css">
*{stroke-linecap:butt;stroke-linejoin:round;}
  </style>
 </defs>
 <g id="figure_1">
  <g id="patch_1">
   <path d="M 0 345.6 
L 460.8 345.6 
L 460.8 0 
L 0 0 
z
" style="fill:none;opacity:0;"/>
  </g>
  <g id="axes_1">
   <g id="patch_2">
    <path d="M 57.6 307.584 
L 414.72 307.584 
L 414.72 41.472 
L 57.6 41.472 
z
" style="fill:#ffffff;"/>
   </g>
   <g id="matplotlib.axis_1">
    <g id="xtick_1">
     <g id="line2d_1">
      <path clip-path="url(#p6f75894ec2)" d="M 57.6 307.584 
L 57.6 41.472 
" style="fill:none;stroke:#b0b0b0;stroke-linecap:square;stroke-width:0.8;"/>
     </g>
     <g id="line2d_2">
      <defs>
       <path d="M 0 0 
L 0 3.5 
" id="m34999daf8b" style="stroke:#000000;stroke-width:0.8;"/>
      </defs>
      <g>
       <use style="stroke:#000000;stroke-width:0.8;" x="57.6" xlink:href="#m34999daf8b" y="307.584"/>
      </g>
     </g>
     <g id="text_1">
      <!-- 0 -->
      <defs>
       <path d="M 31.78125 66.40625 
Q 24.171875 66.40625 20.328125 58.90625 
Q 16.5 51.421875 16.5 36.375 
Q 16.5 21.390625 20.328125 13.890625 
Q 24.171875 6.390625 31.78125 6.390625 
Q 39.453125 6.390625 43.28125 13.890625 
Q 47.125 21.390625 47.125 36.375 
Q 47.125 51.421875 43.28125 58.90625 
Q 39.453125 66.40625 31.78125 66.40625 
z
M 31.78125 74.21875 
Q 44.046875 74.21875 50.515625 64.515625 
Q 56.984375 54.828125 56.984375 36.375 
Q 56.984375 17.96875 50.515625 8.265625 
Q 44.046875 -1.421875 31.78125 -1.421875 
Q 19.53125 -1.421875 13.0625 8.265625 
Q 6.59375 17.96875 6.59375 36.375 
Q 6.59375 54.828125 13.0625 64.515625 
Q 19.53125 74.21875 31.78125 74.21875 
z
" id="DejaVuSans-30"/>
      </defs>
      <g transform="translate(54.41875 322.182437)scale(0.1 -0.1)">
       <use xlink:href="#DejaVuSans-30"/>
      </g>
     </g>
    </g>
    <g id="xtick_2">
     <g id="line2d_3">
      <path clip-path="url(#p6f75894ec2)" d="M 102.24 307.584 
L 102.24 41.472 
" style="fill:none;stroke:#b0b0b0;stroke-linecap:square;stroke-width:0.8;"/>
     </g>
     <g id="line2d_4">
      <g>
       <use style="stroke:#000000;stroke-width:0.8;" x="102.24" xlink:href="#m34999daf8b" y="307.584"/>
      </g>
     </g>
     <g id="text_2">
      <!-- 50 -->
      <defs>
       <path d="M 10.796875 72.90625 
L 49.515625 72.90625 
L 49.515625 64.59375 
L 19.828125 64.59375 
L 19.828125 46.734375 
Q 21.96875 47.46875 24.109375 47.828125 
Q 26.265625 48.1875 28.421875 48.1875 
Q 40.625 48.1875 47.75 41.5 
Q 54.890625 34.8125 54.890625 23.390625 
Q 54.890625 11.625 47.5625 5.09375 
Q 40.234375 -1.421875 26.90625 -1.421875 
Q 22.3125 -1.421875 17.546875 -0.640625 
Q 12.796875 0.140625 7.71875 1.703125 
L 7.71875 11.625 
Q 12.109375 9.234375 16.796875 8.0625 
Q 21.484375 6.890625 26.703125 6.890625 
Q 35.15625 6.890625 40.078125 11.328125 
Q 45.015625 15.765625 45.015625 23.390625 
Q 45.015625 31 40.078125 35.4375 
Q 35.15625 39.890625 26.703125 39.890625 
Q 22.75 39.890625 18.8125 39.015625 
Q 14.890625 38.140625 10.796875 36.28125 
z
" id="DejaVuSans-35"/>
      </defs>
      <g transform="translate(95.8775 322.182437)scale(0.1 -0.1)">
       <use xlink:href="#DejaVuSans-35"/>
       <use x="63.623047" xlink:href="#DejaVuSans-30"/>
      </g>
     </g>
    </g>
    <g id="xtick_3">
     <g id="line2d_5">
      <path clip-path="url(#p6f75894ec2)" d="M 146.88 307.584 
L 146.88 41.472 
" style="fill:none;stroke:#b0b0b0;stroke-linecap:square;stroke-width:0.8;"/>
     </g>
     <g id="line2d_6">
      <g>
       <use style="stroke:#000000;stroke-width:0.8;" x="146.88" xlink:href="#m34999daf8b" y="307.584"/>
      </g>
     </g>
     <g id="text_3">
      <!-- 100 -->
      <defs>
       <path d="M 12.40625 8.296875 
L 28.515625 8.296875 
L 28.515625 63.921875 
L 10.984375 60.40625 
L 10.984375 69.390625 
L 28.421875 72.90625 
L 38.28125 72.90625 
L 38.28125 8.296875 
L 54.390625 8.296875 
L 54.390625 0 
L 12.40625 0 
z
" id="DejaVuSans-31"/>
      </defs>
      <g transform="translate(137.33625 322.182437)scale(0.1 -0.1)">
       <use xlink:href="#DejaVuSans-31"/>
       <use x="63.623047" xlink:href="#DejaVuSans-30"/>
       <use x="127.246094" xlink:href="#DejaVuSans-30"/>
      </g>
     </g>
    </g>
    <g id="xtick_4">
     <g id="line2d_7">
      <path clip-path="url(#p6f75894ec2)" d="M 191.52 307.584 
L 191.52 41.472 
" style="fill:none;stroke:#b0b0b0;stroke-linecap:square;stroke-width:0.8;"/>
     </g>
     <g id="line2d_8">
      <g>
       <use style="stroke:#000000;stroke-width:0.8;" x="191.52" xlink:href="#m34999daf8b" y="307.584"/>
      </g>
     </g>
     <g id="text_4">
      <!-- 150 -->
      <g transform="translate(181.97625 322.182437)scale(0.1 -0.1)">
       <use xlink:href="#DejaVuSans-31"/>
       <use x="63.623047" xlink:href="#DejaVuSans-35"/>
       <use x="127.246094" xlink:href="#DejaVuSans-30"/>
      </g>
     </g>
    </g>
    <g id="xtick_5">
     <g id="line2d_9">
      <path clip-path="url(#p6f75894ec2)" d="M 236.16 307.584 
L 236.16 41.472 
" style="fill:none;stroke:#b0b0b0;stroke-linecap:square;stroke-width:0.8;"/>
     </g>
     <g id="line2d_10">
      <g>
       <use style="stroke:#000000;stroke-width:0.8;" x="236.16" xlink:href="#m34999daf8b" y="307.584"/>
      </g>
     </g>
     <g id="text_5">
      <!-- 200 -->
      <defs>
       <path d="M 19.1875 8.296875 
L 53.609375 8.296875 
L 53.609375 0 
L 7.328125 0 
L 7.328125 8.296875 
Q 12.9375 14.109375 22.625 23.890625 
Q 32.328125 33.6875 34.8125 36.53125 
Q 39.546875 41.84375 41.421875 45.53125 
Q 43.3125 49.21875 43.3125 52.78125 
Q 43.3125 58.59375 39.234375 62.25 
Q 35.15625 65.921875 28.609375 65.921875 
Q 23.96875 65.921875 18.8125 64.3125 
Q 13.671875 62.703125 7.8125 59.421875 
L 7.8125 69.390625 
Q 13.765625 71.78125 18.9375 73 
Q 24.125 74.21875 28.421875 74.21875 
Q 39.75 74.21875 46.484375 68.546875 
Q 53.21875 62.890625 53.21875 53.421875 
Q 53.21875 48.921875 51.53125 44.890625 
Q 49.859375 40.875 45.40625 35.40625 
Q 44.1875 33.984375 37.640625 27.21875 
Q 31.109375 20.453125 19.1875 8.296875 
z
" id="DejaVuSans-32"/>
      </defs>
      <g transform="translate(226.61625 322.182437)scale(0.1 -0.1)">
       <use xlink:href="#DejaVuSans-32"/>
       <use x="63.623047" xlink:href="#DejaVuSans-30"/>
       <use x="127.246094" xlink:href="#DejaVuSans-30"/>
      </g>
     </g>
    </g>
    <g id="xtick_6">
     <g id="line2d_11">
      <path clip-path="url(#p6f75894ec2)" d="M 280.8 307.584 
L 280.8 41.472 
" style="fill:none;stroke:#b0b0b0;stroke-linecap:square;stroke-width:0.8;"/>
     </g>
     <g id="line2d_12">
      <g>
       <use style="stroke:#000000;stroke-width:0.8;" x="280.8" xlink:href="#m34999daf8b" y="307.584"/>
      </g>
     </g>
     <g id="text_6">
      <!-- 250 -->
      <g transform="translate(271.25625 322.182437)scale(0.1 -0.1)">
       <use xlink:href="#DejaVuSans-32"/>
       <use x="63.623047" xlink:href="#DejaVuSans-35"/>
       <use x="127.246094" xlink:href="#DejaVuSans-30"/>
      </g>
     </g>
    </g>
    <g id="xtick_7">
     <g id="line2d_13">
      <path clip-path="url(#p6f75894ec2)" d="M 325.44 307.584 
L 325.44 41.472 
" style="fill:none;stroke:#b0b0b0;stroke-linecap:square;stroke-width:0.8;"/>
     </g>
     <g id="line2d_14">
      <g>
       <use style="stroke:#000000;stroke-width:0.8;" x="325.44" xlink:href="#m34999daf8b" y="307.584"/>
      </g>
     </g>
     <g id="text_7">
      <!-- 300 -->
      <defs>
       <path d="M 40.578125 39.3125 
Q 47.65625 37.796875 51.625 33 
Q 55.609375 28.21875 55.609375 21.1875 
Q 55.609375 10.40625 48.1875 4.484375 
Q 40.765625 -1.421875 27.09375 -1.421875 
Q 22.515625 -1.421875 17.65625 -0.515625 
Q 12.796875 0.390625 7.625 2.203125 
L 7.625 11.71875 
Q 11.71875 9.328125 16.59375 8.109375 
Q 21.484375 6.890625 26.8125 6.890625 
Q 36.078125 6.890625 40.9375 10.546875 
Q 45.796875 14.203125 45.796875 21.1875 
Q 45.796875 27.640625 41.28125 31.265625 
Q 36.765625 34.90625 28.71875 34.90625 
L 20.21875 34.90625 
L 20.21875 43.015625 
L 29.109375 43.015625 
Q 36.375 43.015625 40.234375 45.921875 
Q 44.09375 48.828125 44.09375 54.296875 
Q 44.09375 59.90625 40.109375 62.90625 
Q 36.140625 65.921875 28.71875 65.921875 
Q 24.65625 65.921875 20.015625 65.03125 
Q 15.375 64.15625 9.8125 62.3125 
L 9.8125 71.09375 
Q 15.4375 72.65625 20.34375 73.4375 
Q 25.25 74.21875 29.59375 74.21875 
Q 40.828125 74.21875 47.359375 69.109375 
Q 53.90625 64.015625 53.90625 55.328125 
Q 53.90625 49.265625 50.4375 45.09375 
Q 46.96875 40.921875 40.578125 39.3125 
z
" id="DejaVuSans-33"/>
      </defs>
      <g transform="translate(315.89625 322.182437)scale(0.1 -0.1)">
       <use xlink:href="#DejaVuSans-33"/>
       <use x="63.623047" xlink:href="#DejaVuSans-30"/>
       <use x="127.246094" xlink:href="#DejaVuSans-30"/>
      </g>
     </g>
    </g>
    <g id="xtick_8">
     <g id="line2d_15">
      <path clip-path="url(#p6f75894ec2)" d="M 370.08 307.584 
L 370.08 41.472 
" style="fill:none;stroke:#b0b0b0;stroke-linecap:square;stroke-width:0.8;"/>
     </g>
     <g id="line2d_16">
      <g>
       <use style="stroke:#000000;stroke-width:0.8;" x="370.08" xlink:href="#m34999daf8b" y="307.584"/>
      </g>
     </g>
     <g id="text_8">
      <!-- 350 -->
      <g transform="translate(360.53625 322.182437)scale(0.1 -0.1)">
       <use xlink:href="#DejaVuSans-33"/>
       <use x="63.623047" xlink:href="#DejaVuSans-35"/>
       <use x="127.246094" xlink:href="#DejaVuSans-30"/>
      </g>
     </g>
    </g>
    <g id="xtick_9">
     <g id="line2d_17">
      <path clip-path="url(#p6f75894ec2)" d="M 414.72 307.584 
L 414.72 41.472 
" style="fill:none;stroke:#b0b0b0;stroke-linecap:square;stroke-width:0.8;"/>
     </g>
     <g id="line2d_18">
      <g>
       <use style="stroke:#000000;stroke-width:0.8;" x="414.72" xlink:href="#m34999daf8b" y="307.584"/>
      </g>
     </g>
     <g id="text_9">
      <!-- 400 -->
      <defs>
       <path d="M 37.796875 64.3125 
L 12.890625 25.390625 
L 37.796875 25.390625 
z
M 35.203125 72.90625 
L 47.609375 72.90625 
L 47.609375 25.390625 
L 58.015625 25.390625 
L 58.015625 17.1875 
L 47.609375 17.1875 
L 47.609375 0 
L 37.796875 0 
L 37.796875 17.1875 
L 4.890625 17.1875 
L 4.890625 26.703125 
z
" id="DejaVuSans-34"/>
      </defs>
      <g transform="translate(405.17625 322.182437)scale(0.1 -0.1)">
       <use xlink:href="#DejaVuSans-34"/>
       <use x="63.623047" xlink:href="#DejaVuSans-30"/>
       <use x="127.246094" xlink:href="#DejaVuSans-30"/>
      </g>
     </g>
    </g>
    <g id="text_10">
     <!-- sec -->
     <defs>
      <path d="M 44.28125 53.078125 
L 44.28125 44.578125 
Q 40.484375 46.53125 36.375 47.5 
Q 32.28125 48.484375 27.875 48.484375 
Q 21.1875 48.484375 17.84375 46.4375 
Q 14.5 44.390625 14.5 40.28125 
Q 14.5 37.15625 16.890625 35.375 
Q 19.28125 33.59375 26.515625 31.984375 
L 29.59375 31.296875 
Q 39.15625 29.25 43.1875 25.515625 
Q 47.21875 21.78125 47.21875 15.09375 
Q 47.21875 7.46875 41.1875 3.015625 
Q 35.15625 -1.421875 24.609375 -1.421875 
Q 20.21875 -1.421875 15.453125 -0.5625 
Q 10.6875 0.296875 5.421875 2 
L 5.421875 11.28125 
Q 10.40625 8.6875 15.234375 7.390625 
Q 20.0625 6.109375 24.8125 6.109375 
Q 31.15625 6.109375 34.5625 8.28125 
Q 37.984375 10.453125 37.984375 14.40625 
Q 37.984375 18.0625 35.515625 20.015625 
Q 33.0625 21.96875 24.703125 23.78125 
L 21.578125 24.515625 
Q 13.234375 26.265625 9.515625 29.90625 
Q 5.8125 33.546875 5.8125 39.890625 
Q 5.8125 47.609375 11.28125 51.796875 
Q 16.75 56 26.8125 56 
Q 31.78125 56 36.171875 55.265625 
Q 40.578125 54.546875 44.28125 53.078125 
z
" id="DejaVuSans-73"/>
      <path d="M 56.203125 29.59375 
L 56.203125 25.203125 
L 14.890625 25.203125 
Q 15.484375 15.921875 20.484375 11.0625 
Q 25.484375 6.203125 34.421875 6.203125 
Q 39.59375 6.203125 44.453125 7.46875 
Q 49.3125 8.734375 54.109375 11.28125 
L 54.109375 2.78125 
Q 49.265625 0.734375 44.1875 -0.34375 
Q 39.109375 -1.421875 33.890625 -1.421875 
Q 20.796875 -1.421875 13.15625 6.1875 
Q 5.515625 13.8125 5.515625 26.8125 
Q 5.515625 40.234375 12.765625 48.109375 
Q 20.015625 56 32.328125 56 
Q 43.359375 56 49.78125 48.890625 
Q 56.203125 41.796875 56.203125 29.59375 
z
M 47.21875 32.234375 
Q 47.125 39.59375 43.09375 43.984375 
Q 39.0625 48.390625 32.421875 48.390625 
Q 24.90625 48.390625 20.390625 44.140625 
Q 15.875 39.890625 15.1875 32.171875 
z
" id="DejaVuSans-65"/>
      <path d="M 48.78125 52.59375 
L 48.78125 44.1875 
Q 44.96875 46.296875 41.140625 47.34375 
Q 37.3125 48.390625 33.40625 48.390625 
Q 24.65625 48.390625 19.8125 42.84375 
Q 14.984375 37.3125 14.984375 27.296875 
Q 14.984375 17.28125 19.8125 11.734375 
Q 24.65625 6.203125 33.40625 6.203125 
Q 37.3125 6.203125 41.140625 7.25 
Q 44.96875 8.296875 48.78125 10.40625 
L 48.78125 2.09375 
Q 45.015625 0.34375 40.984375 -0.53125 
Q 36.96875 -1.421875 32.421875 -1.421875 
Q 20.0625 -1.421875 12.78125 6.34375 
Q 5.515625 14.109375 5.515625 27.296875 
Q 5.515625 40.671875 12.859375 48.328125 
Q 20.21875 56 33.015625 56 
Q 37.15625 56 41.109375 55.140625 
Q 45.0625 54.296875 48.78125 52.59375 
z
" id="DejaVuSans-63"/>
     </defs>
     <g transform="translate(227.729531 335.860562)scale(0.1 -0.1)">
      <use xlink:href="#DejaVuSans-73"/>
      <use x="52.099609" xlink:href="#DejaVuSans-65"/>
      <use x="113.623047" xlink:href="#DejaVuSans-63"/>
     </g>
    </g>
   </g>
   <g id="matplotlib.axis_2">
    <g id="ytick_1">
     <g id="line2d_19">
      <path clip-path="url(#p6f75894ec2)" d="M 57.6 307.584 
L 414.72 307.584 
" style="fill:none;stroke:#b0b0b0;stroke-linecap:square;stroke-width:0.8;"/>
     </g>
     <g id="line2d_20">
      <defs>
       <path d="M 0 0 
L -3.5 0 
" id="mfdc6c28c2e" style="stroke:#000000;stroke-width:0.8;"/>
      </defs>
      <g>
       <use style="stroke:#000000;stroke-width:0.8;" x="57.6" xlink:href="#mfdc6c28c2e" y="307.584"/>
      </g>
     </g>
     <g id="text_11">
      <!-- 0.0 -->
      <defs>
       <path d="M 10.6875 12.40625 
L 21 12.40625 
L 21 0 
L 10.6875 0 
z
" id="DejaVuSans-2e"/>
      </defs>
      <g transform="translate(34.696875 311.383219)scale(0.1 -0.1)">
       <use xlink:href="#DejaVuSans-30"/>
       <use x="63.623047" xlink:href="#DejaVuSans-2e"/>
       <use x="95.410156" xlink:href="#DejaVuSans-30"/>
      </g>
     </g>
    </g>
    <g id="ytick_2">
     <g id="line2d_21">
      <path clip-path="url(#p6f75894ec2)" d="M 57.6 254.3616 
L 414.72 254.3616 
" style="fill:none;stroke:#b0b0b0;stroke-linecap:square;stroke-width:0.8;"/>
     </g>
     <g id="line2d_22">
      <g>
       <use style="stroke:#000000;stroke-width:0.8;" x="57.6" xlink:href="#mfdc6c28c2e" y="254.3616"/>
      </g>
     </g>
     <g id="text_12">
      <!-- 0.2 -->
      <g transform="translate(34.696875 258.160819)scale(0.1 -0.1)">
       <use xlink:href="#DejaVuSans-30"/>
       <use x="63.623047" xlink:href="#DejaVuSans-2e"/>
       <use x="95.410156" xlink:href="#DejaVuSans-32"/>
      </g>
     </g>
    </g>
    <g id="ytick_3">
     <g id="line2d_23">
      <path clip-path="url(#p6f75894ec2)" d="M 57.6 201.1392 
L 414.72 201.1392 
" style="fill:none;stroke:#b0b0b0;stroke-linecap:square;stroke-width:0.8;"/>
     </g>
     <g id="line2d_24">
      <g>
       <use style="stroke:#000000;stroke-width:0.8;" x="57.6" xlink:href="#mfdc6c28c2e" y="201.1392"/>
      </g>
     </g>
     <g id="text_13">
      <!-- 0.4 -->
      <g transform="translate(34.696875 204.938419)scale(0.1 -0.1)">
       <use xlink:href="#DejaVuSans-30"/>
       <use x="63.623047" xlink:href="#DejaVuSans-2e"/>
       <use x="95.410156" xlink:href="#DejaVuSans-34"/>
      </g>
     </g>
    </g>
    <g id="ytick_4">
     <g id="line2d_25">
      <path clip-path="url(#p6f75894ec2)" d="M 57.6 147.9168 
L 414.72 147.9168 
" style="fill:none;stroke:#b0b0b0;stroke-linecap:square;stroke-width:0.8;"/>
     </g>
     <g id="line2d_26">
      <g>
       <use style="stroke:#000000;stroke-width:0.8;" x="57.6" xlink:href="#mfdc6c28c2e" y="147.9168"/>
      </g>
     </g>
     <g id="text_14">
      <!-- 0.6 -->
      <defs>
       <path d="M 33.015625 40.375 
Q 26.375 40.375 22.484375 35.828125 
Q 18.609375 31.296875 18.609375 23.390625 
Q 18.609375 15.53125 22.484375 10.953125 
Q 26.375 6.390625 33.015625 6.390625 
Q 39.65625 6.390625 43.53125 10.953125 
Q 47.40625 15.53125 47.40625 23.390625 
Q 47.40625 31.296875 43.53125 35.828125 
Q 39.65625 40.375 33.015625 40.375 
z
M 52.59375 71.296875 
L 52.59375 62.3125 
Q 48.875 64.0625 45.09375 64.984375 
Q 41.3125 65.921875 37.59375 65.921875 
Q 27.828125 65.921875 22.671875 59.328125 
Q 17.53125 52.734375 16.796875 39.40625 
Q 19.671875 43.65625 24.015625 45.921875 
Q 28.375 48.1875 33.59375 48.1875 
Q 44.578125 48.1875 50.953125 41.515625 
Q 57.328125 34.859375 57.328125 23.390625 
Q 57.328125 12.15625 50.6875 5.359375 
Q 44.046875 -1.421875 33.015625 -1.421875 
Q 20.359375 -1.421875 13.671875 8.265625 
Q 6.984375 17.96875 6.984375 36.375 
Q 6.984375 53.65625 15.1875 63.9375 
Q 23.390625 74.21875 37.203125 74.21875 
Q 40.921875 74.21875 44.703125 73.484375 
Q 48.484375 72.75 52.59375 71.296875 
z
" id="DejaVuSans-36"/>
      </defs>
      <g transform="translate(34.696875 151.716019)scale(0.1 -0.1)">
       <use xlink:href="#DejaVuSans-30"/>
       <use x="63.623047" xlink:href="#DejaVuSans-2e"/>
       <use x="95.410156" xlink:href="#DejaVuSans-36"/>
      </g>
     </g>
    </g>
    <g id="ytick_5">
     <g id="line2d_27">
      <path clip-path="url(#p6f75894ec2)" d="M 57.6 94.6944 
L 414.72 94.6944 
" style="fill:none;stroke:#b0b0b0;stroke-linecap:square;stroke-width:0.8;"/>
     </g>
     <g id="line2d_28">
      <g>
       <use style="stroke:#000000;stroke-width:0.8;" x="57.6" xlink:href="#mfdc6c28c2e" y="94.6944"/>
      </g>
     </g>
     <g id="text_15">
      <!-- 0.8 -->
      <defs>
       <path d="M 31.78125 34.625 
Q 24.75 34.625 20.71875 30.859375 
Q 16.703125 27.09375 16.703125 20.515625 
Q 16.703125 13.921875 20.71875 10.15625 
Q 24.75 6.390625 31.78125 6.390625 
Q 38.8125 6.390625 42.859375 10.171875 
Q 46.921875 13.96875 46.921875 20.515625 
Q 46.921875 27.09375 42.890625 30.859375 
Q 38.875 34.625 31.78125 34.625 
z
M 21.921875 38.8125 
Q 15.578125 40.375 12.03125 44.71875 
Q 8.5 49.078125 8.5 55.328125 
Q 8.5 64.0625 14.71875 69.140625 
Q 20.953125 74.21875 31.78125 74.21875 
Q 42.671875 74.21875 48.875 69.140625 
Q 55.078125 64.0625 55.078125 55.328125 
Q 55.078125 49.078125 51.53125 44.71875 
Q 48 40.375 41.703125 38.8125 
Q 48.828125 37.15625 52.796875 32.3125 
Q 56.78125 27.484375 56.78125 20.515625 
Q 56.78125 9.90625 50.3125 4.234375 
Q 43.84375 -1.421875 31.78125 -1.421875 
Q 19.734375 -1.421875 13.25 4.234375 
Q 6.78125 9.90625 6.78125 20.515625 
Q 6.78125 27.484375 10.78125 32.3125 
Q 14.796875 37.15625 21.921875 38.8125 
z
M 18.3125 54.390625 
Q 18.3125 48.734375 21.84375 45.5625 
Q 25.390625 42.390625 31.78125 42.390625 
Q 38.140625 42.390625 41.71875 45.5625 
Q 45.3125 48.734375 45.3125 54.390625 
Q 45.3125 60.0625 41.71875 63.234375 
Q 38.140625 66.40625 31.78125 66.40625 
Q 25.390625 66.40625 21.84375 63.234375 
Q 18.3125 60.0625 18.3125 54.390625 
z
" id="DejaVuSans-38"/>
      </defs>
      <g transform="translate(34.696875 98.493619)scale(0.1 -0.1)">
       <use xlink:href="#DejaVuSans-30"/>
       <use x="63.623047" xlink:href="#DejaVuSans-2e"/>
       <use x="95.410156" xlink:href="#DejaVuSans-38"/>
      </g>
     </g>
    </g>
    <g id="ytick_6">
     <g id="line2d_29">
      <path clip-path="url(#p6f75894ec2)" d="M 57.6 41.472 
L 414.72 41.472 
" style="fill:none;stroke:#b0b0b0;stroke-linecap:square;stroke-width:0.8;"/>
     </g>
     <g id="line2d_30">
      <g>
       <use style="stroke:#000000;stroke-width:0.8;" x="57.6" xlink:href="#mfdc6c28c2e" y="41.472"/>
      </g>
     </g>
     <g id="text_16">
      <!-- 1.0 -->
      <g transform="translate(34.696875 45.271219)scale(0.1 -0.1)">
       <use xlink:href="#DejaVuSans-31"/>
       <use x="63.623047" xlink:href="#DejaVuSans-2e"/>
       <use x="95.410156" xlink:href="#DejaVuSans-30"/>
      </g>
     </g>
    </g>
    <g id="text_17">
     <!-- test acc -->
     <defs>
      <path d="M 18.3125 70.21875 
L 18.3125 54.6875 
L 36.8125 54.6875 
L 36.8125 47.703125 
L 18.3125 47.703125 
L 18.3125 18.015625 
Q 18.3125 11.328125 20.140625 9.421875 
Q 21.96875 7.515625 27.59375 7.515625 
L 36.8125 7.515625 
L 36.8125 0 
L 27.59375 0 
Q 17.1875 0 13.234375 3.875 
Q 9.28125 7.765625 9.28125 18.015625 
L 9.28125 47.703125 
L 2.6875 47.703125 
L 2.6875 54.6875 
L 9.28125 54.6875 
L 9.28125 70.21875 
z
" id="DejaVuSans-74"/>
      <path id="DejaVuSans-20"/>
      <path d="M 34.28125 27.484375 
Q 23.390625 27.484375 19.1875 25 
Q 14.984375 22.515625 14.984375 16.5 
Q 14.984375 11.71875 18.140625 8.90625 
Q 21.296875 6.109375 26.703125 6.109375 
Q 34.1875 6.109375 38.703125 11.40625 
Q 43.21875 16.703125 43.21875 25.484375 
L 43.21875 27.484375 
z
M 52.203125 31.203125 
L 52.203125 0 
L 43.21875 0 
L 43.21875 8.296875 
Q 40.140625 3.328125 35.546875 0.953125 
Q 30.953125 -1.421875 24.3125 -1.421875 
Q 15.921875 -1.421875 10.953125 3.296875 
Q 6 8.015625 6 15.921875 
Q 6 25.140625 12.171875 29.828125 
Q 18.359375 34.515625 30.609375 34.515625 
L 43.21875 34.515625 
L 43.21875 35.40625 
Q 43.21875 41.609375 39.140625 45 
Q 35.0625 48.390625 27.6875 48.390625 
Q 23 48.390625 18.546875 47.265625 
Q 14.109375 46.140625 10.015625 43.890625 
L 10.015625 52.203125 
Q 14.9375 54.109375 19.578125 55.046875 
Q 24.21875 56 28.609375 56 
Q 40.484375 56 46.34375 49.84375 
Q 52.203125 43.703125 52.203125 31.203125 
z
" id="DejaVuSans-61"/>
     </defs>
     <g transform="translate(28.617187 194.281125)rotate(-90)scale(0.1 -0.1)">
      <use xlink:href="#DejaVuSans-74"/>
      <use x="39.208984" xlink:href="#DejaVuSans-65"/>
      <use x="100.732422" xlink:href="#DejaVuSans-73"/>
      <use x="152.832031" xlink:href="#DejaVuSans-74"/>
      <use x="192.041016" xlink:href="#DejaVuSans-20"/>
      <use x="223.828125" xlink:href="#DejaVuSans-61"/>
      <use x="285.107422" xlink:href="#DejaVuSans-63"/>
      <use x="340.087891" xlink:href="#DejaVuSans-63"/>
     </g>
    </g>
   </g>
   <g id="line2d_31">
    <path clip-path="url(#p6f75894ec2)" d="M 58.217221 281.057956 
L 58.834443 281.691302 
L 59.451664 280.40332 
L 60.068885 281.0686 
L 60.686106 280.61621 
L 61.303328 279.812552 
L 61.920549 280.743944 
L 62.53777 281.962737 
L 63.154992 280.52041 
L 63.772213 280.962156 
L 64.389434 280.376709 
L 65.006656 282.276749 
L 65.623877 280.488476 
L 66.241098 280.323487 
L 66.858319 281.707269 
L 67.475541 281.254879 
L 68.092762 281.073923 
L 68.709983 281.441157 
L 69.327205 280.16382 
L 69.944426 280.861033 
L 70.561647 281.222945 
L 71.178868 280.818455 
L 71.79609 274.873513 
L 72.413311 275.315259 
L 73.030532 275.288648 
L 73.647754 274.10711 
L 74.264975 266.070528 
L 74.882196 268.252646 
L 75.499418 269.130816 
L 76.116639 275.50686 
L 76.73386 269.881252 
L 77.351081 269.689651 
L 77.968303 268.013146 
L 78.585524 265.048658 
L 79.202745 267.800256 
L 79.819967 276.784197 
L 80.437188 267.438344 
L 81.054409 269.593851 
L 81.671631 269.961085 
L 82.288852 260.13623 
L 82.906073 258.124424 
L 83.523294 250.561521 
L 84.140516 239.565773 
L 84.757737 239.576417 
L 85.374958 234.706568 
L 85.99218 232.151892 
L 86.609401 235.121702 
L 87.226622 225.935516 
L 87.843843 222.976351 
L 88.461065 221.044378 
L 89.078286 210.559565 
L 89.695507 207.53121 
L 90.312729 199.420116 
L 90.92995 194.475756 
L 91.547171 194.262866 
L 92.164393 187.652644 
L 92.781614 203.49163 
L 93.398835 189.47285 
L 94.016056 186.141128 
L 94.633278 177.359432 
L 95.250499 181.728991 
L 96.484942 164.490255 
L 97.102163 164.319944 
L 97.719384 163.447096 
L 98.336605 170.616154 
L 98.953827 158.859325 
L 99.571048 158.784814 
L 100.188269 158.444191 
L 100.805491 162.430548 
L 101.422712 153.739331 
L 102.039933 158.486769 
L 102.657155 153.792553 
L 103.274376 153.909642 
L 103.891597 153.212429 
L 104.508818 152.089436 
L 105.12604 154.984735 
L 105.743261 152.26507 
L 106.977704 143.946409 
L 107.594925 142.59456 
L 108.212146 139.858929 
L 108.829367 140.449697 
L 109.446589 145.048113 
L 110.06381 138.794481 
L 110.681031 136.175939 
L 111.298253 139.167037 
L 111.915474 135.936438 
L 112.532695 134.313155 
L 113.149917 139.002048 
L 113.767138 139.821673 
L 114.384359 133.834153 
L 115.00158 132.860183 
L 115.618802 124.5362 
L 116.236023 119.30976 
L 116.853244 118.830758 
L 117.470466 116.627351 
L 118.087687 113.311596 
L 118.704908 112.332303 
L 119.322129 138.55498 
L 119.939351 116.733796 
L 120.556572 106.616218 
L 121.173793 106.733307 
L 121.791015 106.179794 
L 122.408236 105.205824 
L 123.025457 105.168568 
L 123.642679 105.610314 
L 124.2599 105.312269 
L 124.877121 105.950938 
L 125.494342 105.040835 
L 126.111564 113.89172 
L 126.728785 104.535222 
L 127.346006 111.549934 
L 127.963228 104.332977 
L 128.580449 105.189857 
L 129.19767 105.131313 
L 129.814892 104.26911 
L 130.432113 104.125409 
L 131.049334 103.768819 
L 131.666555 104.22121 
L 132.283777 97.632276 
L 132.900998 112.555837 
L 133.518219 107.824366 
L 134.135441 113.497874 
L 134.752662 102.166825 
L 135.369883 105.562414 
L 135.987104 94.641178 
L 136.604326 93.869453 
L 137.221547 94.316521 
L 137.838768 86.828129 
L 139.073211 83.070628 
L 139.690432 72.995628 
L 140.307654 68.865569 
L 140.924875 67.178419 
L 141.542096 61.632645 
L 142.159317 76.859574 
L 142.776539 65.858504 
L 143.39376 65.890437 
L 144.010981 61.265411 
L 144.628203 61.2867 
L 145.245424 60.711898 
L 146.479866 59.988073 
L 147.714309 60.00404 
L 148.33153 59.626161 
L 148.948752 59.615516 
L 149.565973 60.115807 
L 150.800416 59.333437 
L 151.417637 59.33876 
L 152.034858 59.642127 
L 152.652079 58.907658 
L 153.269301 59.152481 
L 153.886522 58.944914 
L 155.738186 59.088614 
L 156.355407 58.859758 
L 156.972628 59.466493 
L 157.58985 59.147159 
L 158.207071 58.694769 
L 158.824292 58.76928 
L 159.441514 58.577679 
L 160.058735 59.179092 
L 160.675956 58.758636 
L 161.293178 58.747991 
L 161.910399 59.115226 
L 162.52762 58.577679 
L 163.144841 58.790569 
L 163.762063 58.646868 
L 164.379284 58.726702 
L 164.996505 58.407368 
L 165.613727 58.737347 
L 166.848169 58.242378 
L 167.46539 58.694769 
L 168.082612 58.380756 
L 168.699833 58.609613 
L 169.317054 58.322212 
L 169.934276 58.503168 
L 170.551497 58.423334 
L 171.168718 58.125289 
L 172.403161 58.31689 
L 173.020382 58.109322 
L 173.637603 58.36479 
L 174.254825 58.189156 
L 174.872046 58.449946 
L 175.489267 58.205123 
L 176.72371 58.668157 
L 177.958153 58.279634 
L 178.575374 58.407368 
L 179.192595 59.067325 
L 179.809816 58.072067 
L 180.427038 59.083292 
L 181.66148 58.31689 
L 182.278702 58.747991 
L 182.895923 58.194478 
L 183.513144 58.375434 
L 185.364808 58.205123 
L 186.599251 58.662835 
L 187.216472 58.732024 
L 187.833693 58.130611 
L 188.450915 58.354145 
L 189.685357 58.268989 
L 191.537021 58.465912 
L 192.771464 58.0082 
L 193.388685 58.1519 
L 196.474791 58.215767 
L 197.709234 58.668157 
L 198.326455 58.093356 
L 198.943677 58.125289 
L 199.560898 58.567035 
L 200.178119 58.104 
L 200.79534 59.333437 
L 201.412562 58.55639 
L 202.029783 58.050778 
L 202.647004 58.125289 
L 203.264226 57.970944 
L 203.881447 58.684124 
L 204.498668 58.1998 
L 205.115889 58.189156 
L 205.733111 57.997555 
L 206.967553 58.322212 
L 207.584775 57.981588 
L 208.819217 58.162545 
L 209.436439 57.981588 
L 210.05366 57.917722 
L 211.288102 58.295601 
L 211.905324 57.986911 
L 212.522545 58.370112 
L 213.139766 58.072067 
L 213.756988 58.923625 
L 214.374209 58.370112 
L 214.99143 58.343501 
L 215.608651 57.970944 
L 216.225873 57.864499 
L 216.843094 58.36479 
L 217.460315 58.529779 
L 218.077537 58.205123 
L 218.694758 58.268989 
L 219.311979 57.954977 
L 219.929201 58.029489 
L 220.546422 58.311567 
L 221.163643 57.992233 
L 221.780864 58.428657 
L 222.398086 58.513812 
L 223.015307 58.114644 
L 223.632528 58.072067 
L 224.24975 58.583002 
L 224.866971 58.050778 
L 226.101414 57.768699 
L 226.718635 58.215767 
L 227.335856 58.045455 
L 227.953077 58.2477 
L 228.570299 57.848532 
L 229.18752 58.354145 
L 229.804741 57.805955 
L 230.421963 58.306245 
L 231.039184 57.949655 
L 231.656405 58.205123 
L 232.890848 57.981588 
L 233.508069 58.311567 
L 234.12529 58.002877 
L 234.742512 58.300923 
L 235.359733 57.970944 
L 235.976954 58.332856 
L 236.594176 58.002877 
L 237.211397 58.061422 
L 237.828618 58.50849 
L 238.445839 58.082711 
L 240.297503 58.173189 
L 240.914725 58.018844 
L 241.531946 58.072067 
L 242.149167 57.949655 
L 242.766388 58.279634 
L 243.38361 57.976266 
L 244.618052 58.1998 
L 245.235274 58.215767 
L 245.852495 57.901755 
L 246.469716 57.986911 
L 247.086938 57.859177 
L 248.32138 58.231734 
L 248.938601 58.279634 
L 249.555823 58.002877 
L 250.173044 58.034811 
L 250.790265 58.221089 
L 251.407487 58.226412 
L 252.024708 58.391401 
L 252.641929 58.034811 
L 253.876372 58.210445 
L 255.110814 58.109322 
L 255.728036 58.183834 
L 256.345257 59.003459 
L 256.962478 58.439301 
L 257.5797 58.034811 
L 258.196921 58.274312 
L 258.814142 57.954977 
L 259.431363 58.295601 
L 260.048585 58.189156 
L 260.665806 57.875144 
L 261.283027 58.093356 
L 261.900249 57.954977 
L 262.51747 58.114644 
L 263.134691 58.093356 
L 264.986355 58.487201 
L 265.603576 58.109322 
L 266.220798 58.0561 
L 266.838019 58.210445 
L 267.45524 57.986911 
L 268.072462 58.088033 
L 268.689683 57.981588 
L 269.306904 58.284956 
L 269.924125 58.391401 
L 270.541347 58.348823 
L 271.158568 58.066744 
L 271.775789 58.018844 
L 272.393011 58.173189 
L 273.010232 59.120548 
L 273.627453 58.231734 
L 274.244675 57.976266 
L 275.479117 58.167867 
L 276.096338 57.853855 
L 276.71356 58.167867 
L 277.330781 58.0561 
L 278.565224 58.114644 
L 279.182445 58.31689 
L 279.799666 58.119967 
L 280.416887 58.268989 
L 281.65133 58.311567 
L 282.268551 58.104 
L 282.885773 58.567035 
L 283.502994 58.1998 
L 284.120215 58.077389 
L 285.354658 58.215767 
L 285.971879 58.758636 
L 286.5891 58.1519 
L 287.206322 60.573519 
L 287.823543 58.002877 
L 288.440764 58.0082 
L 289.057986 58.481879 
L 290.292428 58.221089 
L 290.909649 58.50849 
L 291.526871 58.284956 
L 292.144092 58.46059 
L 292.761313 58.284956 
L 293.378535 59.003459 
L 293.995756 58.290278 
L 294.612977 58.375434 
L 295.230199 58.119967 
L 295.84742 58.36479 
L 297.699084 58.481879 
L 298.316305 58.024166 
L 298.933526 58.130611 
L 299.550748 57.933688 
L 300.167969 59.040714 
L 300.78519 59.232315 
L 301.402411 58.471235 
L 302.019633 58.407368 
L 302.636854 58.167867 
L 303.254075 58.444623 
L 303.871297 58.338179 
L 304.488518 58.444623 
L 305.105739 58.785247 
L 305.722961 58.098678 
L 306.957403 58.1519 
L 307.574624 58.620257 
L 308.191846 58.167867 
L 308.809067 58.31689 
L 309.426288 58.1998 
L 310.660731 58.402045 
L 311.277952 58.205123 
L 312.512395 58.747991 
L 313.129616 58.343501 
L 313.746837 58.173189 
L 316.215723 58.67348 
L 316.832944 58.338179 
L 317.450165 58.2477 
L 318.067386 58.524457 
L 318.684608 58.423334 
L 319.301829 58.822502 
L 319.91905 58.529779 
L 320.536272 58.487201 
L 321.153493 58.237056 
L 321.770714 58.481879 
L 322.387936 58.284956 
L 323.005157 58.55639 
L 323.622378 58.428657 
L 326.091263 58.428657 
L 326.708485 58.76928 
L 327.942927 58.2477 
L 328.560148 58.274312 
L 329.17737 58.636224 
L 329.794591 58.551068 
L 330.411812 59.493105 
L 331.029034 58.375434 
L 331.646255 58.455268 
L 332.263476 58.300923 
L 333.497919 58.875725 
L 334.11514 58.545746 
L 334.732361 58.859758 
L 335.349583 58.492524 
L 335.966804 58.646868 
L 336.584025 58.433979 
L 337.201247 58.630902 
L 337.818468 58.50849 
L 339.670132 58.551068 
L 340.904574 58.785247 
L 341.521796 59.200381 
L 342.139017 58.545746 
L 343.37346 58.391401 
L 343.990681 58.492524 
L 344.607902 58.428657 
L 345.225123 58.742669 
L 345.842345 58.481879 
L 347.076787 58.497846 
L 348.31123 58.125289 
L 348.928451 58.519135 
L 349.545672 58.31689 
L 350.162894 58.258345 
L 350.780115 58.439301 
L 351.397336 58.439301 
L 352.014558 58.561713 
L 352.631779 58.338179 
L 353.249 58.646868 
L 353.866222 58.72138 
L 354.483443 58.513812 
L 355.100664 58.551068 
L 355.717885 58.785247 
L 356.335107 59.264248 
L 357.569549 58.971525 
L 358.186771 58.332856 
L 359.421213 58.487201 
L 360.038435 58.428657 
L 360.655656 58.561713 
L 362.50732 58.327534 
L 363.741762 58.359468 
L 364.358984 58.678802 
L 366.210647 58.604291 
L 366.827869 58.423334 
L 367.44509 58.497846 
L 368.062311 58.91298 
L 368.679533 58.55639 
L 369.913975 58.439301 
L 370.531197 58.732024 
L 371.148418 58.471235 
L 371.765639 58.598968 
L 373.000082 58.497846 
L 374.234524 59.328115 
L 374.851746 58.891692 
L 375.468967 58.86508 
L 376.086188 58.598968 
L 376.703409 58.689446 
L 377.320631 58.609613 
L 379.172295 58.902336 
L 380.406737 58.55639 
L 381.023959 58.72138 
L 381.64118 58.524457 
L 383.492844 58.790569 
L 384.110065 59.035392 
L 384.727286 58.614935 
L 385.344508 58.705413 
L 385.961729 58.567035 
L 387.196171 58.705413 
L 387.813393 59.104581 
L 388.430614 58.806536 
L 389.047835 58.801213 
L 389.665057 58.67348 
L 391.516721 58.934269 
L 392.133942 58.657513 
L 393.368384 58.428657 
L 393.985606 58.76928 
L 394.602827 58.551068 
L 395.220048 58.652191 
L 395.83727 58.598968 
L 396.454491 58.678802 
L 397.688933 59.093937 
L 398.306155 58.753313 
L 398.923376 58.86508 
L 399.540597 58.567035 
L 400.157819 58.487201 
L 401.392261 58.881047 
L 402.009483 58.604291 
L 402.626704 59.136515 
L 403.243925 58.737347 
L 403.861146 58.801213 
L 404.478368 58.705413 
L 405.095589 59.035392 
L 405.71281 58.678802 
L 407.564474 58.700091 
L 408.181696 58.572357 
L 408.798917 58.902336 
L 409.416138 58.614935 
L 410.033359 58.636224 
L 410.650581 58.849114 
L 411.267802 58.758636 
L 411.885023 58.875725 
L 412.502245 58.811858 
L 413.119466 59.120548 
L 413.736687 59.152481 
L 414.353908 58.795891 
L 414.97113 58.657513 
L 415.588351 58.843791 
L 416.822794 58.593646 
L 417.440015 58.833147 
L 419.291679 58.668157 
L 419.9089 58.950236 
L 420.526121 58.806536 
L 421.143343 58.955558 
L 422.377785 58.726702 
L 422.995007 58.668157 
L 423.612228 58.987492 
L 424.229449 58.583002 
L 424.84667 58.870403 
L 425.463892 58.987492 
L 426.081113 58.716058 
L 426.698334 58.849114 
L 427.315556 58.710735 
L 427.932777 58.870403 
L 427.932777 58.870403 
" style="fill:none;stroke:#1f77b4;stroke-linecap:square;stroke-width:1.5;"/>
   </g>
   <g id="line2d_32">
    <path clip-path="url(#p6f75894ec2)" d="M 58.217398 175.33698 
L 58.834797 142.099592 
L 59.452195 125.105679 
L 60.069594 113.673508 
L 60.686992 106.440584 
L 61.304391 101.043832 
L 61.921789 96.626373 
L 63.156586 90.543053 
L 65.62618 82.485181 
L 66.860977 79.898573 
L 68.095774 78.179489 
L 69.330571 76.141071 
L 70.565368 74.198454 
L 71.182767 73.92702 
L 71.800165 73.102072 
L 72.417564 72.958372 
L 73.652361 71.494756 
L 77.356752 69.36586 
L 79.208947 68.620746 
L 81.678541 67.77451 
L 82.29594 67.348731 
L 82.913338 67.306153 
L 84.148135 66.80054 
L 84.765534 66.731351 
L 85.382932 66.188483 
L 86.000331 66.08736 
L 86.617729 66.204449 
L 88.469925 65.320957 
L 90.939519 64.895178 
L 94.026511 64.134098 
L 94.64391 64.432143 
L 95.261308 64.123453 
L 97.730902 63.649774 
L 98.348301 63.745574 
L 99.583098 63.484785 
L 101.435293 63.506074 
L 102.052692 63.250606 
L 103.287489 63.085617 
L 103.904887 63.138839 
L 105.139684 62.867405 
L 105.757083 62.771604 
L 106.374481 62.867405 
L 106.99188 62.729027 
L 107.609278 62.744993 
L 108.226677 62.40437 
L 110.078872 62.40437 
L 110.696271 62.069069 
L 111.313669 62.351148 
L 111.931068 62.30857 
L 113.165865 61.850857 
L 113.783263 61.920046 
L 114.400662 61.685868 
L 115.01806 62.085036 
L 115.635459 61.69119 
L 117.487654 61.472978 
L 118.105053 61.669901 
L 118.722451 61.419756 
L 120.574647 61.622001 
L 121.192045 61.494267 
L 121.809444 61.158966 
L 122.426842 61.419756 
L 123.044241 61.212188 
L 124.279038 61.2867 
L 126.748632 60.924787 
L 127.983429 61.015265 
L 129.218226 60.818342 
L 129.835624 60.892854 
L 130.453023 60.818342 
L 131.070421 60.887532 
L 132.305218 60.541586 
L 133.540015 60.701253 
L 139.096602 60.371274 
L 139.714 60.509652 
L 140.331399 60.126451 
L 142.800993 59.993395 
L 143.418391 59.961462 
L 144.03579 60.131773 
L 144.653188 59.998717 
L 145.270587 60.174351 
L 145.887985 59.972106 
L 146.505384 60.057262 
L 147.740181 59.876306 
L 150.827173 59.748572 
L 155.766361 59.509071 
L 156.38376 59.43456 
L 158.235955 59.57826 
L 159.470752 59.535683 
L 160.088151 59.588905 
L 160.705549 59.391982 
L 161.322948 59.43456 
L 161.940346 59.296182 
L 163.175143 59.43456 
L 165.644737 59.296182 
L 166.262136 59.360049 
L 168.73173 59.099259 
L 169.966527 59.242959 
L 171.818722 59.019425 
L 172.436121 59.226993 
L 173.670918 58.886369 
L 174.288316 59.03007 
L 177.375309 58.91298 
L 177.992707 59.051359 
L 178.610106 58.907658 
L 179.227504 59.046036 
L 179.844903 59.014103 
L 180.462301 58.795891 
L 181.0797 58.91298 
L 181.697098 58.843791 
L 182.314497 58.950236 
L 182.931895 58.822502 
L 184.166692 58.870403 
L 184.784091 58.641546 
L 185.401489 58.811858 
L 186.018888 58.705413 
L 186.636286 58.833147 
L 187.871083 58.668157 
L 190.958076 58.785247 
L 191.575474 58.55639 
L 194.662467 58.583002 
L 195.279865 58.604291 
L 197.132061 58.226412 
L 197.749459 58.423334 
L 198.366858 58.46059 
L 198.984256 58.338179 
L 199.601655 58.497846 
L 200.836452 58.524457 
L 201.45385 58.370112 
L 202.071249 58.529779 
L 202.688647 58.439301 
L 203.306046 58.503168 
L 203.923444 58.449946 
L 204.540843 58.529779 
L 205.158241 58.2477 
L 205.77564 58.46059 
L 207.627835 58.2477 
L 208.245234 58.439301 
L 208.862632 58.300923 
L 213.184422 58.210445 
L 213.80182 58.423334 
L 214.419219 58.295601 
L 215.036617 58.354145 
L 215.654016 58.274312 
L 216.271414 58.343501 
L 217.506211 58.242378 
L 218.12361 58.348823 
L 219.358407 58.194478 
L 219.975805 58.343501 
L 221.828001 58.237056 
L 222.445399 57.992233 
L 223.062798 58.162545 
L 225.532392 58.167867 
L 228.001986 58.093356 
L 228.619384 58.2477 
L 229.854181 58.125289 
L 230.47158 58.141256 
L 231.088978 58.002877 
L 231.706377 58.125289 
L 232.323775 58.130611 
L 232.941174 57.912399 
L 234.175971 58.093356 
L 236.028166 57.928366 
L 237.262963 58.072067 
L 237.880362 57.939011 
L 239.115159 58.119967 
L 239.732557 57.9603 
L 241.584753 58.013522 
L 242.202151 57.821921 
L 242.81955 57.992233 
L 245.906542 58.013522 
L 246.523941 57.774021 
L 247.141339 57.875144 
L 247.758738 57.832566 
L 248.376136 57.939011 
L 250.228332 57.811277 
L 252.080527 57.912399 
L 252.697926 57.768699 
L 253.932723 57.912399 
L 254.550121 57.832566 
L 255.16752 57.954977 
L 255.784918 57.853855 
L 256.402317 57.965622 
L 258.254512 57.784666 
L 262.576302 57.896433 
L 263.811099 57.880466 
L 266.280693 57.805955 
L 266.898091 57.742088 
L 267.51549 57.928366 
L 268.132888 57.949655 
L 268.750287 57.800632 
L 270.602482 57.789988 
L 271.219881 57.896433 
L 271.837279 57.736765 
L 272.454678 57.84321 
L 273.072076 57.827244 
L 273.689475 57.609032 
L 276.159069 57.816599 
L 278.011264 57.662254 
L 278.628663 57.821921 
L 281.715655 57.742088 
L 282.333054 57.832566 
L 282.950452 57.635643 
L 284.185249 57.736765 
L 284.802648 57.624998 
L 285.420046 57.726121 
L 286.654843 57.635643 
L 287.272242 57.805955 
L 289.124437 57.720799 
L 289.741836 57.736765 
L 290.359234 57.614354 
L 293.446227 57.694188 
L 295.298422 57.704832 
L 295.915821 57.587743 
L 301.472407 57.784666 
L 302.707204 57.624998 
L 303.324603 57.577098 
L 303.942001 57.896433 
L 304.5594 57.763377 
L 305.176798 57.811277 
L 305.794197 57.678221 
L 308.263791 57.720799 
L 308.881189 57.768699 
L 309.498588 57.614354 
L 311.350783 57.662254 
L 311.968182 57.758054 
L 313.820377 57.619676 
L 314.437776 57.736765 
L 315.055174 57.58242 
L 315.672573 57.763377 
L 316.90737 57.640965 
L 318.142167 57.720799 
L 319.376964 57.587743 
L 319.994362 57.694188 
L 321.229159 57.688865 
L 321.846558 57.763377 
L 323.081355 57.672899 
L 324.316152 57.598387 
L 324.93355 57.545165 
L 325.550949 57.646287 
L 326.168347 57.502587 
L 326.785746 57.640965 
L 330.490137 57.614354 
L 331.107535 57.683543 
L 331.724934 57.577098 
L 332.342332 57.619676 
L 332.959731 57.529198 
L 334.194528 57.640965 
L 336.046723 57.491942 
L 336.664122 57.710154 
L 337.898919 57.561132 
L 338.516317 57.656932 
L 339.751114 57.53452 
L 343.455505 57.678221 
L 344.072904 57.497265 
L 344.690302 57.614354 
L 345.307701 57.58242 
L 345.925099 57.720799 
L 346.542498 57.571776 
L 347.159896 57.566454 
L 347.777295 57.694188 
L 348.394693 57.460009 
L 349.62949 57.401464 
L 350.246889 57.640965 
L 350.864287 57.444042 
L 351.481686 57.577098 
L 352.099084 57.465331 
L 352.716483 57.539843 
L 353.95128 57.422753 
L 355.186077 57.609032 
L 358.273069 57.609032 
L 358.890468 57.603709 
L 359.507866 57.48662 
L 361.360062 57.598387 
L 361.97746 57.502587 
L 362.594859 57.646287 
L 365.681851 57.444042 
L 366.916648 57.683543 
L 368.768844 57.475976 
L 369.386242 57.603709 
L 370.003641 57.454687 
L 371.238438 57.624998 
L 373.708032 57.470653 
L 374.32543 57.587743 
L 376.795024 57.481298 
L 379.882017 57.502587 
L 381.116814 57.539843 
L 382.969009 57.449364 
L 383.586408 57.609032 
L 384.203806 57.412109 
L 386.056002 57.561132 
L 386.6734 57.433398 
L 387.290799 57.662254 
L 389.760393 57.507909 
L 390.377791 57.593065 
L 390.99519 57.53452 
L 391.612588 57.358886 
L 392.229987 57.561132 
L 395.934378 57.48662 
L 396.551776 57.593065 
L 399.638769 57.523876 
L 400.256167 57.566454 
L 400.873566 57.412109 
L 401.490964 57.577098 
L 403.34316 57.401464 
L 403.960558 57.529198 
L 405.812754 57.470653 
L 406.430152 57.630321 
L 407.664949 57.593065 
L 409.517145 57.481298 
L 410.134543 57.422753 
L 410.751942 57.53452 
L 412.604137 57.529198 
L 414.456333 57.545165 
L 415.073731 57.428076 
L 415.69113 57.566454 
L 416.308528 57.481298 
L 416.925927 57.619676 
L 420.012919 57.428076 
L 420.630318 57.598387 
L 421.247716 57.454687 
L 421.865115 57.587743 
L 422.482513 57.491942 
L 423.71731 57.491942 
L 424.952107 57.428076 
L 425.569506 57.656932 
L 426.186904 57.481298 
L 426.804303 57.571776 
L 427.421701 57.417431 
L 428.0391 57.598387 
L 428.0391 57.598387 
" style="fill:none;stroke:#ff7f0e;stroke-linecap:square;stroke-width:1.5;"/>
   </g>
   <g id="line2d_33">
    <path clip-path="url(#p6f75894ec2)" d="M 58.219006 247.985556 
L 58.838012 231.970936 
L 59.457018 219.681884 
L 60.695031 202.028014 
L 61.314037 195.15168 
L 62.552049 183.192607 
L 63.790061 171.478356 
L 65.028073 161.238367 
L 66.885092 151.062244 
L 68.123104 146.01676 
L 69.980122 138.916892 
L 71.837141 133.488207 
L 74.313165 127.069586 
L 78.646208 118.197412 
L 79.265214 117.420365 
L 80.503226 115.046646 
L 81.122232 114.317499 
L 81.741239 113.162573 
L 84.836269 109.309271 
L 85.455275 108.830269 
L 89.788318 103.901875 
L 90.407324 103.417551 
L 91.645336 102.134892 
L 99.07341 97.414065 
L 99.692416 97.147953 
L 100.930428 96.370906 
L 102.787447 95.386291 
L 103.406453 95.125501 
L 104.644465 94.210076 
L 105.263471 94.007831 
L 105.882477 93.67253 
L 107.120489 93.241428 
L 108.358502 92.490993 
L 108.977508 92.113114 
L 109.596514 92.043924 
L 110.834526 91.336067 
L 112.691544 90.574986 
L 113.310551 90.39403 
L 113.929557 90.042762 
L 114.548563 89.936317 
L 115.786575 89.297649 
L 116.405581 89.127337 
L 117.643593 88.499313 
L 118.262599 88.435446 
L 121.35763 87.413576 
L 121.976636 87.051663 
L 122.595642 87.056986 
L 123.214648 86.844096 
L 123.833655 86.343805 
L 124.452661 86.349128 
L 125.071667 86.019149 
L 125.690673 85.90206 
L 126.309679 85.502892 
L 128.166697 84.944056 
L 129.40471 84.496988 
L 130.642722 84.076531 
L 131.261728 83.783808 
L 132.49974 83.501729 
L 133.118746 83.161106 
L 133.737752 83.145139 
L 134.356759 82.777905 
L 135.594771 82.666138 
L 137.451789 82.144558 
L 138.689801 81.947635 
L 139.927814 81.692168 
L 141.165826 81.489923 
L 141.784832 81.261066 
L 143.022844 81.042854 
L 144.879863 80.446764 
L 145.498869 80.350963 
L 146.117875 80.100818 
L 147.355887 79.919862 
L 147.974893 79.706972 
L 149.212905 79.616494 
L 149.831911 79.39296 
L 150.450918 79.376993 
L 155.402967 78.238034 
L 160.355015 77.418409 
L 163.450046 77.189553 
L 164.688058 76.981985 
L 165.92607 76.902152 
L 166.545077 76.673295 
L 168.402095 76.51895 
L 170.878119 76.103816 
L 174.592156 75.624814 
L 183.877248 74.533755 
L 184.496254 74.374088 
L 185.734266 74.374088 
L 186.353272 74.081364 
L 186.972278 74.177165 
L 187.591285 73.953631 
L 197.495382 72.78806 
L 198.114389 72.660326 
L 198.733395 72.724193 
L 201.209419 72.426148 
L 201.828425 72.463404 
L 203.066438 72.319703 
L 206.780474 72.07488 
L 208.018486 71.856668 
L 209.875505 71.62249 
L 210.494511 71.452178 
L 212.970535 71.186066 
L 214.208548 70.989143 
L 217.922584 70.69642 
L 220.398609 70.43563 
L 221.636621 70.403697 
L 222.874633 70.302574 
L 224.112646 70.201452 
L 224.731652 70.297252 
L 225.350658 70.190807 
L 225.969664 70.238707 
L 230.921713 69.786317 
L 234.016743 69.679872 
L 237.111774 69.530849 
L 246.396866 69.216837 
L 247.015872 69.094426 
L 248.87289 69.083781 
L 250.110902 68.998625 
L 251.348915 69.083781 
L 253.205933 68.940081 
L 254.443945 68.807025 
L 255.681957 68.849603 
L 256.300964 68.711224 
L 258.157982 68.684613 
L 269.919098 68.136422 
L 271.15711 68.019333 
L 274.252141 67.907566 
L 275.490153 67.849021 
L 284.775245 67.492431 
L 286.013257 67.529687 
L 287.251269 67.385987 
L 289.727294 67.332764 
L 290.965306 67.343409 
L 291.584312 67.396631 
L 292.203318 67.252931 
L 292.822325 67.311475 
L 294.060337 67.231642 
L 294.679343 67.27422 
L 295.298349 67.151808 
L 296.536361 67.258253 
L 297.155367 67.082619 
L 297.774373 67.130519 
L 299.631392 66.981496 
L 302.107416 66.981496 
L 304.583441 66.837796 
L 305.202447 66.917629 
L 306.440459 66.864407 
L 309.53549 66.741996 
L 310.154496 66.832474 
L 313.249526 66.630228 
L 313.868532 66.694095 
L 316.963563 66.465239 
L 318.201575 66.481206 
L 319.439588 66.438628 
L 320.058594 66.475884 
L 320.6776 66.353472 
L 321.915612 66.385405 
L 325.010643 66.241705 
L 326.867661 66.172516 
L 327.486667 66.108649 
L 328.105673 66.193805 
L 329.962692 66.076716 
L 331.200704 66.060749 
L 339.247783 65.938337 
L 339.866789 65.768026 
L 341.104802 65.837215 
L 344.818838 65.640292 
L 346.056851 65.640292 
L 379.483181 64.687611 
L 380.721193 64.655677 
L 383.197218 64.6131 
L 383.816224 64.511977 
L 385.673242 64.554555 
L 387.53026 64.527944 
L 388.149267 64.44811 
L 389.387279 64.469399 
L 390.625291 64.346988 
L 391.244297 64.416177 
L 392.482309 64.362954 
L 394.339328 64.325699 
L 404.243426 64.064909 
L 406.100444 64.054264 
L 407.338456 64.006364 
L 407.957462 64.075553 
L 409.814481 63.942497 
L 411.052493 64.022331 
L 412.290505 63.953142 
L 414.147523 63.87863 
L 414.76653 63.937175 
L 416.004542 63.862664 
L 429.00367 63.665741 
L 429.00367 63.665741 
" style="fill:none;stroke:#2ca02c;stroke-linecap:square;stroke-width:1.5;"/>
   </g>
   <g id="line2d_34">
    <path clip-path="url(#p6f75894ec2)" d="M 58.215243 271.307612 
L 58.830486 267.172232 
L 61.291457 254.4095 
L 61.9067 252.120937 
L 66.828642 239.15596 
L 68.059128 235.627315 
L 69.904857 231.374845 
L 72.981071 224.642212 
L 73.596314 223.370196 
L 74.211556 222.454771 
L 74.826799 221.129533 
L 76.057285 219.527539 
L 77.287771 217.659433 
L 77.903013 216.818519 
L 79.748742 213.843387 
L 82.824956 209.601562 
L 84.055442 207.573788 
L 85.285927 206.174039 
L 87.131656 203.779031 
L 87.746899 202.597494 
L 92.053599 197.615877 
L 92.668841 197.115587 
L 93.284084 196.311928 
L 93.899327 195.832927 
L 95.129813 194.560911 
L 95.745055 194.17771 
L 97.590784 192.352182 
L 98.206027 191.692224 
L 98.82127 191.245156 
L 101.282241 188.844826 
L 101.897484 188.312602 
L 103.127969 186.827697 
L 103.743212 186.178383 
L 104.358455 185.720671 
L 106.204184 183.682253 
L 108.665155 180.882755 
L 109.895641 179.930074 
L 111.126126 178.551613 
L 112.356612 177.433943 
L 113.587098 176.257728 
L 120.970012 169.620895 
L 122.200497 168.434035 
L 123.430983 167.092831 
L 124.661469 166.204017 
L 125.276711 165.799526 
L 126.507197 164.341233 
L 127.737683 163.244851 
L 129.583411 162.036703 
L 130.198654 161.48319 
L 132.659625 160.227141 
L 134.505354 159.173338 
L 135.120597 159.045604 
L 135.735839 158.77417 
L 136.351082 158.337746 
L 136.966325 158.151468 
L 138.196811 157.459576 
L 139.427296 156.682529 
L 140.657782 156.123694 
L 141.888268 155.68727 
L 143.733996 154.351388 
L 146.194968 152.877128 
L 146.81021 152.600371 
L 148.040696 151.818002 
L 148.655939 151.493345 
L 149.271182 151.019666 
L 149.886425 150.700332 
L 151.732153 150.216008 
L 153.577882 149.407027 
L 154.808367 148.592724 
L 155.42361 148.496924 
L 156.038853 148.27339 
L 157.269339 148.0605 
L 159.115067 146.94283 
L 160.345553 146.580918 
L 160.960796 146.139172 
L 162.191281 145.61227 
L 162.806524 145.56437 
L 164.652253 144.797967 
L 165.882738 144.4467 
L 166.497981 144.127365 
L 167.113224 143.951731 
L 167.728467 143.648364 
L 168.34371 143.47273 
L 168.958952 143.110817 
L 169.574195 142.919217 
L 173.265652 141.178844 
L 173.880895 140.960632 
L 174.496138 140.912732 
L 177.572352 140.034563 
L 182.494295 138.054689 
L 184.340023 137.660844 
L 185.570509 137.235064 
L 189.261966 136.324961 
L 189.877209 136.010949 
L 191.722937 135.659681 
L 192.33818 135.436147 
L 193.568666 135.170035 
L 198.490608 133.786253 
L 199.105851 133.504174 
L 200.95158 133.323218 
L 201.566822 133.089039 
L 202.797308 132.950661 
L 204.643037 132.30667 
L 205.258279 132.024591 
L 205.873522 131.604134 
L 208.334493 130.598231 
L 212.641193 130.007462 
L 218.793622 128.36289 
L 220.024107 128.080812 
L 227.407021 126.037071 
L 228.022264 126.01046 
L 229.25275 125.754993 
L 231.098478 125.531459 
L 231.713721 125.307924 
L 236.635664 124.451044 
L 244.018578 122.77986 
L 246.479549 122.130547 
L 248.325277 121.805891 
L 250.786249 121.156577 
L 253.862463 120.597742 
L 254.477706 120.555164 
L 258.169163 119.66635 
L 259.399648 119.575872 
L 263.706348 118.532713 
L 268.628291 117.936622 
L 271.089262 117.441654 
L 272.934991 117.345853 
L 284.009362 115.509681 
L 285.85509 115.424525 
L 287.700819 115.030679 
L 288.316061 114.950845 
L 288.931304 114.737956 
L 290.16179 114.503777 
L 290.777033 114.312177 
L 295.083733 113.779953 
L 296.314218 113.551096 
L 297.544704 113.487229 
L 299.390432 113.125317 
L 300.005675 112.896461 
L 304.312375 112.295048 
L 306.158104 112.156669 
L 310.464803 111.746857 
L 312.310532 111.480745 
L 317.232475 110.905943 
L 320.308689 110.384364 
L 325.230631 109.868106 
L 333.228788 108.830269 
L 335.689759 108.659958 
L 337.535488 108.377879 
L 342.457431 107.824366 
L 343.687916 107.776466 
L 344.918402 107.590188 
L 346.148888 107.425198 
L 349.225102 107.164408 
L 351.07083 106.802496 
L 353.531802 106.664118 
L 357.223258 106.195761 
L 371.373844 104.678922 
L 372.604329 104.583122 
L 375.680543 104.024287 
L 376.911029 103.843331 
L 387.9854 102.640504 
L 389.215886 102.448904 
L 390.446371 102.411648 
L 395.368314 102.204081 
L 397.214042 101.996513 
L 405.212199 101.405745 
L 408.903656 101.224788 
L 414.440842 100.974643 
L 421.208513 100.543542 
L 423.669484 100.479675 
L 426.745698 100.442419 
L 426.745698 100.442419 
" style="fill:none;stroke:#d62728;stroke-linecap:square;stroke-width:1.5;"/>
   </g>
   <g id="line2d_35">
    <path clip-path="url(#p6f75894ec2)" d="M 58.215645 282.143693 
L 58.831291 282.143693 
L 59.446936 281.265523 
L 60.062582 279.477251 
L 60.678227 275.916672 
L 61.293873 273.65472 
L 61.909518 272.936218 
L 62.525164 271.414057 
L 63.140809 271.105367 
L 63.756454 271.20649 
L 64.3721 270.940378 
L 64.987745 270.008986 
L 65.603391 269.396928 
L 66.219036 268.412314 
L 69.297263 267.507533 
L 69.912909 267.055142 
L 73.606781 265.485082 
L 75.453718 264.234355 
L 76.069363 263.861798 
L 76.685009 263.861798 
L 77.300654 263.67552 
L 78.531945 262.706872 
L 81.610172 260.322509 
L 82.225818 260.056397 
L 82.841463 259.912696 
L 85.304045 258.550203 
L 85.91969 258.438436 
L 86.535336 258.033946 
L 87.150981 257.767834 
L 87.766626 257.304799 
L 90.229208 256.330829 
L 92.69179 255.186547 
L 93.307435 254.941724 
L 93.923081 254.57449 
L 95.154372 254.14871 
L 95.770017 253.79212 
L 96.385663 253.637775 
L 97.001308 253.350374 
L 97.616953 252.892662 
L 98.232599 252.844762 
L 98.848244 252.552038 
L 99.46389 252.498816 
L 100.695181 252.030459 
L 101.310826 252.062392 
L 103.773408 251.519524 
L 105.004699 251.1789 
L 105.620344 250.912788 
L 106.23599 250.795699 
L 106.851635 250.534909 
L 108.082926 250.375242 
L 108.698571 250.135741 
L 109.314217 250.023974 
L 109.929862 249.693996 
L 110.545508 249.544973 
L 111.161153 249.199027 
L 111.776799 249.012749 
L 112.392444 249.012749 
L 113.008089 248.853082 
L 113.623735 248.544392 
L 114.23938 248.528425 
L 117.933253 247.362854 
L 118.548898 247.40011 
L 121.627126 246.569841 
L 122.242771 246.548552 
L 123.474062 246.186639 
L 127.167935 245.367014 
L 127.78358 245.228636 
L 128.399225 245.212669 
L 129.630516 244.728346 
L 130.246162 244.472878 
L 131.477453 244.313211 
L 132.093098 244.063066 
L 133.940034 243.663898 
L 134.55568 243.530842 
L 135.171325 243.190218 
L 137.633907 242.822984 
L 138.249552 242.508972 
L 140.712134 241.880947 
L 141.943425 241.641446 
L 143.790361 241.194378 
L 144.406007 240.800532 
L 145.637298 240.412009 
L 146.252943 240.156541 
L 148.099879 239.752051 
L 148.715525 239.565773 
L 149.33117 239.241116 
L 149.946816 239.139994 
L 150.562461 238.911137 
L 151.178107 238.836626 
L 156.10327 237.245276 
L 156.718916 236.925942 
L 161.644079 235.82956 
L 162.259725 235.568771 
L 162.87537 235.552804 
L 164.722306 235.148314 
L 165.337952 235.148314 
L 165.953597 234.871557 
L 167.800533 234.493678 
L 170.878761 233.69002 
L 171.494406 233.349396 
L 173.341342 233.019418 
L 177.035215 232.343493 
L 178.882151 231.758047 
L 180.113442 231.582413 
L 181.960379 231.050189 
L 183.191669 230.86391 
L 183.807315 230.629732 
L 184.42296 230.597798 
L 186.269897 230.145408 
L 186.885542 229.852685 
L 189.963769 229.192727 
L 190.579415 229.107571 
L 191.19506 228.782915 
L 193.657642 228.303913 
L 196.735869 227.8462 
L 199.198451 227.250109 
L 201.045387 226.850941 
L 202.276678 226.691274 
L 203.507969 226.403873 
L 204.123614 226.340006 
L 205.354905 225.96745 
L 205.970551 225.882294 
L 206.586196 225.914227 
L 208.433132 225.387325 
L 209.664423 225.142502 
L 210.280069 224.844457 
L 212.127005 224.514478 
L 212.74265 224.317555 
L 214.589587 224.062088 
L 217.052169 223.439386 
L 218.283459 223.226496 
L 220.130396 223.120051 
L 221.977332 222.731528 
L 223.208623 222.545249 
L 224.439914 222.353649 
L 231.827659 220.820844 
L 232.443305 220.83681 
L 234.905886 220.43232 
L 236.752823 220.331197 
L 237.368468 220.182175 
L 237.984113 220.198141 
L 239.215404 220.006541 
L 240.446695 219.825585 
L 241.062341 219.67124 
L 242.293632 219.612695 
L 247.83444 218.713236 
L 248.450086 218.617436 
L 249.065731 218.372613 
L 250.912668 218.186335 
L 252.143959 217.909578 
L 254.60654 217.654111 
L 258.916058 216.823841 
L 260.147349 216.839808 
L 262.609931 216.600307 
L 263.225576 216.573696 
L 265.072513 216.094694 
L 269.997676 215.360225 
L 271.844613 214.977024 
L 274.92284 214.524634 
L 276.154131 214.317066 
L 279.232358 213.848709 
L 284.157521 213.130207 
L 285.388812 213.087629 
L 286.620103 212.869417 
L 287.235749 212.720394 
L 288.467039 212.629916 
L 290.313976 212.310582 
L 293.392203 211.890125 
L 294.623494 211.650624 
L 297.701721 211.33129 
L 298.933012 211.251456 
L 300.164303 210.958733 
L 313.708502 209.048049 
L 314.939793 208.899026 
L 319.249311 207.861189 
L 324.79012 207.238487 
L 325.405766 207.137364 
L 326.637057 207.12672 
L 327.868347 206.961731 
L 329.715284 206.653041 
L 330.946575 206.541274 
L 334.024802 206.232584 
L 334.640447 206.062272 
L 336.487384 205.870671 
L 341.412547 205.168136 
L 343.875129 204.742356 
L 352.494165 203.805642 
L 353.725456 203.608719 
L 355.572392 203.422441 
L 357.419329 202.948762 
L 360.497556 202.379282 
L 361.728847 202.203648 
L 366.038365 201.724646 
L 366.65401 201.564979 
L 367.269656 201.54369 
L 367.885301 201.35209 
L 369.732237 201.336123 
L 370.963528 201.245645 
L 372.194819 201.165811 
L 373.42611 200.958244 
L 374.041755 200.974211 
L 375.273046 200.724065 
L 377.119983 200.644232 
L 377.735628 200.372797 
L 380.813855 199.840573 
L 382.045146 199.702195 
L 384.507728 199.622362 
L 387.585955 199.196582 
L 388.817246 199.010304 
L 389.432891 199.010304 
L 390.664182 198.83467 
L 391.895473 198.802737 
L 395.589346 198.435502 
L 397.436282 198.132134 
L 399.283218 198.015045 
L 400.514509 197.786189 
L 401.130155 197.786189 
L 402.977091 197.520077 
L 407.902254 197.232676 
L 408.5179 197.14752 
L 409.133545 196.923986 
L 410.364836 196.822863 
L 412.211773 196.668518 
L 413.443063 196.455629 
L 414.674354 196.359828 
L 417.752581 196.083072 
L 419.599518 195.923405 
L 421.446454 195.742449 
L 423.909036 195.369892 
L 424.524681 195.36457 
L 425.755972 195.19958 
L 426.987263 195.05588 
L 426.987263 195.05588 
" style="fill:none;stroke:#9467bd;stroke-linecap:square;stroke-width:1.5;"/>
   </g>
   <g id="line2d_36">
    <path clip-path="url(#p6f75894ec2)" d="M 64.646582 67.32212 
L 71.693163 63.809441 
L 78.739745 63.894597 
L 85.786327 62.622582 
L 92.832909 62.180836 
L 99.87949 62.718382 
L 106.926072 64.394888 
L 113.972654 61.728445 
L 121.019235 61.542167 
L 128.065817 63.740252 
L 135.112399 61.116388 
L 142.158981 64.070231 
L 149.205562 60.898176 
L 156.252144 61.153644 
L 163.298726 61.265411 
L 170.345307 62.372436 
L 177.391889 61.792312 
L 184.438471 62.164869 
L 191.485053 63.963786 
L 198.531634 61.079132 
L 205.578216 61.600712 
L 212.624798 62.005202 
L 219.671379 62.415014 
L 226.717961 62.372436 
L 233.764543 62.654515 
L 240.811125 59.940173 
L 247.857706 61.132355 
L 254.904288 61.457011 
L 261.95087 62.462915 
L 268.997451 60.413852 
L 276.044033 62.111647 
L 283.090615 61.355889 
L 290.137197 63.239962 
L 297.183778 61.212188 
L 304.23036 64.144742 
L 311.276942 62.542748 
L 318.323523 61.733768 
L 325.370105 63.52204 
L 332.416687 62.643871 
L 339.463269 61.105743 
L 346.50985 62.292603 
L 353.556432 61.64329 
L 360.603014 63.458173 
L 367.649595 64.128776 
L 374.696177 61.622001 
L 381.742759 60.169029 
L 388.78934 61.568778 
L 395.835922 63.94782 
L 402.882504 64.655677 
L 409.929086 66.172516 
L 416.975667 60.600131 
L 424.022249 61.403789 
L 431.068831 60.238218 
L 438.115412 61.3825 
L 445.161994 65.693514 
L 452.208576 60.871565 
L 459.255158 61.824246 
L 461.8 62.216355 
" style="fill:none;stroke:#8c564b;stroke-dasharray:5.55,2.4;stroke-dashoffset:0;stroke-width:1.5;"/>
   </g>
   <g id="line2d_37">
    <path clip-path="url(#p6f75894ec2)" d="M 61.551287 71.154132 
L 65.502574 65.629647 
L 69.453861 62.840794 
L 73.405148 61.664579 
L 77.356435 60.509652 
L 81.307722 59.945495 
L 85.259009 61.355889 
L 89.210296 58.992814 
L 93.161583 58.886369 
L 97.112869 60.137096 
L 101.064156 58.753313 
L 105.015443 59.040714 
L 108.96673 58.242378 
L 112.918017 58.998136 
L 116.869304 58.822502 
L 120.820591 58.710735 
L 124.771878 58.178511 
L 128.723165 56.991652 
L 132.674452 58.2477 
L 136.625739 58.231734 
L 140.577026 58.183834 
L 144.528313 58.375434 
L 148.4796 58.114644 
L 152.430887 58.72138 
L 156.382174 58.481879 
L 160.333461 58.221089 
L 164.284748 57.188575 
L 168.236034 57.385498 
L 172.187321 57.742088 
L 176.138608 57.545165 
L 180.089895 57.491942 
L 184.041182 57.364209 
L 187.992469 58.55639 
L 191.943756 57.215186 
L 195.895043 57.444042 
L 199.84633 58.540424 
L 203.797617 57.976266 
L 207.748904 58.838469 
L 211.700191 57.9603 
L 215.651478 57.907077 
L 219.602765 57.89111 
L 223.554052 58.109322 
L 227.505339 57.316308 
L 231.456626 57.939011 
L 235.407913 58.396723 
L 239.359199 58.614935 
L 243.310486 58.646868 
L 247.261773 58.034811 
L 251.21306 57.837888 
L 255.164347 57.422753 
L 259.115634 57.593065 
L 263.066921 57.694188 
L 267.018208 58.061422 
L 270.969495 57.183252 
L 274.920782 57.460009 
L 278.872069 57.816599 
L 282.823356 57.43872 
L 286.774643 57.593065 
L 290.72593 57.630321 
L 294.677217 57.981588 
L 298.628504 58.162545 
L 302.579791 56.842629 
L 306.531078 57.502587 
L 310.482364 58.183834 
L 314.433651 56.853274 
L 318.384938 57.667576 
L 322.336225 57.444042 
L 326.287512 58.013522 
L 330.238799 58.62558 
L 334.190086 58.636224 
L 338.141373 57.800632 
L 342.09266 57.736765 
L 346.043947 57.326953 
L 349.995234 57.209864 
L 353.946521 57.715476 
L 357.897808 57.491942 
L 361.849095 57.779343 
L 365.800382 57.475976 
L 369.751669 57.79531 
L 373.702956 57.880466 
L 377.654243 58.141256 
L 381.605529 58.758636 
L 385.556816 57.193897 
L 389.508103 57.853855 
L 393.45939 57.284375 
L 397.410677 57.204541 
L 401.361964 57.720799 
L 405.313251 57.044874 
L 409.264538 57.518554 
L 413.215825 58.423334 
L 417.167112 58.992814 
L 421.118399 58.029489 
L 425.069686 57.529198 
L 429.020973 58.258345 
L 432.97226 57.566454 
L 436.923547 58.726702 
L 440.874834 57.396142 
L 444.826121 58.231734 
L 448.777408 57.571776 
L 452.728694 57.231153 
" style="fill:none;stroke:#e377c2;stroke-dasharray:5.55,2.4;stroke-dashoffset:0;stroke-width:1.5;"/>
   </g>
   <g id="line2d_38">
    <path clip-path="url(#p6f75894ec2)" d="M 60.285548 77.003274 
L 62.971097 70.084362 
L 65.656645 66.071393 
L 68.342194 64.118131 
L 71.027742 63.02175 
L 73.713291 61.685868 
L 76.398839 61.78699 
L 79.084388 60.334019 
L 81.769936 60.222252 
L 84.455485 60.126451 
L 87.141033 59.179092 
L 89.826581 59.594227 
L 92.51213 58.998136 
L 95.197678 58.428657 
L 97.883227 59.014103 
L 100.568775 58.700091 
L 103.254324 58.428657 
L 105.939872 58.492524 
L 108.625421 58.306245 
L 111.310969 58.050778 
L 113.996517 58.135933 
L 116.682066 58.444623 
L 119.367614 57.694188 
L 122.053163 58.268989 
L 124.738711 58.050778 
L 127.42426 57.609032 
L 130.109808 58.013522 
L 132.795357 57.422753 
L 135.480905 58.604291 
L 138.166454 57.901755 
L 140.852002 57.571776 
L 143.53755 57.683543 
L 146.223099 57.199219 
L 148.908647 57.726121 
L 151.594196 57.279053 
L 154.279744 57.555809 
L 156.965293 57.587743 
L 159.650841 57.358886 
L 162.33639 57.406787 
L 165.021938 57.470653 
L 167.707487 57.779343 
L 170.393035 57.29502 
L 173.078583 57.752732 
L 175.764132 57.571776 
L 178.44968 57.848532 
L 181.135229 57.704832 
L 183.820777 57.326953 
L 186.506326 58.141256 
L 189.191874 56.741507 
L 191.877423 57.279053 
L 194.562971 57.917722 
L 197.24852 57.167286 
L 199.934068 57.412109 
L 202.619616 57.002296 
L 205.305165 57.236475 
L 207.990713 57.406787 
L 210.676262 57.374853 
L 213.36181 57.326953 
L 216.047359 57.704832 
L 218.732907 57.406787 
L 221.418456 57.358886 
L 224.104004 57.140675 
L 226.789552 57.428076 
L 229.475101 57.603709 
L 232.160649 57.252442 
L 234.846198 57.869821 
L 237.531746 57.39082 
L 240.217295 57.683543 
L 242.902843 57.369531 
L 245.588392 57.321631 
L 248.27394 57.518554 
L 250.959489 58.194478 
L 253.645037 57.289697 
L 256.330585 57.252442 
L 259.016134 57.401464 
L 261.701682 57.550487 
L 264.387231 57.22583 
L 267.072779 57.69951 
L 269.758328 57.193897 
L 272.443876 57.098097 
L 275.129425 57.204541 
L 277.814973 57.135352 
L 280.500522 57.044874 
L 283.18607 57.161964 
L 285.871618 57.103419 
L 288.557167 57.396142 
L 291.242715 57.385498 
L 293.928264 57.08213 
L 296.613812 57.369531 
L 299.299361 57.545165 
L 301.984909 58.002877 
L 304.670458 57.587743 
L 307.356006 56.885207 
L 310.041554 57.513231 
L 312.727103 57.779343 
L 315.412651 57.774021 
L 318.0982 57.518554 
L 320.783748 56.91714 
L 323.469297 57.29502 
L 326.154845 57.252442 
" style="fill:none;stroke:#7f7f7f;stroke-dasharray:5.55,2.4;stroke-dashoffset:0;stroke-width:1.5;"/>
   </g>
   <g id="line2d_39">
    <path clip-path="url(#p6f75894ec2)" d="M 59.660169 86.162849 
L 61.720338 78.387057 
L 63.780507 73.682196 
L 65.840675 71.324444 
L 67.900844 68.854925 
L 69.961013 67.497754 
L 72.021182 66.028815 
L 74.081351 65.171935 
L 76.14152 64.123453 
L 78.201689 63.766863 
L 80.261858 63.16545 
L 82.322026 62.744993 
L 84.382195 61.824246 
L 86.442364 61.850857 
L 88.502533 61.483622 
L 90.562702 61.403789 
L 92.622871 60.546908 
L 94.68304 60.770442 
L 96.743208 60.222252 
L 98.803377 59.977428 
L 100.863546 59.397304 
L 102.923715 59.684705 
L 104.983884 59.567616 
L 107.044053 59.658094 
L 109.104222 58.934269 
L 111.164391 59.280215 
L 113.224559 59.093937 
L 115.284728 58.716058 
L 117.344897 59.115226 
L 119.405066 58.790569 
L 121.465235 58.636224 
L 123.525404 58.67348 
L 125.585573 58.455268 
L 127.645741 58.370112 
L 129.70591 58.370112 
L 131.766079 58.407368 
L 133.826248 58.295601 
L 135.886417 58.710735 
L 137.946586 58.332856 
L 140.006755 58.082711 
L 142.066924 58.439301 
L 144.127092 57.821921 
L 146.187261 57.928366 
L 148.24743 58.242378 
L 150.307599 57.758054 
L 152.367768 57.742088 
L 154.427937 58.2477 
L 156.488106 58.183834 
L 158.548274 57.79531 
L 160.608443 58.0082 
L 162.668612 57.965622 
L 164.728781 57.774021 
L 166.78895 57.763377 
L 168.849119 57.784666 
L 170.909288 57.997555 
L 172.969457 58.061422 
L 175.029625 57.89111 
L 177.089794 57.646287 
L 179.149963 57.630321 
L 181.210132 57.933688 
L 183.270301 57.688865 
L 185.33047 57.896433 
L 187.390639 57.9603 
L 189.450807 57.624998 
L 191.510976 57.768699 
L 193.571145 58.024166 
L 195.631314 57.89111 
L 197.691483 58.0082 
L 199.751652 57.853855 
L 201.811821 57.768699 
L 203.87199 57.609032 
L 205.932158 57.731443 
L 207.992327 57.859177 
L 210.052496 57.69951 
L 212.112665 57.84321 
L 214.172834 57.837888 
L 216.233003 57.412109 
L 218.293172 57.763377 
L 220.35334 58.104 
L 222.413509 57.768699 
L 224.473678 57.598387 
L 226.533847 57.742088 
L 228.594016 57.598387 
L 230.654185 57.69951 
L 232.714354 57.454687 
L 234.774523 57.880466 
L 236.834691 57.74741 
L 238.89486 57.789988 
L 240.955029 58.077389 
L 243.015198 57.715476 
L 245.075367 57.976266 
L 247.135536 57.454687 
L 249.195705 57.566454 
L 251.255873 57.444042 
L 253.316042 57.65161 
L 255.376211 57.784666 
L 257.43638 57.662254 
L 259.496549 58.013522 
L 261.556718 57.683543 
L 263.616887 57.662254 
" style="fill:none;stroke:#bcbd22;stroke-dasharray:5.55,2.4;stroke-dashoffset:0;stroke-width:1.5;"/>
   </g>
   <g id="patch_3">
    <path d="M 57.6 307.584 
L 57.6 41.472 
" style="fill:none;stroke:#000000;stroke-linecap:square;stroke-linejoin:miter;stroke-width:0.8;"/>
   </g>
   <g id="patch_4">
    <path d="M 414.72 307.584 
L 414.72 41.472 
" style="fill:none;stroke:#000000;stroke-linecap:square;stroke-linejoin:miter;stroke-width:0.8;"/>
   </g>
   <g id="patch_5">
    <path d="M 57.6 307.584 
L 414.72 307.584 
" style="fill:none;stroke:#000000;stroke-linecap:square;stroke-linejoin:miter;stroke-width:0.8;"/>
   </g>
   <g id="patch_6">
    <path d="M 57.6 41.472 
L 414.72 41.472 
" style="fill:none;stroke:#000000;stroke-linecap:square;stroke-linejoin:miter;stroke-width:0.8;"/>
   </g>
   <g id="legend_1">
    <g id="patch_7">
     <path d="M 299.895 181.575125 
L 407.72 181.575125 
Q 409.72 181.575125 409.72 179.575125 
L 409.72 48.472 
Q 409.72 46.472 407.72 46.472 
L 299.895 46.472 
Q 297.895 46.472 297.895 48.472 
L 297.895 179.575125 
Q 297.895 181.575125 299.895 181.575125 
z
" style="fill:#ffffff;opacity:0.8;stroke:#cccccc;stroke-linejoin:miter;"/>
    </g>
    <g id="line2d_40">
     <path d="M 301.895 54.570438 
L 321.895 54.570438 
" style="fill:none;stroke:#1f77b4;stroke-linecap:square;stroke-width:1.5;"/>
    </g>
    <g id="line2d_41"/>
    <g id="text_18">
     <!-- SGD, lr 10 -->
     <defs>
      <path d="M 53.515625 70.515625 
L 53.515625 60.890625 
Q 47.90625 63.578125 42.921875 64.890625 
Q 37.9375 66.21875 33.296875 66.21875 
Q 25.25 66.21875 20.875 63.09375 
Q 16.5 59.96875 16.5 54.203125 
Q 16.5 49.359375 19.40625 46.890625 
Q 22.3125 44.4375 30.421875 42.921875 
L 36.375 41.703125 
Q 47.40625 39.59375 52.65625 34.296875 
Q 57.90625 29 57.90625 20.125 
Q 57.90625 9.515625 50.796875 4.046875 
Q 43.703125 -1.421875 29.984375 -1.421875 
Q 24.8125 -1.421875 18.96875 -0.25 
Q 13.140625 0.921875 6.890625 3.21875 
L 6.890625 13.375 
Q 12.890625 10.015625 18.65625 8.296875 
Q 24.421875 6.59375 29.984375 6.59375 
Q 38.421875 6.59375 43.015625 9.90625 
Q 47.609375 13.234375 47.609375 19.390625 
Q 47.609375 24.75 44.3125 27.78125 
Q 41.015625 30.8125 33.5 32.328125 
L 27.484375 33.5 
Q 16.453125 35.6875 11.515625 40.375 
Q 6.59375 45.0625 6.59375 53.421875 
Q 6.59375 63.09375 13.40625 68.65625 
Q 20.21875 74.21875 32.171875 74.21875 
Q 37.3125 74.21875 42.625 73.28125 
Q 47.953125 72.359375 53.515625 70.515625 
z
" id="DejaVuSans-53"/>
      <path d="M 59.515625 10.40625 
L 59.515625 29.984375 
L 43.40625 29.984375 
L 43.40625 38.09375 
L 69.28125 38.09375 
L 69.28125 6.78125 
Q 63.578125 2.734375 56.6875 0.65625 
Q 49.8125 -1.421875 42 -1.421875 
Q 24.90625 -1.421875 15.25 8.5625 
Q 5.609375 18.5625 5.609375 36.375 
Q 5.609375 54.25 15.25 64.234375 
Q 24.90625 74.21875 42 74.21875 
Q 49.125 74.21875 55.546875 72.453125 
Q 61.96875 70.703125 67.390625 67.28125 
L 67.390625 56.78125 
Q 61.921875 61.421875 55.765625 63.765625 
Q 49.609375 66.109375 42.828125 66.109375 
Q 29.4375 66.109375 22.71875 58.640625 
Q 16.015625 51.171875 16.015625 36.375 
Q 16.015625 21.625 22.71875 14.15625 
Q 29.4375 6.6875 42.828125 6.6875 
Q 48.046875 6.6875 52.140625 7.59375 
Q 56.25 8.5 59.515625 10.40625 
z
" id="DejaVuSans-47"/>
      <path d="M 19.671875 64.796875 
L 19.671875 8.109375 
L 31.59375 8.109375 
Q 46.6875 8.109375 53.6875 14.9375 
Q 60.6875 21.78125 60.6875 36.53125 
Q 60.6875 51.171875 53.6875 57.984375 
Q 46.6875 64.796875 31.59375 64.796875 
z
M 9.8125 72.90625 
L 30.078125 72.90625 
Q 51.265625 72.90625 61.171875 64.09375 
Q 71.09375 55.28125 71.09375 36.53125 
Q 71.09375 17.671875 61.125 8.828125 
Q 51.171875 0 30.078125 0 
L 9.8125 0 
z
" id="DejaVuSans-44"/>
      <path d="M 11.71875 12.40625 
L 22.015625 12.40625 
L 22.015625 4 
L 14.015625 -11.625 
L 7.71875 -11.625 
L 11.71875 4 
z
" id="DejaVuSans-2c"/>
      <path d="M 9.421875 75.984375 
L 18.40625 75.984375 
L 18.40625 0 
L 9.421875 0 
z
" id="DejaVuSans-6c"/>
      <path d="M 41.109375 46.296875 
Q 39.59375 47.171875 37.8125 47.578125 
Q 36.03125 48 33.890625 48 
Q 26.265625 48 22.1875 43.046875 
Q 18.109375 38.09375 18.109375 28.8125 
L 18.109375 0 
L 9.078125 0 
L 9.078125 54.6875 
L 18.109375 54.6875 
L 18.109375 46.1875 
Q 20.953125 51.171875 25.484375 53.578125 
Q 30.03125 56 36.53125 56 
Q 37.453125 56 38.578125 55.875 
Q 39.703125 55.765625 41.0625 55.515625 
z
" id="DejaVuSans-72"/>
     </defs>
     <g transform="translate(329.895 58.070438)scale(0.1 -0.1)">
      <use xlink:href="#DejaVuSans-53"/>
      <use x="63.476562" xlink:href="#DejaVuSans-47"/>
      <use x="140.966797" xlink:href="#DejaVuSans-44"/>
      <use x="217.96875" xlink:href="#DejaVuSans-2c"/>
      <use x="249.755859" xlink:href="#DejaVuSans-20"/>
      <use x="281.542969" xlink:href="#DejaVuSans-6c"/>
      <use x="309.326172" xlink:href="#DejaVuSans-72"/>
      <use x="350.439453" xlink:href="#DejaVuSans-20"/>
      <use x="382.226562" xlink:href="#DejaVuSans-31"/>
      <use x="445.849609" xlink:href="#DejaVuSans-30"/>
     </g>
    </g>
    <g id="line2d_42">
     <path d="M 301.895 69.248563 
L 321.895 69.248563 
" style="fill:none;stroke:#ff7f0e;stroke-linecap:square;stroke-width:1.5;"/>
    </g>
    <g id="line2d_43"/>
    <g id="text_19">
     <!-- SGD, lr 1 -->
     <g transform="translate(329.895 72.748563)scale(0.1 -0.1)">
      <use xlink:href="#DejaVuSans-53"/>
      <use x="63.476562" xlink:href="#DejaVuSans-47"/>
      <use x="140.966797" xlink:href="#DejaVuSans-44"/>
      <use x="217.96875" xlink:href="#DejaVuSans-2c"/>
      <use x="249.755859" xlink:href="#DejaVuSans-20"/>
      <use x="281.542969" xlink:href="#DejaVuSans-6c"/>
      <use x="309.326172" xlink:href="#DejaVuSans-72"/>
      <use x="350.439453" xlink:href="#DejaVuSans-20"/>
      <use x="382.226562" xlink:href="#DejaVuSans-31"/>
     </g>
    </g>
    <g id="line2d_44">
     <path d="M 301.895 83.926688 
L 321.895 83.926688 
" style="fill:none;stroke:#2ca02c;stroke-linecap:square;stroke-width:1.5;"/>
    </g>
    <g id="line2d_45"/>
    <g id="text_20">
     <!-- SGD, lr 0.1 -->
     <g transform="translate(329.895 87.426688)scale(0.1 -0.1)">
      <use xlink:href="#DejaVuSans-53"/>
      <use x="63.476562" xlink:href="#DejaVuSans-47"/>
      <use x="140.966797" xlink:href="#DejaVuSans-44"/>
      <use x="217.96875" xlink:href="#DejaVuSans-2c"/>
      <use x="249.755859" xlink:href="#DejaVuSans-20"/>
      <use x="281.542969" xlink:href="#DejaVuSans-6c"/>
      <use x="309.326172" xlink:href="#DejaVuSans-72"/>
      <use x="350.439453" xlink:href="#DejaVuSans-20"/>
      <use x="382.226562" xlink:href="#DejaVuSans-30"/>
      <use x="445.849609" xlink:href="#DejaVuSans-2e"/>
      <use x="477.636719" xlink:href="#DejaVuSans-31"/>
     </g>
    </g>
    <g id="line2d_46">
     <path d="M 301.895 98.604813 
L 321.895 98.604813 
" style="fill:none;stroke:#d62728;stroke-linecap:square;stroke-width:1.5;"/>
    </g>
    <g id="line2d_47"/>
    <g id="text_21">
     <!-- SGD, lr 0.01 -->
     <g transform="translate(329.895 102.104813)scale(0.1 -0.1)">
      <use xlink:href="#DejaVuSans-53"/>
      <use x="63.476562" xlink:href="#DejaVuSans-47"/>
      <use x="140.966797" xlink:href="#DejaVuSans-44"/>
      <use x="217.96875" xlink:href="#DejaVuSans-2c"/>
      <use x="249.755859" xlink:href="#DejaVuSans-20"/>
      <use x="281.542969" xlink:href="#DejaVuSans-6c"/>
      <use x="309.326172" xlink:href="#DejaVuSans-72"/>
      <use x="350.439453" xlink:href="#DejaVuSans-20"/>
      <use x="382.226562" xlink:href="#DejaVuSans-30"/>
      <use x="445.849609" xlink:href="#DejaVuSans-2e"/>
      <use x="477.636719" xlink:href="#DejaVuSans-30"/>
      <use x="541.259766" xlink:href="#DejaVuSans-31"/>
     </g>
    </g>
    <g id="line2d_48">
     <path d="M 301.895 113.282938 
L 321.895 113.282938 
" style="fill:none;stroke:#9467bd;stroke-linecap:square;stroke-width:1.5;"/>
    </g>
    <g id="line2d_49"/>
    <g id="text_22">
     <!-- SGD, lr 0.001 -->
     <g transform="translate(329.895 116.782938)scale(0.1 -0.1)">
      <use xlink:href="#DejaVuSans-53"/>
      <use x="63.476562" xlink:href="#DejaVuSans-47"/>
      <use x="140.966797" xlink:href="#DejaVuSans-44"/>
      <use x="217.96875" xlink:href="#DejaVuSans-2c"/>
      <use x="249.755859" xlink:href="#DejaVuSans-20"/>
      <use x="281.542969" xlink:href="#DejaVuSans-6c"/>
      <use x="309.326172" xlink:href="#DejaVuSans-72"/>
      <use x="350.439453" xlink:href="#DejaVuSans-20"/>
      <use x="382.226562" xlink:href="#DejaVuSans-30"/>
      <use x="445.849609" xlink:href="#DejaVuSans-2e"/>
      <use x="477.636719" xlink:href="#DejaVuSans-30"/>
      <use x="541.259766" xlink:href="#DejaVuSans-30"/>
      <use x="604.882812" xlink:href="#DejaVuSans-31"/>
     </g>
    </g>
    <g id="line2d_50">
     <path d="M 301.895 127.961063 
L 321.895 127.961063 
" style="fill:none;stroke:#8c564b;stroke-dasharray:5.55,2.4;stroke-dashoffset:0;stroke-width:1.5;"/>
    </g>
    <g id="line2d_51"/>
    <g id="text_23">
     <!-- SGN, cg iter 10 -->
     <defs>
      <path d="M 9.8125 72.90625 
L 23.09375 72.90625 
L 55.421875 11.921875 
L 55.421875 72.90625 
L 64.984375 72.90625 
L 64.984375 0 
L 51.703125 0 
L 19.390625 60.984375 
L 19.390625 0 
L 9.8125 0 
z
" id="DejaVuSans-4e"/>
      <path d="M 45.40625 27.984375 
Q 45.40625 37.75 41.375 43.109375 
Q 37.359375 48.484375 30.078125 48.484375 
Q 22.859375 48.484375 18.828125 43.109375 
Q 14.796875 37.75 14.796875 27.984375 
Q 14.796875 18.265625 18.828125 12.890625 
Q 22.859375 7.515625 30.078125 7.515625 
Q 37.359375 7.515625 41.375 12.890625 
Q 45.40625 18.265625 45.40625 27.984375 
z
M 54.390625 6.78125 
Q 54.390625 -7.171875 48.1875 -13.984375 
Q 42 -20.796875 29.203125 -20.796875 
Q 24.46875 -20.796875 20.265625 -20.09375 
Q 16.0625 -19.390625 12.109375 -17.921875 
L 12.109375 -9.1875 
Q 16.0625 -11.328125 19.921875 -12.34375 
Q 23.78125 -13.375 27.78125 -13.375 
Q 36.625 -13.375 41.015625 -8.765625 
Q 45.40625 -4.15625 45.40625 5.171875 
L 45.40625 9.625 
Q 42.625 4.78125 38.28125 2.390625 
Q 33.9375 0 27.875 0 
Q 17.828125 0 11.671875 7.65625 
Q 5.515625 15.328125 5.515625 27.984375 
Q 5.515625 40.671875 11.671875 48.328125 
Q 17.828125 56 27.875 56 
Q 33.9375 56 38.28125 53.609375 
Q 42.625 51.21875 45.40625 46.390625 
L 45.40625 54.6875 
L 54.390625 54.6875 
z
" id="DejaVuSans-67"/>
      <path d="M 9.421875 54.6875 
L 18.40625 54.6875 
L 18.40625 0 
L 9.421875 0 
z
M 9.421875 75.984375 
L 18.40625 75.984375 
L 18.40625 64.59375 
L 9.421875 64.59375 
z
" id="DejaVuSans-69"/>
     </defs>
     <g transform="translate(329.895 131.461063)scale(0.1 -0.1)">
      <use xlink:href="#DejaVuSans-53"/>
      <use x="63.476562" xlink:href="#DejaVuSans-47"/>
      <use x="140.966797" xlink:href="#DejaVuSans-4e"/>
      <use x="215.771484" xlink:href="#DejaVuSans-2c"/>
      <use x="247.558594" xlink:href="#DejaVuSans-20"/>
      <use x="279.345703" xlink:href="#DejaVuSans-63"/>
      <use x="334.326172" xlink:href="#DejaVuSans-67"/>
      <use x="397.802734" xlink:href="#DejaVuSans-20"/>
      <use x="429.589844" xlink:href="#DejaVuSans-69"/>
      <use x="457.373047" xlink:href="#DejaVuSans-74"/>
      <use x="496.582031" xlink:href="#DejaVuSans-65"/>
      <use x="558.105469" xlink:href="#DejaVuSans-72"/>
      <use x="599.21875" xlink:href="#DejaVuSans-20"/>
      <use x="631.005859" xlink:href="#DejaVuSans-31"/>
      <use x="694.628906" xlink:href="#DejaVuSans-30"/>
     </g>
    </g>
    <g id="line2d_52">
     <path d="M 301.895 142.639188 
L 321.895 142.639188 
" style="fill:none;stroke:#e377c2;stroke-dasharray:5.55,2.4;stroke-dashoffset:0;stroke-width:1.5;"/>
    </g>
    <g id="line2d_53"/>
    <g id="text_24">
     <!-- SGN, cg iter 5 -->
     <g transform="translate(329.895 146.139188)scale(0.1 -0.1)">
      <use xlink:href="#DejaVuSans-53"/>
      <use x="63.476562" xlink:href="#DejaVuSans-47"/>
      <use x="140.966797" xlink:href="#DejaVuSans-4e"/>
      <use x="215.771484" xlink:href="#DejaVuSans-2c"/>
      <use x="247.558594" xlink:href="#DejaVuSans-20"/>
      <use x="279.345703" xlink:href="#DejaVuSans-63"/>
      <use x="334.326172" xlink:href="#DejaVuSans-67"/>
      <use x="397.802734" xlink:href="#DejaVuSans-20"/>
      <use x="429.589844" xlink:href="#DejaVuSans-69"/>
      <use x="457.373047" xlink:href="#DejaVuSans-74"/>
      <use x="496.582031" xlink:href="#DejaVuSans-65"/>
      <use x="558.105469" xlink:href="#DejaVuSans-72"/>
      <use x="599.21875" xlink:href="#DejaVuSans-20"/>
      <use x="631.005859" xlink:href="#DejaVuSans-35"/>
     </g>
    </g>
    <g id="line2d_54">
     <path d="M 301.895 157.317313 
L 321.895 157.317313 
" style="fill:none;stroke:#7f7f7f;stroke-dasharray:5.55,2.4;stroke-dashoffset:0;stroke-width:1.5;"/>
    </g>
    <g id="line2d_55"/>
    <g id="text_25">
     <!-- SGN, cg iter 3 -->
     <g transform="translate(329.895 160.817313)scale(0.1 -0.1)">
      <use xlink:href="#DejaVuSans-53"/>
      <use x="63.476562" xlink:href="#DejaVuSans-47"/>
      <use x="140.966797" xlink:href="#DejaVuSans-4e"/>
      <use x="215.771484" xlink:href="#DejaVuSans-2c"/>
      <use x="247.558594" xlink:href="#DejaVuSans-20"/>
      <use x="279.345703" xlink:href="#DejaVuSans-63"/>
      <use x="334.326172" xlink:href="#DejaVuSans-67"/>
      <use x="397.802734" xlink:href="#DejaVuSans-20"/>
      <use x="429.589844" xlink:href="#DejaVuSans-69"/>
      <use x="457.373047" xlink:href="#DejaVuSans-74"/>
      <use x="496.582031" xlink:href="#DejaVuSans-65"/>
      <use x="558.105469" xlink:href="#DejaVuSans-72"/>
      <use x="599.21875" xlink:href="#DejaVuSans-20"/>
      <use x="631.005859" xlink:href="#DejaVuSans-33"/>
     </g>
    </g>
    <g id="line2d_56">
     <path d="M 301.895 171.995438 
L 321.895 171.995438 
" style="fill:none;stroke:#bcbd22;stroke-dasharray:5.55,2.4;stroke-dashoffset:0;stroke-width:1.5;"/>
    </g>
    <g id="line2d_57"/>
    <g id="text_26">
     <!-- SGN, cg iter 2 -->
     <g transform="translate(329.895 175.495438)scale(0.1 -0.1)">
      <use xlink:href="#DejaVuSans-53"/>
      <use x="63.476562" xlink:href="#DejaVuSans-47"/>
      <use x="140.966797" xlink:href="#DejaVuSans-4e"/>
      <use x="215.771484" xlink:href="#DejaVuSans-2c"/>
      <use x="247.558594" xlink:href="#DejaVuSans-20"/>
      <use x="279.345703" xlink:href="#DejaVuSans-63"/>
      <use x="334.326172" xlink:href="#DejaVuSans-67"/>
      <use x="397.802734" xlink:href="#DejaVuSans-20"/>
      <use x="429.589844" xlink:href="#DejaVuSans-69"/>
      <use x="457.373047" xlink:href="#DejaVuSans-74"/>
      <use x="496.582031" xlink:href="#DejaVuSans-65"/>
      <use x="558.105469" xlink:href="#DejaVuSans-72"/>
      <use x="599.21875" xlink:href="#DejaVuSans-20"/>
      <use x="631.005859" xlink:href="#DejaVuSans-32"/>
     </g>
    </g>
   </g>
  </g>
 </g>
 <defs>
  <clipPath id="p6f75894ec2">
   <rect height="266.112" width="357.12" x="57.6" y="41.472"/>
  </clipPath>
 </defs>
</svg>
