<?xml version="1.0" encoding="utf-8" standalone="no"?>
<!DOCTYPE svg PUBLIC "-//W3C//DTD SVG 1.1//EN"
  "http://www.w3.org/Graphics/SVG/1.1/DTD/svg11.dtd">
<!-- Created with matplotlib (http://matplotlib.org/) -->
<svg height="345.6pt" version="1.1" viewBox="0 0 460.8 345.6" width="460.8pt" xmlns="http://www.w3.org/2000/svg" xmlns:xlink="http://www.w3.org/1999/xlink">
 <defs>
  <style type="text/css">
*{stroke-linecap:butt;stroke-linejoin:round;}
  </style>
 </defs>
 <g id="figure_1">
  <g id="patch_1">
   <path d="M 0 345.6 
L 460.8 345.6 
L 460.8 0 
L 0 0 
z
" style="fill:#ffffff;"/>
  </g>
  <g id="axes_1">
   <g id="patch_2">
    <path d="M 57.6 307.584 
L 414.72 307.584 
L 414.72 41.472 
L 57.6 41.472 
z
" style="fill:#ffffff;"/>
   </g>
   <g id="matplotlib.axis_1">
    <g id="xtick_1">
     <g id="line2d_1">
      <path clip-path="url(#p2cd6efadea)" d="M 57.6 307.584 
L 57.6 41.472 
" style="fill:none;stroke:#b0b0b0;stroke-linecap:square;stroke-width:0.8;"/>
     </g>
     <g id="line2d_2">
      <defs>
       <path d="M 0 0 
L 0 3.5 
" id="m9b056258ee" style="stroke:#000000;stroke-width:0.8;"/>
      </defs>
      <g>
       <use style="stroke:#000000;stroke-width:0.8;" x="57.6" xlink:href="#m9b056258ee" y="307.584"/>
      </g>
     </g>
     <g id="text_1">
      <!-- 0 -->
      <defs>
       <path d="M 31.78125 66.40625 
Q 24.171875 66.40625 20.328125 58.90625 
Q 16.5 51.421875 16.5 36.375 
Q 16.5 21.390625 20.328125 13.890625 
Q 24.171875 6.390625 31.78125 6.390625 
Q 39.453125 6.390625 43.28125 13.890625 
Q 47.125 21.390625 47.125 36.375 
Q 47.125 51.421875 43.28125 58.90625 
Q 39.453125 66.40625 31.78125 66.40625 
z
M 31.78125 74.21875 
Q 44.046875 74.21875 50.515625 64.515625 
Q 56.984375 54.828125 56.984375 36.375 
Q 56.984375 17.96875 50.515625 8.265625 
Q 44.046875 -1.421875 31.78125 -1.421875 
Q 19.53125 -1.421875 13.0625 8.265625 
Q 6.59375 17.96875 6.59375 36.375 
Q 6.59375 54.828125 13.0625 64.515625 
Q 19.53125 74.21875 31.78125 74.21875 
z
" id="DejaVuSans-30"/>
      </defs>
      <g transform="translate(54.41875 322.182437)scale(0.1 -0.1)">
       <use xlink:href="#DejaVuSans-30"/>
      </g>
     </g>
    </g>
    <g id="xtick_2">
     <g id="line2d_3">
      <path clip-path="url(#p2cd6efadea)" d="M 102.24 307.584 
L 102.24 41.472 
" style="fill:none;stroke:#b0b0b0;stroke-linecap:square;stroke-width:0.8;"/>
     </g>
     <g id="line2d_4">
      <g>
       <use style="stroke:#000000;stroke-width:0.8;" x="102.24" xlink:href="#m9b056258ee" y="307.584"/>
      </g>
     </g>
     <g id="text_2">
      <!-- 25 -->
      <defs>
       <path d="M 19.1875 8.296875 
L 53.609375 8.296875 
L 53.609375 0 
L 7.328125 0 
L 7.328125 8.296875 
Q 12.9375 14.109375 22.625 23.890625 
Q 32.328125 33.6875 34.8125 36.53125 
Q 39.546875 41.84375 41.421875 45.53125 
Q 43.3125 49.21875 43.3125 52.78125 
Q 43.3125 58.59375 39.234375 62.25 
Q 35.15625 65.921875 28.609375 65.921875 
Q 23.96875 65.921875 18.8125 64.3125 
Q 13.671875 62.703125 7.8125 59.421875 
L 7.8125 69.390625 
Q 13.765625 71.78125 18.9375 73 
Q 24.125 74.21875 28.421875 74.21875 
Q 39.75 74.21875 46.484375 68.546875 
Q 53.21875 62.890625 53.21875 53.421875 
Q 53.21875 48.921875 51.53125 44.890625 
Q 49.859375 40.875 45.40625 35.40625 
Q 44.1875 33.984375 37.640625 27.21875 
Q 31.109375 20.453125 19.1875 8.296875 
z
" id="DejaVuSans-32"/>
       <path d="M 10.796875 72.90625 
L 49.515625 72.90625 
L 49.515625 64.59375 
L 19.828125 64.59375 
L 19.828125 46.734375 
Q 21.96875 47.46875 24.109375 47.828125 
Q 26.265625 48.1875 28.421875 48.1875 
Q 40.625 48.1875 47.75 41.5 
Q 54.890625 34.8125 54.890625 23.390625 
Q 54.890625 11.625 47.5625 5.09375 
Q 40.234375 -1.421875 26.90625 -1.421875 
Q 22.3125 -1.421875 17.546875 -0.640625 
Q 12.796875 0.140625 7.71875 1.703125 
L 7.71875 11.625 
Q 12.109375 9.234375 16.796875 8.0625 
Q 21.484375 6.890625 26.703125 6.890625 
Q 35.15625 6.890625 40.078125 11.328125 
Q 45.015625 15.765625 45.015625 23.390625 
Q 45.015625 31 40.078125 35.4375 
Q 35.15625 39.890625 26.703125 39.890625 
Q 22.75 39.890625 18.8125 39.015625 
Q 14.890625 38.140625 10.796875 36.28125 
z
" id="DejaVuSans-35"/>
      </defs>
      <g transform="translate(95.8775 322.182437)scale(0.1 -0.1)">
       <use xlink:href="#DejaVuSans-32"/>
       <use x="63.623047" xlink:href="#DejaVuSans-35"/>
      </g>
     </g>
    </g>
    <g id="xtick_3">
     <g id="line2d_5">
      <path clip-path="url(#p2cd6efadea)" d="M 146.88 307.584 
L 146.88 41.472 
" style="fill:none;stroke:#b0b0b0;stroke-linecap:square;stroke-width:0.8;"/>
     </g>
     <g id="line2d_6">
      <g>
       <use style="stroke:#000000;stroke-width:0.8;" x="146.88" xlink:href="#m9b056258ee" y="307.584"/>
      </g>
     </g>
     <g id="text_3">
      <!-- 50 -->
      <g transform="translate(140.5175 322.182437)scale(0.1 -0.1)">
       <use xlink:href="#DejaVuSans-35"/>
       <use x="63.623047" xlink:href="#DejaVuSans-30"/>
      </g>
     </g>
    </g>
    <g id="xtick_4">
     <g id="line2d_7">
      <path clip-path="url(#p2cd6efadea)" d="M 191.52 307.584 
L 191.52 41.472 
" style="fill:none;stroke:#b0b0b0;stroke-linecap:square;stroke-width:0.8;"/>
     </g>
     <g id="line2d_8">
      <g>
       <use style="stroke:#000000;stroke-width:0.8;" x="191.52" xlink:href="#m9b056258ee" y="307.584"/>
      </g>
     </g>
     <g id="text_4">
      <!-- 75 -->
      <defs>
       <path d="M 8.203125 72.90625 
L 55.078125 72.90625 
L 55.078125 68.703125 
L 28.609375 0 
L 18.3125 0 
L 43.21875 64.59375 
L 8.203125 64.59375 
z
" id="DejaVuSans-37"/>
      </defs>
      <g transform="translate(185.1575 322.182437)scale(0.1 -0.1)">
       <use xlink:href="#DejaVuSans-37"/>
       <use x="63.623047" xlink:href="#DejaVuSans-35"/>
      </g>
     </g>
    </g>
    <g id="xtick_5">
     <g id="line2d_9">
      <path clip-path="url(#p2cd6efadea)" d="M 236.16 307.584 
L 236.16 41.472 
" style="fill:none;stroke:#b0b0b0;stroke-linecap:square;stroke-width:0.8;"/>
     </g>
     <g id="line2d_10">
      <g>
       <use style="stroke:#000000;stroke-width:0.8;" x="236.16" xlink:href="#m9b056258ee" y="307.584"/>
      </g>
     </g>
     <g id="text_5">
      <!-- 100 -->
      <defs>
       <path d="M 12.40625 8.296875 
L 28.515625 8.296875 
L 28.515625 63.921875 
L 10.984375 60.40625 
L 10.984375 69.390625 
L 28.421875 72.90625 
L 38.28125 72.90625 
L 38.28125 8.296875 
L 54.390625 8.296875 
L 54.390625 0 
L 12.40625 0 
z
" id="DejaVuSans-31"/>
      </defs>
      <g transform="translate(226.61625 322.182437)scale(0.1 -0.1)">
       <use xlink:href="#DejaVuSans-31"/>
       <use x="63.623047" xlink:href="#DejaVuSans-30"/>
       <use x="127.246094" xlink:href="#DejaVuSans-30"/>
      </g>
     </g>
    </g>
    <g id="xtick_6">
     <g id="line2d_11">
      <path clip-path="url(#p2cd6efadea)" d="M 280.8 307.584 
L 280.8 41.472 
" style="fill:none;stroke:#b0b0b0;stroke-linecap:square;stroke-width:0.8;"/>
     </g>
     <g id="line2d_12">
      <g>
       <use style="stroke:#000000;stroke-width:0.8;" x="280.8" xlink:href="#m9b056258ee" y="307.584"/>
      </g>
     </g>
     <g id="text_6">
      <!-- 125 -->
      <g transform="translate(271.25625 322.182437)scale(0.1 -0.1)">
       <use xlink:href="#DejaVuSans-31"/>
       <use x="63.623047" xlink:href="#DejaVuSans-32"/>
       <use x="127.246094" xlink:href="#DejaVuSans-35"/>
      </g>
     </g>
    </g>
    <g id="xtick_7">
     <g id="line2d_13">
      <path clip-path="url(#p2cd6efadea)" d="M 325.44 307.584 
L 325.44 41.472 
" style="fill:none;stroke:#b0b0b0;stroke-linecap:square;stroke-width:0.8;"/>
     </g>
     <g id="line2d_14">
      <g>
       <use style="stroke:#000000;stroke-width:0.8;" x="325.44" xlink:href="#m9b056258ee" y="307.584"/>
      </g>
     </g>
     <g id="text_7">
      <!-- 150 -->
      <g transform="translate(315.89625 322.182437)scale(0.1 -0.1)">
       <use xlink:href="#DejaVuSans-31"/>
       <use x="63.623047" xlink:href="#DejaVuSans-35"/>
       <use x="127.246094" xlink:href="#DejaVuSans-30"/>
      </g>
     </g>
    </g>
    <g id="xtick_8">
     <g id="line2d_15">
      <path clip-path="url(#p2cd6efadea)" d="M 370.08 307.584 
L 370.08 41.472 
" style="fill:none;stroke:#b0b0b0;stroke-linecap:square;stroke-width:0.8;"/>
     </g>
     <g id="line2d_16">
      <g>
       <use style="stroke:#000000;stroke-width:0.8;" x="370.08" xlink:href="#m9b056258ee" y="307.584"/>
      </g>
     </g>
     <g id="text_8">
      <!-- 175 -->
      <g transform="translate(360.53625 322.182437)scale(0.1 -0.1)">
       <use xlink:href="#DejaVuSans-31"/>
       <use x="63.623047" xlink:href="#DejaVuSans-37"/>
       <use x="127.246094" xlink:href="#DejaVuSans-35"/>
      </g>
     </g>
    </g>
    <g id="xtick_9">
     <g id="line2d_17">
      <path clip-path="url(#p2cd6efadea)" d="M 414.72 307.584 
L 414.72 41.472 
" style="fill:none;stroke:#b0b0b0;stroke-linecap:square;stroke-width:0.8;"/>
     </g>
     <g id="line2d_18">
      <g>
       <use style="stroke:#000000;stroke-width:0.8;" x="414.72" xlink:href="#m9b056258ee" y="307.584"/>
      </g>
     </g>
     <g id="text_9">
      <!-- 200 -->
      <g transform="translate(405.17625 322.182437)scale(0.1 -0.1)">
       <use xlink:href="#DejaVuSans-32"/>
       <use x="63.623047" xlink:href="#DejaVuSans-30"/>
       <use x="127.246094" xlink:href="#DejaVuSans-30"/>
      </g>
     </g>
    </g>
    <g id="text_10">
     <!-- sec -->
     <defs>
      <path d="M 44.28125 53.078125 
L 44.28125 44.578125 
Q 40.484375 46.53125 36.375 47.5 
Q 32.28125 48.484375 27.875 48.484375 
Q 21.1875 48.484375 17.84375 46.4375 
Q 14.5 44.390625 14.5 40.28125 
Q 14.5 37.15625 16.890625 35.375 
Q 19.28125 33.59375 26.515625 31.984375 
L 29.59375 31.296875 
Q 39.15625 29.25 43.1875 25.515625 
Q 47.21875 21.78125 47.21875 15.09375 
Q 47.21875 7.46875 41.1875 3.015625 
Q 35.15625 -1.421875 24.609375 -1.421875 
Q 20.21875 -1.421875 15.453125 -0.5625 
Q 10.6875 0.296875 5.421875 2 
L 5.421875 11.28125 
Q 10.40625 8.6875 15.234375 7.390625 
Q 20.0625 6.109375 24.8125 6.109375 
Q 31.15625 6.109375 34.5625 8.28125 
Q 37.984375 10.453125 37.984375 14.40625 
Q 37.984375 18.0625 35.515625 20.015625 
Q 33.0625 21.96875 24.703125 23.78125 
L 21.578125 24.515625 
Q 13.234375 26.265625 9.515625 29.90625 
Q 5.8125 33.546875 5.8125 39.890625 
Q 5.8125 47.609375 11.28125 51.796875 
Q 16.75 56 26.8125 56 
Q 31.78125 56 36.171875 55.265625 
Q 40.578125 54.546875 44.28125 53.078125 
z
" id="DejaVuSans-73"/>
      <path d="M 56.203125 29.59375 
L 56.203125 25.203125 
L 14.890625 25.203125 
Q 15.484375 15.921875 20.484375 11.0625 
Q 25.484375 6.203125 34.421875 6.203125 
Q 39.59375 6.203125 44.453125 7.46875 
Q 49.3125 8.734375 54.109375 11.28125 
L 54.109375 2.78125 
Q 49.265625 0.734375 44.1875 -0.34375 
Q 39.109375 -1.421875 33.890625 -1.421875 
Q 20.796875 -1.421875 13.15625 6.1875 
Q 5.515625 13.8125 5.515625 26.8125 
Q 5.515625 40.234375 12.765625 48.109375 
Q 20.015625 56 32.328125 56 
Q 43.359375 56 49.78125 48.890625 
Q 56.203125 41.796875 56.203125 29.59375 
z
M 47.21875 32.234375 
Q 47.125 39.59375 43.09375 43.984375 
Q 39.0625 48.390625 32.421875 48.390625 
Q 24.90625 48.390625 20.390625 44.140625 
Q 15.875 39.890625 15.1875 32.171875 
z
" id="DejaVuSans-65"/>
      <path d="M 48.78125 52.59375 
L 48.78125 44.1875 
Q 44.96875 46.296875 41.140625 47.34375 
Q 37.3125 48.390625 33.40625 48.390625 
Q 24.65625 48.390625 19.8125 42.84375 
Q 14.984375 37.3125 14.984375 27.296875 
Q 14.984375 17.28125 19.8125 11.734375 
Q 24.65625 6.203125 33.40625 6.203125 
Q 37.3125 6.203125 41.140625 7.25 
Q 44.96875 8.296875 48.78125 10.40625 
L 48.78125 2.09375 
Q 45.015625 0.34375 40.984375 -0.53125 
Q 36.96875 -1.421875 32.421875 -1.421875 
Q 20.0625 -1.421875 12.78125 6.34375 
Q 5.515625 14.109375 5.515625 27.296875 
Q 5.515625 40.671875 12.859375 48.328125 
Q 20.21875 56 33.015625 56 
Q 37.15625 56 41.109375 55.140625 
Q 45.0625 54.296875 48.78125 52.59375 
z
" id="DejaVuSans-63"/>
     </defs>
     <g transform="translate(227.729531 335.860562)scale(0.1 -0.1)">
      <use xlink:href="#DejaVuSans-73"/>
      <use x="52.099609" xlink:href="#DejaVuSans-65"/>
      <use x="113.623047" xlink:href="#DejaVuSans-63"/>
     </g>
    </g>
   </g>
   <g id="matplotlib.axis_2">
    <g id="ytick_1">
     <g id="line2d_19">
      <path clip-path="url(#p2cd6efadea)" d="M 57.6 290.730859 
L 414.72 290.730859 
" style="fill:none;stroke:#b0b0b0;stroke-linecap:square;stroke-width:0.8;"/>
     </g>
     <g id="line2d_20">
      <defs>
       <path d="M 0 0 
L -3.5 0 
" id="m3b8f6d960f" style="stroke:#000000;stroke-width:0.8;"/>
      </defs>
      <g>
       <use style="stroke:#000000;stroke-width:0.8;" x="57.6" xlink:href="#m3b8f6d960f" y="290.730859"/>
      </g>
     </g>
     <g id="text_11">
      <!-- $\mathdefault{10^{-1}}$ -->
      <defs>
       <path d="M 10.59375 35.5 
L 73.1875 35.5 
L 73.1875 27.203125 
L 10.59375 27.203125 
z
" id="DejaVuSans-2212"/>
      </defs>
      <g transform="translate(27.1 294.530078)scale(0.1 -0.1)">
       <use transform="translate(0 0.684375)" xlink:href="#DejaVuSans-31"/>
       <use transform="translate(63.623047 0.684375)" xlink:href="#DejaVuSans-30"/>
       <use transform="translate(128.203125 38.965625)scale(0.7)" xlink:href="#DejaVuSans-2212"/>
       <use transform="translate(186.855469 38.965625)scale(0.7)" xlink:href="#DejaVuSans-31"/>
      </g>
     </g>
    </g>
    <g id="ytick_2">
     <g id="line2d_21">
      <path clip-path="url(#p2cd6efadea)" d="M 57.6 47.300573 
L 414.72 47.300573 
" style="fill:none;stroke:#b0b0b0;stroke-linecap:square;stroke-width:0.8;"/>
     </g>
     <g id="line2d_22">
      <g>
       <use style="stroke:#000000;stroke-width:0.8;" x="57.6" xlink:href="#m3b8f6d960f" y="47.300573"/>
      </g>
     </g>
     <g id="text_12">
      <!-- $\mathdefault{10^{0}}$ -->
      <g transform="translate(33 51.099792)scale(0.1 -0.1)">
       <use transform="translate(0 0.765625)" xlink:href="#DejaVuSans-31"/>
       <use transform="translate(63.623047 0.765625)" xlink:href="#DejaVuSans-30"/>
       <use transform="translate(128.203125 39.046875)scale(0.7)" xlink:href="#DejaVuSans-30"/>
      </g>
     </g>
    </g>
    <g id="ytick_3">
     <g id="line2d_23">
      <path clip-path="url(#p2cd6efadea)" d="M 57.6 301.869618 
L 414.72 301.869618 
" style="fill:none;stroke:#b0b0b0;stroke-linecap:square;stroke-width:0.8;"/>
     </g>
     <g id="line2d_24">
      <defs>
       <path d="M 0 0 
L -2 0 
" id="mf20f1ae9d2" style="stroke:#000000;stroke-width:0.6;"/>
      </defs>
      <g>
       <use style="stroke:#000000;stroke-width:0.6;" x="57.6" xlink:href="#mf20f1ae9d2" y="301.869618"/>
      </g>
     </g>
    </g>
    <g id="ytick_4">
     <g id="line2d_25">
      <path clip-path="url(#p2cd6efadea)" d="M 57.6 217.451041 
L 414.72 217.451041 
" style="fill:none;stroke:#b0b0b0;stroke-linecap:square;stroke-width:0.8;"/>
     </g>
     <g id="line2d_26">
      <g>
       <use style="stroke:#000000;stroke-width:0.6;" x="57.6" xlink:href="#mf20f1ae9d2" y="217.451041"/>
      </g>
     </g>
    </g>
    <g id="ytick_5">
     <g id="line2d_27">
      <path clip-path="url(#p2cd6efadea)" d="M 57.6 174.585096 
L 414.72 174.585096 
" style="fill:none;stroke:#b0b0b0;stroke-linecap:square;stroke-width:0.8;"/>
     </g>
     <g id="line2d_28">
      <g>
       <use style="stroke:#000000;stroke-width:0.6;" x="57.6" xlink:href="#mf20f1ae9d2" y="174.585096"/>
      </g>
     </g>
    </g>
    <g id="ytick_6">
     <g id="line2d_29">
      <path clip-path="url(#p2cd6efadea)" d="M 57.6 144.171223 
L 414.72 144.171223 
" style="fill:none;stroke:#b0b0b0;stroke-linecap:square;stroke-width:0.8;"/>
     </g>
     <g id="line2d_30">
      <g>
       <use style="stroke:#000000;stroke-width:0.6;" x="57.6" xlink:href="#mf20f1ae9d2" y="144.171223"/>
      </g>
     </g>
    </g>
    <g id="ytick_7">
     <g id="line2d_31">
      <path clip-path="url(#p2cd6efadea)" d="M 57.6 120.580391 
L 414.72 120.580391 
" style="fill:none;stroke:#b0b0b0;stroke-linecap:square;stroke-width:0.8;"/>
     </g>
     <g id="line2d_32">
      <g>
       <use style="stroke:#000000;stroke-width:0.6;" x="57.6" xlink:href="#mf20f1ae9d2" y="120.580391"/>
      </g>
     </g>
    </g>
    <g id="ytick_8">
     <g id="line2d_33">
      <path clip-path="url(#p2cd6efadea)" d="M 57.6 101.305278 
L 414.72 101.305278 
" style="fill:none;stroke:#b0b0b0;stroke-linecap:square;stroke-width:0.8;"/>
     </g>
     <g id="line2d_34">
      <g>
       <use style="stroke:#000000;stroke-width:0.6;" x="57.6" xlink:href="#mf20f1ae9d2" y="101.305278"/>
      </g>
     </g>
    </g>
    <g id="ytick_9">
     <g id="line2d_35">
      <path clip-path="url(#p2cd6efadea)" d="M 57.6 85.008402 
L 414.72 85.008402 
" style="fill:none;stroke:#b0b0b0;stroke-linecap:square;stroke-width:0.8;"/>
     </g>
     <g id="line2d_36">
      <g>
       <use style="stroke:#000000;stroke-width:0.6;" x="57.6" xlink:href="#mf20f1ae9d2" y="85.008402"/>
      </g>
     </g>
    </g>
    <g id="ytick_10">
     <g id="line2d_37">
      <path clip-path="url(#p2cd6efadea)" d="M 57.6 70.891406 
L 414.72 70.891406 
" style="fill:none;stroke:#b0b0b0;stroke-linecap:square;stroke-width:0.8;"/>
     </g>
     <g id="line2d_38">
      <g>
       <use style="stroke:#000000;stroke-width:0.6;" x="57.6" xlink:href="#mf20f1ae9d2" y="70.891406"/>
      </g>
     </g>
    </g>
    <g id="ytick_11">
     <g id="line2d_39">
      <path clip-path="url(#p2cd6efadea)" d="M 57.6 58.439332 
L 414.72 58.439332 
" style="fill:none;stroke:#b0b0b0;stroke-linecap:square;stroke-width:0.8;"/>
     </g>
     <g id="line2d_40">
      <g>
       <use style="stroke:#000000;stroke-width:0.6;" x="57.6" xlink:href="#mf20f1ae9d2" y="58.439332"/>
      </g>
     </g>
    </g>
    <g id="text_13">
     <!-- test acc -->
     <defs>
      <path d="M 18.3125 70.21875 
L 18.3125 54.6875 
L 36.8125 54.6875 
L 36.8125 47.703125 
L 18.3125 47.703125 
L 18.3125 18.015625 
Q 18.3125 11.328125 20.140625 9.421875 
Q 21.96875 7.515625 27.59375 7.515625 
L 36.8125 7.515625 
L 36.8125 0 
L 27.59375 0 
Q 17.1875 0 13.234375 3.875 
Q 9.28125 7.765625 9.28125 18.015625 
L 9.28125 47.703125 
L 2.6875 47.703125 
L 2.6875 54.6875 
L 9.28125 54.6875 
L 9.28125 70.21875 
z
" id="DejaVuSans-74"/>
      <path id="DejaVuSans-20"/>
      <path d="M 34.28125 27.484375 
Q 23.390625 27.484375 19.1875 25 
Q 14.984375 22.515625 14.984375 16.5 
Q 14.984375 11.71875 18.140625 8.90625 
Q 21.296875 6.109375 26.703125 6.109375 
Q 34.1875 6.109375 38.703125 11.40625 
Q 43.21875 16.703125 43.21875 25.484375 
L 43.21875 27.484375 
z
M 52.203125 31.203125 
L 52.203125 0 
L 43.21875 0 
L 43.21875 8.296875 
Q 40.140625 3.328125 35.546875 0.953125 
Q 30.953125 -1.421875 24.3125 -1.421875 
Q 15.921875 -1.421875 10.953125 3.296875 
Q 6 8.015625 6 15.921875 
Q 6 25.140625 12.171875 29.828125 
Q 18.359375 34.515625 30.609375 34.515625 
L 43.21875 34.515625 
L 43.21875 35.40625 
Q 43.21875 41.609375 39.140625 45 
Q 35.0625 48.390625 27.6875 48.390625 
Q 23 48.390625 18.546875 47.265625 
Q 14.109375 46.140625 10.015625 43.890625 
L 10.015625 52.203125 
Q 14.9375 54.109375 19.578125 55.046875 
Q 24.21875 56 28.609375 56 
Q 40.484375 56 46.34375 49.84375 
Q 52.203125 43.703125 52.203125 31.203125 
z
" id="DejaVuSans-61"/>
     </defs>
     <g transform="translate(21.020312 194.281125)rotate(-90)scale(0.1 -0.1)">
      <use xlink:href="#DejaVuSans-74"/>
      <use x="39.208984" xlink:href="#DejaVuSans-65"/>
      <use x="100.732422" xlink:href="#DejaVuSans-73"/>
      <use x="152.832031" xlink:href="#DejaVuSans-74"/>
      <use x="192.041016" xlink:href="#DejaVuSans-20"/>
      <use x="223.828125" xlink:href="#DejaVuSans-61"/>
      <use x="285.107422" xlink:href="#DejaVuSans-63"/>
      <use x="340.087891" xlink:href="#DejaVuSans-63"/>
     </g>
    </g>
   </g>
   <g id="line2d_41">
    <path clip-path="url(#p2cd6efadea)" d="M 58.695196 289.741729 
L 59.790392 290.435256 
L 60.885588 289.000707 
L 61.980784 289.836033 
L 63.07598 286.65561 
L 64.171176 281.435993 
L 65.266372 272.883763 
L 66.361569 278.863034 
L 67.456765 283.026097 
L 68.551961 271.007386 
L 69.647157 261.099564 
L 70.742353 263.89196 
L 71.837549 280.712307 
L 72.932745 260.311701 
L 74.027941 250.541523 
L 75.123137 248.970163 
L 76.218333 249.341163 
L 77.313529 244.044278 
L 78.408725 241.088136 
L 79.503921 249.176906 
L 80.599117 232.070647 
L 81.694314 220.382772 
L 82.78951 217.023738 
L 83.884706 225.1801 
L 84.979902 220.731163 
L 87.170294 195.072344 
L 89.360686 188.187832 
L 90.455882 191.406588 
L 91.551078 185.739518 
L 92.646274 180.969251 
L 93.74147 178.505104 
L 94.836666 172.45701 
L 95.931862 174.754384 
L 97.027059 184.362211 
L 98.122255 172.074333 
L 99.217451 173.369281 
L 100.312647 173.526165 
L 101.407843 164.236903 
L 102.503039 162.745623 
L 104.693431 146.709673 
L 105.788627 145.004403 
L 106.883823 140.725986 
L 107.979019 142.834418 
L 110.169411 130.212265 
L 111.264607 129.17054 
L 112.359804 128.553132 
L 113.455 123.33727 
L 114.550196 121.790388 
L 116.740588 116.755677 
L 117.835784 114.873952 
L 118.93098 112.226946 
L 120.026176 118.15363 
L 121.121372 112.989707 
L 122.216568 111.673526 
L 123.311764 106.733591 
L 124.40696 107.70628 
L 126.597352 101.338761 
L 127.692549 100.119079 
L 128.787745 100.256814 
L 129.882941 102.353566 
L 130.978137 98.970168 
L 132.073333 100.356304 
L 133.168529 97.067398 
L 134.263725 96.810409 
L 135.358921 92.898443 
L 136.454117 94.553293 
L 137.549313 92.74721 
L 138.644509 92.825239 
L 139.739705 92.024936 
L 140.834901 90.542494 
L 141.930097 90.878826 
L 143.025294 92.149282 
L 144.12049 88.286187 
L 145.215686 87.059513 
L 146.310882 86.557168 
L 147.406078 85.73736 
L 148.501274 85.802772 
L 149.59647 87.488469 
L 150.691666 85.335129 
L 151.786862 84.479614 
L 152.882058 85.235189 
L 153.977254 84.4015 
L 155.07245 83.830915 
L 156.167646 85.236702 
L 157.262842 85.220054 
L 158.358039 83.371895 
L 159.453235 83.425444 
L 160.548431 81.100401 
L 161.643627 79.689309 
L 162.738823 79.575912 
L 164.929215 77.955764 
L 166.024411 77.593289 
L 167.119607 85.061275 
L 168.214803 78.727149 
L 169.309999 76.209877 
L 171.500391 76.122363 
L 172.595587 75.761958 
L 173.690784 75.83948 
L 174.78598 76.055734 
L 175.881176 75.804865 
L 176.976372 75.998855 
L 178.071568 75.752272 
L 179.166764 77.866793 
L 180.26196 75.542161 
L 181.357156 77.178746 
L 182.452352 75.569783 
L 183.547548 75.853329 
L 184.642744 75.513165 
L 189.023529 75.220891 
L 190.118725 73.787817 
L 191.213921 77.569356 
L 192.309117 76.308591 
L 193.404313 77.952938 
L 194.499509 74.849821 
L 195.594705 75.831171 
L 196.689901 72.989494 
L 198.880293 72.651688 
L 199.975489 72.737719 
L 201.070685 70.520713 
L 202.165881 70.153941 
L 203.261077 67.579282 
L 204.356274 66.647178 
L 205.45147 66.226541 
L 206.546666 64.712493 
L 207.641862 68.983296 
L 208.737058 65.937375 
L 209.832254 66.052189 
L 210.92745 64.762364 
L 213.117842 64.508267 
L 214.213038 64.572979 
L 215.308234 64.418731 
L 216.40343 67.380952 
L 217.498626 64.56302 
L 218.593822 64.220034 
L 219.689019 64.428676 
L 221.879411 64.524441 
L 222.974607 64.354114 
L 224.069803 64.493339 
L 226.260195 64.234924 
L 231.736175 64.254779 
L 232.831371 64.148099 
L 233.926567 64.329271 
L 235.021764 64.267191 
L 236.11696 63.99447 
L 237.212156 64.202666 
L 238.307352 64.249815 
L 239.402548 64.07869 
L 240.497744 64.223756 
L 242.688136 64.305677 
L 243.783332 64.005612 
L 244.878528 64.153058 
L 245.973724 64.169178 
L 247.06892 64.311885 
L 248.164116 64.086125 
L 249.259312 64.217553 
L 250.354509 64.143139 
L 251.449705 63.956097 
L 252.544901 64.223756 
L 253.640097 64.107192 
L 254.735293 64.22996 
L 255.830489 64.042764 
L 256.925685 64.30071 
L 259.116077 63.858372 
L 260.211273 64.09356 
L 262.401665 64.052674 
L 263.496861 64.282087 
L 264.592057 64.084885 
L 265.687254 64.221275 
L 266.78245 63.915264 
L 268.972842 64.272156 
L 272.25843 64.068778 
L 273.353626 64.193983 
L 274.448822 63.970949 
L 275.544018 64.360325 
L 277.73441 64.077451 
L 278.829606 64.190262 
L 279.924802 64.048958 
L 281.019998 64.198945 
L 283.210391 63.923924 
L 285.400783 64.099756 
L 286.495979 63.95981 
L 287.591175 64.249815 
L 288.686371 64.079929 
L 290.876763 64.107192 
L 291.971959 63.850954 
L 293.067155 64.122065 
L 294.162351 64.068778 
L 295.257547 64.249815 
L 296.352743 63.895472 
L 297.44794 63.796568 
L 298.543136 63.996946 
L 301.828724 64.097277 
L 304.019116 63.954859 
L 305.114312 64.267191 
L 308.3999 63.937535 
L 310.590292 63.995708 
L 311.685488 64.25602 
L 313.875881 63.946197 
L 316.066273 63.92145 
L 317.161469 64.176619 
L 318.256665 63.977138 
L 319.351861 64.187781 
L 321.542253 63.842299 
L 322.637449 64.00066 
L 323.732645 63.909079 
L 327.018233 64.032856 
L 328.11343 63.842299 
L 329.208626 64.108431 
L 333.58941 64.016757 
L 334.684606 64.155538 
L 340.160586 64.066301 
L 341.255782 64.170418 
L 343.446175 64.011804 
L 345.636567 63.927636 
L 346.731763 64.1419 
L 347.826959 63.782975 
L 348.922155 64.032856 
L 350.017351 63.883104 
L 351.112547 64.047719 
L 352.207743 66.197462 
L 353.302939 64.145619 
L 355.493331 63.990755 
L 356.588527 64.016757 
L 357.683723 64.171658 
L 358.77892 63.818813 
L 359.874116 63.930111 
L 360.969312 63.920213 
L 362.064508 64.107192 
L 363.159704 63.915264 
L 364.2549 64.032856 
L 365.350096 63.951147 
L 367.540488 64.05639 
L 368.635684 63.766914 
L 369.73088 63.914027 
L 370.826076 63.827465 
L 371.921272 64.039049 
L 373.016468 64.032856 
L 374.111665 64.167938 
L 375.206861 63.961048 
L 377.397253 63.952384 
L 378.492449 63.800275 
L 379.587645 63.879394 
L 380.682841 64.083646 
L 381.778037 64.131982 
L 383.968429 63.910316 
L 387.254017 64.022948 
L 391.634802 64.035333 
L 392.729998 64.144379 
L 393.825194 63.923924 
L 396.015586 64.086125 
L 399.301174 64.057629 
L 400.39637 64.052674 
L 401.491566 64.196464 
L 404.777155 64.055151 
L 408.062743 64.026664 
L 409.157939 64.063823 
L 410.253135 64.34045 
L 411.348331 63.974663 
L 413.538723 64.077451 
L 416.824311 64.045242 
L 417.919507 63.794096 
L 419.014703 63.874447 
L 420.1099 63.821285 
L 421.205096 63.983328 
L 425.58588 64.076212 
L 427.776272 64.03781 
L 428.871468 64.096038 
L 429.966664 63.933823 
L 431.06186 64.161738 
L 432.157056 64.074973 
L 434.347448 64.174139 
L 435.442645 64.167938 
L 437.633037 63.843536 
L 438.728233 64.010565 
L 439.823429 64.315611 
L 442.013821 63.999422 
L 446.394605 63.978376 
L 447.489801 64.102234 
L 448.584997 64.003136 
L 451.870586 64.248574 
L 452.965782 64.122065 
L 455.156174 64.128263 
L 456.25137 64.02171 
L 457.346566 64.195223 
L 458.441762 64.145619 
L 459.536958 63.90042 
L 460.632154 63.901657 
L 461.8 64.138851 
L 461.8 64.138851 
" style="fill:none;stroke:#1f77b4;stroke-linecap:square;stroke-width:1.5;"/>
   </g>
   <g id="line2d_42">
    <path clip-path="url(#p2cd6efadea)" d="M 58.678487 120.874703 
L 59.756974 97.455755 
L 60.835461 87.153488 
L 61.913948 80.930247 
L 62.992435 76.732298 
L 65.149408 71.89388 
L 67.306382 68.953449 
L 69.463356 66.814885 
L 71.62033 65.009573 
L 73.777304 63.791625 
L 74.855791 63.435117 
L 77.012765 62.442269 
L 79.169738 61.72006 
L 80.248225 61.275094 
L 83.483686 60.590755 
L 85.64066 60.027613 
L 88.876121 59.489994 
L 97.504016 58.432285 
L 100.739477 58.174189 
L 113.68132 57.217711 
L 121.230729 56.809766 
L 122.309215 56.829431 
L 125.544676 56.609845 
L 127.70165 56.55675 
L 128.780137 56.586757 
L 130.937111 56.444877 
L 135.251059 56.338881 
L 142.800467 56.142146 
L 144.957441 56.072055 
L 147.114415 55.962988 
L 152.506849 55.878109 
L 155.74231 55.711989 
L 164.370206 55.584998 
L 177.312049 55.344019 
L 191.332379 55.196961 
L 199.960274 55.055796 
L 201.038761 55.091069 
L 203.195735 54.985284 
L 205.352709 54.995516 
L 207.509682 54.93868 
L 210.745143 54.934135 
L 213.980604 54.860297 
L 218.294552 54.902321 
L 220.451526 54.806939 
L 243.099751 54.642492 
L 247.413699 54.628894 
L 270.061924 54.495274 
L 278.689819 54.41835 
L 281.92528 54.399127 
L 283.003767 54.472644 
L 285.160741 54.396866 
L 288.396202 54.367475 
L 290.553176 54.419481 
L 292.71015 54.318883 
L 298.102584 54.335831 
L 304.573506 54.26241 
L 307.808966 54.332441 
L 309.96594 54.321143 
L 312.122914 54.294031 
L 320.75081 54.273702 
L 322.907783 54.222896 
L 328.300218 54.266927 
L 329.378705 54.160834 
L 330.457192 54.253377 
L 332.614166 54.22854 
L 348.79147 54.138275 
L 350.948443 54.166474 
L 354.183904 54.131508 
L 401.637329 53.997388 
L 403.794303 53.999641 
L 411.343711 53.995136 
L 414.579172 53.961352 
L 416.736146 53.983873 
L 433.991937 53.943338 
L 437.227397 53.921951 
L 440.462858 53.930955 
L 445.855293 53.900568 
L 448.012267 53.943338 
L 461.8 53.939278 
L 461.8 53.939278 
" style="fill:none;stroke:#ff7f0e;stroke-linecap:square;stroke-width:1.5;"/>
   </g>
   <g id="line2d_43">
    <path clip-path="url(#p2cd6efadea)" d="M 58.709631 204.905036 
L 59.819262 180.082061 
L 60.928894 164.816861 
L 62.038525 154.037282 
L 63.148156 145.356627 
L 64.257787 138.571013 
L 65.367418 133.400483 
L 66.477049 127.640511 
L 67.586681 122.51146 
L 69.805943 114.018009 
L 70.915574 110.479173 
L 73.134836 105.701786 
L 74.244468 103.460896 
L 76.46373 100.035479 
L 79.792623 95.478042 
L 82.011886 93.239101 
L 85.340779 90.162819 
L 88.669673 87.607589 
L 95.32746 83.293108 
L 96.437091 82.81718 
L 98.656353 81.521875 
L 99.765984 81.080026 
L 100.875616 80.470601 
L 106.423771 78.431542 
L 107.533403 78.152329 
L 110.862296 77.003581 
L 114.19119 75.942007 
L 118.629714 74.666143 
L 121.958608 74.047554 
L 128.616395 72.905951 
L 131.945288 72.2373 
L 140.822338 70.855731 
L 144.151231 70.4141 
L 147.480125 69.990028 
L 149.699387 69.623783 
L 150.809018 69.563735 
L 155.247543 68.961234 
L 159.686068 68.548109 
L 163.014961 68.140454 
L 167.453486 67.739496 
L 175.220904 67.050378 
L 176.330535 66.825058 
L 179.659429 66.614176 
L 181.878691 66.340404 
L 185.207584 66.039566 
L 196.303896 65.122132 
L 202.961683 64.732438 
L 239.579512 62.700003 
L 244.018036 62.622983 
L 250.675823 62.437389 
L 256.223979 62.238725 
L 267.320291 61.829169 
L 292.841808 61.015992 
L 297.280333 60.859632 
L 312.815169 60.433826 
L 330.569268 59.983501 
L 338.336686 59.723974 
L 363.858203 59.287313 
L 367.187096 59.223389 
L 379.393039 59.080293 
L 392.708613 58.975164 
L 421.559024 58.630977 
L 427.107179 58.562745 
L 435.984229 58.494556 
L 442.642016 58.407621 
L 449.299803 58.305505 
L 452.628696 58.280871 
L 461.8 58.205662 
L 461.8 58.205662 
" style="fill:none;stroke:#2ca02c;stroke-linecap:square;stroke-width:1.5;"/>
   </g>
   <g id="line2d_44">
    <path clip-path="url(#p2cd6efadea)" d="M 58.72518 258.122436 
L 59.850361 246.569003 
L 63.225902 222.851536 
L 64.351083 217.546233 
L 65.476263 213.116717 
L 69.976985 201.586993 
L 72.227346 196.62794 
L 73.352527 194.037969 
L 75.602888 187.999628 
L 76.728068 185.539983 
L 77.853249 183.630313 
L 78.978429 181.445732 
L 81.22879 177.562125 
L 82.353971 175.462684 
L 86.854693 168.881328 
L 87.979873 167.738932 
L 89.105054 166.152227 
L 91.355415 164.233707 
L 92.480595 163.039041 
L 95.856137 159.824726 
L 99.231678 156.69336 
L 101.482039 154.817768 
L 102.60722 153.811204 
L 103.7324 152.957638 
L 105.982761 150.740839 
L 108.233122 149.318901 
L 109.358303 148.495202 
L 110.483483 147.524981 
L 111.608664 146.861388 
L 112.733844 145.675171 
L 114.984205 144.221453 
L 116.109386 143.565072 
L 118.359747 142.002563 
L 121.735288 140.266498 
L 122.860469 139.487393 
L 123.985649 139.02821 
L 126.23601 137.841594 
L 127.361191 137.491168 
L 140.863357 130.834808 
L 141.988537 130.267866 
L 143.113718 129.874655 
L 146.489259 128.134437 
L 148.73962 126.978024 
L 152.115162 125.339744 
L 153.240342 124.955595 
L 154.365523 124.300909 
L 164.492147 120.162565 
L 166.742508 119.25246 
L 167.867689 118.769147 
L 168.992869 118.497214 
L 171.24323 117.443106 
L 173.493591 116.751599 
L 175.743952 115.833874 
L 177.994313 114.797854 
L 179.119494 114.420177 
L 181.369855 113.85122 
L 183.620216 112.78917 
L 186.995757 111.667696 
L 189.246118 111.082393 
L 190.371299 110.723515 
L 202.748284 108.299489 
L 204.998645 107.816785 
L 207.249006 107.282191 
L 211.749728 106.561232 
L 217.375631 105.183238 
L 220.751172 104.458249 
L 223.001533 103.911431 
L 225.251894 103.399772 
L 226.377075 103.157419 
L 230.877797 102.672589 
L 233.128158 102.301971 
L 236.503699 101.686558 
L 241.004421 101.146816 
L 243.254782 100.669348 
L 245.505143 100.43142 
L 247.755504 99.958904 
L 248.880685 99.771182 
L 250.005865 99.752081 
L 253.381407 99.248018 
L 255.631768 99.033957 
L 259.007309 98.521285 
L 261.25767 98.180309 
L 264.633212 97.666642 
L 268.008753 97.079248 
L 272.509475 96.663597 
L 275.885017 96.330232 
L 279.260558 95.910813 
L 283.76128 95.243183 
L 286.011641 94.965691 
L 293.887905 94.256172 
L 300.638988 93.669341 
L 302.889349 93.482634 
L 306.26489 93.18524 
L 313.015973 92.575101 
L 315.266334 92.351454 
L 316.391515 92.167058 
L 319.767056 92.060449 
L 322.017417 91.883006 
L 324.267778 91.723562 
L 334.394403 90.393003 
L 343.395847 89.847724 
L 349.021749 89.343001 
L 362.523915 88.286187 
L 364.774276 87.981288 
L 368.149818 87.722194 
L 370.400179 87.621521 
L 381.651984 86.988703 
L 396.27933 86.014497 
L 399.654872 85.732797 
L 401.905233 85.535294 
L 407.531135 85.200383 
L 412.031857 84.852956 
L 418.78294 84.488631 
L 424.408843 84.089617 
L 427.784384 83.941496 
L 436.785828 83.380818 
L 439.036189 83.27825 
L 442.411731 83.141646 
L 444.662092 83.031898 
L 452.538355 82.722546 
L 458.164258 82.439153 
L 461.8 82.253661 
L 461.8 82.253661 
" style="fill:none;stroke:#d62728;stroke-linecap:square;stroke-width:1.5;"/>
   </g>
   <g id="line2d_45">
    <path clip-path="url(#p2cd6efadea)" d="M 58.747582 295.488 
L 59.895164 295.488 
L 61.042747 291.900227 
L 62.190329 284.960334 
L 63.337911 272.340441 
L 64.485493 265.046485 
L 65.633075 262.831074 
L 66.780658 258.262319 
L 67.92824 257.379504 
L 69.075822 257.680691 
L 70.223404 256.91013 
L 71.370986 254.256556 
L 72.518568 252.548356 
L 73.666151 249.849831 
L 74.813733 249.355458 
L 75.961315 249.06992 
L 77.108897 248.147211 
L 78.256479 248.076566 
L 79.404062 247.442875 
L 80.551644 246.249228 
L 81.699226 245.564279 
L 82.846808 245.089502 
L 83.99439 244.282472 
L 85.141973 243.70493 
L 86.289555 242.706797 
L 87.437137 242.237969 
L 88.584719 241.107969 
L 92.027466 238.238145 
L 93.175048 238.238145 
L 94.32263 237.78868 
L 95.470212 236.762106 
L 97.765377 234.346932 
L 98.912959 233.328512 
L 100.060541 231.937192 
L 102.355705 230.008888 
L 103.503288 229.409365 
L 104.65087 229.090218 
L 109.241198 226.122636 
L 110.388781 225.88192 
L 111.536363 225.009629 
L 112.683945 224.44337 
L 113.831527 223.459655 
L 114.979109 222.968425 
L 116.126692 222.26349 
L 117.274274 222.252426 
L 118.421856 221.436899 
L 120.71702 220.095126 
L 121.864603 219.317529 
L 123.012185 219.10254 
L 124.159767 218.599032 
L 125.307349 217.874771 
L 126.454931 217.551523 
L 127.602513 217.029003 
L 128.750096 216.336302 
L 129.897678 216.017718 
L 131.04526 215.466385 
L 132.192842 214.572698 
L 133.340424 214.480146 
L 134.488007 213.916302 
L 135.635589 213.814108 
L 136.783171 213.294446 
L 137.930753 212.919028 
L 139.078335 212.974749 
L 140.225918 212.777326 
L 141.3735 212.348316 
L 142.521082 212.32817 
L 149.406575 210.105647 
L 151.701739 209.824941 
L 152.849322 209.36854 
L 153.996904 209.167955 
L 155.144486 208.563614 
L 156.292068 208.282119 
L 157.43965 207.66353 
L 158.587233 207.326764 
L 159.734815 207.326764 
L 160.882397 207.038959 
L 162.029979 206.494278 
L 163.177561 206.446633 
L 166.620308 205.488764 
L 167.76789 205.187083 
L 168.915472 204.633104 
L 170.063054 204.389897 
L 171.210637 204.450646 
L 176.948548 203.01143 
L 178.09613 202.960719 
L 179.243712 202.578865 
L 183.834041 201.632498 
L 186.129205 201.033411 
L 187.276787 200.942935 
L 188.424369 200.712573 
L 189.571952 200.685505 
L 190.719534 200.334244 
L 193.014698 199.452246 
L 194.16228 199.372023 
L 195.309863 199.171732 
L 196.457445 198.741279 
L 198.752609 198.48473 
L 199.900191 198.087864 
L 201.047773 197.868025 
L 202.195356 197.294206 
L 204.49052 196.993213 
L 205.638102 196.766943 
L 206.785684 196.714796 
L 207.933267 196.199053 
L 211.376013 195.350753 
L 214.81876 194.794667 
L 215.966342 194.54325 
L 217.113924 194.436898 
L 218.261506 194.080337 
L 219.409088 193.459233 
L 220.556671 193.227782 
L 222.851835 192.44879 
L 226.294582 191.808134 
L 227.442164 191.518205 
L 228.589746 191.01891 
L 229.737328 190.858481 
L 230.88491 190.534254 
L 232.032493 190.399112 
L 236.622821 189.113692 
L 237.770403 189.004583 
L 238.917986 188.581338 
L 240.065568 188.392433 
L 242.360732 187.496729 
L 246.951061 186.636193 
L 249.246225 186.198704 
L 250.393808 186.135791 
L 252.688972 185.485274 
L 253.836554 185.454025 
L 257.279301 184.86592 
L 258.426883 184.86592 
L 259.574465 184.458892 
L 261.869629 184.134395 
L 268.755123 182.754863 
L 269.902705 182.264879 
L 272.197869 182.060442 
L 274.493033 181.65275 
L 275.640616 181.543545 
L 277.93578 181.096603 
L 279.083362 181.089107 
L 282.526109 180.342227 
L 283.673691 180.022684 
L 285.968855 179.78551 
L 287.116438 179.511938 
L 288.26402 179.379105 
L 289.411602 179.047751 
L 291.706766 178.783413 
L 292.854348 178.483164 
L 294.001931 178.424678 
L 297.444677 177.808889 
L 298.592259 177.406379 
L 305.477753 176.397795 
L 306.625335 175.964903 
L 311.215663 175.317095 
L 314.65841 175.079613 
L 316.953574 174.712036 
L 320.396321 174.131473 
L 324.98665 173.404124 
L 326.134232 173.355347 
L 331.872143 172.45701 
L 334.167307 172.139738 
L 335.314889 172.181067 
L 338.757636 171.504614 
L 341.0528 171.197008 
L 342.200383 170.801855 
L 344.495547 170.604831 
L 347.938293 170.032828 
L 349.085876 170.032828 
L 354.823787 169.021656 
L 357.118951 168.75786 
L 359.414115 168.721181 
L 362.856862 168.341801 
L 365.152026 167.960467 
L 367.447191 167.854601 
L 372.037519 167.136197 
L 373.185102 167.103359 
L 377.77543 166.279203 
L 382.365759 165.788424 
L 383.513341 165.804638 
L 386.956088 165.390327 
L 389.251252 165.312824 
L 391.546417 165.193452 
L 392.693999 165.003379 
L 393.841581 165.032351 
L 396.136745 164.797585 
L 398.43191 164.576161 
L 399.579492 164.387194 
L 401.874656 164.320016 
L 412.202896 163.247769 
L 413.350478 163.12438 
L 414.49806 162.8528 
L 417.940807 162.616525 
L 420.235971 162.299173 
L 424.8263 161.998413 
L 432.859375 161.014409 
L 435.15454 161.042308 
L 436.302122 160.94934 
L 437.449704 160.98032 
L 439.744869 160.766741 
L 440.892451 160.720367 
L 444.335197 160.174692 
L 448.925526 159.748134 
L 450.073108 159.598173 
L 452.368273 159.466751 
L 459.253766 158.739247 
L 461.8 158.449759 
L 461.8 158.449759 
" style="fill:none;stroke:#9467bd;stroke-linecap:square;stroke-width:1.5;"/>
   </g>
   <g id="line2d_46">
    <path clip-path="url(#p2cd6efadea)" d="M 69.57161 58.239827 
L 81.543219 56.81902 
L 93.514829 56.851415 
L 105.486439 56.340032 
L 117.458048 55.991679 
L 129.429658 56.205384 
L 141.401268 56.544058 
L 153.372877 55.679941 
L 165.344487 56.253699 
L 177.316097 56.015785 
L 189.287707 56.631783 
L 201.259316 56.450641 
L 213.230926 55.720003 
L 225.202536 56.185833 
L 237.174145 55.720003 
L 249.145755 55.781842 
L 261.117365 55.801318 
L 273.088974 55.7097 
L 285.060584 56.100775 
L 297.032194 55.636462 
L 309.003803 55.750918 
L 320.975413 55.782988 
L 332.947023 57.003112 
L 344.918632 56.256 
L 356.890242 55.622736 
L 368.861852 55.35885 
L 380.833461 55.375966 
L 392.805071 55.69253 
L 404.776681 56.036452 
L 416.74829 55.404498 
L 428.7199 56.607536 
L 440.69151 55.506134 
L 452.66312 56.395322 
L 461.8 55.797819 
" style="fill:none;stroke:#8c564b;stroke-dasharray:5.55,2.4;stroke-dashoffset:0;stroke-width:1.5;"/>
   </g>
   <g id="line2d_47">
    <path clip-path="url(#p2cd6efadea)" d="M 64.356294 59.116935 
L 71.112588 56.967194 
L 77.868883 56.026118 
L 84.625177 55.70741 
L 91.381471 55.15482 
L 98.137765 54.978462 
L 104.894059 55.452449 
L 111.650353 54.571123 
L 118.406648 54.404781 
L 125.162942 54.673094 
L 131.919236 54.549608 
L 138.67553 54.394605 
L 145.431824 54.259022 
L 152.188119 54.45228 
L 158.944413 54.304197 
L 165.700707 54.090916 
L 172.457001 54.567725 
L 179.213295 54.057101 
L 185.969589 54.545079 
L 192.725884 54.14617 
L 199.482178 54.248861 
L 206.238472 54.164218 
L 212.994766 54.266927 
L 219.75106 54.132635 
L 226.507355 54.176628 
L 233.263649 54.023297 
L 240.019943 53.842068 
L 246.776237 54.017664 
L 253.532531 53.966982 
L 260.288825 54.22854 
L 267.04512 54.063863 
L 273.801414 53.930955 
L 280.557708 54.08077 
L 287.314002 53.998515 
L 294.070296 54.015411 
L 300.826591 54.030057 
L 307.582885 53.994009 
L 314.339179 54.119103 
L 321.095473 53.911821 
L 327.851767 53.963604 
L 334.608061 54.010905 
L 341.364356 54.16309 
L 348.12065 54.008652 
L 354.876944 53.946715 
L 361.633238 54.006399 
L 368.389532 54.125869 
L 375.145827 54.092043 
L 381.902121 54.041325 
L 388.658415 53.963604 
L 395.414709 53.92983 
L 402.171003 53.887065 
L 408.927297 54.075134 
L 415.683592 54.098807 
L 422.439886 54.158578 
L 429.19618 53.824074 
L 435.952474 54.124741 
L 442.708768 53.923076 
L 449.465063 53.844317 
L 456.221357 53.828572 
L 461.8 53.992147 
" style="fill:none;stroke:#e377c2;stroke-dasharray:5.55,2.4;stroke-dashoffset:0;stroke-width:1.5;"/>
   </g>
   <g id="line2d_48">
    <path clip-path="url(#p2cd6efadea)" d="M 62.339191 61.617116 
L 67.078383 58.700432 
L 71.817574 57.073824 
L 76.556766 56.334274 
L 81.295957 55.809338 
L 86.035149 55.438746 
L 90.77434 55.372542 
L 95.513532 54.969368 
L 100.252723 54.797859 
L 104.991915 54.851213 
L 109.731106 54.56546 
L 114.470298 54.56546 
L 119.209489 54.466987 
L 123.94868 54.230798 
L 128.687872 54.325662 
L 133.427063 54.214996 
L 138.166255 54.239829 
L 142.905446 54.1755 
L 147.644638 54.079643 
L 152.383829 53.971486 
L 157.123021 54.104445 
L 161.862212 54.049213 
L 166.601404 53.882564 
L 171.340595 54.096553 
L 176.079787 53.990631 
L 180.818978 53.873564 
L 185.558169 53.983873 
L 190.297361 53.74876 
L 195.036552 54.004147 
L 199.775744 53.925327 
L 204.514935 53.97036 
L 209.254127 53.981621 
L 213.993318 53.698206 
L 218.73251 53.817328 
L 223.471701 53.899442 
L 228.210893 53.727412 
L 232.950084 53.870189 
L 237.689276 53.762245 
L 242.428467 53.77236 
L 247.167658 53.810581 
L 251.90685 53.801587 
L 256.646041 53.758874 
L 261.385233 53.758874 
L 266.124424 53.88819 
L 270.863616 53.865689 
L 275.602807 53.875814 
L 280.341999 53.710561 
L 285.08119 53.865689 
L 289.820382 53.568 
L 294.559573 53.684729 
L 299.298764 53.935458 
L 304.037956 53.683606 
L 308.777147 53.677991 
L 313.516339 53.721795 
L 318.25553 53.745389 
L 322.994722 53.745389 
L 327.733913 53.818452 
L 332.473105 53.751007 
L 337.212296 53.7836 
L 341.951488 53.817328 
L 346.690679 53.761121 
L 351.429871 53.671254 
L 356.169062 53.738647 
L 360.908253 53.85669 
L 365.647445 53.726289 
L 370.386636 53.857814 
L 375.125828 53.879189 
L 379.865019 53.7364 
L 384.604211 53.730782 
L 389.343402 53.765617 
L 394.082594 53.733029 
L 398.821785 53.938835 
L 403.560977 53.763369 
L 408.300168 53.746513 
L 413.03936 53.821825 
L 417.778551 53.792593 
L 422.517742 53.676868 
L 427.256934 53.776856 
L 431.996125 53.718425 
L 436.735317 53.743142 
L 441.474508 53.768988 
L 446.2137 53.68136 
L 450.952891 53.69596 
L 455.692083 53.759998 
L 460.431274 53.763369 
L 461.8 53.761746 
" style="fill:none;stroke:#7f7f7f;stroke-dasharray:5.55,2.4;stroke-dashoffset:0;stroke-width:1.5;"/>
   </g>
   <g id="patch_3">
    <path d="M 57.6 307.584 
L 57.6 41.472 
" style="fill:none;stroke:#000000;stroke-linecap:square;stroke-linejoin:miter;stroke-width:0.8;"/>
   </g>
   <g id="patch_4">
    <path d="M 414.72 307.584 
L 414.72 41.472 
" style="fill:none;stroke:#000000;stroke-linecap:square;stroke-linejoin:miter;stroke-width:0.8;"/>
   </g>
   <g id="patch_5">
    <path d="M 57.6 307.584 
L 414.72 307.584 
" style="fill:none;stroke:#000000;stroke-linecap:square;stroke-linejoin:miter;stroke-width:0.8;"/>
   </g>
   <g id="patch_6">
    <path d="M 57.6 41.472 
L 414.72 41.472 
" style="fill:none;stroke:#000000;stroke-linecap:square;stroke-linejoin:miter;stroke-width:0.8;"/>
   </g>
   <g id="legend_1">
    <g id="patch_7">
     <path d="M 299.895 302.584 
L 407.72 302.584 
Q 409.72 302.584 409.72 300.584 
L 409.72 184.159 
Q 409.72 182.159 407.72 182.159 
L 299.895 182.159 
Q 297.895 182.159 297.895 184.159 
L 297.895 300.584 
Q 297.895 302.584 299.895 302.584 
z
" style="fill:#ffffff;opacity:0.8;stroke:#cccccc;stroke-linejoin:miter;"/>
    </g>
    <g id="line2d_49">
     <path d="M 301.895 190.257437 
L 321.895 190.257437 
" style="fill:none;stroke:#1f77b4;stroke-linecap:square;stroke-width:1.5;"/>
    </g>
    <g id="line2d_50"/>
    <g id="text_14">
     <!-- SGD, lr 10 -->
     <defs>
      <path d="M 53.515625 70.515625 
L 53.515625 60.890625 
Q 47.90625 63.578125 42.921875 64.890625 
Q 37.9375 66.21875 33.296875 66.21875 
Q 25.25 66.21875 20.875 63.09375 
Q 16.5 59.96875 16.5 54.203125 
Q 16.5 49.359375 19.40625 46.890625 
Q 22.3125 44.4375 30.421875 42.921875 
L 36.375 41.703125 
Q 47.40625 39.59375 52.65625 34.296875 
Q 57.90625 29 57.90625 20.125 
Q 57.90625 9.515625 50.796875 4.046875 
Q 43.703125 -1.421875 29.984375 -1.421875 
Q 24.8125 -1.421875 18.96875 -0.25 
Q 13.140625 0.921875 6.890625 3.21875 
L 6.890625 13.375 
Q 12.890625 10.015625 18.65625 8.296875 
Q 24.421875 6.59375 29.984375 6.59375 
Q 38.421875 6.59375 43.015625 9.90625 
Q 47.609375 13.234375 47.609375 19.390625 
Q 47.609375 24.75 44.3125 27.78125 
Q 41.015625 30.8125 33.5 32.328125 
L 27.484375 33.5 
Q 16.453125 35.6875 11.515625 40.375 
Q 6.59375 45.0625 6.59375 53.421875 
Q 6.59375 63.09375 13.40625 68.65625 
Q 20.21875 74.21875 32.171875 74.21875 
Q 37.3125 74.21875 42.625 73.28125 
Q 47.953125 72.359375 53.515625 70.515625 
z
" id="DejaVuSans-53"/>
      <path d="M 59.515625 10.40625 
L 59.515625 29.984375 
L 43.40625 29.984375 
L 43.40625 38.09375 
L 69.28125 38.09375 
L 69.28125 6.78125 
Q 63.578125 2.734375 56.6875 0.65625 
Q 49.8125 -1.421875 42 -1.421875 
Q 24.90625 -1.421875 15.25 8.5625 
Q 5.609375 18.5625 5.609375 36.375 
Q 5.609375 54.25 15.25 64.234375 
Q 24.90625 74.21875 42 74.21875 
Q 49.125 74.21875 55.546875 72.453125 
Q 61.96875 70.703125 67.390625 67.28125 
L 67.390625 56.78125 
Q 61.921875 61.421875 55.765625 63.765625 
Q 49.609375 66.109375 42.828125 66.109375 
Q 29.4375 66.109375 22.71875 58.640625 
Q 16.015625 51.171875 16.015625 36.375 
Q 16.015625 21.625 22.71875 14.15625 
Q 29.4375 6.6875 42.828125 6.6875 
Q 48.046875 6.6875 52.140625 7.59375 
Q 56.25 8.5 59.515625 10.40625 
z
" id="DejaVuSans-47"/>
      <path d="M 19.671875 64.796875 
L 19.671875 8.109375 
L 31.59375 8.109375 
Q 46.6875 8.109375 53.6875 14.9375 
Q 60.6875 21.78125 60.6875 36.53125 
Q 60.6875 51.171875 53.6875 57.984375 
Q 46.6875 64.796875 31.59375 64.796875 
z
M 9.8125 72.90625 
L 30.078125 72.90625 
Q 51.265625 72.90625 61.171875 64.09375 
Q 71.09375 55.28125 71.09375 36.53125 
Q 71.09375 17.671875 61.125 8.828125 
Q 51.171875 0 30.078125 0 
L 9.8125 0 
z
" id="DejaVuSans-44"/>
      <path d="M 11.71875 12.40625 
L 22.015625 12.40625 
L 22.015625 4 
L 14.015625 -11.625 
L 7.71875 -11.625 
L 11.71875 4 
z
" id="DejaVuSans-2c"/>
      <path d="M 9.421875 75.984375 
L 18.40625 75.984375 
L 18.40625 0 
L 9.421875 0 
z
" id="DejaVuSans-6c"/>
      <path d="M 41.109375 46.296875 
Q 39.59375 47.171875 37.8125 47.578125 
Q 36.03125 48 33.890625 48 
Q 26.265625 48 22.1875 43.046875 
Q 18.109375 38.09375 18.109375 28.8125 
L 18.109375 0 
L 9.078125 0 
L 9.078125 54.6875 
L 18.109375 54.6875 
L 18.109375 46.1875 
Q 20.953125 51.171875 25.484375 53.578125 
Q 30.03125 56 36.53125 56 
Q 37.453125 56 38.578125 55.875 
Q 39.703125 55.765625 41.0625 55.515625 
z
" id="DejaVuSans-72"/>
     </defs>
     <g transform="translate(329.895 193.757437)scale(0.1 -0.1)">
      <use xlink:href="#DejaVuSans-53"/>
      <use x="63.476562" xlink:href="#DejaVuSans-47"/>
      <use x="140.966797" xlink:href="#DejaVuSans-44"/>
      <use x="217.96875" xlink:href="#DejaVuSans-2c"/>
      <use x="249.755859" xlink:href="#DejaVuSans-20"/>
      <use x="281.542969" xlink:href="#DejaVuSans-6c"/>
      <use x="309.326172" xlink:href="#DejaVuSans-72"/>
      <use x="350.439453" xlink:href="#DejaVuSans-20"/>
      <use x="382.226562" xlink:href="#DejaVuSans-31"/>
      <use x="445.849609" xlink:href="#DejaVuSans-30"/>
     </g>
    </g>
    <g id="line2d_51">
     <path d="M 301.895 204.935563 
L 321.895 204.935563 
" style="fill:none;stroke:#ff7f0e;stroke-linecap:square;stroke-width:1.5;"/>
    </g>
    <g id="line2d_52"/>
    <g id="text_15">
     <!-- SGD, lr 1 -->
     <g transform="translate(329.895 208.435563)scale(0.1 -0.1)">
      <use xlink:href="#DejaVuSans-53"/>
      <use x="63.476562" xlink:href="#DejaVuSans-47"/>
      <use x="140.966797" xlink:href="#DejaVuSans-44"/>
      <use x="217.96875" xlink:href="#DejaVuSans-2c"/>
      <use x="249.755859" xlink:href="#DejaVuSans-20"/>
      <use x="281.542969" xlink:href="#DejaVuSans-6c"/>
      <use x="309.326172" xlink:href="#DejaVuSans-72"/>
      <use x="350.439453" xlink:href="#DejaVuSans-20"/>
      <use x="382.226562" xlink:href="#DejaVuSans-31"/>
     </g>
    </g>
    <g id="line2d_53">
     <path d="M 301.895 219.613687 
L 321.895 219.613687 
" style="fill:none;stroke:#2ca02c;stroke-linecap:square;stroke-width:1.5;"/>
    </g>
    <g id="line2d_54"/>
    <g id="text_16">
     <!-- SGD, lr 0.1 -->
     <defs>
      <path d="M 10.6875 12.40625 
L 21 12.40625 
L 21 0 
L 10.6875 0 
z
" id="DejaVuSans-2e"/>
     </defs>
     <g transform="translate(329.895 223.113687)scale(0.1 -0.1)">
      <use xlink:href="#DejaVuSans-53"/>
      <use x="63.476562" xlink:href="#DejaVuSans-47"/>
      <use x="140.966797" xlink:href="#DejaVuSans-44"/>
      <use x="217.96875" xlink:href="#DejaVuSans-2c"/>
      <use x="249.755859" xlink:href="#DejaVuSans-20"/>
      <use x="281.542969" xlink:href="#DejaVuSans-6c"/>
      <use x="309.326172" xlink:href="#DejaVuSans-72"/>
      <use x="350.439453" xlink:href="#DejaVuSans-20"/>
      <use x="382.226562" xlink:href="#DejaVuSans-30"/>
      <use x="445.849609" xlink:href="#DejaVuSans-2e"/>
      <use x="477.636719" xlink:href="#DejaVuSans-31"/>
     </g>
    </g>
    <g id="line2d_55">
     <path d="M 301.895 234.291812 
L 321.895 234.291812 
" style="fill:none;stroke:#d62728;stroke-linecap:square;stroke-width:1.5;"/>
    </g>
    <g id="line2d_56"/>
    <g id="text_17">
     <!-- SGD, lr 0.01 -->
     <g transform="translate(329.895 237.791812)scale(0.1 -0.1)">
      <use xlink:href="#DejaVuSans-53"/>
      <use x="63.476562" xlink:href="#DejaVuSans-47"/>
      <use x="140.966797" xlink:href="#DejaVuSans-44"/>
      <use x="217.96875" xlink:href="#DejaVuSans-2c"/>
      <use x="249.755859" xlink:href="#DejaVuSans-20"/>
      <use x="281.542969" xlink:href="#DejaVuSans-6c"/>
      <use x="309.326172" xlink:href="#DejaVuSans-72"/>
      <use x="350.439453" xlink:href="#DejaVuSans-20"/>
      <use x="382.226562" xlink:href="#DejaVuSans-30"/>
      <use x="445.849609" xlink:href="#DejaVuSans-2e"/>
      <use x="477.636719" xlink:href="#DejaVuSans-30"/>
      <use x="541.259766" xlink:href="#DejaVuSans-31"/>
     </g>
    </g>
    <g id="line2d_57">
     <path d="M 301.895 248.969937 
L 321.895 248.969937 
" style="fill:none;stroke:#9467bd;stroke-linecap:square;stroke-width:1.5;"/>
    </g>
    <g id="line2d_58"/>
    <g id="text_18">
     <!-- SGD, lr 0.001 -->
     <g transform="translate(329.895 252.469937)scale(0.1 -0.1)">
      <use xlink:href="#DejaVuSans-53"/>
      <use x="63.476562" xlink:href="#DejaVuSans-47"/>
      <use x="140.966797" xlink:href="#DejaVuSans-44"/>
      <use x="217.96875" xlink:href="#DejaVuSans-2c"/>
      <use x="249.755859" xlink:href="#DejaVuSans-20"/>
      <use x="281.542969" xlink:href="#DejaVuSans-6c"/>
      <use x="309.326172" xlink:href="#DejaVuSans-72"/>
      <use x="350.439453" xlink:href="#DejaVuSans-20"/>
      <use x="382.226562" xlink:href="#DejaVuSans-30"/>
      <use x="445.849609" xlink:href="#DejaVuSans-2e"/>
      <use x="477.636719" xlink:href="#DejaVuSans-30"/>
      <use x="541.259766" xlink:href="#DejaVuSans-30"/>
      <use x="604.882812" xlink:href="#DejaVuSans-31"/>
     </g>
    </g>
    <g id="line2d_59">
     <path d="M 301.895 263.648062 
L 321.895 263.648062 
" style="fill:none;stroke:#8c564b;stroke-dasharray:5.55,2.4;stroke-dashoffset:0;stroke-width:1.5;"/>
    </g>
    <g id="line2d_60"/>
    <g id="text_19">
     <!-- SGN, cg iter 10 -->
     <defs>
      <path d="M 9.8125 72.90625 
L 23.09375 72.90625 
L 55.421875 11.921875 
L 55.421875 72.90625 
L 64.984375 72.90625 
L 64.984375 0 
L 51.703125 0 
L 19.390625 60.984375 
L 19.390625 0 
L 9.8125 0 
z
" id="DejaVuSans-4e"/>
      <path d="M 45.40625 27.984375 
Q 45.40625 37.75 41.375 43.109375 
Q 37.359375 48.484375 30.078125 48.484375 
Q 22.859375 48.484375 18.828125 43.109375 
Q 14.796875 37.75 14.796875 27.984375 
Q 14.796875 18.265625 18.828125 12.890625 
Q 22.859375 7.515625 30.078125 7.515625 
Q 37.359375 7.515625 41.375 12.890625 
Q 45.40625 18.265625 45.40625 27.984375 
z
M 54.390625 6.78125 
Q 54.390625 -7.171875 48.1875 -13.984375 
Q 42 -20.796875 29.203125 -20.796875 
Q 24.46875 -20.796875 20.265625 -20.09375 
Q 16.0625 -19.390625 12.109375 -17.921875 
L 12.109375 -9.1875 
Q 16.0625 -11.328125 19.921875 -12.34375 
Q 23.78125 -13.375 27.78125 -13.375 
Q 36.625 -13.375 41.015625 -8.765625 
Q 45.40625 -4.15625 45.40625 5.171875 
L 45.40625 9.625 
Q 42.625 4.78125 38.28125 2.390625 
Q 33.9375 0 27.875 0 
Q 17.828125 0 11.671875 7.65625 
Q 5.515625 15.328125 5.515625 27.984375 
Q 5.515625 40.671875 11.671875 48.328125 
Q 17.828125 56 27.875 56 
Q 33.9375 56 38.28125 53.609375 
Q 42.625 51.21875 45.40625 46.390625 
L 45.40625 54.6875 
L 54.390625 54.6875 
z
" id="DejaVuSans-67"/>
      <path d="M 9.421875 54.6875 
L 18.40625 54.6875 
L 18.40625 0 
L 9.421875 0 
z
M 9.421875 75.984375 
L 18.40625 75.984375 
L 18.40625 64.59375 
L 9.421875 64.59375 
z
" id="DejaVuSans-69"/>
     </defs>
     <g transform="translate(329.895 267.148062)scale(0.1 -0.1)">
      <use xlink:href="#DejaVuSans-53"/>
      <use x="63.476562" xlink:href="#DejaVuSans-47"/>
      <use x="140.966797" xlink:href="#DejaVuSans-4e"/>
      <use x="215.771484" xlink:href="#DejaVuSans-2c"/>
      <use x="247.558594" xlink:href="#DejaVuSans-20"/>
      <use x="279.345703" xlink:href="#DejaVuSans-63"/>
      <use x="334.326172" xlink:href="#DejaVuSans-67"/>
      <use x="397.802734" xlink:href="#DejaVuSans-20"/>
      <use x="429.589844" xlink:href="#DejaVuSans-69"/>
      <use x="457.373047" xlink:href="#DejaVuSans-74"/>
      <use x="496.582031" xlink:href="#DejaVuSans-65"/>
      <use x="558.105469" xlink:href="#DejaVuSans-72"/>
      <use x="599.21875" xlink:href="#DejaVuSans-20"/>
      <use x="631.005859" xlink:href="#DejaVuSans-31"/>
      <use x="694.628906" xlink:href="#DejaVuSans-30"/>
     </g>
    </g>
    <g id="line2d_61">
     <path d="M 301.895 278.326187 
L 321.895 278.326187 
" style="fill:none;stroke:#e377c2;stroke-dasharray:5.55,2.4;stroke-dashoffset:0;stroke-width:1.5;"/>
    </g>
    <g id="line2d_62"/>
    <g id="text_20">
     <!-- SGN, cg iter 5 -->
     <g transform="translate(329.895 281.826187)scale(0.1 -0.1)">
      <use xlink:href="#DejaVuSans-53"/>
      <use x="63.476562" xlink:href="#DejaVuSans-47"/>
      <use x="140.966797" xlink:href="#DejaVuSans-4e"/>
      <use x="215.771484" xlink:href="#DejaVuSans-2c"/>
      <use x="247.558594" xlink:href="#DejaVuSans-20"/>
      <use x="279.345703" xlink:href="#DejaVuSans-63"/>
      <use x="334.326172" xlink:href="#DejaVuSans-67"/>
      <use x="397.802734" xlink:href="#DejaVuSans-20"/>
      <use x="429.589844" xlink:href="#DejaVuSans-69"/>
      <use x="457.373047" xlink:href="#DejaVuSans-74"/>
      <use x="496.582031" xlink:href="#DejaVuSans-65"/>
      <use x="558.105469" xlink:href="#DejaVuSans-72"/>
      <use x="599.21875" xlink:href="#DejaVuSans-20"/>
      <use x="631.005859" xlink:href="#DejaVuSans-35"/>
     </g>
    </g>
    <g id="line2d_63">
     <path d="M 301.895 293.004312 
L 321.895 293.004312 
" style="fill:none;stroke:#7f7f7f;stroke-dasharray:5.55,2.4;stroke-dashoffset:0;stroke-width:1.5;"/>
    </g>
    <g id="line2d_64"/>
    <g id="text_21">
     <!-- SGN, cg iter 3 -->
     <defs>
      <path d="M 40.578125 39.3125 
Q 47.65625 37.796875 51.625 33 
Q 55.609375 28.21875 55.609375 21.1875 
Q 55.609375 10.40625 48.1875 4.484375 
Q 40.765625 -1.421875 27.09375 -1.421875 
Q 22.515625 -1.421875 17.65625 -0.515625 
Q 12.796875 0.390625 7.625 2.203125 
L 7.625 11.71875 
Q 11.71875 9.328125 16.59375 8.109375 
Q 21.484375 6.890625 26.8125 6.890625 
Q 36.078125 6.890625 40.9375 10.546875 
Q 45.796875 14.203125 45.796875 21.1875 
Q 45.796875 27.640625 41.28125 31.265625 
Q 36.765625 34.90625 28.71875 34.90625 
L 20.21875 34.90625 
L 20.21875 43.015625 
L 29.109375 43.015625 
Q 36.375 43.015625 40.234375 45.921875 
Q 44.09375 48.828125 44.09375 54.296875 
Q 44.09375 59.90625 40.109375 62.90625 
Q 36.140625 65.921875 28.71875 65.921875 
Q 24.65625 65.921875 20.015625 65.03125 
Q 15.375 64.15625 9.8125 62.3125 
L 9.8125 71.09375 
Q 15.4375 72.65625 20.34375 73.4375 
Q 25.25 74.21875 29.59375 74.21875 
Q 40.828125 74.21875 47.359375 69.109375 
Q 53.90625 64.015625 53.90625 55.328125 
Q 53.90625 49.265625 50.4375 45.09375 
Q 46.96875 40.921875 40.578125 39.3125 
z
" id="DejaVuSans-33"/>
     </defs>
     <g transform="translate(329.895 296.504312)scale(0.1 -0.1)">
      <use xlink:href="#DejaVuSans-53"/>
      <use x="63.476562" xlink:href="#DejaVuSans-47"/>
      <use x="140.966797" xlink:href="#DejaVuSans-4e"/>
      <use x="215.771484" xlink:href="#DejaVuSans-2c"/>
      <use x="247.558594" xlink:href="#DejaVuSans-20"/>
      <use x="279.345703" xlink:href="#DejaVuSans-63"/>
      <use x="334.326172" xlink:href="#DejaVuSans-67"/>
      <use x="397.802734" xlink:href="#DejaVuSans-20"/>
      <use x="429.589844" xlink:href="#DejaVuSans-69"/>
      <use x="457.373047" xlink:href="#DejaVuSans-74"/>
      <use x="496.582031" xlink:href="#DejaVuSans-65"/>
      <use x="558.105469" xlink:href="#DejaVuSans-72"/>
      <use x="599.21875" xlink:href="#DejaVuSans-20"/>
      <use x="631.005859" xlink:href="#DejaVuSans-33"/>
     </g>
    </g>
   </g>
  </g>
 </g>
 <defs>
  <clipPath id="p2cd6efadea">
   <rect height="266.112" width="357.12" x="57.6" y="41.472"/>
  </clipPath>
 </defs>
</svg>
