<?xml version="1.0" encoding="utf-8" standalone="no"?>
<!DOCTYPE svg PUBLIC "-//W3C//DTD SVG 1.1//EN"
  "http://www.w3.org/Graphics/SVG/1.1/DTD/svg11.dtd">
<!-- Created with matplotlib (http://matplotlib.org/) -->
<svg height="345.6pt" version="1.1" viewBox="0 0 460.8 345.6" width="460.8pt" xmlns="http://www.w3.org/2000/svg" xmlns:xlink="http://www.w3.org/1999/xlink">
 <defs>
  <style type="text/css">
*{stroke-linecap:butt;stroke-linejoin:round;}
  </style>
 </defs>
 <g id="figure_1">
  <g id="patch_1">
   <path d="M 0 345.6 
L 460.8 345.6 
L 460.8 0 
L 0 0 
z
" style="fill:#ffffff;"/>
  </g>
  <g id="axes_1">
   <g id="patch_2">
    <path d="M 57.6 307.584 
L 414.72 307.584 
L 414.72 41.472 
L 57.6 41.472 
z
" style="fill:#ffffff;"/>
   </g>
   <g id="matplotlib.axis_1">
    <g id="xtick_1">
     <g id="line2d_1">
      <path clip-path="url(#p878f424692)" d="M 57.6 307.584 
L 57.6 41.472 
" style="fill:none;stroke:#b0b0b0;stroke-linecap:square;stroke-width:0.8;"/>
     </g>
     <g id="line2d_2">
      <defs>
       <path d="M 0 0 
L 0 3.5 
" id="m16d00823f4" style="stroke:#000000;stroke-width:0.8;"/>
      </defs>
      <g>
       <use style="stroke:#000000;stroke-width:0.8;" x="57.6" xlink:href="#m16d00823f4" y="307.584"/>
      </g>
     </g>
     <g id="text_1">
      <!-- 0 -->
      <defs>
       <path d="M 31.78125 66.40625 
Q 24.171875 66.40625 20.328125 58.90625 
Q 16.5 51.421875 16.5 36.375 
Q 16.5 21.390625 20.328125 13.890625 
Q 24.171875 6.390625 31.78125 6.390625 
Q 39.453125 6.390625 43.28125 13.890625 
Q 47.125 21.390625 47.125 36.375 
Q 47.125 51.421875 43.28125 58.90625 
Q 39.453125 66.40625 31.78125 66.40625 
z
M 31.78125 74.21875 
Q 44.046875 74.21875 50.515625 64.515625 
Q 56.984375 54.828125 56.984375 36.375 
Q 56.984375 17.96875 50.515625 8.265625 
Q 44.046875 -1.421875 31.78125 -1.421875 
Q 19.53125 -1.421875 13.0625 8.265625 
Q 6.59375 17.96875 6.59375 36.375 
Q 6.59375 54.828125 13.0625 64.515625 
Q 19.53125 74.21875 31.78125 74.21875 
z
" id="DejaVuSans-30"/>
      </defs>
      <g transform="translate(54.41875 322.182437)scale(0.1 -0.1)">
       <use xlink:href="#DejaVuSans-30"/>
      </g>
     </g>
    </g>
    <g id="xtick_2">
     <g id="line2d_3">
      <path clip-path="url(#p878f424692)" d="M 102.24 307.584 
L 102.24 41.472 
" style="fill:none;stroke:#b0b0b0;stroke-linecap:square;stroke-width:0.8;"/>
     </g>
     <g id="line2d_4">
      <g>
       <use style="stroke:#000000;stroke-width:0.8;" x="102.24" xlink:href="#m16d00823f4" y="307.584"/>
      </g>
     </g>
     <g id="text_2">
      <!-- 25 -->
      <defs>
       <path d="M 19.1875 8.296875 
L 53.609375 8.296875 
L 53.609375 0 
L 7.328125 0 
L 7.328125 8.296875 
Q 12.9375 14.109375 22.625 23.890625 
Q 32.328125 33.6875 34.8125 36.53125 
Q 39.546875 41.84375 41.421875 45.53125 
Q 43.3125 49.21875 43.3125 52.78125 
Q 43.3125 58.59375 39.234375 62.25 
Q 35.15625 65.921875 28.609375 65.921875 
Q 23.96875 65.921875 18.8125 64.3125 
Q 13.671875 62.703125 7.8125 59.421875 
L 7.8125 69.390625 
Q 13.765625 71.78125 18.9375 73 
Q 24.125 74.21875 28.421875 74.21875 
Q 39.75 74.21875 46.484375 68.546875 
Q 53.21875 62.890625 53.21875 53.421875 
Q 53.21875 48.921875 51.53125 44.890625 
Q 49.859375 40.875 45.40625 35.40625 
Q 44.1875 33.984375 37.640625 27.21875 
Q 31.109375 20.453125 19.1875 8.296875 
z
" id="DejaVuSans-32"/>
       <path d="M 10.796875 72.90625 
L 49.515625 72.90625 
L 49.515625 64.59375 
L 19.828125 64.59375 
L 19.828125 46.734375 
Q 21.96875 47.46875 24.109375 47.828125 
Q 26.265625 48.1875 28.421875 48.1875 
Q 40.625 48.1875 47.75 41.5 
Q 54.890625 34.8125 54.890625 23.390625 
Q 54.890625 11.625 47.5625 5.09375 
Q 40.234375 -1.421875 26.90625 -1.421875 
Q 22.3125 -1.421875 17.546875 -0.640625 
Q 12.796875 0.140625 7.71875 1.703125 
L 7.71875 11.625 
Q 12.109375 9.234375 16.796875 8.0625 
Q 21.484375 6.890625 26.703125 6.890625 
Q 35.15625 6.890625 40.078125 11.328125 
Q 45.015625 15.765625 45.015625 23.390625 
Q 45.015625 31 40.078125 35.4375 
Q 35.15625 39.890625 26.703125 39.890625 
Q 22.75 39.890625 18.8125 39.015625 
Q 14.890625 38.140625 10.796875 36.28125 
z
" id="DejaVuSans-35"/>
      </defs>
      <g transform="translate(95.8775 322.182437)scale(0.1 -0.1)">
       <use xlink:href="#DejaVuSans-32"/>
       <use x="63.623047" xlink:href="#DejaVuSans-35"/>
      </g>
     </g>
    </g>
    <g id="xtick_3">
     <g id="line2d_5">
      <path clip-path="url(#p878f424692)" d="M 146.88 307.584 
L 146.88 41.472 
" style="fill:none;stroke:#b0b0b0;stroke-linecap:square;stroke-width:0.8;"/>
     </g>
     <g id="line2d_6">
      <g>
       <use style="stroke:#000000;stroke-width:0.8;" x="146.88" xlink:href="#m16d00823f4" y="307.584"/>
      </g>
     </g>
     <g id="text_3">
      <!-- 50 -->
      <g transform="translate(140.5175 322.182437)scale(0.1 -0.1)">
       <use xlink:href="#DejaVuSans-35"/>
       <use x="63.623047" xlink:href="#DejaVuSans-30"/>
      </g>
     </g>
    </g>
    <g id="xtick_4">
     <g id="line2d_7">
      <path clip-path="url(#p878f424692)" d="M 191.52 307.584 
L 191.52 41.472 
" style="fill:none;stroke:#b0b0b0;stroke-linecap:square;stroke-width:0.8;"/>
     </g>
     <g id="line2d_8">
      <g>
       <use style="stroke:#000000;stroke-width:0.8;" x="191.52" xlink:href="#m16d00823f4" y="307.584"/>
      </g>
     </g>
     <g id="text_4">
      <!-- 75 -->
      <defs>
       <path d="M 8.203125 72.90625 
L 55.078125 72.90625 
L 55.078125 68.703125 
L 28.609375 0 
L 18.3125 0 
L 43.21875 64.59375 
L 8.203125 64.59375 
z
" id="DejaVuSans-37"/>
      </defs>
      <g transform="translate(185.1575 322.182437)scale(0.1 -0.1)">
       <use xlink:href="#DejaVuSans-37"/>
       <use x="63.623047" xlink:href="#DejaVuSans-35"/>
      </g>
     </g>
    </g>
    <g id="xtick_5">
     <g id="line2d_9">
      <path clip-path="url(#p878f424692)" d="M 236.16 307.584 
L 236.16 41.472 
" style="fill:none;stroke:#b0b0b0;stroke-linecap:square;stroke-width:0.8;"/>
     </g>
     <g id="line2d_10">
      <g>
       <use style="stroke:#000000;stroke-width:0.8;" x="236.16" xlink:href="#m16d00823f4" y="307.584"/>
      </g>
     </g>
     <g id="text_5">
      <!-- 100 -->
      <defs>
       <path d="M 12.40625 8.296875 
L 28.515625 8.296875 
L 28.515625 63.921875 
L 10.984375 60.40625 
L 10.984375 69.390625 
L 28.421875 72.90625 
L 38.28125 72.90625 
L 38.28125 8.296875 
L 54.390625 8.296875 
L 54.390625 0 
L 12.40625 0 
z
" id="DejaVuSans-31"/>
      </defs>
      <g transform="translate(226.61625 322.182437)scale(0.1 -0.1)">
       <use xlink:href="#DejaVuSans-31"/>
       <use x="63.623047" xlink:href="#DejaVuSans-30"/>
       <use x="127.246094" xlink:href="#DejaVuSans-30"/>
      </g>
     </g>
    </g>
    <g id="xtick_6">
     <g id="line2d_11">
      <path clip-path="url(#p878f424692)" d="M 280.8 307.584 
L 280.8 41.472 
" style="fill:none;stroke:#b0b0b0;stroke-linecap:square;stroke-width:0.8;"/>
     </g>
     <g id="line2d_12">
      <g>
       <use style="stroke:#000000;stroke-width:0.8;" x="280.8" xlink:href="#m16d00823f4" y="307.584"/>
      </g>
     </g>
     <g id="text_6">
      <!-- 125 -->
      <g transform="translate(271.25625 322.182437)scale(0.1 -0.1)">
       <use xlink:href="#DejaVuSans-31"/>
       <use x="63.623047" xlink:href="#DejaVuSans-32"/>
       <use x="127.246094" xlink:href="#DejaVuSans-35"/>
      </g>
     </g>
    </g>
    <g id="xtick_7">
     <g id="line2d_13">
      <path clip-path="url(#p878f424692)" d="M 325.44 307.584 
L 325.44 41.472 
" style="fill:none;stroke:#b0b0b0;stroke-linecap:square;stroke-width:0.8;"/>
     </g>
     <g id="line2d_14">
      <g>
       <use style="stroke:#000000;stroke-width:0.8;" x="325.44" xlink:href="#m16d00823f4" y="307.584"/>
      </g>
     </g>
     <g id="text_7">
      <!-- 150 -->
      <g transform="translate(315.89625 322.182437)scale(0.1 -0.1)">
       <use xlink:href="#DejaVuSans-31"/>
       <use x="63.623047" xlink:href="#DejaVuSans-35"/>
       <use x="127.246094" xlink:href="#DejaVuSans-30"/>
      </g>
     </g>
    </g>
    <g id="xtick_8">
     <g id="line2d_15">
      <path clip-path="url(#p878f424692)" d="M 370.08 307.584 
L 370.08 41.472 
" style="fill:none;stroke:#b0b0b0;stroke-linecap:square;stroke-width:0.8;"/>
     </g>
     <g id="line2d_16">
      <g>
       <use style="stroke:#000000;stroke-width:0.8;" x="370.08" xlink:href="#m16d00823f4" y="307.584"/>
      </g>
     </g>
     <g id="text_8">
      <!-- 175 -->
      <g transform="translate(360.53625 322.182437)scale(0.1 -0.1)">
       <use xlink:href="#DejaVuSans-31"/>
       <use x="63.623047" xlink:href="#DejaVuSans-37"/>
       <use x="127.246094" xlink:href="#DejaVuSans-35"/>
      </g>
     </g>
    </g>
    <g id="xtick_9">
     <g id="line2d_17">
      <path clip-path="url(#p878f424692)" d="M 414.72 307.584 
L 414.72 41.472 
" style="fill:none;stroke:#b0b0b0;stroke-linecap:square;stroke-width:0.8;"/>
     </g>
     <g id="line2d_18">
      <g>
       <use style="stroke:#000000;stroke-width:0.8;" x="414.72" xlink:href="#m16d00823f4" y="307.584"/>
      </g>
     </g>
     <g id="text_9">
      <!-- 200 -->
      <g transform="translate(405.17625 322.182437)scale(0.1 -0.1)">
       <use xlink:href="#DejaVuSans-32"/>
       <use x="63.623047" xlink:href="#DejaVuSans-30"/>
       <use x="127.246094" xlink:href="#DejaVuSans-30"/>
      </g>
     </g>
    </g>
    <g id="text_10">
     <!-- sec -->
     <defs>
      <path d="M 44.28125 53.078125 
L 44.28125 44.578125 
Q 40.484375 46.53125 36.375 47.5 
Q 32.28125 48.484375 27.875 48.484375 
Q 21.1875 48.484375 17.84375 46.4375 
Q 14.5 44.390625 14.5 40.28125 
Q 14.5 37.15625 16.890625 35.375 
Q 19.28125 33.59375 26.515625 31.984375 
L 29.59375 31.296875 
Q 39.15625 29.25 43.1875 25.515625 
Q 47.21875 21.78125 47.21875 15.09375 
Q 47.21875 7.46875 41.1875 3.015625 
Q 35.15625 -1.421875 24.609375 -1.421875 
Q 20.21875 -1.421875 15.453125 -0.5625 
Q 10.6875 0.296875 5.421875 2 
L 5.421875 11.28125 
Q 10.40625 8.6875 15.234375 7.390625 
Q 20.0625 6.109375 24.8125 6.109375 
Q 31.15625 6.109375 34.5625 8.28125 
Q 37.984375 10.453125 37.984375 14.40625 
Q 37.984375 18.0625 35.515625 20.015625 
Q 33.0625 21.96875 24.703125 23.78125 
L 21.578125 24.515625 
Q 13.234375 26.265625 9.515625 29.90625 
Q 5.8125 33.546875 5.8125 39.890625 
Q 5.8125 47.609375 11.28125 51.796875 
Q 16.75 56 26.8125 56 
Q 31.78125 56 36.171875 55.265625 
Q 40.578125 54.546875 44.28125 53.078125 
z
" id="DejaVuSans-73"/>
      <path d="M 56.203125 29.59375 
L 56.203125 25.203125 
L 14.890625 25.203125 
Q 15.484375 15.921875 20.484375 11.0625 
Q 25.484375 6.203125 34.421875 6.203125 
Q 39.59375 6.203125 44.453125 7.46875 
Q 49.3125 8.734375 54.109375 11.28125 
L 54.109375 2.78125 
Q 49.265625 0.734375 44.1875 -0.34375 
Q 39.109375 -1.421875 33.890625 -1.421875 
Q 20.796875 -1.421875 13.15625 6.1875 
Q 5.515625 13.8125 5.515625 26.8125 
Q 5.515625 40.234375 12.765625 48.109375 
Q 20.015625 56 32.328125 56 
Q 43.359375 56 49.78125 48.890625 
Q 56.203125 41.796875 56.203125 29.59375 
z
M 47.21875 32.234375 
Q 47.125 39.59375 43.09375 43.984375 
Q 39.0625 48.390625 32.421875 48.390625 
Q 24.90625 48.390625 20.390625 44.140625 
Q 15.875 39.890625 15.1875 32.171875 
z
" id="DejaVuSans-65"/>
      <path d="M 48.78125 52.59375 
L 48.78125 44.1875 
Q 44.96875 46.296875 41.140625 47.34375 
Q 37.3125 48.390625 33.40625 48.390625 
Q 24.65625 48.390625 19.8125 42.84375 
Q 14.984375 37.3125 14.984375 27.296875 
Q 14.984375 17.28125 19.8125 11.734375 
Q 24.65625 6.203125 33.40625 6.203125 
Q 37.3125 6.203125 41.140625 7.25 
Q 44.96875 8.296875 48.78125 10.40625 
L 48.78125 2.09375 
Q 45.015625 0.34375 40.984375 -0.53125 
Q 36.96875 -1.421875 32.421875 -1.421875 
Q 20.0625 -1.421875 12.78125 6.34375 
Q 5.515625 14.109375 5.515625 27.296875 
Q 5.515625 40.671875 12.859375 48.328125 
Q 20.21875 56 33.015625 56 
Q 37.15625 56 41.109375 55.140625 
Q 45.0625 54.296875 48.78125 52.59375 
z
" id="DejaVuSans-63"/>
     </defs>
     <g transform="translate(227.729531 335.860562)scale(0.1 -0.1)">
      <use xlink:href="#DejaVuSans-73"/>
      <use x="52.099609" xlink:href="#DejaVuSans-65"/>
      <use x="113.623047" xlink:href="#DejaVuSans-63"/>
     </g>
    </g>
   </g>
   <g id="matplotlib.axis_2">
    <g id="ytick_1">
     <g id="line2d_19">
      <path clip-path="url(#p878f424692)" d="M 57.6 290.189062 
L 414.72 290.189062 
" style="fill:none;stroke:#b0b0b0;stroke-linecap:square;stroke-width:0.8;"/>
     </g>
     <g id="line2d_20">
      <defs>
       <path d="M 0 0 
L -3.5 0 
" id="m33f8784079" style="stroke:#000000;stroke-width:0.8;"/>
      </defs>
      <g>
       <use style="stroke:#000000;stroke-width:0.8;" x="57.6" xlink:href="#m33f8784079" y="290.189062"/>
      </g>
     </g>
     <g id="text_11">
      <!-- $\mathdefault{10^{-1}}$ -->
      <defs>
       <path d="M 10.59375 35.5 
L 73.1875 35.5 
L 73.1875 27.203125 
L 10.59375 27.203125 
z
" id="DejaVuSans-2212"/>
      </defs>
      <g transform="translate(27.1 293.988281)scale(0.1 -0.1)">
       <use transform="translate(0 0.684375)" xlink:href="#DejaVuSans-31"/>
       <use transform="translate(63.623047 0.684375)" xlink:href="#DejaVuSans-30"/>
       <use transform="translate(128.203125 38.965625)scale(0.7)" xlink:href="#DejaVuSans-2212"/>
       <use transform="translate(186.855469 38.965625)scale(0.7)" xlink:href="#DejaVuSans-31"/>
      </g>
     </g>
    </g>
    <g id="ytick_2">
     <g id="line2d_21">
      <path clip-path="url(#p878f424692)" d="M 57.6 47.335566 
L 414.72 47.335566 
" style="fill:none;stroke:#b0b0b0;stroke-linecap:square;stroke-width:0.8;"/>
     </g>
     <g id="line2d_22">
      <g>
       <use style="stroke:#000000;stroke-width:0.8;" x="57.6" xlink:href="#m33f8784079" y="47.335566"/>
      </g>
     </g>
     <g id="text_12">
      <!-- $\mathdefault{10^{0}}$ -->
      <g transform="translate(33 51.134785)scale(0.1 -0.1)">
       <use transform="translate(0 0.765625)" xlink:href="#DejaVuSans-31"/>
       <use transform="translate(63.623047 0.765625)" xlink:href="#DejaVuSans-30"/>
       <use transform="translate(128.203125 39.046875)scale(0.7)" xlink:href="#DejaVuSans-30"/>
      </g>
     </g>
    </g>
    <g id="ytick_3">
     <g id="line2d_23">
      <path clip-path="url(#p878f424692)" d="M 57.6 301.301429 
L 414.72 301.301429 
" style="fill:none;stroke:#b0b0b0;stroke-linecap:square;stroke-width:0.8;"/>
     </g>
     <g id="line2d_24">
      <defs>
       <path d="M 0 0 
L -2 0 
" id="m655ae5cb6a" style="stroke:#000000;stroke-width:0.6;"/>
      </defs>
      <g>
       <use style="stroke:#000000;stroke-width:0.6;" x="57.6" xlink:href="#m655ae5cb6a" y="301.301429"/>
      </g>
     </g>
    </g>
    <g id="ytick_4">
     <g id="line2d_25">
      <path clip-path="url(#p878f424692)" d="M 57.6 217.082875 
L 414.72 217.082875 
" style="fill:none;stroke:#b0b0b0;stroke-linecap:square;stroke-width:0.8;"/>
     </g>
     <g id="line2d_26">
      <g>
       <use style="stroke:#000000;stroke-width:0.6;" x="57.6" xlink:href="#m655ae5cb6a" y="217.082875"/>
      </g>
     </g>
    </g>
    <g id="ytick_5">
     <g id="line2d_27">
      <path clip-path="url(#p878f424692)" d="M 57.6 174.318497 
L 414.72 174.318497 
" style="fill:none;stroke:#b0b0b0;stroke-linecap:square;stroke-width:0.8;"/>
     </g>
     <g id="line2d_28">
      <g>
       <use style="stroke:#000000;stroke-width:0.6;" x="57.6" xlink:href="#m655ae5cb6a" y="174.318497"/>
      </g>
     </g>
    </g>
    <g id="ytick_6">
     <g id="line2d_29">
      <path clip-path="url(#p878f424692)" d="M 57.6 143.976688 
L 414.72 143.976688 
" style="fill:none;stroke:#b0b0b0;stroke-linecap:square;stroke-width:0.8;"/>
     </g>
     <g id="line2d_30">
      <g>
       <use style="stroke:#000000;stroke-width:0.6;" x="57.6" xlink:href="#m655ae5cb6a" y="143.976688"/>
      </g>
     </g>
    </g>
    <g id="ytick_7">
     <g id="line2d_31">
      <path clip-path="url(#p878f424692)" d="M 57.6 120.441753 
L 414.72 120.441753 
" style="fill:none;stroke:#b0b0b0;stroke-linecap:square;stroke-width:0.8;"/>
     </g>
     <g id="line2d_32">
      <g>
       <use style="stroke:#000000;stroke-width:0.6;" x="57.6" xlink:href="#m655ae5cb6a" y="120.441753"/>
      </g>
     </g>
    </g>
    <g id="ytick_8">
     <g id="line2d_33">
      <path clip-path="url(#p878f424692)" d="M 57.6 101.21231 
L 414.72 101.21231 
" style="fill:none;stroke:#b0b0b0;stroke-linecap:square;stroke-width:0.8;"/>
     </g>
     <g id="line2d_34">
      <g>
       <use style="stroke:#000000;stroke-width:0.6;" x="57.6" xlink:href="#m655ae5cb6a" y="101.21231"/>
      </g>
     </g>
    </g>
    <g id="ytick_9">
     <g id="line2d_35">
      <path clip-path="url(#p878f424692)" d="M 57.6 84.954048 
L 414.72 84.954048 
" style="fill:none;stroke:#b0b0b0;stroke-linecap:square;stroke-width:0.8;"/>
     </g>
     <g id="line2d_36">
      <g>
       <use style="stroke:#000000;stroke-width:0.6;" x="57.6" xlink:href="#m655ae5cb6a" y="84.954048"/>
      </g>
     </g>
    </g>
    <g id="ytick_10">
     <g id="line2d_37">
      <path clip-path="url(#p878f424692)" d="M 57.6 70.870501 
L 414.72 70.870501 
" style="fill:none;stroke:#b0b0b0;stroke-linecap:square;stroke-width:0.8;"/>
     </g>
     <g id="line2d_38">
      <g>
       <use style="stroke:#000000;stroke-width:0.6;" x="57.6" xlink:href="#m655ae5cb6a" y="70.870501"/>
      </g>
     </g>
    </g>
    <g id="ytick_11">
     <g id="line2d_39">
      <path clip-path="url(#p878f424692)" d="M 57.6 58.447932 
L 414.72 58.447932 
" style="fill:none;stroke:#b0b0b0;stroke-linecap:square;stroke-width:0.8;"/>
     </g>
     <g id="line2d_40">
      <g>
       <use style="stroke:#000000;stroke-width:0.6;" x="57.6" xlink:href="#m655ae5cb6a" y="58.447932"/>
      </g>
     </g>
    </g>
    <g id="text_13">
     <!-- test acc -->
     <defs>
      <path d="M 18.3125 70.21875 
L 18.3125 54.6875 
L 36.8125 54.6875 
L 36.8125 47.703125 
L 18.3125 47.703125 
L 18.3125 18.015625 
Q 18.3125 11.328125 20.140625 9.421875 
Q 21.96875 7.515625 27.59375 7.515625 
L 36.8125 7.515625 
L 36.8125 0 
L 27.59375 0 
Q 17.1875 0 13.234375 3.875 
Q 9.28125 7.765625 9.28125 18.015625 
L 9.28125 47.703125 
L 2.6875 47.703125 
L 2.6875 54.6875 
L 9.28125 54.6875 
L 9.28125 70.21875 
z
" id="DejaVuSans-74"/>
      <path id="DejaVuSans-20"/>
      <path d="M 34.28125 27.484375 
Q 23.390625 27.484375 19.1875 25 
Q 14.984375 22.515625 14.984375 16.5 
Q 14.984375 11.71875 18.140625 8.90625 
Q 21.296875 6.109375 26.703125 6.109375 
Q 34.1875 6.109375 38.703125 11.40625 
Q 43.21875 16.703125 43.21875 25.484375 
L 43.21875 27.484375 
z
M 52.203125 31.203125 
L 52.203125 0 
L 43.21875 0 
L 43.21875 8.296875 
Q 40.140625 3.328125 35.546875 0.953125 
Q 30.953125 -1.421875 24.3125 -1.421875 
Q 15.921875 -1.421875 10.953125 3.296875 
Q 6 8.015625 6 15.921875 
Q 6 25.140625 12.171875 29.828125 
Q 18.359375 34.515625 30.609375 34.515625 
L 43.21875 34.515625 
L 43.21875 35.40625 
Q 43.21875 41.609375 39.140625 45 
Q 35.0625 48.390625 27.6875 48.390625 
Q 23 48.390625 18.546875 47.265625 
Q 14.109375 46.140625 10.015625 43.890625 
L 10.015625 52.203125 
Q 14.9375 54.109375 19.578125 55.046875 
Q 24.21875 56 28.609375 56 
Q 40.484375 56 46.34375 49.84375 
Q 52.203125 43.703125 52.203125 31.203125 
z
" id="DejaVuSans-61"/>
     </defs>
     <g transform="translate(21.020312 194.281125)rotate(-90)scale(0.1 -0.1)">
      <use xlink:href="#DejaVuSans-74"/>
      <use x="39.208984" xlink:href="#DejaVuSans-65"/>
      <use x="100.732422" xlink:href="#DejaVuSans-73"/>
      <use x="152.832031" xlink:href="#DejaVuSans-74"/>
      <use x="192.041016" xlink:href="#DejaVuSans-20"/>
      <use x="223.828125" xlink:href="#DejaVuSans-61"/>
      <use x="285.107422" xlink:href="#DejaVuSans-63"/>
      <use x="340.087891" xlink:href="#DejaVuSans-63"/>
     </g>
    </g>
   </g>
   <g id="line2d_41">
    <path clip-path="url(#p878f424692)" d="M 58.834443 290.527107 
L 60.068885 293.075901 
L 61.303328 287.955817 
L 62.53777 290.569439 
L 63.772213 288.78515 
L 65.006656 285.687998 
L 66.241098 289.285899 
L 67.475541 294.187382 
L 68.709983 288.411143 
L 69.944426 290.146883 
L 71.178868 287.852607 
L 72.413311 295.488 
L 73.647754 288.286768 
L 74.882196 287.646491 
L 76.116639 293.140959 
L 77.351081 291.313011 
L 78.585524 290.590611 
L 79.819967 292.061862 
L 81.054409 287.030546 
L 82.288852 289.747016 
L 83.523294 291.185169 
L 84.757737 289.579104 
L 85.99218 268.423912 
L 87.226622 269.857959 
L 88.461065 269.771017 
L 89.695507 265.98127 
L 90.92995 243.288078 
L 92.164393 248.983033 
L 93.398835 251.364597 
L 94.633278 270.48607 
L 95.86772 253.443252 
L 97.102163 252.908625 
L 98.336605 248.342741 
L 99.571048 240.723333 
L 100.805491 247.776838 
L 102.039933 274.771878 
L 103.274376 246.821717 
L 104.508818 252.642324 
L 105.743261 253.666816 
L 106.977704 229.19608 
L 108.212146 224.816317 
L 109.446589 209.809014 
L 110.681031 191.211485 
L 111.915474 191.227992 
L 113.149917 183.933711 
L 114.384359 180.299851 
L 115.618802 184.536221 
L 116.853244 171.947662 
L 118.087687 168.192781 
L 119.322129 165.811514 
L 120.556572 153.749921 
L 121.791015 150.508293 
L 123.025457 142.286957 
L 124.2599 137.572687 
L 125.494342 137.374361 
L 126.728785 131.394863 
L 127.963228 146.333716 
L 129.19767 133.007858 
L 130.432113 130.073913 
L 131.666555 122.710378 
L 132.900998 126.310054 
L 135.369883 112.770937 
L 136.604326 112.64548 
L 137.838768 112.004846 
L 139.073211 117.385645 
L 140.307654 108.700135 
L 141.542096 108.647308 
L 142.776539 108.406147 
L 144.010981 111.263614 
L 145.245424 105.130328 
L 146.479866 108.436262 
L 147.714309 105.166822 
L 148.948752 105.247152 
L 150.183194 104.769722 
L 151.417637 104.005247 
L 152.652079 105.987603 
L 153.886522 104.124444 
L 155.120965 101.159589 
L 156.355407 98.621703 
L 157.58985 97.75397 
L 158.824292 96.01955 
L 160.058735 96.391696 
L 161.293178 99.334189 
L 162.52762 95.352312 
L 163.762063 93.72865 
L 164.996505 95.585365 
L 166.230948 93.581385 
L 167.46539 92.588635 
L 168.699833 95.482092 
L 169.934276 95.996125 
L 171.168718 92.297469 
L 172.403161 91.707899 
L 173.637603 86.799245 
L 174.872046 83.830024 
L 176.106489 83.562032 
L 177.340931 82.337961 
L 178.575374 80.522308 
L 179.809816 79.991989 
L 181.044259 95.202763 
L 182.278702 82.396769 
L 183.513144 76.94864 
L 184.747587 77.010108 
L 185.982029 76.719849 
L 187.216472 76.211036 
L 188.450915 76.191622 
L 189.685357 76.422048 
L 190.9198 76.266525 
L 192.154242 76.600071 
L 193.388685 76.125087 
L 194.623127 80.837727 
L 195.85757 75.862128 
L 197.092013 79.570217 
L 198.326455 75.757128 
L 199.560898 76.202716 
L 200.79534 76.172212 
L 202.029783 75.723991 
L 204.498668 75.464784 
L 205.733111 75.699146 
L 206.967553 72.336123 
L 208.201996 80.112805 
L 209.436439 77.584602 
L 210.670881 80.623487 
L 211.905324 74.639027 
L 213.139766 76.397038 
L 214.374209 70.844137 
L 215.608651 70.462595 
L 216.843094 70.683458 
L 218.077537 67.043661 
L 220.546422 65.263556 
L 221.780864 60.633732 
L 223.015307 58.793031 
L 224.24975 58.050241 
L 225.484192 55.644856 
L 226.718635 62.385412 
L 227.953077 57.472756 
L 229.18752 57.48669 
L 230.421963 55.487495 
L 231.656405 55.496611 
L 234.12529 55.109874 
L 235.359733 54.941971 
L 237.828618 54.948773 
L 239.063061 54.787918 
L 240.297503 54.78339 
L 241.531946 54.996397 
L 244.000831 54.66348 
L 245.235274 54.665741 
L 246.469716 54.794709 
L 247.704159 54.482742 
L 248.938601 54.586628 
L 251.407487 54.505317 
L 253.876372 54.559518 
L 255.110814 54.462428 
L 256.345257 54.720024 
L 260.048585 54.424068 
L 261.283027 54.342882 
L 262.51747 54.597927 
L 263.751912 54.419556 
L 264.986355 54.415044 
L 266.220798 54.570813 
L 267.45524 54.342882 
L 268.689683 54.433093 
L 272.393011 54.270769 
L 273.627453 54.410533 
L 276.096338 54.200956 
L 277.330781 54.392488 
L 278.565224 54.259506 
L 279.799666 54.356409 
L 281.034109 54.234731 
L 283.502994 54.277527 
L 284.737437 54.15144 
L 287.206322 54.232479 
L 288.440764 54.144689 
L 289.675207 54.252748 
L 290.909649 54.178446 
L 292.144092 54.288792 
L 293.378535 54.185198 
L 295.84742 54.381212 
L 298.316305 54.216716 
L 299.550748 54.270769 
L 300.78519 54.550482 
L 302.019633 54.12894 
L 303.254075 54.557259 
L 305.722961 54.232479 
L 306.957403 54.415044 
L 308.191846 54.180697 
L 310.660731 54.243739 
L 314.364059 54.304566 
L 316.832944 54.408277 
L 318.067386 54.15369 
L 319.301829 54.248244 
L 323.005157 54.239235 
L 325.474042 54.295552 
L 327.942927 54.101947 
L 330.411812 54.160441 
L 335.349583 54.1897 
L 337.818468 54.381212 
L 339.05291 54.137939 
L 340.287353 54.15144 
L 341.521796 54.338373 
L 342.756238 54.142439 
L 343.990681 54.66348 
L 345.225123 54.333865 
L 346.459566 54.119941 
L 348.928451 54.086204 
L 350.162894 54.387978 
L 351.397336 54.182948 
L 366.210647 54.09295 
L 367.44509 54.255001 
L 368.679533 54.12894 
L 369.913975 54.489514 
L 371.148418 54.255001 
L 372.38286 54.243739 
L 373.617303 54.086204 
L 374.851746 54.041237 
L 376.086188 54.252748 
L 377.320631 54.322595 
L 378.555073 54.185198 
L 379.789516 54.212213 
L 381.023959 54.079457 
L 387.196171 54.315834 
L 388.430614 54.146939 
L 389.665057 54.12894 
L 390.899499 54.345136 
L 392.133942 54.119941 
L 394.602827 54.000783 
L 395.83727 54.1897 
L 397.071712 54.117692 
L 398.306155 54.203207 
L 399.540597 54.034493 
L 400.77504 54.248244 
L 402.009483 54.016513 
L 403.243925 54.227975 
L 404.478368 54.077209 
L 405.71281 54.185198 
L 408.181696 54.090701 
L 409.416138 54.230227 
L 410.650581 54.099697 
L 411.885023 54.225723 
L 413.119466 54.086204 
L 414.353908 54.239235 
L 415.588351 54.099697 
L 416.822794 54.124441 
L 418.057236 54.31358 
L 419.291679 54.13344 
L 425.463892 54.12894 
L 426.698334 54.077209 
L 427.932777 54.216716 
L 429.16722 54.088452 
L 432.870547 54.1897 
L 434.10499 54.056973 
L 440.277203 54.216716 
L 441.511645 54.099697 
L 453.856071 54.176195 
L 455.090514 54.523381 
L 457.559399 54.113193 
L 458.793842 54.214465 
L 460.028284 54.079457 
L 461.8 54.203875 
L 461.8 54.203875 
" style="fill:none;stroke:#1f77b4;stroke-linecap:square;stroke-width:1.5;"/>
   </g>
   <g id="line2d_42">
    <path clip-path="url(#p878f424692)" d="M 58.834797 121.084967 
L 60.069594 97.438034 
L 61.304391 87.127884 
L 62.539188 80.718972 
L 63.773985 76.856506 
L 65.008782 74.064005 
L 66.243579 71.83201 
L 68.713173 68.833633 
L 72.417564 65.913113 
L 73.652361 64.988888 
L 76.121955 63.783845 
L 79.826346 62.49008 
L 83.530737 61.175909 
L 84.765534 61.053315 
L 86.000331 60.6816 
L 87.235128 60.616983 
L 90.939519 59.79954 
L 99.583098 58.760116 
L 105.757083 58.312081 
L 106.99188 58.124986 
L 109.461474 57.998885 
L 114.400662 57.572658 
L 115.635459 57.623807 
L 119.33985 57.238474 
L 125.513835 56.988528 
L 129.218226 56.79915 
L 130.453023 56.723032 
L 131.68782 56.852234 
L 134.157414 56.656187 
L 137.861805 56.513417 
L 140.331399 56.49731 
L 144.03579 56.403018 
L 145.270587 56.451303 
L 147.740181 56.292735 
L 162.557745 55.976311 
L 163.792542 55.832172 
L 165.027339 55.953419 
L 167.496933 55.813882 
L 171.201324 55.667682 
L 172.436121 55.839031 
L 173.670918 55.669965 
L 177.375309 55.576409 
L 178.610106 55.660834 
L 179.844903 55.553604 
L 184.784091 55.585533 
L 186.018888 55.441926 
L 187.253685 55.553604 
L 189.723279 55.478379 
L 192.192873 55.453317 
L 194.662467 55.357677 
L 220.593204 55.105332 
L 221.828001 55.164386 
L 223.062798 55.000933 
L 252.697926 54.787918 
L 256.402317 54.735862 
L 258.871911 54.767545 
L 269.985084 54.683832 
L 278.628663 54.602446 
L 281.098257 54.602446 
L 283.567851 54.606966 
L 286.037445 54.530155 
L 287.272242 54.618266 
L 289.741836 54.473713 
L 293.446227 54.548223 
L 314.437776 54.396999 
L 316.90737 54.410533 
L 320.611761 54.419556 
L 324.316152 54.430836 
L 326.785746 54.329357 
L 334.194528 54.300059 
L 340.368513 54.241487 
L 342.838107 54.31358 
L 351.481686 54.322595 
L 352.716483 54.203207 
L 353.95128 54.293299 
L 357.655671 54.203207 
L 358.890468 54.284286 
L 361.360062 54.225723 
L 367.534047 54.259506 
L 368.768844 54.187449 
L 370.003641 54.277527 
L 373.708032 54.214465 
L 378.64722 54.245991 
L 382.351611 54.243739 
L 386.056002 54.198705 
L 387.290799 54.095199 
L 389.760393 54.176195 
L 400.873566 54.160441 
L 419.395521 54.119941 
L 423.099912 54.101947 
L 434.213085 54.104196 
L 435.447882 54.00303 
L 439.152273 54.072712 
L 445.326258 54.000783 
L 446.561055 54.061469 
L 449.030649 54.050229 
L 457.674228 54.025503 
L 461.8 54.044647 
L 461.8 54.044647 
" style="fill:none;stroke:#ff7f0e;stroke-linecap:square;stroke-width:1.5;"/>
   </g>
   <g id="line2d_43">
    <path clip-path="url(#p878f424692)" d="M 58.838012 205.148942 
L 60.076024 180.047139 
L 61.314037 164.163915 
L 62.552049 153.865695 
L 63.790061 144.86106 
L 65.028073 138.204857 
L 67.504098 127.543792 
L 68.74211 122.28879 
L 71.218135 113.942509 
L 72.456147 110.400901 
L 74.932171 105.609397 
L 76.170184 103.310807 
L 77.408196 101.522143 
L 82.360245 95.42883 
L 84.836269 93.147331 
L 88.550306 90.047222 
L 92.264343 87.519285 
L 93.502355 86.832984 
L 95.978379 85.228627 
L 99.692416 83.208728 
L 100.930428 82.776874 
L 102.16844 82.050273 
L 103.406453 81.468493 
L 104.644465 81.069829 
L 105.882477 80.441435 
L 112.072538 78.371537 
L 113.310551 78.117045 
L 121.976636 75.53366 
L 124.452661 74.929088 
L 126.928685 74.42064 
L 130.642722 73.846805 
L 134.356759 73.270679 
L 140.54682 72.22656 
L 143.022844 71.877255 
L 154.164954 70.365457 
L 156.640979 70.153114 
L 160.355015 69.599369 
L 161.593028 69.565507 
L 165.307064 69.07962 
L 180.163211 67.719662 
L 208.637493 65.306069 
L 209.875505 65.298565 
L 211.113517 65.126133 
L 214.827554 64.981407 
L 229.683701 64.2137 
L 235.873762 63.838097 
L 245.77786 63.380292 
L 253.205933 63.01743 
L 266.824068 62.560728 
L 279.20419 62.229819 
L 285.394251 61.99686 
L 289.108288 61.890258 
L 310.154496 61.327544 
L 312.63052 61.243275 
L 313.868532 61.25531 
L 315.106545 61.123008 
L 316.344557 61.166288 
L 318.820581 61.034098 
L 326.248655 60.82054 
L 334.91474 60.581102 
L 346.056851 60.394717 
L 351.0089 60.26349 
L 353.484924 60.265874 
L 362.15101 60.018175 
L 365.865046 59.896919 
L 372.055107 59.721227 
L 380.721193 59.562406 
L 411.671499 59.132186 
L 461.8 58.682948 
L 461.8 58.682948 
" style="fill:none;stroke:#2ca02c;stroke-linecap:square;stroke-width:1.5;"/>
   </g>
   <g id="line2d_44">
    <path clip-path="url(#p878f424692)" d="M 58.830486 257.510798 
L 60.060971 246.124899 
L 62.521943 229.207912 
L 63.752428 222.448377 
L 64.982914 217.177841 
L 66.2134 212.733516 
L 69.904857 203.764115 
L 72.365828 198.762624 
L 74.826799 193.708376 
L 77.287771 187.665329 
L 78.518256 185.274728 
L 79.748742 183.334623 
L 80.979228 181.121621 
L 83.440199 177.306554 
L 84.670685 175.201096 
L 88.362142 170.290121 
L 89.592627 168.684887 
L 90.823113 167.544588 
L 92.053599 165.915348 
L 94.51457 163.978885 
L 95.745055 162.755683 
L 98.206027 160.783058 
L 100.666998 158.525327 
L 101.897484 157.38139 
L 108.049912 152.713636 
L 110.510883 150.553186 
L 112.971855 149.087257 
L 116.663312 146.625323 
L 117.893797 145.431616 
L 125.276711 141.23354 
L 126.507197 140.542166 
L 127.737683 140.063428 
L 128.968168 139.298911 
L 130.198654 138.845861 
L 132.659625 137.652122 
L 133.890111 137.295135 
L 136.351082 136.206867 
L 138.812054 135.008554 
L 140.042539 134.602472 
L 143.733996 132.927095 
L 146.194968 131.976845 
L 148.655939 130.671872 
L 149.886425 130.106274 
L 151.11691 129.709388 
L 152.347396 129.158078 
L 153.577882 128.732786 
L 154.808367 127.959776 
L 159.73031 125.603259 
L 162.191281 124.813185 
L 163.421767 124.173121 
L 169.574195 121.821852 
L 178.187595 118.638947 
L 179.41808 118.361443 
L 181.879052 117.30371 
L 184.340023 116.622032 
L 186.800994 115.718583 
L 188.03148 115.151312 
L 190.492451 114.320018 
L 192.953423 113.740402 
L 195.414394 112.661154 
L 199.105851 111.565687 
L 201.566822 110.977829 
L 202.797308 110.57749 
L 207.719251 109.674626 
L 211.410708 108.923056 
L 213.871679 108.639763 
L 215.102165 108.330897 
L 217.563136 107.985439 
L 221.254593 107.167621 
L 226.176536 106.474286 
L 229.867993 105.550768 
L 238.481392 103.821297 
L 243.403335 102.963507 
L 248.325277 102.418017 
L 253.24722 101.596216 
L 255.708191 101.398805 
L 256.938677 101.307276 
L 260.630134 100.570898 
L 263.091105 100.33355 
L 264.321591 100.044567 
L 266.782562 99.700909 
L 268.013048 99.669723 
L 271.704505 99.171994 
L 274.165476 98.944651 
L 277.856933 98.429777 
L 279.087419 98.316841 
L 281.54839 97.961712 
L 288.931304 96.85283 
L 291.392276 96.6843 
L 298.77519 95.972706 
L 307.388589 94.891056 
L 312.310532 94.494465 
L 323.384903 93.578114 
L 325.845874 93.411467 
L 329.537331 93.111512 
L 346.76413 91.804324 
L 349.225102 91.646875 
L 355.37753 90.793044 
L 357.838501 90.452803 
L 360.299473 90.306868 
L 367.682387 89.999795 
L 379.987243 89.027512 
L 384.909186 88.671057 
L 388.600643 88.371816 
L 391.061614 88.216297 
L 393.522586 87.92764 
L 397.214042 87.667594 
L 399.675014 87.550165 
L 407.057928 87.189426 
L 413.210356 86.851391 
L 418.132299 86.627655 
L 429.20667 85.880211 
L 446.433469 84.755349 
L 461.8 83.935495 
L 461.8 83.935495 
" style="fill:none;stroke:#d62728;stroke-linecap:square;stroke-width:1.5;"/>
   </g>
   <g id="line2d_45">
    <path clip-path="url(#p878f424692)" d="M 58.831291 294.934931 
L 60.062582 294.934931 
L 61.293873 291.35566 
L 62.525164 284.422223 
L 63.756454 271.842219 
L 64.987745 264.565545 
L 66.219036 262.355384 
L 67.450327 257.820731 
L 68.681618 256.924424 
L 69.912909 257.217204 
L 71.1442 256.448469 
L 72.375491 253.801182 
L 73.606781 252.09703 
L 74.838072 249.412063 
L 76.069363 248.911697 
L 77.300654 248.626835 
L 78.531945 247.706313 
L 79.763236 247.635835 
L 80.994527 247.003646 
L 82.225818 245.819752 
L 83.457108 245.129501 
L 84.688399 244.662698 
L 85.91969 243.830341 
L 87.150981 243.261038 
L 88.382272 242.278789 
L 89.613563 241.811072 
L 90.844854 240.68375 
L 94.538726 237.820726 
L 95.770017 237.820726 
L 97.001308 237.372326 
L 98.232599 236.354514 
L 100.695181 233.926358 
L 101.926472 232.916597 
L 103.157762 231.540751 
L 105.620344 229.610967 
L 106.851635 229.01877 
L 108.082926 228.700361 
L 113.008089 225.7282 
L 114.23938 225.488066 
L 115.470671 224.623554 
L 116.701962 224.058636 
L 117.933253 223.082834 
L 119.164544 222.603855 
L 120.395835 221.883921 
L 121.627126 221.872883 
L 122.858416 221.059289 
L 125.320998 219.73151 
L 126.552289 218.94494 
L 127.78358 218.730461 
L 129.014871 218.238809 
L 130.246162 217.505601 
L 131.477453 217.188398 
L 132.708743 216.661837 
L 133.940034 215.960342 
L 135.171325 215.65815 
L 136.402616 215.097746 
L 137.633907 214.211352 
L 138.865198 214.119019 
L 140.096489 213.556512 
L 141.32778 213.454559 
L 143.790361 212.561601 
L 145.021652 212.622245 
L 146.252943 212.410143 
L 147.484234 211.987216 
L 148.715525 211.967118 
L 153.640688 210.460736 
L 154.871979 210.243048 
L 156.10327 209.759805 
L 158.565852 209.465032 
L 159.797143 209.02441 
L 161.028434 208.819415 
L 162.259725 208.216506 
L 163.491015 207.94535 
L 164.722306 207.318555 
L 165.953597 206.982587 
L 167.184888 206.982587 
L 168.416179 206.695464 
L 169.64747 206.142565 
L 170.878761 206.114045 
L 178.266506 204.052678 
L 179.497797 204.117947 
L 185.654251 202.672877 
L 186.885542 202.636083 
L 188.116833 202.241356 
L 193.041996 201.310894 
L 195.504578 200.704145 
L 196.735869 200.613884 
L 197.96716 200.379566 
L 199.198451 200.352563 
L 200.429742 200.01112 
L 202.892323 199.108937 
L 204.123614 199.046694 
L 205.354905 198.842441 
L 206.586196 198.426281 
L 209.048778 198.152688 
L 210.280069 197.765578 
L 211.51136 197.54626 
L 212.74265 196.986875 
L 215.205232 196.673521 
L 216.436523 196.447786 
L 217.667814 196.387094 
L 218.899105 195.876929 
L 222.592978 195.034952 
L 226.28685 194.480183 
L 227.518141 194.233609 
L 228.749432 194.123262 
L 229.980723 193.767546 
L 231.212014 193.143711 
L 232.443305 192.925399 
L 234.905886 192.13154 
L 236.137177 191.956859 
L 237.368468 191.641502 
L 238.599759 191.500727 
L 239.83105 191.211485 
L 241.062341 190.709266 
L 242.293632 190.553324 
L 243.524922 190.201252 
L 244.756213 190.086878 
L 245.987504 189.793339 
L 247.218795 189.370776 
L 250.912668 188.699789 
L 252.143959 188.281576 
L 253.375249 188.105138 
L 255.837831 187.195565 
L 260.762995 186.34104 
L 263.225576 185.900664 
L 264.456867 185.845746 
L 266.919449 185.188951 
L 268.15074 185.16557 
L 271.844613 184.574962 
L 273.075903 184.574962 
L 274.307194 184.172758 
L 276.769776 183.841322 
L 284.157521 182.472705 
L 285.388812 181.987646 
L 287.851394 181.768585 
L 290.313976 181.376923 
L 291.545267 181.271724 
L 294.007848 180.807098 
L 295.239139 180.807098 
L 301.395594 179.65441 
L 302.626885 179.506589 
L 303.858175 179.2263 
L 305.089466 179.101148 
L 306.320757 178.770578 
L 308.783339 178.514183 
L 310.01463 178.192739 
L 311.245921 178.148982 
L 314.939793 177.531028 
L 316.171084 177.133096 
L 322.327539 176.241411 
L 323.558829 176.126902 
L 324.79012 175.691473 
L 329.715284 175.052302 
L 334.640447 174.578978 
L 338.33432 174.156901 
L 340.796902 173.659615 
L 344.490774 173.136847 
L 346.953356 172.928463 
L 349.415938 172.554407 
L 350.647229 172.471463 
L 353.10981 171.98892 
L 354.341101 171.878934 
L 355.572392 171.920165 
L 359.266265 171.2419 
L 361.728847 170.928224 
L 362.960137 170.547613 
L 365.422719 170.351049 
L 369.116592 169.777016 
L 370.347883 169.777016 
L 376.504337 168.771575 
L 378.966919 168.505068 
L 381.429501 168.458499 
L 383.892082 168.245871 
L 388.817246 167.656745 
L 390.048537 167.597353 
L 394.9737 166.887248 
L 396.204991 166.854488 
L 401.130155 166.032284 
L 403.592736 165.811514 
L 408.5179 165.403656 
L 409.749191 165.203542 
L 418.368227 164.785176 
L 420.830809 164.554177 
L 423.29339 164.336476 
L 424.524681 164.151144 
L 426.987263 164.08093 
L 436.83759 163.077536 
L 439.300172 162.894401 
L 440.531463 162.604562 
L 444.225335 162.384564 
L 445.456626 162.165024 
L 447.919208 161.995977 
L 450.38179 161.864683 
L 452.844371 161.61505 
L 455.306953 161.322484 
L 456.538244 161.235493 
L 459.000826 160.820171 
L 461.8 160.807799 
L 461.8 160.807799 
" style="fill:none;stroke:#9467bd;stroke-linecap:square;stroke-width:1.5;"/>
   </g>
   <g id="line2d_46">
    <path clip-path="url(#p878f424692)" d="M 71.693163 58.113304 
L 85.786327 56.582475 
L 99.87949 56.619324 
L 113.972654 56.070222 
L 128.065817 55.880196 
L 142.158981 56.111477 
L 156.252144 56.836075 
L 170.345307 55.685946 
L 184.438471 55.606064 
L 198.531634 56.552544 
L 212.624798 55.423705 
L 226.717961 56.695367 
L 240.811125 55.330367 
L 254.904288 55.439649 
L 268.997451 55.487495 
L 283.090615 55.962575 
L 297.183778 55.713348 
L 311.276942 55.873334 
L 325.370105 56.649274 
L 339.463269 55.407763 
L 353.556432 55.631163 
L 367.649595 55.804739 
L 381.742759 55.98089 
L 395.835922 55.962575 
L 409.929086 56.083972 
L 424.022249 54.921569 
L 438.115412 55.430537 
L 452.208576 55.569567 
L 461.8 55.863528 
" style="fill:none;stroke:#8c564b;stroke-dasharray:5.55,2.4;stroke-dashoffset:0;stroke-width:1.5;"/>
   </g>
   <g id="line2d_47">
    <path clip-path="url(#p878f424692)" d="M 65.502574 59.809036 
L 73.405148 57.372948 
L 81.307722 56.164216 
L 89.210296 55.658551 
L 97.112869 55.164386 
L 105.015443 54.923835 
L 112.918017 55.526243 
L 120.820591 54.518864 
L 128.723165 54.473713 
L 136.625739 55.00547 
L 144.528313 54.4173 
L 152.430887 54.539189 
L 160.333461 54.200956 
L 168.236034 54.521123 
L 176.138608 54.446631 
L 184.041182 54.399255 
L 191.943756 54.173944 
L 199.84633 53.673229 
L 207.748904 54.203207 
L 215.651478 54.196454 
L 223.554052 54.176195 
L 231.456626 54.257253 
L 239.359199 54.146939 
L 247.261773 54.403766 
L 255.164347 54.302312 
L 263.066921 54.191951 
L 270.969495 53.756143 
L 278.872069 53.839122 
L 286.774643 53.989548 
L 294.677217 53.906451 
L 302.579791 53.884003 
L 310.482364 53.830149 
L 318.384938 54.333865 
L 326.287512 53.767353 
L 334.190086 53.863805 
L 342.09266 54.327103 
L 349.995234 54.088452 
L 357.897808 54.453401 
L 365.800382 54.081706 
L 373.702956 54.059221 
L 381.605529 54.052477 
L 389.508103 54.144689 
L 397.410677 53.80996 
L 405.313251 54.072712 
L 413.215825 54.266263 
L 421.118399 54.358663 
L 429.020973 54.372192 
L 436.923547 54.113193 
L 444.826121 54.029998 
L 452.728694 53.854829 
L 460.631268 53.926658 
L 461.8 53.932969 
" style="fill:none;stroke:#e377c2;stroke-dasharray:5.55,2.4;stroke-dashoffset:0;stroke-width:1.5;"/>
   </g>
   <g id="line2d_48">
    <path clip-path="url(#p878f424692)" d="M 62.971097 62.451121 
L 68.342194 59.332895 
L 73.713291 57.565685 
L 79.084388 56.716115 
L 84.455485 56.242227 
L 89.826581 55.667682 
L 95.197678 55.711064 
L 100.568775 55.089439 
L 105.939872 55.041773 
L 111.310969 55.000933 
L 116.682066 54.597927 
L 122.053163 54.774336 
L 127.42426 54.521123 
L 132.795357 54.27978 
L 138.166454 54.527897 
L 143.53755 54.394744 
L 148.908647 54.27978 
L 154.279744 54.306819 
L 159.650841 54.227975 
L 165.021938 54.119941 
L 170.393035 54.15594 
L 175.764132 54.286539 
L 181.135229 53.969329 
L 186.506326 54.212213 
L 191.877423 54.119941 
L 197.24852 53.933394 
L 202.619616 54.104196 
L 207.990713 53.854829 
L 213.36181 54.354154 
L 218.732907 54.056973 
L 224.104004 53.917676 
L 229.475101 53.964837 
L 234.846198 53.760627 
L 240.217295 53.982808 
L 245.588392 53.794261 
L 250.959489 53.910941 
L 256.330585 53.924412 
L 261.701682 53.827905 
L 267.072779 53.848097 
L 272.443876 53.875026 
L 277.814973 54.005277 
L 283.18607 53.800989 
L 288.557167 53.994042 
L 293.928264 53.917676 
L 299.299361 54.034493 
L 304.670458 53.973822 
L 310.041554 53.814446 
L 315.412651 54.158191 
L 320.783748 53.568 
L 326.154845 53.794261 
L 331.525942 54.063718 
L 336.897039 53.747176 
L 342.268136 53.850341 
L 347.639233 53.677709 
L 353.01033 53.776321 
L 358.381427 53.848097 
L 363.752524 53.834635 
L 369.12362 53.814446 
L 374.494717 53.973822 
L 379.865814 53.848097 
L 385.236911 53.827905 
L 390.608008 53.735969 
L 395.979105 53.857072 
L 401.350202 53.931149 
L 406.721299 53.783048 
L 412.092396 54.043485 
L 417.463493 53.841366 
L 422.834589 53.964837 
L 428.205686 53.832392 
L 433.576783 53.812203 
L 438.94788 53.895226 
L 444.318977 54.180697 
L 449.690074 53.798746 
L 455.061171 53.783048 
L 460.432268 53.845853 
L 461.8 53.861856 
" style="fill:none;stroke:#7f7f7f;stroke-dasharray:5.55,2.4;stroke-dashoffset:0;stroke-width:1.5;"/>
   </g>
   <g id="patch_3">
    <path d="M 57.6 307.584 
L 57.6 41.472 
" style="fill:none;stroke:#000000;stroke-linecap:square;stroke-linejoin:miter;stroke-width:0.8;"/>
   </g>
   <g id="patch_4">
    <path d="M 414.72 307.584 
L 414.72 41.472 
" style="fill:none;stroke:#000000;stroke-linecap:square;stroke-linejoin:miter;stroke-width:0.8;"/>
   </g>
   <g id="patch_5">
    <path d="M 57.6 307.584 
L 414.72 307.584 
" style="fill:none;stroke:#000000;stroke-linecap:square;stroke-linejoin:miter;stroke-width:0.8;"/>
   </g>
   <g id="patch_6">
    <path d="M 57.6 41.472 
L 414.72 41.472 
" style="fill:none;stroke:#000000;stroke-linecap:square;stroke-linejoin:miter;stroke-width:0.8;"/>
   </g>
   <g id="legend_1">
    <g id="patch_7">
     <path d="M 299.895 302.584 
L 407.72 302.584 
Q 409.72 302.584 409.72 300.584 
L 409.72 184.159 
Q 409.72 182.159 407.72 182.159 
L 299.895 182.159 
Q 297.895 182.159 297.895 184.159 
L 297.895 300.584 
Q 297.895 302.584 299.895 302.584 
z
" style="fill:#ffffff;opacity:0.8;stroke:#cccccc;stroke-linejoin:miter;"/>
    </g>
    <g id="line2d_49">
     <path d="M 301.895 190.257437 
L 321.895 190.257437 
" style="fill:none;stroke:#1f77b4;stroke-linecap:square;stroke-width:1.5;"/>
    </g>
    <g id="line2d_50"/>
    <g id="text_14">
     <!-- SGD, lr 10 -->
     <defs>
      <path d="M 53.515625 70.515625 
L 53.515625 60.890625 
Q 47.90625 63.578125 42.921875 64.890625 
Q 37.9375 66.21875 33.296875 66.21875 
Q 25.25 66.21875 20.875 63.09375 
Q 16.5 59.96875 16.5 54.203125 
Q 16.5 49.359375 19.40625 46.890625 
Q 22.3125 44.4375 30.421875 42.921875 
L 36.375 41.703125 
Q 47.40625 39.59375 52.65625 34.296875 
Q 57.90625 29 57.90625 20.125 
Q 57.90625 9.515625 50.796875 4.046875 
Q 43.703125 -1.421875 29.984375 -1.421875 
Q 24.8125 -1.421875 18.96875 -0.25 
Q 13.140625 0.921875 6.890625 3.21875 
L 6.890625 13.375 
Q 12.890625 10.015625 18.65625 8.296875 
Q 24.421875 6.59375 29.984375 6.59375 
Q 38.421875 6.59375 43.015625 9.90625 
Q 47.609375 13.234375 47.609375 19.390625 
Q 47.609375 24.75 44.3125 27.78125 
Q 41.015625 30.8125 33.5 32.328125 
L 27.484375 33.5 
Q 16.453125 35.6875 11.515625 40.375 
Q 6.59375 45.0625 6.59375 53.421875 
Q 6.59375 63.09375 13.40625 68.65625 
Q 20.21875 74.21875 32.171875 74.21875 
Q 37.3125 74.21875 42.625 73.28125 
Q 47.953125 72.359375 53.515625 70.515625 
z
" id="DejaVuSans-53"/>
      <path d="M 59.515625 10.40625 
L 59.515625 29.984375 
L 43.40625 29.984375 
L 43.40625 38.09375 
L 69.28125 38.09375 
L 69.28125 6.78125 
Q 63.578125 2.734375 56.6875 0.65625 
Q 49.8125 -1.421875 42 -1.421875 
Q 24.90625 -1.421875 15.25 8.5625 
Q 5.609375 18.5625 5.609375 36.375 
Q 5.609375 54.25 15.25 64.234375 
Q 24.90625 74.21875 42 74.21875 
Q 49.125 74.21875 55.546875 72.453125 
Q 61.96875 70.703125 67.390625 67.28125 
L 67.390625 56.78125 
Q 61.921875 61.421875 55.765625 63.765625 
Q 49.609375 66.109375 42.828125 66.109375 
Q 29.4375 66.109375 22.71875 58.640625 
Q 16.015625 51.171875 16.015625 36.375 
Q 16.015625 21.625 22.71875 14.15625 
Q 29.4375 6.6875 42.828125 6.6875 
Q 48.046875 6.6875 52.140625 7.59375 
Q 56.25 8.5 59.515625 10.40625 
z
" id="DejaVuSans-47"/>
      <path d="M 19.671875 64.796875 
L 19.671875 8.109375 
L 31.59375 8.109375 
Q 46.6875 8.109375 53.6875 14.9375 
Q 60.6875 21.78125 60.6875 36.53125 
Q 60.6875 51.171875 53.6875 57.984375 
Q 46.6875 64.796875 31.59375 64.796875 
z
M 9.8125 72.90625 
L 30.078125 72.90625 
Q 51.265625 72.90625 61.171875 64.09375 
Q 71.09375 55.28125 71.09375 36.53125 
Q 71.09375 17.671875 61.125 8.828125 
Q 51.171875 0 30.078125 0 
L 9.8125 0 
z
" id="DejaVuSans-44"/>
      <path d="M 11.71875 12.40625 
L 22.015625 12.40625 
L 22.015625 4 
L 14.015625 -11.625 
L 7.71875 -11.625 
L 11.71875 4 
z
" id="DejaVuSans-2c"/>
      <path d="M 9.421875 75.984375 
L 18.40625 75.984375 
L 18.40625 0 
L 9.421875 0 
z
" id="DejaVuSans-6c"/>
      <path d="M 41.109375 46.296875 
Q 39.59375 47.171875 37.8125 47.578125 
Q 36.03125 48 33.890625 48 
Q 26.265625 48 22.1875 43.046875 
Q 18.109375 38.09375 18.109375 28.8125 
L 18.109375 0 
L 9.078125 0 
L 9.078125 54.6875 
L 18.109375 54.6875 
L 18.109375 46.1875 
Q 20.953125 51.171875 25.484375 53.578125 
Q 30.03125 56 36.53125 56 
Q 37.453125 56 38.578125 55.875 
Q 39.703125 55.765625 41.0625 55.515625 
z
" id="DejaVuSans-72"/>
     </defs>
     <g transform="translate(329.895 193.757437)scale(0.1 -0.1)">
      <use xlink:href="#DejaVuSans-53"/>
      <use x="63.476562" xlink:href="#DejaVuSans-47"/>
      <use x="140.966797" xlink:href="#DejaVuSans-44"/>
      <use x="217.96875" xlink:href="#DejaVuSans-2c"/>
      <use x="249.755859" xlink:href="#DejaVuSans-20"/>
      <use x="281.542969" xlink:href="#DejaVuSans-6c"/>
      <use x="309.326172" xlink:href="#DejaVuSans-72"/>
      <use x="350.439453" xlink:href="#DejaVuSans-20"/>
      <use x="382.226562" xlink:href="#DejaVuSans-31"/>
      <use x="445.849609" xlink:href="#DejaVuSans-30"/>
     </g>
    </g>
    <g id="line2d_51">
     <path d="M 301.895 204.935563 
L 321.895 204.935563 
" style="fill:none;stroke:#ff7f0e;stroke-linecap:square;stroke-width:1.5;"/>
    </g>
    <g id="line2d_52"/>
    <g id="text_15">
     <!-- SGD, lr 1 -->
     <g transform="translate(329.895 208.435563)scale(0.1 -0.1)">
      <use xlink:href="#DejaVuSans-53"/>
      <use x="63.476562" xlink:href="#DejaVuSans-47"/>
      <use x="140.966797" xlink:href="#DejaVuSans-44"/>
      <use x="217.96875" xlink:href="#DejaVuSans-2c"/>
      <use x="249.755859" xlink:href="#DejaVuSans-20"/>
      <use x="281.542969" xlink:href="#DejaVuSans-6c"/>
      <use x="309.326172" xlink:href="#DejaVuSans-72"/>
      <use x="350.439453" xlink:href="#DejaVuSans-20"/>
      <use x="382.226562" xlink:href="#DejaVuSans-31"/>
     </g>
    </g>
    <g id="line2d_53">
     <path d="M 301.895 219.613687 
L 321.895 219.613687 
" style="fill:none;stroke:#2ca02c;stroke-linecap:square;stroke-width:1.5;"/>
    </g>
    <g id="line2d_54"/>
    <g id="text_16">
     <!-- SGD, lr 0.1 -->
     <defs>
      <path d="M 10.6875 12.40625 
L 21 12.40625 
L 21 0 
L 10.6875 0 
z
" id="DejaVuSans-2e"/>
     </defs>
     <g transform="translate(329.895 223.113687)scale(0.1 -0.1)">
      <use xlink:href="#DejaVuSans-53"/>
      <use x="63.476562" xlink:href="#DejaVuSans-47"/>
      <use x="140.966797" xlink:href="#DejaVuSans-44"/>
      <use x="217.96875" xlink:href="#DejaVuSans-2c"/>
      <use x="249.755859" xlink:href="#DejaVuSans-20"/>
      <use x="281.542969" xlink:href="#DejaVuSans-6c"/>
      <use x="309.326172" xlink:href="#DejaVuSans-72"/>
      <use x="350.439453" xlink:href="#DejaVuSans-20"/>
      <use x="382.226562" xlink:href="#DejaVuSans-30"/>
      <use x="445.849609" xlink:href="#DejaVuSans-2e"/>
      <use x="477.636719" xlink:href="#DejaVuSans-31"/>
     </g>
    </g>
    <g id="line2d_55">
     <path d="M 301.895 234.291812 
L 321.895 234.291812 
" style="fill:none;stroke:#d62728;stroke-linecap:square;stroke-width:1.5;"/>
    </g>
    <g id="line2d_56"/>
    <g id="text_17">
     <!-- SGD, lr 0.01 -->
     <g transform="translate(329.895 237.791812)scale(0.1 -0.1)">
      <use xlink:href="#DejaVuSans-53"/>
      <use x="63.476562" xlink:href="#DejaVuSans-47"/>
      <use x="140.966797" xlink:href="#DejaVuSans-44"/>
      <use x="217.96875" xlink:href="#DejaVuSans-2c"/>
      <use x="249.755859" xlink:href="#DejaVuSans-20"/>
      <use x="281.542969" xlink:href="#DejaVuSans-6c"/>
      <use x="309.326172" xlink:href="#DejaVuSans-72"/>
      <use x="350.439453" xlink:href="#DejaVuSans-20"/>
      <use x="382.226562" xlink:href="#DejaVuSans-30"/>
      <use x="445.849609" xlink:href="#DejaVuSans-2e"/>
      <use x="477.636719" xlink:href="#DejaVuSans-30"/>
      <use x="541.259766" xlink:href="#DejaVuSans-31"/>
     </g>
    </g>
    <g id="line2d_57">
     <path d="M 301.895 248.969937 
L 321.895 248.969937 
" style="fill:none;stroke:#9467bd;stroke-linecap:square;stroke-width:1.5;"/>
    </g>
    <g id="line2d_58"/>
    <g id="text_18">
     <!-- SGD, lr 0.001 -->
     <g transform="translate(329.895 252.469937)scale(0.1 -0.1)">
      <use xlink:href="#DejaVuSans-53"/>
      <use x="63.476562" xlink:href="#DejaVuSans-47"/>
      <use x="140.966797" xlink:href="#DejaVuSans-44"/>
      <use x="217.96875" xlink:href="#DejaVuSans-2c"/>
      <use x="249.755859" xlink:href="#DejaVuSans-20"/>
      <use x="281.542969" xlink:href="#DejaVuSans-6c"/>
      <use x="309.326172" xlink:href="#DejaVuSans-72"/>
      <use x="350.439453" xlink:href="#DejaVuSans-20"/>
      <use x="382.226562" xlink:href="#DejaVuSans-30"/>
      <use x="445.849609" xlink:href="#DejaVuSans-2e"/>
      <use x="477.636719" xlink:href="#DejaVuSans-30"/>
      <use x="541.259766" xlink:href="#DejaVuSans-30"/>
      <use x="604.882812" xlink:href="#DejaVuSans-31"/>
     </g>
    </g>
    <g id="line2d_59">
     <path d="M 301.895 263.648062 
L 321.895 263.648062 
" style="fill:none;stroke:#8c564b;stroke-dasharray:5.55,2.4;stroke-dashoffset:0;stroke-width:1.5;"/>
    </g>
    <g id="line2d_60"/>
    <g id="text_19">
     <!-- SGN, cg iter 10 -->
     <defs>
      <path d="M 9.8125 72.90625 
L 23.09375 72.90625 
L 55.421875 11.921875 
L 55.421875 72.90625 
L 64.984375 72.90625 
L 64.984375 0 
L 51.703125 0 
L 19.390625 60.984375 
L 19.390625 0 
L 9.8125 0 
z
" id="DejaVuSans-4e"/>
      <path d="M 45.40625 27.984375 
Q 45.40625 37.75 41.375 43.109375 
Q 37.359375 48.484375 30.078125 48.484375 
Q 22.859375 48.484375 18.828125 43.109375 
Q 14.796875 37.75 14.796875 27.984375 
Q 14.796875 18.265625 18.828125 12.890625 
Q 22.859375 7.515625 30.078125 7.515625 
Q 37.359375 7.515625 41.375 12.890625 
Q 45.40625 18.265625 45.40625 27.984375 
z
M 54.390625 6.78125 
Q 54.390625 -7.171875 48.1875 -13.984375 
Q 42 -20.796875 29.203125 -20.796875 
Q 24.46875 -20.796875 20.265625 -20.09375 
Q 16.0625 -19.390625 12.109375 -17.921875 
L 12.109375 -9.1875 
Q 16.0625 -11.328125 19.921875 -12.34375 
Q 23.78125 -13.375 27.78125 -13.375 
Q 36.625 -13.375 41.015625 -8.765625 
Q 45.40625 -4.15625 45.40625 5.171875 
L 45.40625 9.625 
Q 42.625 4.78125 38.28125 2.390625 
Q 33.9375 0 27.875 0 
Q 17.828125 0 11.671875 7.65625 
Q 5.515625 15.328125 5.515625 27.984375 
Q 5.515625 40.671875 11.671875 48.328125 
Q 17.828125 56 27.875 56 
Q 33.9375 56 38.28125 53.609375 
Q 42.625 51.21875 45.40625 46.390625 
L 45.40625 54.6875 
L 54.390625 54.6875 
z
" id="DejaVuSans-67"/>
      <path d="M 9.421875 54.6875 
L 18.40625 54.6875 
L 18.40625 0 
L 9.421875 0 
z
M 9.421875 75.984375 
L 18.40625 75.984375 
L 18.40625 64.59375 
L 9.421875 64.59375 
z
" id="DejaVuSans-69"/>
     </defs>
     <g transform="translate(329.895 267.148062)scale(0.1 -0.1)">
      <use xlink:href="#DejaVuSans-53"/>
      <use x="63.476562" xlink:href="#DejaVuSans-47"/>
      <use x="140.966797" xlink:href="#DejaVuSans-4e"/>
      <use x="215.771484" xlink:href="#DejaVuSans-2c"/>
      <use x="247.558594" xlink:href="#DejaVuSans-20"/>
      <use x="279.345703" xlink:href="#DejaVuSans-63"/>
      <use x="334.326172" xlink:href="#DejaVuSans-67"/>
      <use x="397.802734" xlink:href="#DejaVuSans-20"/>
      <use x="429.589844" xlink:href="#DejaVuSans-69"/>
      <use x="457.373047" xlink:href="#DejaVuSans-74"/>
      <use x="496.582031" xlink:href="#DejaVuSans-65"/>
      <use x="558.105469" xlink:href="#DejaVuSans-72"/>
      <use x="599.21875" xlink:href="#DejaVuSans-20"/>
      <use x="631.005859" xlink:href="#DejaVuSans-31"/>
      <use x="694.628906" xlink:href="#DejaVuSans-30"/>
     </g>
    </g>
    <g id="line2d_61">
     <path d="M 301.895 278.326187 
L 321.895 278.326187 
" style="fill:none;stroke:#e377c2;stroke-dasharray:5.55,2.4;stroke-dashoffset:0;stroke-width:1.5;"/>
    </g>
    <g id="line2d_62"/>
    <g id="text_20">
     <!-- SGN, cg iter 5 -->
     <g transform="translate(329.895 281.826187)scale(0.1 -0.1)">
      <use xlink:href="#DejaVuSans-53"/>
      <use x="63.476562" xlink:href="#DejaVuSans-47"/>
      <use x="140.966797" xlink:href="#DejaVuSans-4e"/>
      <use x="215.771484" xlink:href="#DejaVuSans-2c"/>
      <use x="247.558594" xlink:href="#DejaVuSans-20"/>
      <use x="279.345703" xlink:href="#DejaVuSans-63"/>
      <use x="334.326172" xlink:href="#DejaVuSans-67"/>
      <use x="397.802734" xlink:href="#DejaVuSans-20"/>
      <use x="429.589844" xlink:href="#DejaVuSans-69"/>
      <use x="457.373047" xlink:href="#DejaVuSans-74"/>
      <use x="496.582031" xlink:href="#DejaVuSans-65"/>
      <use x="558.105469" xlink:href="#DejaVuSans-72"/>
      <use x="599.21875" xlink:href="#DejaVuSans-20"/>
      <use x="631.005859" xlink:href="#DejaVuSans-35"/>
     </g>
    </g>
    <g id="line2d_63">
     <path d="M 301.895 293.004312 
L 321.895 293.004312 
" style="fill:none;stroke:#7f7f7f;stroke-dasharray:5.55,2.4;stroke-dashoffset:0;stroke-width:1.5;"/>
    </g>
    <g id="line2d_64"/>
    <g id="text_21">
     <!-- SGN, cg iter 3 -->
     <defs>
      <path d="M 40.578125 39.3125 
Q 47.65625 37.796875 51.625 33 
Q 55.609375 28.21875 55.609375 21.1875 
Q 55.609375 10.40625 48.1875 4.484375 
Q 40.765625 -1.421875 27.09375 -1.421875 
Q 22.515625 -1.421875 17.65625 -0.515625 
Q 12.796875 0.390625 7.625 2.203125 
L 7.625 11.71875 
Q 11.71875 9.328125 16.59375 8.109375 
Q 21.484375 6.890625 26.8125 6.890625 
Q 36.078125 6.890625 40.9375 10.546875 
Q 45.796875 14.203125 45.796875 21.1875 
Q 45.796875 27.640625 41.28125 31.265625 
Q 36.765625 34.90625 28.71875 34.90625 
L 20.21875 34.90625 
L 20.21875 43.015625 
L 29.109375 43.015625 
Q 36.375 43.015625 40.234375 45.921875 
Q 44.09375 48.828125 44.09375 54.296875 
Q 44.09375 59.90625 40.109375 62.90625 
Q 36.140625 65.921875 28.71875 65.921875 
Q 24.65625 65.921875 20.015625 65.03125 
Q 15.375 64.15625 9.8125 62.3125 
L 9.8125 71.09375 
Q 15.4375 72.65625 20.34375 73.4375 
Q 25.25 74.21875 29.59375 74.21875 
Q 40.828125 74.21875 47.359375 69.109375 
Q 53.90625 64.015625 53.90625 55.328125 
Q 53.90625 49.265625 50.4375 45.09375 
Q 46.96875 40.921875 40.578125 39.3125 
z
" id="DejaVuSans-33"/>
     </defs>
     <g transform="translate(329.895 296.504312)scale(0.1 -0.1)">
      <use xlink:href="#DejaVuSans-53"/>
      <use x="63.476562" xlink:href="#DejaVuSans-47"/>
      <use x="140.966797" xlink:href="#DejaVuSans-4e"/>
      <use x="215.771484" xlink:href="#DejaVuSans-2c"/>
      <use x="247.558594" xlink:href="#DejaVuSans-20"/>
      <use x="279.345703" xlink:href="#DejaVuSans-63"/>
      <use x="334.326172" xlink:href="#DejaVuSans-67"/>
      <use x="397.802734" xlink:href="#DejaVuSans-20"/>
      <use x="429.589844" xlink:href="#DejaVuSans-69"/>
      <use x="457.373047" xlink:href="#DejaVuSans-74"/>
      <use x="496.582031" xlink:href="#DejaVuSans-65"/>
      <use x="558.105469" xlink:href="#DejaVuSans-72"/>
      <use x="599.21875" xlink:href="#DejaVuSans-20"/>
      <use x="631.005859" xlink:href="#DejaVuSans-33"/>
     </g>
    </g>
   </g>
  </g>
 </g>
 <defs>
  <clipPath id="p878f424692">
   <rect height="266.112" width="357.12" x="57.6" y="41.472"/>
  </clipPath>
 </defs>
</svg>
