<?xml version="1.0" encoding="utf-8" standalone="no"?>
<!DOCTYPE svg PUBLIC "-//W3C//DTD SVG 1.1//EN"
  "http://www.w3.org/Graphics/SVG/1.1/DTD/svg11.dtd">
<!-- Created with matplotlib (http://matplotlib.org/) -->
<svg height="345.6pt" version="1.1" viewBox="0 0 460.8 345.6" width="460.8pt" xmlns="http://www.w3.org/2000/svg" xmlns:xlink="http://www.w3.org/1999/xlink">
 <defs>
  <style type="text/css">
*{stroke-linecap:butt;stroke-linejoin:round;}
  </style>
 </defs>
 <g id="figure_1">
  <g id="patch_1">
   <path d="M 0 345.6 
L 460.8 345.6 
L 460.8 0 
L 0 0 
z
" style="fill:#ffffff;"/>
  </g>
  <g id="axes_1">
   <g id="patch_2">
    <path d="M 57.6 307.584 
L 414.72 307.584 
L 414.72 41.472 
L 57.6 41.472 
z
" style="fill:#ffffff;"/>
   </g>
   <g id="matplotlib.axis_1">
    <g id="xtick_1">
     <g id="line2d_1">
      <path clip-path="url(#p3ca21ef867)" d="M 73.539992 307.584 
L 73.539992 41.472 
" style="fill:none;stroke:#b0b0b0;stroke-linecap:square;stroke-width:0.8;"/>
     </g>
     <g id="line2d_2">
      <defs>
       <path d="M 0 0 
L 0 3.5 
" id="mc3e207e9ef" style="stroke:#000000;stroke-width:0.8;"/>
      </defs>
      <g>
       <use style="stroke:#000000;stroke-width:0.8;" x="73.539992" xlink:href="#mc3e207e9ef" y="307.584"/>
      </g>
     </g>
     <g id="text_1">
      <!-- 0 -->
      <defs>
       <path d="M 31.78125 66.40625 
Q 24.171875 66.40625 20.328125 58.90625 
Q 16.5 51.421875 16.5 36.375 
Q 16.5 21.390625 20.328125 13.890625 
Q 24.171875 6.390625 31.78125 6.390625 
Q 39.453125 6.390625 43.28125 13.890625 
Q 47.125 21.390625 47.125 36.375 
Q 47.125 51.421875 43.28125 58.90625 
Q 39.453125 66.40625 31.78125 66.40625 
z
M 31.78125 74.21875 
Q 44.046875 74.21875 50.515625 64.515625 
Q 56.984375 54.828125 56.984375 36.375 
Q 56.984375 17.96875 50.515625 8.265625 
Q 44.046875 -1.421875 31.78125 -1.421875 
Q 19.53125 -1.421875 13.0625 8.265625 
Q 6.59375 17.96875 6.59375 36.375 
Q 6.59375 54.828125 13.0625 64.515625 
Q 19.53125 74.21875 31.78125 74.21875 
z
" id="DejaVuSans-30"/>
      </defs>
      <g transform="translate(70.358742 322.182437)scale(0.1 -0.1)">
       <use xlink:href="#DejaVuSans-30"/>
      </g>
     </g>
    </g>
    <g id="xtick_2">
     <g id="line2d_3">
      <path clip-path="url(#p3ca21ef867)" d="M 122.006813 307.584 
L 122.006813 41.472 
" style="fill:none;stroke:#b0b0b0;stroke-linecap:square;stroke-width:0.8;"/>
     </g>
     <g id="line2d_4">
      <g>
       <use style="stroke:#000000;stroke-width:0.8;" x="122.006813" xlink:href="#mc3e207e9ef" y="307.584"/>
      </g>
     </g>
     <g id="text_2">
      <!-- 100 -->
      <defs>
       <path d="M 12.40625 8.296875 
L 28.515625 8.296875 
L 28.515625 63.921875 
L 10.984375 60.40625 
L 10.984375 69.390625 
L 28.421875 72.90625 
L 38.28125 72.90625 
L 38.28125 8.296875 
L 54.390625 8.296875 
L 54.390625 0 
L 12.40625 0 
z
" id="DejaVuSans-31"/>
      </defs>
      <g transform="translate(112.463063 322.182437)scale(0.1 -0.1)">
       <use xlink:href="#DejaVuSans-31"/>
       <use x="63.623047" xlink:href="#DejaVuSans-30"/>
       <use x="127.246094" xlink:href="#DejaVuSans-30"/>
      </g>
     </g>
    </g>
    <g id="xtick_3">
     <g id="line2d_5">
      <path clip-path="url(#p3ca21ef867)" d="M 170.473634 307.584 
L 170.473634 41.472 
" style="fill:none;stroke:#b0b0b0;stroke-linecap:square;stroke-width:0.8;"/>
     </g>
     <g id="line2d_6">
      <g>
       <use style="stroke:#000000;stroke-width:0.8;" x="170.473634" xlink:href="#mc3e207e9ef" y="307.584"/>
      </g>
     </g>
     <g id="text_3">
      <!-- 200 -->
      <defs>
       <path d="M 19.1875 8.296875 
L 53.609375 8.296875 
L 53.609375 0 
L 7.328125 0 
L 7.328125 8.296875 
Q 12.9375 14.109375 22.625 23.890625 
Q 32.328125 33.6875 34.8125 36.53125 
Q 39.546875 41.84375 41.421875 45.53125 
Q 43.3125 49.21875 43.3125 52.78125 
Q 43.3125 58.59375 39.234375 62.25 
Q 35.15625 65.921875 28.609375 65.921875 
Q 23.96875 65.921875 18.8125 64.3125 
Q 13.671875 62.703125 7.8125 59.421875 
L 7.8125 69.390625 
Q 13.765625 71.78125 18.9375 73 
Q 24.125 74.21875 28.421875 74.21875 
Q 39.75 74.21875 46.484375 68.546875 
Q 53.21875 62.890625 53.21875 53.421875 
Q 53.21875 48.921875 51.53125 44.890625 
Q 49.859375 40.875 45.40625 35.40625 
Q 44.1875 33.984375 37.640625 27.21875 
Q 31.109375 20.453125 19.1875 8.296875 
z
" id="DejaVuSans-32"/>
      </defs>
      <g transform="translate(160.929884 322.182437)scale(0.1 -0.1)">
       <use xlink:href="#DejaVuSans-32"/>
       <use x="63.623047" xlink:href="#DejaVuSans-30"/>
       <use x="127.246094" xlink:href="#DejaVuSans-30"/>
      </g>
     </g>
    </g>
    <g id="xtick_4">
     <g id="line2d_7">
      <path clip-path="url(#p3ca21ef867)" d="M 218.940455 307.584 
L 218.940455 41.472 
" style="fill:none;stroke:#b0b0b0;stroke-linecap:square;stroke-width:0.8;"/>
     </g>
     <g id="line2d_8">
      <g>
       <use style="stroke:#000000;stroke-width:0.8;" x="218.940455" xlink:href="#mc3e207e9ef" y="307.584"/>
      </g>
     </g>
     <g id="text_4">
      <!-- 300 -->
      <defs>
       <path d="M 40.578125 39.3125 
Q 47.65625 37.796875 51.625 33 
Q 55.609375 28.21875 55.609375 21.1875 
Q 55.609375 10.40625 48.1875 4.484375 
Q 40.765625 -1.421875 27.09375 -1.421875 
Q 22.515625 -1.421875 17.65625 -0.515625 
Q 12.796875 0.390625 7.625 2.203125 
L 7.625 11.71875 
Q 11.71875 9.328125 16.59375 8.109375 
Q 21.484375 6.890625 26.8125 6.890625 
Q 36.078125 6.890625 40.9375 10.546875 
Q 45.796875 14.203125 45.796875 21.1875 
Q 45.796875 27.640625 41.28125 31.265625 
Q 36.765625 34.90625 28.71875 34.90625 
L 20.21875 34.90625 
L 20.21875 43.015625 
L 29.109375 43.015625 
Q 36.375 43.015625 40.234375 45.921875 
Q 44.09375 48.828125 44.09375 54.296875 
Q 44.09375 59.90625 40.109375 62.90625 
Q 36.140625 65.921875 28.71875 65.921875 
Q 24.65625 65.921875 20.015625 65.03125 
Q 15.375 64.15625 9.8125 62.3125 
L 9.8125 71.09375 
Q 15.4375 72.65625 20.34375 73.4375 
Q 25.25 74.21875 29.59375 74.21875 
Q 40.828125 74.21875 47.359375 69.109375 
Q 53.90625 64.015625 53.90625 55.328125 
Q 53.90625 49.265625 50.4375 45.09375 
Q 46.96875 40.921875 40.578125 39.3125 
z
" id="DejaVuSans-33"/>
      </defs>
      <g transform="translate(209.396705 322.182437)scale(0.1 -0.1)">
       <use xlink:href="#DejaVuSans-33"/>
       <use x="63.623047" xlink:href="#DejaVuSans-30"/>
       <use x="127.246094" xlink:href="#DejaVuSans-30"/>
      </g>
     </g>
    </g>
    <g id="xtick_5">
     <g id="line2d_9">
      <path clip-path="url(#p3ca21ef867)" d="M 267.407276 307.584 
L 267.407276 41.472 
" style="fill:none;stroke:#b0b0b0;stroke-linecap:square;stroke-width:0.8;"/>
     </g>
     <g id="line2d_10">
      <g>
       <use style="stroke:#000000;stroke-width:0.8;" x="267.407276" xlink:href="#mc3e207e9ef" y="307.584"/>
      </g>
     </g>
     <g id="text_5">
      <!-- 400 -->
      <defs>
       <path d="M 37.796875 64.3125 
L 12.890625 25.390625 
L 37.796875 25.390625 
z
M 35.203125 72.90625 
L 47.609375 72.90625 
L 47.609375 25.390625 
L 58.015625 25.390625 
L 58.015625 17.1875 
L 47.609375 17.1875 
L 47.609375 0 
L 37.796875 0 
L 37.796875 17.1875 
L 4.890625 17.1875 
L 4.890625 26.703125 
z
" id="DejaVuSans-34"/>
      </defs>
      <g transform="translate(257.863526 322.182437)scale(0.1 -0.1)">
       <use xlink:href="#DejaVuSans-34"/>
       <use x="63.623047" xlink:href="#DejaVuSans-30"/>
       <use x="127.246094" xlink:href="#DejaVuSans-30"/>
      </g>
     </g>
    </g>
    <g id="xtick_6">
     <g id="line2d_11">
      <path clip-path="url(#p3ca21ef867)" d="M 315.874097 307.584 
L 315.874097 41.472 
" style="fill:none;stroke:#b0b0b0;stroke-linecap:square;stroke-width:0.8;"/>
     </g>
     <g id="line2d_12">
      <g>
       <use style="stroke:#000000;stroke-width:0.8;" x="315.874097" xlink:href="#mc3e207e9ef" y="307.584"/>
      </g>
     </g>
     <g id="text_6">
      <!-- 500 -->
      <defs>
       <path d="M 10.796875 72.90625 
L 49.515625 72.90625 
L 49.515625 64.59375 
L 19.828125 64.59375 
L 19.828125 46.734375 
Q 21.96875 47.46875 24.109375 47.828125 
Q 26.265625 48.1875 28.421875 48.1875 
Q 40.625 48.1875 47.75 41.5 
Q 54.890625 34.8125 54.890625 23.390625 
Q 54.890625 11.625 47.5625 5.09375 
Q 40.234375 -1.421875 26.90625 -1.421875 
Q 22.3125 -1.421875 17.546875 -0.640625 
Q 12.796875 0.140625 7.71875 1.703125 
L 7.71875 11.625 
Q 12.109375 9.234375 16.796875 8.0625 
Q 21.484375 6.890625 26.703125 6.890625 
Q 35.15625 6.890625 40.078125 11.328125 
Q 45.015625 15.765625 45.015625 23.390625 
Q 45.015625 31 40.078125 35.4375 
Q 35.15625 39.890625 26.703125 39.890625 
Q 22.75 39.890625 18.8125 39.015625 
Q 14.890625 38.140625 10.796875 36.28125 
z
" id="DejaVuSans-35"/>
      </defs>
      <g transform="translate(306.330347 322.182437)scale(0.1 -0.1)">
       <use xlink:href="#DejaVuSans-35"/>
       <use x="63.623047" xlink:href="#DejaVuSans-30"/>
       <use x="127.246094" xlink:href="#DejaVuSans-30"/>
      </g>
     </g>
    </g>
    <g id="xtick_7">
     <g id="line2d_13">
      <path clip-path="url(#p3ca21ef867)" d="M 364.340918 307.584 
L 364.340918 41.472 
" style="fill:none;stroke:#b0b0b0;stroke-linecap:square;stroke-width:0.8;"/>
     </g>
     <g id="line2d_14">
      <g>
       <use style="stroke:#000000;stroke-width:0.8;" x="364.340918" xlink:href="#mc3e207e9ef" y="307.584"/>
      </g>
     </g>
     <g id="text_7">
      <!-- 600 -->
      <defs>
       <path d="M 33.015625 40.375 
Q 26.375 40.375 22.484375 35.828125 
Q 18.609375 31.296875 18.609375 23.390625 
Q 18.609375 15.53125 22.484375 10.953125 
Q 26.375 6.390625 33.015625 6.390625 
Q 39.65625 6.390625 43.53125 10.953125 
Q 47.40625 15.53125 47.40625 23.390625 
Q 47.40625 31.296875 43.53125 35.828125 
Q 39.65625 40.375 33.015625 40.375 
z
M 52.59375 71.296875 
L 52.59375 62.3125 
Q 48.875 64.0625 45.09375 64.984375 
Q 41.3125 65.921875 37.59375 65.921875 
Q 27.828125 65.921875 22.671875 59.328125 
Q 17.53125 52.734375 16.796875 39.40625 
Q 19.671875 43.65625 24.015625 45.921875 
Q 28.375 48.1875 33.59375 48.1875 
Q 44.578125 48.1875 50.953125 41.515625 
Q 57.328125 34.859375 57.328125 23.390625 
Q 57.328125 12.15625 50.6875 5.359375 
Q 44.046875 -1.421875 33.015625 -1.421875 
Q 20.359375 -1.421875 13.671875 8.265625 
Q 6.984375 17.96875 6.984375 36.375 
Q 6.984375 53.65625 15.1875 63.9375 
Q 23.390625 74.21875 37.203125 74.21875 
Q 40.921875 74.21875 44.703125 73.484375 
Q 48.484375 72.75 52.59375 71.296875 
z
" id="DejaVuSans-36"/>
      </defs>
      <g transform="translate(354.797168 322.182437)scale(0.1 -0.1)">
       <use xlink:href="#DejaVuSans-36"/>
       <use x="63.623047" xlink:href="#DejaVuSans-30"/>
       <use x="127.246094" xlink:href="#DejaVuSans-30"/>
      </g>
     </g>
    </g>
    <g id="xtick_8">
     <g id="line2d_15">
      <path clip-path="url(#p3ca21ef867)" d="M 412.80774 307.584 
L 412.80774 41.472 
" style="fill:none;stroke:#b0b0b0;stroke-linecap:square;stroke-width:0.8;"/>
     </g>
     <g id="line2d_16">
      <g>
       <use style="stroke:#000000;stroke-width:0.8;" x="412.80774" xlink:href="#mc3e207e9ef" y="307.584"/>
      </g>
     </g>
     <g id="text_8">
      <!-- 700 -->
      <defs>
       <path d="M 8.203125 72.90625 
L 55.078125 72.90625 
L 55.078125 68.703125 
L 28.609375 0 
L 18.3125 0 
L 43.21875 64.59375 
L 8.203125 64.59375 
z
" id="DejaVuSans-37"/>
      </defs>
      <g transform="translate(403.26399 322.182437)scale(0.1 -0.1)">
       <use xlink:href="#DejaVuSans-37"/>
       <use x="63.623047" xlink:href="#DejaVuSans-30"/>
       <use x="127.246094" xlink:href="#DejaVuSans-30"/>
      </g>
     </g>
    </g>
    <g id="text_9">
     <!-- time -->
     <defs>
      <path d="M 18.3125 70.21875 
L 18.3125 54.6875 
L 36.8125 54.6875 
L 36.8125 47.703125 
L 18.3125 47.703125 
L 18.3125 18.015625 
Q 18.3125 11.328125 20.140625 9.421875 
Q 21.96875 7.515625 27.59375 7.515625 
L 36.8125 7.515625 
L 36.8125 0 
L 27.59375 0 
Q 17.1875 0 13.234375 3.875 
Q 9.28125 7.765625 9.28125 18.015625 
L 9.28125 47.703125 
L 2.6875 47.703125 
L 2.6875 54.6875 
L 9.28125 54.6875 
L 9.28125 70.21875 
z
" id="DejaVuSans-74"/>
      <path d="M 9.421875 54.6875 
L 18.40625 54.6875 
L 18.40625 0 
L 9.421875 0 
z
M 9.421875 75.984375 
L 18.40625 75.984375 
L 18.40625 64.59375 
L 9.421875 64.59375 
z
" id="DejaVuSans-69"/>
      <path d="M 52 44.1875 
Q 55.375 50.25 60.0625 53.125 
Q 64.75 56 71.09375 56 
Q 79.640625 56 84.28125 50.015625 
Q 88.921875 44.046875 88.921875 33.015625 
L 88.921875 0 
L 79.890625 0 
L 79.890625 32.71875 
Q 79.890625 40.578125 77.09375 44.375 
Q 74.3125 48.1875 68.609375 48.1875 
Q 61.625 48.1875 57.5625 43.546875 
Q 53.515625 38.921875 53.515625 30.90625 
L 53.515625 0 
L 44.484375 0 
L 44.484375 32.71875 
Q 44.484375 40.625 41.703125 44.40625 
Q 38.921875 48.1875 33.109375 48.1875 
Q 26.21875 48.1875 22.15625 43.53125 
Q 18.109375 38.875 18.109375 30.90625 
L 18.109375 0 
L 9.078125 0 
L 9.078125 54.6875 
L 18.109375 54.6875 
L 18.109375 46.1875 
Q 21.1875 51.21875 25.484375 53.609375 
Q 29.78125 56 35.6875 56 
Q 41.65625 56 45.828125 52.96875 
Q 50 49.953125 52 44.1875 
z
" id="DejaVuSans-6d"/>
      <path d="M 56.203125 29.59375 
L 56.203125 25.203125 
L 14.890625 25.203125 
Q 15.484375 15.921875 20.484375 11.0625 
Q 25.484375 6.203125 34.421875 6.203125 
Q 39.59375 6.203125 44.453125 7.46875 
Q 49.3125 8.734375 54.109375 11.28125 
L 54.109375 2.78125 
Q 49.265625 0.734375 44.1875 -0.34375 
Q 39.109375 -1.421875 33.890625 -1.421875 
Q 20.796875 -1.421875 13.15625 6.1875 
Q 5.515625 13.8125 5.515625 26.8125 
Q 5.515625 40.234375 12.765625 48.109375 
Q 20.015625 56 32.328125 56 
Q 43.359375 56 49.78125 48.890625 
Q 56.203125 41.796875 56.203125 29.59375 
z
M 47.21875 32.234375 
Q 47.125 39.59375 43.09375 43.984375 
Q 39.0625 48.390625 32.421875 48.390625 
Q 24.90625 48.390625 20.390625 44.140625 
Q 15.875 39.890625 15.1875 32.171875 
z
" id="DejaVuSans-65"/>
     </defs>
     <g transform="translate(224.863906 335.860562)scale(0.1 -0.1)">
      <use xlink:href="#DejaVuSans-74"/>
      <use x="39.208984" xlink:href="#DejaVuSans-69"/>
      <use x="66.992188" xlink:href="#DejaVuSans-6d"/>
      <use x="164.404297" xlink:href="#DejaVuSans-65"/>
     </g>
    </g>
   </g>
   <g id="matplotlib.axis_2">
    <g id="ytick_1">
     <g id="line2d_17">
      <path clip-path="url(#p3ca21ef867)" d="M 57.6 290.730859 
L 414.72 290.730859 
" style="fill:none;stroke:#b0b0b0;stroke-linecap:square;stroke-width:0.8;"/>
     </g>
     <g id="line2d_18">
      <defs>
       <path d="M 0 0 
L -3.5 0 
" id="m0f1d6d6ae4" style="stroke:#000000;stroke-width:0.8;"/>
      </defs>
      <g>
       <use style="stroke:#000000;stroke-width:0.8;" x="57.6" xlink:href="#m0f1d6d6ae4" y="290.730859"/>
      </g>
     </g>
     <g id="text_10">
      <!-- $\mathdefault{10^{-1}}$ -->
      <defs>
       <path d="M 10.59375 35.5 
L 73.1875 35.5 
L 73.1875 27.203125 
L 10.59375 27.203125 
z
" id="DejaVuSans-2212"/>
      </defs>
      <g transform="translate(27.1 294.530078)scale(0.1 -0.1)">
       <use transform="translate(0 0.684375)" xlink:href="#DejaVuSans-31"/>
       <use transform="translate(63.623047 0.684375)" xlink:href="#DejaVuSans-30"/>
       <use transform="translate(128.203125 38.965625)scale(0.7)" xlink:href="#DejaVuSans-2212"/>
       <use transform="translate(186.855469 38.965625)scale(0.7)" xlink:href="#DejaVuSans-31"/>
      </g>
     </g>
    </g>
    <g id="ytick_2">
     <g id="line2d_19">
      <path clip-path="url(#p3ca21ef867)" d="M 57.6 47.300573 
L 414.72 47.300573 
" style="fill:none;stroke:#b0b0b0;stroke-linecap:square;stroke-width:0.8;"/>
     </g>
     <g id="line2d_20">
      <g>
       <use style="stroke:#000000;stroke-width:0.8;" x="57.6" xlink:href="#m0f1d6d6ae4" y="47.300573"/>
      </g>
     </g>
     <g id="text_11">
      <!-- $\mathdefault{10^{0}}$ -->
      <g transform="translate(33 51.099792)scale(0.1 -0.1)">
       <use transform="translate(0 0.765625)" xlink:href="#DejaVuSans-31"/>
       <use transform="translate(63.623047 0.765625)" xlink:href="#DejaVuSans-30"/>
       <use transform="translate(128.203125 39.046875)scale(0.7)" xlink:href="#DejaVuSans-30"/>
      </g>
     </g>
    </g>
    <g id="ytick_3">
     <g id="line2d_21">
      <path clip-path="url(#p3ca21ef867)" d="M 57.6 301.869618 
L 414.72 301.869618 
" style="fill:none;stroke:#b0b0b0;stroke-linecap:square;stroke-width:0.8;"/>
     </g>
     <g id="line2d_22">
      <defs>
       <path d="M 0 0 
L -2 0 
" id="meac7cd5326" style="stroke:#000000;stroke-width:0.6;"/>
      </defs>
      <g>
       <use style="stroke:#000000;stroke-width:0.6;" x="57.6" xlink:href="#meac7cd5326" y="301.869618"/>
      </g>
     </g>
    </g>
    <g id="ytick_4">
     <g id="line2d_23">
      <path clip-path="url(#p3ca21ef867)" d="M 57.6 217.451041 
L 414.72 217.451041 
" style="fill:none;stroke:#b0b0b0;stroke-linecap:square;stroke-width:0.8;"/>
     </g>
     <g id="line2d_24">
      <g>
       <use style="stroke:#000000;stroke-width:0.6;" x="57.6" xlink:href="#meac7cd5326" y="217.451041"/>
      </g>
     </g>
    </g>
    <g id="ytick_5">
     <g id="line2d_25">
      <path clip-path="url(#p3ca21ef867)" d="M 57.6 174.585096 
L 414.72 174.585096 
" style="fill:none;stroke:#b0b0b0;stroke-linecap:square;stroke-width:0.8;"/>
     </g>
     <g id="line2d_26">
      <g>
       <use style="stroke:#000000;stroke-width:0.6;" x="57.6" xlink:href="#meac7cd5326" y="174.585096"/>
      </g>
     </g>
    </g>
    <g id="ytick_6">
     <g id="line2d_27">
      <path clip-path="url(#p3ca21ef867)" d="M 57.6 144.171223 
L 414.72 144.171223 
" style="fill:none;stroke:#b0b0b0;stroke-linecap:square;stroke-width:0.8;"/>
     </g>
     <g id="line2d_28">
      <g>
       <use style="stroke:#000000;stroke-width:0.6;" x="57.6" xlink:href="#meac7cd5326" y="144.171223"/>
      </g>
     </g>
    </g>
    <g id="ytick_7">
     <g id="line2d_29">
      <path clip-path="url(#p3ca21ef867)" d="M 57.6 120.580391 
L 414.72 120.580391 
" style="fill:none;stroke:#b0b0b0;stroke-linecap:square;stroke-width:0.8;"/>
     </g>
     <g id="line2d_30">
      <g>
       <use style="stroke:#000000;stroke-width:0.6;" x="57.6" xlink:href="#meac7cd5326" y="120.580391"/>
      </g>
     </g>
    </g>
    <g id="ytick_8">
     <g id="line2d_31">
      <path clip-path="url(#p3ca21ef867)" d="M 57.6 101.305278 
L 414.72 101.305278 
" style="fill:none;stroke:#b0b0b0;stroke-linecap:square;stroke-width:0.8;"/>
     </g>
     <g id="line2d_32">
      <g>
       <use style="stroke:#000000;stroke-width:0.6;" x="57.6" xlink:href="#meac7cd5326" y="101.305278"/>
      </g>
     </g>
    </g>
    <g id="ytick_9">
     <g id="line2d_33">
      <path clip-path="url(#p3ca21ef867)" d="M 57.6 85.008402 
L 414.72 85.008402 
" style="fill:none;stroke:#b0b0b0;stroke-linecap:square;stroke-width:0.8;"/>
     </g>
     <g id="line2d_34">
      <g>
       <use style="stroke:#000000;stroke-width:0.6;" x="57.6" xlink:href="#meac7cd5326" y="85.008402"/>
      </g>
     </g>
    </g>
    <g id="ytick_10">
     <g id="line2d_35">
      <path clip-path="url(#p3ca21ef867)" d="M 57.6 70.891406 
L 414.72 70.891406 
" style="fill:none;stroke:#b0b0b0;stroke-linecap:square;stroke-width:0.8;"/>
     </g>
     <g id="line2d_36">
      <g>
       <use style="stroke:#000000;stroke-width:0.6;" x="57.6" xlink:href="#meac7cd5326" y="70.891406"/>
      </g>
     </g>
    </g>
    <g id="ytick_11">
     <g id="line2d_37">
      <path clip-path="url(#p3ca21ef867)" d="M 57.6 58.439332 
L 414.72 58.439332 
" style="fill:none;stroke:#b0b0b0;stroke-linecap:square;stroke-width:0.8;"/>
     </g>
     <g id="line2d_38">
      <g>
       <use style="stroke:#000000;stroke-width:0.6;" x="57.6" xlink:href="#meac7cd5326" y="58.439332"/>
      </g>
     </g>
    </g>
    <g id="text_12">
     <!-- test acc -->
     <defs>
      <path d="M 44.28125 53.078125 
L 44.28125 44.578125 
Q 40.484375 46.53125 36.375 47.5 
Q 32.28125 48.484375 27.875 48.484375 
Q 21.1875 48.484375 17.84375 46.4375 
Q 14.5 44.390625 14.5 40.28125 
Q 14.5 37.15625 16.890625 35.375 
Q 19.28125 33.59375 26.515625 31.984375 
L 29.59375 31.296875 
Q 39.15625 29.25 43.1875 25.515625 
Q 47.21875 21.78125 47.21875 15.09375 
Q 47.21875 7.46875 41.1875 3.015625 
Q 35.15625 -1.421875 24.609375 -1.421875 
Q 20.21875 -1.421875 15.453125 -0.5625 
Q 10.6875 0.296875 5.421875 2 
L 5.421875 11.28125 
Q 10.40625 8.6875 15.234375 7.390625 
Q 20.0625 6.109375 24.8125 6.109375 
Q 31.15625 6.109375 34.5625 8.28125 
Q 37.984375 10.453125 37.984375 14.40625 
Q 37.984375 18.0625 35.515625 20.015625 
Q 33.0625 21.96875 24.703125 23.78125 
L 21.578125 24.515625 
Q 13.234375 26.265625 9.515625 29.90625 
Q 5.8125 33.546875 5.8125 39.890625 
Q 5.8125 47.609375 11.28125 51.796875 
Q 16.75 56 26.8125 56 
Q 31.78125 56 36.171875 55.265625 
Q 40.578125 54.546875 44.28125 53.078125 
z
" id="DejaVuSans-73"/>
      <path id="DejaVuSans-20"/>
      <path d="M 34.28125 27.484375 
Q 23.390625 27.484375 19.1875 25 
Q 14.984375 22.515625 14.984375 16.5 
Q 14.984375 11.71875 18.140625 8.90625 
Q 21.296875 6.109375 26.703125 6.109375 
Q 34.1875 6.109375 38.703125 11.40625 
Q 43.21875 16.703125 43.21875 25.484375 
L 43.21875 27.484375 
z
M 52.203125 31.203125 
L 52.203125 0 
L 43.21875 0 
L 43.21875 8.296875 
Q 40.140625 3.328125 35.546875 0.953125 
Q 30.953125 -1.421875 24.3125 -1.421875 
Q 15.921875 -1.421875 10.953125 3.296875 
Q 6 8.015625 6 15.921875 
Q 6 25.140625 12.171875 29.828125 
Q 18.359375 34.515625 30.609375 34.515625 
L 43.21875 34.515625 
L 43.21875 35.40625 
Q 43.21875 41.609375 39.140625 45 
Q 35.0625 48.390625 27.6875 48.390625 
Q 23 48.390625 18.546875 47.265625 
Q 14.109375 46.140625 10.015625 43.890625 
L 10.015625 52.203125 
Q 14.9375 54.109375 19.578125 55.046875 
Q 24.21875 56 28.609375 56 
Q 40.484375 56 46.34375 49.84375 
Q 52.203125 43.703125 52.203125 31.203125 
z
" id="DejaVuSans-61"/>
      <path d="M 48.78125 52.59375 
L 48.78125 44.1875 
Q 44.96875 46.296875 41.140625 47.34375 
Q 37.3125 48.390625 33.40625 48.390625 
Q 24.65625 48.390625 19.8125 42.84375 
Q 14.984375 37.3125 14.984375 27.296875 
Q 14.984375 17.28125 19.8125 11.734375 
Q 24.65625 6.203125 33.40625 6.203125 
Q 37.3125 6.203125 41.140625 7.25 
Q 44.96875 8.296875 48.78125 10.40625 
L 48.78125 2.09375 
Q 45.015625 0.34375 40.984375 -0.53125 
Q 36.96875 -1.421875 32.421875 -1.421875 
Q 20.0625 -1.421875 12.78125 6.34375 
Q 5.515625 14.109375 5.515625 27.296875 
Q 5.515625 40.671875 12.859375 48.328125 
Q 20.21875 56 33.015625 56 
Q 37.15625 56 41.109375 55.140625 
Q 45.0625 54.296875 48.78125 52.59375 
z
" id="DejaVuSans-63"/>
     </defs>
     <g transform="translate(21.020312 194.281125)rotate(-90)scale(0.1 -0.1)">
      <use xlink:href="#DejaVuSans-74"/>
      <use x="39.208984" xlink:href="#DejaVuSans-65"/>
      <use x="100.732422" xlink:href="#DejaVuSans-73"/>
      <use x="152.832031" xlink:href="#DejaVuSans-74"/>
      <use x="192.041016" xlink:href="#DejaVuSans-20"/>
      <use x="223.828125" xlink:href="#DejaVuSans-61"/>
      <use x="285.107422" xlink:href="#DejaVuSans-63"/>
      <use x="340.087891" xlink:href="#DejaVuSans-63"/>
     </g>
    </g>
   </g>
   <g id="line2d_39">
    <path clip-path="url(#p3ca21ef867)" d="M 73.837263 289.741729 
L 74.134533 290.435256 
L 74.431804 289.000707 
L 74.729075 289.836033 
L 75.026346 286.65561 
L 75.323617 281.435993 
L 75.620887 272.883763 
L 76.215429 283.026097 
L 76.809971 261.099564 
L 77.107241 263.89196 
L 77.404512 280.712307 
L 77.701783 260.311701 
L 77.999054 250.541523 
L 78.296324 248.970163 
L 78.593595 249.341163 
L 78.890866 244.044278 
L 79.188137 241.088136 
L 79.485408 249.176906 
L 80.079949 220.382772 
L 80.37722 217.023738 
L 80.674491 225.1801 
L 80.971762 220.731163 
L 81.566303 195.072344 
L 82.160845 188.187832 
L 82.458116 191.406588 
L 83.052657 180.969251 
L 83.349928 178.505104 
L 83.647199 172.45701 
L 83.944469 174.754384 
L 84.24174 184.362211 
L 84.539011 172.074333 
L 84.836282 173.369281 
L 85.133553 173.526165 
L 85.430823 164.236903 
L 85.728094 162.745623 
L 86.322636 146.709673 
L 86.619907 145.004403 
L 86.917177 140.725986 
L 87.214448 142.834418 
L 87.80899 130.212265 
L 88.106261 129.17054 
L 88.403531 128.553132 
L 88.700802 123.33727 
L 88.998073 121.790388 
L 90.187156 112.226946 
L 90.484427 118.15363 
L 90.781698 112.989707 
L 91.078968 111.673526 
L 91.376239 106.733591 
L 91.67351 107.70628 
L 92.268052 101.338761 
L 92.565322 100.119079 
L 92.862593 100.256814 
L 93.159864 102.353566 
L 93.457135 98.970168 
L 93.754406 100.356304 
L 94.051676 97.067398 
L 94.348947 96.810409 
L 94.646218 92.898443 
L 94.943489 94.553293 
L 95.240759 92.74721 
L 95.53803 92.825239 
L 95.835301 92.024936 
L 96.132572 90.542494 
L 96.429843 90.878826 
L 96.727113 92.149282 
L 97.024384 88.286187 
L 97.321655 87.059513 
L 97.618926 86.557168 
L 97.916197 85.73736 
L 98.213467 85.802772 
L 98.510738 87.488469 
L 98.808009 85.335129 
L 99.10528 84.479614 
L 99.40255 85.235189 
L 99.997092 83.830915 
L 100.294363 85.236702 
L 100.591634 85.220054 
L 100.888904 83.371895 
L 101.186175 83.425444 
L 101.483446 81.100401 
L 101.780717 79.689309 
L 102.077988 79.575912 
L 102.672529 77.955764 
L 102.9698 77.593289 
L 103.267071 85.061275 
L 103.564342 78.727149 
L 103.861612 76.209877 
L 104.456154 76.122363 
L 104.753425 75.761958 
L 105.050695 75.83948 
L 105.347966 76.055734 
L 105.645237 75.804865 
L 105.942508 75.998855 
L 106.239779 75.752272 
L 106.537049 77.866793 
L 106.83432 75.542161 
L 107.131591 77.178746 
L 107.428862 75.569783 
L 107.726133 75.853329 
L 108.023403 75.513165 
L 109.212487 75.220891 
L 109.509757 73.787817 
L 109.807028 77.569356 
L 110.104299 76.308591 
L 110.40157 77.952938 
L 110.69884 74.849821 
L 110.996111 75.831171 
L 111.293382 72.989494 
L 111.887924 72.651688 
L 112.185194 72.737719 
L 112.482465 70.520713 
L 112.779736 70.153941 
L 113.077007 67.579282 
L 113.374278 66.647178 
L 113.671548 66.226541 
L 113.968819 64.712493 
L 114.26609 68.983296 
L 114.563361 65.937375 
L 114.860632 66.052189 
L 115.157902 64.762364 
L 115.752444 64.508267 
L 116.049715 64.572979 
L 116.346985 64.418731 
L 116.644256 67.380952 
L 116.941527 64.56302 
L 117.238798 64.220034 
L 117.536069 64.428676 
L 118.13061 64.524441 
L 118.427881 64.354114 
L 118.725152 64.493339 
L 119.319693 64.234924 
L 120.806047 64.254779 
L 121.103318 64.148099 
L 121.400589 64.329271 
L 121.69786 64.267191 
L 121.99513 63.99447 
L 122.292401 64.202666 
L 122.589672 64.249815 
L 122.886943 64.07869 
L 123.184214 64.223756 
L 123.778755 64.305677 
L 124.076026 64.005612 
L 124.373297 64.153058 
L 124.670568 64.169178 
L 124.967838 64.311885 
L 125.265109 64.086125 
L 125.56238 64.217553 
L 126.156921 63.956097 
L 126.454192 64.223756 
L 126.751463 64.107192 
L 127.048734 64.22996 
L 127.346005 64.042764 
L 127.643275 64.30071 
L 128.237817 63.858372 
L 128.535088 64.09356 
L 129.129629 64.052674 
L 129.4269 64.282087 
L 129.724171 64.084885 
L 130.021442 64.221275 
L 130.318713 63.915264 
L 130.913254 64.272156 
L 131.805066 64.068778 
L 132.102337 64.193983 
L 132.399608 63.970949 
L 132.696879 64.360325 
L 133.29142 64.077451 
L 133.588691 64.190262 
L 133.885962 64.048958 
L 134.183233 64.198945 
L 134.777774 63.923924 
L 135.372316 64.099756 
L 135.669587 63.95981 
L 135.966858 64.249815 
L 136.264128 64.079929 
L 136.85867 64.107192 
L 137.155941 63.850954 
L 137.453211 64.122065 
L 137.750482 64.068778 
L 138.047753 64.249815 
L 138.345024 63.895472 
L 138.642295 63.796568 
L 139.236836 64.066301 
L 140.425919 63.954859 
L 140.72319 64.267191 
L 141.615003 63.937535 
L 142.209544 63.995708 
L 142.506815 64.25602 
L 143.101356 63.946197 
L 143.695898 63.92145 
L 143.993169 64.176619 
L 144.29044 63.977138 
L 144.58771 64.187781 
L 145.182252 63.842299 
L 145.479523 64.00066 
L 145.776794 63.909079 
L 146.668606 64.032856 
L 146.965877 63.842299 
L 147.263147 64.108431 
L 148.452231 64.016757 
L 148.749501 64.155538 
L 150.235855 64.066301 
L 150.533126 64.170418 
L 151.127668 64.011804 
L 151.722209 63.927636 
L 152.01948 64.1419 
L 152.316751 63.782975 
L 152.614022 64.032856 
L 152.911292 63.883104 
L 153.208563 64.047719 
L 153.505834 66.197462 
L 153.803105 64.145619 
L 154.397646 63.990755 
L 154.694917 64.016757 
L 154.992188 64.171658 
L 155.289459 63.818813 
L 155.58673 63.930111 
L 155.884 63.920213 
L 156.181271 64.107192 
L 156.478542 63.915264 
L 156.775813 64.032856 
L 157.073084 63.951147 
L 157.667625 64.05639 
L 157.964896 63.766914 
L 158.262167 63.914027 
L 158.559437 63.827465 
L 158.856708 64.039049 
L 159.153979 64.032856 
L 159.45125 64.167938 
L 159.748521 63.961048 
L 160.343062 63.952384 
L 160.640333 63.800275 
L 160.937604 63.879394 
L 161.234875 64.083646 
L 161.532145 64.131982 
L 162.126687 63.910316 
L 163.018499 64.022948 
L 164.207582 64.035333 
L 164.504853 64.144379 
L 164.802124 63.923924 
L 165.396666 64.086125 
L 166.288478 64.057629 
L 166.585749 64.052674 
L 166.88302 64.196464 
L 167.774832 64.055151 
L 168.666644 64.026664 
L 168.963915 64.063823 
L 169.261186 64.34045 
L 169.558457 63.974663 
L 170.152998 64.077451 
L 171.044811 64.045242 
L 171.342081 63.794096 
L 171.639352 63.874447 
L 171.936623 63.821285 
L 172.233894 63.983328 
L 173.422977 64.076212 
L 174.017518 64.03781 
L 174.314789 64.096038 
L 174.61206 63.933823 
L 174.909331 64.161738 
L 175.206602 64.074973 
L 175.801143 64.174139 
L 176.098414 64.167938 
L 176.692956 63.843536 
L 176.990226 64.010565 
L 177.287497 64.315611 
L 177.882039 63.999422 
L 179.071122 63.978376 
L 179.368393 64.102234 
L 179.665663 64.003136 
L 180.557476 64.248574 
L 180.854747 64.122065 
L 181.449288 64.128263 
L 181.746559 64.02171 
L 182.04383 64.195223 
L 182.341101 64.145619 
L 182.638371 63.90042 
L 182.935642 63.901657 
L 183.232913 64.14066 
L 183.827455 64.193983 
L 184.124725 64.690058 
L 184.421996 63.998184 
L 185.016538 64.170418 
L 186.502892 64.186541 
L 187.097433 64.207628 
L 187.394704 64.066301 
L 188.583787 64.096038 
L 188.881058 63.91279 
L 189.178329 64.103474 
L 189.475599 64.083646 
L 189.77287 63.906605 
L 190.070141 63.926399 
L 190.664683 64.726205 
L 190.961953 64.108431 
L 191.259224 64.155538 
L 191.556495 63.881867 
L 191.853766 64.201426 
L 192.448307 64.144379 
L 192.745578 64.176619 
L 193.042849 64.003136 
L 193.34012 64.077451 
L 193.637391 64.267191 
L 193.934661 64.02171 
L 194.529203 64.242369 
L 194.826474 64.097277 
L 195.123744 64.150578 
L 195.718286 64.108431 
L 196.312828 64.203907 
L 196.610098 63.922687 
L 196.907369 64.076212 
L 197.501911 64.129503 
L 197.799182 64.154298 
L 198.096452 64.324304 
L 198.393723 64.074973 
L 199.582806 64.234924 
L 200.474619 63.954859 
L 200.771889 64.18282 
L 201.06916 63.94001 
L 201.366431 64.306918 
L 201.663702 64.135701 
L 201.960973 64.145619 
L 202.258243 64.294502 
L 202.555514 64.155538 
L 202.852785 64.193983 
L 203.150056 64.066301 
L 203.447327 64.162978 
L 204.041868 63.949909 
L 204.339139 64.171658 
L 204.63641 64.127023 
L 204.933681 64.453542 
L 205.230951 64.077451 
L 207.014576 64.262226 
L 207.311847 64.00066 
L 207.609118 64.196464 
L 209.095472 64.10967 
L 211.473638 64.233683 
L 211.770909 64.127023 
L 212.068179 64.218794 
L 212.36545 63.974663 
L 212.662721 63.974663 
L 212.959992 64.149339 
L 213.257263 64.102234 
L 213.554533 64.207628 
L 215.040887 64.096038 
L 215.338158 64.231201 
L 215.635429 64.122065 
L 215.9327 64.310643 
L 217.121783 64.187781 
L 217.419054 64.351629 
L 218.310866 64.149339 
L 219.79722 64.238646 
L 220.094491 61.774601 
L 220.391762 61.41757 
L 220.986303 61.815828 
L 221.580845 61.659493 
L 222.175386 60.896897 
L 222.472657 61.537252 
L 222.769928 61.861924 
L 223.067199 60.967856 
L 223.364469 61.007566 
L 223.66174 59.640774 
L 223.959011 59.481689 
L 224.553553 56.868774 
L 224.850823 56.862987 
L 225.148094 55.927423 
L 225.742636 55.855181 
L 226.337177 54.79332 
L 226.931719 54.653825 
L 227.52626 54.545079 
L 227.823531 54.737727 
L 228.120802 54.524702 
L 229.012614 54.491879 
L 229.607156 54.425135 
L 230.201698 54.416088 
L 231.985322 54.3833 
L 232.282593 57.267654 
L 232.579864 54.52357 
L 232.877135 54.401389 
L 233.174405 54.489616 
L 233.471676 54.341481 
L 233.768947 54.425135 
L 234.066218 54.364084 
L 234.363489 54.433052 
L 234.95803 54.357302 
L 235.552572 54.336961 
L 235.849843 54.420611 
L 236.444384 54.298549 
L 237.038926 54.344871 
L 237.336196 54.496406 
L 237.633467 54.309845 
L 238.228009 54.27709 
L 238.82255 54.271444 
L 239.714363 54.440969 
L 240.011634 54.709374 
L 240.308904 54.382169 
L 240.903446 54.416088 
L 241.200717 54.284996 
L 241.497988 54.370865 
L 242.3898 54.27709 
L 242.687071 54.486222 
L 242.984341 54.336961 
L 245.957049 54.503196 
L 246.25432 54.265797 
L 246.848862 54.316624 
L 247.740674 54.356172 
L 250.11884 54.323402 
L 250.416111 54.405911 
L 251.010653 54.326792 
L 251.902465 54.362953 
L 251.902465 54.362953 
" style="fill:none;stroke:#1f77b4;stroke-linecap:square;stroke-width:1.5;"/>
   </g>
   <g id="line2d_40">
    <path clip-path="url(#p3ca21ef867)" d="M 73.832727 120.874703 
L 74.125463 97.455755 
L 74.418198 87.153488 
L 75.003669 76.732298 
L 75.58914 71.89388 
L 76.467346 67.848581 
L 77.345552 65.009573 
L 77.931023 63.791625 
L 78.516494 62.91179 
L 79.101964 62.106083 
L 80.272906 60.743115 
L 80.565641 60.590755 
L 81.443848 59.820329 
L 82.322054 59.347721 
L 82.907525 58.992875 
L 87.298556 57.617912 
L 90.22591 56.91392 
L 92.567793 56.55675 
L 92.860528 56.586757 
L 93.445999 56.444877 
L 94.616941 56.338881 
L 96.666088 56.142146 
L 97.251559 56.072055 
L 97.83703 55.962988 
L 99.593442 55.789861 
L 100.471649 55.68223 
L 100.764384 55.749773 
L 101.935326 55.609011 
L 103.691738 55.491282 
L 104.277209 55.494709 
L 107.497298 55.289276 
L 108.375504 55.264195 
L 123.89048 54.642492 
L 125.061422 54.628894 
L 131.208865 54.495274 
L 133.550749 54.41835 
L 134.428955 54.399127 
L 134.72169 54.472644 
L 135.307161 54.396866 
L 136.185367 54.367475 
L 136.770838 54.419481 
L 137.356309 54.318883 
L 138.819986 54.335831 
L 140.576398 54.26241 
L 141.454604 54.332441 
L 142.040075 54.321143 
L 142.625546 54.294031 
L 144.967429 54.273702 
L 145.5529 54.222896 
L 147.016577 54.266927 
L 147.309312 54.160834 
L 147.602048 54.253377 
L 148.187519 54.22854 
L 152.57855 54.138275 
L 153.16402 54.166474 
L 154.042227 54.131508 
L 166.922584 53.997388 
L 167.508055 53.999641 
L 169.557203 53.995136 
L 170.435409 53.961352 
L 171.02088 53.983873 
L 175.704646 53.943338 
L 176.582852 53.921951 
L 177.461058 53.930955 
L 178.924735 53.900568 
L 179.510206 53.943338 
L 198.538007 53.903943 
L 199.708949 53.869064 
L 201.465361 53.858939 
L 202.343567 53.89044 
L 202.929038 53.872439 
L 203.514509 53.874689 
L 204.978186 53.912947 
L 205.563657 53.846567 
L 206.734598 53.90957 
L 207.612805 53.865689 
L 209.369217 53.853315 
L 227.811547 53.846567 
L 228.104282 53.897192 
L 228.689753 53.846567 
L 229.567959 53.844317 
L 230.446166 53.867939 
L 232.495313 53.851066 
L 234.544461 53.874689 
L 235.129932 53.842068 
L 236.593609 53.871314 
L 238.642757 53.839818 
L 239.228228 53.874689 
L 240.98464 53.849941 
L 242.741052 53.842068 
L 249.181231 53.900568 
L 249.181231 53.900568 
" style="fill:none;stroke:#ff7f0e;stroke-linecap:square;stroke-width:1.5;"/>
   </g>
   <g id="line2d_41">
    <path clip-path="url(#p3ca21ef867)" d="M 73.841181 204.905036 
L 74.14237 180.082061 
L 74.744748 154.037282 
L 75.347125 138.571013 
L 76.85307 114.018009 
L 77.455448 107.983698 
L 78.359015 101.66534 
L 79.56377 95.478042 
L 81.069715 90.162819 
L 82.57566 86.049572 
L 83.780415 83.293108 
L 84.382793 82.162398 
L 85.28636 80.470601 
L 87.394683 77.737002 
L 89.804194 74.94178 
L 90.707761 74.220612 
L 92.816083 72.905951 
L 94.020839 72.078146 
L 95.526784 71.224951 
L 95.827973 71.103058 
L 96.430351 70.684133 
L 102.755318 67.8961 
L 103.357696 67.739496 
L 105.466018 67.050378 
L 105.767207 66.825058 
L 106.670774 66.614176 
L 107.273152 66.340404 
L 108.176719 66.039566 
L 111.188608 65.122132 
L 112.995742 64.732438 
L 122.934976 62.700003 
L 124.139732 62.622983 
L 125.946866 62.437389 
L 127.45281 62.238725 
L 130.4647 61.829169 
L 137.392045 61.015992 
L 138.89799 60.822381 
L 141.909879 60.509266 
L 143.114635 60.412281 
L 144.921768 60.292669 
L 147.030091 60.068164 
L 152.75268 59.489994 
L 153.957436 59.433061 
L 154.559814 59.386827 
L 155.76457 59.347721 
L 159.378837 59.14413 
L 161.487159 59.047207 
L 163.595482 58.978706 
L 165.402616 58.93857 
L 167.510938 58.874857 
L 172.329961 58.630977 
L 173.835906 58.562745 
L 176.245417 58.494556 
L 178.052551 58.407621 
L 179.859684 58.305505 
L 180.763251 58.280871 
L 183.473951 58.211691 
L 184.979896 58.150757 
L 189.798919 58.041867 
L 190.702486 58.000916 
L 197.328642 57.826757 
L 200.039343 57.736869 
L 202.448854 57.68787 
L 203.352421 57.635398 
L 209.376199 57.50724 
L 216.905923 57.293215 
L 254.25335 56.507143 
L 254.25335 56.507143 
" style="fill:none;stroke:#2ca02c;stroke-linecap:square;stroke-width:1.5;"/>
   </g>
   <g id="line2d_42">
    <path clip-path="url(#p3ca21ef867)" d="M 73.845401 258.122436 
L 74.45622 238.412022 
L 75.067039 222.851536 
L 75.677858 213.116717 
L 77.204906 199.193968 
L 79.648182 179.567335 
L 80.86982 172.194847 
L 82.091458 166.152227 
L 82.702277 164.233707 
L 83.923915 159.824726 
L 85.756372 153.811204 
L 86.367191 151.903126 
L 86.672601 150.740839 
L 87.588829 148.495202 
L 88.810467 144.908546 
L 91.253743 139.487393 
L 91.864562 138.408206 
L 92.475381 137.491168 
L 98.583572 126.400058 
L 99.194391 125.339744 
L 99.4998 124.955595 
L 100.110619 123.828893 
L 100.721438 122.880332 
L 102.553895 120.162565 
L 103.164714 119.25246 
L 103.470124 118.769147 
L 103.775533 118.497214 
L 104.691762 117.119294 
L 105.302581 116.330324 
L 106.524219 114.420177 
L 107.135038 113.85122 
L 108.051266 112.393147 
L 108.662085 111.667696 
L 109.272904 111.082393 
L 109.883723 110.494548 
L 112.02159 108.903618 
L 112.327 108.750371 
L 112.937819 108.299489 
L 113.548638 107.816785 
L 114.159457 107.282191 
L 115.381095 106.561232 
L 116.908142 105.183238 
L 117.824371 104.458249 
L 119.046009 103.399772 
L 119.351418 103.157419 
L 120.573056 102.672589 
L 121.183875 102.301971 
L 122.100104 101.686558 
L 123.321742 101.146816 
L 123.932561 100.669348 
L 124.54338 100.43142 
L 125.154199 99.958904 
L 125.459608 99.771182 
L 125.765018 99.752081 
L 126.681246 99.248018 
L 127.292065 99.033957 
L 128.208294 98.521285 
L 128.819113 98.180309 
L 129.735342 97.666642 
L 130.95698 96.950661 
L 131.567799 96.744572 
L 132.789437 96.330232 
L 133.705665 95.910813 
L 135.232713 95.083578 
L 137.981398 94.14085 
L 143.478769 92.351454 
L 143.784179 92.167058 
L 144.700407 92.060449 
L 145.311227 91.883006 
L 145.922046 91.723562 
L 148.670731 90.393003 
L 151.114007 89.847724 
L 152.641055 89.343001 
L 156.305969 88.286187 
L 157.222197 87.869505 
L 166.079073 85.845387 
L 167.300711 85.486734 
L 169.133168 85.008402 
L 170.965625 84.614949 
L 171.576444 84.488631 
L 173.103492 84.089617 
L 174.01972 83.941496 
L 177.379225 83.205472 
L 178.295453 83.128292 
L 179.517092 82.843811 
L 180.73873 82.722546 
L 182.571187 82.380208 
L 186.236101 81.764729 
L 187.152329 81.628603 
L 192.344291 80.683501 
L 193.260519 80.542968 
L 195.092976 80.112393 
L 197.230843 79.899201 
L 198.452481 79.801391 
L 200.284938 79.547223 
L 202.728214 79.200701 
L 205.4769 78.826818 
L 209.447223 78.258542 
L 210.974271 78.129684 
L 211.890499 78.003811 
L 213.722957 77.793413 
L 239.682765 74.763425 
L 241.820631 74.601794 
L 256.480288 73.786458 
L 256.785697 73.779668 
L 256.785697 73.779668 
" style="fill:none;stroke:#d62728;stroke-linecap:square;stroke-width:1.5;"/>
   </g>
   <g id="line2d_43">
    <path clip-path="url(#p3ca21ef867)" d="M 73.851482 295.488 
L 74.162972 295.488 
L 74.474462 291.900227 
L 74.785952 284.960334 
L 75.097442 272.340441 
L 75.408932 265.046485 
L 75.720422 262.831074 
L 76.031912 258.262319 
L 76.343402 257.379504 
L 76.654892 257.680691 
L 76.966382 256.91013 
L 77.900852 249.849831 
L 78.212342 249.355458 
L 78.523832 249.06992 
L 78.835322 248.147211 
L 79.146812 248.076566 
L 79.458303 247.442875 
L 79.769793 246.249228 
L 81.638733 242.237969 
L 82.573203 239.142849 
L 82.884693 238.238145 
L 83.196183 238.238145 
L 83.507673 237.78868 
L 84.753633 233.328512 
L 85.376613 231.025726 
L 85.688103 230.008888 
L 85.999593 229.409365 
L 86.311083 229.090218 
L 87.557043 226.122636 
L 87.868533 225.88192 
L 88.803004 223.459655 
L 89.114494 222.968425 
L 89.425984 222.26349 
L 89.737474 222.252426 
L 90.671944 220.095126 
L 90.983434 219.317529 
L 91.294924 219.10254 
L 91.606414 218.599032 
L 91.917904 217.874771 
L 92.229394 217.551523 
L 93.475354 215.466385 
L 93.786844 214.572698 
L 94.098334 214.480146 
L 94.409824 213.916302 
L 94.721314 213.814108 
L 95.344294 212.919028 
L 95.655784 212.974749 
L 95.967274 212.777326 
L 96.278764 212.348316 
L 96.590254 212.32817 
L 98.459195 210.105647 
L 99.082175 209.824941 
L 99.393665 209.36854 
L 99.705155 209.167955 
L 100.016645 208.563614 
L 100.328135 208.282119 
L 100.639625 207.66353 
L 100.951115 207.326764 
L 101.262605 207.326764 
L 101.574095 207.038959 
L 101.885585 206.494278 
L 102.197075 206.446633 
L 104.066015 204.389897 
L 104.377505 204.450646 
L 105.934955 203.01143 
L 106.246446 202.960719 
L 106.869426 202.349497 
L 108.426876 201.033411 
L 108.738366 200.942935 
L 109.049856 200.712573 
L 109.361346 200.685505 
L 109.984326 199.854277 
L 110.295816 199.452246 
L 110.607306 199.372023 
L 110.918796 199.171732 
L 111.230286 198.741279 
L 111.853266 198.48473 
L 112.787736 197.294206 
L 113.410716 196.993213 
L 113.722206 196.766943 
L 114.033696 196.714796 
L 114.345186 196.199053 
L 115.591147 195.179338 
L 115.902637 195.059512 
L 116.525617 194.54325 
L 116.837107 194.436898 
L 117.148597 194.080337 
L 117.460087 193.459233 
L 117.771577 193.227782 
L 118.706047 192.244524 
L 122.132437 189.113692 
L 122.443927 189.004583 
L 122.755417 188.581338 
L 123.066907 188.392433 
L 124.001377 187.301801 
L 124.935848 186.636193 
L 125.558828 186.198704 
L 125.870318 186.135791 
L 126.804788 185.454025 
L 127.739258 184.86592 
L 128.050748 184.86592 
L 128.362238 184.458892 
L 128.985218 184.134395 
L 130.854158 182.754863 
L 131.165648 182.264879 
L 131.788628 182.060442 
L 132.411608 181.65275 
L 132.723098 181.543545 
L 133.346079 181.096603 
L 133.657569 181.089107 
L 135.837999 179.511938 
L 136.149489 179.379105 
L 136.460979 179.047751 
L 137.083959 178.783413 
L 137.395449 178.483164 
L 137.706939 178.424678 
L 138.641409 177.808889 
L 138.952899 177.406379 
L 140.821839 176.397795 
L 141.133329 175.964903 
L 142.37929 175.317095 
L 143.31376 175.079613 
L 143.93674 174.712036 
L 144.87121 174.131473 
L 146.11717 173.404124 
L 146.42866 173.355347 
L 148.60909 172.139738 
L 148.92058 172.181067 
L 149.85505 171.504614 
L 150.47803 171.197008 
L 150.78952 170.801855 
L 151.412501 170.604831 
L 152.346971 170.032828 
L 152.658461 170.032828 
L 154.527401 168.847944 
L 155.150381 168.75786 
L 155.773361 168.624543 
L 156.707831 168.136042 
L 157.330811 167.91083 
L 157.642301 167.854601 
L 158.888261 167.136197 
L 159.199751 167.103359 
L 160.757202 166.135959 
L 161.380182 165.960424 
L 161.691672 165.788424 
L 162.003162 165.804638 
L 162.937632 165.390327 
L 163.560612 165.312824 
L 164.183592 165.193452 
L 164.495082 165.003379 
L 164.806572 165.032351 
L 165.429552 164.797585 
L 166.052532 164.576161 
L 166.364022 164.387194 
L 166.987002 164.320016 
L 170.724883 162.777135 
L 171.036373 162.789742 
L 171.970843 162.299173 
L 173.216803 161.998413 
L 175.397233 161.014409 
L 176.020213 161.042308 
L 176.331703 160.94934 
L 176.643193 160.98032 
L 177.266173 160.766741 
L 177.577663 160.720367 
L 178.512134 160.174692 
L 179.758094 159.748134 
L 180.381074 159.561481 
L 181.315544 159.164792 
L 181.627034 158.951806 
L 182.872994 158.639189 
L 183.807464 158.197641 
L 184.430444 158.064932 
L 185.053424 157.809034 
L 185.676404 157.613765 
L 188.168325 156.809462 
L 188.791305 156.761815 
L 189.414285 156.517959 
L 190.037265 156.316163 
L 190.971735 156.046713 
L 191.594715 155.8104 
L 192.217695 155.662973 
L 193.463655 155.169116 
L 194.709615 154.890869 
L 196.267066 154.403509 
L 198.136006 153.825682 
L 198.758986 153.724379 
L 199.070476 153.501856 
L 200.004946 153.274038 
L 201.562396 152.756785 
L 202.185376 152.64791 
L 202.808356 152.43907 
L 204.054316 151.999851 
L 204.677296 151.573787 
L 205.611767 151.256776 
L 206.234747 151.008361 
L 206.857727 150.783034 
L 208.726667 150.406684 
L 209.349647 150.32261 
L 209.972627 150.235804 
L 211.218587 149.794475 
L 211.841567 149.688607 
L 213.399017 149.354981 
L 213.710507 149.177477 
L 214.644978 148.975374 
L 216.825408 148.451158 
L 217.448388 148.121408 
L 218.071368 147.932266 
L 218.694348 147.743463 
L 219.317328 147.579559 
L 219.940308 147.429537 
L 220.251798 147.440441 
L 220.563288 147.323287 
L 220.874778 147.36414 
L 224.612659 146.280096 
L 225.235639 145.983923 
L 226.793089 145.404749 
L 227.416069 145.233749 
L 229.596499 144.754291 
L 229.907989 144.594953 
L 230.219479 144.571073 
L 230.530969 144.385524 
L 231.465439 144.361692 
L 232.08842 144.276997 
L 232.7114 144.202944 
L 233.33438 143.989013 
L 233.64587 143.999567 
L 234.26885 143.759716 
L 235.20332 143.683394 
L 235.51481 143.418012 
L 238.31822 142.727471 
L 239.25269 142.615422 
L 239.87567 142.39428 
L 240.49865 142.256624 
L 241.121631 142.077681 
L 241.433121 142.077681 
L 242.056101 141.904214 
L 242.679081 141.870589 
L 244.548021 141.527194 
L 245.482491 141.226029 
L 246.416961 141.107857 
L 247.039941 140.884718 
L 247.351431 140.892404 
L 248.285901 140.636485 
L 250.777822 140.363335 
L 251.089312 140.286877 
L 251.400802 140.060378 
L 252.023782 139.963818 
L 252.958252 139.816607 
L 253.581232 139.618956 
L 254.204212 139.522798 
L 255.761662 139.265122 
L 256.696132 139.11384 
L 257.630602 138.940134 
L 260.122523 138.350658 
L 260.434013 138.29314 
L 260.434013 138.29314 
" style="fill:none;stroke:#9467bd;stroke-linecap:square;stroke-width:1.5;"/>
   </g>
   <g id="line2d_44">
    <path clip-path="url(#p3ca21ef867)" d="M 76.789465 58.239827 
L 80.038937 56.81902 
L 83.28841 56.851415 
L 86.537883 56.340032 
L 89.787356 55.991679 
L 93.036829 56.205384 
L 96.286302 56.544058 
L 99.535774 55.679941 
L 102.785247 56.253699 
L 106.03472 56.015785 
L 109.284193 56.631783 
L 112.533666 56.450641 
L 115.783138 55.720003 
L 119.032611 56.185833 
L 122.282084 55.720003 
L 125.531557 55.781842 
L 128.78103 55.801318 
L 132.030502 55.7097 
L 135.279975 56.100775 
L 138.529448 55.636462 
L 141.778921 55.750918 
L 145.028394 55.782988 
L 148.277866 57.003112 
L 151.527339 56.256 
L 154.776812 55.622736 
L 158.026285 55.35885 
L 161.275758 55.375966 
L 164.525231 55.69253 
L 167.774703 56.036452 
L 171.024176 55.404498 
L 174.273649 56.607536 
L 177.523122 55.506134 
L 180.772595 56.395322 
L 184.022067 55.612442 
L 187.27154 56.609845 
L 190.521013 55.927423 
L 193.770486 55.740612 
L 197.019959 56.029563 
L 200.269431 55.726872 
L 203.518904 55.910218 
L 206.768377 56.355004 
L 210.01785 55.572421 
L 213.267323 55.937747 
L 216.516795 56.005453 
L 219.766268 55.452449 
L 223.015741 55.54613 
L 226.265214 55.740612 
L 229.514687 55.717713 
L 232.764159 56.214585 
L 236.013632 56.509449 
L 239.263105 55.32919 
L 242.512578 55.271035 
L 245.762051 55.074 
L 249.011524 56.188133 
L 252.260996 56.281318 
L 255.510469 55.364555 
L 258.759942 55.35885 
L 262.009415 56.058272 
L 265.258888 55.496994 
L 268.50836 55.969873 
L 271.757833 55.817359 
L 275.007306 55.309801 
L 278.256779 55.815067 
L 281.506252 55.359991 
L 284.755724 55.603293 
L 288.005197 55.723437 
L 291.25467 55.660488 
L 294.504143 55.447881 
L 297.753616 55.105865 
L 301.003088 55.589571 
L 304.252561 55.320066 
L 307.502034 56.266357 
L 310.751507 55.085379 
L 314.00098 55.089931 
L 317.250453 56.207684 
L 320.499925 55.769243 
L 323.749398 55.279015 
L 326.998871 55.494709 
L 330.248344 55.681085 
L 333.497817 55.693675 
L 336.747289 55.962988 
L 339.996762 55.951514 
L 343.246235 55.653623 
L 346.495708 55.331471 
L 349.745181 55.166207 
L 352.994653 55.467295 
L 356.244126 55.693675 
L 359.493599 56.390714 
L 362.743072 55.16393 
L 365.992545 55.155958 
L 369.242017 55.836841 
L 372.49149 55.147987 
L 375.740963 55.551845 
L 378.990436 55.737177 
L 382.239909 55.48557 
L 385.489381 55.331471 
L 388.738854 54.922772 
L 391.988327 54.873925 
L 395.2378 55.998566 
L 398.487273 54.923908 
" style="fill:none;stroke:#8c564b;stroke-dasharray:5.55,2.4;stroke-dashoffset:0;stroke-width:1.5;"/>
   </g>
   <g id="line2d_45">
    <path clip-path="url(#p3ca21ef867)" d="M 75.373863 59.116935 
L 77.207735 56.967194 
L 79.041606 56.026118 
L 80.875478 55.70741 
L 82.70935 55.15482 
L 84.543221 54.978462 
L 86.377093 55.452449 
L 88.210964 54.571123 
L 90.044836 54.404781 
L 91.878707 54.673094 
L 93.712579 54.549608 
L 95.54645 54.394605 
L 97.380322 54.259022 
L 99.214193 54.45228 
L 101.048065 54.304197 
L 102.881936 54.090916 
L 104.715808 54.567725 
L 106.54968 54.057101 
L 108.383551 54.545079 
L 110.217423 54.14617 
L 112.051294 54.248861 
L 113.885166 54.164218 
L 115.719037 54.266927 
L 117.552909 54.132635 
L 119.38678 54.176628 
L 121.220652 54.023297 
L 123.054523 53.842068 
L 124.888395 54.017664 
L 126.722266 53.966982 
L 128.556138 54.22854 
L 130.390009 54.063863 
L 132.223881 53.930955 
L 134.057753 54.08077 
L 135.891624 53.998515 
L 137.725496 54.015411 
L 139.559367 54.030057 
L 141.393239 53.994009 
L 143.22711 54.119103 
L 145.060982 53.911821 
L 146.894853 53.963604 
L 148.728725 54.010905 
L 150.562596 54.16309 
L 152.396468 54.008652 
L 154.230339 53.946715 
L 156.064211 54.006399 
L 157.898083 54.125869 
L 159.731954 54.092043 
L 161.565826 54.041325 
L 163.399697 53.963604 
L 165.233569 53.92983 
L 167.06744 53.887065 
L 168.901312 54.075134 
L 170.735183 54.098807 
L 172.569055 54.158578 
L 174.402926 53.824074 
L 176.236798 54.124741 
L 178.070669 53.923076 
L 179.904541 53.844317 
L 181.738412 53.828572 
L 183.572284 54.026677 
L 185.406156 54.112337 
L 187.240027 53.983873 
L 189.073899 53.903943 
L 190.90777 53.941086 
L 192.741642 53.817328 
L 194.575513 53.930955 
L 196.409385 53.837569 
L 198.243256 53.910696 
L 200.077128 54.141658 
L 201.910999 54.10219 
L 203.744871 54.103317 
L 205.578742 53.923076 
L 207.412614 53.860064 
L 209.246485 53.915198 
L 211.080357 53.914072 
L 212.914229 53.90732 
L 214.7481 53.937709 
L 216.581972 54.117975 
L 218.415843 54.116848 
L 220.249715 53.979368 
L 222.083586 54.335831 
L 223.917458 54.270314 
L 225.751329 53.784724 
L 227.585201 54.035691 
L 229.419072 53.901693 
L 231.252944 53.763369 
L 233.086815 53.893816 
L 234.920687 54.051466 
L 236.754559 53.928704 
L 238.58843 54.174372 
L 240.422302 54.336961 
L 242.256173 54.067244 
L 244.090045 53.816203 
L 245.923916 54.234185 
L 247.757788 54.043578 
L 249.591659 54.094298 
L 251.425531 53.800463 
L 253.259402 53.919699 
L 255.093274 53.948967 
L 256.927145 53.889315 
" style="fill:none;stroke:#e377c2;stroke-dasharray:5.55,2.4;stroke-dashoffset:0;stroke-width:1.5;"/>
   </g>
   <g id="line2d_46">
    <path clip-path="url(#p3ca21ef867)" d="M 74.826358 61.617116 
L 76.112724 58.700432 
L 77.39909 57.073824 
L 78.685457 56.334274 
L 79.971823 55.809338 
L 81.258189 55.438746 
L 82.544555 55.372542 
L 83.830921 54.969368 
L 85.117287 54.797859 
L 86.403654 54.851213 
L 87.69002 54.56546 
L 88.976386 54.56546 
L 90.262752 54.466987 
L 91.549118 54.230798 
L 92.835485 54.325662 
L 94.121851 54.214996 
L 95.408217 54.239829 
L 96.694583 54.1755 
L 97.980949 54.079643 
L 99.267315 53.971486 
L 100.553682 54.104445 
L 101.840048 54.049213 
L 103.126414 53.882564 
L 104.41278 54.096553 
L 105.699146 53.990631 
L 106.985512 53.873564 
L 108.271879 53.983873 
L 109.558245 53.74876 
L 110.844611 54.004147 
L 112.130977 53.925327 
L 113.417343 53.97036 
L 114.70371 53.981621 
L 115.990076 53.698206 
L 117.276442 53.817328 
L 118.562808 53.899442 
L 119.849174 53.727412 
L 121.13554 53.870189 
L 122.421907 53.762245 
L 123.708273 53.77236 
L 124.994639 53.810581 
L 126.281005 53.801587 
L 127.567371 53.758874 
L 128.853738 53.758874 
L 130.140104 53.88819 
L 131.42647 53.865689 
L 132.712836 53.875814 
L 133.999202 53.710561 
L 135.285568 53.865689 
L 136.571935 53.568 
L 137.858301 53.684729 
L 139.144667 53.935458 
L 140.431033 53.683606 
L 141.717399 53.677991 
L 143.003765 53.721795 
L 144.290132 53.745389 
L 145.576498 53.745389 
L 146.862864 53.818452 
L 148.14923 53.751007 
L 149.435596 53.7836 
L 150.721963 53.817328 
L 152.008329 53.761121 
L 153.294695 53.671254 
L 154.581061 53.738647 
L 155.867427 53.85669 
L 157.153793 53.726289 
L 158.44016 53.857814 
L 159.726526 53.879189 
L 161.012892 53.7364 
L 162.299258 53.730782 
L 163.585624 53.765617 
L 164.87199 53.733029 
L 166.158357 53.938835 
L 167.444723 53.763369 
L 168.731089 53.746513 
L 170.017455 53.821825 
L 171.303821 53.792593 
L 172.590188 53.676868 
L 173.876554 53.776856 
L 175.16292 53.718425 
L 176.449286 53.743142 
L 177.735652 53.768988 
L 179.022018 53.68136 
L 180.308385 53.69596 
L 181.594751 53.759998 
L 182.881117 53.763369 
L 184.167483 53.75775 
L 185.453849 53.751007 
L 186.740215 53.69596 
L 188.026582 53.923076 
L 189.312948 53.88594 
L 190.599314 53.935458 
L 191.88568 53.742018 
L 193.172046 53.666762 
L 194.458413 53.781352 
L 195.744779 53.921951 
L 197.031145 53.831946 
L 198.317511 53.910696 
L 199.603877 53.647676 
L 200.890243 53.782476 
L 202.17661 53.775732 
" style="fill:none;stroke:#7f7f7f;stroke-dasharray:5.55,2.4;stroke-dashoffset:0;stroke-width:1.5;"/>
   </g>
   <g id="patch_3">
    <path d="M 57.6 307.584 
L 57.6 41.472 
" style="fill:none;stroke:#000000;stroke-linecap:square;stroke-linejoin:miter;stroke-width:0.8;"/>
   </g>
   <g id="patch_4">
    <path d="M 414.72 307.584 
L 414.72 41.472 
" style="fill:none;stroke:#000000;stroke-linecap:square;stroke-linejoin:miter;stroke-width:0.8;"/>
   </g>
   <g id="patch_5">
    <path d="M 57.6 307.584 
L 414.72 307.584 
" style="fill:none;stroke:#000000;stroke-linecap:square;stroke-linejoin:miter;stroke-width:0.8;"/>
   </g>
   <g id="patch_6">
    <path d="M 57.6 41.472 
L 414.72 41.472 
" style="fill:none;stroke:#000000;stroke-linecap:square;stroke-linejoin:miter;stroke-width:0.8;"/>
   </g>
   <g id="legend_1">
    <g id="patch_7">
     <path d="M 299.895 302.584 
L 407.72 302.584 
Q 409.72 302.584 409.72 300.584 
L 409.72 184.159 
Q 409.72 182.159 407.72 182.159 
L 299.895 182.159 
Q 297.895 182.159 297.895 184.159 
L 297.895 300.584 
Q 297.895 302.584 299.895 302.584 
z
" style="fill:#ffffff;opacity:0.8;stroke:#cccccc;stroke-linejoin:miter;"/>
    </g>
    <g id="line2d_47">
     <path d="M 301.895 190.257437 
L 321.895 190.257437 
" style="fill:none;stroke:#1f77b4;stroke-linecap:square;stroke-width:1.5;"/>
    </g>
    <g id="line2d_48"/>
    <g id="text_13">
     <!-- SGD, lr 10 -->
     <defs>
      <path d="M 53.515625 70.515625 
L 53.515625 60.890625 
Q 47.90625 63.578125 42.921875 64.890625 
Q 37.9375 66.21875 33.296875 66.21875 
Q 25.25 66.21875 20.875 63.09375 
Q 16.5 59.96875 16.5 54.203125 
Q 16.5 49.359375 19.40625 46.890625 
Q 22.3125 44.4375 30.421875 42.921875 
L 36.375 41.703125 
Q 47.40625 39.59375 52.65625 34.296875 
Q 57.90625 29 57.90625 20.125 
Q 57.90625 9.515625 50.796875 4.046875 
Q 43.703125 -1.421875 29.984375 -1.421875 
Q 24.8125 -1.421875 18.96875 -0.25 
Q 13.140625 0.921875 6.890625 3.21875 
L 6.890625 13.375 
Q 12.890625 10.015625 18.65625 8.296875 
Q 24.421875 6.59375 29.984375 6.59375 
Q 38.421875 6.59375 43.015625 9.90625 
Q 47.609375 13.234375 47.609375 19.390625 
Q 47.609375 24.75 44.3125 27.78125 
Q 41.015625 30.8125 33.5 32.328125 
L 27.484375 33.5 
Q 16.453125 35.6875 11.515625 40.375 
Q 6.59375 45.0625 6.59375 53.421875 
Q 6.59375 63.09375 13.40625 68.65625 
Q 20.21875 74.21875 32.171875 74.21875 
Q 37.3125 74.21875 42.625 73.28125 
Q 47.953125 72.359375 53.515625 70.515625 
z
" id="DejaVuSans-53"/>
      <path d="M 59.515625 10.40625 
L 59.515625 29.984375 
L 43.40625 29.984375 
L 43.40625 38.09375 
L 69.28125 38.09375 
L 69.28125 6.78125 
Q 63.578125 2.734375 56.6875 0.65625 
Q 49.8125 -1.421875 42 -1.421875 
Q 24.90625 -1.421875 15.25 8.5625 
Q 5.609375 18.5625 5.609375 36.375 
Q 5.609375 54.25 15.25 64.234375 
Q 24.90625 74.21875 42 74.21875 
Q 49.125 74.21875 55.546875 72.453125 
Q 61.96875 70.703125 67.390625 67.28125 
L 67.390625 56.78125 
Q 61.921875 61.421875 55.765625 63.765625 
Q 49.609375 66.109375 42.828125 66.109375 
Q 29.4375 66.109375 22.71875 58.640625 
Q 16.015625 51.171875 16.015625 36.375 
Q 16.015625 21.625 22.71875 14.15625 
Q 29.4375 6.6875 42.828125 6.6875 
Q 48.046875 6.6875 52.140625 7.59375 
Q 56.25 8.5 59.515625 10.40625 
z
" id="DejaVuSans-47"/>
      <path d="M 19.671875 64.796875 
L 19.671875 8.109375 
L 31.59375 8.109375 
Q 46.6875 8.109375 53.6875 14.9375 
Q 60.6875 21.78125 60.6875 36.53125 
Q 60.6875 51.171875 53.6875 57.984375 
Q 46.6875 64.796875 31.59375 64.796875 
z
M 9.8125 72.90625 
L 30.078125 72.90625 
Q 51.265625 72.90625 61.171875 64.09375 
Q 71.09375 55.28125 71.09375 36.53125 
Q 71.09375 17.671875 61.125 8.828125 
Q 51.171875 0 30.078125 0 
L 9.8125 0 
z
" id="DejaVuSans-44"/>
      <path d="M 11.71875 12.40625 
L 22.015625 12.40625 
L 22.015625 4 
L 14.015625 -11.625 
L 7.71875 -11.625 
L 11.71875 4 
z
" id="DejaVuSans-2c"/>
      <path d="M 9.421875 75.984375 
L 18.40625 75.984375 
L 18.40625 0 
L 9.421875 0 
z
" id="DejaVuSans-6c"/>
      <path d="M 41.109375 46.296875 
Q 39.59375 47.171875 37.8125 47.578125 
Q 36.03125 48 33.890625 48 
Q 26.265625 48 22.1875 43.046875 
Q 18.109375 38.09375 18.109375 28.8125 
L 18.109375 0 
L 9.078125 0 
L 9.078125 54.6875 
L 18.109375 54.6875 
L 18.109375 46.1875 
Q 20.953125 51.171875 25.484375 53.578125 
Q 30.03125 56 36.53125 56 
Q 37.453125 56 38.578125 55.875 
Q 39.703125 55.765625 41.0625 55.515625 
z
" id="DejaVuSans-72"/>
     </defs>
     <g transform="translate(329.895 193.757437)scale(0.1 -0.1)">
      <use xlink:href="#DejaVuSans-53"/>
      <use x="63.476562" xlink:href="#DejaVuSans-47"/>
      <use x="140.966797" xlink:href="#DejaVuSans-44"/>
      <use x="217.96875" xlink:href="#DejaVuSans-2c"/>
      <use x="249.755859" xlink:href="#DejaVuSans-20"/>
      <use x="281.542969" xlink:href="#DejaVuSans-6c"/>
      <use x="309.326172" xlink:href="#DejaVuSans-72"/>
      <use x="350.439453" xlink:href="#DejaVuSans-20"/>
      <use x="382.226562" xlink:href="#DejaVuSans-31"/>
      <use x="445.849609" xlink:href="#DejaVuSans-30"/>
     </g>
    </g>
    <g id="line2d_49">
     <path d="M 301.895 204.935563 
L 321.895 204.935563 
" style="fill:none;stroke:#ff7f0e;stroke-linecap:square;stroke-width:1.5;"/>
    </g>
    <g id="line2d_50"/>
    <g id="text_14">
     <!-- SGD, lr 1 -->
     <g transform="translate(329.895 208.435563)scale(0.1 -0.1)">
      <use xlink:href="#DejaVuSans-53"/>
      <use x="63.476562" xlink:href="#DejaVuSans-47"/>
      <use x="140.966797" xlink:href="#DejaVuSans-44"/>
      <use x="217.96875" xlink:href="#DejaVuSans-2c"/>
      <use x="249.755859" xlink:href="#DejaVuSans-20"/>
      <use x="281.542969" xlink:href="#DejaVuSans-6c"/>
      <use x="309.326172" xlink:href="#DejaVuSans-72"/>
      <use x="350.439453" xlink:href="#DejaVuSans-20"/>
      <use x="382.226562" xlink:href="#DejaVuSans-31"/>
     </g>
    </g>
    <g id="line2d_51">
     <path d="M 301.895 219.613687 
L 321.895 219.613687 
" style="fill:none;stroke:#2ca02c;stroke-linecap:square;stroke-width:1.5;"/>
    </g>
    <g id="line2d_52"/>
    <g id="text_15">
     <!-- SGD, lr 0.1 -->
     <defs>
      <path d="M 10.6875 12.40625 
L 21 12.40625 
L 21 0 
L 10.6875 0 
z
" id="DejaVuSans-2e"/>
     </defs>
     <g transform="translate(329.895 223.113687)scale(0.1 -0.1)">
      <use xlink:href="#DejaVuSans-53"/>
      <use x="63.476562" xlink:href="#DejaVuSans-47"/>
      <use x="140.966797" xlink:href="#DejaVuSans-44"/>
      <use x="217.96875" xlink:href="#DejaVuSans-2c"/>
      <use x="249.755859" xlink:href="#DejaVuSans-20"/>
      <use x="281.542969" xlink:href="#DejaVuSans-6c"/>
      <use x="309.326172" xlink:href="#DejaVuSans-72"/>
      <use x="350.439453" xlink:href="#DejaVuSans-20"/>
      <use x="382.226562" xlink:href="#DejaVuSans-30"/>
      <use x="445.849609" xlink:href="#DejaVuSans-2e"/>
      <use x="477.636719" xlink:href="#DejaVuSans-31"/>
     </g>
    </g>
    <g id="line2d_53">
     <path d="M 301.895 234.291812 
L 321.895 234.291812 
" style="fill:none;stroke:#d62728;stroke-linecap:square;stroke-width:1.5;"/>
    </g>
    <g id="line2d_54"/>
    <g id="text_16">
     <!-- SGD, lr 0.01 -->
     <g transform="translate(329.895 237.791812)scale(0.1 -0.1)">
      <use xlink:href="#DejaVuSans-53"/>
      <use x="63.476562" xlink:href="#DejaVuSans-47"/>
      <use x="140.966797" xlink:href="#DejaVuSans-44"/>
      <use x="217.96875" xlink:href="#DejaVuSans-2c"/>
      <use x="249.755859" xlink:href="#DejaVuSans-20"/>
      <use x="281.542969" xlink:href="#DejaVuSans-6c"/>
      <use x="309.326172" xlink:href="#DejaVuSans-72"/>
      <use x="350.439453" xlink:href="#DejaVuSans-20"/>
      <use x="382.226562" xlink:href="#DejaVuSans-30"/>
      <use x="445.849609" xlink:href="#DejaVuSans-2e"/>
      <use x="477.636719" xlink:href="#DejaVuSans-30"/>
      <use x="541.259766" xlink:href="#DejaVuSans-31"/>
     </g>
    </g>
    <g id="line2d_55">
     <path d="M 301.895 248.969937 
L 321.895 248.969937 
" style="fill:none;stroke:#9467bd;stroke-linecap:square;stroke-width:1.5;"/>
    </g>
    <g id="line2d_56"/>
    <g id="text_17">
     <!-- SGD, lr 0.001 -->
     <g transform="translate(329.895 252.469937)scale(0.1 -0.1)">
      <use xlink:href="#DejaVuSans-53"/>
      <use x="63.476562" xlink:href="#DejaVuSans-47"/>
      <use x="140.966797" xlink:href="#DejaVuSans-44"/>
      <use x="217.96875" xlink:href="#DejaVuSans-2c"/>
      <use x="249.755859" xlink:href="#DejaVuSans-20"/>
      <use x="281.542969" xlink:href="#DejaVuSans-6c"/>
      <use x="309.326172" xlink:href="#DejaVuSans-72"/>
      <use x="350.439453" xlink:href="#DejaVuSans-20"/>
      <use x="382.226562" xlink:href="#DejaVuSans-30"/>
      <use x="445.849609" xlink:href="#DejaVuSans-2e"/>
      <use x="477.636719" xlink:href="#DejaVuSans-30"/>
      <use x="541.259766" xlink:href="#DejaVuSans-30"/>
      <use x="604.882812" xlink:href="#DejaVuSans-31"/>
     </g>
    </g>
    <g id="line2d_57">
     <path d="M 301.895 263.648062 
L 321.895 263.648062 
" style="fill:none;stroke:#8c564b;stroke-dasharray:5.55,2.4;stroke-dashoffset:0;stroke-width:1.5;"/>
    </g>
    <g id="line2d_58"/>
    <g id="text_18">
     <!-- SGN, cg iter 10 -->
     <defs>
      <path d="M 9.8125 72.90625 
L 23.09375 72.90625 
L 55.421875 11.921875 
L 55.421875 72.90625 
L 64.984375 72.90625 
L 64.984375 0 
L 51.703125 0 
L 19.390625 60.984375 
L 19.390625 0 
L 9.8125 0 
z
" id="DejaVuSans-4e"/>
      <path d="M 45.40625 27.984375 
Q 45.40625 37.75 41.375 43.109375 
Q 37.359375 48.484375 30.078125 48.484375 
Q 22.859375 48.484375 18.828125 43.109375 
Q 14.796875 37.75 14.796875 27.984375 
Q 14.796875 18.265625 18.828125 12.890625 
Q 22.859375 7.515625 30.078125 7.515625 
Q 37.359375 7.515625 41.375 12.890625 
Q 45.40625 18.265625 45.40625 27.984375 
z
M 54.390625 6.78125 
Q 54.390625 -7.171875 48.1875 -13.984375 
Q 42 -20.796875 29.203125 -20.796875 
Q 24.46875 -20.796875 20.265625 -20.09375 
Q 16.0625 -19.390625 12.109375 -17.921875 
L 12.109375 -9.1875 
Q 16.0625 -11.328125 19.921875 -12.34375 
Q 23.78125 -13.375 27.78125 -13.375 
Q 36.625 -13.375 41.015625 -8.765625 
Q 45.40625 -4.15625 45.40625 5.171875 
L 45.40625 9.625 
Q 42.625 4.78125 38.28125 2.390625 
Q 33.9375 0 27.875 0 
Q 17.828125 0 11.671875 7.65625 
Q 5.515625 15.328125 5.515625 27.984375 
Q 5.515625 40.671875 11.671875 48.328125 
Q 17.828125 56 27.875 56 
Q 33.9375 56 38.28125 53.609375 
Q 42.625 51.21875 45.40625 46.390625 
L 45.40625 54.6875 
L 54.390625 54.6875 
z
" id="DejaVuSans-67"/>
     </defs>
     <g transform="translate(329.895 267.148062)scale(0.1 -0.1)">
      <use xlink:href="#DejaVuSans-53"/>
      <use x="63.476562" xlink:href="#DejaVuSans-47"/>
      <use x="140.966797" xlink:href="#DejaVuSans-4e"/>
      <use x="215.771484" xlink:href="#DejaVuSans-2c"/>
      <use x="247.558594" xlink:href="#DejaVuSans-20"/>
      <use x="279.345703" xlink:href="#DejaVuSans-63"/>
      <use x="334.326172" xlink:href="#DejaVuSans-67"/>
      <use x="397.802734" xlink:href="#DejaVuSans-20"/>
      <use x="429.589844" xlink:href="#DejaVuSans-69"/>
      <use x="457.373047" xlink:href="#DejaVuSans-74"/>
      <use x="496.582031" xlink:href="#DejaVuSans-65"/>
      <use x="558.105469" xlink:href="#DejaVuSans-72"/>
      <use x="599.21875" xlink:href="#DejaVuSans-20"/>
      <use x="631.005859" xlink:href="#DejaVuSans-31"/>
      <use x="694.628906" xlink:href="#DejaVuSans-30"/>
     </g>
    </g>
    <g id="line2d_59">
     <path d="M 301.895 278.326187 
L 321.895 278.326187 
" style="fill:none;stroke:#e377c2;stroke-dasharray:5.55,2.4;stroke-dashoffset:0;stroke-width:1.5;"/>
    </g>
    <g id="line2d_60"/>
    <g id="text_19">
     <!-- SGN, cg iter 5 -->
     <g transform="translate(329.895 281.826187)scale(0.1 -0.1)">
      <use xlink:href="#DejaVuSans-53"/>
      <use x="63.476562" xlink:href="#DejaVuSans-47"/>
      <use x="140.966797" xlink:href="#DejaVuSans-4e"/>
      <use x="215.771484" xlink:href="#DejaVuSans-2c"/>
      <use x="247.558594" xlink:href="#DejaVuSans-20"/>
      <use x="279.345703" xlink:href="#DejaVuSans-63"/>
      <use x="334.326172" xlink:href="#DejaVuSans-67"/>
      <use x="397.802734" xlink:href="#DejaVuSans-20"/>
      <use x="429.589844" xlink:href="#DejaVuSans-69"/>
      <use x="457.373047" xlink:href="#DejaVuSans-74"/>
      <use x="496.582031" xlink:href="#DejaVuSans-65"/>
      <use x="558.105469" xlink:href="#DejaVuSans-72"/>
      <use x="599.21875" xlink:href="#DejaVuSans-20"/>
      <use x="631.005859" xlink:href="#DejaVuSans-35"/>
     </g>
    </g>
    <g id="line2d_61">
     <path d="M 301.895 293.004312 
L 321.895 293.004312 
" style="fill:none;stroke:#7f7f7f;stroke-dasharray:5.55,2.4;stroke-dashoffset:0;stroke-width:1.5;"/>
    </g>
    <g id="line2d_62"/>
    <g id="text_20">
     <!-- SGN, cg iter 3 -->
     <g transform="translate(329.895 296.504312)scale(0.1 -0.1)">
      <use xlink:href="#DejaVuSans-53"/>
      <use x="63.476562" xlink:href="#DejaVuSans-47"/>
      <use x="140.966797" xlink:href="#DejaVuSans-4e"/>
      <use x="215.771484" xlink:href="#DejaVuSans-2c"/>
      <use x="247.558594" xlink:href="#DejaVuSans-20"/>
      <use x="279.345703" xlink:href="#DejaVuSans-63"/>
      <use x="334.326172" xlink:href="#DejaVuSans-67"/>
      <use x="397.802734" xlink:href="#DejaVuSans-20"/>
      <use x="429.589844" xlink:href="#DejaVuSans-69"/>
      <use x="457.373047" xlink:href="#DejaVuSans-74"/>
      <use x="496.582031" xlink:href="#DejaVuSans-65"/>
      <use x="558.105469" xlink:href="#DejaVuSans-72"/>
      <use x="599.21875" xlink:href="#DejaVuSans-20"/>
      <use x="631.005859" xlink:href="#DejaVuSans-33"/>
     </g>
    </g>
   </g>
  </g>
 </g>
 <defs>
  <clipPath id="p3ca21ef867">
   <rect height="266.112" width="357.12" x="57.6" y="41.472"/>
  </clipPath>
 </defs>
</svg>
