<?xml version="1.0" encoding="utf-8" standalone="no"?>
<!DOCTYPE svg PUBLIC "-//W3C//DTD SVG 1.1//EN"
  "http://www.w3.org/Graphics/SVG/1.1/DTD/svg11.dtd">
<!-- Created with matplotlib (http://matplotlib.org/) -->
<svg height="345pt" version="1.1" viewBox="0 0 460 345" width="460pt" xmlns="http://www.w3.org/2000/svg" xmlns:xlink="http://www.w3.org/1999/xlink">
 <defs>
  <style type="text/css">
*{stroke-linecap:butt;stroke-linejoin:round;}
  </style>
 </defs>
 <g id="figure_1">
  <g id="patch_1">
   <path d="M 0 345.6 
L 460.8 345.6 
L 460.8 0 
L 0 0 
z
" style="fill:none;opacity:0;"/>
  </g>
  <g id="axes_1">
   <g id="patch_2">
    <path d="M 57.6 307.584 
L 414.72 307.584 
L 414.72 41.472 
L 57.6 41.472 
z
" style="fill:#ffffff;"/>
   </g>
   <g id="matplotlib.axis_1">
    <g id="xtick_1">
     <g id="line2d_1">
      <path clip-path="url(#p8e9b642fc3)" d="M 73.626073 307.584 
L 73.626073 41.472 
" style="fill:none;stroke:#b0b0b0;stroke-linecap:square;stroke-width:0.8;"/>
     </g>
     <g id="line2d_2">
      <defs>
       <path d="M 0 0 
L 0 3.5 
" id="m445dae9aa6" style="stroke:#000000;stroke-width:0.8;"/>
      </defs>
      <g>
       <use style="stroke:#000000;stroke-width:0.8;" x="73.626073" xlink:href="#m445dae9aa6" y="307.584"/>
      </g>
     </g>
     <g id="text_1">
      <!-- 0 -->
      <defs>
       <path d="M 31.78125 66.40625 
Q 24.171875 66.40625 20.328125 58.90625 
Q 16.5 51.421875 16.5 36.375 
Q 16.5 21.390625 20.328125 13.890625 
Q 24.171875 6.390625 31.78125 6.390625 
Q 39.453125 6.390625 43.28125 13.890625 
Q 47.125 21.390625 47.125 36.375 
Q 47.125 51.421875 43.28125 58.90625 
Q 39.453125 66.40625 31.78125 66.40625 
z
M 31.78125 74.21875 
Q 44.046875 74.21875 50.515625 64.515625 
Q 56.984375 54.828125 56.984375 36.375 
Q 56.984375 17.96875 50.515625 8.265625 
Q 44.046875 -1.421875 31.78125 -1.421875 
Q 19.53125 -1.421875 13.0625 8.265625 
Q 6.59375 17.96875 6.59375 36.375 
Q 6.59375 54.828125 13.0625 64.515625 
Q 19.53125 74.21875 31.78125 74.21875 
z
" id="DejaVuSans-30"/>
      </defs>
      <g transform="translate(70.444823 322.182437)scale(0.1 -0.1)">
       <use xlink:href="#DejaVuSans-30"/>
      </g>
     </g>
    </g>
    <g id="xtick_2">
     <g id="line2d_3">
      <path clip-path="url(#p8e9b642fc3)" d="M 114.957014 307.584 
L 114.957014 41.472 
" style="fill:none;stroke:#b0b0b0;stroke-linecap:square;stroke-width:0.8;"/>
     </g>
     <g id="line2d_4">
      <g>
       <use style="stroke:#000000;stroke-width:0.8;" x="114.957014" xlink:href="#m445dae9aa6" y="307.584"/>
      </g>
     </g>
     <g id="text_2">
      <!-- 200 -->
      <defs>
       <path d="M 19.1875 8.296875 
L 53.609375 8.296875 
L 53.609375 0 
L 7.328125 0 
L 7.328125 8.296875 
Q 12.9375 14.109375 22.625 23.890625 
Q 32.328125 33.6875 34.8125 36.53125 
Q 39.546875 41.84375 41.421875 45.53125 
Q 43.3125 49.21875 43.3125 52.78125 
Q 43.3125 58.59375 39.234375 62.25 
Q 35.15625 65.921875 28.609375 65.921875 
Q 23.96875 65.921875 18.8125 64.3125 
Q 13.671875 62.703125 7.8125 59.421875 
L 7.8125 69.390625 
Q 13.765625 71.78125 18.9375 73 
Q 24.125 74.21875 28.421875 74.21875 
Q 39.75 74.21875 46.484375 68.546875 
Q 53.21875 62.890625 53.21875 53.421875 
Q 53.21875 48.921875 51.53125 44.890625 
Q 49.859375 40.875 45.40625 35.40625 
Q 44.1875 33.984375 37.640625 27.21875 
Q 31.109375 20.453125 19.1875 8.296875 
z
" id="DejaVuSans-32"/>
      </defs>
      <g transform="translate(105.413264 322.182437)scale(0.1 -0.1)">
       <use xlink:href="#DejaVuSans-32"/>
       <use x="63.623047" xlink:href="#DejaVuSans-30"/>
       <use x="127.246094" xlink:href="#DejaVuSans-30"/>
      </g>
     </g>
    </g>
    <g id="xtick_3">
     <g id="line2d_5">
      <path clip-path="url(#p8e9b642fc3)" d="M 156.287956 307.584 
L 156.287956 41.472 
" style="fill:none;stroke:#b0b0b0;stroke-linecap:square;stroke-width:0.8;"/>
     </g>
     <g id="line2d_6">
      <g>
       <use style="stroke:#000000;stroke-width:0.8;" x="156.287956" xlink:href="#m445dae9aa6" y="307.584"/>
      </g>
     </g>
     <g id="text_3">
      <!-- 400 -->
      <defs>
       <path d="M 37.796875 64.3125 
L 12.890625 25.390625 
L 37.796875 25.390625 
z
M 35.203125 72.90625 
L 47.609375 72.90625 
L 47.609375 25.390625 
L 58.015625 25.390625 
L 58.015625 17.1875 
L 47.609375 17.1875 
L 47.609375 0 
L 37.796875 0 
L 37.796875 17.1875 
L 4.890625 17.1875 
L 4.890625 26.703125 
z
" id="DejaVuSans-34"/>
      </defs>
      <g transform="translate(146.744206 322.182437)scale(0.1 -0.1)">
       <use xlink:href="#DejaVuSans-34"/>
       <use x="63.623047" xlink:href="#DejaVuSans-30"/>
       <use x="127.246094" xlink:href="#DejaVuSans-30"/>
      </g>
     </g>
    </g>
    <g id="xtick_4">
     <g id="line2d_7">
      <path clip-path="url(#p8e9b642fc3)" d="M 197.618897 307.584 
L 197.618897 41.472 
" style="fill:none;stroke:#b0b0b0;stroke-linecap:square;stroke-width:0.8;"/>
     </g>
     <g id="line2d_8">
      <g>
       <use style="stroke:#000000;stroke-width:0.8;" x="197.618897" xlink:href="#m445dae9aa6" y="307.584"/>
      </g>
     </g>
     <g id="text_4">
      <!-- 600 -->
      <defs>
       <path d="M 33.015625 40.375 
Q 26.375 40.375 22.484375 35.828125 
Q 18.609375 31.296875 18.609375 23.390625 
Q 18.609375 15.53125 22.484375 10.953125 
Q 26.375 6.390625 33.015625 6.390625 
Q 39.65625 6.390625 43.53125 10.953125 
Q 47.40625 15.53125 47.40625 23.390625 
Q 47.40625 31.296875 43.53125 35.828125 
Q 39.65625 40.375 33.015625 40.375 
z
M 52.59375 71.296875 
L 52.59375 62.3125 
Q 48.875 64.0625 45.09375 64.984375 
Q 41.3125 65.921875 37.59375 65.921875 
Q 27.828125 65.921875 22.671875 59.328125 
Q 17.53125 52.734375 16.796875 39.40625 
Q 19.671875 43.65625 24.015625 45.921875 
Q 28.375 48.1875 33.59375 48.1875 
Q 44.578125 48.1875 50.953125 41.515625 
Q 57.328125 34.859375 57.328125 23.390625 
Q 57.328125 12.15625 50.6875 5.359375 
Q 44.046875 -1.421875 33.015625 -1.421875 
Q 20.359375 -1.421875 13.671875 8.265625 
Q 6.984375 17.96875 6.984375 36.375 
Q 6.984375 53.65625 15.1875 63.9375 
Q 23.390625 74.21875 37.203125 74.21875 
Q 40.921875 74.21875 44.703125 73.484375 
Q 48.484375 72.75 52.59375 71.296875 
z
" id="DejaVuSans-36"/>
      </defs>
      <g transform="translate(188.075147 322.182437)scale(0.1 -0.1)">
       <use xlink:href="#DejaVuSans-36"/>
       <use x="63.623047" xlink:href="#DejaVuSans-30"/>
       <use x="127.246094" xlink:href="#DejaVuSans-30"/>
      </g>
     </g>
    </g>
    <g id="xtick_5">
     <g id="line2d_9">
      <path clip-path="url(#p8e9b642fc3)" d="M 238.949839 307.584 
L 238.949839 41.472 
" style="fill:none;stroke:#b0b0b0;stroke-linecap:square;stroke-width:0.8;"/>
     </g>
     <g id="line2d_10">
      <g>
       <use style="stroke:#000000;stroke-width:0.8;" x="238.949839" xlink:href="#m445dae9aa6" y="307.584"/>
      </g>
     </g>
     <g id="text_5">
      <!-- 800 -->
      <defs>
       <path d="M 31.78125 34.625 
Q 24.75 34.625 20.71875 30.859375 
Q 16.703125 27.09375 16.703125 20.515625 
Q 16.703125 13.921875 20.71875 10.15625 
Q 24.75 6.390625 31.78125 6.390625 
Q 38.8125 6.390625 42.859375 10.171875 
Q 46.921875 13.96875 46.921875 20.515625 
Q 46.921875 27.09375 42.890625 30.859375 
Q 38.875 34.625 31.78125 34.625 
z
M 21.921875 38.8125 
Q 15.578125 40.375 12.03125 44.71875 
Q 8.5 49.078125 8.5 55.328125 
Q 8.5 64.0625 14.71875 69.140625 
Q 20.953125 74.21875 31.78125 74.21875 
Q 42.671875 74.21875 48.875 69.140625 
Q 55.078125 64.0625 55.078125 55.328125 
Q 55.078125 49.078125 51.53125 44.71875 
Q 48 40.375 41.703125 38.8125 
Q 48.828125 37.15625 52.796875 32.3125 
Q 56.78125 27.484375 56.78125 20.515625 
Q 56.78125 9.90625 50.3125 4.234375 
Q 43.84375 -1.421875 31.78125 -1.421875 
Q 19.734375 -1.421875 13.25 4.234375 
Q 6.78125 9.90625 6.78125 20.515625 
Q 6.78125 27.484375 10.78125 32.3125 
Q 14.796875 37.15625 21.921875 38.8125 
z
M 18.3125 54.390625 
Q 18.3125 48.734375 21.84375 45.5625 
Q 25.390625 42.390625 31.78125 42.390625 
Q 38.140625 42.390625 41.71875 45.5625 
Q 45.3125 48.734375 45.3125 54.390625 
Q 45.3125 60.0625 41.71875 63.234375 
Q 38.140625 66.40625 31.78125 66.40625 
Q 25.390625 66.40625 21.84375 63.234375 
Q 18.3125 60.0625 18.3125 54.390625 
z
" id="DejaVuSans-38"/>
      </defs>
      <g transform="translate(229.406089 322.182437)scale(0.1 -0.1)">
       <use xlink:href="#DejaVuSans-38"/>
       <use x="63.623047" xlink:href="#DejaVuSans-30"/>
       <use x="127.246094" xlink:href="#DejaVuSans-30"/>
      </g>
     </g>
    </g>
    <g id="xtick_6">
     <g id="line2d_11">
      <path clip-path="url(#p8e9b642fc3)" d="M 280.28078 307.584 
L 280.28078 41.472 
" style="fill:none;stroke:#b0b0b0;stroke-linecap:square;stroke-width:0.8;"/>
     </g>
     <g id="line2d_12">
      <g>
       <use style="stroke:#000000;stroke-width:0.8;" x="280.28078" xlink:href="#m445dae9aa6" y="307.584"/>
      </g>
     </g>
     <g id="text_6">
      <!-- 1000 -->
      <defs>
       <path d="M 12.40625 8.296875 
L 28.515625 8.296875 
L 28.515625 63.921875 
L 10.984375 60.40625 
L 10.984375 69.390625 
L 28.421875 72.90625 
L 38.28125 72.90625 
L 38.28125 8.296875 
L 54.390625 8.296875 
L 54.390625 0 
L 12.40625 0 
z
" id="DejaVuSans-31"/>
      </defs>
      <g transform="translate(267.55578 322.182437)scale(0.1 -0.1)">
       <use xlink:href="#DejaVuSans-31"/>
       <use x="63.623047" xlink:href="#DejaVuSans-30"/>
       <use x="127.246094" xlink:href="#DejaVuSans-30"/>
       <use x="190.869141" xlink:href="#DejaVuSans-30"/>
      </g>
     </g>
    </g>
    <g id="xtick_7">
     <g id="line2d_13">
      <path clip-path="url(#p8e9b642fc3)" d="M 321.611722 307.584 
L 321.611722 41.472 
" style="fill:none;stroke:#b0b0b0;stroke-linecap:square;stroke-width:0.8;"/>
     </g>
     <g id="line2d_14">
      <g>
       <use style="stroke:#000000;stroke-width:0.8;" x="321.611722" xlink:href="#m445dae9aa6" y="307.584"/>
      </g>
     </g>
     <g id="text_7">
      <!-- 1200 -->
      <g transform="translate(308.886722 322.182437)scale(0.1 -0.1)">
       <use xlink:href="#DejaVuSans-31"/>
       <use x="63.623047" xlink:href="#DejaVuSans-32"/>
       <use x="127.246094" xlink:href="#DejaVuSans-30"/>
       <use x="190.869141" xlink:href="#DejaVuSans-30"/>
      </g>
     </g>
    </g>
    <g id="xtick_8">
     <g id="line2d_15">
      <path clip-path="url(#p8e9b642fc3)" d="M 362.942663 307.584 
L 362.942663 41.472 
" style="fill:none;stroke:#b0b0b0;stroke-linecap:square;stroke-width:0.8;"/>
     </g>
     <g id="line2d_16">
      <g>
       <use style="stroke:#000000;stroke-width:0.8;" x="362.942663" xlink:href="#m445dae9aa6" y="307.584"/>
      </g>
     </g>
     <g id="text_8">
      <!-- 1400 -->
      <g transform="translate(350.217663 322.182437)scale(0.1 -0.1)">
       <use xlink:href="#DejaVuSans-31"/>
       <use x="63.623047" xlink:href="#DejaVuSans-34"/>
       <use x="127.246094" xlink:href="#DejaVuSans-30"/>
       <use x="190.869141" xlink:href="#DejaVuSans-30"/>
      </g>
     </g>
    </g>
    <g id="xtick_9">
     <g id="line2d_17">
      <path clip-path="url(#p8e9b642fc3)" d="M 404.273605 307.584 
L 404.273605 41.472 
" style="fill:none;stroke:#b0b0b0;stroke-linecap:square;stroke-width:0.8;"/>
     </g>
     <g id="line2d_18">
      <g>
       <use style="stroke:#000000;stroke-width:0.8;" x="404.273605" xlink:href="#m445dae9aa6" y="307.584"/>
      </g>
     </g>
     <g id="text_9">
      <!-- 1600 -->
      <g transform="translate(391.548605 322.182437)scale(0.1 -0.1)">
       <use xlink:href="#DejaVuSans-31"/>
       <use x="63.623047" xlink:href="#DejaVuSans-36"/>
       <use x="127.246094" xlink:href="#DejaVuSans-30"/>
       <use x="190.869141" xlink:href="#DejaVuSans-30"/>
      </g>
     </g>
    </g>
    <g id="text_10">
     <!-- epochs -->
     <defs>
      <path d="M 56.203125 29.59375 
L 56.203125 25.203125 
L 14.890625 25.203125 
Q 15.484375 15.921875 20.484375 11.0625 
Q 25.484375 6.203125 34.421875 6.203125 
Q 39.59375 6.203125 44.453125 7.46875 
Q 49.3125 8.734375 54.109375 11.28125 
L 54.109375 2.78125 
Q 49.265625 0.734375 44.1875 -0.34375 
Q 39.109375 -1.421875 33.890625 -1.421875 
Q 20.796875 -1.421875 13.15625 6.1875 
Q 5.515625 13.8125 5.515625 26.8125 
Q 5.515625 40.234375 12.765625 48.109375 
Q 20.015625 56 32.328125 56 
Q 43.359375 56 49.78125 48.890625 
Q 56.203125 41.796875 56.203125 29.59375 
z
M 47.21875 32.234375 
Q 47.125 39.59375 43.09375 43.984375 
Q 39.0625 48.390625 32.421875 48.390625 
Q 24.90625 48.390625 20.390625 44.140625 
Q 15.875 39.890625 15.1875 32.171875 
z
" id="DejaVuSans-65"/>
      <path d="M 18.109375 8.203125 
L 18.109375 -20.796875 
L 9.078125 -20.796875 
L 9.078125 54.6875 
L 18.109375 54.6875 
L 18.109375 46.390625 
Q 20.953125 51.265625 25.265625 53.625 
Q 29.59375 56 35.59375 56 
Q 45.5625 56 51.78125 48.09375 
Q 58.015625 40.1875 58.015625 27.296875 
Q 58.015625 14.40625 51.78125 6.484375 
Q 45.5625 -1.421875 35.59375 -1.421875 
Q 29.59375 -1.421875 25.265625 0.953125 
Q 20.953125 3.328125 18.109375 8.203125 
z
M 48.6875 27.296875 
Q 48.6875 37.203125 44.609375 42.84375 
Q 40.53125 48.484375 33.40625 48.484375 
Q 26.265625 48.484375 22.1875 42.84375 
Q 18.109375 37.203125 18.109375 27.296875 
Q 18.109375 17.390625 22.1875 11.75 
Q 26.265625 6.109375 33.40625 6.109375 
Q 40.53125 6.109375 44.609375 11.75 
Q 48.6875 17.390625 48.6875 27.296875 
z
" id="DejaVuSans-70"/>
      <path d="M 30.609375 48.390625 
Q 23.390625 48.390625 19.1875 42.75 
Q 14.984375 37.109375 14.984375 27.296875 
Q 14.984375 17.484375 19.15625 11.84375 
Q 23.34375 6.203125 30.609375 6.203125 
Q 37.796875 6.203125 41.984375 11.859375 
Q 46.1875 17.53125 46.1875 27.296875 
Q 46.1875 37.015625 41.984375 42.703125 
Q 37.796875 48.390625 30.609375 48.390625 
z
M 30.609375 56 
Q 42.328125 56 49.015625 48.375 
Q 55.71875 40.765625 55.71875 27.296875 
Q 55.71875 13.875 49.015625 6.21875 
Q 42.328125 -1.421875 30.609375 -1.421875 
Q 18.84375 -1.421875 12.171875 6.21875 
Q 5.515625 13.875 5.515625 27.296875 
Q 5.515625 40.765625 12.171875 48.375 
Q 18.84375 56 30.609375 56 
z
" id="DejaVuSans-6f"/>
      <path d="M 48.78125 52.59375 
L 48.78125 44.1875 
Q 44.96875 46.296875 41.140625 47.34375 
Q 37.3125 48.390625 33.40625 48.390625 
Q 24.65625 48.390625 19.8125 42.84375 
Q 14.984375 37.3125 14.984375 27.296875 
Q 14.984375 17.28125 19.8125 11.734375 
Q 24.65625 6.203125 33.40625 6.203125 
Q 37.3125 6.203125 41.140625 7.25 
Q 44.96875 8.296875 48.78125 10.40625 
L 48.78125 2.09375 
Q 45.015625 0.34375 40.984375 -0.53125 
Q 36.96875 -1.421875 32.421875 -1.421875 
Q 20.0625 -1.421875 12.78125 6.34375 
Q 5.515625 14.109375 5.515625 27.296875 
Q 5.515625 40.671875 12.859375 48.328125 
Q 20.21875 56 33.015625 56 
Q 37.15625 56 41.109375 55.140625 
Q 45.0625 54.296875 48.78125 52.59375 
z
" id="DejaVuSans-63"/>
      <path d="M 54.890625 33.015625 
L 54.890625 0 
L 45.90625 0 
L 45.90625 32.71875 
Q 45.90625 40.484375 42.875 44.328125 
Q 39.84375 48.1875 33.796875 48.1875 
Q 26.515625 48.1875 22.3125 43.546875 
Q 18.109375 38.921875 18.109375 30.90625 
L 18.109375 0 
L 9.078125 0 
L 9.078125 75.984375 
L 18.109375 75.984375 
L 18.109375 46.1875 
Q 21.34375 51.125 25.703125 53.5625 
Q 30.078125 56 35.796875 56 
Q 45.21875 56 50.046875 50.171875 
Q 54.890625 44.34375 54.890625 33.015625 
z
" id="DejaVuSans-68"/>
      <path d="M 44.28125 53.078125 
L 44.28125 44.578125 
Q 40.484375 46.53125 36.375 47.5 
Q 32.28125 48.484375 27.875 48.484375 
Q 21.1875 48.484375 17.84375 46.4375 
Q 14.5 44.390625 14.5 40.28125 
Q 14.5 37.15625 16.890625 35.375 
Q 19.28125 33.59375 26.515625 31.984375 
L 29.59375 31.296875 
Q 39.15625 29.25 43.1875 25.515625 
Q 47.21875 21.78125 47.21875 15.09375 
Q 47.21875 7.46875 41.1875 3.015625 
Q 35.15625 -1.421875 24.609375 -1.421875 
Q 20.21875 -1.421875 15.453125 -0.5625 
Q 10.6875 0.296875 5.421875 2 
L 5.421875 11.28125 
Q 10.40625 8.6875 15.234375 7.390625 
Q 20.0625 6.109375 24.8125 6.109375 
Q 31.15625 6.109375 34.5625 8.28125 
Q 37.984375 10.453125 37.984375 14.40625 
Q 37.984375 18.0625 35.515625 20.015625 
Q 33.0625 21.96875 24.703125 23.78125 
L 21.578125 24.515625 
Q 13.234375 26.265625 9.515625 29.90625 
Q 5.8125 33.546875 5.8125 39.890625 
Q 5.8125 47.609375 11.28125 51.796875 
Q 16.75 56 26.8125 56 
Q 31.78125 56 36.171875 55.265625 
Q 40.578125 54.546875 44.28125 53.078125 
z
" id="DejaVuSans-73"/>
     </defs>
     <g transform="translate(218.327188 335.860562)scale(0.1 -0.1)">
      <use xlink:href="#DejaVuSans-65"/>
      <use x="61.523438" xlink:href="#DejaVuSans-70"/>
      <use x="125" xlink:href="#DejaVuSans-6f"/>
      <use x="186.181641" xlink:href="#DejaVuSans-63"/>
      <use x="241.162109" xlink:href="#DejaVuSans-68"/>
      <use x="304.541016" xlink:href="#DejaVuSans-73"/>
     </g>
    </g>
   </g>
   <g id="matplotlib.axis_2">
    <g id="ytick_1">
     <g id="line2d_19">
      <path clip-path="url(#p8e9b642fc3)" d="M 57.6 292.472278 
L 414.72 292.472278 
" style="fill:none;stroke:#b0b0b0;stroke-linecap:square;stroke-width:0.8;"/>
     </g>
     <g id="line2d_20">
      <defs>
       <path d="M 0 0 
L -3.5 0 
" id="m1ffcbd4d46" style="stroke:#000000;stroke-width:0.8;"/>
      </defs>
      <g>
       <use style="stroke:#000000;stroke-width:0.8;" x="57.6" xlink:href="#m1ffcbd4d46" y="292.472278"/>
      </g>
     </g>
     <g id="text_11">
      <!-- $\mathdefault{10^{-4}}$ -->
      <defs>
       <path d="M 10.59375 35.5 
L 73.1875 35.5 
L 73.1875 27.203125 
L 10.59375 27.203125 
z
" id="DejaVuSans-2212"/>
      </defs>
      <g transform="translate(27.1 296.271496)scale(0.1 -0.1)">
       <use transform="translate(0 0.684375)" xlink:href="#DejaVuSans-31"/>
       <use transform="translate(63.623047 0.684375)" xlink:href="#DejaVuSans-30"/>
       <use transform="translate(128.203125 38.965625)scale(0.7)" xlink:href="#DejaVuSans-2212"/>
       <use transform="translate(186.855469 38.965625)scale(0.7)" xlink:href="#DejaVuSans-34"/>
      </g>
     </g>
    </g>
    <g id="ytick_2">
     <g id="line2d_21">
      <path clip-path="url(#p8e9b642fc3)" d="M 57.6 242.272222 
L 414.72 242.272222 
" style="fill:none;stroke:#b0b0b0;stroke-linecap:square;stroke-width:0.8;"/>
     </g>
     <g id="line2d_22">
      <g>
       <use style="stroke:#000000;stroke-width:0.8;" x="57.6" xlink:href="#m1ffcbd4d46" y="242.272222"/>
      </g>
     </g>
     <g id="text_12">
      <!-- $\mathdefault{10^{-3}}$ -->
      <defs>
       <path d="M 40.578125 39.3125 
Q 47.65625 37.796875 51.625 33 
Q 55.609375 28.21875 55.609375 21.1875 
Q 55.609375 10.40625 48.1875 4.484375 
Q 40.765625 -1.421875 27.09375 -1.421875 
Q 22.515625 -1.421875 17.65625 -0.515625 
Q 12.796875 0.390625 7.625 2.203125 
L 7.625 11.71875 
Q 11.71875 9.328125 16.59375 8.109375 
Q 21.484375 6.890625 26.8125 6.890625 
Q 36.078125 6.890625 40.9375 10.546875 
Q 45.796875 14.203125 45.796875 21.1875 
Q 45.796875 27.640625 41.28125 31.265625 
Q 36.765625 34.90625 28.71875 34.90625 
L 20.21875 34.90625 
L 20.21875 43.015625 
L 29.109375 43.015625 
Q 36.375 43.015625 40.234375 45.921875 
Q 44.09375 48.828125 44.09375 54.296875 
Q 44.09375 59.90625 40.109375 62.90625 
Q 36.140625 65.921875 28.71875 65.921875 
Q 24.65625 65.921875 20.015625 65.03125 
Q 15.375 64.15625 9.8125 62.3125 
L 9.8125 71.09375 
Q 15.4375 72.65625 20.34375 73.4375 
Q 25.25 74.21875 29.59375 74.21875 
Q 40.828125 74.21875 47.359375 69.109375 
Q 53.90625 64.015625 53.90625 55.328125 
Q 53.90625 49.265625 50.4375 45.09375 
Q 46.96875 40.921875 40.578125 39.3125 
z
" id="DejaVuSans-33"/>
      </defs>
      <g transform="translate(27.1 246.071441)scale(0.1 -0.1)">
       <use transform="translate(0 0.765625)" xlink:href="#DejaVuSans-31"/>
       <use transform="translate(63.623047 0.765625)" xlink:href="#DejaVuSans-30"/>
       <use transform="translate(128.203125 39.046875)scale(0.7)" xlink:href="#DejaVuSans-2212"/>
       <use transform="translate(186.855469 39.046875)scale(0.7)" xlink:href="#DejaVuSans-33"/>
      </g>
     </g>
    </g>
    <g id="ytick_3">
     <g id="line2d_23">
      <path clip-path="url(#p8e9b642fc3)" d="M 57.6 192.072167 
L 414.72 192.072167 
" style="fill:none;stroke:#b0b0b0;stroke-linecap:square;stroke-width:0.8;"/>
     </g>
     <g id="line2d_24">
      <g>
       <use style="stroke:#000000;stroke-width:0.8;" x="57.6" xlink:href="#m1ffcbd4d46" y="192.072167"/>
      </g>
     </g>
     <g id="text_13">
      <!-- $\mathdefault{10^{-2}}$ -->
      <g transform="translate(27.1 195.871385)scale(0.1 -0.1)">
       <use transform="translate(0 0.765625)" xlink:href="#DejaVuSans-31"/>
       <use transform="translate(63.623047 0.765625)" xlink:href="#DejaVuSans-30"/>
       <use transform="translate(128.203125 39.046875)scale(0.7)" xlink:href="#DejaVuSans-2212"/>
       <use transform="translate(186.855469 39.046875)scale(0.7)" xlink:href="#DejaVuSans-32"/>
      </g>
     </g>
    </g>
    <g id="ytick_4">
     <g id="line2d_25">
      <path clip-path="url(#p8e9b642fc3)" d="M 57.6 141.872111 
L 414.72 141.872111 
" style="fill:none;stroke:#b0b0b0;stroke-linecap:square;stroke-width:0.8;"/>
     </g>
     <g id="line2d_26">
      <g>
       <use style="stroke:#000000;stroke-width:0.8;" x="57.6" xlink:href="#m1ffcbd4d46" y="141.872111"/>
      </g>
     </g>
     <g id="text_14">
      <!-- $\mathdefault{10^{-1}}$ -->
      <g transform="translate(27.1 145.67133)scale(0.1 -0.1)">
       <use transform="translate(0 0.684375)" xlink:href="#DejaVuSans-31"/>
       <use transform="translate(63.623047 0.684375)" xlink:href="#DejaVuSans-30"/>
       <use transform="translate(128.203125 38.965625)scale(0.7)" xlink:href="#DejaVuSans-2212"/>
       <use transform="translate(186.855469 38.965625)scale(0.7)" xlink:href="#DejaVuSans-31"/>
      </g>
     </g>
    </g>
    <g id="ytick_5">
     <g id="line2d_27">
      <path clip-path="url(#p8e9b642fc3)" d="M 57.6 91.672056 
L 414.72 91.672056 
" style="fill:none;stroke:#b0b0b0;stroke-linecap:square;stroke-width:0.8;"/>
     </g>
     <g id="line2d_28">
      <g>
       <use style="stroke:#000000;stroke-width:0.8;" x="57.6" xlink:href="#m1ffcbd4d46" y="91.672056"/>
      </g>
     </g>
     <g id="text_15">
      <!-- $\mathdefault{10^{0}}$ -->
      <g transform="translate(33 95.471274)scale(0.1 -0.1)">
       <use transform="translate(0 0.765625)" xlink:href="#DejaVuSans-31"/>
       <use transform="translate(63.623047 0.765625)" xlink:href="#DejaVuSans-30"/>
       <use transform="translate(128.203125 39.046875)scale(0.7)" xlink:href="#DejaVuSans-30"/>
      </g>
     </g>
    </g>
    <g id="ytick_6">
     <g id="line2d_29">
      <path clip-path="url(#p8e9b642fc3)" d="M 57.6 41.472 
L 414.72 41.472 
" style="fill:none;stroke:#b0b0b0;stroke-linecap:square;stroke-width:0.8;"/>
     </g>
     <g id="line2d_30">
      <g>
       <use style="stroke:#000000;stroke-width:0.8;" x="57.6" xlink:href="#m1ffcbd4d46" y="41.472"/>
      </g>
     </g>
     <g id="text_16">
      <!-- $\mathdefault{10^{1}}$ -->
      <g transform="translate(33 45.271219)scale(0.1 -0.1)">
       <use transform="translate(0 0.684375)" xlink:href="#DejaVuSans-31"/>
       <use transform="translate(63.623047 0.684375)" xlink:href="#DejaVuSans-30"/>
       <use transform="translate(128.203125 38.965625)scale(0.7)" xlink:href="#DejaVuSans-31"/>
      </g>
     </g>
    </g>
    <g id="ytick_7">
     <g id="line2d_31">
      <path clip-path="url(#p8e9b642fc3)" d="M 57.6 307.584 
L 414.72 307.584 
" style="fill:none;stroke:#b0b0b0;stroke-linecap:square;stroke-width:0.8;"/>
     </g>
     <g id="line2d_32">
      <defs>
       <path d="M 0 0 
L -2 0 
" id="mc4f0678277" style="stroke:#000000;stroke-width:0.6;"/>
      </defs>
      <g>
       <use style="stroke:#000000;stroke-width:0.6;" x="57.6" xlink:href="#mc4f0678277" y="307.584"/>
      </g>
     </g>
    </g>
    <g id="ytick_8">
     <g id="line2d_33">
      <path clip-path="url(#p8e9b642fc3)" d="M 57.6 303.609097 
L 414.72 303.609097 
" style="fill:none;stroke:#b0b0b0;stroke-linecap:square;stroke-width:0.8;"/>
     </g>
     <g id="line2d_34">
      <g>
       <use style="stroke:#000000;stroke-width:0.6;" x="57.6" xlink:href="#mc4f0678277" y="303.609097"/>
      </g>
     </g>
    </g>
    <g id="ytick_9">
     <g id="line2d_35">
      <path clip-path="url(#p8e9b642fc3)" d="M 57.6 300.248364 
L 414.72 300.248364 
" style="fill:none;stroke:#b0b0b0;stroke-linecap:square;stroke-width:0.8;"/>
     </g>
     <g id="line2d_36">
      <g>
       <use style="stroke:#000000;stroke-width:0.6;" x="57.6" xlink:href="#mc4f0678277" y="300.248364"/>
      </g>
     </g>
    </g>
    <g id="ytick_10">
     <g id="line2d_37">
      <path clip-path="url(#p8e9b642fc3)" d="M 57.6 297.337166 
L 414.72 297.337166 
" style="fill:none;stroke:#b0b0b0;stroke-linecap:square;stroke-width:0.8;"/>
     </g>
     <g id="line2d_38">
      <g>
       <use style="stroke:#000000;stroke-width:0.6;" x="57.6" xlink:href="#mc4f0678277" y="297.337166"/>
      </g>
     </g>
    </g>
    <g id="ytick_11">
     <g id="line2d_39">
      <path clip-path="url(#p8e9b642fc3)" d="M 57.6 294.769306 
L 414.72 294.769306 
" style="fill:none;stroke:#b0b0b0;stroke-linecap:square;stroke-width:0.8;"/>
     </g>
     <g id="line2d_40">
      <g>
       <use style="stroke:#000000;stroke-width:0.6;" x="57.6" xlink:href="#mc4f0678277" y="294.769306"/>
      </g>
     </g>
    </g>
    <g id="ytick_12">
     <g id="line2d_41">
      <path clip-path="url(#p8e9b642fc3)" d="M 57.6 277.360555 
L 414.72 277.360555 
" style="fill:none;stroke:#b0b0b0;stroke-linecap:square;stroke-width:0.8;"/>
     </g>
     <g id="line2d_42">
      <g>
       <use style="stroke:#000000;stroke-width:0.6;" x="57.6" xlink:href="#mc4f0678277" y="277.360555"/>
      </g>
     </g>
    </g>
    <g id="ytick_13">
     <g id="line2d_43">
      <path clip-path="url(#p8e9b642fc3)" d="M 57.6 268.520764 
L 414.72 268.520764 
" style="fill:none;stroke:#b0b0b0;stroke-linecap:square;stroke-width:0.8;"/>
     </g>
     <g id="line2d_44">
      <g>
       <use style="stroke:#000000;stroke-width:0.6;" x="57.6" xlink:href="#mc4f0678277" y="268.520764"/>
      </g>
     </g>
    </g>
    <g id="ytick_14">
     <g id="line2d_45">
      <path clip-path="url(#p8e9b642fc3)" d="M 57.6 262.248833 
L 414.72 262.248833 
" style="fill:none;stroke:#b0b0b0;stroke-linecap:square;stroke-width:0.8;"/>
     </g>
     <g id="line2d_46">
      <g>
       <use style="stroke:#000000;stroke-width:0.6;" x="57.6" xlink:href="#mc4f0678277" y="262.248833"/>
      </g>
     </g>
    </g>
    <g id="ytick_15">
     <g id="line2d_47">
      <path clip-path="url(#p8e9b642fc3)" d="M 57.6 257.383944 
L 414.72 257.383944 
" style="fill:none;stroke:#b0b0b0;stroke-linecap:square;stroke-width:0.8;"/>
     </g>
     <g id="line2d_48">
      <g>
       <use style="stroke:#000000;stroke-width:0.6;" x="57.6" xlink:href="#mc4f0678277" y="257.383944"/>
      </g>
     </g>
    </g>
    <g id="ytick_16">
     <g id="line2d_49">
      <path clip-path="url(#p8e9b642fc3)" d="M 57.6 253.409042 
L 414.72 253.409042 
" style="fill:none;stroke:#b0b0b0;stroke-linecap:square;stroke-width:0.8;"/>
     </g>
     <g id="line2d_50">
      <g>
       <use style="stroke:#000000;stroke-width:0.6;" x="57.6" xlink:href="#mc4f0678277" y="253.409042"/>
      </g>
     </g>
    </g>
    <g id="ytick_17">
     <g id="line2d_51">
      <path clip-path="url(#p8e9b642fc3)" d="M 57.6 250.048309 
L 414.72 250.048309 
" style="fill:none;stroke:#b0b0b0;stroke-linecap:square;stroke-width:0.8;"/>
     </g>
     <g id="line2d_52">
      <g>
       <use style="stroke:#000000;stroke-width:0.6;" x="57.6" xlink:href="#mc4f0678277" y="250.048309"/>
      </g>
     </g>
    </g>
    <g id="ytick_18">
     <g id="line2d_53">
      <path clip-path="url(#p8e9b642fc3)" d="M 57.6 247.13711 
L 414.72 247.13711 
" style="fill:none;stroke:#b0b0b0;stroke-linecap:square;stroke-width:0.8;"/>
     </g>
     <g id="line2d_54">
      <g>
       <use style="stroke:#000000;stroke-width:0.6;" x="57.6" xlink:href="#mc4f0678277" y="247.13711"/>
      </g>
     </g>
    </g>
    <g id="ytick_19">
     <g id="line2d_55">
      <path clip-path="url(#p8e9b642fc3)" d="M 57.6 244.569251 
L 414.72 244.569251 
" style="fill:none;stroke:#b0b0b0;stroke-linecap:square;stroke-width:0.8;"/>
     </g>
     <g id="line2d_56">
      <g>
       <use style="stroke:#000000;stroke-width:0.6;" x="57.6" xlink:href="#mc4f0678277" y="244.569251"/>
      </g>
     </g>
    </g>
    <g id="ytick_20">
     <g id="line2d_57">
      <path clip-path="url(#p8e9b642fc3)" d="M 57.6 227.1605 
L 414.72 227.1605 
" style="fill:none;stroke:#b0b0b0;stroke-linecap:square;stroke-width:0.8;"/>
     </g>
     <g id="line2d_58">
      <g>
       <use style="stroke:#000000;stroke-width:0.6;" x="57.6" xlink:href="#mc4f0678277" y="227.1605"/>
      </g>
     </g>
    </g>
    <g id="ytick_21">
     <g id="line2d_59">
      <path clip-path="url(#p8e9b642fc3)" d="M 57.6 218.320709 
L 414.72 218.320709 
" style="fill:none;stroke:#b0b0b0;stroke-linecap:square;stroke-width:0.8;"/>
     </g>
     <g id="line2d_60">
      <g>
       <use style="stroke:#000000;stroke-width:0.6;" x="57.6" xlink:href="#mc4f0678277" y="218.320709"/>
      </g>
     </g>
    </g>
    <g id="ytick_22">
     <g id="line2d_61">
      <path clip-path="url(#p8e9b642fc3)" d="M 57.6 212.048777 
L 414.72 212.048777 
" style="fill:none;stroke:#b0b0b0;stroke-linecap:square;stroke-width:0.8;"/>
     </g>
     <g id="line2d_62">
      <g>
       <use style="stroke:#000000;stroke-width:0.6;" x="57.6" xlink:href="#mc4f0678277" y="212.048777"/>
      </g>
     </g>
    </g>
    <g id="ytick_23">
     <g id="line2d_63">
      <path clip-path="url(#p8e9b642fc3)" d="M 57.6 207.183889 
L 414.72 207.183889 
" style="fill:none;stroke:#b0b0b0;stroke-linecap:square;stroke-width:0.8;"/>
     </g>
     <g id="line2d_64">
      <g>
       <use style="stroke:#000000;stroke-width:0.6;" x="57.6" xlink:href="#mc4f0678277" y="207.183889"/>
      </g>
     </g>
    </g>
    <g id="ytick_24">
     <g id="line2d_65">
      <path clip-path="url(#p8e9b642fc3)" d="M 57.6 203.208986 
L 414.72 203.208986 
" style="fill:none;stroke:#b0b0b0;stroke-linecap:square;stroke-width:0.8;"/>
     </g>
     <g id="line2d_66">
      <g>
       <use style="stroke:#000000;stroke-width:0.6;" x="57.6" xlink:href="#mc4f0678277" y="203.208986"/>
      </g>
     </g>
    </g>
    <g id="ytick_25">
     <g id="line2d_67">
      <path clip-path="url(#p8e9b642fc3)" d="M 57.6 199.848253 
L 414.72 199.848253 
" style="fill:none;stroke:#b0b0b0;stroke-linecap:square;stroke-width:0.8;"/>
     </g>
     <g id="line2d_68">
      <g>
       <use style="stroke:#000000;stroke-width:0.6;" x="57.6" xlink:href="#mc4f0678277" y="199.848253"/>
      </g>
     </g>
    </g>
    <g id="ytick_26">
     <g id="line2d_69">
      <path clip-path="url(#p8e9b642fc3)" d="M 57.6 196.937055 
L 414.72 196.937055 
" style="fill:none;stroke:#b0b0b0;stroke-linecap:square;stroke-width:0.8;"/>
     </g>
     <g id="line2d_70">
      <g>
       <use style="stroke:#000000;stroke-width:0.6;" x="57.6" xlink:href="#mc4f0678277" y="196.937055"/>
      </g>
     </g>
    </g>
    <g id="ytick_27">
     <g id="line2d_71">
      <path clip-path="url(#p8e9b642fc3)" d="M 57.6 194.369195 
L 414.72 194.369195 
" style="fill:none;stroke:#b0b0b0;stroke-linecap:square;stroke-width:0.8;"/>
     </g>
     <g id="line2d_72">
      <g>
       <use style="stroke:#000000;stroke-width:0.6;" x="57.6" xlink:href="#mc4f0678277" y="194.369195"/>
      </g>
     </g>
    </g>
    <g id="ytick_28">
     <g id="line2d_73">
      <path clip-path="url(#p8e9b642fc3)" d="M 57.6 176.960444 
L 414.72 176.960444 
" style="fill:none;stroke:#b0b0b0;stroke-linecap:square;stroke-width:0.8;"/>
     </g>
     <g id="line2d_74">
      <g>
       <use style="stroke:#000000;stroke-width:0.6;" x="57.6" xlink:href="#mc4f0678277" y="176.960444"/>
      </g>
     </g>
    </g>
    <g id="ytick_29">
     <g id="line2d_75">
      <path clip-path="url(#p8e9b642fc3)" d="M 57.6 168.120653 
L 414.72 168.120653 
" style="fill:none;stroke:#b0b0b0;stroke-linecap:square;stroke-width:0.8;"/>
     </g>
     <g id="line2d_76">
      <g>
       <use style="stroke:#000000;stroke-width:0.6;" x="57.6" xlink:href="#mc4f0678277" y="168.120653"/>
      </g>
     </g>
    </g>
    <g id="ytick_30">
     <g id="line2d_77">
      <path clip-path="url(#p8e9b642fc3)" d="M 57.6 161.848722 
L 414.72 161.848722 
" style="fill:none;stroke:#b0b0b0;stroke-linecap:square;stroke-width:0.8;"/>
     </g>
     <g id="line2d_78">
      <g>
       <use style="stroke:#000000;stroke-width:0.6;" x="57.6" xlink:href="#mc4f0678277" y="161.848722"/>
      </g>
     </g>
    </g>
    <g id="ytick_31">
     <g id="line2d_79">
      <path clip-path="url(#p8e9b642fc3)" d="M 57.6 156.983833 
L 414.72 156.983833 
" style="fill:none;stroke:#b0b0b0;stroke-linecap:square;stroke-width:0.8;"/>
     </g>
     <g id="line2d_80">
      <g>
       <use style="stroke:#000000;stroke-width:0.6;" x="57.6" xlink:href="#mc4f0678277" y="156.983833"/>
      </g>
     </g>
    </g>
    <g id="ytick_32">
     <g id="line2d_81">
      <path clip-path="url(#p8e9b642fc3)" d="M 57.6 153.008931 
L 414.72 153.008931 
" style="fill:none;stroke:#b0b0b0;stroke-linecap:square;stroke-width:0.8;"/>
     </g>
     <g id="line2d_82">
      <g>
       <use style="stroke:#000000;stroke-width:0.6;" x="57.6" xlink:href="#mc4f0678277" y="153.008931"/>
      </g>
     </g>
    </g>
    <g id="ytick_33">
     <g id="line2d_83">
      <path clip-path="url(#p8e9b642fc3)" d="M 57.6 149.648198 
L 414.72 149.648198 
" style="fill:none;stroke:#b0b0b0;stroke-linecap:square;stroke-width:0.8;"/>
     </g>
     <g id="line2d_84">
      <g>
       <use style="stroke:#000000;stroke-width:0.6;" x="57.6" xlink:href="#mc4f0678277" y="149.648198"/>
      </g>
     </g>
    </g>
    <g id="ytick_34">
     <g id="line2d_85">
      <path clip-path="url(#p8e9b642fc3)" d="M 57.6 146.736999 
L 414.72 146.736999 
" style="fill:none;stroke:#b0b0b0;stroke-linecap:square;stroke-width:0.8;"/>
     </g>
     <g id="line2d_86">
      <g>
       <use style="stroke:#000000;stroke-width:0.6;" x="57.6" xlink:href="#mc4f0678277" y="146.736999"/>
      </g>
     </g>
    </g>
    <g id="ytick_35">
     <g id="line2d_87">
      <path clip-path="url(#p8e9b642fc3)" d="M 57.6 144.16914 
L 414.72 144.16914 
" style="fill:none;stroke:#b0b0b0;stroke-linecap:square;stroke-width:0.8;"/>
     </g>
     <g id="line2d_88">
      <g>
       <use style="stroke:#000000;stroke-width:0.6;" x="57.6" xlink:href="#mc4f0678277" y="144.16914"/>
      </g>
     </g>
    </g>
    <g id="ytick_36">
     <g id="line2d_89">
      <path clip-path="url(#p8e9b642fc3)" d="M 57.6 126.760389 
L 414.72 126.760389 
" style="fill:none;stroke:#b0b0b0;stroke-linecap:square;stroke-width:0.8;"/>
     </g>
     <g id="line2d_90">
      <g>
       <use style="stroke:#000000;stroke-width:0.6;" x="57.6" xlink:href="#mc4f0678277" y="126.760389"/>
      </g>
     </g>
    </g>
    <g id="ytick_37">
     <g id="line2d_91">
      <path clip-path="url(#p8e9b642fc3)" d="M 57.6 117.920598 
L 414.72 117.920598 
" style="fill:none;stroke:#b0b0b0;stroke-linecap:square;stroke-width:0.8;"/>
     </g>
     <g id="line2d_92">
      <g>
       <use style="stroke:#000000;stroke-width:0.6;" x="57.6" xlink:href="#mc4f0678277" y="117.920598"/>
      </g>
     </g>
    </g>
    <g id="ytick_38">
     <g id="line2d_93">
      <path clip-path="url(#p8e9b642fc3)" d="M 57.6 111.648666 
L 414.72 111.648666 
" style="fill:none;stroke:#b0b0b0;stroke-linecap:square;stroke-width:0.8;"/>
     </g>
     <g id="line2d_94">
      <g>
       <use style="stroke:#000000;stroke-width:0.6;" x="57.6" xlink:href="#mc4f0678277" y="111.648666"/>
      </g>
     </g>
    </g>
    <g id="ytick_39">
     <g id="line2d_95">
      <path clip-path="url(#p8e9b642fc3)" d="M 57.6 106.783778 
L 414.72 106.783778 
" style="fill:none;stroke:#b0b0b0;stroke-linecap:square;stroke-width:0.8;"/>
     </g>
     <g id="line2d_96">
      <g>
       <use style="stroke:#000000;stroke-width:0.6;" x="57.6" xlink:href="#mc4f0678277" y="106.783778"/>
      </g>
     </g>
    </g>
    <g id="ytick_40">
     <g id="line2d_97">
      <path clip-path="url(#p8e9b642fc3)" d="M 57.6 102.808875 
L 414.72 102.808875 
" style="fill:none;stroke:#b0b0b0;stroke-linecap:square;stroke-width:0.8;"/>
     </g>
     <g id="line2d_98">
      <g>
       <use style="stroke:#000000;stroke-width:0.6;" x="57.6" xlink:href="#mc4f0678277" y="102.808875"/>
      </g>
     </g>
    </g>
    <g id="ytick_41">
     <g id="line2d_99">
      <path clip-path="url(#p8e9b642fc3)" d="M 57.6 99.448142 
L 414.72 99.448142 
" style="fill:none;stroke:#b0b0b0;stroke-linecap:square;stroke-width:0.8;"/>
     </g>
     <g id="line2d_100">
      <g>
       <use style="stroke:#000000;stroke-width:0.6;" x="57.6" xlink:href="#mc4f0678277" y="99.448142"/>
      </g>
     </g>
    </g>
    <g id="ytick_42">
     <g id="line2d_101">
      <path clip-path="url(#p8e9b642fc3)" d="M 57.6 96.536944 
L 414.72 96.536944 
" style="fill:none;stroke:#b0b0b0;stroke-linecap:square;stroke-width:0.8;"/>
     </g>
     <g id="line2d_102">
      <g>
       <use style="stroke:#000000;stroke-width:0.6;" x="57.6" xlink:href="#mc4f0678277" y="96.536944"/>
      </g>
     </g>
    </g>
    <g id="ytick_43">
     <g id="line2d_103">
      <path clip-path="url(#p8e9b642fc3)" d="M 57.6 93.969084 
L 414.72 93.969084 
" style="fill:none;stroke:#b0b0b0;stroke-linecap:square;stroke-width:0.8;"/>
     </g>
     <g id="line2d_104">
      <g>
       <use style="stroke:#000000;stroke-width:0.6;" x="57.6" xlink:href="#mc4f0678277" y="93.969084"/>
      </g>
     </g>
    </g>
    <g id="ytick_44">
     <g id="line2d_105">
      <path clip-path="url(#p8e9b642fc3)" d="M 57.6 76.560333 
L 414.72 76.560333 
" style="fill:none;stroke:#b0b0b0;stroke-linecap:square;stroke-width:0.8;"/>
     </g>
     <g id="line2d_106">
      <g>
       <use style="stroke:#000000;stroke-width:0.6;" x="57.6" xlink:href="#mc4f0678277" y="76.560333"/>
      </g>
     </g>
    </g>
    <g id="ytick_45">
     <g id="line2d_107">
      <path clip-path="url(#p8e9b642fc3)" d="M 57.6 67.720542 
L 414.72 67.720542 
" style="fill:none;stroke:#b0b0b0;stroke-linecap:square;stroke-width:0.8;"/>
     </g>
     <g id="line2d_108">
      <g>
       <use style="stroke:#000000;stroke-width:0.6;" x="57.6" xlink:href="#mc4f0678277" y="67.720542"/>
      </g>
     </g>
    </g>
    <g id="ytick_46">
     <g id="line2d_109">
      <path clip-path="url(#p8e9b642fc3)" d="M 57.6 61.448611 
L 414.72 61.448611 
" style="fill:none;stroke:#b0b0b0;stroke-linecap:square;stroke-width:0.8;"/>
     </g>
     <g id="line2d_110">
      <g>
       <use style="stroke:#000000;stroke-width:0.6;" x="57.6" xlink:href="#mc4f0678277" y="61.448611"/>
      </g>
     </g>
    </g>
    <g id="ytick_47">
     <g id="line2d_111">
      <path clip-path="url(#p8e9b642fc3)" d="M 57.6 56.583722 
L 414.72 56.583722 
" style="fill:none;stroke:#b0b0b0;stroke-linecap:square;stroke-width:0.8;"/>
     </g>
     <g id="line2d_112">
      <g>
       <use style="stroke:#000000;stroke-width:0.6;" x="57.6" xlink:href="#mc4f0678277" y="56.583722"/>
      </g>
     </g>
    </g>
    <g id="ytick_48">
     <g id="line2d_113">
      <path clip-path="url(#p8e9b642fc3)" d="M 57.6 52.60882 
L 414.72 52.60882 
" style="fill:none;stroke:#b0b0b0;stroke-linecap:square;stroke-width:0.8;"/>
     </g>
     <g id="line2d_114">
      <g>
       <use style="stroke:#000000;stroke-width:0.6;" x="57.6" xlink:href="#mc4f0678277" y="52.60882"/>
      </g>
     </g>
    </g>
    <g id="ytick_49">
     <g id="line2d_115">
      <path clip-path="url(#p8e9b642fc3)" d="M 57.6 49.248087 
L 414.72 49.248087 
" style="fill:none;stroke:#b0b0b0;stroke-linecap:square;stroke-width:0.8;"/>
     </g>
     <g id="line2d_116">
      <g>
       <use style="stroke:#000000;stroke-width:0.6;" x="57.6" xlink:href="#mc4f0678277" y="49.248087"/>
      </g>
     </g>
    </g>
    <g id="ytick_50">
     <g id="line2d_117">
      <path clip-path="url(#p8e9b642fc3)" d="M 57.6 46.336888 
L 414.72 46.336888 
" style="fill:none;stroke:#b0b0b0;stroke-linecap:square;stroke-width:0.8;"/>
     </g>
     <g id="line2d_118">
      <g>
       <use style="stroke:#000000;stroke-width:0.6;" x="57.6" xlink:href="#mc4f0678277" y="46.336888"/>
      </g>
     </g>
    </g>
    <g id="ytick_51">
     <g id="line2d_119">
      <path clip-path="url(#p8e9b642fc3)" d="M 57.6 43.769029 
L 414.72 43.769029 
" style="fill:none;stroke:#b0b0b0;stroke-linecap:square;stroke-width:0.8;"/>
     </g>
     <g id="line2d_120">
      <g>
       <use style="stroke:#000000;stroke-width:0.6;" x="57.6" xlink:href="#mc4f0678277" y="43.769029"/>
      </g>
     </g>
    </g>
    <g id="text_17">
     <!-- loss -->
     <defs>
      <path d="M 9.421875 75.984375 
L 18.40625 75.984375 
L 18.40625 0 
L 9.421875 0 
z
" id="DejaVuSans-6c"/>
     </defs>
     <g transform="translate(21.020313 184.185812)rotate(-90)scale(0.1 -0.1)">
      <use xlink:href="#DejaVuSans-6c"/>
      <use x="27.783203" xlink:href="#DejaVuSans-6f"/>
      <use x="88.964844" xlink:href="#DejaVuSans-73"/>
      <use x="141.064453" xlink:href="#DejaVuSans-73"/>
     </g>
    </g>
   </g>
   <g id="line2d_121">
    <path clip-path="url(#p8e9b642fc3)" d="M 73.832727 73.212493 
L 74.039382 104.077936 
L 74.246037 107.496288 
L 74.452691 107.733711 
L 77.345857 107.891468 
L 77.552512 107.849583 
L 77.759167 107.949397 
L 78.172476 107.825193 
L 78.379131 107.936753 
L 78.999095 107.903146 
L 80.445678 107.989036 
L 80.652333 107.858791 
L 80.858987 107.944018 
L 81.478951 107.8744 
L 82.512225 107.967805 
L 82.925534 107.921146 
L 83.132189 108.018668 
L 84.372117 107.863211 
L 84.578772 107.940824 
L 84.785427 107.878051 
L 85.198736 107.961968 
L 85.612046 108.012464 
L 85.8187 108.028516 
L 86.025355 107.912181 
L 86.23201 108.050126 
L 86.438664 107.933743 
L 87.471938 107.970543 
L 87.678593 107.87874 
L 88.505212 108.027364 
L 91.191723 107.999371 
L 92.224996 108.030409 
L 92.431651 107.992884 
L 92.638306 108.088252 
L 92.84496 107.905485 
L 93.25827 108.076786 
L 93.464924 107.96154 
L 93.671579 108.059559 
L 93.878234 107.904909 
L 94.084889 108.055609 
L 94.704853 107.993879 
L 95.738126 108.051779 
L 95.944781 108.121569 
L 96.35809 108.036258 
L 98.217983 108.037678 
L 100.28453 108.078344 
L 100.697839 107.831702 
L 100.904494 108.016195 
L 103.38435 108.11746 
L 104.004315 108.072828 
L 105.037588 108.081641 
L 105.450898 108.161205 
L 105.864207 108.074638 
L 107.104135 108.124931 
L 107.724099 108.034726 
L 108.344063 108.197982 
L 112.477158 108.092882 
L 112.683812 108.201565 
L 113.510431 108.07797 
L 114.957014 108.176593 
L 115.163669 108.076497 
L 115.783633 108.206042 
L 116.196942 108.092285 
L 116.403597 108.22282 
L 116.610252 108.138998 
L 117.023561 108.257357 
L 117.643525 108.082213 
L 117.85018 108.172701 
L 118.056835 108.106385 
L 118.263489 108.20924 
L 118.676799 108.206396 
L 119.916727 108.217402 
L 120.123382 108.094532 
L 120.536691 108.15234 
L 122.809893 108.221059 
L 123.016548 108.315809 
L 123.636512 108.275809 
L 124.049821 108.296568 
L 124.256476 108.158818 
L 125.909714 108.278888 
L 126.116368 108.213309 
L 126.529678 108.284099 
L 126.736332 108.189488 
L 126.942987 108.340302 
L 127.356297 108.141341 
L 127.976261 108.36257 
L 128.38957 108.224352 
L 129.216189 108.370525 
L 130.869427 108.300781 
L 131.282736 108.339801 
L 132.109355 108.381509 
L 132.522664 108.282239 
L 132.935974 108.427869 
L 133.142628 108.387058 
L 133.349283 108.179616 
L 133.762592 108.428867 
L 135.002521 108.182196 
L 135.41583 108.42631 
L 135.622485 108.380481 
L 136.035794 108.458114 
L 136.242449 108.250487 
L 137.069068 108.441988 
L 137.275722 108.220532 
L 137.482377 108.438135 
L 138.102341 108.413566 
L 138.515651 108.439856 
L 138.722305 108.324305 
L 138.92896 108.543978 
L 139.548924 108.455414 
L 140.788852 108.308236 
L 140.995507 108.526655 
L 141.822126 108.393587 
L 142.235435 108.578331 
L 142.44209 108.306525 
L 142.648745 108.483637 
L 143.888673 108.603929 
L 144.095328 108.329341 
L 144.301983 108.276988 
L 144.508637 108.506907 
L 144.715292 108.485481 
L 144.921947 108.283398 
L 145.128601 108.47781 
L 145.748565 108.553478 
L 145.95522 108.624955 
L 146.36853 108.529568 
L 147.401803 108.482065 
L 147.815113 108.5837 
L 148.021767 108.402245 
L 148.435077 108.424496 
L 148.641731 108.217809 
L 148.848386 108.729447 
L 149.055041 108.521158 
L 149.46835 108.697957 
L 149.88166 108.708891 
L 150.088314 108.609469 
L 150.294969 108.71069 
L 150.501624 108.610408 
L 150.708278 108.662857 
L 150.914933 108.485295 
L 151.741552 108.613647 
L 151.948207 108.54178 
L 152.154861 108.227629 
L 152.361516 108.512651 
L 152.568171 108.414732 
L 152.98148 108.697824 
L 153.39479 108.457023 
L 153.601444 108.349365 
L 154.014754 108.74301 
L 154.841373 108.427662 
L 155.048027 108.754019 
L 155.254682 108.749914 
L 155.461337 108.485399 
L 155.667991 108.820768 
L 155.874646 108.54331 
L 156.081301 108.582653 
L 156.287956 108.746906 
L 156.49461 108.570259 
L 156.90792 108.739201 
L 157.114574 108.404103 
L 157.734539 108.583385 
L 157.941193 108.595222 
L 158.147848 108.481282 
L 158.354503 108.779011 
L 159.181121 108.613196 
L 159.387776 108.834006 
L 159.594431 108.547417 
L 159.801086 108.662804 
L 160.00774 108.595348 
L 160.627704 108.769451 
L 160.834359 108.771008 
L 161.041014 108.973955 
L 161.247669 108.883405 
L 161.454323 108.097182 
L 161.660978 108.347686 
L 161.867633 108.792841 
L 162.280942 108.325117 
L 162.487597 108.799036 
L 162.900906 108.562842 
L 163.107561 108.1245 
L 163.314216 108.057784 
L 163.52087 108.217858 
L 163.93418 108.821038 
L 164.140834 108.890007 
L 164.347489 108.699178 
L 164.554144 108.688464 
L 164.760799 108.796992 
L 164.967453 108.638094 
L 165.380763 108.633039 
L 165.587417 108.961771 
L 165.794072 108.915282 
L 166.000727 108.629501 
L 166.207382 108.150893 
L 166.414036 108.862021 
L 166.620691 108.567167 
L 166.827346 108.733613 
L 167.240655 108.190614 
L 167.44731 108.725131 
L 167.653964 108.949226 
L 168.067274 108.978923 
L 168.480583 108.542619 
L 168.893893 108.768041 
L 169.307202 108.922423 
L 169.513857 108.766528 
L 169.720512 108.470078 
L 169.927166 108.733288 
L 170.133821 108.732939 
L 170.340476 108.988877 
L 170.54713 108.810671 
L 170.753785 108.957097 
L 170.96044 108.832973 
L 171.580404 108.874091 
L 171.993713 108.665676 
L 172.200368 108.982137 
L 172.407023 108.873138 
L 172.613677 108.637391 
L 172.820332 109.042771 
L 173.026987 109.034344 
L 173.440296 108.620198 
L 173.646951 108.845752 
L 174.06026 108.931151 
L 174.266915 108.588287 
L 174.47357 108.589016 
L 174.680225 108.984981 
L 175.300189 108.962576 
L 175.506843 108.890132 
L 175.713498 109.078433 
L 176.333462 108.83586 
L 176.540117 109.069831 
L 176.746772 109.122697 
L 176.953426 109.050767 
L 177.160081 108.764551 
L 177.366736 108.861267 
L 177.57339 108.596324 
L 177.9867 109.039938 
L 178.193355 108.813095 
L 178.400009 108.305191 
L 178.813319 109.014558 
L 179.019973 108.92564 
L 179.226628 108.598288 
L 179.433283 109.030581 
L 179.846592 108.39385 
L 180.053247 108.860446 
L 180.259902 109.032854 
L 180.466556 108.781909 
L 180.879866 108.957575 
L 181.08652 108.881795 
L 181.49983 109.040161 
L 181.706485 108.933239 
L 181.913139 109.096123 
L 182.119794 109.08355 
L 182.326449 108.806289 
L 182.533103 109.152237 
L 183.153068 108.938802 
L 183.773032 109.085899 
L 183.979686 108.749789 
L 184.392996 109.109653 
L 184.59965 109.132722 
L 184.806305 108.972445 
L 185.426269 109.117737 
L 185.839579 109.060698 
L 186.046233 109.07111 
L 186.252888 108.78128 
L 186.459543 108.833356 
L 186.666198 108.721159 
L 187.079507 109.114708 
L 187.286162 109.242543 
L 187.492816 108.932321 
L 187.699471 109.17667 
L 187.906126 109.208576 
L 188.112781 109.102403 
L 188.319435 109.264036 
L 188.52609 108.923258 
L 188.732745 109.090168 
L 188.939399 109.088958 
L 189.146054 109.224563 
L 189.352709 109.120007 
L 189.559363 108.726622 
L 189.766018 108.583148 
L 190.179328 109.159903 
L 190.385982 108.992686 
L 190.799292 109.017904 
L 191.212601 108.93155 
L 192.03922 109.252576 
L 192.245875 108.606446 
L 192.452529 109.082793 
L 192.659184 109.240895 
L 193.072493 109.088033 
L 193.279148 108.759571 
L 193.485803 109.106209 
L 193.899112 109.181353 
L 194.105767 108.816776 
L 194.312422 109.130052 
L 194.725731 108.815697 
L 194.932386 109.19727 
L 195.139041 109.272736 
L 195.55235 108.839793 
L 195.759005 108.89458 
L 195.965659 108.76614 
L 196.172314 109.061298 
L 196.378969 108.890444 
L 196.792278 109.115671 
L 196.998933 109.243895 
L 197.205588 109.17542 
L 197.412242 108.949132 
L 197.618897 109.079064 
L 197.825552 108.91937 
L 198.032206 109.28414 
L 198.652171 109.019111 
L 198.858825 109.203848 
L 199.272135 109.045096 
L 199.478789 109.078064 
L 199.685444 108.862295 
L 200.305408 109.143051 
L 200.512063 109.323 
L 200.718718 109.263476 
L 200.925372 108.911076 
L 201.338682 109.357761 
L 201.545336 109.340885 
L 201.751991 109.172426 
L 202.57861 109.206012 
L 202.785265 108.989902 
L 203.198574 109.198362 
L 204.025193 109.240897 
L 204.231848 109.259813 
L 204.438502 108.925785 
L 204.851812 109.330605 
L 205.265121 109.150283 
L 205.471776 109.279273 
L 206.09174 109.269598 
L 206.711704 109.200914 
L 206.918359 109.050471 
L 207.125014 109.249153 
L 207.331668 109.166634 
L 207.744978 109.404078 
L 207.951632 109.16799 
L 208.571597 109.052545 
L 208.778251 108.724224 
L 208.984906 109.19003 
L 209.398215 109.310139 
L 209.60487 109.205079 
L 209.811525 109.366411 
L 210.224834 109.198616 
L 210.638144 109.109924 
L 210.844798 109.198016 
L 211.051453 109.406929 
L 211.258108 109.420018 
L 211.671417 108.929082 
L 211.878072 109.216596 
L 212.084727 109.059297 
L 212.704691 109.403698 
L 213.118 109.436628 
L 213.944619 109.18899 
L 214.357928 109.389928 
L 214.977892 109.413018 
L 215.391202 108.927179 
L 215.804511 109.054808 
L 216.217821 109.211063 
L 217.04444 109.487288 
L 218.697677 109.155564 
L 218.904332 109.508289 
L 219.110987 109.274687 
L 219.524296 109.341767 
L 219.730951 109.112873 
L 219.937605 109.31031 
L 220.14426 109.327975 
L 220.350915 109.513993 
L 220.55757 109.295116 
L 220.970879 109.594733 
L 221.384188 109.148493 
L 221.590843 109.523612 
L 222.004153 109.066004 
L 222.210807 109.461741 
L 222.417462 109.352716 
L 222.624117 109.529858 
L 224.277354 109.487379 
L 224.484009 109.302161 
L 225.103973 109.512577 
L 225.310628 109.565326 
L 225.517283 109.378884 
L 225.723937 109.471191 
L 225.930592 109.315173 
L 226.757211 109.547824 
L 226.963866 109.334748 
L 227.790484 109.520449 
L 227.997139 109.688169 
L 228.617103 109.601077 
L 229.443722 109.744052 
L 229.650377 109.599928 
L 230.476996 109.591136 
L 230.68365 109.452501 
L 230.890305 109.709851 
L 231.09696 109.724154 
L 231.303614 109.575109 
L 231.510269 109.665203 
L 231.716924 109.499315 
L 232.130233 109.612205 
L 232.336888 109.374815 
L 232.750197 109.659532 
L 233.163507 109.600222 
L 233.370161 109.627563 
L 233.576816 109.778307 
L 233.783471 109.321381 
L 234.19678 109.709636 
L 234.403435 109.471023 
L 234.61009 109.482397 
L 234.816744 109.760167 
L 235.023399 109.828149 
L 235.436709 109.540405 
L 235.643363 109.804876 
L 235.850018 109.597209 
L 236.469982 109.791532 
L 237.089946 109.837728 
L 237.296601 109.550692 
L 237.916565 109.840701 
L 238.329874 109.5016 
L 238.536529 109.736079 
L 238.743184 109.796123 
L 238.949839 109.413203 
L 239.156493 109.771537 
L 239.363148 109.906341 
L 239.776457 109.78072 
L 239.983112 109.463716 
L 240.189767 109.467173 
L 240.396422 109.852463 
L 240.603076 109.712974 
L 240.809731 109.963936 
L 241.016386 109.945866 
L 241.22304 109.742724 
L 241.429695 109.757859 
L 241.63635 109.938137 
L 241.843004 109.867623 
L 242.049659 110.012039 
L 242.876278 109.665084 
L 243.289587 109.629533 
L 243.496242 109.765523 
L 243.702897 109.748102 
L 243.909552 109.89463 
L 244.322861 109.561525 
L 244.529516 109.890186 
L 245.14948 109.993298 
L 245.356134 110.119079 
L 245.769444 109.991674 
L 245.976099 110.185698 
L 246.182753 109.993615 
L 246.389408 110.1374 
L 246.596063 110.030868 
L 247.009372 110.147099 
L 247.216027 110.013934 
L 247.422682 110.112506 
L 248.042646 109.987106 
L 248.66261 110.00107 
L 248.869265 110.166633 
L 249.282574 109.801127 
L 249.489229 110.157218 
L 250.109193 110.373517 
L 250.522502 109.971314 
L 251.142466 110.178043 
L 251.349121 109.762875 
L 251.555776 109.927027 
L 251.76243 110.311097 
L 252.17574 110.361013 
L 252.382395 110.199466 
L 252.589049 109.691233 
L 252.795704 109.944069 
L 253.002359 110.49651 
L 253.415668 110.208257 
L 253.622323 110.333298 
L 253.828977 110.23673 
L 254.448942 110.501256 
L 254.655596 110.049363 
L 254.862251 109.87497 
L 255.27556 110.491102 
L 255.68887 110.255575 
L 255.895525 110.628173 
L 256.308834 110.134185 
L 256.515489 110.503143 
L 256.722143 110.565504 
L 256.928798 110.144933 
L 257.135453 110.480191 
L 257.755417 110.562186 
L 258.168726 110.803184 
L 258.582036 110.488898 
L 258.78869 110.789361 
L 259.202 110.812102 
L 259.408655 110.387059 
L 259.615309 110.788049 
L 260.028619 110.907308 
L 260.235273 110.322307 
L 260.648583 110.950606 
L 260.855238 110.77743 
L 261.061892 110.876524 
L 261.268547 110.79163 
L 261.475202 110.553354 
L 261.888511 111.040908 
L 262.095166 111.021722 
L 262.30182 111.166659 
L 263.541749 111.20181 
L 263.748403 111.009658 
L 263.955058 111.17842 
L 264.161713 110.888537 
L 264.368368 111.229451 
L 264.575022 111.272648 
L 264.781677 111.133183 
L 264.988332 111.423992 
L 265.401641 110.728449 
L 265.814951 111.472003 
L 266.021605 111.206186 
L 266.22826 111.194818 
L 266.434915 111.594887 
L 266.848224 111.352375 
L 267.054879 111.560066 
L 267.261533 111.331752 
L 267.468188 111.579982 
L 267.674843 111.18579 
L 267.881498 111.640737 
L 268.294807 111.236802 
L 268.708116 111.696979 
L 268.914771 111.488986 
L 269.121426 111.612666 
L 269.328081 111.563752 
L 269.534735 111.829516 
L 269.74139 111.347463 
L 269.948045 111.390018 
L 270.361354 111.995946 
L 270.774664 112.073531 
L 270.981318 111.671837 
L 271.187973 111.802722 
L 271.394628 111.508814 
L 271.601282 111.855866 
L 271.807937 111.816394 
L 272.014592 112.094842 
L 272.221246 112.109669 
L 272.427901 112.00636 
L 272.634556 112.259286 
L 272.841211 112.114178 
L 273.047865 112.161438 
L 273.25452 111.934116 
L 273.667829 110.829366 
L 273.874484 110.6272 
L 274.081139 111.477017 
L 274.287794 111.815983 
L 274.494448 111.855948 
L 274.907758 111.394666 
L 275.321067 112.354351 
L 275.941031 112.523701 
L 276.147686 112.562948 
L 276.560995 111.478231 
L 277.180959 112.627586 
L 277.800924 112.176592 
L 278.214233 111.911951 
L 278.420888 111.888812 
L 278.627542 112.042014 
L 278.834197 112.629042 
L 279.040852 112.867148 
L 279.247507 112.869486 
L 279.454161 112.667037 
L 279.867471 110.648842 
L 280.487435 112.794797 
L 280.694089 112.52246 
L 281.107399 112.655757 
L 281.314054 113.198877 
L 281.520708 113.297625 
L 281.727363 113.040016 
L 282.140672 113.286936 
L 282.347327 113.079381 
L 282.553982 113.030076 
L 282.760637 113.370226 
L 282.967291 113.318883 
L 283.380601 112.209737 
L 283.587255 112.248146 
L 284.000565 113.249016 
L 284.413874 111.932319 
L 284.620529 111.995464 
L 284.827184 112.206742 
L 285.240493 111.726372 
L 285.860457 113.519481 
L 286.067112 113.577853 
L 286.480421 113.549732 
L 287.100385 112.052033 
L 287.30704 113.167657 
L 287.513695 112.947304 
L 287.927004 113.729872 
L 288.133659 113.134186 
L 288.340314 113.409445 
L 288.546968 113.896733 
L 288.753623 114.046169 
L 288.960278 113.830895 
L 289.166932 113.884023 
L 289.373587 113.381703 
L 289.786897 113.970666 
L 289.993551 113.432793 
L 290.200206 112.238725 
L 290.406861 112.676569 
L 290.82017 112.015952 
L 291.026825 112.05534 
L 291.440134 112.612402 
L 291.646789 112.830752 
L 291.853444 113.908895 
L 292.060098 113.953065 
L 292.266753 114.392124 
L 292.473408 114.045216 
L 292.886717 112.797328 
L 293.300027 112.716071 
L 293.506681 112.857832 
L 293.713336 113.520518 
L 293.919991 113.493858 
L 294.126645 113.744916 
L 294.3333 113.701731 
L 294.539955 113.059493 
L 294.74661 114.013198 
L 294.953264 114.290144 
L 295.366574 114.117047 
L 295.573228 113.281483 
L 295.779883 113.605185 
L 295.986538 114.61343 
L 296.399847 114.652698 
L 296.606502 114.208604 
L 297.019811 114.680245 
L 297.226466 113.410914 
L 297.433121 113.316839 
L 297.84643 114.277806 
L 298.053085 114.102716 
L 298.25974 114.074238 
L 298.673049 113.712544 
L 298.879704 114.144673 
L 299.086358 113.801537 
L 299.293013 114.354099 
L 299.706323 113.696553 
L 300.119632 114.973285 
L 300.326287 114.913052 
L 300.739596 113.972329 
L 301.152906 114.537746 
L 301.35956 114.238934 
L 301.77287 114.671204 
L 301.979524 114.583448 
L 302.186179 114.248425 
L 302.392834 114.615615 
L 302.599488 114.451418 
L 302.806143 113.921001 
L 303.012798 113.699485 
L 303.219453 114.333507 
L 303.839417 114.693804 
L 304.046071 114.694777 
L 304.252726 113.292253 
L 304.459381 113.286515 
L 305.079345 113.62697 
L 305.286 113.371908 
L 305.492654 114.135306 
L 305.699309 114.060075 
L 305.905964 114.365039 
L 306.112618 113.836206 
L 306.319273 114.009912 
L 306.525928 114.80362 
L 306.732583 115.087779 
L 306.939237 114.827287 
L 307.145892 115.288612 
L 307.352547 115.148207 
L 307.559201 115.306826 
L 307.765856 114.474122 
L 307.972511 114.182814 
L 308.179166 113.647091 
L 308.38582 114.327826 
L 308.592475 114.417497 
L 308.79913 114.338196 
L 309.005784 114.514392 
L 309.212439 115.300565 
L 309.419094 115.354237 
L 309.625749 115.624042 
L 309.832403 115.207086 
L 310.039058 114.307694 
L 310.452367 113.959636 
L 310.659022 114.623458 
L 310.865677 114.673904 
L 311.072331 114.97569 
L 311.278986 114.851459 
L 311.692296 115.410404 
L 311.89895 114.92369 
L 312.105605 114.832816 
L 312.518914 115.738937 
L 312.725569 115.645642 
L 312.932224 114.895428 
L 313.138879 114.827424 
L 313.552188 114.23132 
L 313.758843 114.491434 
L 313.965497 115.041666 
L 314.172152 115.023356 
L 314.378807 115.199273 
L 314.585461 114.88107 
L 314.792116 114.962782 
L 314.998771 114.655261 
L 315.41208 115.280992 
L 315.618735 114.484023 
L 316.032044 114.058106 
L 316.238699 115.076634 
L 316.445354 115.006903 
L 316.652009 114.708521 
L 317.065318 115.687338 
L 317.271973 115.806152 
L 317.891937 115.272743 
L 318.305246 114.55524 
L 318.511901 114.572341 
L 318.718556 114.755502 
L 319.131865 115.700738 
L 319.958484 115.79197 
L 320.165139 115.223626 
L 320.371793 115.022187 
L 320.578448 115.270388 
L 320.785103 115.033423 
L 320.991757 115.180136 
L 321.405067 114.208924 
L 321.611722 114.034802 
L 321.818376 114.757883 
L 322.025031 114.137701 
L 322.43834 114.157749 
L 322.644995 113.858837 
L 322.85165 114.939229 
L 323.058304 114.463529 
L 323.471614 115.928239 
L 323.678269 115.566415 
L 323.884923 114.925071 
L 324.091578 115.02237 
L 324.504887 116.110476 
L 324.711542 115.969701 
L 324.918197 115.359281 
L 325.124852 113.530115 
L 325.538161 115.134697 
L 325.744816 115.243102 
L 325.95147 115.88363 
L 326.158125 115.290058 
L 326.36478 115.053496 
L 326.778089 115.443424 
L 326.984744 115.613823 
L 327.191399 116.110867 
L 327.398053 116.156989 
L 327.604708 115.642111 
L 327.811363 115.847676 
L 328.224672 115.758132 
L 328.431327 115.708753 
L 328.637982 114.269724 
L 328.844636 114.066762 
L 329.051291 115.255048 
L 329.4646 115.720321 
L 329.671255 115.339023 
L 330.084565 115.954187 
L 330.497874 114.720122 
L 330.704529 115.113622 
L 330.911183 114.080532 
L 331.117838 113.955048 
L 331.737802 116.465559 
L 331.944457 116.188835 
L 332.151112 116.320909 
L 332.771076 115.313478 
L 332.97773 116.019037 
L 333.184385 115.923297 
L 333.597695 115.985935 
L 333.804349 115.906576 
L 334.217659 114.822729 
L 334.837623 115.807017 
L 335.250932 115.017847 
L 335.664242 116.601343 
L 335.870896 116.69363 
L 336.077551 116.570868 
L 336.49086 115.325372 
L 336.697515 113.537615 
L 337.317479 116.172718 
L 337.524134 115.653702 
L 337.937443 113.418283 
L 338.144098 113.283147 
L 338.970717 116.680353 
L 339.177372 116.108691 
L 339.384026 115.050421 
L 339.590681 115.430742 
L 339.797336 115.187783 
L 340.003991 115.319387 
L 340.210645 116.048946 
L 340.4173 116.30822 
L 341.037264 115.852322 
L 341.243919 115.948284 
L 341.450573 116.542916 
L 341.657228 116.715845 
L 341.863883 116.423448 
L 342.070538 116.367187 
L 342.483847 116.513381 
L 342.690502 116.297754 
L 342.897156 116.968093 
L 343.103811 116.456865 
L 343.310466 116.408312 
L 343.723775 116.659142 
L 343.93043 116.49998 
L 344.137085 116.011571 
L 344.343739 114.88562 
L 344.550394 115.084748 
L 345.170358 117.079732 
L 345.583668 114.744286 
L 345.790322 115.166291 
L 345.996977 114.45344 
L 346.203632 114.742661 
L 346.410286 115.390001 
L 346.616941 114.25106 
L 346.823596 114.606116 
L 347.030251 116.244545 
L 347.236905 116.009283 
L 347.44356 115.944615 
L 347.650215 115.486457 
L 347.856869 116.075626 
L 348.683488 116.516152 
L 348.890143 116.588826 
L 349.096798 116.359042 
L 349.303452 116.742326 
L 349.510107 116.662176 
L 349.716762 116.964801 
L 349.923416 116.302178 
L 350.130071 116.182662 
L 350.543381 115.086714 
L 350.750035 115.994682 
L 350.95669 115.633458 
L 351.163345 116.14903 
L 351.369999 115.57391 
L 351.576654 114.382027 
L 351.783309 114.801795 
L 351.989964 114.512186 
L 352.196618 115.84799 
L 352.609928 116.703731 
L 352.816582 116.041194 
L 353.023237 116.780267 
L 353.436546 116.035202 
L 354.056511 116.965501 
L 354.263165 116.413387 
L 354.46982 114.326255 
L 354.676475 113.91137 
L 355.296439 117.170938 
L 355.503094 117.24794 
L 355.709748 116.744868 
L 356.123058 116.430789 
L 356.536367 116.729674 
L 356.743022 115.714185 
L 356.949677 115.65397 
L 357.156331 115.217719 
L 357.362986 115.371111 
L 357.569641 115.791714 
L 357.776295 116.556368 
L 357.98295 116.871622 
L 358.189605 117.496404 
L 358.396259 117.239397 
L 358.602914 116.099144 
L 358.809569 115.720254 
L 359.016224 115.878635 
L 359.222878 116.49611 
L 359.429533 116.640016 
L 359.636188 115.770808 
L 359.842842 116.877252 
L 360.256152 116.068351 
L 360.462807 117.13199 
L 360.669461 117.053272 
L 360.876116 117.462499 
L 361.082771 117.526884 
L 361.289425 116.784285 
L 361.49608 114.784077 
L 361.702735 114.241454 
L 362.116044 116.706733 
L 362.322699 116.524421 
L 362.529354 115.284952 
L 362.736008 113.345972 
L 362.942663 114.525046 
L 363.149318 117.27171 
L 363.355972 117.993879 
L 363.562627 118.087761 
L 363.769282 118.304832 
L 363.975937 118.339872 
L 364.595901 114.542139 
L 364.802555 114.38522 
L 365.00921 115.499771 
L 365.215865 115.759203 
L 365.629174 117.595939 
L 366.042484 118.282284 
L 366.249138 117.809813 
L 366.455793 116.930775 
L 366.662448 117.426788 
L 366.869102 117.136261 
L 367.075757 115.861807 
L 367.282412 116.958677 
L 367.489067 117.142924 
L 367.695721 116.224867 
L 367.902376 116.528618 
L 368.109031 116.373057 
L 368.315685 115.921855 
L 368.52234 114.161042 
L 368.728995 115.371218 
L 368.93565 117.40427 
L 369.142304 117.397884 
L 369.348959 117.223395 
L 369.555614 117.564014 
L 369.762268 117.310792 
L 369.968923 117.577951 
L 370.175578 118.12505 
L 370.382233 117.763437 
L 370.588887 117.721079 
L 370.795542 116.605859 
L 371.002197 116.414182 
L 371.208851 115.280496 
L 371.415506 115.367234 
L 371.622161 116.403029 
L 372.03547 115.947441 
L 372.242125 116.58259 
L 372.44878 118.199218 
L 373.068744 119.544156 
L 373.275398 118.531208 
L 373.688708 115.286492 
L 374.308672 118.935528 
L 374.515327 119.741002 
L 374.721981 119.658056 
L 374.928636 118.33881 
L 375.135291 115.988501 
L 375.341945 112.077751 
L 375.5486 110.78284 
L 375.96191 116.648196 
L 376.168564 118.100013 
L 376.375219 117.843758 
L 376.581874 118.30319 
L 376.788528 119.504522 
L 376.995183 118.796404 
L 377.201838 118.53253 
L 377.408493 117.686185 
L 377.615147 117.934068 
L 377.821802 116.683653 
L 378.028457 116.865174 
L 378.235111 117.407317 
L 378.441766 116.005494 
L 378.855076 118.753832 
L 379.268385 119.073 
L 379.681694 119.203713 
L 379.888349 118.05026 
L 380.095004 115.252811 
L 380.301658 115.754023 
L 380.508313 115.88756 
L 380.921623 117.237215 
L 381.128277 117.221179 
L 381.541587 119.633487 
L 381.748241 119.169629 
L 381.954896 117.294976 
L 382.368206 118.527835 
L 382.57486 119.967841 
L 382.781515 120.367208 
L 382.98817 118.946347 
L 383.194824 118.633258 
L 383.608134 115.855878 
L 383.814788 115.9966 
L 384.021443 118.533422 
L 384.228098 118.793903 
L 384.434753 116.116896 
L 384.641407 116.52645 
L 384.848062 116.602709 
L 385.054717 116.348753 
L 385.468026 120.356472 
L 386.08799 121.855333 
L 386.294645 121.792399 
L 386.707954 119.965248 
L 387.121264 115.059271 
L 387.741228 120.8915 
L 387.947883 121.403029 
L 388.154537 119.61187 
L 388.567847 118.498534 
L 388.774501 120.120977 
L 388.981156 119.526866 
L 389.187811 116.377417 
L 389.394466 118.000094 
L 389.60112 118.658407 
L 389.807775 118.074863 
L 390.01443 118.101784 
L 390.427739 120.596649 
L 390.634394 119.940577 
L 391.047703 120.677191 
L 391.254358 121.28456 
L 391.461013 123.06622 
L 391.667667 123.201163 
L 392.287632 119.765123 
L 392.494286 119.170337 
L 392.700941 119.969541 
L 392.907596 120.136835 
L 393.11425 119.166258 
L 393.52756 121.614935 
L 393.734214 120.007649 
L 393.940869 120.809338 
L 394.147524 119.262348 
L 394.354179 120.720193 
L 394.560833 123.021976 
L 394.767488 123.691561 
L 394.974143 122.833047 
L 395.180797 122.647152 
L 395.387452 122.242986 
L 395.594107 122.248108 
L 396.007416 122.409823 
L 396.420726 116.786826 
L 396.62738 116.816272 
L 396.834035 118.142311 
L 396.834035 118.142311 
" style="fill:none;stroke:#1f77b4;stroke-linecap:square;stroke-width:1.5;"/>
   </g>
   <g id="line2d_122">
    <path clip-path="url(#p8e9b642fc3)" d="M 73.832727 85.155147 
L 74.039382 102.845646 
L 74.246037 104.096463 
L 74.866001 105.13205 
L 75.69262 106.04172 
L 76.519238 106.640126 
L 77.552512 107.117668 
L 78.999095 107.502396 
L 81.272297 107.775441 
L 84.165463 107.903328 
L 90.365104 107.966261 
L 275.527722 108.129885 
L 293.506681 108.142006 
L 305.286 108.15146 
L 318.511901 108.16035 
L 366.869102 108.193428 
L 374.928636 108.201401 
L 389.60112 108.210619 
L 396.62738 108.218078 
L 398.487273 108.21813 
L 398.487273 108.21813 
" style="fill:none;stroke:#ff7f0e;stroke-linecap:square;stroke-width:1.5;"/>
   </g>
   <g id="line2d_123">
    <path clip-path="url(#p8e9b642fc3)" d="M 73.832727 71.423008 
L 74.452691 85.603302 
L 75.072656 94.708076 
L 75.485965 98.350353 
L 75.899274 100.618511 
L 76.312584 101.982653 
L 76.725893 102.797064 
L 77.345857 103.462198 
L 78.172476 103.888919 
L 79.619059 104.262731 
L 83.338844 104.888532 
L 88.918521 105.605703 
L 95.531472 106.226172 
L 103.79766 106.762349 
L 113.717086 107.180433 
L 126.323023 107.500775 
L 145.748565 107.752749 
L 180.259902 107.91221 
L 248.66261 107.972329 
L 393.52756 107.99394 
L 393.52756 107.99394 
" style="fill:none;stroke:#2ca02c;stroke-linecap:square;stroke-width:1.5;"/>
   </g>
   <g id="line2d_124">
    <path clip-path="url(#p8e9b642fc3)" d="M 73.832727 95.882774 
L 74.039382 113.230352 
L 74.246037 128.547863 
L 74.452691 153.28787 
L 74.659346 199.055289 
L 74.866001 260.524529 
L 75.072656 282.091326 
L 75.27931 287.135399 
L 75.485965 289.124473 
L 75.69262 289.948712 
L 75.899274 290.763111 
L 76.105929 291.068801 
L 76.312584 291.034547 
L 76.519238 291.360373 
L 76.725893 291.404207 
L 76.932548 291.383227 
L 77.139203 291.311356 
L 77.345857 291.392616 
L 77.552512 291.384178 
L 77.759167 291.439416 
L 77.965821 291.432682 
L 78.172476 291.409862 
L 78.379131 291.396219 
L 78.585786 291.535656 
L 78.79244 291.43831 
L 78.999095 291.325514 
L 79.20575 291.509844 
L 79.412404 291.412693 
L 79.619059 291.429659 
L 79.825714 291.526751 
L 80.032368 291.398238 
L 80.239023 291.46047 
L 80.445678 291.569184 
L 80.652333 291.466279 
L 80.858987 291.353594 
L 81.065642 291.471906 
L 81.272297 291.442674 
L 81.478951 291.551748 
L 81.685606 291.395859 
L 81.892261 291.541051 
L 82.098916 291.501083 
L 82.30557 291.525131 
L 82.512225 291.579262 
L 82.71888 291.462375 
L 82.925534 291.514933 
L 83.132189 291.371338 
L 83.338844 291.551764 
L 83.545499 291.568896 
L 83.752153 291.617099 
L 83.958808 291.628917 
L 84.165463 291.522723 
L 84.372117 291.463352 
L 84.578772 291.562581 
L 84.785427 291.622223 
L 84.992081 291.45576 
L 85.198736 291.39227 
L 85.405391 291.512329 
L 85.612046 291.559535 
L 85.8187 291.448383 
L 86.025355 291.558874 
L 86.23201 291.513607 
L 86.438664 291.556965 
L 86.645319 291.450026 
" style="fill:none;stroke:#d62728;stroke-dasharray:5.55,2.4;stroke-dashoffset:0;stroke-width:1.5;"/>
   </g>
   <g id="line2d_125">
    <path clip-path="url(#p8e9b642fc3)" d="M 73.832727 95.882774 
L 74.039382 113.230352 
L 74.246037 128.547863 
L 74.452691 153.28787 
L 74.659346 199.055291 
L 74.866001 260.529449 
L 75.072656 282.059092 
L 75.27931 287.071124 
L 75.485965 289.043003 
L 75.69262 289.921197 
L 75.899274 290.59982 
L 76.105929 290.917818 
L 76.312584 291.145931 
L 76.519238 291.226656 
L 76.725893 291.270704 
L 76.932548 291.35015 
L 77.139203 291.288554 
L 77.345857 291.382298 
L 77.552512 291.211113 
L 77.759167 291.470286 
L 77.965821 291.4486 
L 78.172476 291.460859 
L 78.379131 291.473019 
L 78.585786 291.581971 
L 78.79244 291.483168 
L 78.999095 291.290504 
L 79.20575 291.394956 
L 79.412404 291.438244 
L 79.619059 291.502012 
L 79.825714 291.563455 
L 80.032368 291.398599 
L 80.239023 291.436812 
L 80.445678 291.497551 
L 80.652333 291.464209 
L 80.858987 291.527452 
L 81.065642 291.426913 
L 81.272297 291.341694 
L 81.478951 291.59551 
L 81.685606 291.467769 
L 81.892261 291.454205 
L 82.098916 291.52131 
L 82.30557 291.470966 
L 82.512225 291.596856 
L 82.71888 291.492804 
L 82.925534 291.431096 
L 83.132189 291.338965 
L 83.338844 291.427043 
L 83.545499 291.429737 
L 83.752153 291.56987 
L 83.958808 291.54394 
L 84.165463 291.492446 
L 84.372117 291.515414 
L 84.578772 291.529151 
L 84.785427 291.5407 
L 84.992081 291.400239 
L 85.198736 291.403695 
L 85.405391 291.400321 
L 85.612046 291.53455 
L 85.8187 291.390636 
L 86.025355 291.592032 
L 86.23201 291.516536 
L 86.438664 291.516463 
L 86.645319 291.409831 
L 86.851974 291.637879 
L 87.058629 291.374698 
" style="fill:none;stroke:#9467bd;stroke-dasharray:5.55,2.4;stroke-dashoffset:0;stroke-width:1.5;"/>
   </g>
   <g id="line2d_126">
    <path clip-path="url(#p8e9b642fc3)" d="M 73.832727 95.882774 
L 74.039382 113.230352 
L 74.246037 128.547863 
L 74.452691 153.287704 
L 74.659346 199.048395 
L 74.866001 260.068685 
L 75.072656 280.159042 
L 75.27931 284.179023 
L 75.485965 286.101739 
L 75.69262 287.425075 
L 75.899274 288.232612 
L 76.105929 288.9057 
L 76.312584 289.323113 
L 76.519238 289.666273 
L 76.725893 289.817196 
L 76.932548 290.153288 
L 77.139203 290.239138 
L 77.345857 290.427588 
L 77.552512 290.479817 
L 77.759167 290.675947 
L 77.965821 290.72161 
L 78.172476 290.839392 
L 78.379131 290.84953 
L 78.585786 290.988971 
L 78.79244 291.066294 
L 78.999095 290.987839 
L 79.20575 291.113181 
L 79.412404 291.07257 
L 79.619059 291.139938 
L 79.825714 291.223966 
L 80.032368 291.178226 
L 80.239023 291.243049 
L 80.445678 291.271334 
L 80.652333 291.259927 
L 80.858987 291.272452 
L 81.065642 291.181108 
L 81.272297 291.317562 
L 81.478951 291.360646 
L 81.685606 291.383849 
L 81.892261 291.387333 
L 82.098916 291.320217 
L 82.30557 291.381955 
L 82.512225 291.422128 
L 82.71888 291.378119 
L 82.925534 291.432581 
L 83.132189 291.355985 
L 83.338844 291.471838 
L 83.545499 291.417045 
L 83.752153 291.460717 
L 83.958808 291.463366 
L 84.165463 291.458111 
L 84.372117 291.491459 
L 84.578772 291.501363 
L 84.785427 291.479404 
L 84.992081 291.423894 
L 85.198736 291.428739 
L 85.405391 291.42949 
L 85.612046 291.475185 
L 85.8187 291.514655 
L 86.025355 291.476713 
L 86.23201 291.516466 
L 86.438664 291.510985 
L 86.645319 291.402781 
L 86.851974 291.574441 
L 87.058629 291.465683 
L 87.265283 291.51153 
L 87.471938 291.506606 
L 87.678593 291.54502 
L 87.885247 291.556743 
L 88.091902 291.558992 
L 88.298557 291.467903 
L 88.505212 291.54597 
L 88.711866 291.486706 
L 88.918521 291.522506 
L 89.125176 291.515721 
L 89.33183 291.515954 
L 89.538485 291.573759 
L 89.74514 291.632835 
L 89.951794 291.545183 
L 90.158449 291.511101 
L 90.365104 291.56563 
L 90.571759 291.595514 
L 90.778413 291.621195 
L 90.985068 291.539058 
L 91.191723 291.461327 
L 91.398377 291.485277 
L 91.605032 291.564952 
L 91.811687 291.55011 
L 92.018342 291.563492 
L 92.224996 291.643321 
" style="fill:none;stroke:#8c564b;stroke-dasharray:5.55,2.4;stroke-dashoffset:0;stroke-width:1.5;"/>
   </g>
   <g id="line2d_127">
    <path clip-path="url(#p8e9b642fc3)" d="M 73.832727 95.882774 
L 74.452691 155.17721 
L 74.866001 243.650551 
L 75.072656 256.557747 
L 75.485965 264.023221 
L 75.899274 267.667409 
L 76.519238 271.530197 
L 77.139203 273.447524 
L 78.79244 276.304463 
L 78.999095 276.474522 
L 79.412404 276.990745 
L 80.239023 277.915774 
L 80.652333 278.353062 
L 81.065642 278.704169 
L 81.892261 279.30173 
L 82.512225 279.72261 
L 82.925534 280.037574 
L 83.132189 280.10251 
L 83.338844 280.321125 
L 83.545499 280.328692 
L 83.958808 280.560766 
L 85.405391 281.395101 
L 85.612046 281.411563 
L 86.025355 281.652045 
L 86.438664 281.796361 
L 86.645319 281.81797 
L 86.851974 281.974278 
L 87.265283 282.039642 
L 87.885247 282.333325 
L 89.538485 282.862636 
L 89.74514 283.007181 
L 89.951794 282.936922 
L 90.985068 283.314794 
L 91.398377 283.347766 
L 91.811687 283.511884 
L 92.638306 283.772576 
L 93.051615 283.855427 
L 93.878234 284.084416 
L 94.911507 284.299443 
L 95.118162 284.414312 
L 95.324817 284.348915 
L 95.738126 284.500501 
L 101.317803 285.582082 
L 101.731113 285.554158 
L 102.144422 285.671571 
L 103.177696 285.915046 
L 103.79766 285.859251 
L 104.417624 286.082861 
L 105.244243 286.136591 
L 105.657552 286.223724 
L 106.070862 286.219495 
L 106.89748 286.391448 
L 107.104135 286.397209 
L 107.104135 286.397209 
" style="fill:none;stroke:#e377c2;stroke-dasharray:5.55,2.4;stroke-dashoffset:0;stroke-width:1.5;"/>
   </g>
   <g id="line2d_128">
    <path clip-path="url(#p8e9b642fc3)" d="M 73.832727 95.882774 
L 74.039382 113.330108 
L 76.519238 184.047876 
L 77.345857 206.636764 
L 77.965821 218.271031 
L 78.79244 224.182814 
L 79.619059 228.23368 
L 80.239023 230.658107 
L 82.098916 236.121463 
L 83.338844 238.633761 
L 83.752153 239.353479 
L 84.372117 240.746868 
L 86.23201 243.560647 
L 86.645319 244.215494 
L 87.885247 245.604937 
L 88.505212 246.267216 
L 89.951794 247.794652 
L 90.365104 248.288435 
L 90.778413 248.671729 
L 92.018342 249.958965 
L 92.431651 250.38159 
L 93.051615 250.886693 
L 93.464924 251.204073 
L 95.118162 252.472034 
L 98.424637 254.689686 
L 101.317803 256.294512 
L 101.937767 256.552598 
L 102.971041 257.01513 
L 103.79766 257.411332 
L 104.004315 257.399337 
L 105.037588 257.886745 
L 113.303776 260.922324 
L 113.717086 261.018354 
L 120.743346 262.895751 
L 121.156655 262.955098 
L 121.569965 263.127393 
L 121.776619 263.11218 
L 122.396584 263.317335 
L 123.016548 263.401304 
L 123.429857 263.481444 
L 124.463131 263.731496 
L 127.356297 264.328472 
L 127.769606 264.435389 
L 128.182915 264.446223 
L 128.596225 264.573886 
L 129.836153 264.83124 
L 130.869427 265.002017 
L 131.076081 265.074211 
L 131.076081 265.074211 
" style="fill:none;stroke:#7f7f7f;stroke-dasharray:5.55,2.4;stroke-dashoffset:0;stroke-width:1.5;"/>
   </g>
   <g id="line2d_129">
    <path clip-path="url(#p8e9b642fc3)" d="M 73.832727 95.882774 
L 74.039382 112.826137 
L 74.246037 115.512897 
L 75.072656 118.800987 
L 76.312584 122.769586 
L 76.725893 124.018316 
L 77.345857 128.108048 
L 77.965821 132.657826 
L 78.999095 141.339684 
L 80.239023 147.292023 
L 82.925534 157.583651 
L 83.958808 161.278399 
L 86.851974 170.542713 
L 87.058629 170.965653 
L 87.885247 173.773094 
L 88.711866 175.749971 
L 89.951794 178.733927 
L 90.985068 180.968364 
L 91.811687 182.671193 
L 93.464924 186.081271 
L 94.084889 187.139741 
L 96.7714 192.028788 
L 97.184709 192.75225 
L 97.391364 192.983492 
L 98.217983 194.582294 
L 98.424637 194.868577 
L 99.251256 196.771456 
L 99.457911 196.98468 
L 100.28453 198.611374 
L 102.144422 202.431492 
L 103.79766 205.616534 
L 104.417624 206.992529 
L 106.070862 209.721794 
L 108.757373 214.357237 
L 110.82392 217.391476 
L 113.717086 220.675239 
L 114.130395 220.896962 
L 114.543705 221.419109 
L 115.163669 221.843521 
L 115.576978 222.313852 
L 116.610252 223.184698 
L 117.643525 223.932127 
L 118.883454 224.761642 
L 119.090108 224.950358 
L 119.296763 224.868466 
L 119.710072 225.293726 
L 121.36331 226.24649 
L 121.776619 226.461973 
L 122.809893 226.998519 
L 124.463131 227.841533 
L 124.87644 228.027544 
L 125.703059 228.497688 
L 126.323023 228.712432 
L 127.976261 229.460626 
L 133.555938 231.729217 
L 133.969247 231.781843 
L 134.382557 231.982222 
L 135.209175 232.266564 
L 135.622485 232.417318 
L 136.862413 232.818902 
L 143.682018 234.871007 
L 143.888673 234.914049 
L 144.095328 235.099303 
L 144.715292 235.187335 
L 145.95522 235.581854 
L 146.575184 235.730227 
L 149.261696 236.46996 
L 149.261696 236.46996 
" style="fill:none;stroke:#bcbd22;stroke-dasharray:5.55,2.4;stroke-dashoffset:0;stroke-width:1.5;"/>
   </g>
   <g id="line2d_130">
    <path clip-path="url(#p8e9b642fc3)" d="M 73.832727 95.882774 
L 74.039382 112.63175 
L 74.246037 114.883494 
L 74.452691 115.422743 
L 75.27931 116.026312 
L 77.965821 117.707559 
L 79.20575 118.706707 
L 79.619059 119.108817 
L 79.825714 119.373452 
L 80.032368 120.595764 
L 80.445678 121.135715 
L 80.652333 121.235588 
L 81.478951 122.032624 
L 81.892261 122.392404 
L 83.132189 123.69021 
L 83.958808 124.748387 
L 87.265283 130.758096 
L 92.018342 137.084316 
L 92.431651 137.508749 
L 92.84496 137.893175 
L 97.598019 143.086315 
L 98.011328 143.769613 
L 99.044602 144.907064 
L 103.177696 149.48913 
L 104.624279 150.941135 
L 105.657552 152.16358 
L 105.864207 152.321985 
L 107.104135 154.00835 
L 108.757373 155.898377 
L 112.270503 159.752643 
L 113.097122 160.657731 
L 113.717086 161.27743 
L 114.33705 162.012276 
L 115.576978 163.170756 
L 116.196942 163.787483 
L 116.610252 164.164086 
L 117.436871 165.056939 
L 118.263489 165.869657 
L 119.090108 166.668118 
L 119.710072 167.226588 
L 120.330036 167.825826 
L 121.36331 168.73063 
L 122.396584 169.611596 
L 124.463131 171.26677 
L 125.496404 171.918198 
L 126.323023 172.678594 
L 132.729319 177.858132 
L 132.935974 177.90619 
L 133.142628 178.114088 
L 133.349283 178.086087 
L 134.175902 178.786494 
L 134.589211 178.919452 
L 135.002521 179.290587 
L 135.209175 179.364194 
L 135.41583 179.597663 
L 135.622485 179.585238 
L 136.035794 179.99975 
L 138.515651 181.369803 
L 138.92896 181.724489 
L 140.582198 182.695345 
L 143.888673 184.490861 
L 144.095328 184.738627 
L 144.508637 184.884985 
L 144.921947 185.210022 
L 148.228422 187.126932 
L 148.641731 187.458672 
L 150.088314 188.339264 
L 150.914933 188.749077 
L 151.741552 189.205316 
L 153.188135 189.961502 
L 153.601444 190.316072 
L 156.287956 192.126584 
L 156.701265 192.316037 
L 157.114574 192.675742 
L 157.527884 192.902568 
L 164.760799 197.105425 
L 165.174108 197.498448 
L 166.827346 198.427156 
L 168.273929 199.350277 
L 170.340476 200.539183 
L 171.787059 201.679046 
L 171.787059 201.679046 
" style="fill:none;stroke:#17becf;stroke-dasharray:5.55,2.4;stroke-dashoffset:0;stroke-width:1.5;"/>
   </g>
   <g id="patch_3">
    <path d="M 57.6 307.584 
L 57.6 41.472 
" style="fill:none;stroke:#000000;stroke-linecap:square;stroke-linejoin:miter;stroke-width:0.8;"/>
   </g>
   <g id="patch_4">
    <path d="M 414.72 307.584 
L 414.72 41.472 
" style="fill:none;stroke:#000000;stroke-linecap:square;stroke-linejoin:miter;stroke-width:0.8;"/>
   </g>
   <g id="patch_5">
    <path d="M 57.6 307.584 
L 414.72 307.584 
" style="fill:none;stroke:#000000;stroke-linecap:square;stroke-linejoin:miter;stroke-width:0.8;"/>
   </g>
   <g id="patch_6">
    <path d="M 57.6 41.472 
L 414.72 41.472 
" style="fill:none;stroke:#000000;stroke-linecap:square;stroke-linejoin:miter;stroke-width:0.8;"/>
   </g>
   <g id="legend_1">
    <g id="patch_7">
     <path d="M 299.895 302.584 
L 407.72 302.584 
Q 409.72 302.584 409.72 300.584 
L 409.72 154.80275 
Q 409.72 152.80275 407.72 152.80275 
L 299.895 152.80275 
Q 297.895 152.80275 297.895 154.80275 
L 297.895 300.584 
Q 297.895 302.584 299.895 302.584 
z
" style="fill:#ffffff;opacity:0.8;stroke:#cccccc;stroke-linejoin:miter;"/>
    </g>
    <g id="line2d_131">
     <path d="M 301.895 160.901187 
L 321.895 160.901187 
" style="fill:none;stroke:#1f77b4;stroke-linecap:square;stroke-width:1.5;"/>
    </g>
    <g id="line2d_132"/>
    <g id="text_18">
     <!-- SGD, lr 0.1 -->
     <defs>
      <path d="M 53.515625 70.515625 
L 53.515625 60.890625 
Q 47.90625 63.578125 42.921875 64.890625 
Q 37.9375 66.21875 33.296875 66.21875 
Q 25.25 66.21875 20.875 63.09375 
Q 16.5 59.96875 16.5 54.203125 
Q 16.5 49.359375 19.40625 46.890625 
Q 22.3125 44.4375 30.421875 42.921875 
L 36.375 41.703125 
Q 47.40625 39.59375 52.65625 34.296875 
Q 57.90625 29 57.90625 20.125 
Q 57.90625 9.515625 50.796875 4.046875 
Q 43.703125 -1.421875 29.984375 -1.421875 
Q 24.8125 -1.421875 18.96875 -0.25 
Q 13.140625 0.921875 6.890625 3.21875 
L 6.890625 13.375 
Q 12.890625 10.015625 18.65625 8.296875 
Q 24.421875 6.59375 29.984375 6.59375 
Q 38.421875 6.59375 43.015625 9.90625 
Q 47.609375 13.234375 47.609375 19.390625 
Q 47.609375 24.75 44.3125 27.78125 
Q 41.015625 30.8125 33.5 32.328125 
L 27.484375 33.5 
Q 16.453125 35.6875 11.515625 40.375 
Q 6.59375 45.0625 6.59375 53.421875 
Q 6.59375 63.09375 13.40625 68.65625 
Q 20.21875 74.21875 32.171875 74.21875 
Q 37.3125 74.21875 42.625 73.28125 
Q 47.953125 72.359375 53.515625 70.515625 
z
" id="DejaVuSans-53"/>
      <path d="M 59.515625 10.40625 
L 59.515625 29.984375 
L 43.40625 29.984375 
L 43.40625 38.09375 
L 69.28125 38.09375 
L 69.28125 6.78125 
Q 63.578125 2.734375 56.6875 0.65625 
Q 49.8125 -1.421875 42 -1.421875 
Q 24.90625 -1.421875 15.25 8.5625 
Q 5.609375 18.5625 5.609375 36.375 
Q 5.609375 54.25 15.25 64.234375 
Q 24.90625 74.21875 42 74.21875 
Q 49.125 74.21875 55.546875 72.453125 
Q 61.96875 70.703125 67.390625 67.28125 
L 67.390625 56.78125 
Q 61.921875 61.421875 55.765625 63.765625 
Q 49.609375 66.109375 42.828125 66.109375 
Q 29.4375 66.109375 22.71875 58.640625 
Q 16.015625 51.171875 16.015625 36.375 
Q 16.015625 21.625 22.71875 14.15625 
Q 29.4375 6.6875 42.828125 6.6875 
Q 48.046875 6.6875 52.140625 7.59375 
Q 56.25 8.5 59.515625 10.40625 
z
" id="DejaVuSans-47"/>
      <path d="M 19.671875 64.796875 
L 19.671875 8.109375 
L 31.59375 8.109375 
Q 46.6875 8.109375 53.6875 14.9375 
Q 60.6875 21.78125 60.6875 36.53125 
Q 60.6875 51.171875 53.6875 57.984375 
Q 46.6875 64.796875 31.59375 64.796875 
z
M 9.8125 72.90625 
L 30.078125 72.90625 
Q 51.265625 72.90625 61.171875 64.09375 
Q 71.09375 55.28125 71.09375 36.53125 
Q 71.09375 17.671875 61.125 8.828125 
Q 51.171875 0 30.078125 0 
L 9.8125 0 
z
" id="DejaVuSans-44"/>
      <path d="M 11.71875 12.40625 
L 22.015625 12.40625 
L 22.015625 4 
L 14.015625 -11.625 
L 7.71875 -11.625 
L 11.71875 4 
z
" id="DejaVuSans-2c"/>
      <path id="DejaVuSans-20"/>
      <path d="M 41.109375 46.296875 
Q 39.59375 47.171875 37.8125 47.578125 
Q 36.03125 48 33.890625 48 
Q 26.265625 48 22.1875 43.046875 
Q 18.109375 38.09375 18.109375 28.8125 
L 18.109375 0 
L 9.078125 0 
L 9.078125 54.6875 
L 18.109375 54.6875 
L 18.109375 46.1875 
Q 20.953125 51.171875 25.484375 53.578125 
Q 30.03125 56 36.53125 56 
Q 37.453125 56 38.578125 55.875 
Q 39.703125 55.765625 41.0625 55.515625 
z
" id="DejaVuSans-72"/>
      <path d="M 10.6875 12.40625 
L 21 12.40625 
L 21 0 
L 10.6875 0 
z
" id="DejaVuSans-2e"/>
     </defs>
     <g transform="translate(329.895 164.401187)scale(0.1 -0.1)">
      <use xlink:href="#DejaVuSans-53"/>
      <use x="63.476562" xlink:href="#DejaVuSans-47"/>
      <use x="140.966797" xlink:href="#DejaVuSans-44"/>
      <use x="217.96875" xlink:href="#DejaVuSans-2c"/>
      <use x="249.755859" xlink:href="#DejaVuSans-20"/>
      <use x="281.542969" xlink:href="#DejaVuSans-6c"/>
      <use x="309.326172" xlink:href="#DejaVuSans-72"/>
      <use x="350.439453" xlink:href="#DejaVuSans-20"/>
      <use x="382.226562" xlink:href="#DejaVuSans-30"/>
      <use x="445.849609" xlink:href="#DejaVuSans-2e"/>
      <use x="477.636719" xlink:href="#DejaVuSans-31"/>
     </g>
    </g>
    <g id="line2d_133">
     <path d="M 301.895 175.579313 
L 321.895 175.579313 
" style="fill:none;stroke:#ff7f0e;stroke-linecap:square;stroke-width:1.5;"/>
    </g>
    <g id="line2d_134"/>
    <g id="text_19">
     <!-- SGD, lr 0.01 -->
     <g transform="translate(329.895 179.079313)scale(0.1 -0.1)">
      <use xlink:href="#DejaVuSans-53"/>
      <use x="63.476562" xlink:href="#DejaVuSans-47"/>
      <use x="140.966797" xlink:href="#DejaVuSans-44"/>
      <use x="217.96875" xlink:href="#DejaVuSans-2c"/>
      <use x="249.755859" xlink:href="#DejaVuSans-20"/>
      <use x="281.542969" xlink:href="#DejaVuSans-6c"/>
      <use x="309.326172" xlink:href="#DejaVuSans-72"/>
      <use x="350.439453" xlink:href="#DejaVuSans-20"/>
      <use x="382.226562" xlink:href="#DejaVuSans-30"/>
      <use x="445.849609" xlink:href="#DejaVuSans-2e"/>
      <use x="477.636719" xlink:href="#DejaVuSans-30"/>
      <use x="541.259766" xlink:href="#DejaVuSans-31"/>
     </g>
    </g>
    <g id="line2d_135">
     <path d="M 301.895 190.257438 
L 321.895 190.257438 
" style="fill:none;stroke:#2ca02c;stroke-linecap:square;stroke-width:1.5;"/>
    </g>
    <g id="line2d_136"/>
    <g id="text_20">
     <!-- SGD, lr 0.001 -->
     <g transform="translate(329.895 193.757438)scale(0.1 -0.1)">
      <use xlink:href="#DejaVuSans-53"/>
      <use x="63.476562" xlink:href="#DejaVuSans-47"/>
      <use x="140.966797" xlink:href="#DejaVuSans-44"/>
      <use x="217.96875" xlink:href="#DejaVuSans-2c"/>
      <use x="249.755859" xlink:href="#DejaVuSans-20"/>
      <use x="281.542969" xlink:href="#DejaVuSans-6c"/>
      <use x="309.326172" xlink:href="#DejaVuSans-72"/>
      <use x="350.439453" xlink:href="#DejaVuSans-20"/>
      <use x="382.226562" xlink:href="#DejaVuSans-30"/>
      <use x="445.849609" xlink:href="#DejaVuSans-2e"/>
      <use x="477.636719" xlink:href="#DejaVuSans-30"/>
      <use x="541.259766" xlink:href="#DejaVuSans-30"/>
      <use x="604.882812" xlink:href="#DejaVuSans-31"/>
     </g>
    </g>
    <g id="line2d_137">
     <path d="M 301.895 204.935563 
L 321.895 204.935563 
" style="fill:none;stroke:#d62728;stroke-dasharray:5.55,2.4;stroke-dashoffset:0;stroke-width:1.5;"/>
    </g>
    <g id="line2d_138"/>
    <g id="text_21">
     <!-- SGN, cg iter 40 -->
     <defs>
      <path d="M 9.8125 72.90625 
L 23.09375 72.90625 
L 55.421875 11.921875 
L 55.421875 72.90625 
L 64.984375 72.90625 
L 64.984375 0 
L 51.703125 0 
L 19.390625 60.984375 
L 19.390625 0 
L 9.8125 0 
z
" id="DejaVuSans-4e"/>
      <path d="M 45.40625 27.984375 
Q 45.40625 37.75 41.375 43.109375 
Q 37.359375 48.484375 30.078125 48.484375 
Q 22.859375 48.484375 18.828125 43.109375 
Q 14.796875 37.75 14.796875 27.984375 
Q 14.796875 18.265625 18.828125 12.890625 
Q 22.859375 7.515625 30.078125 7.515625 
Q 37.359375 7.515625 41.375 12.890625 
Q 45.40625 18.265625 45.40625 27.984375 
z
M 54.390625 6.78125 
Q 54.390625 -7.171875 48.1875 -13.984375 
Q 42 -20.796875 29.203125 -20.796875 
Q 24.46875 -20.796875 20.265625 -20.09375 
Q 16.0625 -19.390625 12.109375 -17.921875 
L 12.109375 -9.1875 
Q 16.0625 -11.328125 19.921875 -12.34375 
Q 23.78125 -13.375 27.78125 -13.375 
Q 36.625 -13.375 41.015625 -8.765625 
Q 45.40625 -4.15625 45.40625 5.171875 
L 45.40625 9.625 
Q 42.625 4.78125 38.28125 2.390625 
Q 33.9375 0 27.875 0 
Q 17.828125 0 11.671875 7.65625 
Q 5.515625 15.328125 5.515625 27.984375 
Q 5.515625 40.671875 11.671875 48.328125 
Q 17.828125 56 27.875 56 
Q 33.9375 56 38.28125 53.609375 
Q 42.625 51.21875 45.40625 46.390625 
L 45.40625 54.6875 
L 54.390625 54.6875 
z
" id="DejaVuSans-67"/>
      <path d="M 9.421875 54.6875 
L 18.40625 54.6875 
L 18.40625 0 
L 9.421875 0 
z
M 9.421875 75.984375 
L 18.40625 75.984375 
L 18.40625 64.59375 
L 9.421875 64.59375 
z
" id="DejaVuSans-69"/>
      <path d="M 18.3125 70.21875 
L 18.3125 54.6875 
L 36.8125 54.6875 
L 36.8125 47.703125 
L 18.3125 47.703125 
L 18.3125 18.015625 
Q 18.3125 11.328125 20.140625 9.421875 
Q 21.96875 7.515625 27.59375 7.515625 
L 36.8125 7.515625 
L 36.8125 0 
L 27.59375 0 
Q 17.1875 0 13.234375 3.875 
Q 9.28125 7.765625 9.28125 18.015625 
L 9.28125 47.703125 
L 2.6875 47.703125 
L 2.6875 54.6875 
L 9.28125 54.6875 
L 9.28125 70.21875 
z
" id="DejaVuSans-74"/>
     </defs>
     <g transform="translate(329.895 208.435563)scale(0.1 -0.1)">
      <use xlink:href="#DejaVuSans-53"/>
      <use x="63.476562" xlink:href="#DejaVuSans-47"/>
      <use x="140.966797" xlink:href="#DejaVuSans-4e"/>
      <use x="215.771484" xlink:href="#DejaVuSans-2c"/>
      <use x="247.558594" xlink:href="#DejaVuSans-20"/>
      <use x="279.345703" xlink:href="#DejaVuSans-63"/>
      <use x="334.326172" xlink:href="#DejaVuSans-67"/>
      <use x="397.802734" xlink:href="#DejaVuSans-20"/>
      <use x="429.589844" xlink:href="#DejaVuSans-69"/>
      <use x="457.373047" xlink:href="#DejaVuSans-74"/>
      <use x="496.582031" xlink:href="#DejaVuSans-65"/>
      <use x="558.105469" xlink:href="#DejaVuSans-72"/>
      <use x="599.21875" xlink:href="#DejaVuSans-20"/>
      <use x="631.005859" xlink:href="#DejaVuSans-34"/>
      <use x="694.628906" xlink:href="#DejaVuSans-30"/>
     </g>
    </g>
    <g id="line2d_139">
     <path d="M 301.895 219.613688 
L 321.895 219.613688 
" style="fill:none;stroke:#9467bd;stroke-dasharray:5.55,2.4;stroke-dashoffset:0;stroke-width:1.5;"/>
    </g>
    <g id="line2d_140"/>
    <g id="text_22">
     <!-- SGN, cg iter 30 -->
     <g transform="translate(329.895 223.113688)scale(0.1 -0.1)">
      <use xlink:href="#DejaVuSans-53"/>
      <use x="63.476562" xlink:href="#DejaVuSans-47"/>
      <use x="140.966797" xlink:href="#DejaVuSans-4e"/>
      <use x="215.771484" xlink:href="#DejaVuSans-2c"/>
      <use x="247.558594" xlink:href="#DejaVuSans-20"/>
      <use x="279.345703" xlink:href="#DejaVuSans-63"/>
      <use x="334.326172" xlink:href="#DejaVuSans-67"/>
      <use x="397.802734" xlink:href="#DejaVuSans-20"/>
      <use x="429.589844" xlink:href="#DejaVuSans-69"/>
      <use x="457.373047" xlink:href="#DejaVuSans-74"/>
      <use x="496.582031" xlink:href="#DejaVuSans-65"/>
      <use x="558.105469" xlink:href="#DejaVuSans-72"/>
      <use x="599.21875" xlink:href="#DejaVuSans-20"/>
      <use x="631.005859" xlink:href="#DejaVuSans-33"/>
      <use x="694.628906" xlink:href="#DejaVuSans-30"/>
     </g>
    </g>
    <g id="line2d_141">
     <path d="M 301.895 234.291812 
L 321.895 234.291812 
" style="fill:none;stroke:#8c564b;stroke-dasharray:5.55,2.4;stroke-dashoffset:0;stroke-width:1.5;"/>
    </g>
    <g id="line2d_142"/>
    <g id="text_23">
     <!-- SGN, cg iter 20 -->
     <g transform="translate(329.895 237.791812)scale(0.1 -0.1)">
      <use xlink:href="#DejaVuSans-53"/>
      <use x="63.476562" xlink:href="#DejaVuSans-47"/>
      <use x="140.966797" xlink:href="#DejaVuSans-4e"/>
      <use x="215.771484" xlink:href="#DejaVuSans-2c"/>
      <use x="247.558594" xlink:href="#DejaVuSans-20"/>
      <use x="279.345703" xlink:href="#DejaVuSans-63"/>
      <use x="334.326172" xlink:href="#DejaVuSans-67"/>
      <use x="397.802734" xlink:href="#DejaVuSans-20"/>
      <use x="429.589844" xlink:href="#DejaVuSans-69"/>
      <use x="457.373047" xlink:href="#DejaVuSans-74"/>
      <use x="496.582031" xlink:href="#DejaVuSans-65"/>
      <use x="558.105469" xlink:href="#DejaVuSans-72"/>
      <use x="599.21875" xlink:href="#DejaVuSans-20"/>
      <use x="631.005859" xlink:href="#DejaVuSans-32"/>
      <use x="694.628906" xlink:href="#DejaVuSans-30"/>
     </g>
    </g>
    <g id="line2d_143">
     <path d="M 301.895 248.969938 
L 321.895 248.969938 
" style="fill:none;stroke:#e377c2;stroke-dasharray:5.55,2.4;stroke-dashoffset:0;stroke-width:1.5;"/>
    </g>
    <g id="line2d_144"/>
    <g id="text_24">
     <!-- SGN, cg iter 10 -->
     <g transform="translate(329.895 252.469938)scale(0.1 -0.1)">
      <use xlink:href="#DejaVuSans-53"/>
      <use x="63.476562" xlink:href="#DejaVuSans-47"/>
      <use x="140.966797" xlink:href="#DejaVuSans-4e"/>
      <use x="215.771484" xlink:href="#DejaVuSans-2c"/>
      <use x="247.558594" xlink:href="#DejaVuSans-20"/>
      <use x="279.345703" xlink:href="#DejaVuSans-63"/>
      <use x="334.326172" xlink:href="#DejaVuSans-67"/>
      <use x="397.802734" xlink:href="#DejaVuSans-20"/>
      <use x="429.589844" xlink:href="#DejaVuSans-69"/>
      <use x="457.373047" xlink:href="#DejaVuSans-74"/>
      <use x="496.582031" xlink:href="#DejaVuSans-65"/>
      <use x="558.105469" xlink:href="#DejaVuSans-72"/>
      <use x="599.21875" xlink:href="#DejaVuSans-20"/>
      <use x="631.005859" xlink:href="#DejaVuSans-31"/>
      <use x="694.628906" xlink:href="#DejaVuSans-30"/>
     </g>
    </g>
    <g id="line2d_145">
     <path d="M 301.895 263.648062 
L 321.895 263.648062 
" style="fill:none;stroke:#7f7f7f;stroke-dasharray:5.55,2.4;stroke-dashoffset:0;stroke-width:1.5;"/>
    </g>
    <g id="line2d_146"/>
    <g id="text_25">
     <!-- SGN, cg iter 5 -->
     <defs>
      <path d="M 10.796875 72.90625 
L 49.515625 72.90625 
L 49.515625 64.59375 
L 19.828125 64.59375 
L 19.828125 46.734375 
Q 21.96875 47.46875 24.109375 47.828125 
Q 26.265625 48.1875 28.421875 48.1875 
Q 40.625 48.1875 47.75 41.5 
Q 54.890625 34.8125 54.890625 23.390625 
Q 54.890625 11.625 47.5625 5.09375 
Q 40.234375 -1.421875 26.90625 -1.421875 
Q 22.3125 -1.421875 17.546875 -0.640625 
Q 12.796875 0.140625 7.71875 1.703125 
L 7.71875 11.625 
Q 12.109375 9.234375 16.796875 8.0625 
Q 21.484375 6.890625 26.703125 6.890625 
Q 35.15625 6.890625 40.078125 11.328125 
Q 45.015625 15.765625 45.015625 23.390625 
Q 45.015625 31 40.078125 35.4375 
Q 35.15625 39.890625 26.703125 39.890625 
Q 22.75 39.890625 18.8125 39.015625 
Q 14.890625 38.140625 10.796875 36.28125 
z
" id="DejaVuSans-35"/>
     </defs>
     <g transform="translate(329.895 267.148062)scale(0.1 -0.1)">
      <use xlink:href="#DejaVuSans-53"/>
      <use x="63.476562" xlink:href="#DejaVuSans-47"/>
      <use x="140.966797" xlink:href="#DejaVuSans-4e"/>
      <use x="215.771484" xlink:href="#DejaVuSans-2c"/>
      <use x="247.558594" xlink:href="#DejaVuSans-20"/>
      <use x="279.345703" xlink:href="#DejaVuSans-63"/>
      <use x="334.326172" xlink:href="#DejaVuSans-67"/>
      <use x="397.802734" xlink:href="#DejaVuSans-20"/>
      <use x="429.589844" xlink:href="#DejaVuSans-69"/>
      <use x="457.373047" xlink:href="#DejaVuSans-74"/>
      <use x="496.582031" xlink:href="#DejaVuSans-65"/>
      <use x="558.105469" xlink:href="#DejaVuSans-72"/>
      <use x="599.21875" xlink:href="#DejaVuSans-20"/>
      <use x="631.005859" xlink:href="#DejaVuSans-35"/>
     </g>
    </g>
    <g id="line2d_147">
     <path d="M 301.895 278.326188 
L 321.895 278.326188 
" style="fill:none;stroke:#bcbd22;stroke-dasharray:5.55,2.4;stroke-dashoffset:0;stroke-width:1.5;"/>
    </g>
    <g id="line2d_148"/>
    <g id="text_26">
     <!-- SGN, cg iter 3 -->
     <g transform="translate(329.895 281.826188)scale(0.1 -0.1)">
      <use xlink:href="#DejaVuSans-53"/>
      <use x="63.476562" xlink:href="#DejaVuSans-47"/>
      <use x="140.966797" xlink:href="#DejaVuSans-4e"/>
      <use x="215.771484" xlink:href="#DejaVuSans-2c"/>
      <use x="247.558594" xlink:href="#DejaVuSans-20"/>
      <use x="279.345703" xlink:href="#DejaVuSans-63"/>
      <use x="334.326172" xlink:href="#DejaVuSans-67"/>
      <use x="397.802734" xlink:href="#DejaVuSans-20"/>
      <use x="429.589844" xlink:href="#DejaVuSans-69"/>
      <use x="457.373047" xlink:href="#DejaVuSans-74"/>
      <use x="496.582031" xlink:href="#DejaVuSans-65"/>
      <use x="558.105469" xlink:href="#DejaVuSans-72"/>
      <use x="599.21875" xlink:href="#DejaVuSans-20"/>
      <use x="631.005859" xlink:href="#DejaVuSans-33"/>
     </g>
    </g>
    <g id="line2d_149">
     <path d="M 301.895 293.004312 
L 321.895 293.004312 
" style="fill:none;stroke:#17becf;stroke-dasharray:5.55,2.4;stroke-dashoffset:0;stroke-width:1.5;"/>
    </g>
    <g id="line2d_150"/>
    <g id="text_27">
     <!-- SGN, cg iter 2 -->
     <g transform="translate(329.895 296.504312)scale(0.1 -0.1)">
      <use xlink:href="#DejaVuSans-53"/>
      <use x="63.476562" xlink:href="#DejaVuSans-47"/>
      <use x="140.966797" xlink:href="#DejaVuSans-4e"/>
      <use x="215.771484" xlink:href="#DejaVuSans-2c"/>
      <use x="247.558594" xlink:href="#DejaVuSans-20"/>
      <use x="279.345703" xlink:href="#DejaVuSans-63"/>
      <use x="334.326172" xlink:href="#DejaVuSans-67"/>
      <use x="397.802734" xlink:href="#DejaVuSans-20"/>
      <use x="429.589844" xlink:href="#DejaVuSans-69"/>
      <use x="457.373047" xlink:href="#DejaVuSans-74"/>
      <use x="496.582031" xlink:href="#DejaVuSans-65"/>
      <use x="558.105469" xlink:href="#DejaVuSans-72"/>
      <use x="599.21875" xlink:href="#DejaVuSans-20"/>
      <use x="631.005859" xlink:href="#DejaVuSans-32"/>
     </g>
    </g>
   </g>
  </g>
 </g>
 <defs>
  <clipPath id="p8e9b642fc3">
   <rect height="266.112" width="357.12" x="57.6" y="41.472"/>
  </clipPath>
 </defs>
</svg>
