<?xml version="1.0" encoding="utf-8" standalone="no"?>
<!DOCTYPE svg PUBLIC "-//W3C//DTD SVG 1.1//EN"
  "http://www.w3.org/Graphics/SVG/1.1/DTD/svg11.dtd">
<!-- Created with matplotlib (http://matplotlib.org/) -->
<svg height="345pt" version="1.1" viewBox="0 0 460 345" width="460pt" xmlns="http://www.w3.org/2000/svg" xmlns:xlink="http://www.w3.org/1999/xlink">
 <defs>
  <style type="text/css">
*{stroke-linecap:butt;stroke-linejoin:round;}
  </style>
 </defs>
 <g id="figure_1">
  <g id="patch_1">
   <path d="M 0 345.6 
L 460.8 345.6 
L 460.8 0 
L 0 0 
z
" style="fill:none;opacity:0;"/>
  </g>
  <g id="axes_1">
   <g id="patch_2">
    <path d="M 57.6 307.584 
L 414.72 307.584 
L 414.72 41.472 
L 57.6 41.472 
z
" style="fill:#ffffff;"/>
   </g>
   <g id="matplotlib.axis_1">
    <g id="xtick_1">
     <g id="line2d_1">
      <path clip-path="url(#pda9f4b94e9)" d="M 73.582222 307.584 
L 73.582222 41.472 
" style="fill:none;stroke:#b0b0b0;stroke-linecap:square;stroke-width:0.8;"/>
     </g>
     <g id="line2d_2">
      <defs>
       <path d="M 0 0 
L 0 3.5 
" id="m4ed5d2f7d2" style="stroke:#000000;stroke-width:0.8;"/>
      </defs>
      <g>
       <use style="stroke:#000000;stroke-width:0.8;" x="73.582222" xlink:href="#m4ed5d2f7d2" y="307.584"/>
      </g>
     </g>
     <g id="text_1">
      <!-- 0 -->
      <defs>
       <path d="M 31.78125 66.40625 
Q 24.171875 66.40625 20.328125 58.90625 
Q 16.5 51.421875 16.5 36.375 
Q 16.5 21.390625 20.328125 13.890625 
Q 24.171875 6.390625 31.78125 6.390625 
Q 39.453125 6.390625 43.28125 13.890625 
Q 47.125 21.390625 47.125 36.375 
Q 47.125 51.421875 43.28125 58.90625 
Q 39.453125 66.40625 31.78125 66.40625 
z
M 31.78125 74.21875 
Q 44.046875 74.21875 50.515625 64.515625 
Q 56.984375 54.828125 56.984375 36.375 
Q 56.984375 17.96875 50.515625 8.265625 
Q 44.046875 -1.421875 31.78125 -1.421875 
Q 19.53125 -1.421875 13.0625 8.265625 
Q 6.59375 17.96875 6.59375 36.375 
Q 6.59375 54.828125 13.0625 64.515625 
Q 19.53125 74.21875 31.78125 74.21875 
z
" id="DejaVuSans-30"/>
      </defs>
      <g transform="translate(70.400972 322.182437)scale(0.1 -0.1)">
       <use xlink:href="#DejaVuSans-30"/>
      </g>
     </g>
    </g>
    <g id="xtick_2">
     <g id="line2d_3">
      <path clip-path="url(#pda9f4b94e9)" d="M 123.683232 307.584 
L 123.683232 41.472 
" style="fill:none;stroke:#b0b0b0;stroke-linecap:square;stroke-width:0.8;"/>
     </g>
     <g id="line2d_4">
      <g>
       <use style="stroke:#000000;stroke-width:0.8;" x="123.683232" xlink:href="#m4ed5d2f7d2" y="307.584"/>
      </g>
     </g>
     <g id="text_2">
      <!-- 200 -->
      <defs>
       <path d="M 19.1875 8.296875 
L 53.609375 8.296875 
L 53.609375 0 
L 7.328125 0 
L 7.328125 8.296875 
Q 12.9375 14.109375 22.625 23.890625 
Q 32.328125 33.6875 34.8125 36.53125 
Q 39.546875 41.84375 41.421875 45.53125 
Q 43.3125 49.21875 43.3125 52.78125 
Q 43.3125 58.59375 39.234375 62.25 
Q 35.15625 65.921875 28.609375 65.921875 
Q 23.96875 65.921875 18.8125 64.3125 
Q 13.671875 62.703125 7.8125 59.421875 
L 7.8125 69.390625 
Q 13.765625 71.78125 18.9375 73 
Q 24.125 74.21875 28.421875 74.21875 
Q 39.75 74.21875 46.484375 68.546875 
Q 53.21875 62.890625 53.21875 53.421875 
Q 53.21875 48.921875 51.53125 44.890625 
Q 49.859375 40.875 45.40625 35.40625 
Q 44.1875 33.984375 37.640625 27.21875 
Q 31.109375 20.453125 19.1875 8.296875 
z
" id="DejaVuSans-32"/>
      </defs>
      <g transform="translate(114.139482 322.182437)scale(0.1 -0.1)">
       <use xlink:href="#DejaVuSans-32"/>
       <use x="63.623047" xlink:href="#DejaVuSans-30"/>
       <use x="127.246094" xlink:href="#DejaVuSans-30"/>
      </g>
     </g>
    </g>
    <g id="xtick_3">
     <g id="line2d_5">
      <path clip-path="url(#pda9f4b94e9)" d="M 173.784242 307.584 
L 173.784242 41.472 
" style="fill:none;stroke:#b0b0b0;stroke-linecap:square;stroke-width:0.8;"/>
     </g>
     <g id="line2d_6">
      <g>
       <use style="stroke:#000000;stroke-width:0.8;" x="173.784242" xlink:href="#m4ed5d2f7d2" y="307.584"/>
      </g>
     </g>
     <g id="text_3">
      <!-- 400 -->
      <defs>
       <path d="M 37.796875 64.3125 
L 12.890625 25.390625 
L 37.796875 25.390625 
z
M 35.203125 72.90625 
L 47.609375 72.90625 
L 47.609375 25.390625 
L 58.015625 25.390625 
L 58.015625 17.1875 
L 47.609375 17.1875 
L 47.609375 0 
L 37.796875 0 
L 37.796875 17.1875 
L 4.890625 17.1875 
L 4.890625 26.703125 
z
" id="DejaVuSans-34"/>
      </defs>
      <g transform="translate(164.240492 322.182437)scale(0.1 -0.1)">
       <use xlink:href="#DejaVuSans-34"/>
       <use x="63.623047" xlink:href="#DejaVuSans-30"/>
       <use x="127.246094" xlink:href="#DejaVuSans-30"/>
      </g>
     </g>
    </g>
    <g id="xtick_4">
     <g id="line2d_7">
      <path clip-path="url(#pda9f4b94e9)" d="M 223.885253 307.584 
L 223.885253 41.472 
" style="fill:none;stroke:#b0b0b0;stroke-linecap:square;stroke-width:0.8;"/>
     </g>
     <g id="line2d_8">
      <g>
       <use style="stroke:#000000;stroke-width:0.8;" x="223.885253" xlink:href="#m4ed5d2f7d2" y="307.584"/>
      </g>
     </g>
     <g id="text_4">
      <!-- 600 -->
      <defs>
       <path d="M 33.015625 40.375 
Q 26.375 40.375 22.484375 35.828125 
Q 18.609375 31.296875 18.609375 23.390625 
Q 18.609375 15.53125 22.484375 10.953125 
Q 26.375 6.390625 33.015625 6.390625 
Q 39.65625 6.390625 43.53125 10.953125 
Q 47.40625 15.53125 47.40625 23.390625 
Q 47.40625 31.296875 43.53125 35.828125 
Q 39.65625 40.375 33.015625 40.375 
z
M 52.59375 71.296875 
L 52.59375 62.3125 
Q 48.875 64.0625 45.09375 64.984375 
Q 41.3125 65.921875 37.59375 65.921875 
Q 27.828125 65.921875 22.671875 59.328125 
Q 17.53125 52.734375 16.796875 39.40625 
Q 19.671875 43.65625 24.015625 45.921875 
Q 28.375 48.1875 33.59375 48.1875 
Q 44.578125 48.1875 50.953125 41.515625 
Q 57.328125 34.859375 57.328125 23.390625 
Q 57.328125 12.15625 50.6875 5.359375 
Q 44.046875 -1.421875 33.015625 -1.421875 
Q 20.359375 -1.421875 13.671875 8.265625 
Q 6.984375 17.96875 6.984375 36.375 
Q 6.984375 53.65625 15.1875 63.9375 
Q 23.390625 74.21875 37.203125 74.21875 
Q 40.921875 74.21875 44.703125 73.484375 
Q 48.484375 72.75 52.59375 71.296875 
z
" id="DejaVuSans-36"/>
      </defs>
      <g transform="translate(214.341503 322.182437)scale(0.1 -0.1)">
       <use xlink:href="#DejaVuSans-36"/>
       <use x="63.623047" xlink:href="#DejaVuSans-30"/>
       <use x="127.246094" xlink:href="#DejaVuSans-30"/>
      </g>
     </g>
    </g>
    <g id="xtick_5">
     <g id="line2d_9">
      <path clip-path="url(#pda9f4b94e9)" d="M 273.986263 307.584 
L 273.986263 41.472 
" style="fill:none;stroke:#b0b0b0;stroke-linecap:square;stroke-width:0.8;"/>
     </g>
     <g id="line2d_10">
      <g>
       <use style="stroke:#000000;stroke-width:0.8;" x="273.986263" xlink:href="#m4ed5d2f7d2" y="307.584"/>
      </g>
     </g>
     <g id="text_5">
      <!-- 800 -->
      <defs>
       <path d="M 31.78125 34.625 
Q 24.75 34.625 20.71875 30.859375 
Q 16.703125 27.09375 16.703125 20.515625 
Q 16.703125 13.921875 20.71875 10.15625 
Q 24.75 6.390625 31.78125 6.390625 
Q 38.8125 6.390625 42.859375 10.171875 
Q 46.921875 13.96875 46.921875 20.515625 
Q 46.921875 27.09375 42.890625 30.859375 
Q 38.875 34.625 31.78125 34.625 
z
M 21.921875 38.8125 
Q 15.578125 40.375 12.03125 44.71875 
Q 8.5 49.078125 8.5 55.328125 
Q 8.5 64.0625 14.71875 69.140625 
Q 20.953125 74.21875 31.78125 74.21875 
Q 42.671875 74.21875 48.875 69.140625 
Q 55.078125 64.0625 55.078125 55.328125 
Q 55.078125 49.078125 51.53125 44.71875 
Q 48 40.375 41.703125 38.8125 
Q 48.828125 37.15625 52.796875 32.3125 
Q 56.78125 27.484375 56.78125 20.515625 
Q 56.78125 9.90625 50.3125 4.234375 
Q 43.84375 -1.421875 31.78125 -1.421875 
Q 19.734375 -1.421875 13.25 4.234375 
Q 6.78125 9.90625 6.78125 20.515625 
Q 6.78125 27.484375 10.78125 32.3125 
Q 14.796875 37.15625 21.921875 38.8125 
z
M 18.3125 54.390625 
Q 18.3125 48.734375 21.84375 45.5625 
Q 25.390625 42.390625 31.78125 42.390625 
Q 38.140625 42.390625 41.71875 45.5625 
Q 45.3125 48.734375 45.3125 54.390625 
Q 45.3125 60.0625 41.71875 63.234375 
Q 38.140625 66.40625 31.78125 66.40625 
Q 25.390625 66.40625 21.84375 63.234375 
Q 18.3125 60.0625 18.3125 54.390625 
z
" id="DejaVuSans-38"/>
      </defs>
      <g transform="translate(264.442513 322.182437)scale(0.1 -0.1)">
       <use xlink:href="#DejaVuSans-38"/>
       <use x="63.623047" xlink:href="#DejaVuSans-30"/>
       <use x="127.246094" xlink:href="#DejaVuSans-30"/>
      </g>
     </g>
    </g>
    <g id="xtick_6">
     <g id="line2d_11">
      <path clip-path="url(#pda9f4b94e9)" d="M 324.087273 307.584 
L 324.087273 41.472 
" style="fill:none;stroke:#b0b0b0;stroke-linecap:square;stroke-width:0.8;"/>
     </g>
     <g id="line2d_12">
      <g>
       <use style="stroke:#000000;stroke-width:0.8;" x="324.087273" xlink:href="#m4ed5d2f7d2" y="307.584"/>
      </g>
     </g>
     <g id="text_6">
      <!-- 1000 -->
      <defs>
       <path d="M 12.40625 8.296875 
L 28.515625 8.296875 
L 28.515625 63.921875 
L 10.984375 60.40625 
L 10.984375 69.390625 
L 28.421875 72.90625 
L 38.28125 72.90625 
L 38.28125 8.296875 
L 54.390625 8.296875 
L 54.390625 0 
L 12.40625 0 
z
" id="DejaVuSans-31"/>
      </defs>
      <g transform="translate(311.362273 322.182437)scale(0.1 -0.1)">
       <use xlink:href="#DejaVuSans-31"/>
       <use x="63.623047" xlink:href="#DejaVuSans-30"/>
       <use x="127.246094" xlink:href="#DejaVuSans-30"/>
       <use x="190.869141" xlink:href="#DejaVuSans-30"/>
      </g>
     </g>
    </g>
    <g id="xtick_7">
     <g id="line2d_13">
      <path clip-path="url(#pda9f4b94e9)" d="M 374.188283 307.584 
L 374.188283 41.472 
" style="fill:none;stroke:#b0b0b0;stroke-linecap:square;stroke-width:0.8;"/>
     </g>
     <g id="line2d_14">
      <g>
       <use style="stroke:#000000;stroke-width:0.8;" x="374.188283" xlink:href="#m4ed5d2f7d2" y="307.584"/>
      </g>
     </g>
     <g id="text_7">
      <!-- 1200 -->
      <g transform="translate(361.463283 322.182437)scale(0.1 -0.1)">
       <use xlink:href="#DejaVuSans-31"/>
       <use x="63.623047" xlink:href="#DejaVuSans-32"/>
       <use x="127.246094" xlink:href="#DejaVuSans-30"/>
       <use x="190.869141" xlink:href="#DejaVuSans-30"/>
      </g>
     </g>
    </g>
    <g id="text_8">
     <!-- epochs -->
     <defs>
      <path d="M 56.203125 29.59375 
L 56.203125 25.203125 
L 14.890625 25.203125 
Q 15.484375 15.921875 20.484375 11.0625 
Q 25.484375 6.203125 34.421875 6.203125 
Q 39.59375 6.203125 44.453125 7.46875 
Q 49.3125 8.734375 54.109375 11.28125 
L 54.109375 2.78125 
Q 49.265625 0.734375 44.1875 -0.34375 
Q 39.109375 -1.421875 33.890625 -1.421875 
Q 20.796875 -1.421875 13.15625 6.1875 
Q 5.515625 13.8125 5.515625 26.8125 
Q 5.515625 40.234375 12.765625 48.109375 
Q 20.015625 56 32.328125 56 
Q 43.359375 56 49.78125 48.890625 
Q 56.203125 41.796875 56.203125 29.59375 
z
M 47.21875 32.234375 
Q 47.125 39.59375 43.09375 43.984375 
Q 39.0625 48.390625 32.421875 48.390625 
Q 24.90625 48.390625 20.390625 44.140625 
Q 15.875 39.890625 15.1875 32.171875 
z
" id="DejaVuSans-65"/>
      <path d="M 18.109375 8.203125 
L 18.109375 -20.796875 
L 9.078125 -20.796875 
L 9.078125 54.6875 
L 18.109375 54.6875 
L 18.109375 46.390625 
Q 20.953125 51.265625 25.265625 53.625 
Q 29.59375 56 35.59375 56 
Q 45.5625 56 51.78125 48.09375 
Q 58.015625 40.1875 58.015625 27.296875 
Q 58.015625 14.40625 51.78125 6.484375 
Q 45.5625 -1.421875 35.59375 -1.421875 
Q 29.59375 -1.421875 25.265625 0.953125 
Q 20.953125 3.328125 18.109375 8.203125 
z
M 48.6875 27.296875 
Q 48.6875 37.203125 44.609375 42.84375 
Q 40.53125 48.484375 33.40625 48.484375 
Q 26.265625 48.484375 22.1875 42.84375 
Q 18.109375 37.203125 18.109375 27.296875 
Q 18.109375 17.390625 22.1875 11.75 
Q 26.265625 6.109375 33.40625 6.109375 
Q 40.53125 6.109375 44.609375 11.75 
Q 48.6875 17.390625 48.6875 27.296875 
z
" id="DejaVuSans-70"/>
      <path d="M 30.609375 48.390625 
Q 23.390625 48.390625 19.1875 42.75 
Q 14.984375 37.109375 14.984375 27.296875 
Q 14.984375 17.484375 19.15625 11.84375 
Q 23.34375 6.203125 30.609375 6.203125 
Q 37.796875 6.203125 41.984375 11.859375 
Q 46.1875 17.53125 46.1875 27.296875 
Q 46.1875 37.015625 41.984375 42.703125 
Q 37.796875 48.390625 30.609375 48.390625 
z
M 30.609375 56 
Q 42.328125 56 49.015625 48.375 
Q 55.71875 40.765625 55.71875 27.296875 
Q 55.71875 13.875 49.015625 6.21875 
Q 42.328125 -1.421875 30.609375 -1.421875 
Q 18.84375 -1.421875 12.171875 6.21875 
Q 5.515625 13.875 5.515625 27.296875 
Q 5.515625 40.765625 12.171875 48.375 
Q 18.84375 56 30.609375 56 
z
" id="DejaVuSans-6f"/>
      <path d="M 48.78125 52.59375 
L 48.78125 44.1875 
Q 44.96875 46.296875 41.140625 47.34375 
Q 37.3125 48.390625 33.40625 48.390625 
Q 24.65625 48.390625 19.8125 42.84375 
Q 14.984375 37.3125 14.984375 27.296875 
Q 14.984375 17.28125 19.8125 11.734375 
Q 24.65625 6.203125 33.40625 6.203125 
Q 37.3125 6.203125 41.140625 7.25 
Q 44.96875 8.296875 48.78125 10.40625 
L 48.78125 2.09375 
Q 45.015625 0.34375 40.984375 -0.53125 
Q 36.96875 -1.421875 32.421875 -1.421875 
Q 20.0625 -1.421875 12.78125 6.34375 
Q 5.515625 14.109375 5.515625 27.296875 
Q 5.515625 40.671875 12.859375 48.328125 
Q 20.21875 56 33.015625 56 
Q 37.15625 56 41.109375 55.140625 
Q 45.0625 54.296875 48.78125 52.59375 
z
" id="DejaVuSans-63"/>
      <path d="M 54.890625 33.015625 
L 54.890625 0 
L 45.90625 0 
L 45.90625 32.71875 
Q 45.90625 40.484375 42.875 44.328125 
Q 39.84375 48.1875 33.796875 48.1875 
Q 26.515625 48.1875 22.3125 43.546875 
Q 18.109375 38.921875 18.109375 30.90625 
L 18.109375 0 
L 9.078125 0 
L 9.078125 75.984375 
L 18.109375 75.984375 
L 18.109375 46.1875 
Q 21.34375 51.125 25.703125 53.5625 
Q 30.078125 56 35.796875 56 
Q 45.21875 56 50.046875 50.171875 
Q 54.890625 44.34375 54.890625 33.015625 
z
" id="DejaVuSans-68"/>
      <path d="M 44.28125 53.078125 
L 44.28125 44.578125 
Q 40.484375 46.53125 36.375 47.5 
Q 32.28125 48.484375 27.875 48.484375 
Q 21.1875 48.484375 17.84375 46.4375 
Q 14.5 44.390625 14.5 40.28125 
Q 14.5 37.15625 16.890625 35.375 
Q 19.28125 33.59375 26.515625 31.984375 
L 29.59375 31.296875 
Q 39.15625 29.25 43.1875 25.515625 
Q 47.21875 21.78125 47.21875 15.09375 
Q 47.21875 7.46875 41.1875 3.015625 
Q 35.15625 -1.421875 24.609375 -1.421875 
Q 20.21875 -1.421875 15.453125 -0.5625 
Q 10.6875 0.296875 5.421875 2 
L 5.421875 11.28125 
Q 10.40625 8.6875 15.234375 7.390625 
Q 20.0625 6.109375 24.8125 6.109375 
Q 31.15625 6.109375 34.5625 8.28125 
Q 37.984375 10.453125 37.984375 14.40625 
Q 37.984375 18.0625 35.515625 20.015625 
Q 33.0625 21.96875 24.703125 23.78125 
L 21.578125 24.515625 
Q 13.234375 26.265625 9.515625 29.90625 
Q 5.8125 33.546875 5.8125 39.890625 
Q 5.8125 47.609375 11.28125 51.796875 
Q 16.75 56 26.8125 56 
Q 31.78125 56 36.171875 55.265625 
Q 40.578125 54.546875 44.28125 53.078125 
z
" id="DejaVuSans-73"/>
     </defs>
     <g transform="translate(218.327188 335.860562)scale(0.1 -0.1)">
      <use xlink:href="#DejaVuSans-65"/>
      <use x="61.523438" xlink:href="#DejaVuSans-70"/>
      <use x="125" xlink:href="#DejaVuSans-6f"/>
      <use x="186.181641" xlink:href="#DejaVuSans-63"/>
      <use x="241.162109" xlink:href="#DejaVuSans-68"/>
      <use x="304.541016" xlink:href="#DejaVuSans-73"/>
     </g>
    </g>
   </g>
   <g id="matplotlib.axis_2">
    <g id="ytick_1">
     <g id="line2d_15">
      <path clip-path="url(#pda9f4b94e9)" d="M 57.6 167.990386 
L 414.72 167.990386 
" style="fill:none;stroke:#b0b0b0;stroke-linecap:square;stroke-width:0.8;"/>
     </g>
     <g id="line2d_16">
      <defs>
       <path d="M 0 0 
L -3.5 0 
" id="m57a52bd5ba" style="stroke:#000000;stroke-width:0.8;"/>
      </defs>
      <g>
       <use style="stroke:#000000;stroke-width:0.8;" x="57.6" xlink:href="#m57a52bd5ba" y="167.990386"/>
      </g>
     </g>
     <g id="text_9">
      <!-- $\mathdefault{10^{0}}$ -->
      <g transform="translate(33 171.789604)scale(0.1 -0.1)">
       <use transform="translate(0 0.765625)" xlink:href="#DejaVuSans-31"/>
       <use transform="translate(63.623047 0.765625)" xlink:href="#DejaVuSans-30"/>
       <use transform="translate(128.203125 39.046875)scale(0.7)" xlink:href="#DejaVuSans-30"/>
      </g>
     </g>
    </g>
    <g id="ytick_2">
     <g id="line2d_17">
      <path clip-path="url(#pda9f4b94e9)" d="M 57.6 300.018231 
L 414.72 300.018231 
" style="fill:none;stroke:#b0b0b0;stroke-linecap:square;stroke-width:0.8;"/>
     </g>
     <g id="line2d_18">
      <defs>
       <path d="M 0 0 
L -2 0 
" id="ma6f7c2c0a5" style="stroke:#000000;stroke-width:0.6;"/>
      </defs>
      <g>
       <use style="stroke:#000000;stroke-width:0.6;" x="57.6" xlink:href="#ma6f7c2c0a5" y="300.018231"/>
      </g>
     </g>
    </g>
    <g id="ytick_3">
     <g id="line2d_19">
      <path clip-path="url(#pda9f4b94e9)" d="M 57.6 268.47097 
L 414.72 268.47097 
" style="fill:none;stroke:#b0b0b0;stroke-linecap:square;stroke-width:0.8;"/>
     </g>
     <g id="line2d_20">
      <g>
       <use style="stroke:#000000;stroke-width:0.6;" x="57.6" xlink:href="#ma6f7c2c0a5" y="268.47097"/>
      </g>
     </g>
    </g>
    <g id="ytick_4">
     <g id="line2d_21">
      <path clip-path="url(#pda9f4b94e9)" d="M 57.6 244.001013 
L 414.72 244.001013 
" style="fill:none;stroke:#b0b0b0;stroke-linecap:square;stroke-width:0.8;"/>
     </g>
     <g id="line2d_22">
      <g>
       <use style="stroke:#000000;stroke-width:0.6;" x="57.6" xlink:href="#ma6f7c2c0a5" y="244.001013"/>
      </g>
     </g>
    </g>
    <g id="ytick_5">
     <g id="line2d_23">
      <path clip-path="url(#pda9f4b94e9)" d="M 57.6 224.007603 
L 414.72 224.007603 
" style="fill:none;stroke:#b0b0b0;stroke-linecap:square;stroke-width:0.8;"/>
     </g>
     <g id="line2d_24">
      <g>
       <use style="stroke:#000000;stroke-width:0.6;" x="57.6" xlink:href="#ma6f7c2c0a5" y="224.007603"/>
      </g>
     </g>
    </g>
    <g id="ytick_6">
     <g id="line2d_25">
      <path clip-path="url(#pda9f4b94e9)" d="M 57.6 207.103416 
L 414.72 207.103416 
" style="fill:none;stroke:#b0b0b0;stroke-linecap:square;stroke-width:0.8;"/>
     </g>
     <g id="line2d_26">
      <g>
       <use style="stroke:#000000;stroke-width:0.6;" x="57.6" xlink:href="#ma6f7c2c0a5" y="207.103416"/>
      </g>
     </g>
    </g>
    <g id="ytick_7">
     <g id="line2d_27">
      <path clip-path="url(#pda9f4b94e9)" d="M 57.6 192.460342 
L 414.72 192.460342 
" style="fill:none;stroke:#b0b0b0;stroke-linecap:square;stroke-width:0.8;"/>
     </g>
     <g id="line2d_28">
      <g>
       <use style="stroke:#000000;stroke-width:0.6;" x="57.6" xlink:href="#ma6f7c2c0a5" y="192.460342"/>
      </g>
     </g>
    </g>
    <g id="ytick_8">
     <g id="line2d_29">
      <path clip-path="url(#pda9f4b94e9)" d="M 57.6 179.544236 
L 414.72 179.544236 
" style="fill:none;stroke:#b0b0b0;stroke-linecap:square;stroke-width:0.8;"/>
     </g>
     <g id="line2d_30">
      <g>
       <use style="stroke:#000000;stroke-width:0.6;" x="57.6" xlink:href="#ma6f7c2c0a5" y="179.544236"/>
      </g>
     </g>
    </g>
    <g id="ytick_9">
     <g id="line2d_31">
      <path clip-path="url(#pda9f4b94e9)" d="M 57.6 91.979758 
L 414.72 91.979758 
" style="fill:none;stroke:#b0b0b0;stroke-linecap:square;stroke-width:0.8;"/>
     </g>
     <g id="line2d_32">
      <g>
       <use style="stroke:#000000;stroke-width:0.6;" x="57.6" xlink:href="#ma6f7c2c0a5" y="91.979758"/>
      </g>
     </g>
    </g>
    <g id="ytick_10">
     <g id="line2d_33">
      <path clip-path="url(#pda9f4b94e9)" d="M 57.6 47.516391 
L 414.72 47.516391 
" style="fill:none;stroke:#b0b0b0;stroke-linecap:square;stroke-width:0.8;"/>
     </g>
     <g id="line2d_34">
      <g>
       <use style="stroke:#000000;stroke-width:0.6;" x="57.6" xlink:href="#ma6f7c2c0a5" y="47.516391"/>
      </g>
     </g>
    </g>
    <g id="text_10">
     <!-- test loss -->
     <defs>
      <path d="M 18.3125 70.21875 
L 18.3125 54.6875 
L 36.8125 54.6875 
L 36.8125 47.703125 
L 18.3125 47.703125 
L 18.3125 18.015625 
Q 18.3125 11.328125 20.140625 9.421875 
Q 21.96875 7.515625 27.59375 7.515625 
L 36.8125 7.515625 
L 36.8125 0 
L 27.59375 0 
Q 17.1875 0 13.234375 3.875 
Q 9.28125 7.765625 9.28125 18.015625 
L 9.28125 47.703125 
L 2.6875 47.703125 
L 2.6875 54.6875 
L 9.28125 54.6875 
L 9.28125 70.21875 
z
" id="DejaVuSans-74"/>
      <path id="DejaVuSans-20"/>
      <path d="M 9.421875 75.984375 
L 18.40625 75.984375 
L 18.40625 0 
L 9.421875 0 
z
" id="DejaVuSans-6c"/>
     </defs>
     <g transform="translate(26.920312 195.376438)rotate(-90)scale(0.1 -0.1)">
      <use xlink:href="#DejaVuSans-74"/>
      <use x="39.208984" xlink:href="#DejaVuSans-65"/>
      <use x="100.732422" xlink:href="#DejaVuSans-73"/>
      <use x="152.832031" xlink:href="#DejaVuSans-74"/>
      <use x="192.041016" xlink:href="#DejaVuSans-20"/>
      <use x="223.828125" xlink:href="#DejaVuSans-6c"/>
      <use x="251.611328" xlink:href="#DejaVuSans-6f"/>
      <use x="312.792969" xlink:href="#DejaVuSans-73"/>
      <use x="364.892578" xlink:href="#DejaVuSans-73"/>
     </g>
    </g>
   </g>
   <g id="line2d_35">
    <path clip-path="url(#pda9f4b94e9)" d="M 73.832727 198.167811 
L 74.083232 236.264028 
L 74.333737 239.80515 
L 75.085253 242.970946 
L 75.836768 243.311556 
L 76.087273 243.1982 
L 76.337778 243.488535 
L 76.588283 243.16273 
L 76.838788 243.800692 
L 77.089293 243.319855 
L 77.339798 243.762498 
L 77.590303 243.289321 
L 78.091313 243.469901 
L 78.341818 243.595009 
L 78.592323 243.535527 
L 78.842828 242.717042 
L 79.093333 242.772286 
L 79.594343 243.524967 
L 79.844848 243.849284 
L 80.095354 243.81631 
L 80.345859 243.398656 
L 80.596364 241.570487 
L 80.846869 242.89517 
L 81.097374 243.490616 
L 81.347879 243.115628 
L 81.598384 242.333532 
L 81.848889 243.276191 
L 82.099394 243.010003 
L 82.349899 243.454591 
L 82.600404 243.320304 
L 82.850909 243.693542 
L 83.101414 241.891457 
L 83.351919 243.570211 
L 83.852929 243.299301 
L 84.103434 243.52881 
L 84.353939 242.74849 
L 84.604444 243.188819 
L 84.854949 242.711684 
L 85.105455 243.661531 
L 85.606465 243.032527 
L 85.85697 243.483231 
L 86.107475 242.58342 
L 86.35798 243.645012 
L 86.608485 243.846721 
L 86.85899 242.773776 
L 87.109495 242.941082 
L 87.36 242.692012 
L 87.86101 242.961726 
L 88.111515 242.78863 
L 88.36202 243.670269 
L 88.86303 242.986959 
L 89.113535 243.631851 
L 89.36404 243.08469 
L 89.614545 243.648045 
L 89.865051 243.121803 
L 90.115556 243.884466 
L 90.366061 243.340998 
L 90.616566 243.199353 
L 90.867071 243.515757 
L 91.117576 243.548864 
L 91.368081 242.902368 
L 91.618586 243.470416 
L 91.869091 242.374591 
L 92.119596 243.553474 
L 92.370101 242.893063 
L 92.620606 243.566724 
L 92.871111 243.521628 
L 93.121616 243.651029 
L 93.372121 243.500338 
L 93.622626 243.511514 
L 93.873131 243.87699 
L 94.123636 243.85525 
L 94.374141 243.409971 
L 94.624646 243.251994 
L 94.875152 243.889766 
L 95.125657 242.971875 
L 95.376162 243.026173 
L 95.626667 243.416365 
L 95.877172 243.587759 
L 96.127677 243.298055 
L 96.879192 243.657683 
L 97.129697 243.653957 
L 97.380202 243.474184 
L 97.630707 243.788679 
L 97.881212 243.644528 
L 98.382222 242.249942 
L 98.632727 243.50902 
L 98.883232 243.650205 
L 99.384242 243.54843 
L 99.634747 243.882154 
L 99.885253 243.431225 
L 100.135758 243.78533 
L 100.887273 243.567351 
L 101.388283 242.455814 
L 101.638788 243.43337 
L 101.889293 243.838691 
L 102.139798 243.649785 
L 102.390303 243.882243 
L 102.640808 243.258225 
L 102.891313 243.705008 
L 103.141818 242.974905 
L 103.392323 242.829696 
L 103.893333 243.234479 
L 104.143838 242.593181 
L 104.394343 243.535859 
L 104.644848 243.41217 
L 104.895354 242.861949 
L 105.145859 243.203944 
L 105.396364 242.889503 
L 106.147879 243.73229 
L 106.398384 242.685027 
L 106.648889 243.204659 
L 106.899394 242.917804 
L 107.149899 243.618679 
L 107.400404 243.239436 
L 107.650909 243.864482 
L 107.901414 243.781601 
L 108.151919 243.564944 
L 108.402424 242.648362 
L 108.652929 243.470023 
L 108.903434 243.380985 
L 109.153939 242.961347 
L 109.404444 243.404943 
L 109.654949 242.92636 
L 109.905455 243.758973 
L 110.15596 243.514385 
L 110.65697 243.708552 
L 110.907475 242.851358 
L 111.15798 243.490015 
L 111.408485 243.744624 
L 111.909495 242.992368 
L 112.16 242.884894 
L 112.410505 243.200238 
L 112.66101 243.328877 
L 112.911515 243.866511 
L 113.16202 243.70163 
L 113.66303 243.081125 
L 113.913535 243.25785 
L 114.16404 243.10786 
L 114.414545 243.248704 
L 114.665051 242.839671 
L 114.915556 243.844624 
L 115.166061 243.526759 
L 115.416566 243.659934 
L 115.667071 243.577967 
L 116.168081 243.83622 
L 116.418586 243.088545 
L 116.669091 242.807476 
L 116.919596 243.509719 
L 117.170101 242.553449 
L 117.420606 243.669482 
L 117.671111 243.70268 
L 117.921616 243.585968 
L 118.172121 243.339696 
L 118.422626 243.53093 
L 118.673131 243.25695 
L 118.923636 243.829073 
L 119.174141 242.719741 
L 119.424646 243.465162 
L 119.675152 242.390512 
L 119.925657 243.837875 
L 120.176162 243.443622 
L 120.426667 243.680312 
L 120.677172 243.539246 
L 120.927677 243.557109 
L 121.178182 243.852249 
L 121.929697 243.511701 
L 122.180202 243.657006 
L 122.430707 243.485183 
L 122.681212 243.50131 
L 122.931717 243.859403 
L 123.182222 243.545067 
L 123.432727 242.515776 
L 123.683232 243.487945 
L 123.933737 241.589635 
L 124.184242 243.181294 
L 124.434747 243.713988 
L 124.685253 242.778801 
L 124.935758 242.783782 
L 125.186263 243.730804 
L 125.436768 243.139466 
L 125.687273 243.533854 
L 125.937778 242.850403 
L 126.188283 243.580101 
L 126.438788 243.671429 
L 126.939798 243.447251 
L 127.190303 243.835324 
L 127.691313 243.377786 
L 127.941818 243.456739 
L 128.192323 243.395606 
L 128.693333 243.729273 
L 129.444848 243.301923 
L 129.695354 243.656794 
L 129.945859 243.255287 
L 130.196364 243.816343 
L 130.446869 242.670445 
L 130.697374 243.545016 
L 130.947879 243.256299 
L 131.198384 243.394264 
L 131.448889 243.358905 
L 131.699394 242.971842 
L 131.949899 243.709177 
L 132.200404 243.2388 
L 132.450909 243.432559 
L 132.701414 243.095909 
L 132.951919 243.227597 
L 133.202424 243.701606 
L 133.703434 243.691873 
L 133.953939 242.713295 
L 134.204444 243.5728 
L 134.454949 243.547186 
L 134.705455 243.671397 
L 134.95596 243.041738 
L 135.206465 243.099014 
L 135.45697 242.844906 
L 135.707475 243.524971 
L 135.95798 243.549612 
L 136.208485 243.461386 
L 136.45899 243.733775 
L 137.46101 243.395906 
L 137.96202 243.547983 
L 138.46303 243.445489 
L 138.713535 243.777892 
L 138.96404 243.271316 
L 139.214545 243.192571 
L 139.465051 243.754505 
L 139.715556 243.359824 
L 139.966061 243.628713 
L 140.467071 243.244073 
L 140.717576 242.325915 
L 140.968081 243.683713 
L 141.218586 243.529279 
L 141.469091 243.721652 
L 141.719596 242.52336 
L 141.970101 243.599214 
L 142.220606 243.572559 
L 142.471111 243.252955 
L 142.721616 243.680347 
L 142.972121 243.32104 
L 143.222626 243.174443 
L 143.473131 243.639219 
L 143.723636 243.386036 
L 143.974141 243.634946 
L 144.224646 243.432099 
L 144.475152 243.746886 
L 144.725657 243.675754 
L 144.976162 243.111504 
L 145.477172 243.852946 
L 145.727677 243.614759 
L 145.978182 243.623 
L 146.228687 243.285157 
L 146.729697 243.522418 
L 146.980202 243.237909 
L 147.230707 242.346253 
L 147.481212 243.531051 
L 147.731717 243.159109 
L 148.232727 243.84037 
L 148.733737 243.272984 
L 148.984242 242.521531 
L 149.234747 243.689833 
L 149.485253 243.668097 
L 149.986263 243.047189 
L 150.236768 243.696764 
L 150.737778 242.054672 
L 150.988283 243.545342 
L 151.489293 242.993077 
L 151.739798 243.721441 
L 151.990303 242.77585 
L 152.240808 243.54833 
L 152.992323 242.927201 
L 153.242828 243.397221 
L 153.743838 243.69644 
L 154.244848 243.374926 
L 154.996364 243.767056 
L 155.246869 243.106278 
L 155.497374 243.783025 
L 155.747879 243.481027 
L 155.998384 243.628712 
L 156.248889 242.91921 
L 156.499394 243.309755 
L 157.000404 243.556642 
L 157.250909 243.811221 
L 157.501414 243.41043 
L 157.751919 243.240518 
L 158.002424 242.805257 
L 158.252929 243.316079 
L 158.503434 243.380544 
L 158.753939 243.70238 
L 159.004444 243.349833 
L 159.505455 243.612163 
L 159.75596 243.195789 
L 160.006465 243.450714 
L 160.25697 243.16808 
L 160.507475 243.712726 
L 160.75798 243.539199 
L 161.008485 243.504719 
L 161.509495 242.794605 
L 161.76 243.767363 
L 162.26101 242.721679 
L 162.511515 243.828026 
L 162.76202 243.332254 
L 163.012525 243.850982 
L 163.26303 243.448706 
L 163.513535 243.282507 
L 163.76404 243.508796 
L 164.014545 243.921006 
L 164.515556 243.505078 
L 164.766061 243.740956 
L 165.016566 243.655941 
L 165.267071 243.925132 
L 165.517576 243.750166 
L 165.768081 243.867033 
L 166.018586 242.988605 
L 166.269091 243.667346 
L 166.519596 243.130804 
L 167.020606 243.892071 
L 167.271111 243.087283 
L 167.521616 243.498812 
L 167.772121 243.589542 
L 168.022626 243.543205 
L 168.273131 243.773698 
L 168.523636 243.819695 
L 168.774141 242.919813 
L 169.024646 243.472548 
L 169.525657 243.904944 
L 169.776162 243.545476 
L 170.026667 243.827468 
L 170.277172 243.668667 
L 170.527677 243.825373 
L 170.778182 243.42938 
L 171.279192 243.617707 
L 171.529697 243.55531 
L 171.780202 243.615325 
L 172.030707 243.453802 
L 172.281212 243.453569 
L 172.531717 243.920245 
L 172.782222 243.789556 
L 173.032727 243.019381 
L 173.283232 243.65109 
L 173.784242 243.680753 
L 174.034747 242.697382 
L 174.285253 243.376673 
L 174.535758 243.69777 
L 174.786263 243.690396 
L 175.036768 242.824575 
L 175.537778 243.54008 
L 175.788283 243.241906 
L 176.038788 243.14959 
L 176.289293 243.332236 
L 176.539798 243.739567 
L 176.790303 243.295477 
L 177.040808 243.436042 
L 177.291313 243.901717 
L 177.541818 243.812696 
L 177.792323 243.56557 
L 178.042828 243.160609 
L 178.293333 243.901339 
L 178.543838 243.372452 
L 178.794343 243.388919 
L 179.044848 243.623796 
L 179.295354 243.690463 
L 179.545859 243.400614 
L 179.796364 243.410223 
L 180.046869 243.785466 
L 180.297374 242.412991 
L 180.547879 243.826919 
L 180.798384 243.867186 
L 181.048889 243.480327 
L 182.050909 243.771699 
L 182.301414 243.196333 
L 182.551919 243.833345 
L 182.802424 242.86561 
L 183.052929 243.807258 
L 183.553939 243.599157 
L 183.804444 243.163153 
L 184.054949 243.890286 
L 184.305455 242.965731 
L 184.55596 243.11129 
L 184.806465 243.833175 
L 185.05697 243.799244 
L 185.307475 243.644114 
L 185.55798 243.725046 
L 185.808485 243.563928 
L 186.05899 243.804987 
L 186.309495 243.313869 
L 186.810505 243.893002 
L 187.06101 243.426996 
L 187.311515 243.603336 
L 187.56202 243.591939 
L 187.812525 243.233462 
L 188.06303 243.074759 
L 188.313535 243.790639 
L 188.56404 243.844614 
L 188.814545 243.59134 
L 189.315556 243.84613 
L 189.566061 243.091853 
L 190.317576 243.791666 
L 190.568081 243.562398 
L 190.818586 243.880699 
L 191.069091 242.71362 
L 191.319596 243.723066 
L 191.820606 243.641256 
L 192.071111 243.108868 
L 192.321616 243.64987 
L 192.572121 243.304127 
L 192.822626 243.69367 
L 193.073131 243.876757 
L 193.323636 243.771833 
L 193.574141 243.185454 
L 193.824646 243.797974 
L 194.325657 243.735602 
L 194.576162 242.919474 
L 194.826667 243.748979 
L 195.077172 243.701816 
L 195.327677 243.402067 
L 195.578182 243.701479 
L 195.828687 243.306015 
L 196.079192 243.756398 
L 196.329697 243.61046 
L 196.580202 243.29967 
L 196.830707 243.766758 
L 197.081212 243.830582 
L 197.331717 243.325257 
L 197.582222 243.760755 
L 197.832727 243.499154 
L 198.083232 243.458428 
L 198.333737 243.698742 
L 198.584242 243.532287 
L 198.834747 243.525463 
L 199.085253 243.84104 
L 199.335758 243.904264 
L 199.586263 243.559191 
L 200.087273 243.885436 
L 200.337778 243.511537 
L 200.838788 243.594837 
L 201.089293 243.96425 
L 201.339798 243.613847 
L 201.590303 243.71182 
L 201.840808 243.958819 
L 202.091313 242.967713 
L 202.341818 243.74072 
L 203.093333 243.637191 
L 204.095354 243.771893 
L 204.345859 242.980411 
L 204.596364 243.687929 
L 204.846869 243.548925 
L 205.598384 243.740499 
L 205.848889 243.948487 
L 206.600404 243.246336 
L 206.850909 243.28167 
L 207.351919 243.896251 
L 207.602424 243.586864 
L 207.852929 243.040601 
L 208.103434 243.942686 
L 208.353939 243.325434 
L 208.604444 243.841335 
L 208.854949 243.907328 
L 209.105455 243.76912 
L 209.35596 243.500205 
L 209.606465 243.645076 
L 209.85697 243.066297 
L 210.107475 243.621551 
L 210.35798 243.764798 
L 210.608485 243.359146 
L 210.85899 243.688802 
L 211.109495 243.648327 
L 211.36 243.847024 
L 211.610505 243.493353 
L 211.86101 243.854272 
L 212.36202 243.461334 
L 212.612525 243.591903 
L 212.86303 243.881187 
L 213.113535 243.832645 
L 213.36404 243.182952 
L 213.614545 243.81497 
L 213.865051 243.63546 
L 214.115556 243.921591 
L 214.366061 243.630366 
L 214.616566 243.908491 
L 214.867071 243.755254 
L 215.117576 242.854812 
L 215.368081 243.440045 
L 215.618586 243.735051 
L 215.869091 243.765175 
L 216.119596 243.471207 
L 216.370101 242.751992 
L 216.620606 243.457139 
L 217.121616 243.394468 
L 217.372121 243.836269 
L 217.622626 243.956771 
L 217.873131 243.297627 
L 218.123636 243.796046 
L 218.374141 243.952528 
L 218.624646 243.592959 
L 218.875152 243.741895 
L 219.125657 243.502596 
L 219.376162 243.836853 
L 219.626667 243.821128 
L 219.877172 243.577248 
L 220.127677 243.095093 
L 220.378182 243.541745 
L 220.628687 243.454774 
L 220.879192 243.907909 
L 221.129697 243.388159 
L 221.380202 243.349098 
L 221.630707 243.628096 
L 221.881212 243.445154 
L 222.131717 243.493247 
L 222.382222 243.37441 
L 222.632727 243.855813 
L 222.883232 243.362472 
L 223.133737 243.838159 
L 223.384242 242.791584 
L 223.634747 242.919123 
L 223.885253 243.455963 
L 224.135758 243.712914 
L 224.386263 243.465972 
L 224.636768 243.551186 
L 224.887273 243.756739 
L 225.137778 243.308768 
L 225.388283 243.806287 
L 226.139798 243.574553 
L 226.390303 243.871602 
L 226.640808 243.126973 
L 226.891313 243.90207 
L 227.141818 243.781505 
L 227.392323 243.2469 
L 227.642828 243.599027 
L 227.893333 243.667432 
L 228.143838 243.871725 
L 228.394343 243.394827 
L 228.895354 243.754234 
L 229.145859 243.711758 
L 229.396364 243.34147 
L 229.646869 243.425279 
L 229.897374 244.011878 
L 230.147879 243.368 
L 230.398384 243.811884 
L 230.648889 243.506251 
L 230.899394 242.744902 
L 231.149899 243.597268 
L 231.400404 243.842121 
L 231.650909 243.643623 
L 231.901414 243.252053 
L 232.151919 243.903711 
L 232.402424 243.350728 
L 232.652929 243.846155 
L 232.903434 243.777844 
L 233.404444 243.473492 
L 233.654949 242.61876 
L 233.905455 243.760656 
L 234.15596 243.692464 
L 234.406465 243.313622 
L 234.65697 243.195947 
L 234.907475 243.914955 
L 235.15798 242.704536 
L 235.408485 243.581575 
L 235.65899 243.659548 
L 236.16 243.196853 
L 236.410505 243.456001 
L 236.911515 243.573732 
L 237.412525 243.32254 
L 237.913535 243.904218 
L 238.16404 242.831488 
L 238.414545 243.696684 
L 238.665051 243.598074 
L 238.915556 243.359329 
L 239.166061 243.768832 
L 239.416566 243.942757 
L 239.667071 243.678979 
L 239.917576 243.021667 
L 240.168081 243.284299 
L 240.418586 243.356555 
L 240.669091 243.846877 
L 241.170101 243.1911 
L 241.420606 243.200296 
L 241.671111 243.89062 
L 241.921616 243.623663 
L 242.172121 243.555329 
L 242.422626 243.750523 
L 242.923636 243.425887 
L 243.424646 243.773578 
L 244.176162 243.761718 
L 244.426667 243.751187 
L 244.927677 243.316805 
L 245.178182 243.568622 
L 245.428687 243.381163 
L 245.679192 243.686097 
L 246.180202 243.788454 
L 246.430707 243.587669 
L 246.681212 243.840021 
L 246.931717 243.777047 
L 247.182222 243.877283 
L 247.432727 243.776428 
L 247.683232 243.455475 
L 247.933737 242.871032 
L 248.184242 243.634717 
L 248.434747 243.77279 
L 248.685253 243.411208 
L 248.935758 243.662798 
L 249.186263 243.667186 
L 249.436768 243.789773 
L 249.687273 243.703718 
L 249.937778 243.40105 
L 250.188283 243.595144 
L 250.438788 243.372944 
L 250.689293 243.716166 
L 250.939798 243.620998 
L 251.190303 243.193288 
L 251.440808 243.501196 
L 252.442828 243.644756 
L 252.693333 242.812457 
L 252.943838 242.98785 
L 253.444848 243.927108 
L 253.695354 243.721386 
L 253.945859 243.21726 
L 254.196364 243.82668 
L 254.446869 243.405114 
L 254.947879 243.110974 
L 255.198384 243.751551 
L 255.448889 243.768079 
L 255.699394 243.393761 
L 255.949899 243.372471 
L 256.200404 243.748656 
L 256.450909 243.876848 
L 256.701414 243.037151 
L 256.951919 243.919835 
L 257.703434 243.698744 
L 257.953939 243.612386 
L 258.204444 243.701498 
L 258.454949 243.434789 
L 258.705455 243.862601 
L 258.95596 243.075652 
L 259.206465 243.364329 
L 259.45697 243.475252 
L 259.707475 243.778664 
L 259.95798 243.742047 
L 260.208485 243.832604 
L 260.45899 243.183521 
L 260.709495 243.957358 
L 260.96 243.613457 
L 261.46101 243.835567 
L 261.711515 243.402463 
L 261.96202 243.230746 
L 262.212525 243.760212 
L 262.46303 243.941317 
L 262.713535 243.872706 
L 262.96404 243.540913 
L 263.214545 243.42923 
L 263.465051 243.768526 
L 263.715556 243.846342 
L 263.966061 243.330488 
L 264.216566 243.70148 
L 264.467071 243.834213 
L 264.717576 243.500098 
L 265.469091 243.818637 
L 265.719596 243.870559 
L 265.970101 243.786948 
L 266.220606 243.39681 
L 266.471111 243.356821 
L 266.721616 243.568035 
L 266.972121 243.062458 
L 267.222626 243.747578 
L 267.473131 243.412215 
L 267.723636 243.626841 
L 267.974141 243.632047 
L 268.224646 243.925702 
L 268.475152 243.857169 
L 268.976162 243.466549 
L 269.226667 243.903932 
L 269.477172 243.534256 
L 269.727677 243.73404 
L 269.978182 243.760544 
L 270.228687 243.347149 
L 270.479192 243.810403 
L 270.729697 242.610967 
L 270.980202 243.800574 
L 271.230707 243.971699 
L 271.481212 243.840969 
L 271.731717 243.487753 
L 271.982222 243.579587 
L 272.483232 243.967652 
L 272.733737 243.689375 
L 272.984242 243.612132 
L 273.234747 243.874129 
L 273.485253 243.034091 
L 273.986263 243.742756 
L 274.236768 243.721677 
L 274.487273 243.39231 
L 274.737778 243.719443 
L 274.988283 243.711807 
L 275.238788 242.726309 
L 275.489293 243.920657 
L 275.739798 243.229705 
L 275.990303 243.517396 
L 276.240808 243.547188 
L 276.491313 243.230259 
L 276.741818 243.830898 
L 276.992323 243.846391 
L 277.242828 243.993498 
L 277.493333 243.33704 
L 277.743838 243.663228 
L 277.994343 243.477036 
L 278.244848 243.896928 
L 278.495354 243.962765 
L 278.745859 243.858424 
L 278.996364 243.584442 
L 279.246869 243.089725 
L 279.497374 243.75905 
L 279.747879 243.415763 
L 279.998384 243.903433 
L 280.248889 243.541888 
L 280.749899 243.442878 
L 281.000404 243.871419 
L 281.250909 242.661114 
L 281.501414 243.455877 
L 282.002424 243.668551 
L 282.252929 243.510048 
L 282.503434 243.776087 
L 283.004444 243.845026 
L 283.75596 243.144159 
L 284.006465 243.457732 
L 284.507475 243.586842 
L 284.75798 243.062394 
L 285.008485 243.740236 
L 285.25899 243.466034 
L 285.509495 243.824197 
L 285.76 243.264764 
L 286.010505 243.830877 
L 286.26101 243.694955 
L 287.26303 243.969013 
L 287.513535 243.627853 
L 287.76404 243.862533 
L 288.014545 243.941239 
L 288.265051 243.460281 
L 288.515556 243.98987 
L 288.766061 243.5138 
L 289.016566 243.828505 
L 289.267071 243.80376 
L 289.517576 243.995943 
L 289.768081 243.316224 
L 290.018586 243.356334 
L 290.269091 243.811033 
L 290.770101 243.589703 
L 291.020606 243.798638 
L 291.271111 243.248491 
L 291.521616 243.800577 
L 291.772121 243.955395 
L 292.022626 243.603885 
L 292.273131 243.835228 
L 292.523636 243.697937 
L 292.774141 242.990723 
L 293.275152 243.919684 
L 293.776162 243.727051 
L 294.026667 243.924132 
L 294.277172 243.605846 
L 294.527677 243.925089 
L 294.778182 243.492564 
L 295.028687 243.867302 
L 295.279192 243.680541 
L 295.529697 243.793388 
L 295.780202 243.763046 
L 296.030707 243.848672 
L 296.281212 243.521184 
L 297.032727 243.991537 
L 297.533737 243.798999 
L 297.784242 243.932246 
L 298.034747 243.508888 
L 298.786263 243.980256 
L 299.036768 243.534905 
L 299.287273 243.469687 
L 299.537778 243.905249 
L 299.788283 243.642889 
L 300.038788 243.855559 
L 300.289293 243.491939 
L 300.539798 243.864345 
L 300.790303 243.893478 
L 301.040808 243.612344 
L 301.291313 243.90793 
L 301.541818 243.227752 
L 301.792323 243.68104 
L 302.042828 243.246549 
L 302.293333 243.955586 
L 303.044848 243.659857 
L 303.295354 243.388629 
L 303.545859 243.861103 
L 303.796364 243.934952 
L 304.046869 243.478727 
L 304.297374 243.605731 
L 304.547879 243.156205 
L 305.048889 243.660233 
L 305.299394 243.453925 
L 305.549899 243.565198 
L 305.800404 243.908958 
L 306.050909 243.821331 
L 306.551919 243.995606 
L 306.802424 243.81228 
L 307.052929 243.941316 
L 307.303434 243.236807 
L 307.804444 243.890819 
L 308.054949 243.984814 
L 308.55596 243.600375 
L 308.806465 243.461664 
L 309.808485 243.603011 
L 310.05899 243.817661 
L 310.309495 243.298742 
L 310.810505 243.736505 
L 311.06101 243.943364 
L 311.311515 243.785096 
L 311.56202 243.387056 
L 311.812525 243.437273 
L 312.313535 243.823506 
L 312.56404 243.10532 
L 313.065051 243.824248 
L 313.315556 243.721024 
L 313.566061 242.846671 
L 313.816566 243.94453 
L 314.067071 243.752319 
L 314.317576 243.808758 
L 314.568081 243.539915 
L 314.818586 243.653486 
L 315.069091 243.282032 
L 315.319596 243.954073 
L 315.570101 243.627261 
L 315.820606 243.947267 
L 316.822626 243.701976 
L 317.073131 243.814567 
L 317.323636 243.485451 
L 317.574141 243.564778 
L 317.824646 243.857325 
L 318.075152 243.816339 
L 318.576162 243.330893 
L 318.826667 243.957365 
L 319.077172 243.610713 
L 319.327677 243.724078 
L 319.578182 242.979596 
L 319.828687 243.608659 
L 320.079192 243.591868 
L 320.329697 243.435422 
L 320.580202 243.976213 
L 320.830707 243.461749 
L 321.081212 243.638906 
L 321.331717 243.317248 
L 321.582222 243.714958 
L 321.832727 243.242028 
L 322.083232 243.631547 
L 322.333737 243.605089 
L 322.834747 243.709246 
L 323.085253 243.388213 
L 323.335758 243.733243 
L 323.586263 243.871833 
L 323.836768 243.495838 
L 324.337778 243.814996 
L 324.588283 243.29034 
L 324.838788 243.635045 
L 325.339798 243.593447 
L 325.590303 243.789247 
L 326.091313 243.452528 
L 326.341818 243.751123 
L 326.842828 243.196451 
L 327.343838 243.707596 
L 327.594343 243.174472 
L 327.844848 243.68245 
L 328.095354 243.925967 
L 328.345859 243.793246 
L 328.596364 242.814537 
L 328.846869 243.841445 
L 329.097374 243.472299 
L 329.347879 243.837673 
L 329.848889 243.857724 
L 330.349899 243.62418 
L 330.600404 243.721443 
L 330.850909 243.982291 
L 331.101414 243.354575 
L 331.351919 243.83312 
L 331.852929 243.932364 
L 332.854949 243.418925 
L 333.105455 243.699575 
L 333.35596 243.719421 
L 333.606465 242.949802 
L 333.85697 243.987782 
L 334.608485 243.405396 
L 334.85899 243.892387 
L 335.109495 243.915446 
L 335.36 243.590328 
L 335.610505 243.756898 
L 335.86101 243.749657 
L 336.111515 243.600167 
L 336.36202 243.699009 
L 336.612525 243.363584 
L 336.86303 243.728922 
L 337.36404 243.68771 
L 337.614545 243.952357 
L 337.865051 243.989458 
L 338.115556 243.884781 
L 338.366061 243.606165 
L 338.616566 243.92263 
L 338.867071 243.559251 
L 339.618586 243.770986 
L 340.119596 243.603433 
L 340.620606 243.865796 
L 340.871111 243.354265 
L 341.372121 243.927279 
L 341.873131 243.274214 
L 342.123636 243.305446 
L 342.374141 243.892429 
L 342.875152 243.170473 
L 343.125657 244.01828 
L 343.376162 243.584414 
L 343.626667 243.935691 
L 344.127677 243.143877 
L 344.628687 243.696903 
L 344.879192 243.880531 
L 345.630707 243.841078 
L 345.881212 243.416421 
L 346.131717 243.847242 
L 346.632727 243.672647 
L 346.883232 243.551391 
L 347.133737 243.787394 
L 347.384242 243.552881 
L 347.885253 243.756633 
L 348.135758 243.790094 
L 348.386263 243.630313 
L 348.636768 243.307338 
L 348.887273 243.279071 
L 349.137778 243.933876 
L 349.388283 243.708227 
L 349.889293 243.464968 
L 350.139798 243.256712 
L 350.640808 243.652963 
L 350.891313 243.670057 
L 351.141818 243.901311 
L 351.392323 243.955246 
L 351.893333 243.628729 
L 352.143838 243.857228 
L 352.394343 243.55279 
L 353.646869 243.832305 
L 353.897374 243.989407 
L 354.147879 243.394753 
L 354.398384 243.740588 
L 354.648889 243.867966 
L 354.899394 243.593775 
L 355.149899 243.851909 
L 355.400404 243.84805 
L 355.650909 243.982628 
L 355.901414 243.488265 
L 356.151919 243.966683 
L 357.404444 243.622819 
L 357.654949 243.698553 
L 357.905455 243.917555 
L 358.15596 243.717441 
L 358.406465 243.920717 
L 358.65697 243.001138 
L 358.907475 243.656836 
L 359.15798 243.468213 
L 359.909495 243.851471 
L 360.16 243.650822 
L 360.410505 243.812973 
L 360.911515 243.328957 
L 361.16202 243.753907 
L 361.412525 243.821763 
L 361.66303 243.773571 
L 361.913535 243.327578 
L 362.16404 243.224959 
L 362.414545 243.650584 
L 362.665051 243.703984 
L 362.915556 243.962461 
L 363.166061 243.474796 
L 363.416566 243.359217 
L 363.667071 243.806216 
L 363.917576 243.768749 
L 364.168081 243.847711 
L 364.418586 243.773907 
L 364.669091 243.211609 
L 364.919596 243.846224 
L 365.170101 243.604076 
L 365.420606 243.523277 
L 365.671111 243.768416 
L 365.921616 243.308104 
L 366.172121 243.918552 
L 366.422626 242.993406 
L 366.673131 243.971201 
L 366.923636 243.180721 
L 367.174141 243.810777 
L 367.424646 242.976469 
L 367.675152 243.781724 
L 367.925657 243.491419 
L 368.176162 243.592021 
L 368.426667 243.344649 
L 368.677172 243.556541 
L 368.927677 243.466256 
L 369.428687 243.872774 
L 369.679192 243.695399 
L 369.929697 242.959896 
L 370.180202 243.860225 
L 370.430707 243.744662 
L 370.681212 243.928128 
L 370.931717 243.430497 
L 371.182222 243.608799 
L 371.432727 243.948678 
L 371.683232 243.693009 
L 371.933737 243.876049 
L 372.184242 243.888057 
L 372.434747 243.500811 
L 372.685253 243.727835 
L 372.935758 243.530464 
L 373.436768 243.557354 
L 373.687273 243.167908 
L 373.937778 243.192977 
L 374.188283 243.554299 
L 374.438788 243.315899 
L 374.939798 243.821887 
L 375.190303 243.901364 
L 375.440808 243.471655 
L 375.691313 243.894345 
L 375.941818 243.904931 
L 376.192323 243.582854 
L 376.442828 243.864569 
L 376.693333 243.455283 
L 376.943838 244.005895 
L 377.444848 243.80154 
L 377.695354 243.932855 
L 377.945859 243.635624 
L 378.196364 243.977969 
L 378.446869 243.820134 
L 378.697374 243.495456 
L 378.947879 243.667602 
L 379.198384 243.329004 
L 379.448889 243.572658 
L 379.699394 243.546401 
L 380.200404 243.869893 
L 380.450909 243.941304 
L 380.701414 243.312951 
L 380.951919 243.966317 
L 381.202424 243.680516 
L 381.452929 243.755623 
L 381.703434 243.47506 
L 381.953939 243.721021 
L 382.204444 243.787178 
L 382.454949 243.626167 
L 382.705455 243.662338 
L 382.95596 243.579271 
L 383.206465 243.861322 
L 384.208485 243.904806 
L 384.45899 243.461745 
L 384.709495 243.667979 
L 385.210505 243.713359 
L 385.46101 243.401493 
L 385.711515 243.724698 
L 385.96202 243.385004 
L 386.46303 243.722279 
L 386.713535 243.896124 
L 386.96404 243.529859 
L 387.214545 243.850528 
L 387.465051 243.720613 
L 387.715556 243.867187 
L 387.966061 243.012593 
L 388.216566 243.804077 
L 388.467071 243.856011 
L 388.717576 243.557755 
L 389.218586 243.786346 
L 389.469091 243.674202 
L 389.719596 243.857403 
L 389.970101 243.546221 
L 390.471111 243.840476 
L 390.721616 243.512713 
L 391.222626 243.912178 
L 391.473131 243.775724 
L 391.723636 243.956264 
L 391.974141 243.566782 
L 392.224646 243.79234 
L 392.224646 243.79234 
" style="fill:none;stroke:#1f77b4;stroke-linecap:square;stroke-width:1.5;"/>
   </g>
   <g id="line2d_36">
    <path clip-path="url(#pda9f4b94e9)" d="M 73.832727 193.929509 
L 74.083232 208.761056 
L 74.584242 215.213545 
L 75.335758 221.714068 
L 76.337778 227.85217 
L 77.089293 231.157857 
L 78.091313 234.458266 
L 79.093333 236.792994 
L 79.844848 238.111238 
L 80.596364 239.150335 
L 81.848889 240.493311 
L 83.351919 241.553443 
L 85.606465 242.513027 
L 87.610505 243.010172 
L 92.871111 243.59471 
L 101.388283 243.829398 
L 103.392323 243.834365 
L 110.907475 243.884115 
L 111.65899 243.870202 
L 114.16404 243.886463 
L 122.430707 243.903339 
L 123.432727 243.88987 
L 129.194343 243.892583 
L 135.206465 243.881446 
L 138.212525 243.890079 
L 160.006465 243.895266 
L 162.26101 243.88 
L 163.513535 243.896091 
L 168.273131 243.899996 
L 170.277172 243.893879 
L 179.545859 243.902071 
L 181.800404 243.890447 
L 183.303434 243.907789 
L 184.806465 243.894876 
L 237.913535 243.918929 
L 238.665051 243.91093 
L 255.198384 243.908452 
L 256.450909 243.910238 
L 261.46101 243.911356 
L 264.968081 243.928732 
L 266.972121 243.917939 
L 274.988283 243.888902 
L 276.240808 243.918749 
L 277.493333 243.913703 
L 279.747879 243.905049 
L 282.503434 243.92186 
L 284.507475 243.880077 
L 285.509495 243.911675 
L 286.26101 243.900741 
L 288.265051 243.91901 
L 292.774141 243.898926 
L 294.527677 243.919798 
L 302.293333 243.916757 
L 304.547879 243.900702 
L 308.305455 243.912502 
L 313.566061 243.899793 
L 317.073131 243.914864 
L 321.081212 243.900878 
L 322.834747 243.916776 
L 324.087273 243.889189 
L 325.089293 243.906799 
L 327.844848 243.899093 
L 328.846869 243.898703 
L 332.103434 243.90668 
L 360.911515 243.900901 
L 361.66303 243.912754 
L 362.665051 243.914895 
L 363.917576 243.914199 
L 366.172121 243.91808 
L 398.487273 243.906658 
L 398.487273 243.906658 
" style="fill:none;stroke:#ff7f0e;stroke-linecap:square;stroke-width:1.5;"/>
   </g>
   <g id="line2d_37">
    <path clip-path="url(#pda9f4b94e9)" d="M 73.832727 71.807284 
L 74.584242 132.722781 
L 75.085253 159.79426 
L 75.586263 177.948688 
L 76.087273 189.599368 
L 76.588283 196.923636 
L 77.089293 201.547211 
L 77.590303 204.547844 
L 78.341818 207.378911 
L 79.093333 209.190592 
L 80.095354 210.909174 
L 81.347879 212.582194 
L 83.351919 214.82536 
L 85.85697 217.272113 
L 88.612525 219.663304 
L 91.618586 221.982972 
L 94.875152 224.207131 
L 98.382222 226.311379 
L 101.889293 228.158112 
L 105.897374 229.998129 
L 110.15596 231.685897 
L 114.665051 233.221366 
L 119.424646 234.604719 
L 124.685253 235.902076 
L 130.446869 237.091522 
L 136.96 238.200023 
L 144.224646 239.204376 
L 152.491313 240.112123 
L 162.26101 240.939033 
L 172.782222 241.611838 
L 187.06101 242.266606 
L 205.347879 242.817422 
L 227.893333 243.229299 
L 266.471111 243.582385 
L 317.574141 243.766065 
L 389.218586 243.850952 
L 389.218586 243.850952 
" style="fill:none;stroke:#2ca02c;stroke-linecap:square;stroke-width:1.5;"/>
   </g>
   <g id="line2d_38">
    <path clip-path="url(#pda9f4b94e9)" d="M 73.832727 243.539183 
L 74.083232 243.047728 
L 74.333737 243.785125 
L 74.584242 243.50592 
L 74.834747 243.907714 
L 75.085253 243.957653 
L 75.335758 243.794764 
L 75.586263 243.829763 
L 75.836768 243.921528 
L 76.087273 244.020929 
L 76.337778 243.12021 
L 76.588283 244.44792 
L 76.838788 244.122254 
L 77.089293 243.848613 
L 77.339798 243.232238 
L 77.590303 244.374619 
L 77.840808 243.817144 
L 78.091313 245.21311 
L 78.341818 245.198109 
L 78.592323 244.577222 
L 78.842828 245.071973 
L 79.093333 245.939471 
L 79.343838 245.991029 
L 79.594343 246.528706 
L 79.844848 247.050882 
L 80.095354 247.307628 
L 80.345859 248.545289 
L 80.596364 248.576465 
L 80.846869 249.390359 
L 81.097374 249.485179 
L 81.347879 250.898217 
L 81.598384 250.657267 
L 81.848889 251.011054 
L 82.099394 251.490954 
L 82.349899 251.628443 
L 82.600404 252.286351 
L 82.850909 252.252664 
L 83.101414 252.479511 
L 83.351919 253.532311 
L 83.602424 253.739356 
L 83.852929 254.934259 
L 84.103434 255.718744 
L 84.353939 255.295004 
L 84.604444 256.137511 
L 84.854949 257.118345 
L 85.105455 257.978222 
L 85.35596 257.729284 
L 85.606465 259.049974 
L 85.85697 259.297714 
L 86.107475 259.146922 
L 86.35798 260.91977 
L 86.608485 260.478323 
L 86.85899 261.819434 
L 87.109495 262.447103 
L 87.36 263.185642 
L 87.610505 264.389795 
L 87.86101 264.867904 
L 88.111515 264.636405 
L 88.36202 265.736872 
L 88.612525 266.159125 
L 88.86303 266.924881 
L 89.113535 267.829434 
L 89.36404 268.399022 
L 89.614545 269.048412 
L 89.865051 269.743599 
L 90.115556 270.494916 
L 90.366061 271.379555 
" style="fill:none;stroke:#d62728;stroke-dasharray:5.55,2.4;stroke-dashoffset:0;stroke-width:1.5;"/>
   </g>
   <g id="line2d_39">
    <path clip-path="url(#pda9f4b94e9)" d="M 73.832727 243.539183 
L 74.083232 243.047728 
L 74.333737 243.785125 
L 74.584242 243.50592 
L 74.834747 243.907714 
L 75.085253 243.957653 
L 75.335758 243.794764 
L 75.586263 243.829763 
L 75.836768 243.921528 
L 76.087273 244.020929 
L 76.337778 243.12021 
L 76.588283 244.44792 
L 76.838788 244.122254 
L 77.089293 243.848613 
L 77.339798 243.232238 
L 77.590303 244.374619 
L 77.840808 243.817144 
L 78.091313 245.21311 
L 78.341818 245.198109 
L 78.592323 244.577222 
L 78.842828 245.071973 
L 79.093333 245.939471 
L 79.343838 245.991029 
L 79.594343 246.528706 
L 79.844848 247.050882 
L 80.095354 247.307628 
L 80.345859 248.545289 
L 80.596364 248.576465 
L 80.846869 249.390359 
L 81.097374 249.485179 
L 81.347879 250.898217 
L 81.598384 250.657267 
L 81.848889 251.011054 
L 82.099394 251.490954 
L 82.349899 251.628443 
L 82.600404 252.286351 
L 82.850909 252.252128 
L 83.101414 252.479412 
L 83.351919 253.531865 
L 83.602424 253.739895 
L 83.852929 254.933081 
L 84.103434 255.719595 
L 84.353939 255.292438 
L 84.604444 256.13619 
L 84.854949 257.119076 
L 85.105455 258.028915 
L 85.35596 257.629787 
L 85.606465 258.70301 
L 85.85697 259.105022 
L 86.107475 258.96525 
L 86.35798 260.852608 
L 86.608485 260.390809 
L 86.85899 261.246955 
L 87.109495 262.69428 
L 87.36 262.621388 
L 87.610505 263.936646 
L 87.86101 264.35152 
L 88.111515 264.479401 
L 88.36202 265.485302 
L 88.612525 265.150053 
L 88.86303 267.079413 
L 89.113535 267.817536 
L 89.36404 268.64272 
L 89.614545 269.34362 
L 89.865051 269.940337 
L 90.115556 270.593632 
L 90.366061 271.521728 
L 90.616566 271.767447 
L 90.867071 271.91888 
L 91.117576 272.646942 
L 91.368081 273.676977 
L 91.618586 274.640025 
L 91.869091 274.607491 
L 92.119596 274.820769 
L 92.370101 275.960649 
L 92.620606 276.545709 
L 92.871111 276.574256 
L 93.121616 277.781917 
L 93.372121 277.618713 
L 93.622626 278.577603 
" style="fill:none;stroke:#9467bd;stroke-dasharray:5.55,2.4;stroke-dashoffset:0;stroke-width:1.5;"/>
   </g>
   <g id="line2d_40">
    <path clip-path="url(#pda9f4b94e9)" d="M 73.832727 243.539183 
L 74.083232 243.047728 
L 74.333737 243.785125 
L 74.584242 243.50592 
L 74.834747 243.907714 
L 75.085253 243.957653 
L 75.335758 243.794764 
L 75.586263 243.829763 
L 75.836768 243.921528 
L 76.087273 244.020929 
L 76.337778 243.12021 
L 76.588283 244.44792 
L 76.838788 244.122254 
L 77.089293 243.848613 
L 77.339798 243.232238 
L 77.590303 244.374619 
L 77.840808 243.817144 
L 78.091313 245.21311 
L 78.341818 245.198109 
L 78.592323 244.577222 
L 78.842828 245.071973 
L 79.093333 245.939471 
L 79.343838 245.991029 
L 79.594343 246.528706 
L 79.844848 247.050882 
L 80.095354 247.307628 
L 80.345859 248.545289 
L 80.596364 248.576283 
L 80.846869 249.390998 
L 81.097374 249.473877 
L 81.347879 250.9085 
L 81.598384 250.652942 
L 81.848889 250.976375 
L 82.099394 251.508783 
L 82.349899 251.690396 
L 82.600404 252.413778 
L 82.850909 252.266863 
L 83.101414 253.131585 
L 83.351919 253.640035 
L 83.602424 253.51251 
L 83.852929 254.663156 
L 84.103434 255.722049 
L 84.353939 254.631315 
L 84.604444 256.519082 
L 84.854949 257.15628 
L 85.105455 257.904421 
L 85.35596 258.39817 
L 85.606465 258.672702 
L 85.85697 258.915352 
L 86.107475 259.341783 
L 86.35798 260.111931 
L 86.608485 259.417021 
L 86.85899 260.308619 
L 87.109495 261.455969 
L 87.36 261.294844 
L 87.610505 261.956471 
L 87.86101 262.823522 
L 88.111515 263.653763 
L 88.36202 264.521126 
L 88.612525 264.814274 
L 88.86303 265.001048 
L 89.113535 265.497146 
L 89.36404 266.400185 
L 89.614545 266.381428 
L 89.865051 266.833226 
L 90.115556 267.826888 
L 90.366061 268.142054 
L 90.616566 268.236252 
L 90.867071 268.595428 
L 91.117576 268.438069 
L 91.368081 269.467218 
L 91.618586 269.263528 
L 91.869091 269.926461 
L 92.119596 269.242887 
L 92.370101 269.543812 
L 92.620606 269.89126 
L 92.871111 270.224247 
L 93.121616 269.928234 
L 93.372121 270.560272 
L 93.622626 270.874682 
L 93.873131 271.39142 
L 94.123636 271.791365 
L 94.374141 272.003804 
L 94.624646 272.160936 
L 94.875152 273.025701 
L 95.125657 272.69757 
L 95.376162 272.228065 
L 95.626667 273.588444 
L 95.877172 274.278984 
L 96.127677 274.808105 
L 96.378182 274.681674 
L 96.628687 275.028507 
L 96.879192 274.446212 
L 97.129697 275.339463 
L 97.380202 275.266425 
L 97.630707 275.560967 
L 97.881212 276.061007 
L 98.131717 276.074869 
L 98.382222 276.450644 
L 98.632727 276.280591 
L 98.883232 277.157329 
" style="fill:none;stroke:#8c564b;stroke-dasharray:5.55,2.4;stroke-dashoffset:0;stroke-width:1.5;"/>
   </g>
   <g id="line2d_41">
    <path clip-path="url(#pda9f4b94e9)" d="M 73.832727 243.539183 
L 74.083232 243.047728 
L 74.333737 243.785125 
L 74.584242 243.50592 
L 74.834747 243.907714 
L 75.085253 243.957653 
L 75.335758 243.780755 
L 75.836768 243.969848 
L 76.087273 244.28187 
L 76.588283 244.430432 
L 76.838788 244.294339 
L 77.089293 243.858656 
L 77.339798 243.891931 
L 77.590303 244.142721 
L 77.840808 243.860846 
L 78.091313 245.004872 
L 78.341818 244.952206 
L 78.592323 244.578703 
L 78.842828 244.783613 
L 79.093333 246.069425 
L 79.343838 246.195828 
L 79.844848 247.077538 
L 80.095354 247.094278 
L 80.345859 248.823899 
L 80.596364 248.564086 
L 80.846869 249.555864 
L 81.347879 249.505317 
L 81.598384 250.363648 
L 81.848889 250.57562 
L 82.099394 251.132271 
L 82.349899 251.309458 
L 82.600404 251.304953 
L 82.850909 251.437204 
L 83.101414 252.102447 
L 83.351919 252.02588 
L 83.602424 252.490677 
L 83.852929 252.709909 
L 84.103434 253.395222 
L 84.353939 253.140013 
L 84.854949 254.043462 
L 85.105455 254.083829 
L 85.35596 254.55623 
L 85.606465 254.169432 
L 85.85697 254.73691 
L 86.107475 254.628717 
L 86.608485 255.520791 
L 86.85899 255.495585 
L 87.109495 256.280127 
L 87.610505 256.635736 
L 87.86101 256.955673 
L 88.111515 256.5858 
L 88.36202 257.334007 
L 88.612525 257.158252 
L 89.36404 258.447959 
L 89.614545 258.299661 
L 89.865051 258.396035 
L 90.115556 258.689865 
L 90.616566 258.827757 
L 90.867071 258.424885 
L 91.117576 258.674117 
L 91.368081 259.491043 
L 91.618586 259.525308 
L 91.869091 259.881006 
L 92.119596 259.809223 
L 92.871111 260.175742 
L 93.121616 260.084919 
L 93.372121 260.280043 
L 93.622626 260.18065 
L 93.873131 260.445693 
L 94.123636 260.340909 
L 94.374141 260.376354 
L 94.624646 260.778895 
L 94.875152 260.432632 
L 95.125657 260.992804 
L 95.376162 261.080521 
L 95.626667 261.369801 
L 95.877172 260.962098 
L 96.127677 261.405045 
L 96.378182 261.440846 
L 96.628687 260.91786 
L 96.879192 261.722975 
L 97.380202 261.340581 
L 97.630707 261.808671 
L 97.881212 262.035239 
L 98.131717 261.940605 
L 98.382222 261.52037 
L 98.632727 262.094609 
L 99.133737 262.163197 
L 99.384242 261.864392 
L 99.634747 262.431131 
L 99.885253 262.261653 
L 100.135758 262.743586 
L 100.386263 262.793237 
L 100.636768 263.024923 
L 100.887273 263.025783 
L 101.137778 263.152798 
L 101.388283 262.725436 
L 101.638788 262.892071 
L 101.889293 263.297029 
L 102.139798 263.28762 
L 102.390303 263.085287 
L 102.640808 263.447599 
L 102.891313 263.532647 
L 103.141818 262.746361 
L 103.392323 263.636324 
L 103.642828 263.705704 
L 103.893333 263.516331 
L 104.143838 263.491374 
L 104.394343 263.233448 
L 104.895354 263.9626 
L 105.145859 263.708586 
L 105.396364 263.965621 
L 106.147879 264.043414 
L 106.398384 263.639297 
L 106.648889 264.135872 
L 106.899394 263.738507 
L 107.149899 264.395365 
L 107.400404 264.383295 
L 107.650909 264.545188 
L 107.901414 264.342432 
L 108.151919 263.932675 
L 108.402424 263.805417 
L 108.903434 264.689089 
L 109.404444 264.596958 
L 109.654949 264.874328 
L 109.905455 264.897403 
L 110.15596 264.392817 
L 110.406465 265.073557 
L 110.65697 265.152809 
L 110.907475 264.595695 
L 111.15798 265.095436 
L 111.15798 265.095436 
" style="fill:none;stroke:#e377c2;stroke-dasharray:5.55,2.4;stroke-dashoffset:0;stroke-width:1.5;"/>
   </g>
   <g id="line2d_42">
    <path clip-path="url(#pda9f4b94e9)" d="M 73.832727 243.539183 
L 74.083232 243.684979 
L 74.333737 243.140178 
L 74.584242 243.472158 
L 74.834747 243.104063 
L 75.335758 243.481996 
L 75.586263 243.266358 
L 75.836768 243.971886 
L 76.087273 243.938146 
L 76.337778 243.66957 
L 76.588283 243.581981 
L 77.590303 244.033894 
L 77.840808 243.590177 
L 78.091313 244.138887 
L 78.341818 244.241239 
L 78.592323 243.606731 
L 78.842828 244.078331 
L 79.093333 244.312663 
L 79.343838 244.332117 
L 79.594343 243.957233 
L 79.844848 244.348549 
L 80.095354 244.449051 
L 80.345859 244.881837 
L 80.846869 244.344468 
L 81.097374 244.723055 
L 81.347879 244.435123 
L 81.598384 245.106292 
L 81.848889 244.717551 
L 82.850909 245.803209 
L 83.351919 246.277516 
L 83.602424 246.1334 
L 83.852929 246.354944 
L 84.103434 246.336456 
L 84.604444 246.829656 
L 84.854949 246.323131 
L 85.105455 247.079946 
L 85.35596 246.722934 
L 85.606465 246.860923 
L 85.85697 247.259592 
L 86.107475 247.185324 
L 86.35798 247.803688 
L 87.109495 247.738554 
L 87.610505 248.386673 
L 87.86101 248.194032 
L 88.111515 248.232437 
L 88.36202 248.416664 
L 88.612525 248.795508 
L 88.86303 248.686644 
L 89.113535 249.269005 
L 89.36404 249.335884 
L 89.865051 249.708 
L 90.115556 249.81993 
L 90.366061 250.11068 
L 90.616566 250.041632 
L 90.867071 250.263797 
L 91.117576 250.169869 
L 91.368081 250.530511 
L 91.618586 250.183417 
L 91.869091 250.610994 
L 92.370101 250.723127 
L 92.620606 251.080599 
L 92.871111 250.920965 
L 93.121616 251.171768 
L 93.622626 251.194325 
L 93.873131 251.270918 
L 94.123636 251.501884 
L 95.626667 251.540528 
L 95.877172 251.694124 
L 96.127677 251.662508 
L 96.879192 252.020325 
L 97.129697 251.926571 
L 97.380202 251.675541 
L 97.630707 252.050319 
L 97.881212 252.085269 
L 98.131717 251.726758 
L 98.382222 251.811979 
L 98.632727 252.094861 
L 98.883232 252.041063 
L 99.634747 252.384047 
L 99.885253 252.301672 
L 100.135758 252.425739 
L 100.636768 252.216298 
L 100.887273 252.423312 
L 101.137778 252.468928 
L 101.388283 252.301375 
L 101.638788 252.323125 
L 101.889293 252.484936 
L 102.640808 252.593007 
L 102.891313 252.825229 
L 103.141818 252.421348 
L 103.392323 252.57837 
L 103.642828 252.875337 
L 103.893333 252.587388 
L 104.394343 252.76311 
L 104.644848 252.752629 
L 104.895354 252.903982 
L 105.396364 252.999899 
L 105.646869 253.086319 
L 105.897374 252.895167 
L 106.147879 253.05535 
L 106.398384 252.97171 
L 106.648889 252.687976 
L 107.149899 253.151599 
L 107.400404 253.346037 
L 107.901414 253.344527 
L 108.151919 253.043591 
L 108.402424 252.99389 
L 108.652929 253.426902 
L 108.903434 253.236453 
L 109.153939 253.607864 
L 109.404444 253.408205 
L 109.654949 253.406023 
L 109.905455 253.659364 
L 110.15596 253.458958 
L 110.406465 253.793621 
L 110.907475 253.508874 
L 111.15798 253.679546 
L 111.408485 253.573839 
L 111.65899 253.739986 
L 111.909495 253.555869 
L 112.16 253.610087 
L 112.410505 253.904087 
L 113.412525 253.771743 
L 113.66303 253.748146 
L 114.16404 253.865814 
L 114.414545 253.888337 
L 114.665051 253.713688 
L 114.915556 253.925361 
L 115.416566 253.769694 
L 115.667071 254.076972 
L 115.917576 254.074608 
L 116.168081 253.813106 
L 116.418586 253.805744 
L 116.919596 254.084553 
L 117.170101 253.933715 
L 117.671111 254.163226 
L 117.921616 253.784425 
L 118.172121 254.103581 
L 118.422626 254.082629 
L 118.673131 254.206353 
L 118.923636 253.990289 
L 119.675152 254.077959 
L 119.925657 254.307161 
L 120.176162 254.205682 
L 120.677172 254.39757 
L 120.927677 254.446383 
L 121.178182 254.276704 
L 122.180202 254.280464 
L 122.681212 254.469175 
L 122.931717 254.404105 
L 123.182222 254.565723 
L 123.683232 254.298538 
L 123.933737 254.163127 
L 124.184242 254.556477 
L 124.685253 254.527332 
L 124.935758 254.494362 
L 125.186263 254.656941 
L 125.687273 254.385933 
L 125.937778 254.519534 
L 126.188283 254.498205 
L 126.438788 254.83237 
L 126.939798 254.605663 
L 127.190303 254.592986 
L 127.440808 254.747455 
L 127.941818 254.715823 
L 128.192323 254.970769 
L 128.442828 254.72587 
L 128.943838 254.895361 
L 129.194343 254.904564 
L 129.444848 254.588063 
L 129.695354 254.546061 
L 130.196364 255.084947 
L 130.446869 254.734978 
L 131.198384 255.207281 
L 131.448889 255.130965 
L 131.699394 254.862844 
L 131.949899 255.310027 
L 132.450909 255.017443 
L 132.701414 254.971281 
L 132.951919 255.240714 
L 133.452929 255.330729 
L 133.703434 255.135787 
L 134.95596 255.288039 
L 135.45697 255.178343 
L 135.707475 255.586293 
L 136.45899 255.361923 
L 136.96 255.649259 
L 137.210505 255.420636 
L 137.46101 255.467618 
L 137.711515 255.761234 
L 137.96202 255.483471 
L 138.212525 255.824125 
L 138.46303 255.636478 
L 138.713535 255.613364 
L 138.96404 255.725962 
L 139.465051 255.465758 
L 139.715556 255.835908 
L 139.966061 255.70586 
L 140.216566 255.734592 
L 140.467071 255.982731 
L 140.717576 255.452109 
L 140.968081 255.873366 
L 141.218586 255.669448 
L 141.469091 256.084204 
L 141.719596 255.752269 
L 141.719596 255.752269 
" style="fill:none;stroke:#7f7f7f;stroke-dasharray:5.55,2.4;stroke-dashoffset:0;stroke-width:1.5;"/>
   </g>
   <g id="line2d_43">
    <path clip-path="url(#pda9f4b94e9)" d="M 73.832727 243.539183 
L 74.333737 243.883294 
L 74.584242 243.93436 
L 74.834747 243.234269 
L 75.085253 243.996456 
L 75.335758 243.451228 
L 75.836768 243.959963 
L 76.087273 243.9254 
L 76.337778 243.509026 
L 76.588283 243.901456 
L 76.838788 243.980724 
L 77.089293 243.565973 
L 77.590303 243.719673 
L 77.840808 243.972414 
L 78.091313 243.603733 
L 78.341818 243.890913 
L 78.592323 243.519654 
L 78.842828 243.58119 
L 79.093333 243.867666 
L 79.343838 243.660895 
L 79.844848 244.097448 
L 80.095354 243.388233 
L 80.345859 243.901782 
L 80.596364 243.406331 
L 80.846869 243.844616 
L 81.347879 243.804074 
L 81.598384 243.912612 
L 81.848889 243.563655 
L 82.099394 242.363272 
L 82.349899 243.276019 
L 82.600404 243.660207 
L 82.850909 243.803363 
L 83.101414 243.53989 
L 83.351919 243.829176 
L 83.602424 243.511095 
L 83.852929 243.691531 
L 84.604444 243.691426 
L 84.854949 243.195789 
L 85.105455 244.101984 
L 85.35596 243.814817 
L 85.606465 244.177415 
L 85.85697 244.281196 
L 86.107475 243.70192 
L 86.35798 244.277885 
L 86.608485 244.245857 
L 86.85899 243.766005 
L 87.109495 244.263529 
L 87.36 244.445583 
L 87.610505 243.831204 
L 87.86101 243.713654 
L 88.111515 244.417385 
L 88.36202 244.643033 
L 88.612525 244.411223 
L 88.86303 244.935801 
L 89.113535 244.706961 
L 89.36404 245.061855 
L 89.614545 244.953748 
L 90.115556 245.109322 
L 90.616566 245.261002 
L 90.867071 245.127619 
L 91.368081 245.318986 
L 91.618586 245.477921 
L 91.869091 245.393095 
L 92.620606 245.53346 
L 93.121616 245.966819 
L 93.372121 245.807161 
L 93.622626 246.069592 
L 94.374141 245.928239 
L 94.624646 246.400441 
L 95.376162 246.384061 
L 95.877172 246.587034 
L 96.127677 246.749424 
L 96.628687 246.57231 
L 96.879192 246.720113 
L 97.129697 246.696684 
L 97.380202 246.397715 
L 97.630707 246.932087 
L 97.881212 246.883872 
L 98.131717 246.614894 
L 98.382222 246.594716 
L 98.883232 247.009229 
L 99.133737 246.811276 
L 99.634747 247.176557 
L 99.885253 247.031855 
L 100.135758 247.178644 
L 100.386263 247.09598 
L 100.636768 247.228463 
L 101.137778 247.10638 
L 102.390303 247.3301 
L 102.640808 247.159046 
L 102.891313 247.283789 
L 103.141818 246.9516 
L 103.893333 247.344423 
L 104.644848 247.424204 
L 105.145859 247.550614 
L 105.396364 247.490396 
L 105.646869 247.584328 
L 105.897374 247.368176 
L 106.398384 247.418613 
L 106.899394 247.354129 
L 107.149899 247.640428 
L 107.650909 247.580944 
L 107.901414 247.766432 
L 108.151919 247.566648 
L 108.402424 247.173687 
L 108.652929 247.640649 
L 109.404444 247.726607 
L 109.654949 247.616258 
L 109.905455 247.913549 
L 110.15596 247.76109 
L 110.406465 247.964374 
L 111.15798 247.801155 
L 111.408485 248.014112 
L 112.16 247.724123 
L 112.410505 247.951488 
L 112.66101 247.854214 
L 113.16202 248.061073 
L 113.412525 247.889651 
L 114.414545 248.1034 
L 114.665051 247.973742 
L 114.915556 248.178806 
L 115.416566 248.15461 
L 115.917576 248.29823 
L 116.418586 248.091512 
L 116.919596 248.33774 
L 117.170101 248.193126 
L 117.420606 248.391479 
L 117.921616 248.208857 
L 118.172121 248.296281 
L 118.422626 248.211105 
L 118.923636 248.462451 
L 119.174141 248.162105 
L 119.424646 248.299866 
L 119.675152 248.127432 
L 119.925657 248.378479 
L 120.176162 248.4481 
L 120.426667 248.275469 
L 120.677172 248.40743 
L 120.927677 248.317339 
L 121.679192 248.522354 
L 122.931717 248.499698 
L 123.182222 248.591022 
L 123.432727 248.443256 
L 123.683232 248.564294 
L 123.933737 248.154104 
L 124.184242 248.608061 
L 124.434747 248.708999 
L 124.685253 248.55245 
L 125.436768 248.585248 
L 125.687273 248.722408 
L 125.937778 248.49806 
L 126.188283 248.541682 
L 126.438788 248.77994 
L 127.440808 248.767954 
L 128.943838 249.008898 
L 129.194343 248.820793 
L 130.196364 249.174479 
L 130.446869 248.806179 
L 130.697374 249.124947 
L 131.198384 249.271106 
L 131.448889 249.221993 
L 131.699394 248.844069 
L 131.949899 249.278432 
L 132.951919 249.306751 
L 133.202424 249.385296 
L 133.452929 249.237071 
L 134.705455 249.324219 
L 134.95596 249.408938 
L 135.206465 249.375583 
L 135.707475 249.57763 
L 136.45899 249.409906 
L 136.709495 249.66469 
L 137.210505 249.524362 
L 137.46101 249.683265 
L 137.711515 249.564961 
L 138.212525 249.767899 
L 138.46303 249.527558 
L 138.713535 249.839927 
L 138.96404 249.616508 
L 139.214545 249.853275 
L 139.966061 249.766702 
L 140.216566 249.732457 
L 140.467071 249.82194 
L 140.717576 249.361022 
L 140.968081 249.915959 
L 141.469091 249.893419 
L 141.719596 249.687169 
L 141.970101 249.945746 
L 142.471111 249.959359 
L 143.473131 250.095103 
L 143.723636 249.955495 
L 143.974141 250.08306 
L 144.224646 249.927858 
L 144.475152 250.108203 
L 145.226667 249.914397 
L 145.477172 250.132939 
L 145.727677 250.03912 
L 146.729697 250.210618 
L 146.980202 249.976577 
L 147.982222 250.092679 
L 148.232727 250.212809 
L 148.733737 250.17338 
L 148.984242 249.939409 
L 149.234747 250.231518 
L 149.485253 250.30959 
L 149.735758 250.09452 
L 150.236768 250.306591 
L 150.737778 250.180087 
L 151.238788 250.252045 
L 151.489293 250.150509 
L 151.739798 250.349028 
L 151.990303 250.203068 
L 152.240808 250.23728 
L 152.491313 250.134874 
L 152.741818 250.253186 
L 153.242828 250.329476 
L 153.493333 250.357559 
L 153.743838 250.119004 
L 153.994343 250.306257 
L 154.745859 250.335078 
L 154.996364 250.484371 
L 155.246869 250.39074 
L 155.998384 250.448498 
L 156.499394 250.297531 
L 157.250909 250.605416 
L 157.501414 250.419225 
L 159.004444 250.4586 
L 159.254949 250.57434 
L 160.25697 250.419084 
L 160.75798 250.72226 
L 161.509495 250.249524 
L 161.76 250.569301 
L 162.010505 250.607426 
L 162.26101 250.493809 
L 162.511515 250.505551 
L 162.76202 250.761108 
L 163.26303 250.606148 
L 163.513535 250.725261 
L 163.76404 250.714854 
L 164.014545 250.871256 
L 164.265051 250.636695 
L 164.515556 250.837782 
L 164.766061 250.622998 
L 165.517576 250.895296 
L 166.018586 250.803134 
L 166.269091 250.893624 
L 166.770101 250.726277 
L 167.020606 250.92186 
L 167.271111 250.893 
L 167.521616 250.716745 
L 167.772121 250.821663 
L 168.022626 250.699649 
L 168.273131 250.907957 
L 168.523636 250.894933 
L 168.774141 250.698891 
L 169.024646 250.910845 
L 169.275152 250.97463 
L 169.275152 250.97463 
" style="fill:none;stroke:#bcbd22;stroke-dasharray:5.55,2.4;stroke-dashoffset:0;stroke-width:1.5;"/>
   </g>
   <g id="line2d_44">
    <path clip-path="url(#pda9f4b94e9)" d="M 73.832727 243.539183 
L 74.584242 243.974332 
L 74.834747 243.486096 
L 75.085253 244.059134 
L 75.335758 243.464865 
L 76.087273 243.993738 
L 76.337778 243.863206 
L 76.838788 244.06675 
L 77.089293 243.619498 
L 77.339798 243.507038 
L 77.590303 243.83295 
L 78.091313 243.754861 
L 78.592323 243.945144 
L 78.842828 243.799375 
L 79.093333 243.913902 
L 79.343838 243.844641 
L 79.844848 244.087035 
L 80.095354 243.818631 
L 80.345859 243.981991 
L 80.596364 243.667048 
L 80.846869 243.731762 
L 81.097374 244.007844 
L 81.347879 243.913293 
L 81.598384 243.977862 
L 81.848889 243.818262 
L 82.099394 243.504845 
L 82.349899 243.752221 
L 82.600404 243.701958 
L 82.850909 243.942124 
L 83.101414 243.824261 
L 83.351919 243.947932 
L 83.602424 243.805048 
L 83.852929 244.039329 
L 84.103434 243.868681 
L 84.604444 243.82107 
L 84.854949 243.546445 
L 85.105455 243.910345 
L 85.606465 243.850651 
L 85.85697 243.949559 
L 86.107475 243.82968 
L 86.608485 243.936325 
L 86.85899 243.566316 
L 87.36 244.017329 
L 87.86101 243.380907 
L 88.36202 244.102909 
L 88.86303 243.755105 
L 89.113535 244.034615 
L 89.36404 243.976457 
L 89.614545 243.789744 
L 90.366061 243.902591 
L 91.117576 243.720051 
L 92.119596 244.059066 
L 92.370101 243.607006 
L 92.620606 243.903 
L 92.871111 243.972457 
L 93.372121 243.941952 
L 93.622626 243.956069 
L 93.873131 243.850684 
L 94.123636 243.999753 
L 94.374141 243.815796 
L 94.624646 244.032456 
L 95.125657 243.679423 
L 95.626667 243.78316 
L 95.877172 243.924916 
L 96.127677 243.672132 
L 96.378182 243.606315 
L 96.628687 243.923961 
L 96.879192 243.859541 
L 97.129697 243.948401 
L 97.380202 243.655363 
L 97.630707 243.975355 
L 98.131717 243.572564 
L 98.382222 243.688783 
L 98.632727 243.605902 
L 98.883232 243.777961 
L 99.133737 243.666235 
L 99.384242 243.698366 
L 99.634747 243.886698 
L 99.885253 243.734803 
L 100.636768 243.982958 
L 100.887273 243.684561 
L 101.388283 243.669414 
L 101.889293 243.999943 
L 102.390303 243.720907 
L 102.891313 243.950634 
L 103.141818 243.698846 
L 103.642828 243.876659 
L 104.143838 243.887518 
L 104.394343 243.762622 
L 104.644848 243.91404 
L 106.147879 243.87348 
L 106.398384 243.548239 
L 106.648889 243.763468 
L 106.899394 243.524091 
L 107.149899 243.828505 
L 107.400404 243.899957 
L 107.650909 243.592732 
L 107.901414 243.871749 
L 108.402424 243.373647 
L 108.652929 243.779297 
L 108.903434 243.692544 
L 109.153939 243.979551 
L 109.404444 243.720347 
L 109.654949 243.674301 
L 109.905455 243.812689 
L 110.15596 243.799298 
L 110.406465 243.970865 
L 110.65697 243.923161 
L 110.907475 243.449307 
L 111.408485 243.994722 
L 111.65899 243.969395 
L 111.909495 243.272116 
L 112.410505 244.039095 
L 112.911515 243.889147 
L 113.16202 243.993832 
L 114.16404 243.836002 
L 114.414545 243.979193 
L 114.665051 243.849984 
L 114.915556 244.13448 
L 115.166061 243.964758 
L 115.917576 244.128294 
L 116.418586 243.666945 
L 116.919596 243.914297 
L 117.420606 243.948402 
L 117.671111 243.822704 
L 117.921616 244.05844 
L 118.172121 243.884822 
L 118.422626 243.854469 
L 118.673131 244.047144 
L 118.923636 244.087677 
L 119.174141 243.893524 
L 119.424646 244.03419 
L 119.675152 243.857181 
L 120.176162 243.748302 
L 120.426667 244.038288 
L 120.677172 243.985359 
L 121.929697 244.238509 
L 122.180202 244.081203 
L 122.430707 244.249002 
L 122.681212 243.943969 
L 123.182222 244.084139 
L 123.432727 243.873586 
L 123.683232 244.153056 
L 123.933737 243.54455 
L 124.184242 244.085665 
L 124.685253 244.173945 
L 124.935758 243.914908 
L 125.186263 243.823907 
L 125.687273 244.190421 
L 125.937778 243.85975 
L 126.188283 244.078224 
L 126.438788 244.062787 
L 126.689293 244.199928 
L 126.939798 244.042827 
L 127.440808 244.158775 
L 127.941818 243.983484 
L 128.192323 244.109676 
L 128.442828 243.943172 
L 128.693333 244.1875 
L 128.943838 244.27645 
L 129.444848 243.85856 
L 129.695354 244.207271 
L 129.945859 244.148206 
L 130.196364 244.302255 
L 130.446869 243.994437 
L 130.947879 244.015609 
L 131.198384 244.228676 
L 131.448889 244.213928 
L 131.699394 243.874327 
L 131.949899 244.344349 
L 132.200404 244.172324 
L 132.951919 244.286961 
L 133.452929 244.309624 
L 133.703434 244.072273 
L 133.953939 244.089842 
L 134.204444 243.993397 
L 134.454949 244.037723 
L 134.705455 244.246386 
L 134.95596 244.090625 
L 135.45697 244.333689 
L 135.95798 244.275195 
L 136.208485 244.154171 
L 136.45899 244.194601 
L 136.709495 244.374836 
L 136.96 244.211309 
L 137.46101 244.279305 
L 137.711515 244.126869 
L 138.212525 244.339223 
L 138.46303 243.961753 
L 138.713535 244.241547 
L 138.96404 244.231302 
L 139.214545 244.393857 
L 139.465051 244.224029 
L 139.966061 244.233863 
L 140.216566 244.361718 
L 140.467071 244.287377 
L 140.717576 244.007892 
L 140.968081 244.409892 
L 141.469091 244.364581 
L 141.719596 243.895684 
L 142.220606 244.288471 
L 142.972121 244.268168 
L 143.473131 244.502579 
L 143.723636 244.278831 
L 143.974141 244.309778 
L 144.224646 244.044708 
L 144.725657 244.514435 
L 145.226667 244.20194 
L 145.477172 244.508355 
L 145.727677 244.288188 
L 146.228687 244.443007 
L 146.479192 244.162194 
L 146.729697 244.483677 
L 147.230707 244.140505 
L 147.481212 244.353884 
L 147.982222 244.164062 
L 148.232727 244.521817 
L 148.733737 244.37669 
L 148.984242 243.785904 
L 149.234747 244.557072 
L 149.986263 244.375288 
L 150.487273 244.382615 
L 151.990303 244.147696 
L 152.240808 244.349079 
L 153.242828 244.379333 
L 153.994343 244.451934 
L 154.244848 244.291414 
L 154.745859 244.552399 
L 154.996364 244.620978 
L 155.246869 244.551658 
L 155.747879 244.269691 
L 155.998384 244.514337 
L 156.248889 244.415095 
L 156.499394 244.491446 
L 157.000404 244.369687 
L 157.501414 244.457884 
L 157.751919 244.489957 
L 158.002424 244.407885 
L 158.503434 244.647309 
L 159.004444 244.414809 
L 159.254949 244.544034 
L 160.006465 244.452647 
L 160.507475 244.466378 
L 160.75798 244.675815 
L 161.008485 244.464642 
L 161.25899 244.448503 
L 161.509495 244.303412 
L 161.76 244.565083 
L 162.010505 244.555786 
L 162.26101 244.356823 
L 162.76202 244.671167 
L 163.012525 244.737629 
L 163.26303 244.544749 
L 164.014545 244.685276 
L 164.265051 244.478727 
L 164.515556 244.691365 
L 165.016566 244.607392 
L 167.772121 244.695487 
L 168.022626 244.514502 
L 168.273131 244.552835 
L 168.523636 244.704717 
L 168.774141 244.489542 
L 169.275152 244.748931 
L 169.525657 244.607606 
L 169.776162 244.329347 
L 170.277172 244.723689 
L 171.028687 244.710292 
L 171.279192 244.773704 
L 172.281212 244.608991 
L 172.531717 244.792076 
L 172.782222 244.81688 
L 173.032727 244.477206 
L 173.283232 244.715441 
L 173.533737 244.691168 
L 173.784242 244.844104 
L 174.034747 244.364535 
L 174.285253 244.671083 
L 174.786263 244.851464 
L 175.036768 244.43503 
L 175.287273 244.478651 
L 175.537778 244.814789 
L 175.788283 244.609221 
L 176.289293 244.715941 
L 176.790303 244.865708 
L 177.291313 244.717272 
L 177.541818 244.787964 
L 177.792323 244.507273 
L 178.293333 244.850174 
L 178.543838 244.618865 
L 178.794343 244.741983 
L 179.044848 244.539107 
L 179.295354 244.755673 
L 180.046869 244.591154 
L 180.297374 244.447311 
L 180.547879 244.639377 
L 180.798384 244.619144 
L 181.048889 244.832338 
L 181.048889 244.832338 
" style="fill:none;stroke:#17becf;stroke-dasharray:5.55,2.4;stroke-dashoffset:0;stroke-width:1.5;"/>
   </g>
   <g id="patch_3">
    <path d="M 57.6 307.584 
L 57.6 41.472 
" style="fill:none;stroke:#000000;stroke-linecap:square;stroke-linejoin:miter;stroke-width:0.8;"/>
   </g>
   <g id="patch_4">
    <path d="M 414.72 307.584 
L 414.72 41.472 
" style="fill:none;stroke:#000000;stroke-linecap:square;stroke-linejoin:miter;stroke-width:0.8;"/>
   </g>
   <g id="patch_5">
    <path d="M 57.6 307.584 
L 414.72 307.584 
" style="fill:none;stroke:#000000;stroke-linecap:square;stroke-linejoin:miter;stroke-width:0.8;"/>
   </g>
   <g id="patch_6">
    <path d="M 57.6 41.472 
L 414.72 41.472 
" style="fill:none;stroke:#000000;stroke-linecap:square;stroke-linejoin:miter;stroke-width:0.8;"/>
   </g>
   <g id="legend_1">
    <g id="patch_7">
     <path d="M 182.2475 196.25325 
L 290.0725 196.25325 
Q 292.0725 196.25325 292.0725 194.25325 
L 292.0725 48.472 
Q 292.0725 46.472 290.0725 46.472 
L 182.2475 46.472 
Q 180.2475 46.472 180.2475 48.472 
L 180.2475 194.25325 
Q 180.2475 196.25325 182.2475 196.25325 
z
" style="fill:#ffffff;opacity:0.8;stroke:#cccccc;stroke-linejoin:miter;"/>
    </g>
    <g id="line2d_45">
     <path d="M 184.2475 54.570437 
L 204.2475 54.570437 
" style="fill:none;stroke:#1f77b4;stroke-linecap:square;stroke-width:1.5;"/>
    </g>
    <g id="line2d_46"/>
    <g id="text_11">
     <!-- SGD, lr 0.1 -->
     <defs>
      <path d="M 53.515625 70.515625 
L 53.515625 60.890625 
Q 47.90625 63.578125 42.921875 64.890625 
Q 37.9375 66.21875 33.296875 66.21875 
Q 25.25 66.21875 20.875 63.09375 
Q 16.5 59.96875 16.5 54.203125 
Q 16.5 49.359375 19.40625 46.890625 
Q 22.3125 44.4375 30.421875 42.921875 
L 36.375 41.703125 
Q 47.40625 39.59375 52.65625 34.296875 
Q 57.90625 29 57.90625 20.125 
Q 57.90625 9.515625 50.796875 4.046875 
Q 43.703125 -1.421875 29.984375 -1.421875 
Q 24.8125 -1.421875 18.96875 -0.25 
Q 13.140625 0.921875 6.890625 3.21875 
L 6.890625 13.375 
Q 12.890625 10.015625 18.65625 8.296875 
Q 24.421875 6.59375 29.984375 6.59375 
Q 38.421875 6.59375 43.015625 9.90625 
Q 47.609375 13.234375 47.609375 19.390625 
Q 47.609375 24.75 44.3125 27.78125 
Q 41.015625 30.8125 33.5 32.328125 
L 27.484375 33.5 
Q 16.453125 35.6875 11.515625 40.375 
Q 6.59375 45.0625 6.59375 53.421875 
Q 6.59375 63.09375 13.40625 68.65625 
Q 20.21875 74.21875 32.171875 74.21875 
Q 37.3125 74.21875 42.625 73.28125 
Q 47.953125 72.359375 53.515625 70.515625 
z
" id="DejaVuSans-53"/>
      <path d="M 59.515625 10.40625 
L 59.515625 29.984375 
L 43.40625 29.984375 
L 43.40625 38.09375 
L 69.28125 38.09375 
L 69.28125 6.78125 
Q 63.578125 2.734375 56.6875 0.65625 
Q 49.8125 -1.421875 42 -1.421875 
Q 24.90625 -1.421875 15.25 8.5625 
Q 5.609375 18.5625 5.609375 36.375 
Q 5.609375 54.25 15.25 64.234375 
Q 24.90625 74.21875 42 74.21875 
Q 49.125 74.21875 55.546875 72.453125 
Q 61.96875 70.703125 67.390625 67.28125 
L 67.390625 56.78125 
Q 61.921875 61.421875 55.765625 63.765625 
Q 49.609375 66.109375 42.828125 66.109375 
Q 29.4375 66.109375 22.71875 58.640625 
Q 16.015625 51.171875 16.015625 36.375 
Q 16.015625 21.625 22.71875 14.15625 
Q 29.4375 6.6875 42.828125 6.6875 
Q 48.046875 6.6875 52.140625 7.59375 
Q 56.25 8.5 59.515625 10.40625 
z
" id="DejaVuSans-47"/>
      <path d="M 19.671875 64.796875 
L 19.671875 8.109375 
L 31.59375 8.109375 
Q 46.6875 8.109375 53.6875 14.9375 
Q 60.6875 21.78125 60.6875 36.53125 
Q 60.6875 51.171875 53.6875 57.984375 
Q 46.6875 64.796875 31.59375 64.796875 
z
M 9.8125 72.90625 
L 30.078125 72.90625 
Q 51.265625 72.90625 61.171875 64.09375 
Q 71.09375 55.28125 71.09375 36.53125 
Q 71.09375 17.671875 61.125 8.828125 
Q 51.171875 0 30.078125 0 
L 9.8125 0 
z
" id="DejaVuSans-44"/>
      <path d="M 11.71875 12.40625 
L 22.015625 12.40625 
L 22.015625 4 
L 14.015625 -11.625 
L 7.71875 -11.625 
L 11.71875 4 
z
" id="DejaVuSans-2c"/>
      <path d="M 41.109375 46.296875 
Q 39.59375 47.171875 37.8125 47.578125 
Q 36.03125 48 33.890625 48 
Q 26.265625 48 22.1875 43.046875 
Q 18.109375 38.09375 18.109375 28.8125 
L 18.109375 0 
L 9.078125 0 
L 9.078125 54.6875 
L 18.109375 54.6875 
L 18.109375 46.1875 
Q 20.953125 51.171875 25.484375 53.578125 
Q 30.03125 56 36.53125 56 
Q 37.453125 56 38.578125 55.875 
Q 39.703125 55.765625 41.0625 55.515625 
z
" id="DejaVuSans-72"/>
      <path d="M 10.6875 12.40625 
L 21 12.40625 
L 21 0 
L 10.6875 0 
z
" id="DejaVuSans-2e"/>
     </defs>
     <g transform="translate(212.2475 58.070437)scale(0.1 -0.1)">
      <use xlink:href="#DejaVuSans-53"/>
      <use x="63.476562" xlink:href="#DejaVuSans-47"/>
      <use x="140.966797" xlink:href="#DejaVuSans-44"/>
      <use x="217.96875" xlink:href="#DejaVuSans-2c"/>
      <use x="249.755859" xlink:href="#DejaVuSans-20"/>
      <use x="281.542969" xlink:href="#DejaVuSans-6c"/>
      <use x="309.326172" xlink:href="#DejaVuSans-72"/>
      <use x="350.439453" xlink:href="#DejaVuSans-20"/>
      <use x="382.226562" xlink:href="#DejaVuSans-30"/>
      <use x="445.849609" xlink:href="#DejaVuSans-2e"/>
      <use x="477.636719" xlink:href="#DejaVuSans-31"/>
     </g>
    </g>
    <g id="line2d_47">
     <path d="M 184.2475 69.248562 
L 204.2475 69.248562 
" style="fill:none;stroke:#ff7f0e;stroke-linecap:square;stroke-width:1.5;"/>
    </g>
    <g id="line2d_48"/>
    <g id="text_12">
     <!-- SGD, lr 0.01 -->
     <g transform="translate(212.2475 72.748562)scale(0.1 -0.1)">
      <use xlink:href="#DejaVuSans-53"/>
      <use x="63.476562" xlink:href="#DejaVuSans-47"/>
      <use x="140.966797" xlink:href="#DejaVuSans-44"/>
      <use x="217.96875" xlink:href="#DejaVuSans-2c"/>
      <use x="249.755859" xlink:href="#DejaVuSans-20"/>
      <use x="281.542969" xlink:href="#DejaVuSans-6c"/>
      <use x="309.326172" xlink:href="#DejaVuSans-72"/>
      <use x="350.439453" xlink:href="#DejaVuSans-20"/>
      <use x="382.226562" xlink:href="#DejaVuSans-30"/>
      <use x="445.849609" xlink:href="#DejaVuSans-2e"/>
      <use x="477.636719" xlink:href="#DejaVuSans-30"/>
      <use x="541.259766" xlink:href="#DejaVuSans-31"/>
     </g>
    </g>
    <g id="line2d_49">
     <path d="M 184.2475 83.926688 
L 204.2475 83.926688 
" style="fill:none;stroke:#2ca02c;stroke-linecap:square;stroke-width:1.5;"/>
    </g>
    <g id="line2d_50"/>
    <g id="text_13">
     <!-- SGD, lr 0.001 -->
     <g transform="translate(212.2475 87.426688)scale(0.1 -0.1)">
      <use xlink:href="#DejaVuSans-53"/>
      <use x="63.476562" xlink:href="#DejaVuSans-47"/>
      <use x="140.966797" xlink:href="#DejaVuSans-44"/>
      <use x="217.96875" xlink:href="#DejaVuSans-2c"/>
      <use x="249.755859" xlink:href="#DejaVuSans-20"/>
      <use x="281.542969" xlink:href="#DejaVuSans-6c"/>
      <use x="309.326172" xlink:href="#DejaVuSans-72"/>
      <use x="350.439453" xlink:href="#DejaVuSans-20"/>
      <use x="382.226562" xlink:href="#DejaVuSans-30"/>
      <use x="445.849609" xlink:href="#DejaVuSans-2e"/>
      <use x="477.636719" xlink:href="#DejaVuSans-30"/>
      <use x="541.259766" xlink:href="#DejaVuSans-30"/>
      <use x="604.882812" xlink:href="#DejaVuSans-31"/>
     </g>
    </g>
    <g id="line2d_51">
     <path d="M 184.2475 98.604812 
L 204.2475 98.604812 
" style="fill:none;stroke:#d62728;stroke-dasharray:5.55,2.4;stroke-dashoffset:0;stroke-width:1.5;"/>
    </g>
    <g id="line2d_52"/>
    <g id="text_14">
     <!-- SGN, cg iter 40 -->
     <defs>
      <path d="M 9.8125 72.90625 
L 23.09375 72.90625 
L 55.421875 11.921875 
L 55.421875 72.90625 
L 64.984375 72.90625 
L 64.984375 0 
L 51.703125 0 
L 19.390625 60.984375 
L 19.390625 0 
L 9.8125 0 
z
" id="DejaVuSans-4e"/>
      <path d="M 45.40625 27.984375 
Q 45.40625 37.75 41.375 43.109375 
Q 37.359375 48.484375 30.078125 48.484375 
Q 22.859375 48.484375 18.828125 43.109375 
Q 14.796875 37.75 14.796875 27.984375 
Q 14.796875 18.265625 18.828125 12.890625 
Q 22.859375 7.515625 30.078125 7.515625 
Q 37.359375 7.515625 41.375 12.890625 
Q 45.40625 18.265625 45.40625 27.984375 
z
M 54.390625 6.78125 
Q 54.390625 -7.171875 48.1875 -13.984375 
Q 42 -20.796875 29.203125 -20.796875 
Q 24.46875 -20.796875 20.265625 -20.09375 
Q 16.0625 -19.390625 12.109375 -17.921875 
L 12.109375 -9.1875 
Q 16.0625 -11.328125 19.921875 -12.34375 
Q 23.78125 -13.375 27.78125 -13.375 
Q 36.625 -13.375 41.015625 -8.765625 
Q 45.40625 -4.15625 45.40625 5.171875 
L 45.40625 9.625 
Q 42.625 4.78125 38.28125 2.390625 
Q 33.9375 0 27.875 0 
Q 17.828125 0 11.671875 7.65625 
Q 5.515625 15.328125 5.515625 27.984375 
Q 5.515625 40.671875 11.671875 48.328125 
Q 17.828125 56 27.875 56 
Q 33.9375 56 38.28125 53.609375 
Q 42.625 51.21875 45.40625 46.390625 
L 45.40625 54.6875 
L 54.390625 54.6875 
z
" id="DejaVuSans-67"/>
      <path d="M 9.421875 54.6875 
L 18.40625 54.6875 
L 18.40625 0 
L 9.421875 0 
z
M 9.421875 75.984375 
L 18.40625 75.984375 
L 18.40625 64.59375 
L 9.421875 64.59375 
z
" id="DejaVuSans-69"/>
     </defs>
     <g transform="translate(212.2475 102.104812)scale(0.1 -0.1)">
      <use xlink:href="#DejaVuSans-53"/>
      <use x="63.476562" xlink:href="#DejaVuSans-47"/>
      <use x="140.966797" xlink:href="#DejaVuSans-4e"/>
      <use x="215.771484" xlink:href="#DejaVuSans-2c"/>
      <use x="247.558594" xlink:href="#DejaVuSans-20"/>
      <use x="279.345703" xlink:href="#DejaVuSans-63"/>
      <use x="334.326172" xlink:href="#DejaVuSans-67"/>
      <use x="397.802734" xlink:href="#DejaVuSans-20"/>
      <use x="429.589844" xlink:href="#DejaVuSans-69"/>
      <use x="457.373047" xlink:href="#DejaVuSans-74"/>
      <use x="496.582031" xlink:href="#DejaVuSans-65"/>
      <use x="558.105469" xlink:href="#DejaVuSans-72"/>
      <use x="599.21875" xlink:href="#DejaVuSans-20"/>
      <use x="631.005859" xlink:href="#DejaVuSans-34"/>
      <use x="694.628906" xlink:href="#DejaVuSans-30"/>
     </g>
    </g>
    <g id="line2d_53">
     <path d="M 184.2475 113.282938 
L 204.2475 113.282938 
" style="fill:none;stroke:#9467bd;stroke-dasharray:5.55,2.4;stroke-dashoffset:0;stroke-width:1.5;"/>
    </g>
    <g id="line2d_54"/>
    <g id="text_15">
     <!-- SGN, cg iter 30 -->
     <defs>
      <path d="M 40.578125 39.3125 
Q 47.65625 37.796875 51.625 33 
Q 55.609375 28.21875 55.609375 21.1875 
Q 55.609375 10.40625 48.1875 4.484375 
Q 40.765625 -1.421875 27.09375 -1.421875 
Q 22.515625 -1.421875 17.65625 -0.515625 
Q 12.796875 0.390625 7.625 2.203125 
L 7.625 11.71875 
Q 11.71875 9.328125 16.59375 8.109375 
Q 21.484375 6.890625 26.8125 6.890625 
Q 36.078125 6.890625 40.9375 10.546875 
Q 45.796875 14.203125 45.796875 21.1875 
Q 45.796875 27.640625 41.28125 31.265625 
Q 36.765625 34.90625 28.71875 34.90625 
L 20.21875 34.90625 
L 20.21875 43.015625 
L 29.109375 43.015625 
Q 36.375 43.015625 40.234375 45.921875 
Q 44.09375 48.828125 44.09375 54.296875 
Q 44.09375 59.90625 40.109375 62.90625 
Q 36.140625 65.921875 28.71875 65.921875 
Q 24.65625 65.921875 20.015625 65.03125 
Q 15.375 64.15625 9.8125 62.3125 
L 9.8125 71.09375 
Q 15.4375 72.65625 20.34375 73.4375 
Q 25.25 74.21875 29.59375 74.21875 
Q 40.828125 74.21875 47.359375 69.109375 
Q 53.90625 64.015625 53.90625 55.328125 
Q 53.90625 49.265625 50.4375 45.09375 
Q 46.96875 40.921875 40.578125 39.3125 
z
" id="DejaVuSans-33"/>
     </defs>
     <g transform="translate(212.2475 116.782938)scale(0.1 -0.1)">
      <use xlink:href="#DejaVuSans-53"/>
      <use x="63.476562" xlink:href="#DejaVuSans-47"/>
      <use x="140.966797" xlink:href="#DejaVuSans-4e"/>
      <use x="215.771484" xlink:href="#DejaVuSans-2c"/>
      <use x="247.558594" xlink:href="#DejaVuSans-20"/>
      <use x="279.345703" xlink:href="#DejaVuSans-63"/>
      <use x="334.326172" xlink:href="#DejaVuSans-67"/>
      <use x="397.802734" xlink:href="#DejaVuSans-20"/>
      <use x="429.589844" xlink:href="#DejaVuSans-69"/>
      <use x="457.373047" xlink:href="#DejaVuSans-74"/>
      <use x="496.582031" xlink:href="#DejaVuSans-65"/>
      <use x="558.105469" xlink:href="#DejaVuSans-72"/>
      <use x="599.21875" xlink:href="#DejaVuSans-20"/>
      <use x="631.005859" xlink:href="#DejaVuSans-33"/>
      <use x="694.628906" xlink:href="#DejaVuSans-30"/>
     </g>
    </g>
    <g id="line2d_55">
     <path d="M 184.2475 127.961062 
L 204.2475 127.961062 
" style="fill:none;stroke:#8c564b;stroke-dasharray:5.55,2.4;stroke-dashoffset:0;stroke-width:1.5;"/>
    </g>
    <g id="line2d_56"/>
    <g id="text_16">
     <!-- SGN, cg iter 20 -->
     <g transform="translate(212.2475 131.461062)scale(0.1 -0.1)">
      <use xlink:href="#DejaVuSans-53"/>
      <use x="63.476562" xlink:href="#DejaVuSans-47"/>
      <use x="140.966797" xlink:href="#DejaVuSans-4e"/>
      <use x="215.771484" xlink:href="#DejaVuSans-2c"/>
      <use x="247.558594" xlink:href="#DejaVuSans-20"/>
      <use x="279.345703" xlink:href="#DejaVuSans-63"/>
      <use x="334.326172" xlink:href="#DejaVuSans-67"/>
      <use x="397.802734" xlink:href="#DejaVuSans-20"/>
      <use x="429.589844" xlink:href="#DejaVuSans-69"/>
      <use x="457.373047" xlink:href="#DejaVuSans-74"/>
      <use x="496.582031" xlink:href="#DejaVuSans-65"/>
      <use x="558.105469" xlink:href="#DejaVuSans-72"/>
      <use x="599.21875" xlink:href="#DejaVuSans-20"/>
      <use x="631.005859" xlink:href="#DejaVuSans-32"/>
      <use x="694.628906" xlink:href="#DejaVuSans-30"/>
     </g>
    </g>
    <g id="line2d_57">
     <path d="M 184.2475 142.639187 
L 204.2475 142.639187 
" style="fill:none;stroke:#e377c2;stroke-dasharray:5.55,2.4;stroke-dashoffset:0;stroke-width:1.5;"/>
    </g>
    <g id="line2d_58"/>
    <g id="text_17">
     <!-- SGN, cg iter 10 -->
     <g transform="translate(212.2475 146.139187)scale(0.1 -0.1)">
      <use xlink:href="#DejaVuSans-53"/>
      <use x="63.476562" xlink:href="#DejaVuSans-47"/>
      <use x="140.966797" xlink:href="#DejaVuSans-4e"/>
      <use x="215.771484" xlink:href="#DejaVuSans-2c"/>
      <use x="247.558594" xlink:href="#DejaVuSans-20"/>
      <use x="279.345703" xlink:href="#DejaVuSans-63"/>
      <use x="334.326172" xlink:href="#DejaVuSans-67"/>
      <use x="397.802734" xlink:href="#DejaVuSans-20"/>
      <use x="429.589844" xlink:href="#DejaVuSans-69"/>
      <use x="457.373047" xlink:href="#DejaVuSans-74"/>
      <use x="496.582031" xlink:href="#DejaVuSans-65"/>
      <use x="558.105469" xlink:href="#DejaVuSans-72"/>
      <use x="599.21875" xlink:href="#DejaVuSans-20"/>
      <use x="631.005859" xlink:href="#DejaVuSans-31"/>
      <use x="694.628906" xlink:href="#DejaVuSans-30"/>
     </g>
    </g>
    <g id="line2d_59">
     <path d="M 184.2475 157.317312 
L 204.2475 157.317312 
" style="fill:none;stroke:#7f7f7f;stroke-dasharray:5.55,2.4;stroke-dashoffset:0;stroke-width:1.5;"/>
    </g>
    <g id="line2d_60"/>
    <g id="text_18">
     <!-- SGN, cg iter 5 -->
     <defs>
      <path d="M 10.796875 72.90625 
L 49.515625 72.90625 
L 49.515625 64.59375 
L 19.828125 64.59375 
L 19.828125 46.734375 
Q 21.96875 47.46875 24.109375 47.828125 
Q 26.265625 48.1875 28.421875 48.1875 
Q 40.625 48.1875 47.75 41.5 
Q 54.890625 34.8125 54.890625 23.390625 
Q 54.890625 11.625 47.5625 5.09375 
Q 40.234375 -1.421875 26.90625 -1.421875 
Q 22.3125 -1.421875 17.546875 -0.640625 
Q 12.796875 0.140625 7.71875 1.703125 
L 7.71875 11.625 
Q 12.109375 9.234375 16.796875 8.0625 
Q 21.484375 6.890625 26.703125 6.890625 
Q 35.15625 6.890625 40.078125 11.328125 
Q 45.015625 15.765625 45.015625 23.390625 
Q 45.015625 31 40.078125 35.4375 
Q 35.15625 39.890625 26.703125 39.890625 
Q 22.75 39.890625 18.8125 39.015625 
Q 14.890625 38.140625 10.796875 36.28125 
z
" id="DejaVuSans-35"/>
     </defs>
     <g transform="translate(212.2475 160.817312)scale(0.1 -0.1)">
      <use xlink:href="#DejaVuSans-53"/>
      <use x="63.476562" xlink:href="#DejaVuSans-47"/>
      <use x="140.966797" xlink:href="#DejaVuSans-4e"/>
      <use x="215.771484" xlink:href="#DejaVuSans-2c"/>
      <use x="247.558594" xlink:href="#DejaVuSans-20"/>
      <use x="279.345703" xlink:href="#DejaVuSans-63"/>
      <use x="334.326172" xlink:href="#DejaVuSans-67"/>
      <use x="397.802734" xlink:href="#DejaVuSans-20"/>
      <use x="429.589844" xlink:href="#DejaVuSans-69"/>
      <use x="457.373047" xlink:href="#DejaVuSans-74"/>
      <use x="496.582031" xlink:href="#DejaVuSans-65"/>
      <use x="558.105469" xlink:href="#DejaVuSans-72"/>
      <use x="599.21875" xlink:href="#DejaVuSans-20"/>
      <use x="631.005859" xlink:href="#DejaVuSans-35"/>
     </g>
    </g>
    <g id="line2d_61">
     <path d="M 184.2475 171.995437 
L 204.2475 171.995437 
" style="fill:none;stroke:#bcbd22;stroke-dasharray:5.55,2.4;stroke-dashoffset:0;stroke-width:1.5;"/>
    </g>
    <g id="line2d_62"/>
    <g id="text_19">
     <!-- SGN, cg iter 3 -->
     <g transform="translate(212.2475 175.495437)scale(0.1 -0.1)">
      <use xlink:href="#DejaVuSans-53"/>
      <use x="63.476562" xlink:href="#DejaVuSans-47"/>
      <use x="140.966797" xlink:href="#DejaVuSans-4e"/>
      <use x="215.771484" xlink:href="#DejaVuSans-2c"/>
      <use x="247.558594" xlink:href="#DejaVuSans-20"/>
      <use x="279.345703" xlink:href="#DejaVuSans-63"/>
      <use x="334.326172" xlink:href="#DejaVuSans-67"/>
      <use x="397.802734" xlink:href="#DejaVuSans-20"/>
      <use x="429.589844" xlink:href="#DejaVuSans-69"/>
      <use x="457.373047" xlink:href="#DejaVuSans-74"/>
      <use x="496.582031" xlink:href="#DejaVuSans-65"/>
      <use x="558.105469" xlink:href="#DejaVuSans-72"/>
      <use x="599.21875" xlink:href="#DejaVuSans-20"/>
      <use x="631.005859" xlink:href="#DejaVuSans-33"/>
     </g>
    </g>
    <g id="line2d_63">
     <path d="M 184.2475 186.673562 
L 204.2475 186.673562 
" style="fill:none;stroke:#17becf;stroke-dasharray:5.55,2.4;stroke-dashoffset:0;stroke-width:1.5;"/>
    </g>
    <g id="line2d_64"/>
    <g id="text_20">
     <!-- SGN, cg iter 2 -->
     <g transform="translate(212.2475 190.173562)scale(0.1 -0.1)">
      <use xlink:href="#DejaVuSans-53"/>
      <use x="63.476562" xlink:href="#DejaVuSans-47"/>
      <use x="140.966797" xlink:href="#DejaVuSans-4e"/>
      <use x="215.771484" xlink:href="#DejaVuSans-2c"/>
      <use x="247.558594" xlink:href="#DejaVuSans-20"/>
      <use x="279.345703" xlink:href="#DejaVuSans-63"/>
      <use x="334.326172" xlink:href="#DejaVuSans-67"/>
      <use x="397.802734" xlink:href="#DejaVuSans-20"/>
      <use x="429.589844" xlink:href="#DejaVuSans-69"/>
      <use x="457.373047" xlink:href="#DejaVuSans-74"/>
      <use x="496.582031" xlink:href="#DejaVuSans-65"/>
      <use x="558.105469" xlink:href="#DejaVuSans-72"/>
      <use x="599.21875" xlink:href="#DejaVuSans-20"/>
      <use x="631.005859" xlink:href="#DejaVuSans-32"/>
     </g>
    </g>
   </g>
  </g>
 </g>
 <defs>
  <clipPath id="pda9f4b94e9">
   <rect height="266.112" width="357.12" x="57.6" y="41.472"/>
  </clipPath>
 </defs>
</svg>
