<?xml version="1.0" encoding="utf-8" standalone="no"?>
<!DOCTYPE svg PUBLIC "-//W3C//DTD SVG 1.1//EN"
  "http://www.w3.org/Graphics/SVG/1.1/DTD/svg11.dtd">
<!-- Created with matplotlib (http://matplotlib.org/) -->
<svg height="345pt" version="1.1" viewBox="0 0 460 345" width="460pt" xmlns="http://www.w3.org/2000/svg" xmlns:xlink="http://www.w3.org/1999/xlink">
 <defs>
  <style type="text/css">
*{stroke-linecap:butt;stroke-linejoin:round;}
  </style>
 </defs>
 <g id="figure_1">
  <g id="patch_1">
   <path d="M 0 345.6 
L 460.8 345.6 
L 460.8 0 
L 0 0 
z
" style="fill:none;opacity:0;"/>
  </g>
  <g id="axes_1">
   <g id="patch_2">
    <path d="M 57.6 307.584 
L 414.72 307.584 
L 414.72 41.472 
L 57.6 41.472 
z
" style="fill:#ffffff;"/>
   </g>
   <g id="matplotlib.axis_1">
    <g id="xtick_1">
     <g id="line2d_1">
      <path clip-path="url(#p7caa5ac9a6)" d="M 73.585252 307.584 
L 73.585252 41.472 
" style="fill:none;stroke:#b0b0b0;stroke-linecap:square;stroke-width:0.8;"/>
     </g>
     <g id="line2d_2">
      <defs>
       <path d="M 0 0 
L 0 3.5 
" id="m2ceb1524c8" style="stroke:#000000;stroke-width:0.8;"/>
      </defs>
      <g>
       <use style="stroke:#000000;stroke-width:0.8;" x="73.585252" xlink:href="#m2ceb1524c8" y="307.584"/>
      </g>
     </g>
     <g id="text_1">
      <!-- 0 -->
      <defs>
       <path d="M 31.78125 66.40625 
Q 24.171875 66.40625 20.328125 58.90625 
Q 16.5 51.421875 16.5 36.375 
Q 16.5 21.390625 20.328125 13.890625 
Q 24.171875 6.390625 31.78125 6.390625 
Q 39.453125 6.390625 43.28125 13.890625 
Q 47.125 21.390625 47.125 36.375 
Q 47.125 51.421875 43.28125 58.90625 
Q 39.453125 66.40625 31.78125 66.40625 
z
M 31.78125 74.21875 
Q 44.046875 74.21875 50.515625 64.515625 
Q 56.984375 54.828125 56.984375 36.375 
Q 56.984375 17.96875 50.515625 8.265625 
Q 44.046875 -1.421875 31.78125 -1.421875 
Q 19.53125 -1.421875 13.0625 8.265625 
Q 6.59375 17.96875 6.59375 36.375 
Q 6.59375 54.828125 13.0625 64.515625 
Q 19.53125 74.21875 31.78125 74.21875 
z
" id="DejaVuSans-30"/>
      </defs>
      <g transform="translate(70.404002 322.182437)scale(0.1 -0.1)">
       <use xlink:href="#DejaVuSans-30"/>
      </g>
     </g>
    </g>
    <g id="xtick_2">
     <g id="line2d_3">
      <path clip-path="url(#p7caa5ac9a6)" d="M 137.761351 307.584 
L 137.761351 41.472 
" style="fill:none;stroke:#b0b0b0;stroke-linecap:square;stroke-width:0.8;"/>
     </g>
     <g id="line2d_4">
      <g>
       <use style="stroke:#000000;stroke-width:0.8;" x="137.761351" xlink:href="#m2ceb1524c8" y="307.584"/>
      </g>
     </g>
     <g id="text_2">
      <!-- 20 -->
      <defs>
       <path d="M 19.1875 8.296875 
L 53.609375 8.296875 
L 53.609375 0 
L 7.328125 0 
L 7.328125 8.296875 
Q 12.9375 14.109375 22.625 23.890625 
Q 32.328125 33.6875 34.8125 36.53125 
Q 39.546875 41.84375 41.421875 45.53125 
Q 43.3125 49.21875 43.3125 52.78125 
Q 43.3125 58.59375 39.234375 62.25 
Q 35.15625 65.921875 28.609375 65.921875 
Q 23.96875 65.921875 18.8125 64.3125 
Q 13.671875 62.703125 7.8125 59.421875 
L 7.8125 69.390625 
Q 13.765625 71.78125 18.9375 73 
Q 24.125 74.21875 28.421875 74.21875 
Q 39.75 74.21875 46.484375 68.546875 
Q 53.21875 62.890625 53.21875 53.421875 
Q 53.21875 48.921875 51.53125 44.890625 
Q 49.859375 40.875 45.40625 35.40625 
Q 44.1875 33.984375 37.640625 27.21875 
Q 31.109375 20.453125 19.1875 8.296875 
z
" id="DejaVuSans-32"/>
      </defs>
      <g transform="translate(131.398851 322.182437)scale(0.1 -0.1)">
       <use xlink:href="#DejaVuSans-32"/>
       <use x="63.623047" xlink:href="#DejaVuSans-30"/>
      </g>
     </g>
    </g>
    <g id="xtick_3">
     <g id="line2d_5">
      <path clip-path="url(#p7caa5ac9a6)" d="M 201.937449 307.584 
L 201.937449 41.472 
" style="fill:none;stroke:#b0b0b0;stroke-linecap:square;stroke-width:0.8;"/>
     </g>
     <g id="line2d_6">
      <g>
       <use style="stroke:#000000;stroke-width:0.8;" x="201.937449" xlink:href="#m2ceb1524c8" y="307.584"/>
      </g>
     </g>
     <g id="text_3">
      <!-- 40 -->
      <defs>
       <path d="M 37.796875 64.3125 
L 12.890625 25.390625 
L 37.796875 25.390625 
z
M 35.203125 72.90625 
L 47.609375 72.90625 
L 47.609375 25.390625 
L 58.015625 25.390625 
L 58.015625 17.1875 
L 47.609375 17.1875 
L 47.609375 0 
L 37.796875 0 
L 37.796875 17.1875 
L 4.890625 17.1875 
L 4.890625 26.703125 
z
" id="DejaVuSans-34"/>
      </defs>
      <g transform="translate(195.574949 322.182437)scale(0.1 -0.1)">
       <use xlink:href="#DejaVuSans-34"/>
       <use x="63.623047" xlink:href="#DejaVuSans-30"/>
      </g>
     </g>
    </g>
    <g id="xtick_4">
     <g id="line2d_7">
      <path clip-path="url(#p7caa5ac9a6)" d="M 266.113547 307.584 
L 266.113547 41.472 
" style="fill:none;stroke:#b0b0b0;stroke-linecap:square;stroke-width:0.8;"/>
     </g>
     <g id="line2d_8">
      <g>
       <use style="stroke:#000000;stroke-width:0.8;" x="266.113547" xlink:href="#m2ceb1524c8" y="307.584"/>
      </g>
     </g>
     <g id="text_4">
      <!-- 60 -->
      <defs>
       <path d="M 33.015625 40.375 
Q 26.375 40.375 22.484375 35.828125 
Q 18.609375 31.296875 18.609375 23.390625 
Q 18.609375 15.53125 22.484375 10.953125 
Q 26.375 6.390625 33.015625 6.390625 
Q 39.65625 6.390625 43.53125 10.953125 
Q 47.40625 15.53125 47.40625 23.390625 
Q 47.40625 31.296875 43.53125 35.828125 
Q 39.65625 40.375 33.015625 40.375 
z
M 52.59375 71.296875 
L 52.59375 62.3125 
Q 48.875 64.0625 45.09375 64.984375 
Q 41.3125 65.921875 37.59375 65.921875 
Q 27.828125 65.921875 22.671875 59.328125 
Q 17.53125 52.734375 16.796875 39.40625 
Q 19.671875 43.65625 24.015625 45.921875 
Q 28.375 48.1875 33.59375 48.1875 
Q 44.578125 48.1875 50.953125 41.515625 
Q 57.328125 34.859375 57.328125 23.390625 
Q 57.328125 12.15625 50.6875 5.359375 
Q 44.046875 -1.421875 33.015625 -1.421875 
Q 20.359375 -1.421875 13.671875 8.265625 
Q 6.984375 17.96875 6.984375 36.375 
Q 6.984375 53.65625 15.1875 63.9375 
Q 23.390625 74.21875 37.203125 74.21875 
Q 40.921875 74.21875 44.703125 73.484375 
Q 48.484375 72.75 52.59375 71.296875 
z
" id="DejaVuSans-36"/>
      </defs>
      <g transform="translate(259.751047 322.182437)scale(0.1 -0.1)">
       <use xlink:href="#DejaVuSans-36"/>
       <use x="63.623047" xlink:href="#DejaVuSans-30"/>
      </g>
     </g>
    </g>
    <g id="xtick_5">
     <g id="line2d_9">
      <path clip-path="url(#p7caa5ac9a6)" d="M 330.289646 307.584 
L 330.289646 41.472 
" style="fill:none;stroke:#b0b0b0;stroke-linecap:square;stroke-width:0.8;"/>
     </g>
     <g id="line2d_10">
      <g>
       <use style="stroke:#000000;stroke-width:0.8;" x="330.289646" xlink:href="#m2ceb1524c8" y="307.584"/>
      </g>
     </g>
     <g id="text_5">
      <!-- 80 -->
      <defs>
       <path d="M 31.78125 34.625 
Q 24.75 34.625 20.71875 30.859375 
Q 16.703125 27.09375 16.703125 20.515625 
Q 16.703125 13.921875 20.71875 10.15625 
Q 24.75 6.390625 31.78125 6.390625 
Q 38.8125 6.390625 42.859375 10.171875 
Q 46.921875 13.96875 46.921875 20.515625 
Q 46.921875 27.09375 42.890625 30.859375 
Q 38.875 34.625 31.78125 34.625 
z
M 21.921875 38.8125 
Q 15.578125 40.375 12.03125 44.71875 
Q 8.5 49.078125 8.5 55.328125 
Q 8.5 64.0625 14.71875 69.140625 
Q 20.953125 74.21875 31.78125 74.21875 
Q 42.671875 74.21875 48.875 69.140625 
Q 55.078125 64.0625 55.078125 55.328125 
Q 55.078125 49.078125 51.53125 44.71875 
Q 48 40.375 41.703125 38.8125 
Q 48.828125 37.15625 52.796875 32.3125 
Q 56.78125 27.484375 56.78125 20.515625 
Q 56.78125 9.90625 50.3125 4.234375 
Q 43.84375 -1.421875 31.78125 -1.421875 
Q 19.734375 -1.421875 13.25 4.234375 
Q 6.78125 9.90625 6.78125 20.515625 
Q 6.78125 27.484375 10.78125 32.3125 
Q 14.796875 37.15625 21.921875 38.8125 
z
M 18.3125 54.390625 
Q 18.3125 48.734375 21.84375 45.5625 
Q 25.390625 42.390625 31.78125 42.390625 
Q 38.140625 42.390625 41.71875 45.5625 
Q 45.3125 48.734375 45.3125 54.390625 
Q 45.3125 60.0625 41.71875 63.234375 
Q 38.140625 66.40625 31.78125 66.40625 
Q 25.390625 66.40625 21.84375 63.234375 
Q 18.3125 60.0625 18.3125 54.390625 
z
" id="DejaVuSans-38"/>
      </defs>
      <g transform="translate(323.927146 322.182437)scale(0.1 -0.1)">
       <use xlink:href="#DejaVuSans-38"/>
       <use x="63.623047" xlink:href="#DejaVuSans-30"/>
      </g>
     </g>
    </g>
    <g id="xtick_6">
     <g id="line2d_11">
      <path clip-path="url(#p7caa5ac9a6)" d="M 394.465744 307.584 
L 394.465744 41.472 
" style="fill:none;stroke:#b0b0b0;stroke-linecap:square;stroke-width:0.8;"/>
     </g>
     <g id="line2d_12">
      <g>
       <use style="stroke:#000000;stroke-width:0.8;" x="394.465744" xlink:href="#m2ceb1524c8" y="307.584"/>
      </g>
     </g>
     <g id="text_6">
      <!-- 100 -->
      <defs>
       <path d="M 12.40625 8.296875 
L 28.515625 8.296875 
L 28.515625 63.921875 
L 10.984375 60.40625 
L 10.984375 69.390625 
L 28.421875 72.90625 
L 38.28125 72.90625 
L 38.28125 8.296875 
L 54.390625 8.296875 
L 54.390625 0 
L 12.40625 0 
z
" id="DejaVuSans-31"/>
      </defs>
      <g transform="translate(384.921994 322.182437)scale(0.1 -0.1)">
       <use xlink:href="#DejaVuSans-31"/>
       <use x="63.623047" xlink:href="#DejaVuSans-30"/>
       <use x="127.246094" xlink:href="#DejaVuSans-30"/>
      </g>
     </g>
    </g>
    <g id="text_7">
     <!-- sec -->
     <defs>
      <path d="M 44.28125 53.078125 
L 44.28125 44.578125 
Q 40.484375 46.53125 36.375 47.5 
Q 32.28125 48.484375 27.875 48.484375 
Q 21.1875 48.484375 17.84375 46.4375 
Q 14.5 44.390625 14.5 40.28125 
Q 14.5 37.15625 16.890625 35.375 
Q 19.28125 33.59375 26.515625 31.984375 
L 29.59375 31.296875 
Q 39.15625 29.25 43.1875 25.515625 
Q 47.21875 21.78125 47.21875 15.09375 
Q 47.21875 7.46875 41.1875 3.015625 
Q 35.15625 -1.421875 24.609375 -1.421875 
Q 20.21875 -1.421875 15.453125 -0.5625 
Q 10.6875 0.296875 5.421875 2 
L 5.421875 11.28125 
Q 10.40625 8.6875 15.234375 7.390625 
Q 20.0625 6.109375 24.8125 6.109375 
Q 31.15625 6.109375 34.5625 8.28125 
Q 37.984375 10.453125 37.984375 14.40625 
Q 37.984375 18.0625 35.515625 20.015625 
Q 33.0625 21.96875 24.703125 23.78125 
L 21.578125 24.515625 
Q 13.234375 26.265625 9.515625 29.90625 
Q 5.8125 33.546875 5.8125 39.890625 
Q 5.8125 47.609375 11.28125 51.796875 
Q 16.75 56 26.8125 56 
Q 31.78125 56 36.171875 55.265625 
Q 40.578125 54.546875 44.28125 53.078125 
z
" id="DejaVuSans-73"/>
      <path d="M 56.203125 29.59375 
L 56.203125 25.203125 
L 14.890625 25.203125 
Q 15.484375 15.921875 20.484375 11.0625 
Q 25.484375 6.203125 34.421875 6.203125 
Q 39.59375 6.203125 44.453125 7.46875 
Q 49.3125 8.734375 54.109375 11.28125 
L 54.109375 2.78125 
Q 49.265625 0.734375 44.1875 -0.34375 
Q 39.109375 -1.421875 33.890625 -1.421875 
Q 20.796875 -1.421875 13.15625 6.1875 
Q 5.515625 13.8125 5.515625 26.8125 
Q 5.515625 40.234375 12.765625 48.109375 
Q 20.015625 56 32.328125 56 
Q 43.359375 56 49.78125 48.890625 
Q 56.203125 41.796875 56.203125 29.59375 
z
M 47.21875 32.234375 
Q 47.125 39.59375 43.09375 43.984375 
Q 39.0625 48.390625 32.421875 48.390625 
Q 24.90625 48.390625 20.390625 44.140625 
Q 15.875 39.890625 15.1875 32.171875 
z
" id="DejaVuSans-65"/>
      <path d="M 48.78125 52.59375 
L 48.78125 44.1875 
Q 44.96875 46.296875 41.140625 47.34375 
Q 37.3125 48.390625 33.40625 48.390625 
Q 24.65625 48.390625 19.8125 42.84375 
Q 14.984375 37.3125 14.984375 27.296875 
Q 14.984375 17.28125 19.8125 11.734375 
Q 24.65625 6.203125 33.40625 6.203125 
Q 37.3125 6.203125 41.140625 7.25 
Q 44.96875 8.296875 48.78125 10.40625 
L 48.78125 2.09375 
Q 45.015625 0.34375 40.984375 -0.53125 
Q 36.96875 -1.421875 32.421875 -1.421875 
Q 20.0625 -1.421875 12.78125 6.34375 
Q 5.515625 14.109375 5.515625 27.296875 
Q 5.515625 40.671875 12.859375 48.328125 
Q 20.21875 56 33.015625 56 
Q 37.15625 56 41.109375 55.140625 
Q 45.0625 54.296875 48.78125 52.59375 
z
" id="DejaVuSans-63"/>
     </defs>
     <g transform="translate(227.729531 335.860562)scale(0.1 -0.1)">
      <use xlink:href="#DejaVuSans-73"/>
      <use x="52.099609" xlink:href="#DejaVuSans-65"/>
      <use x="113.623047" xlink:href="#DejaVuSans-63"/>
     </g>
    </g>
   </g>
   <g id="matplotlib.axis_2">
    <g id="ytick_1">
     <g id="line2d_13">
      <path clip-path="url(#p7caa5ac9a6)" d="M 57.6 167.990386 
L 414.72 167.990386 
" style="fill:none;stroke:#b0b0b0;stroke-linecap:square;stroke-width:0.8;"/>
     </g>
     <g id="line2d_14">
      <defs>
       <path d="M 0 0 
L -3.5 0 
" id="m9fb7e70833" style="stroke:#000000;stroke-width:0.8;"/>
      </defs>
      <g>
       <use style="stroke:#000000;stroke-width:0.8;" x="57.6" xlink:href="#m9fb7e70833" y="167.990386"/>
      </g>
     </g>
     <g id="text_8">
      <!-- $\mathdefault{10^{0}}$ -->
      <g transform="translate(33 171.789604)scale(0.1 -0.1)">
       <use transform="translate(0 0.765625)" xlink:href="#DejaVuSans-31"/>
       <use transform="translate(63.623047 0.765625)" xlink:href="#DejaVuSans-30"/>
       <use transform="translate(128.203125 39.046875)scale(0.7)" xlink:href="#DejaVuSans-30"/>
      </g>
     </g>
    </g>
    <g id="ytick_2">
     <g id="line2d_15">
      <path clip-path="url(#p7caa5ac9a6)" d="M 57.6 300.018231 
L 414.72 300.018231 
" style="fill:none;stroke:#b0b0b0;stroke-linecap:square;stroke-width:0.8;"/>
     </g>
     <g id="line2d_16">
      <defs>
       <path d="M 0 0 
L -2 0 
" id="mc7c2eb24e4" style="stroke:#000000;stroke-width:0.6;"/>
      </defs>
      <g>
       <use style="stroke:#000000;stroke-width:0.6;" x="57.6" xlink:href="#mc7c2eb24e4" y="300.018231"/>
      </g>
     </g>
    </g>
    <g id="ytick_3">
     <g id="line2d_17">
      <path clip-path="url(#p7caa5ac9a6)" d="M 57.6 268.47097 
L 414.72 268.47097 
" style="fill:none;stroke:#b0b0b0;stroke-linecap:square;stroke-width:0.8;"/>
     </g>
     <g id="line2d_18">
      <g>
       <use style="stroke:#000000;stroke-width:0.6;" x="57.6" xlink:href="#mc7c2eb24e4" y="268.47097"/>
      </g>
     </g>
    </g>
    <g id="ytick_4">
     <g id="line2d_19">
      <path clip-path="url(#p7caa5ac9a6)" d="M 57.6 244.001013 
L 414.72 244.001013 
" style="fill:none;stroke:#b0b0b0;stroke-linecap:square;stroke-width:0.8;"/>
     </g>
     <g id="line2d_20">
      <g>
       <use style="stroke:#000000;stroke-width:0.6;" x="57.6" xlink:href="#mc7c2eb24e4" y="244.001013"/>
      </g>
     </g>
    </g>
    <g id="ytick_5">
     <g id="line2d_21">
      <path clip-path="url(#p7caa5ac9a6)" d="M 57.6 224.007603 
L 414.72 224.007603 
" style="fill:none;stroke:#b0b0b0;stroke-linecap:square;stroke-width:0.8;"/>
     </g>
     <g id="line2d_22">
      <g>
       <use style="stroke:#000000;stroke-width:0.6;" x="57.6" xlink:href="#mc7c2eb24e4" y="224.007603"/>
      </g>
     </g>
    </g>
    <g id="ytick_6">
     <g id="line2d_23">
      <path clip-path="url(#p7caa5ac9a6)" d="M 57.6 207.103416 
L 414.72 207.103416 
" style="fill:none;stroke:#b0b0b0;stroke-linecap:square;stroke-width:0.8;"/>
     </g>
     <g id="line2d_24">
      <g>
       <use style="stroke:#000000;stroke-width:0.6;" x="57.6" xlink:href="#mc7c2eb24e4" y="207.103416"/>
      </g>
     </g>
    </g>
    <g id="ytick_7">
     <g id="line2d_25">
      <path clip-path="url(#p7caa5ac9a6)" d="M 57.6 192.460342 
L 414.72 192.460342 
" style="fill:none;stroke:#b0b0b0;stroke-linecap:square;stroke-width:0.8;"/>
     </g>
     <g id="line2d_26">
      <g>
       <use style="stroke:#000000;stroke-width:0.6;" x="57.6" xlink:href="#mc7c2eb24e4" y="192.460342"/>
      </g>
     </g>
    </g>
    <g id="ytick_8">
     <g id="line2d_27">
      <path clip-path="url(#p7caa5ac9a6)" d="M 57.6 179.544236 
L 414.72 179.544236 
" style="fill:none;stroke:#b0b0b0;stroke-linecap:square;stroke-width:0.8;"/>
     </g>
     <g id="line2d_28">
      <g>
       <use style="stroke:#000000;stroke-width:0.6;" x="57.6" xlink:href="#mc7c2eb24e4" y="179.544236"/>
      </g>
     </g>
    </g>
    <g id="ytick_9">
     <g id="line2d_29">
      <path clip-path="url(#p7caa5ac9a6)" d="M 57.6 91.979758 
L 414.72 91.979758 
" style="fill:none;stroke:#b0b0b0;stroke-linecap:square;stroke-width:0.8;"/>
     </g>
     <g id="line2d_30">
      <g>
       <use style="stroke:#000000;stroke-width:0.6;" x="57.6" xlink:href="#mc7c2eb24e4" y="91.979758"/>
      </g>
     </g>
    </g>
    <g id="ytick_10">
     <g id="line2d_31">
      <path clip-path="url(#p7caa5ac9a6)" d="M 57.6 47.516391 
L 414.72 47.516391 
" style="fill:none;stroke:#b0b0b0;stroke-linecap:square;stroke-width:0.8;"/>
     </g>
     <g id="line2d_32">
      <g>
       <use style="stroke:#000000;stroke-width:0.6;" x="57.6" xlink:href="#mc7c2eb24e4" y="47.516391"/>
      </g>
     </g>
    </g>
    <g id="text_9">
     <!-- test loss -->
     <defs>
      <path d="M 18.3125 70.21875 
L 18.3125 54.6875 
L 36.8125 54.6875 
L 36.8125 47.703125 
L 18.3125 47.703125 
L 18.3125 18.015625 
Q 18.3125 11.328125 20.140625 9.421875 
Q 21.96875 7.515625 27.59375 7.515625 
L 36.8125 7.515625 
L 36.8125 0 
L 27.59375 0 
Q 17.1875 0 13.234375 3.875 
Q 9.28125 7.765625 9.28125 18.015625 
L 9.28125 47.703125 
L 2.6875 47.703125 
L 2.6875 54.6875 
L 9.28125 54.6875 
L 9.28125 70.21875 
z
" id="DejaVuSans-74"/>
      <path id="DejaVuSans-20"/>
      <path d="M 9.421875 75.984375 
L 18.40625 75.984375 
L 18.40625 0 
L 9.421875 0 
z
" id="DejaVuSans-6c"/>
      <path d="M 30.609375 48.390625 
Q 23.390625 48.390625 19.1875 42.75 
Q 14.984375 37.109375 14.984375 27.296875 
Q 14.984375 17.484375 19.15625 11.84375 
Q 23.34375 6.203125 30.609375 6.203125 
Q 37.796875 6.203125 41.984375 11.859375 
Q 46.1875 17.53125 46.1875 27.296875 
Q 46.1875 37.015625 41.984375 42.703125 
Q 37.796875 48.390625 30.609375 48.390625 
z
M 30.609375 56 
Q 42.328125 56 49.015625 48.375 
Q 55.71875 40.765625 55.71875 27.296875 
Q 55.71875 13.875 49.015625 6.21875 
Q 42.328125 -1.421875 30.609375 -1.421875 
Q 18.84375 -1.421875 12.171875 6.21875 
Q 5.515625 13.875 5.515625 27.296875 
Q 5.515625 40.765625 12.171875 48.375 
Q 18.84375 56 30.609375 56 
z
" id="DejaVuSans-6f"/>
     </defs>
     <g transform="translate(26.920312 195.376438)rotate(-90)scale(0.1 -0.1)">
      <use xlink:href="#DejaVuSans-74"/>
      <use x="39.208984" xlink:href="#DejaVuSans-65"/>
      <use x="100.732422" xlink:href="#DejaVuSans-73"/>
      <use x="152.832031" xlink:href="#DejaVuSans-74"/>
      <use x="192.041016" xlink:href="#DejaVuSans-20"/>
      <use x="223.828125" xlink:href="#DejaVuSans-6c"/>
      <use x="251.611328" xlink:href="#DejaVuSans-6f"/>
      <use x="312.792969" xlink:href="#DejaVuSans-73"/>
      <use x="364.892578" xlink:href="#DejaVuSans-73"/>
     </g>
    </g>
   </g>
   <g id="line2d_33">
    <path clip-path="url(#p7caa5ac9a6)" d="M 73.837731 198.167811 
L 74.090209 236.264028 
L 74.342687 239.80515 
L 75.100121 242.970946 
L 75.857556 243.311556 
L 76.110034 243.1982 
L 76.362512 243.488535 
L 76.61499 243.16273 
L 76.867469 243.800692 
L 77.119947 243.319855 
L 77.372425 243.762498 
L 77.624903 243.289321 
L 78.129859 243.469901 
L 78.382338 243.595009 
L 78.634816 243.535527 
L 78.887294 242.717042 
L 79.139772 242.772286 
L 79.644728 243.524967 
L 79.897207 243.849284 
L 80.149685 243.81631 
L 80.402163 243.398656 
L 80.654641 241.570487 
L 80.907119 242.89517 
L 81.159597 243.490616 
L 81.412076 243.115628 
L 81.664554 242.333532 
L 81.917032 243.276191 
L 82.16951 243.010003 
L 82.421988 243.454591 
L 82.674466 243.320304 
L 82.926945 243.693542 
L 83.179423 241.891457 
L 83.431901 243.570211 
L 83.936857 243.299301 
L 84.189335 243.52881 
L 84.441814 242.74849 
L 84.694292 243.188819 
L 84.94677 242.711684 
L 85.199248 243.661531 
L 85.704204 243.032527 
L 85.956683 243.483231 
L 86.209161 242.58342 
L 86.461639 243.645012 
L 86.714117 243.846721 
L 86.966595 242.773776 
L 87.219073 242.941082 
L 87.471552 242.692012 
L 87.976508 242.961726 
L 88.228986 242.78863 
L 88.481464 243.670269 
L 88.986421 242.986959 
L 89.238899 243.631851 
L 89.491377 243.08469 
L 89.743855 243.648045 
L 89.996333 243.121803 
L 90.248811 243.884466 
L 90.50129 243.340998 
L 90.753768 243.199353 
L 91.006246 243.515757 
L 91.258724 243.548864 
L 91.511202 242.902368 
L 91.76368 243.470416 
L 92.016159 242.374591 
L 92.268637 243.553474 
L 92.521115 242.893063 
L 92.773593 243.566724 
L 93.026071 243.521628 
L 93.278549 243.651029 
L 93.531028 243.500338 
L 93.783506 243.511514 
L 94.035984 243.87699 
L 94.288462 243.85525 
L 94.54094 243.409971 
L 94.793418 243.251994 
L 95.045897 243.889766 
L 95.298375 242.971875 
L 95.550853 243.026173 
L 95.803331 243.416365 
L 96.055809 243.587759 
L 96.308287 243.298055 
L 97.065722 243.657683 
L 97.3182 243.653957 
L 97.570678 243.474184 
L 97.823156 243.788679 
L 98.075635 243.644528 
L 98.580591 242.249942 
L 98.833069 243.50902 
L 99.085547 243.650205 
L 99.590504 243.54843 
L 99.842982 243.882154 
L 100.09546 243.431225 
L 100.347938 243.78533 
L 101.105373 243.567351 
L 101.610329 242.455814 
L 101.862807 243.43337 
L 102.115285 243.838691 
L 102.367763 243.649785 
L 102.620242 243.882243 
L 102.87272 243.258225 
L 103.125198 243.705008 
L 103.377676 242.974905 
L 103.630154 242.829696 
L 104.135111 243.234479 
L 104.387589 242.593181 
L 104.640067 243.535859 
L 104.892545 243.41217 
L 105.145023 242.861949 
L 105.397501 243.203944 
L 105.64998 242.889503 
L 106.407414 243.73229 
L 106.659892 242.685027 
L 106.91237 243.204659 
L 107.164849 242.917804 
L 107.417327 243.618679 
L 107.669805 243.239436 
L 107.922283 243.864482 
L 108.174761 243.781601 
L 108.427239 243.564944 
L 108.679718 242.648362 
L 108.932196 243.470023 
L 109.184674 243.380985 
L 109.437152 242.961347 
L 109.68963 243.404943 
L 109.942108 242.92636 
L 110.194587 243.758973 
L 110.447065 243.514385 
L 110.952021 243.708552 
L 111.204499 242.851358 
L 111.456977 243.490015 
L 111.709456 243.744624 
L 112.214412 242.992368 
L 112.46689 242.884894 
L 112.719368 243.200238 
L 112.971846 243.328877 
L 113.224325 243.866511 
L 113.476803 243.70163 
L 113.981759 243.081125 
L 114.234237 243.25785 
L 114.486715 243.10786 
L 114.739194 243.248704 
L 114.991672 242.839671 
L 115.24415 243.844624 
L 115.496628 243.526759 
L 115.749106 243.659934 
L 116.001584 243.577967 
L 116.506541 243.83622 
L 116.759019 243.088545 
L 117.011497 242.807476 
L 117.263975 243.509719 
L 117.516453 242.553449 
L 117.768932 243.669482 
L 118.02141 243.70268 
L 118.273888 243.585968 
L 118.526366 243.339696 
L 118.778844 243.53093 
L 119.031322 243.25695 
L 119.283801 243.829073 
L 119.536279 242.719741 
L 119.788757 243.465162 
L 120.041235 242.390512 
L 120.293713 243.837875 
L 120.546191 243.443622 
L 120.79867 243.680312 
L 121.051148 243.539246 
L 121.303626 243.557109 
L 121.556104 243.852249 
L 122.313539 243.511701 
L 122.566017 243.657006 
L 122.818495 243.485183 
L 123.070973 243.50131 
L 123.323451 243.859403 
L 123.575929 243.545067 
L 123.828408 242.515776 
L 124.080886 243.487945 
L 124.333364 241.589635 
L 124.585842 243.181294 
L 124.83832 243.713988 
L 125.090798 242.778801 
L 125.343277 242.783782 
L 125.595755 243.730804 
L 125.848233 243.139466 
L 126.100711 243.533854 
L 126.353189 242.850403 
L 126.605667 243.580101 
L 126.858146 243.671429 
L 127.363102 243.447251 
L 127.61558 243.835324 
L 128.120536 243.377786 
L 128.373015 243.456739 
L 128.625493 243.395606 
L 129.130449 243.729273 
L 129.887884 243.301923 
L 130.140362 243.656794 
L 130.39284 243.255287 
L 130.645318 243.816343 
L 130.897796 242.670445 
L 131.150274 243.545016 
L 131.402753 243.256299 
L 131.655231 243.394264 
L 131.907709 243.358905 
L 132.160187 242.971842 
L 132.412665 243.709177 
L 132.665143 243.2388 
L 132.917622 243.432559 
L 133.1701 243.095909 
L 133.422578 243.227597 
L 133.675056 243.701606 
L 134.180012 243.691873 
L 134.432491 242.713295 
L 134.684969 243.5728 
L 134.937447 243.547186 
L 135.189925 243.671397 
L 135.442403 243.041738 
L 135.694881 243.099014 
L 135.94736 242.844906 
L 136.199838 243.524971 
L 136.452316 243.549612 
L 136.704794 243.461386 
L 136.957272 243.733775 
L 137.967185 243.395906 
L 138.472141 243.547983 
L 138.977098 243.445489 
L 139.229576 243.777892 
L 139.482054 243.271316 
L 139.734532 243.192571 
L 139.98701 243.754505 
L 140.239488 243.359824 
L 140.491967 243.628713 
L 140.996923 243.244073 
L 141.249401 242.325915 
L 141.501879 243.683713 
L 141.754357 243.529279 
L 142.006836 243.721652 
L 142.259314 242.52336 
L 142.511792 243.599214 
L 142.76427 243.572559 
L 143.016748 243.252955 
L 143.269226 243.680347 
L 143.521705 243.32104 
L 143.774183 243.174443 
L 144.026661 243.639219 
L 144.279139 243.386036 
L 144.531617 243.634946 
L 144.784095 243.432099 
L 145.036574 243.746886 
L 145.289052 243.675754 
L 145.54153 243.111504 
L 146.046486 243.852946 
L 146.298964 243.614759 
L 146.551443 243.623 
L 146.803921 243.285157 
L 147.308877 243.522418 
L 147.561355 243.237909 
L 147.813833 242.346253 
L 148.066312 243.531051 
L 148.31879 243.159109 
L 148.823746 243.84037 
L 149.328702 243.272984 
L 149.581181 242.521531 
L 149.833659 243.689833 
L 150.086137 243.668097 
L 150.591093 243.047189 
L 150.843571 243.696764 
L 151.348528 242.054672 
L 151.601006 243.545342 
L 152.105962 242.993077 
L 152.35844 243.721441 
L 152.610919 242.77585 
L 152.863397 243.54833 
L 153.620831 242.927201 
L 153.873309 243.397221 
L 154.378266 243.69644 
L 154.883222 243.374926 
L 155.640657 243.767056 
L 155.893135 243.106278 
L 156.145613 243.783025 
L 156.398091 243.481027 
L 156.650569 243.628712 
L 156.903047 242.91921 
L 157.155526 243.309755 
L 157.660482 243.556642 
L 157.91296 243.811221 
L 158.165438 243.41043 
L 158.417916 243.240518 
L 158.670395 242.805257 
L 158.922873 243.316079 
L 159.175351 243.380544 
L 159.427829 243.70238 
L 159.680307 243.349833 
L 160.185264 243.612163 
L 160.437742 243.195789 
L 160.69022 243.450714 
L 160.942698 243.16808 
L 161.195176 243.712726 
L 161.447654 243.539199 
L 161.700133 243.504719 
L 162.205089 242.794605 
L 162.457567 243.767363 
L 162.962523 242.721679 
L 163.215001 243.828026 
L 163.46748 243.332254 
L 163.719958 243.850982 
L 163.972436 243.448706 
L 164.224914 243.282507 
L 164.477392 243.508796 
L 164.72987 243.921006 
L 165.234827 243.505078 
L 165.487305 243.740956 
L 165.739783 243.655941 
L 165.992261 243.925132 
L 166.244739 243.750166 
L 166.497218 243.867033 
L 166.749696 242.988605 
L 167.002174 243.667346 
L 167.254652 243.130804 
L 167.759608 243.892071 
L 168.012087 243.087283 
L 168.264565 243.498812 
L 168.517043 243.589542 
L 168.769521 243.543205 
L 169.021999 243.773698 
L 169.274477 243.819695 
L 169.526956 242.919813 
L 169.779434 243.472548 
L 170.28439 243.904944 
L 170.536868 243.545476 
L 170.789346 243.827468 
L 171.041825 243.668667 
L 171.294303 243.825373 
L 171.546781 243.42938 
L 172.051737 243.617707 
L 172.304215 243.55531 
L 172.556694 243.615325 
L 172.809172 243.453802 
L 173.06165 243.453569 
L 173.314128 243.920245 
L 173.566606 243.789556 
L 173.819084 243.019381 
L 174.071563 243.65109 
L 174.576519 243.680753 
L 174.828997 242.697382 
L 175.081475 243.376673 
L 175.333953 243.69777 
L 175.586432 243.690396 
L 175.83891 242.824575 
L 176.343866 243.54008 
L 176.596344 243.241906 
L 176.848822 243.14959 
L 177.101301 243.332236 
L 177.353779 243.739567 
L 177.606257 243.295477 
L 177.858735 243.436042 
L 178.111213 243.901717 
L 178.363691 243.812696 
L 178.61617 243.56557 
L 178.868648 243.160609 
L 179.121126 243.901339 
L 179.373604 243.372452 
L 179.626082 243.388919 
L 179.87856 243.623796 
L 180.131039 243.690463 
L 180.383517 243.400614 
L 180.635995 243.410223 
L 180.888473 243.785466 
L 181.140951 242.412991 
L 181.393429 243.826919 
L 181.645908 243.867186 
L 181.898386 243.480327 
L 182.908298 243.771699 
L 183.160777 243.196333 
L 183.413255 243.833345 
L 183.665733 242.86561 
L 183.918211 243.807258 
L 184.423167 243.599157 
L 184.675646 243.163153 
L 184.928124 243.890286 
L 185.180602 242.965731 
L 185.43308 243.11129 
L 185.685558 243.833175 
L 185.938036 243.799244 
L 186.190515 243.644114 
L 186.442993 243.725046 
L 186.695471 243.563928 
L 186.947949 243.804987 
L 187.200427 243.313869 
L 187.705384 243.893002 
L 187.957862 243.426996 
L 188.21034 243.603336 
L 188.462818 243.591939 
L 188.715296 243.233462 
L 188.967774 243.074759 
L 189.220253 243.790639 
L 189.472731 243.844614 
L 189.725209 243.59134 
L 190.230165 243.84613 
L 190.482643 243.091853 
L 191.240078 243.791666 
L 191.492556 243.562398 
L 191.745034 243.880699 
L 191.997512 242.71362 
L 192.249991 243.723066 
L 192.754947 243.641256 
L 193.007425 243.108868 
L 193.259903 243.64987 
L 193.512381 243.304127 
L 193.76486 243.69367 
L 194.017338 243.876757 
L 194.269816 243.771833 
L 194.522294 243.185454 
L 194.774772 243.797974 
L 195.279729 243.735602 
L 195.532207 242.919474 
L 195.784685 243.748979 
L 196.037163 243.701816 
L 196.289641 243.402067 
L 196.542119 243.701479 
L 196.794598 243.306015 
L 197.047076 243.756398 
L 197.299554 243.61046 
L 197.552032 243.29967 
L 197.80451 243.766758 
L 198.056988 243.830582 
L 198.309467 243.325257 
L 198.561945 243.760755 
L 198.814423 243.499154 
L 199.066901 243.458428 
L 199.319379 243.698742 
L 199.571857 243.532287 
L 199.824336 243.525463 
L 200.076814 243.84104 
L 200.329292 243.904264 
L 200.58177 243.559191 
L 201.086726 243.885436 
L 201.339205 243.511537 
L 201.844161 243.594837 
L 202.096639 243.96425 
L 202.349117 243.613847 
L 202.601595 243.71182 
L 202.854074 243.958819 
L 203.106552 242.967713 
L 203.35903 243.74072 
L 204.116464 243.637191 
L 205.126377 243.771893 
L 205.378855 242.980411 
L 205.631333 243.687929 
L 205.883812 243.548925 
L 206.641246 243.740499 
L 206.893724 243.948487 
L 207.651159 243.246336 
L 207.903637 243.28167 
L 208.408593 243.896251 
L 208.661071 243.586864 
L 208.91355 243.040601 
L 209.166028 243.942686 
L 209.418506 243.325434 
L 209.670984 243.841335 
L 209.923462 243.907328 
L 210.17594 243.76912 
L 210.428419 243.500205 
L 210.680897 243.645076 
L 210.933375 243.066297 
L 211.185853 243.621551 
L 211.438331 243.764798 
L 211.690809 243.359146 
L 211.943288 243.688802 
L 212.195766 243.648327 
L 212.448244 243.847024 
L 212.700722 243.493353 
L 212.9532 243.854272 
L 213.458157 243.461334 
L 213.710635 243.591903 
L 213.963113 243.881187 
L 214.215591 243.832645 
L 214.468069 243.182952 
L 214.720547 243.81497 
L 214.973026 243.63546 
L 215.225504 243.921591 
L 215.477982 243.630366 
L 215.73046 243.908491 
L 215.982938 243.755254 
L 216.235416 242.854812 
L 216.487895 243.440045 
L 216.740373 243.735051 
L 216.992851 243.765175 
L 217.245329 243.471207 
L 217.497807 242.751992 
L 217.750285 243.457139 
L 218.255242 243.394468 
L 218.50772 243.836269 
L 218.760198 243.956771 
L 219.012676 243.297627 
L 219.265154 243.796046 
L 219.517633 243.952528 
L 219.770111 243.592959 
L 220.022589 243.741895 
L 220.275067 243.502596 
L 220.527545 243.836853 
L 220.780023 243.821128 
L 221.032502 243.577248 
L 221.28498 243.095093 
L 221.537458 243.541745 
L 221.789936 243.454774 
L 222.042414 243.907909 
L 222.294892 243.388159 
L 222.547371 243.349098 
L 222.799849 243.628096 
L 223.052327 243.445154 
L 223.304805 243.493247 
L 223.557283 243.37441 
L 223.809761 243.855813 
L 224.06224 243.362472 
L 224.314718 243.838159 
L 224.567196 242.791584 
L 224.819674 242.919123 
L 225.072152 243.455963 
L 225.32463 243.712914 
L 225.577109 243.465972 
L 225.829587 243.551186 
L 226.082065 243.756739 
L 226.334543 243.308768 
L 226.587021 243.806287 
L 227.344456 243.574553 
L 227.596934 243.871602 
L 227.849412 243.126973 
L 228.10189 243.90207 
L 228.354368 243.781505 
L 228.606847 243.2469 
L 228.859325 243.599027 
L 229.111803 243.667432 
L 229.364281 243.871725 
L 229.616759 243.394827 
L 230.121716 243.754234 
L 230.374194 243.711758 
L 230.626672 243.34147 
L 230.87915 243.425279 
L 231.131628 244.011878 
L 231.384106 243.368 
L 231.636585 243.811884 
L 231.889063 243.506251 
L 232.141541 242.744902 
L 232.394019 243.597268 
L 232.646497 243.842121 
L 232.898975 243.643623 
L 233.151454 243.252053 
L 233.403932 243.903711 
L 233.65641 243.350728 
L 233.908888 243.846155 
L 234.161366 243.777844 
L 234.666323 243.473492 
L 234.918801 242.61876 
L 235.171279 243.760656 
L 235.423757 243.692464 
L 235.676235 243.313622 
L 235.928713 243.195947 
L 236.181192 243.914955 
L 236.43367 242.704536 
L 236.686148 243.581575 
L 236.938626 243.659548 
L 237.443582 243.196853 
L 237.696061 243.456001 
L 238.201017 243.573732 
L 238.705973 243.32254 
L 239.21093 243.904218 
L 239.463408 242.831488 
L 239.715886 243.696684 
L 239.968364 243.598074 
L 240.220842 243.359329 
L 240.47332 243.768832 
L 240.725799 243.942757 
L 240.978277 243.678979 
L 241.230755 243.021667 
L 241.483233 243.284299 
L 241.735711 243.356555 
L 241.988189 243.846877 
L 242.493146 243.1911 
L 242.745624 243.200296 
L 242.998102 243.89062 
L 243.25058 243.623663 
L 243.503058 243.555329 
L 243.755537 243.750523 
L 244.260493 243.425887 
L 244.765449 243.773578 
L 245.522884 243.761718 
L 245.775362 243.751187 
L 246.280318 243.316805 
L 246.532796 243.568622 
L 246.785275 243.381163 
L 247.037753 243.686097 
L 247.542709 243.788454 
L 247.795187 243.587669 
L 248.047665 243.840021 
L 248.300144 243.777047 
L 248.552622 243.877283 
L 248.8051 243.776428 
L 249.057578 243.455475 
L 249.310056 242.871032 
L 249.562534 243.634717 
L 249.815013 243.77279 
L 250.067491 243.411208 
L 250.319969 243.662798 
L 250.572447 243.667186 
L 250.824925 243.789773 
L 251.077403 243.703718 
L 251.329882 243.40105 
L 251.58236 243.595144 
L 251.834838 243.372944 
L 252.087316 243.716166 
L 252.339794 243.620998 
L 252.592272 243.193288 
L 252.844751 243.501196 
L 253.854663 243.644756 
L 254.107141 242.812457 
L 254.35962 242.98785 
L 254.864576 243.927108 
L 255.117054 243.721386 
L 255.369532 243.21726 
L 255.62201 243.82668 
L 255.874489 243.405114 
L 256.379445 243.110974 
L 256.631923 243.751551 
L 256.884401 243.768079 
L 257.136879 243.393761 
L 257.389358 243.372471 
L 257.641836 243.748656 
L 257.894314 243.876848 
L 258.146792 243.037151 
L 258.39927 243.919835 
L 259.156705 243.698744 
L 259.409183 243.612386 
L 259.661661 243.701498 
L 259.914139 243.434789 
L 260.166617 243.862601 
L 260.419096 243.075652 
L 260.671574 243.364329 
L 260.924052 243.475252 
L 261.17653 243.778664 
L 261.429008 243.742047 
L 261.681486 243.832604 
L 261.933965 243.183521 
L 262.186443 243.957358 
L 262.438921 243.613457 
L 262.943877 243.835567 
L 263.196355 243.402463 
L 263.448834 243.230746 
L 263.701312 243.760212 
L 263.95379 243.941317 
L 264.206268 243.872706 
L 264.458746 243.540913 
L 264.711224 243.42923 
L 264.963703 243.768526 
L 265.216181 243.846342 
L 265.468659 243.330488 
L 265.721137 243.70148 
L 265.973615 243.834213 
L 266.226093 243.500098 
L 266.983528 243.818637 
L 267.236006 243.870559 
L 267.488484 243.786948 
L 267.740962 243.39681 
L 267.993441 243.356821 
L 268.245919 243.568035 
L 268.498397 243.062458 
L 268.750875 243.747578 
L 269.003353 243.412215 
L 269.255831 243.626841 
L 269.50831 243.632047 
L 269.760788 243.925702 
L 270.013266 243.857169 
L 270.518222 243.466549 
L 270.7707 243.903932 
L 271.023179 243.534256 
L 271.275657 243.73404 
L 271.528135 243.760544 
L 271.780613 243.347149 
L 272.033091 243.810403 
L 272.285569 242.610967 
L 272.538048 243.800574 
L 272.790526 243.971699 
L 273.043004 243.840969 
L 273.295482 243.487753 
L 273.54796 243.579587 
L 274.052917 243.967652 
L 274.305395 243.689375 
L 274.557873 243.612132 
L 274.810351 243.874129 
L 275.062829 243.034091 
L 275.567786 243.742756 
L 275.820264 243.721677 
L 276.072742 243.39231 
L 276.32522 243.719443 
L 276.577698 243.711807 
L 276.830176 242.726309 
L 277.082655 243.920657 
L 277.335133 243.229705 
L 277.587611 243.517396 
L 277.840089 243.547188 
L 278.092567 243.230259 
L 278.345045 243.830898 
L 278.597524 243.846391 
L 278.850002 243.993498 
L 279.10248 243.33704 
L 279.354958 243.663228 
L 279.607436 243.477036 
L 279.859914 243.896928 
L 280.112393 243.962765 
L 280.364871 243.858424 
L 280.617349 243.584442 
L 280.869827 243.089725 
L 281.122305 243.75905 
L 281.374783 243.415763 
L 281.627262 243.903433 
L 281.87974 243.541888 
L 282.384696 243.442878 
L 282.637174 243.871419 
L 282.889652 242.661114 
L 283.142131 243.455877 
L 283.647087 243.668551 
L 283.899565 243.510048 
L 284.152043 243.776087 
L 284.657 243.845026 
L 285.414434 243.144159 
L 285.666912 243.457732 
L 286.171869 243.586842 
L 286.424347 243.062394 
L 286.676825 243.740236 
L 286.929303 243.466034 
L 287.181781 243.824197 
L 287.434259 243.264764 
L 287.686737 243.830877 
L 287.939216 243.694955 
L 288.949128 243.969013 
L 289.201606 243.627853 
L 289.454085 243.862533 
L 289.706563 243.941239 
L 289.959041 243.460281 
L 290.211519 243.98987 
L 290.463997 243.5138 
L 290.716475 243.828505 
L 290.968954 243.80376 
L 291.221432 243.995943 
L 291.47391 243.316224 
L 291.726388 243.356334 
L 291.978866 243.811033 
L 292.483823 243.589703 
L 292.736301 243.798638 
L 292.988779 243.248491 
L 293.241257 243.800577 
L 293.493735 243.955395 
L 293.746213 243.603885 
L 293.998692 243.835228 
L 294.25117 243.697937 
L 294.503648 242.990723 
L 295.008604 243.919684 
L 295.513561 243.727051 
L 295.766039 243.924132 
L 296.018517 243.605846 
L 296.270995 243.925089 
L 296.523473 243.492564 
L 296.775951 243.867302 
L 297.02843 243.680541 
L 297.280908 243.793388 
L 297.533386 243.763046 
L 297.785864 243.848672 
L 298.038342 243.521184 
L 298.795777 243.991537 
L 299.300733 243.798999 
L 299.553211 243.932246 
L 299.805689 243.508888 
L 300.563124 243.980256 
L 300.815602 243.534905 
L 301.06808 243.469687 
L 301.320558 243.905249 
L 301.573037 243.642889 
L 301.825515 243.855559 
L 302.077993 243.491939 
L 302.330471 243.864345 
L 302.582949 243.893478 
L 302.835427 243.612344 
L 303.087906 243.90793 
L 303.340384 243.227752 
L 303.592862 243.68104 
L 303.84534 243.246549 
L 304.097818 243.955586 
L 304.855253 243.659857 
L 305.107731 243.388629 
L 305.360209 243.861103 
L 305.612687 243.934952 
L 305.865165 243.478727 
L 306.117644 243.605731 
L 306.370122 243.156205 
L 306.875078 243.660233 
L 307.127556 243.453925 
L 307.380034 243.565198 
L 307.632513 243.908958 
L 307.884991 243.821331 
L 308.389947 243.995606 
L 308.642425 243.81228 
L 308.894903 243.941316 
L 309.147382 243.236807 
L 309.652338 243.890819 
L 309.904816 243.984814 
L 310.409772 243.600375 
L 310.662251 243.461664 
L 311.672163 243.603011 
L 311.924641 243.817661 
L 312.17712 243.298742 
L 312.682076 243.736505 
L 312.934554 243.943364 
L 313.187032 243.785096 
L 313.43951 243.387056 
L 313.691989 243.437273 
L 314.196945 243.823506 
L 314.449423 243.10532 
L 314.954379 243.824248 
L 315.206858 243.721024 
L 315.459336 242.846671 
L 315.711814 243.94453 
L 315.964292 243.752319 
L 316.21677 243.808758 
L 316.469248 243.539915 
L 316.721727 243.653486 
L 316.974205 243.282032 
L 317.226683 243.954073 
L 317.479161 243.627261 
L 317.731639 243.947267 
L 318.741552 243.701976 
L 318.99403 243.814567 
L 319.246508 243.485451 
L 319.498986 243.564778 
L 319.751465 243.857325 
L 320.003943 243.816339 
L 320.508899 243.330893 
L 320.761377 243.957365 
L 321.013855 243.610713 
L 321.266334 243.724078 
L 321.518812 242.979596 
L 321.77129 243.608659 
L 322.023768 243.591868 
L 322.276246 243.435422 
L 322.528724 243.976213 
L 322.781203 243.461749 
L 323.033681 243.638906 
L 323.286159 243.317248 
L 323.538637 243.714958 
L 323.791115 243.242028 
L 324.043593 243.631547 
L 324.296072 243.605089 
L 324.801028 243.709246 
L 325.053506 243.388213 
L 325.305984 243.733243 
L 325.558462 243.871833 
L 325.810941 243.495838 
L 326.315897 243.814996 
L 326.568375 243.29034 
L 326.820853 243.635045 
L 327.32581 243.593447 
L 327.578288 243.789247 
L 328.083244 243.452528 
L 328.335722 243.751123 
L 328.840679 243.196451 
L 329.345635 243.707596 
L 329.598113 243.174472 
L 329.850591 243.68245 
L 330.103069 243.925967 
L 330.355548 243.793246 
L 330.608026 242.814537 
L 330.860504 243.841445 
L 331.112982 243.472299 
L 331.36546 243.837673 
L 331.870417 243.857724 
L 332.375373 243.62418 
L 332.627851 243.721443 
L 332.880329 243.982291 
L 333.132807 243.354575 
L 333.385286 243.83312 
L 333.890242 243.932364 
L 334.900155 243.418925 
L 335.152633 243.699575 
L 335.405111 243.719421 
L 335.657589 242.949802 
L 335.910067 243.987782 
L 336.667502 243.405396 
L 336.91998 243.892387 
L 337.172458 243.915446 
L 337.424936 243.590328 
L 337.677414 243.756898 
L 337.929893 243.749657 
L 338.182371 243.600167 
L 338.434849 243.699009 
L 338.687327 243.363584 
L 338.939805 243.728922 
L 339.444762 243.68771 
L 339.69724 243.952357 
L 339.949718 243.989458 
L 340.202196 243.884781 
L 340.454674 243.606165 
L 340.707152 243.92263 
L 340.959631 243.559251 
L 341.717065 243.770986 
L 342.222021 243.603433 
L 342.726978 243.865796 
L 342.979456 243.354265 
L 343.484412 243.927279 
L 343.989369 243.274214 
L 344.241847 243.305446 
L 344.494325 243.892429 
L 344.999281 243.170473 
L 345.251759 244.01828 
L 345.504238 243.584414 
L 345.756716 243.935691 
L 346.261672 243.143877 
L 346.766628 243.696903 
L 347.019107 243.880531 
L 347.776541 243.841078 
L 348.029019 243.416421 
L 348.281497 243.847242 
L 348.786454 243.672647 
L 349.038932 243.551391 
L 349.29141 243.787394 
L 349.543888 243.552881 
L 350.048845 243.756633 
L 350.301323 243.790094 
L 350.553801 243.630313 
L 350.806279 243.307338 
L 351.058757 243.279071 
L 351.311235 243.933876 
L 351.563714 243.708227 
L 352.06867 243.464968 
L 352.321148 243.256712 
L 352.826104 243.652963 
L 353.078583 243.670057 
L 353.331061 243.901311 
L 353.583539 243.955246 
L 354.088495 243.628729 
L 354.340973 243.857228 
L 354.593452 243.55279 
L 355.855842 243.832305 
L 356.108321 243.989407 
L 356.360799 243.394753 
L 356.613277 243.740588 
L 356.865755 243.867966 
L 357.118233 243.593775 
L 357.370711 243.851909 
L 357.62319 243.84805 
L 357.875668 243.982628 
L 358.128146 243.488265 
L 358.380624 243.966683 
L 359.643015 243.622819 
L 359.895493 243.698553 
L 360.147971 243.917555 
L 360.400449 243.717441 
L 360.652928 243.920717 
L 360.905406 243.001138 
L 361.157884 243.656836 
L 361.410362 243.468213 
L 362.167797 243.851471 
L 362.420275 243.650822 
L 362.672753 243.812973 
L 363.177709 243.328957 
L 363.430187 243.753907 
L 363.682666 243.821763 
L 363.935144 243.773571 
L 364.187622 243.327578 
L 364.4401 243.224959 
L 364.692578 243.650584 
L 364.945056 243.703984 
L 365.197535 243.962461 
L 365.450013 243.474796 
L 365.702491 243.359217 
L 365.954969 243.806216 
L 366.207447 243.768749 
L 366.459925 243.847711 
L 366.712404 243.773907 
L 366.964882 243.211609 
L 367.21736 243.846224 
L 367.469838 243.604076 
L 367.722316 243.523277 
L 367.974794 243.768416 
L 368.227273 243.308104 
L 368.479751 243.918552 
L 368.732229 242.993406 
L 368.984707 243.971201 
L 369.237185 243.180721 
L 369.489663 243.810777 
L 369.742142 242.976469 
L 369.99462 243.781724 
L 370.247098 243.491419 
L 370.499576 243.592021 
L 370.752054 243.344649 
L 371.004532 243.556541 
L 371.257011 243.466256 
L 371.761967 243.872774 
L 372.014445 243.695399 
L 372.266923 242.959896 
L 372.519401 243.860225 
L 372.77188 243.744662 
L 373.024358 243.928128 
L 373.276836 243.430497 
L 373.529314 243.608799 
L 373.781792 243.948678 
L 374.03427 243.693009 
L 374.286749 243.876049 
L 374.539227 243.888057 
L 374.791705 243.500811 
L 375.044183 243.727835 
L 375.296661 243.530464 
L 375.801618 243.557354 
L 376.054096 243.167908 
L 376.306574 243.192977 
L 376.559052 243.554299 
L 376.81153 243.315899 
L 377.316487 243.821887 
L 377.568965 243.901364 
L 377.821443 243.471655 
L 378.073921 243.894345 
L 378.326399 243.904931 
L 378.578877 243.582854 
L 378.831356 243.864569 
L 379.083834 243.455283 
L 379.336312 244.005895 
L 379.841268 243.80154 
L 380.093746 243.932855 
L 380.346225 243.635624 
L 380.598703 243.977969 
L 380.851181 243.820134 
L 381.103659 243.495456 
L 381.356137 243.667602 
L 381.608615 243.329004 
L 381.861094 243.572658 
L 382.113572 243.546401 
L 382.618528 243.869893 
L 382.871006 243.941304 
L 383.123484 243.312951 
L 383.375963 243.966317 
L 383.628441 243.680516 
L 383.880919 243.755623 
L 384.133397 243.47506 
L 384.385875 243.721021 
L 384.638353 243.787178 
L 384.890832 243.626167 
L 385.14331 243.662338 
L 385.395788 243.579271 
L 385.648266 243.861322 
L 386.658179 243.904806 
L 386.910657 243.461745 
L 387.163135 243.667979 
L 387.668091 243.713359 
L 387.92057 243.401493 
L 388.173048 243.724698 
L 388.425526 243.385004 
L 388.930482 243.722279 
L 389.18296 243.896124 
L 389.435439 243.529859 
L 389.687917 243.850528 
L 389.940395 243.720613 
L 390.192873 243.867187 
L 390.445351 243.012593 
L 390.697829 243.804077 
L 390.950308 243.856011 
L 391.202786 243.557755 
L 391.707742 243.786346 
L 391.96022 243.674202 
L 392.212698 243.857403 
L 392.465177 243.546221 
L 392.970133 243.840476 
L 393.222611 243.512713 
L 393.727567 243.912178 
L 393.980046 243.775724 
L 394.232524 243.956264 
L 394.485002 243.566782 
L 394.73748 243.79234 
L 394.73748 243.79234 
" style="fill:none;stroke:#1f77b4;stroke-linecap:square;stroke-width:1.5;"/>
   </g>
   <g id="line2d_34">
    <path clip-path="url(#p7caa5ac9a6)" d="M 73.832727 193.929509 
L 74.080202 208.761056 
L 74.575152 215.213545 
L 75.317576 221.714068 
L 76.307475 227.85217 
L 77.0499 231.157857 
L 78.039799 234.458266 
L 79.029698 236.792994 
L 80.019598 238.504522 
L 81.009497 239.773456 
L 81.999396 240.692651 
L 83.23677 241.553443 
L 85.464044 242.513027 
L 87.443842 243.010172 
L 92.640814 243.59471 
L 101.054957 243.829398 
L 103.034756 243.834365 
L 110.459001 243.884115 
L 111.201425 243.870202 
L 113.676173 243.886463 
L 121.842842 243.903339 
L 122.832742 243.88987 
L 128.524662 243.892583 
L 134.464058 243.881446 
L 137.433756 243.890079 
L 158.964065 243.895266 
L 161.191339 243.88 
L 162.428713 243.896091 
L 167.130734 243.899996 
L 169.110533 243.893879 
L 178.267101 243.902071 
L 180.494374 243.890447 
L 181.979223 243.907789 
L 183.464072 243.894876 
L 235.928734 243.918929 
L 236.671159 243.91093 
L 253.004497 243.908452 
L 254.241871 243.910238 
L 259.191367 243.911356 
L 262.656015 243.928732 
L 264.635813 243.917939 
L 272.555007 243.888902 
L 273.792381 243.918749 
L 275.029756 243.913703 
L 277.257029 243.905049 
L 279.979252 243.92186 
L 281.959051 243.880077 
L 282.94895 243.911675 
L 283.691374 243.900741 
L 285.671173 243.91901 
L 290.12572 243.898926 
L 291.858043 243.919798 
L 299.529763 243.916757 
L 301.757036 243.900702 
L 305.469158 243.912502 
L 310.66613 243.899793 
L 314.130777 243.914864 
L 318.090374 243.900878 
L 319.822698 243.916776 
L 321.060072 243.889189 
L 322.049971 243.906799 
L 324.772194 243.899093 
L 325.762094 243.898703 
L 328.979266 243.90668 
L 357.43887 243.900901 
L 358.181295 243.912754 
L 359.171194 243.914895 
L 360.408568 243.914199 
L 362.635842 243.91808 
L 394.560093 243.906658 
L 394.560093 243.906658 
" style="fill:none;stroke:#ff7f0e;stroke-linecap:square;stroke-width:1.5;"/>
   </g>
   <g id="line2d_35">
    <path clip-path="url(#p7caa5ac9a6)" d="M 73.840035 71.807284 
L 74.604384 132.722781 
L 75.113949 159.79426 
L 75.623515 177.948688 
L 76.133081 189.599368 
L 76.642646 196.923636 
L 77.152212 201.547211 
L 77.661777 204.547844 
L 78.171343 206.589373 
L 78.935691 208.65677 
L 79.70004 210.114685 
L 80.719171 211.618228 
L 82.247868 213.465981 
L 84.540913 215.84065 
L 87.343524 218.393802 
L 90.400918 220.857813 
L 93.458312 223.044661 
L 96.770488 225.143781 
L 100.337448 227.133071 
L 104.15919 228.995801 
L 108.235715 230.724117 
L 112.31224 232.223891 
L 117.153113 233.756805 
L 122.248769 235.125078 
L 127.853991 236.393467 
L 133.968779 237.54444 
L 140.847915 238.607582 
L 148.491399 239.559929 
L 157.408797 240.435632 
L 167.854893 241.218977 
L 179.574902 241.870344 
L 194.607088 242.460795 
L 212.441885 242.924667 
L 235.881903 243.297192 
L 274.863673 243.610139 
L 316.393271 243.754549 
L 394.611594 243.850952 
L 394.611594 243.850952 
" style="fill:none;stroke:#2ca02c;stroke-linecap:square;stroke-width:1.5;"/>
   </g>
   <g id="line2d_36">
    <path clip-path="url(#p7caa5ac9a6)" d="M 78.434536 243.539183 
L 83.28382 243.047728 
L 88.133104 243.785125 
L 92.982388 243.50592 
L 97.831672 243.907714 
L 102.680956 243.957653 
L 107.53024 243.794764 
L 112.379524 243.829763 
L 117.228807 243.921528 
L 122.078091 244.020929 
L 126.927375 243.12021 
L 131.776659 244.44792 
L 136.625943 244.122254 
L 141.475227 243.848613 
L 146.324511 243.232238 
L 151.173795 244.374619 
L 156.023078 243.817144 
L 160.872362 245.21311 
L 165.721646 245.198109 
L 170.57093 244.577222 
L 175.420214 245.071973 
L 180.269498 245.939471 
L 185.118782 245.991029 
L 189.968066 246.528706 
L 194.81735 247.050882 
L 199.666633 247.307628 
L 204.515917 248.545289 
L 209.365201 248.576465 
L 214.214485 249.390359 
L 219.063769 249.485179 
L 223.913053 250.898217 
L 228.762337 250.657267 
L 233.611621 251.011054 
L 238.460905 251.490954 
L 243.310188 251.628443 
L 248.159472 252.286351 
L 253.008756 252.252664 
L 257.85804 252.479511 
L 262.707324 253.532311 
L 267.556608 253.739356 
L 272.405892 254.934259 
L 277.255176 255.718744 
L 282.104459 255.295004 
L 286.953743 256.137511 
L 291.803027 257.118345 
L 296.652311 257.978222 
L 301.501595 257.729284 
L 306.350879 259.049974 
L 311.200163 259.297714 
L 316.049447 259.146922 
L 320.898731 260.91977 
L 325.748014 260.478323 
L 330.597298 261.819434 
L 335.446582 262.447103 
L 340.295866 263.185642 
L 345.14515 264.389795 
L 349.994434 264.867904 
L 354.843718 264.636405 
L 359.693002 265.736872 
L 364.542286 266.159125 
L 369.391569 266.924881 
L 374.240853 267.829434 
L 379.090137 268.399022 
L 383.939421 269.048412 
L 388.788705 269.743599 
L 393.637989 270.494916 
L 398.487273 271.379555 
" style="fill:none;stroke:#d62728;stroke-dasharray:5.55,2.4;stroke-dashoffset:0;stroke-width:1.5;"/>
   </g>
   <g id="line2d_37">
    <path clip-path="url(#p7caa5ac9a6)" d="M 77.632359 243.539183 
L 81.679465 243.047728 
L 85.726572 243.785125 
L 89.773678 243.50592 
L 93.820785 243.907714 
L 97.867892 243.957653 
L 101.914998 243.794764 
L 105.962105 243.829763 
L 110.009211 243.921528 
L 114.056318 244.020929 
L 118.103424 243.12021 
L 122.150531 244.44792 
L 126.197637 244.122254 
L 130.244744 243.848613 
L 134.29185 243.232238 
L 138.338957 244.374619 
L 142.386063 243.817144 
L 146.43317 245.21311 
L 150.480276 245.198109 
L 154.527383 244.577222 
L 158.574489 245.071973 
L 162.621596 245.939471 
L 166.668702 245.991029 
L 170.715809 246.528706 
L 174.762915 247.050882 
L 178.810022 247.307628 
L 182.857128 248.545289 
L 186.904235 248.576465 
L 190.951341 249.390359 
L 194.998448 249.485179 
L 199.045554 250.898217 
L 203.092661 250.657267 
L 207.139767 251.011054 
L 211.186874 251.490954 
L 215.23398 251.628443 
L 219.281087 252.286351 
L 223.328193 252.252128 
L 227.3753 252.479412 
L 231.422406 253.531865 
L 235.469513 253.739895 
L 239.516619 254.933081 
L 243.563726 255.719595 
L 247.610832 255.292438 
L 251.657939 256.13619 
L 255.705045 257.119076 
L 259.752152 258.028915 
L 263.799258 257.629787 
L 267.846365 258.70301 
L 271.893471 259.105022 
L 275.940578 258.96525 
L 279.987684 260.852608 
L 284.034791 260.390809 
L 288.081897 261.246955 
L 292.129004 262.69428 
L 296.17611 262.621388 
L 300.223217 263.936646 
L 304.270323 264.35152 
L 308.31743 264.479401 
L 312.364536 265.485302 
L 316.411643 265.150053 
L 320.458749 267.079413 
L 324.505856 267.817536 
L 328.552963 268.64272 
L 332.600069 269.34362 
L 336.647176 269.940337 
L 340.694282 270.593632 
L 344.741389 271.521728 
L 348.788495 271.767447 
L 352.835602 271.91888 
L 356.882708 272.646942 
L 360.929815 273.676977 
L 364.976921 274.640025 
L 369.024028 274.607491 
L 373.071134 274.820769 
L 377.118241 275.960649 
L 381.165347 276.545709 
L 385.212454 276.574256 
L 389.25956 277.781917 
L 393.306667 277.618713 
L 397.353773 278.577603 
" style="fill:none;stroke:#9467bd;stroke-dasharray:5.55,2.4;stroke-dashoffset:0;stroke-width:1.5;"/>
   </g>
   <g id="line2d_38">
    <path clip-path="url(#p7caa5ac9a6)" d="M 76.778117 243.539183 
L 79.970981 243.047728 
L 83.163845 243.785125 
L 86.356709 243.50592 
L 89.549573 243.907714 
L 92.742437 243.957653 
L 95.935302 243.794764 
L 99.128166 243.829763 
L 102.32103 243.921528 
L 105.513894 244.020929 
L 108.706758 243.12021 
L 111.899623 244.44792 
L 115.092487 244.122254 
L 118.285351 243.848613 
L 121.478215 243.232238 
L 124.671079 244.374619 
L 127.863943 243.817144 
L 131.056808 245.21311 
L 134.249672 245.198109 
L 137.442536 244.577222 
L 140.6354 245.071973 
L 143.828264 245.939471 
L 147.021128 245.991029 
L 150.213993 246.528706 
L 153.406857 247.050882 
L 156.599721 247.307628 
L 159.792585 248.545289 
L 162.985449 248.576283 
L 166.178313 249.390998 
L 169.371178 249.473877 
L 172.564042 250.9085 
L 175.756906 250.652942 
L 178.94977 250.976375 
L 182.142634 251.508783 
L 185.335498 251.690396 
L 188.528363 252.413778 
L 191.721227 252.266863 
L 194.914091 253.131585 
L 198.106955 253.640035 
L 201.299819 253.51251 
L 204.492683 254.663156 
L 207.685548 255.722049 
L 210.878412 254.631315 
L 214.071276 256.519082 
L 217.26414 257.15628 
L 220.457004 257.904421 
L 223.649869 258.39817 
L 226.842733 258.672702 
L 230.035597 258.915352 
L 233.228461 259.341783 
L 236.421325 260.111931 
L 239.614189 259.417021 
L 242.807054 260.308619 
L 245.999918 261.455969 
L 249.192782 261.294844 
L 252.385646 261.956471 
L 255.57851 262.823522 
L 258.771374 263.653763 
L 261.964239 264.521126 
L 265.157103 264.814274 
L 268.349967 265.001048 
L 271.542831 265.497146 
L 274.735695 266.400185 
L 277.928559 266.381428 
L 281.121424 266.833226 
L 284.314288 267.826888 
L 287.507152 268.142054 
L 290.700016 268.236252 
L 293.89288 268.595428 
L 297.085744 268.438069 
L 300.278609 269.467218 
L 303.471473 269.263528 
L 306.664337 269.926461 
L 309.857201 269.242887 
L 313.050065 269.543812 
L 316.242929 269.89126 
L 319.435794 270.224247 
L 322.628658 269.928234 
L 325.821522 270.560272 
L 329.014386 270.874682 
L 332.20725 271.39142 
L 335.400115 271.791365 
L 338.592979 272.003804 
L 341.785843 272.160936 
L 344.978707 273.025701 
L 348.171571 272.69757 
L 351.364435 272.228065 
L 354.5573 273.588444 
L 357.750164 274.278984 
L 360.943028 274.808105 
L 364.135892 274.681674 
L 367.328756 275.028507 
L 370.52162 274.446212 
L 373.714485 275.339463 
L 376.907349 275.266425 
L 380.100213 275.560967 
L 383.293077 276.061007 
L 386.485941 276.074869 
L 389.678805 276.450644 
L 392.87167 276.280591 
L 396.064534 277.157329 
" style="fill:none;stroke:#8c564b;stroke-dasharray:5.55,2.4;stroke-dashoffset:0;stroke-width:1.5;"/>
   </g>
   <g id="line2d_39">
    <path clip-path="url(#p7caa5ac9a6)" d="M 75.734437 243.539183 
L 77.883622 243.047728 
L 80.032807 243.785125 
L 82.181991 243.50592 
L 84.331176 243.907714 
L 86.480361 243.957653 
L 88.629545 243.780755 
L 92.927915 243.969848 
L 95.077099 244.28187 
L 99.375469 244.430432 
L 101.524654 244.294339 
L 103.673838 243.858656 
L 105.823023 243.891931 
L 107.972208 244.142721 
L 110.121392 243.860846 
L 112.270577 245.004872 
L 114.419762 244.952206 
L 116.568946 244.578703 
L 118.718131 244.783613 
L 120.867316 246.069425 
L 123.016501 246.195828 
L 127.31487 247.077538 
L 129.464055 247.094278 
L 131.613239 248.823899 
L 133.762424 248.564086 
L 135.911609 249.555864 
L 140.209978 249.505317 
L 142.359163 250.363648 
L 144.508348 250.57562 
L 146.657532 251.132271 
L 148.806717 251.309458 
L 150.955902 251.304953 
L 153.105086 251.437204 
L 155.254271 252.102447 
L 157.403456 252.02588 
L 159.55264 252.490677 
L 161.701825 252.709909 
L 163.85101 253.395222 
L 166.000195 253.140013 
L 170.298564 254.043462 
L 172.447749 254.083829 
L 174.596933 254.55623 
L 176.746118 254.169432 
L 178.895303 254.73691 
L 181.044487 254.628717 
L 185.342857 255.520791 
L 187.492042 255.495585 
L 189.641226 256.280127 
L 193.939596 256.635736 
L 196.08878 256.955673 
L 198.237965 256.5858 
L 200.38715 257.334007 
L 202.536335 257.158252 
L 206.834704 257.816211 
L 208.983889 258.447959 
L 211.133073 258.299661 
L 213.282258 258.396035 
L 215.431443 258.689865 
L 219.729812 258.827757 
L 221.878997 258.424885 
L 224.028182 258.674117 
L 226.177366 259.491043 
L 228.326551 259.525308 
L 230.475736 259.881006 
L 232.62492 259.809223 
L 239.072474 260.175742 
L 241.221659 260.084919 
L 243.370844 260.280043 
L 245.520029 260.18065 
L 247.669213 260.445693 
L 249.818398 260.340909 
L 251.967583 260.376354 
L 254.116767 260.778895 
L 256.265952 260.432632 
L 258.415137 260.992804 
L 260.564321 261.080521 
L 262.713506 261.369801 
L 264.862691 260.962098 
L 267.011876 261.405045 
L 269.16106 261.440846 
L 271.310245 260.91786 
L 273.45943 261.722975 
L 277.757799 261.340581 
L 279.906984 261.808671 
L 282.056168 262.035239 
L 284.205353 261.940605 
L 286.354538 261.52037 
L 288.503723 262.094609 
L 292.802092 262.163197 
L 294.951277 261.864392 
L 297.100461 262.431131 
L 299.249646 262.261653 
L 301.398831 262.743586 
L 303.548015 262.793237 
L 305.6972 263.024923 
L 307.846385 263.025783 
L 309.99557 263.152798 
L 312.144754 262.725436 
L 314.293939 262.892071 
L 316.443124 263.297029 
L 318.592308 263.28762 
L 320.741493 263.085287 
L 322.890678 263.447599 
L 325.039862 263.532647 
L 327.189047 262.746361 
L 329.338232 263.636324 
L 331.487417 263.705704 
L 333.636601 263.516331 
L 335.785786 263.491374 
L 337.934971 263.233448 
L 342.23334 263.9626 
L 344.382525 263.708586 
L 346.531709 263.965621 
L 352.979264 264.043414 
L 355.128448 263.639297 
L 357.277633 264.135872 
L 359.426818 263.738507 
L 361.576002 264.395365 
L 363.725187 264.383295 
L 365.874372 264.545188 
L 368.023556 264.342432 
L 370.172741 263.932675 
L 372.321926 263.805417 
L 374.471111 264.3605 
L 376.620295 264.689089 
L 380.918665 264.596958 
L 383.067849 264.874328 
L 385.217034 264.897403 
L 387.366219 264.392817 
L 389.515403 265.073557 
L 391.664588 265.152809 
L 393.813773 264.595695 
L 395.962958 265.095436 
L 395.962958 265.095436 
" style="fill:none;stroke:#e377c2;stroke-dasharray:5.55,2.4;stroke-dashoffset:0;stroke-width:1.5;"/>
   </g>
   <g id="line2d_40">
    <path clip-path="url(#p7caa5ac9a6)" d="M 74.766432 243.539183 
L 75.947611 243.684979 
L 77.12879 243.140178 
L 78.309969 243.472158 
L 79.491149 243.104063 
L 81.853507 243.481996 
L 83.034686 243.266358 
L 84.215866 243.971886 
L 85.397045 243.938146 
L 86.578224 243.66957 
L 87.759403 243.581981 
L 92.48412 244.033894 
L 93.6653 243.590177 
L 94.846479 244.138887 
L 96.027658 244.241239 
L 97.208837 243.606731 
L 98.390017 244.078331 
L 99.571196 244.312663 
L 100.752375 244.332117 
L 101.933554 243.957233 
L 103.114734 244.348549 
L 104.295913 244.449051 
L 105.477092 244.881837 
L 107.83945 244.344468 
L 109.02063 244.723055 
L 110.201809 244.435123 
L 111.382988 245.106292 
L 112.564167 244.717551 
L 113.745347 244.953558 
L 114.926526 245.045024 
L 116.107705 245.496832 
L 118.470064 246.11195 
L 119.651243 246.277516 
L 120.832422 246.1334 
L 122.013601 246.354944 
L 123.194781 246.336456 
L 125.557139 246.829656 
L 126.738318 246.323131 
L 127.919498 247.079946 
L 129.100677 246.722934 
L 130.281856 246.860923 
L 131.463035 247.259592 
L 132.644215 247.185324 
L 133.825394 247.803688 
L 137.368932 247.738554 
L 139.73129 248.386673 
L 140.912469 248.194032 
L 142.093649 248.232437 
L 143.274828 248.416664 
L 144.456007 248.795508 
L 145.637186 248.686644 
L 146.818365 249.269005 
L 147.999545 249.335884 
L 150.361903 249.708 
L 151.543082 249.81993 
L 152.724262 250.11068 
L 153.905441 250.041632 
L 155.08662 250.263797 
L 156.267799 250.169869 
L 157.448979 250.530511 
L 158.630158 250.183417 
L 159.811337 250.610994 
L 162.173696 250.723127 
L 163.354875 251.080599 
L 164.536054 250.920965 
L 165.717233 251.171768 
L 168.079592 251.194325 
L 169.260771 251.270918 
L 170.44195 251.501884 
L 177.529026 251.540528 
L 178.710205 251.694124 
L 179.891384 251.662508 
L 183.434922 252.020325 
L 184.616101 251.926571 
L 185.79728 251.675541 
L 186.97846 252.050319 
L 188.159639 252.085269 
L 189.340818 251.726758 
L 190.521997 251.811979 
L 191.703177 252.094861 
L 192.884356 252.041063 
L 196.427894 252.384047 
L 197.609073 252.301672 
L 198.790252 252.425739 
L 201.152611 252.216298 
L 202.33379 252.423312 
L 203.514969 252.468928 
L 204.696148 252.301375 
L 205.877328 252.323125 
L 207.058507 252.484936 
L 210.602045 252.593007 
L 211.783224 252.825229 
L 212.964403 252.421348 
L 214.145582 252.57837 
L 215.326762 252.875337 
L 216.507941 252.587388 
L 218.870299 252.76311 
L 220.051479 252.752629 
L 221.232658 252.903982 
L 223.595016 252.999899 
L 224.776195 253.086319 
L 225.957375 252.895167 
L 227.138554 253.05535 
L 228.319733 252.97171 
L 229.500912 252.687976 
L 230.682092 252.990238 
L 233.04445 253.346037 
L 235.406809 253.344527 
L 236.587988 253.043591 
L 237.769167 252.99389 
L 238.950346 253.426902 
L 240.131526 253.236453 
L 241.312705 253.607864 
L 242.493884 253.408205 
L 243.675063 253.406023 
L 244.856243 253.659364 
L 246.037422 253.458958 
L 247.218601 253.793621 
L 249.58096 253.508874 
L 250.762139 253.679546 
L 251.943318 253.573839 
L 253.124497 253.739986 
L 254.305677 253.555869 
L 255.486856 253.610087 
L 256.668035 253.904087 
L 261.392752 253.771743 
L 262.573931 253.748146 
L 264.93629 253.865814 
L 266.117469 253.888337 
L 267.298648 253.713688 
L 268.479827 253.925361 
L 270.842186 253.769694 
L 272.023365 254.076972 
L 273.204544 254.074608 
L 274.385724 253.813106 
L 275.566903 253.805744 
L 277.929261 254.084553 
L 279.110441 253.933715 
L 281.472799 254.163226 
L 282.653978 253.784425 
L 283.835158 254.103581 
L 285.016337 254.082629 
L 286.197516 254.206353 
L 287.378695 253.990289 
L 290.922233 254.077959 
L 292.103412 254.307161 
L 293.284592 254.205682 
L 294.465771 254.365046 
L 296.828129 254.446383 
L 298.009309 254.276704 
L 302.734025 254.280464 
L 305.096384 254.469175 
L 306.277563 254.404105 
L 307.458742 254.565723 
L 309.821101 254.298538 
L 311.00228 254.163127 
L 312.183459 254.556477 
L 314.545818 254.527332 
L 315.726997 254.494362 
L 316.908176 254.656941 
L 319.270535 254.385933 
L 320.451714 254.519534 
L 321.632893 254.498205 
L 322.814073 254.83237 
L 325.176431 254.605663 
L 326.35761 254.592986 
L 327.53879 254.747455 
L 329.901148 254.715823 
L 331.082327 254.970769 
L 332.263507 254.72587 
L 334.625865 254.895361 
L 335.807044 254.904564 
L 336.988223 254.588063 
L 338.169403 254.546061 
L 339.350582 254.89403 
L 340.531761 255.084947 
L 341.71294 254.734978 
L 342.89412 254.932836 
L 344.075299 255.009485 
L 345.256478 255.207281 
L 346.437657 255.130965 
L 347.618837 254.862844 
L 348.800016 255.310027 
L 351.162374 255.017443 
L 352.343554 254.971281 
L 353.524733 255.240714 
L 355.887091 255.330729 
L 357.068271 255.135787 
L 362.974167 255.288039 
L 365.336525 255.178343 
L 366.517705 255.586293 
L 370.061242 255.361923 
L 372.423601 255.649259 
L 373.60478 255.420636 
L 374.785959 255.467618 
L 375.967138 255.761234 
L 377.148318 255.483471 
L 378.329497 255.824125 
L 379.510676 255.636478 
L 380.691855 255.613364 
L 381.873035 255.725962 
L 384.235393 255.465758 
L 385.416572 255.835908 
L 386.597752 255.70586 
L 387.778931 255.734592 
L 388.96011 255.982731 
L 390.141289 255.452109 
L 391.322469 255.873366 
L 392.503648 255.669448 
L 393.684827 256.084204 
L 394.866006 255.752269 
L 394.866006 255.752269 
" style="fill:none;stroke:#7f7f7f;stroke-dasharray:5.55,2.4;stroke-dashoffset:0;stroke-width:1.5;"/>
   </g>
   <g id="line2d_41">
    <path clip-path="url(#p7caa5ac9a6)" d="M 74.426746 243.539183 
L 75.26824 243.785227 
L 76.951228 243.93436 
L 77.792721 243.234269 
L 78.634215 243.996456 
L 79.475709 243.451228 
L 80.317203 243.77169 
L 81.158697 243.959963 
L 82.00019 243.9254 
L 82.841684 243.509026 
L 83.683178 243.901456 
L 84.524672 243.980724 
L 85.366165 243.565973 
L 87.049153 243.719673 
L 87.890647 243.972414 
L 88.732141 243.603733 
L 89.573634 243.890913 
L 90.415128 243.519654 
L 91.256622 243.58119 
L 92.098116 243.867666 
L 92.939609 243.660895 
L 94.622597 244.097448 
L 95.464091 243.388233 
L 96.305585 243.901782 
L 97.147078 243.406331 
L 97.988572 243.844616 
L 99.67156 243.804074 
L 100.513054 243.912612 
L 101.354547 243.563655 
L 102.196041 242.363272 
L 103.037535 243.276019 
L 103.879029 243.660207 
L 104.720522 243.803363 
L 105.562016 243.53989 
L 106.40351 243.829176 
L 107.245004 243.511095 
L 108.086498 243.691531 
L 110.610979 243.691426 
L 111.452473 243.195789 
L 112.293966 244.101984 
L 113.13546 243.814817 
L 113.976954 244.177415 
L 114.818448 244.281196 
L 115.659942 243.70192 
L 116.501435 244.277885 
L 117.342929 244.245857 
L 118.184423 243.766005 
L 119.025917 244.263529 
L 119.867411 244.445583 
L 120.708904 243.831204 
L 121.550398 243.713654 
L 122.391892 244.417385 
L 123.233386 244.643033 
L 124.074879 244.411223 
L 124.916373 244.935801 
L 125.757867 244.706961 
L 126.599361 245.061855 
L 127.440855 244.953748 
L 129.123842 245.109322 
L 130.80683 245.261002 
L 131.648323 245.127619 
L 133.331311 245.318986 
L 134.172805 245.477921 
L 135.014299 245.393095 
L 137.53878 245.53346 
L 139.221768 245.966819 
L 140.063261 245.807161 
L 140.904755 246.069592 
L 143.429236 245.928239 
L 144.27073 246.400441 
L 146.795212 246.384061 
L 148.478199 246.587034 
L 149.319693 246.749424 
L 151.00268 246.57231 
L 151.844174 246.720113 
L 152.685668 246.696684 
L 153.527162 246.397715 
L 154.368656 246.932087 
L 155.210149 246.883872 
L 156.051643 246.614894 
L 156.893137 246.594716 
L 158.576125 247.009229 
L 159.417618 246.811276 
L 161.100606 247.176557 
L 161.9421 247.031855 
L 162.783593 247.178644 
L 163.625087 247.09598 
L 164.466581 247.228463 
L 166.149569 247.10638 
L 170.357037 247.3301 
L 171.198531 247.159046 
L 172.040025 247.283789 
L 172.881519 246.9516 
L 173.723013 247.115652 
L 174.564506 247.40004 
L 176.247494 247.3601 
L 181.296457 247.584328 
L 182.13795 247.368176 
L 183.820938 247.418613 
L 185.503926 247.354129 
L 186.345419 247.640428 
L 188.028407 247.580944 
L 188.869901 247.766432 
L 189.711395 247.566648 
L 190.552888 247.173687 
L 191.394382 247.640649 
L 193.918863 247.726607 
L 194.760357 247.616258 
L 195.601851 247.913549 
L 196.443345 247.76109 
L 197.284839 247.964374 
L 199.80932 247.801155 
L 200.650814 248.014112 
L 203.175295 247.724123 
L 204.016789 247.951488 
L 204.858283 247.854214 
L 206.54127 248.061073 
L 207.382764 247.889651 
L 210.748739 248.1034 
L 211.590233 247.973742 
L 212.431727 248.178806 
L 214.114714 248.15461 
L 214.956208 248.285274 
L 216.639196 248.210244 
L 217.480689 248.091512 
L 219.163677 248.33774 
L 220.005171 248.193126 
L 220.846664 248.391479 
L 221.688158 248.235659 
L 222.529652 248.208857 
L 223.371146 248.296281 
L 224.21264 248.211105 
L 225.895627 248.462451 
L 226.737121 248.162105 
L 227.578615 248.299866 
L 228.420109 248.127432 
L 229.261602 248.378479 
L 230.103096 248.4481 
L 230.94459 248.275469 
L 231.786084 248.40743 
L 232.627577 248.317339 
L 235.152059 248.522354 
L 239.359528 248.499698 
L 240.201021 248.591022 
L 241.042515 248.443256 
L 241.884009 248.564294 
L 242.725503 248.154104 
L 243.566997 248.608061 
L 244.40849 248.708999 
L 245.249984 248.55245 
L 247.774466 248.585248 
L 248.615959 248.722408 
L 249.457453 248.49806 
L 250.298947 248.541682 
L 251.140441 248.77994 
L 254.506416 248.767954 
L 259.555378 249.008898 
L 260.396872 248.820793 
L 263.762847 249.174479 
L 264.604341 248.806179 
L 265.445835 249.124947 
L 267.128823 249.271106 
L 267.970316 249.221993 
L 268.81181 248.844069 
L 269.653304 249.278432 
L 273.019279 249.306751 
L 273.860773 249.385296 
L 274.702267 249.237071 
L 278.909736 249.324219 
L 279.751229 249.408938 
L 280.592723 249.375583 
L 281.434217 249.539075 
L 282.275711 249.57763 
L 284.800192 249.409906 
L 285.641686 249.66469 
L 287.324673 249.524362 
L 288.166167 249.683265 
L 289.007661 249.564961 
L 290.690648 249.767899 
L 291.532142 249.527558 
L 292.373636 249.839927 
L 293.21513 249.616508 
L 294.056624 249.853275 
L 296.581105 249.766702 
L 297.422599 249.732457 
L 298.264093 249.82194 
L 299.105586 249.361022 
L 299.94708 249.915959 
L 301.630068 249.893419 
L 302.471561 249.687169 
L 303.313055 249.945746 
L 304.996043 249.959359 
L 308.362018 250.095103 
L 309.203512 249.955495 
L 310.045005 250.08306 
L 310.886499 249.927858 
L 311.727993 250.108203 
L 314.252474 249.914397 
L 315.093968 250.132939 
L 315.935462 250.03912 
L 319.301437 250.210618 
L 320.142931 249.976577 
L 323.508906 250.092679 
L 324.3504 250.212809 
L 326.033387 250.17338 
L 326.874881 249.939409 
L 327.716375 250.231518 
L 328.557869 250.30959 
L 329.399362 250.09452 
L 331.08235 250.306591 
L 332.765338 250.180087 
L 334.448325 250.252045 
L 335.289819 250.150509 
L 336.131313 250.349028 
L 336.972807 250.203068 
L 337.8143 250.23728 
L 338.655794 250.134874 
L 339.497288 250.253186 
L 341.180275 250.329476 
L 342.021769 250.357559 
L 342.863263 250.119004 
L 343.704757 250.306257 
L 346.229238 250.335078 
L 347.070732 250.484371 
L 347.912226 250.39074 
L 350.436707 250.448498 
L 352.119695 250.297531 
L 354.644176 250.605416 
L 355.48567 250.419225 
L 360.534632 250.4586 
L 361.376126 250.57434 
L 364.742101 250.419084 
L 366.425089 250.72226 
L 368.94957 250.249524 
L 369.791064 250.569301 
L 370.632558 250.607426 
L 371.474052 250.493809 
L 372.315545 250.505551 
L 373.157039 250.761108 
L 374.840027 250.606148 
L 375.681521 250.725261 
L 376.523014 250.714854 
L 377.364508 250.871256 
L 378.206002 250.636695 
L 379.047496 250.837782 
L 379.888989 250.622998 
L 382.413471 250.895296 
L 384.096458 250.803134 
L 384.937952 250.893624 
L 386.62094 250.726277 
L 387.462434 250.92186 
L 388.303927 250.893 
L 389.145421 250.716745 
L 389.986915 250.821663 
L 390.828409 250.699649 
L 391.669902 250.907957 
L 392.511396 250.894933 
L 393.35289 250.698891 
L 394.194384 250.910845 
L 395.035878 250.97463 
L 395.035878 250.97463 
" style="fill:none;stroke:#bcbd22;stroke-dasharray:5.55,2.4;stroke-dashoffset:0;stroke-width:1.5;"/>
   </g>
   <g id="line2d_42">
    <path clip-path="url(#p7caa5ac9a6)" d="M 74.334119 243.539183 
L 76.58072 243.974332 
L 77.329587 243.486096 
L 78.078454 244.059134 
L 78.82732 243.464865 
L 79.576187 243.663283 
L 80.325054 243.995698 
L 81.073921 243.993738 
L 81.822788 243.863206 
L 83.320521 244.06675 
L 84.069388 243.619498 
L 84.818255 243.507038 
L 85.567122 243.83295 
L 87.064856 243.754861 
L 87.813723 243.911482 
L 88.562589 243.945144 
L 89.311456 243.799375 
L 90.060323 243.913902 
L 90.80919 243.844641 
L 92.306924 244.087035 
L 93.055791 243.818631 
L 93.804657 243.981991 
L 94.553524 243.667048 
L 95.302391 243.731762 
L 96.051258 244.007844 
L 96.800125 243.913293 
L 97.548992 243.977862 
L 98.297858 243.818262 
L 99.046725 243.504845 
L 99.795592 243.752221 
L 100.544459 243.701958 
L 101.293326 243.942124 
L 102.042193 243.824261 
L 102.79106 243.947932 
L 103.539926 243.805048 
L 104.288793 244.039329 
L 105.03766 243.868681 
L 106.535394 243.82107 
L 107.284261 243.546445 
L 108.033128 243.910345 
L 109.530861 243.850651 
L 110.279728 243.949559 
L 111.028595 243.82968 
L 112.526329 243.936325 
L 113.275195 243.566316 
L 114.772929 244.017329 
L 116.270663 243.380907 
L 117.768397 244.102909 
L 119.26613 243.755105 
L 120.014997 244.034615 
L 120.763864 243.976457 
L 121.512731 243.789744 
L 123.759331 243.902591 
L 125.257065 243.812111 
L 126.005932 243.720051 
L 129.001399 244.059066 
L 129.750266 243.607006 
L 130.499133 243.903 
L 131.248 243.972457 
L 131.996867 243.900439 
L 133.4946 243.956069 
L 134.243467 243.850684 
L 134.992334 243.999753 
L 135.741201 243.815796 
L 136.490068 244.032456 
L 137.987802 243.679423 
L 139.485535 243.78316 
L 140.234402 243.924916 
L 140.983269 243.672132 
L 141.732136 243.606315 
L 142.481003 243.923961 
L 143.229869 243.859541 
L 143.978736 243.948401 
L 144.727603 243.655363 
L 145.47647 243.975355 
L 146.225337 243.710812 
L 146.974204 243.572564 
L 147.723071 243.688783 
L 148.471937 243.605902 
L 149.220804 243.777961 
L 149.969671 243.666235 
L 150.718538 243.698366 
L 151.467405 243.886698 
L 152.216272 243.734803 
L 154.462872 243.982958 
L 155.211739 243.684561 
L 156.709473 243.669414 
L 158.207206 243.999943 
L 158.956073 243.801522 
L 159.70494 243.720907 
L 161.202674 243.950634 
L 161.951541 243.698846 
L 163.449274 243.876659 
L 164.947008 243.887518 
L 165.695875 243.762622 
L 166.444742 243.91404 
L 170.937943 243.87348 
L 171.68681 243.548239 
L 172.435677 243.763468 
L 173.184543 243.524091 
L 173.93341 243.828505 
L 174.682277 243.899957 
L 175.431144 243.592732 
L 176.180011 243.871749 
L 177.677745 243.373647 
L 178.426611 243.779297 
L 179.175478 243.692544 
L 179.924345 243.979551 
L 180.673212 243.720347 
L 181.422079 243.674301 
L 182.170946 243.812689 
L 182.919813 243.799298 
L 183.668679 243.970865 
L 184.417546 243.923161 
L 185.166413 243.449307 
L 185.91528 243.78931 
L 186.664147 243.994722 
L 187.413014 243.969395 
L 188.16188 243.272116 
L 189.659614 244.039095 
L 191.157348 243.889147 
L 191.906215 243.993832 
L 194.901682 243.836002 
L 195.650549 243.979193 
L 196.399416 243.849984 
L 197.148283 244.13448 
L 197.89715 243.964758 
L 200.14375 244.128294 
L 201.641484 243.666945 
L 203.139217 243.914297 
L 204.636951 243.948402 
L 205.385818 243.822704 
L 206.134685 244.05844 
L 206.883552 243.884822 
L 207.632419 243.854469 
L 208.381285 244.047144 
L 209.130152 244.087677 
L 209.879019 243.893524 
L 210.627886 244.03419 
L 211.376753 243.857181 
L 212.874487 243.748302 
L 213.623353 244.038288 
L 214.37222 243.985359 
L 218.116554 244.238509 
L 218.865421 244.081203 
L 219.614288 244.249002 
L 220.363155 243.943969 
L 221.860889 244.084139 
L 222.609756 243.873586 
L 223.358622 244.153056 
L 224.107489 243.54455 
L 224.856356 244.085665 
L 226.35409 244.173945 
L 227.102957 243.914908 
L 227.851824 243.823907 
L 228.60069 243.948968 
L 229.349557 244.190421 
L 230.098424 243.85975 
L 230.847291 244.078224 
L 231.596158 244.062787 
L 232.345025 244.199928 
L 233.093891 244.042827 
L 234.591625 244.158775 
L 235.340492 244.01223 
L 236.089359 243.983484 
L 236.838226 244.109676 
L 237.587093 243.943172 
L 238.335959 244.1875 
L 239.084826 244.27645 
L 240.58256 243.85856 
L 241.331427 244.207271 
L 242.080294 244.148206 
L 242.82916 244.302255 
L 243.578027 243.994437 
L 245.075761 244.015609 
L 245.824628 244.228676 
L 246.573495 244.213928 
L 247.322362 243.874327 
L 248.071228 244.344349 
L 248.820095 244.172324 
L 251.066696 244.286961 
L 251.815563 244.355367 
L 252.56443 244.309624 
L 253.313296 244.072273 
L 254.062163 244.089842 
L 254.81103 243.993397 
L 255.559897 244.037723 
L 256.308764 244.246386 
L 257.057631 244.090625 
L 258.555364 244.333689 
L 260.053098 244.275195 
L 260.801965 244.154171 
L 261.550832 244.194601 
L 262.299699 244.374836 
L 263.048565 244.211309 
L 264.546299 244.279305 
L 265.295166 244.126869 
L 266.7929 244.339223 
L 267.541767 243.961753 
L 268.290633 244.241547 
L 269.0395 244.231302 
L 269.788367 244.393857 
L 270.537234 244.224029 
L 272.034968 244.233863 
L 272.783834 244.361718 
L 273.532701 244.287377 
L 274.281568 244.007892 
L 275.030435 244.409892 
L 276.528169 244.364581 
L 277.277036 243.895684 
L 278.774769 244.288471 
L 281.02137 244.268168 
L 282.519104 244.502579 
L 283.26797 244.278831 
L 284.016837 244.309778 
L 284.765704 244.044708 
L 286.263438 244.514435 
L 287.761171 244.20194 
L 288.510038 244.508355 
L 289.258905 244.288188 
L 290.756639 244.443007 
L 291.505506 244.162194 
L 292.254373 244.483677 
L 293.752106 244.140505 
L 294.500973 244.353884 
L 295.998707 244.164062 
L 296.747574 244.521817 
L 298.245307 244.37669 
L 298.994174 243.785904 
L 299.743041 244.557072 
L 301.989642 244.375288 
L 303.487375 244.382615 
L 307.980576 244.147696 
L 308.729443 244.349079 
L 311.724911 244.379333 
L 313.971511 244.451934 
L 314.720378 244.291414 
L 316.218112 244.552399 
L 316.966979 244.620978 
L 317.715845 244.551658 
L 318.464712 244.337984 
L 319.213579 244.269691 
L 319.962446 244.514337 
L 320.711313 244.415095 
L 321.46018 244.491446 
L 322.957913 244.369687 
L 323.70678 244.471388 
L 326.702248 244.500952 
L 327.451115 244.647309 
L 328.948848 244.414809 
L 329.697715 244.544034 
L 331.944316 244.452647 
L 333.442049 244.466378 
L 334.190916 244.675815 
L 334.939783 244.464642 
L 335.68865 244.448503 
L 336.437517 244.303412 
L 337.186384 244.565083 
L 337.93525 244.555786 
L 338.684117 244.356823 
L 339.432984 244.572224 
L 340.930718 244.737629 
L 341.679585 244.544749 
L 343.926185 244.685276 
L 344.675052 244.478727 
L 345.423919 244.691365 
L 346.921653 244.607392 
L 355.159188 244.695487 
L 355.908055 244.514502 
L 356.656922 244.552835 
L 357.405789 244.704717 
L 358.154655 244.489542 
L 359.652389 244.748931 
L 360.401256 244.607606 
L 361.150123 244.329347 
L 362.647856 244.723689 
L 364.894457 244.710292 
L 365.643324 244.773704 
L 368.638791 244.608991 
L 369.387658 244.792076 
L 370.136525 244.81688 
L 370.885392 244.477206 
L 371.634259 244.715441 
L 372.383126 244.691168 
L 373.131992 244.844104 
L 373.880859 244.364535 
L 374.629726 244.671083 
L 376.12746 244.851464 
L 376.876327 244.43503 
L 377.625193 244.478651 
L 378.37406 244.814789 
L 379.122927 244.609221 
L 379.871794 244.722122 
L 381.369528 244.781343 
L 382.118395 244.865708 
L 383.616128 244.717272 
L 384.364995 244.787964 
L 385.113862 244.507273 
L 385.862729 244.619137 
L 386.611596 244.850174 
L 387.360462 244.618865 
L 388.109329 244.741983 
L 388.858196 244.539107 
L 389.607063 244.755673 
L 391.853664 244.591154 
L 392.60253 244.447311 
L 393.351397 244.639377 
L 394.100264 244.619144 
L 394.849131 244.832338 
L 394.849131 244.832338 
" style="fill:none;stroke:#17becf;stroke-dasharray:5.55,2.4;stroke-dashoffset:0;stroke-width:1.5;"/>
   </g>
   <g id="patch_3">
    <path d="M 57.6 307.584 
L 57.6 41.472 
" style="fill:none;stroke:#000000;stroke-linecap:square;stroke-linejoin:miter;stroke-width:0.8;"/>
   </g>
   <g id="patch_4">
    <path d="M 414.72 307.584 
L 414.72 41.472 
" style="fill:none;stroke:#000000;stroke-linecap:square;stroke-linejoin:miter;stroke-width:0.8;"/>
   </g>
   <g id="patch_5">
    <path d="M 57.6 307.584 
L 414.72 307.584 
" style="fill:none;stroke:#000000;stroke-linecap:square;stroke-linejoin:miter;stroke-width:0.8;"/>
   </g>
   <g id="patch_6">
    <path d="M 57.6 41.472 
L 414.72 41.472 
" style="fill:none;stroke:#000000;stroke-linecap:square;stroke-linejoin:miter;stroke-width:0.8;"/>
   </g>
   <g id="legend_1">
    <g id="patch_7">
     <path d="M 182.2475 196.25325 
L 290.0725 196.25325 
Q 292.0725 196.25325 292.0725 194.25325 
L 292.0725 48.472 
Q 292.0725 46.472 290.0725 46.472 
L 182.2475 46.472 
Q 180.2475 46.472 180.2475 48.472 
L 180.2475 194.25325 
Q 180.2475 196.25325 182.2475 196.25325 
z
" style="fill:#ffffff;opacity:0.8;stroke:#cccccc;stroke-linejoin:miter;"/>
    </g>
    <g id="line2d_43">
     <path d="M 184.2475 54.570437 
L 204.2475 54.570437 
" style="fill:none;stroke:#1f77b4;stroke-linecap:square;stroke-width:1.5;"/>
    </g>
    <g id="line2d_44"/>
    <g id="text_10">
     <!-- SGD, lr 0.1 -->
     <defs>
      <path d="M 53.515625 70.515625 
L 53.515625 60.890625 
Q 47.90625 63.578125 42.921875 64.890625 
Q 37.9375 66.21875 33.296875 66.21875 
Q 25.25 66.21875 20.875 63.09375 
Q 16.5 59.96875 16.5 54.203125 
Q 16.5 49.359375 19.40625 46.890625 
Q 22.3125 44.4375 30.421875 42.921875 
L 36.375 41.703125 
Q 47.40625 39.59375 52.65625 34.296875 
Q 57.90625 29 57.90625 20.125 
Q 57.90625 9.515625 50.796875 4.046875 
Q 43.703125 -1.421875 29.984375 -1.421875 
Q 24.8125 -1.421875 18.96875 -0.25 
Q 13.140625 0.921875 6.890625 3.21875 
L 6.890625 13.375 
Q 12.890625 10.015625 18.65625 8.296875 
Q 24.421875 6.59375 29.984375 6.59375 
Q 38.421875 6.59375 43.015625 9.90625 
Q 47.609375 13.234375 47.609375 19.390625 
Q 47.609375 24.75 44.3125 27.78125 
Q 41.015625 30.8125 33.5 32.328125 
L 27.484375 33.5 
Q 16.453125 35.6875 11.515625 40.375 
Q 6.59375 45.0625 6.59375 53.421875 
Q 6.59375 63.09375 13.40625 68.65625 
Q 20.21875 74.21875 32.171875 74.21875 
Q 37.3125 74.21875 42.625 73.28125 
Q 47.953125 72.359375 53.515625 70.515625 
z
" id="DejaVuSans-53"/>
      <path d="M 59.515625 10.40625 
L 59.515625 29.984375 
L 43.40625 29.984375 
L 43.40625 38.09375 
L 69.28125 38.09375 
L 69.28125 6.78125 
Q 63.578125 2.734375 56.6875 0.65625 
Q 49.8125 -1.421875 42 -1.421875 
Q 24.90625 -1.421875 15.25 8.5625 
Q 5.609375 18.5625 5.609375 36.375 
Q 5.609375 54.25 15.25 64.234375 
Q 24.90625 74.21875 42 74.21875 
Q 49.125 74.21875 55.546875 72.453125 
Q 61.96875 70.703125 67.390625 67.28125 
L 67.390625 56.78125 
Q 61.921875 61.421875 55.765625 63.765625 
Q 49.609375 66.109375 42.828125 66.109375 
Q 29.4375 66.109375 22.71875 58.640625 
Q 16.015625 51.171875 16.015625 36.375 
Q 16.015625 21.625 22.71875 14.15625 
Q 29.4375 6.6875 42.828125 6.6875 
Q 48.046875 6.6875 52.140625 7.59375 
Q 56.25 8.5 59.515625 10.40625 
z
" id="DejaVuSans-47"/>
      <path d="M 19.671875 64.796875 
L 19.671875 8.109375 
L 31.59375 8.109375 
Q 46.6875 8.109375 53.6875 14.9375 
Q 60.6875 21.78125 60.6875 36.53125 
Q 60.6875 51.171875 53.6875 57.984375 
Q 46.6875 64.796875 31.59375 64.796875 
z
M 9.8125 72.90625 
L 30.078125 72.90625 
Q 51.265625 72.90625 61.171875 64.09375 
Q 71.09375 55.28125 71.09375 36.53125 
Q 71.09375 17.671875 61.125 8.828125 
Q 51.171875 0 30.078125 0 
L 9.8125 0 
z
" id="DejaVuSans-44"/>
      <path d="M 11.71875 12.40625 
L 22.015625 12.40625 
L 22.015625 4 
L 14.015625 -11.625 
L 7.71875 -11.625 
L 11.71875 4 
z
" id="DejaVuSans-2c"/>
      <path d="M 41.109375 46.296875 
Q 39.59375 47.171875 37.8125 47.578125 
Q 36.03125 48 33.890625 48 
Q 26.265625 48 22.1875 43.046875 
Q 18.109375 38.09375 18.109375 28.8125 
L 18.109375 0 
L 9.078125 0 
L 9.078125 54.6875 
L 18.109375 54.6875 
L 18.109375 46.1875 
Q 20.953125 51.171875 25.484375 53.578125 
Q 30.03125 56 36.53125 56 
Q 37.453125 56 38.578125 55.875 
Q 39.703125 55.765625 41.0625 55.515625 
z
" id="DejaVuSans-72"/>
      <path d="M 10.6875 12.40625 
L 21 12.40625 
L 21 0 
L 10.6875 0 
z
" id="DejaVuSans-2e"/>
     </defs>
     <g transform="translate(212.2475 58.070437)scale(0.1 -0.1)">
      <use xlink:href="#DejaVuSans-53"/>
      <use x="63.476562" xlink:href="#DejaVuSans-47"/>
      <use x="140.966797" xlink:href="#DejaVuSans-44"/>
      <use x="217.96875" xlink:href="#DejaVuSans-2c"/>
      <use x="249.755859" xlink:href="#DejaVuSans-20"/>
      <use x="281.542969" xlink:href="#DejaVuSans-6c"/>
      <use x="309.326172" xlink:href="#DejaVuSans-72"/>
      <use x="350.439453" xlink:href="#DejaVuSans-20"/>
      <use x="382.226562" xlink:href="#DejaVuSans-30"/>
      <use x="445.849609" xlink:href="#DejaVuSans-2e"/>
      <use x="477.636719" xlink:href="#DejaVuSans-31"/>
     </g>
    </g>
    <g id="line2d_45">
     <path d="M 184.2475 69.248562 
L 204.2475 69.248562 
" style="fill:none;stroke:#ff7f0e;stroke-linecap:square;stroke-width:1.5;"/>
    </g>
    <g id="line2d_46"/>
    <g id="text_11">
     <!-- SGD, lr 0.01 -->
     <g transform="translate(212.2475 72.748562)scale(0.1 -0.1)">
      <use xlink:href="#DejaVuSans-53"/>
      <use x="63.476562" xlink:href="#DejaVuSans-47"/>
      <use x="140.966797" xlink:href="#DejaVuSans-44"/>
      <use x="217.96875" xlink:href="#DejaVuSans-2c"/>
      <use x="249.755859" xlink:href="#DejaVuSans-20"/>
      <use x="281.542969" xlink:href="#DejaVuSans-6c"/>
      <use x="309.326172" xlink:href="#DejaVuSans-72"/>
      <use x="350.439453" xlink:href="#DejaVuSans-20"/>
      <use x="382.226562" xlink:href="#DejaVuSans-30"/>
      <use x="445.849609" xlink:href="#DejaVuSans-2e"/>
      <use x="477.636719" xlink:href="#DejaVuSans-30"/>
      <use x="541.259766" xlink:href="#DejaVuSans-31"/>
     </g>
    </g>
    <g id="line2d_47">
     <path d="M 184.2475 83.926688 
L 204.2475 83.926688 
" style="fill:none;stroke:#2ca02c;stroke-linecap:square;stroke-width:1.5;"/>
    </g>
    <g id="line2d_48"/>
    <g id="text_12">
     <!-- SGD, lr 0.001 -->
     <g transform="translate(212.2475 87.426688)scale(0.1 -0.1)">
      <use xlink:href="#DejaVuSans-53"/>
      <use x="63.476562" xlink:href="#DejaVuSans-47"/>
      <use x="140.966797" xlink:href="#DejaVuSans-44"/>
      <use x="217.96875" xlink:href="#DejaVuSans-2c"/>
      <use x="249.755859" xlink:href="#DejaVuSans-20"/>
      <use x="281.542969" xlink:href="#DejaVuSans-6c"/>
      <use x="309.326172" xlink:href="#DejaVuSans-72"/>
      <use x="350.439453" xlink:href="#DejaVuSans-20"/>
      <use x="382.226562" xlink:href="#DejaVuSans-30"/>
      <use x="445.849609" xlink:href="#DejaVuSans-2e"/>
      <use x="477.636719" xlink:href="#DejaVuSans-30"/>
      <use x="541.259766" xlink:href="#DejaVuSans-30"/>
      <use x="604.882812" xlink:href="#DejaVuSans-31"/>
     </g>
    </g>
    <g id="line2d_49">
     <path d="M 184.2475 98.604812 
L 204.2475 98.604812 
" style="fill:none;stroke:#d62728;stroke-dasharray:5.55,2.4;stroke-dashoffset:0;stroke-width:1.5;"/>
    </g>
    <g id="line2d_50"/>
    <g id="text_13">
     <!-- SGN, cg iter 40 -->
     <defs>
      <path d="M 9.8125 72.90625 
L 23.09375 72.90625 
L 55.421875 11.921875 
L 55.421875 72.90625 
L 64.984375 72.90625 
L 64.984375 0 
L 51.703125 0 
L 19.390625 60.984375 
L 19.390625 0 
L 9.8125 0 
z
" id="DejaVuSans-4e"/>
      <path d="M 45.40625 27.984375 
Q 45.40625 37.75 41.375 43.109375 
Q 37.359375 48.484375 30.078125 48.484375 
Q 22.859375 48.484375 18.828125 43.109375 
Q 14.796875 37.75 14.796875 27.984375 
Q 14.796875 18.265625 18.828125 12.890625 
Q 22.859375 7.515625 30.078125 7.515625 
Q 37.359375 7.515625 41.375 12.890625 
Q 45.40625 18.265625 45.40625 27.984375 
z
M 54.390625 6.78125 
Q 54.390625 -7.171875 48.1875 -13.984375 
Q 42 -20.796875 29.203125 -20.796875 
Q 24.46875 -20.796875 20.265625 -20.09375 
Q 16.0625 -19.390625 12.109375 -17.921875 
L 12.109375 -9.1875 
Q 16.0625 -11.328125 19.921875 -12.34375 
Q 23.78125 -13.375 27.78125 -13.375 
Q 36.625 -13.375 41.015625 -8.765625 
Q 45.40625 -4.15625 45.40625 5.171875 
L 45.40625 9.625 
Q 42.625 4.78125 38.28125 2.390625 
Q 33.9375 0 27.875 0 
Q 17.828125 0 11.671875 7.65625 
Q 5.515625 15.328125 5.515625 27.984375 
Q 5.515625 40.671875 11.671875 48.328125 
Q 17.828125 56 27.875 56 
Q 33.9375 56 38.28125 53.609375 
Q 42.625 51.21875 45.40625 46.390625 
L 45.40625 54.6875 
L 54.390625 54.6875 
z
" id="DejaVuSans-67"/>
      <path d="M 9.421875 54.6875 
L 18.40625 54.6875 
L 18.40625 0 
L 9.421875 0 
z
M 9.421875 75.984375 
L 18.40625 75.984375 
L 18.40625 64.59375 
L 9.421875 64.59375 
z
" id="DejaVuSans-69"/>
     </defs>
     <g transform="translate(212.2475 102.104812)scale(0.1 -0.1)">
      <use xlink:href="#DejaVuSans-53"/>
      <use x="63.476562" xlink:href="#DejaVuSans-47"/>
      <use x="140.966797" xlink:href="#DejaVuSans-4e"/>
      <use x="215.771484" xlink:href="#DejaVuSans-2c"/>
      <use x="247.558594" xlink:href="#DejaVuSans-20"/>
      <use x="279.345703" xlink:href="#DejaVuSans-63"/>
      <use x="334.326172" xlink:href="#DejaVuSans-67"/>
      <use x="397.802734" xlink:href="#DejaVuSans-20"/>
      <use x="429.589844" xlink:href="#DejaVuSans-69"/>
      <use x="457.373047" xlink:href="#DejaVuSans-74"/>
      <use x="496.582031" xlink:href="#DejaVuSans-65"/>
      <use x="558.105469" xlink:href="#DejaVuSans-72"/>
      <use x="599.21875" xlink:href="#DejaVuSans-20"/>
      <use x="631.005859" xlink:href="#DejaVuSans-34"/>
      <use x="694.628906" xlink:href="#DejaVuSans-30"/>
     </g>
    </g>
    <g id="line2d_51">
     <path d="M 184.2475 113.282938 
L 204.2475 113.282938 
" style="fill:none;stroke:#9467bd;stroke-dasharray:5.55,2.4;stroke-dashoffset:0;stroke-width:1.5;"/>
    </g>
    <g id="line2d_52"/>
    <g id="text_14">
     <!-- SGN, cg iter 30 -->
     <defs>
      <path d="M 40.578125 39.3125 
Q 47.65625 37.796875 51.625 33 
Q 55.609375 28.21875 55.609375 21.1875 
Q 55.609375 10.40625 48.1875 4.484375 
Q 40.765625 -1.421875 27.09375 -1.421875 
Q 22.515625 -1.421875 17.65625 -0.515625 
Q 12.796875 0.390625 7.625 2.203125 
L 7.625 11.71875 
Q 11.71875 9.328125 16.59375 8.109375 
Q 21.484375 6.890625 26.8125 6.890625 
Q 36.078125 6.890625 40.9375 10.546875 
Q 45.796875 14.203125 45.796875 21.1875 
Q 45.796875 27.640625 41.28125 31.265625 
Q 36.765625 34.90625 28.71875 34.90625 
L 20.21875 34.90625 
L 20.21875 43.015625 
L 29.109375 43.015625 
Q 36.375 43.015625 40.234375 45.921875 
Q 44.09375 48.828125 44.09375 54.296875 
Q 44.09375 59.90625 40.109375 62.90625 
Q 36.140625 65.921875 28.71875 65.921875 
Q 24.65625 65.921875 20.015625 65.03125 
Q 15.375 64.15625 9.8125 62.3125 
L 9.8125 71.09375 
Q 15.4375 72.65625 20.34375 73.4375 
Q 25.25 74.21875 29.59375 74.21875 
Q 40.828125 74.21875 47.359375 69.109375 
Q 53.90625 64.015625 53.90625 55.328125 
Q 53.90625 49.265625 50.4375 45.09375 
Q 46.96875 40.921875 40.578125 39.3125 
z
" id="DejaVuSans-33"/>
     </defs>
     <g transform="translate(212.2475 116.782938)scale(0.1 -0.1)">
      <use xlink:href="#DejaVuSans-53"/>
      <use x="63.476562" xlink:href="#DejaVuSans-47"/>
      <use x="140.966797" xlink:href="#DejaVuSans-4e"/>
      <use x="215.771484" xlink:href="#DejaVuSans-2c"/>
      <use x="247.558594" xlink:href="#DejaVuSans-20"/>
      <use x="279.345703" xlink:href="#DejaVuSans-63"/>
      <use x="334.326172" xlink:href="#DejaVuSans-67"/>
      <use x="397.802734" xlink:href="#DejaVuSans-20"/>
      <use x="429.589844" xlink:href="#DejaVuSans-69"/>
      <use x="457.373047" xlink:href="#DejaVuSans-74"/>
      <use x="496.582031" xlink:href="#DejaVuSans-65"/>
      <use x="558.105469" xlink:href="#DejaVuSans-72"/>
      <use x="599.21875" xlink:href="#DejaVuSans-20"/>
      <use x="631.005859" xlink:href="#DejaVuSans-33"/>
      <use x="694.628906" xlink:href="#DejaVuSans-30"/>
     </g>
    </g>
    <g id="line2d_53">
     <path d="M 184.2475 127.961062 
L 204.2475 127.961062 
" style="fill:none;stroke:#8c564b;stroke-dasharray:5.55,2.4;stroke-dashoffset:0;stroke-width:1.5;"/>
    </g>
    <g id="line2d_54"/>
    <g id="text_15">
     <!-- SGN, cg iter 20 -->
     <g transform="translate(212.2475 131.461062)scale(0.1 -0.1)">
      <use xlink:href="#DejaVuSans-53"/>
      <use x="63.476562" xlink:href="#DejaVuSans-47"/>
      <use x="140.966797" xlink:href="#DejaVuSans-4e"/>
      <use x="215.771484" xlink:href="#DejaVuSans-2c"/>
      <use x="247.558594" xlink:href="#DejaVuSans-20"/>
      <use x="279.345703" xlink:href="#DejaVuSans-63"/>
      <use x="334.326172" xlink:href="#DejaVuSans-67"/>
      <use x="397.802734" xlink:href="#DejaVuSans-20"/>
      <use x="429.589844" xlink:href="#DejaVuSans-69"/>
      <use x="457.373047" xlink:href="#DejaVuSans-74"/>
      <use x="496.582031" xlink:href="#DejaVuSans-65"/>
      <use x="558.105469" xlink:href="#DejaVuSans-72"/>
      <use x="599.21875" xlink:href="#DejaVuSans-20"/>
      <use x="631.005859" xlink:href="#DejaVuSans-32"/>
      <use x="694.628906" xlink:href="#DejaVuSans-30"/>
     </g>
    </g>
    <g id="line2d_55">
     <path d="M 184.2475 142.639187 
L 204.2475 142.639187 
" style="fill:none;stroke:#e377c2;stroke-dasharray:5.55,2.4;stroke-dashoffset:0;stroke-width:1.5;"/>
    </g>
    <g id="line2d_56"/>
    <g id="text_16">
     <!-- SGN, cg iter 10 -->
     <g transform="translate(212.2475 146.139187)scale(0.1 -0.1)">
      <use xlink:href="#DejaVuSans-53"/>
      <use x="63.476562" xlink:href="#DejaVuSans-47"/>
      <use x="140.966797" xlink:href="#DejaVuSans-4e"/>
      <use x="215.771484" xlink:href="#DejaVuSans-2c"/>
      <use x="247.558594" xlink:href="#DejaVuSans-20"/>
      <use x="279.345703" xlink:href="#DejaVuSans-63"/>
      <use x="334.326172" xlink:href="#DejaVuSans-67"/>
      <use x="397.802734" xlink:href="#DejaVuSans-20"/>
      <use x="429.589844" xlink:href="#DejaVuSans-69"/>
      <use x="457.373047" xlink:href="#DejaVuSans-74"/>
      <use x="496.582031" xlink:href="#DejaVuSans-65"/>
      <use x="558.105469" xlink:href="#DejaVuSans-72"/>
      <use x="599.21875" xlink:href="#DejaVuSans-20"/>
      <use x="631.005859" xlink:href="#DejaVuSans-31"/>
      <use x="694.628906" xlink:href="#DejaVuSans-30"/>
     </g>
    </g>
    <g id="line2d_57">
     <path d="M 184.2475 157.317312 
L 204.2475 157.317312 
" style="fill:none;stroke:#7f7f7f;stroke-dasharray:5.55,2.4;stroke-dashoffset:0;stroke-width:1.5;"/>
    </g>
    <g id="line2d_58"/>
    <g id="text_17">
     <!-- SGN, cg iter 5 -->
     <defs>
      <path d="M 10.796875 72.90625 
L 49.515625 72.90625 
L 49.515625 64.59375 
L 19.828125 64.59375 
L 19.828125 46.734375 
Q 21.96875 47.46875 24.109375 47.828125 
Q 26.265625 48.1875 28.421875 48.1875 
Q 40.625 48.1875 47.75 41.5 
Q 54.890625 34.8125 54.890625 23.390625 
Q 54.890625 11.625 47.5625 5.09375 
Q 40.234375 -1.421875 26.90625 -1.421875 
Q 22.3125 -1.421875 17.546875 -0.640625 
Q 12.796875 0.140625 7.71875 1.703125 
L 7.71875 11.625 
Q 12.109375 9.234375 16.796875 8.0625 
Q 21.484375 6.890625 26.703125 6.890625 
Q 35.15625 6.890625 40.078125 11.328125 
Q 45.015625 15.765625 45.015625 23.390625 
Q 45.015625 31 40.078125 35.4375 
Q 35.15625 39.890625 26.703125 39.890625 
Q 22.75 39.890625 18.8125 39.015625 
Q 14.890625 38.140625 10.796875 36.28125 
z
" id="DejaVuSans-35"/>
     </defs>
     <g transform="translate(212.2475 160.817312)scale(0.1 -0.1)">
      <use xlink:href="#DejaVuSans-53"/>
      <use x="63.476562" xlink:href="#DejaVuSans-47"/>
      <use x="140.966797" xlink:href="#DejaVuSans-4e"/>
      <use x="215.771484" xlink:href="#DejaVuSans-2c"/>
      <use x="247.558594" xlink:href="#DejaVuSans-20"/>
      <use x="279.345703" xlink:href="#DejaVuSans-63"/>
      <use x="334.326172" xlink:href="#DejaVuSans-67"/>
      <use x="397.802734" xlink:href="#DejaVuSans-20"/>
      <use x="429.589844" xlink:href="#DejaVuSans-69"/>
      <use x="457.373047" xlink:href="#DejaVuSans-74"/>
      <use x="496.582031" xlink:href="#DejaVuSans-65"/>
      <use x="558.105469" xlink:href="#DejaVuSans-72"/>
      <use x="599.21875" xlink:href="#DejaVuSans-20"/>
      <use x="631.005859" xlink:href="#DejaVuSans-35"/>
     </g>
    </g>
    <g id="line2d_59">
     <path d="M 184.2475 171.995437 
L 204.2475 171.995437 
" style="fill:none;stroke:#bcbd22;stroke-dasharray:5.55,2.4;stroke-dashoffset:0;stroke-width:1.5;"/>
    </g>
    <g id="line2d_60"/>
    <g id="text_18">
     <!-- SGN, cg iter 3 -->
     <g transform="translate(212.2475 175.495437)scale(0.1 -0.1)">
      <use xlink:href="#DejaVuSans-53"/>
      <use x="63.476562" xlink:href="#DejaVuSans-47"/>
      <use x="140.966797" xlink:href="#DejaVuSans-4e"/>
      <use x="215.771484" xlink:href="#DejaVuSans-2c"/>
      <use x="247.558594" xlink:href="#DejaVuSans-20"/>
      <use x="279.345703" xlink:href="#DejaVuSans-63"/>
      <use x="334.326172" xlink:href="#DejaVuSans-67"/>
      <use x="397.802734" xlink:href="#DejaVuSans-20"/>
      <use x="429.589844" xlink:href="#DejaVuSans-69"/>
      <use x="457.373047" xlink:href="#DejaVuSans-74"/>
      <use x="496.582031" xlink:href="#DejaVuSans-65"/>
      <use x="558.105469" xlink:href="#DejaVuSans-72"/>
      <use x="599.21875" xlink:href="#DejaVuSans-20"/>
      <use x="631.005859" xlink:href="#DejaVuSans-33"/>
     </g>
    </g>
    <g id="line2d_61">
     <path d="M 184.2475 186.673562 
L 204.2475 186.673562 
" style="fill:none;stroke:#17becf;stroke-dasharray:5.55,2.4;stroke-dashoffset:0;stroke-width:1.5;"/>
    </g>
    <g id="line2d_62"/>
    <g id="text_19">
     <!-- SGN, cg iter 2 -->
     <g transform="translate(212.2475 190.173562)scale(0.1 -0.1)">
      <use xlink:href="#DejaVuSans-53"/>
      <use x="63.476562" xlink:href="#DejaVuSans-47"/>
      <use x="140.966797" xlink:href="#DejaVuSans-4e"/>
      <use x="215.771484" xlink:href="#DejaVuSans-2c"/>
      <use x="247.558594" xlink:href="#DejaVuSans-20"/>
      <use x="279.345703" xlink:href="#DejaVuSans-63"/>
      <use x="334.326172" xlink:href="#DejaVuSans-67"/>
      <use x="397.802734" xlink:href="#DejaVuSans-20"/>
      <use x="429.589844" xlink:href="#DejaVuSans-69"/>
      <use x="457.373047" xlink:href="#DejaVuSans-74"/>
      <use x="496.582031" xlink:href="#DejaVuSans-65"/>
      <use x="558.105469" xlink:href="#DejaVuSans-72"/>
      <use x="599.21875" xlink:href="#DejaVuSans-20"/>
      <use x="631.005859" xlink:href="#DejaVuSans-32"/>
     </g>
    </g>
   </g>
  </g>
 </g>
 <defs>
  <clipPath id="p7caa5ac9a6">
   <rect height="266.112" width="357.12" x="57.6" y="41.472"/>
  </clipPath>
 </defs>
</svg>
