<?xml version="1.0" encoding="utf-8" standalone="no"?>
<!DOCTYPE svg PUBLIC "-//W3C//DTD SVG 1.1//EN"
  "http://www.w3.org/Graphics/SVG/1.1/DTD/svg11.dtd">
<!-- Created with matplotlib (http://matplotlib.org/) -->
<svg height="345pt" version="1.1" viewBox="0 0 460 345" width="460pt" xmlns="http://www.w3.org/2000/svg" xmlns:xlink="http://www.w3.org/1999/xlink">
 <defs>
  <style type="text/css">
*{stroke-linecap:butt;stroke-linejoin:round;}
  </style>
 </defs>
 <g id="figure_1">
  <g id="patch_1">
   <path d="M 0 345.6 
L 460.8 345.6 
L 460.8 0 
L 0 0 
z
" style="fill:none;opacity:0;"/>
  </g>
  <g id="axes_1">
   <g id="patch_2">
    <path d="M 57.6 307.584 
L 414.72 307.584 
L 414.72 41.472 
L 57.6 41.472 
z
" style="fill:#ffffff;"/>
   </g>
   <g id="matplotlib.axis_1">
    <g id="xtick_1">
     <g id="line2d_1">
      <path clip-path="url(#p6ffef61e75)" d="M 73.627385 307.584 
L 73.627385 41.472 
" style="fill:none;stroke:#b0b0b0;stroke-linecap:square;stroke-width:0.8;"/>
     </g>
     <g id="line2d_2">
      <defs>
       <path d="M 0 0 
L 0 3.5 
" id="mb68d3be35a" style="stroke:#000000;stroke-width:0.8;"/>
      </defs>
      <g>
       <use style="stroke:#000000;stroke-width:0.8;" x="73.627385" xlink:href="#mb68d3be35a" y="307.584"/>
      </g>
     </g>
     <g id="text_1">
      <!-- 0 -->
      <defs>
       <path d="M 31.78125 66.40625 
Q 24.171875 66.40625 20.328125 58.90625 
Q 16.5 51.421875 16.5 36.375 
Q 16.5 21.390625 20.328125 13.890625 
Q 24.171875 6.390625 31.78125 6.390625 
Q 39.453125 6.390625 43.28125 13.890625 
Q 47.125 21.390625 47.125 36.375 
Q 47.125 51.421875 43.28125 58.90625 
Q 39.453125 66.40625 31.78125 66.40625 
z
M 31.78125 74.21875 
Q 44.046875 74.21875 50.515625 64.515625 
Q 56.984375 54.828125 56.984375 36.375 
Q 56.984375 17.96875 50.515625 8.265625 
Q 44.046875 -1.421875 31.78125 -1.421875 
Q 19.53125 -1.421875 13.0625 8.265625 
Q 6.59375 17.96875 6.59375 36.375 
Q 6.59375 54.828125 13.0625 64.515625 
Q 19.53125 74.21875 31.78125 74.21875 
z
" id="DejaVuSans-30"/>
      </defs>
      <g transform="translate(70.446135 322.182437)scale(0.1 -0.1)">
       <use xlink:href="#DejaVuSans-30"/>
      </g>
     </g>
    </g>
    <g id="xtick_2">
     <g id="line2d_3">
      <path clip-path="url(#p6ffef61e75)" d="M 138.150038 307.584 
L 138.150038 41.472 
" style="fill:none;stroke:#b0b0b0;stroke-linecap:square;stroke-width:0.8;"/>
     </g>
     <g id="line2d_4">
      <g>
       <use style="stroke:#000000;stroke-width:0.8;" x="138.150038" xlink:href="#mb68d3be35a" y="307.584"/>
      </g>
     </g>
     <g id="text_2">
      <!-- 20 -->
      <defs>
       <path d="M 19.1875 8.296875 
L 53.609375 8.296875 
L 53.609375 0 
L 7.328125 0 
L 7.328125 8.296875 
Q 12.9375 14.109375 22.625 23.890625 
Q 32.328125 33.6875 34.8125 36.53125 
Q 39.546875 41.84375 41.421875 45.53125 
Q 43.3125 49.21875 43.3125 52.78125 
Q 43.3125 58.59375 39.234375 62.25 
Q 35.15625 65.921875 28.609375 65.921875 
Q 23.96875 65.921875 18.8125 64.3125 
Q 13.671875 62.703125 7.8125 59.421875 
L 7.8125 69.390625 
Q 13.765625 71.78125 18.9375 73 
Q 24.125 74.21875 28.421875 74.21875 
Q 39.75 74.21875 46.484375 68.546875 
Q 53.21875 62.890625 53.21875 53.421875 
Q 53.21875 48.921875 51.53125 44.890625 
Q 49.859375 40.875 45.40625 35.40625 
Q 44.1875 33.984375 37.640625 27.21875 
Q 31.109375 20.453125 19.1875 8.296875 
z
" id="DejaVuSans-32"/>
      </defs>
      <g transform="translate(131.787538 322.182437)scale(0.1 -0.1)">
       <use xlink:href="#DejaVuSans-32"/>
       <use x="63.623047" xlink:href="#DejaVuSans-30"/>
      </g>
     </g>
    </g>
    <g id="xtick_3">
     <g id="line2d_5">
      <path clip-path="url(#p6ffef61e75)" d="M 202.672691 307.584 
L 202.672691 41.472 
" style="fill:none;stroke:#b0b0b0;stroke-linecap:square;stroke-width:0.8;"/>
     </g>
     <g id="line2d_6">
      <g>
       <use style="stroke:#000000;stroke-width:0.8;" x="202.672691" xlink:href="#mb68d3be35a" y="307.584"/>
      </g>
     </g>
     <g id="text_3">
      <!-- 40 -->
      <defs>
       <path d="M 37.796875 64.3125 
L 12.890625 25.390625 
L 37.796875 25.390625 
z
M 35.203125 72.90625 
L 47.609375 72.90625 
L 47.609375 25.390625 
L 58.015625 25.390625 
L 58.015625 17.1875 
L 47.609375 17.1875 
L 47.609375 0 
L 37.796875 0 
L 37.796875 17.1875 
L 4.890625 17.1875 
L 4.890625 26.703125 
z
" id="DejaVuSans-34"/>
      </defs>
      <g transform="translate(196.310191 322.182437)scale(0.1 -0.1)">
       <use xlink:href="#DejaVuSans-34"/>
       <use x="63.623047" xlink:href="#DejaVuSans-30"/>
      </g>
     </g>
    </g>
    <g id="xtick_4">
     <g id="line2d_7">
      <path clip-path="url(#p6ffef61e75)" d="M 267.195345 307.584 
L 267.195345 41.472 
" style="fill:none;stroke:#b0b0b0;stroke-linecap:square;stroke-width:0.8;"/>
     </g>
     <g id="line2d_8">
      <g>
       <use style="stroke:#000000;stroke-width:0.8;" x="267.195345" xlink:href="#mb68d3be35a" y="307.584"/>
      </g>
     </g>
     <g id="text_4">
      <!-- 60 -->
      <defs>
       <path d="M 33.015625 40.375 
Q 26.375 40.375 22.484375 35.828125 
Q 18.609375 31.296875 18.609375 23.390625 
Q 18.609375 15.53125 22.484375 10.953125 
Q 26.375 6.390625 33.015625 6.390625 
Q 39.65625 6.390625 43.53125 10.953125 
Q 47.40625 15.53125 47.40625 23.390625 
Q 47.40625 31.296875 43.53125 35.828125 
Q 39.65625 40.375 33.015625 40.375 
z
M 52.59375 71.296875 
L 52.59375 62.3125 
Q 48.875 64.0625 45.09375 64.984375 
Q 41.3125 65.921875 37.59375 65.921875 
Q 27.828125 65.921875 22.671875 59.328125 
Q 17.53125 52.734375 16.796875 39.40625 
Q 19.671875 43.65625 24.015625 45.921875 
Q 28.375 48.1875 33.59375 48.1875 
Q 44.578125 48.1875 50.953125 41.515625 
Q 57.328125 34.859375 57.328125 23.390625 
Q 57.328125 12.15625 50.6875 5.359375 
Q 44.046875 -1.421875 33.015625 -1.421875 
Q 20.359375 -1.421875 13.671875 8.265625 
Q 6.984375 17.96875 6.984375 36.375 
Q 6.984375 53.65625 15.1875 63.9375 
Q 23.390625 74.21875 37.203125 74.21875 
Q 40.921875 74.21875 44.703125 73.484375 
Q 48.484375 72.75 52.59375 71.296875 
z
" id="DejaVuSans-36"/>
      </defs>
      <g transform="translate(260.832845 322.182437)scale(0.1 -0.1)">
       <use xlink:href="#DejaVuSans-36"/>
       <use x="63.623047" xlink:href="#DejaVuSans-30"/>
      </g>
     </g>
    </g>
    <g id="xtick_5">
     <g id="line2d_9">
      <path clip-path="url(#p6ffef61e75)" d="M 331.717998 307.584 
L 331.717998 41.472 
" style="fill:none;stroke:#b0b0b0;stroke-linecap:square;stroke-width:0.8;"/>
     </g>
     <g id="line2d_10">
      <g>
       <use style="stroke:#000000;stroke-width:0.8;" x="331.717998" xlink:href="#mb68d3be35a" y="307.584"/>
      </g>
     </g>
     <g id="text_5">
      <!-- 80 -->
      <defs>
       <path d="M 31.78125 34.625 
Q 24.75 34.625 20.71875 30.859375 
Q 16.703125 27.09375 16.703125 20.515625 
Q 16.703125 13.921875 20.71875 10.15625 
Q 24.75 6.390625 31.78125 6.390625 
Q 38.8125 6.390625 42.859375 10.171875 
Q 46.921875 13.96875 46.921875 20.515625 
Q 46.921875 27.09375 42.890625 30.859375 
Q 38.875 34.625 31.78125 34.625 
z
M 21.921875 38.8125 
Q 15.578125 40.375 12.03125 44.71875 
Q 8.5 49.078125 8.5 55.328125 
Q 8.5 64.0625 14.71875 69.140625 
Q 20.953125 74.21875 31.78125 74.21875 
Q 42.671875 74.21875 48.875 69.140625 
Q 55.078125 64.0625 55.078125 55.328125 
Q 55.078125 49.078125 51.53125 44.71875 
Q 48 40.375 41.703125 38.8125 
Q 48.828125 37.15625 52.796875 32.3125 
Q 56.78125 27.484375 56.78125 20.515625 
Q 56.78125 9.90625 50.3125 4.234375 
Q 43.84375 -1.421875 31.78125 -1.421875 
Q 19.734375 -1.421875 13.25 4.234375 
Q 6.78125 9.90625 6.78125 20.515625 
Q 6.78125 27.484375 10.78125 32.3125 
Q 14.796875 37.15625 21.921875 38.8125 
z
M 18.3125 54.390625 
Q 18.3125 48.734375 21.84375 45.5625 
Q 25.390625 42.390625 31.78125 42.390625 
Q 38.140625 42.390625 41.71875 45.5625 
Q 45.3125 48.734375 45.3125 54.390625 
Q 45.3125 60.0625 41.71875 63.234375 
Q 38.140625 66.40625 31.78125 66.40625 
Q 25.390625 66.40625 21.84375 63.234375 
Q 18.3125 60.0625 18.3125 54.390625 
z
" id="DejaVuSans-38"/>
      </defs>
      <g transform="translate(325.355498 322.182437)scale(0.1 -0.1)">
       <use xlink:href="#DejaVuSans-38"/>
       <use x="63.623047" xlink:href="#DejaVuSans-30"/>
      </g>
     </g>
    </g>
    <g id="xtick_6">
     <g id="line2d_11">
      <path clip-path="url(#p6ffef61e75)" d="M 396.240651 307.584 
L 396.240651 41.472 
" style="fill:none;stroke:#b0b0b0;stroke-linecap:square;stroke-width:0.8;"/>
     </g>
     <g id="line2d_12">
      <g>
       <use style="stroke:#000000;stroke-width:0.8;" x="396.240651" xlink:href="#mb68d3be35a" y="307.584"/>
      </g>
     </g>
     <g id="text_6">
      <!-- 100 -->
      <defs>
       <path d="M 12.40625 8.296875 
L 28.515625 8.296875 
L 28.515625 63.921875 
L 10.984375 60.40625 
L 10.984375 69.390625 
L 28.421875 72.90625 
L 38.28125 72.90625 
L 38.28125 8.296875 
L 54.390625 8.296875 
L 54.390625 0 
L 12.40625 0 
z
" id="DejaVuSans-31"/>
      </defs>
      <g transform="translate(386.696901 322.182437)scale(0.1 -0.1)">
       <use xlink:href="#DejaVuSans-31"/>
       <use x="63.623047" xlink:href="#DejaVuSans-30"/>
       <use x="127.246094" xlink:href="#DejaVuSans-30"/>
      </g>
     </g>
    </g>
    <g id="text_7">
     <!-- sec -->
     <defs>
      <path d="M 44.28125 53.078125 
L 44.28125 44.578125 
Q 40.484375 46.53125 36.375 47.5 
Q 32.28125 48.484375 27.875 48.484375 
Q 21.1875 48.484375 17.84375 46.4375 
Q 14.5 44.390625 14.5 40.28125 
Q 14.5 37.15625 16.890625 35.375 
Q 19.28125 33.59375 26.515625 31.984375 
L 29.59375 31.296875 
Q 39.15625 29.25 43.1875 25.515625 
Q 47.21875 21.78125 47.21875 15.09375 
Q 47.21875 7.46875 41.1875 3.015625 
Q 35.15625 -1.421875 24.609375 -1.421875 
Q 20.21875 -1.421875 15.453125 -0.5625 
Q 10.6875 0.296875 5.421875 2 
L 5.421875 11.28125 
Q 10.40625 8.6875 15.234375 7.390625 
Q 20.0625 6.109375 24.8125 6.109375 
Q 31.15625 6.109375 34.5625 8.28125 
Q 37.984375 10.453125 37.984375 14.40625 
Q 37.984375 18.0625 35.515625 20.015625 
Q 33.0625 21.96875 24.703125 23.78125 
L 21.578125 24.515625 
Q 13.234375 26.265625 9.515625 29.90625 
Q 5.8125 33.546875 5.8125 39.890625 
Q 5.8125 47.609375 11.28125 51.796875 
Q 16.75 56 26.8125 56 
Q 31.78125 56 36.171875 55.265625 
Q 40.578125 54.546875 44.28125 53.078125 
z
" id="DejaVuSans-73"/>
      <path d="M 56.203125 29.59375 
L 56.203125 25.203125 
L 14.890625 25.203125 
Q 15.484375 15.921875 20.484375 11.0625 
Q 25.484375 6.203125 34.421875 6.203125 
Q 39.59375 6.203125 44.453125 7.46875 
Q 49.3125 8.734375 54.109375 11.28125 
L 54.109375 2.78125 
Q 49.265625 0.734375 44.1875 -0.34375 
Q 39.109375 -1.421875 33.890625 -1.421875 
Q 20.796875 -1.421875 13.15625 6.1875 
Q 5.515625 13.8125 5.515625 26.8125 
Q 5.515625 40.234375 12.765625 48.109375 
Q 20.015625 56 32.328125 56 
Q 43.359375 56 49.78125 48.890625 
Q 56.203125 41.796875 56.203125 29.59375 
z
M 47.21875 32.234375 
Q 47.125 39.59375 43.09375 43.984375 
Q 39.0625 48.390625 32.421875 48.390625 
Q 24.90625 48.390625 20.390625 44.140625 
Q 15.875 39.890625 15.1875 32.171875 
z
" id="DejaVuSans-65"/>
      <path d="M 48.78125 52.59375 
L 48.78125 44.1875 
Q 44.96875 46.296875 41.140625 47.34375 
Q 37.3125 48.390625 33.40625 48.390625 
Q 24.65625 48.390625 19.8125 42.84375 
Q 14.984375 37.3125 14.984375 27.296875 
Q 14.984375 17.28125 19.8125 11.734375 
Q 24.65625 6.203125 33.40625 6.203125 
Q 37.3125 6.203125 41.140625 7.25 
Q 44.96875 8.296875 48.78125 10.40625 
L 48.78125 2.09375 
Q 45.015625 0.34375 40.984375 -0.53125 
Q 36.96875 -1.421875 32.421875 -1.421875 
Q 20.0625 -1.421875 12.78125 6.34375 
Q 5.515625 14.109375 5.515625 27.296875 
Q 5.515625 40.671875 12.859375 48.328125 
Q 20.21875 56 33.015625 56 
Q 37.15625 56 41.109375 55.140625 
Q 45.0625 54.296875 48.78125 52.59375 
z
" id="DejaVuSans-63"/>
     </defs>
     <g transform="translate(227.729531 335.860562)scale(0.1 -0.1)">
      <use xlink:href="#DejaVuSans-73"/>
      <use x="52.099609" xlink:href="#DejaVuSans-65"/>
      <use x="113.623047" xlink:href="#DejaVuSans-63"/>
     </g>
    </g>
   </g>
   <g id="matplotlib.axis_2">
    <g id="ytick_1">
     <g id="line2d_13">
      <path clip-path="url(#p6ffef61e75)" d="M 57.6 292.472278 
L 414.72 292.472278 
" style="fill:none;stroke:#b0b0b0;stroke-linecap:square;stroke-width:0.8;"/>
     </g>
     <g id="line2d_14">
      <defs>
       <path d="M 0 0 
L -3.5 0 
" id="ma7ccfd77fe" style="stroke:#000000;stroke-width:0.8;"/>
      </defs>
      <g>
       <use style="stroke:#000000;stroke-width:0.8;" x="57.6" xlink:href="#ma7ccfd77fe" y="292.472278"/>
      </g>
     </g>
     <g id="text_8">
      <!-- $\mathdefault{10^{-4}}$ -->
      <defs>
       <path d="M 10.59375 35.5 
L 73.1875 35.5 
L 73.1875 27.203125 
L 10.59375 27.203125 
z
" id="DejaVuSans-2212"/>
      </defs>
      <g transform="translate(27.1 296.271496)scale(0.1 -0.1)">
       <use transform="translate(0 0.684375)" xlink:href="#DejaVuSans-31"/>
       <use transform="translate(63.623047 0.684375)" xlink:href="#DejaVuSans-30"/>
       <use transform="translate(128.203125 38.965625)scale(0.7)" xlink:href="#DejaVuSans-2212"/>
       <use transform="translate(186.855469 38.965625)scale(0.7)" xlink:href="#DejaVuSans-34"/>
      </g>
     </g>
    </g>
    <g id="ytick_2">
     <g id="line2d_15">
      <path clip-path="url(#p6ffef61e75)" d="M 57.6 242.272222 
L 414.72 242.272222 
" style="fill:none;stroke:#b0b0b0;stroke-linecap:square;stroke-width:0.8;"/>
     </g>
     <g id="line2d_16">
      <g>
       <use style="stroke:#000000;stroke-width:0.8;" x="57.6" xlink:href="#ma7ccfd77fe" y="242.272222"/>
      </g>
     </g>
     <g id="text_9">
      <!-- $\mathdefault{10^{-3}}$ -->
      <defs>
       <path d="M 40.578125 39.3125 
Q 47.65625 37.796875 51.625 33 
Q 55.609375 28.21875 55.609375 21.1875 
Q 55.609375 10.40625 48.1875 4.484375 
Q 40.765625 -1.421875 27.09375 -1.421875 
Q 22.515625 -1.421875 17.65625 -0.515625 
Q 12.796875 0.390625 7.625 2.203125 
L 7.625 11.71875 
Q 11.71875 9.328125 16.59375 8.109375 
Q 21.484375 6.890625 26.8125 6.890625 
Q 36.078125 6.890625 40.9375 10.546875 
Q 45.796875 14.203125 45.796875 21.1875 
Q 45.796875 27.640625 41.28125 31.265625 
Q 36.765625 34.90625 28.71875 34.90625 
L 20.21875 34.90625 
L 20.21875 43.015625 
L 29.109375 43.015625 
Q 36.375 43.015625 40.234375 45.921875 
Q 44.09375 48.828125 44.09375 54.296875 
Q 44.09375 59.90625 40.109375 62.90625 
Q 36.140625 65.921875 28.71875 65.921875 
Q 24.65625 65.921875 20.015625 65.03125 
Q 15.375 64.15625 9.8125 62.3125 
L 9.8125 71.09375 
Q 15.4375 72.65625 20.34375 73.4375 
Q 25.25 74.21875 29.59375 74.21875 
Q 40.828125 74.21875 47.359375 69.109375 
Q 53.90625 64.015625 53.90625 55.328125 
Q 53.90625 49.265625 50.4375 45.09375 
Q 46.96875 40.921875 40.578125 39.3125 
z
" id="DejaVuSans-33"/>
      </defs>
      <g transform="translate(27.1 246.071441)scale(0.1 -0.1)">
       <use transform="translate(0 0.765625)" xlink:href="#DejaVuSans-31"/>
       <use transform="translate(63.623047 0.765625)" xlink:href="#DejaVuSans-30"/>
       <use transform="translate(128.203125 39.046875)scale(0.7)" xlink:href="#DejaVuSans-2212"/>
       <use transform="translate(186.855469 39.046875)scale(0.7)" xlink:href="#DejaVuSans-33"/>
      </g>
     </g>
    </g>
    <g id="ytick_3">
     <g id="line2d_17">
      <path clip-path="url(#p6ffef61e75)" d="M 57.6 192.072167 
L 414.72 192.072167 
" style="fill:none;stroke:#b0b0b0;stroke-linecap:square;stroke-width:0.8;"/>
     </g>
     <g id="line2d_18">
      <g>
       <use style="stroke:#000000;stroke-width:0.8;" x="57.6" xlink:href="#ma7ccfd77fe" y="192.072167"/>
      </g>
     </g>
     <g id="text_10">
      <!-- $\mathdefault{10^{-2}}$ -->
      <g transform="translate(27.1 195.871385)scale(0.1 -0.1)">
       <use transform="translate(0 0.765625)" xlink:href="#DejaVuSans-31"/>
       <use transform="translate(63.623047 0.765625)" xlink:href="#DejaVuSans-30"/>
       <use transform="translate(128.203125 39.046875)scale(0.7)" xlink:href="#DejaVuSans-2212"/>
       <use transform="translate(186.855469 39.046875)scale(0.7)" xlink:href="#DejaVuSans-32"/>
      </g>
     </g>
    </g>
    <g id="ytick_4">
     <g id="line2d_19">
      <path clip-path="url(#p6ffef61e75)" d="M 57.6 141.872111 
L 414.72 141.872111 
" style="fill:none;stroke:#b0b0b0;stroke-linecap:square;stroke-width:0.8;"/>
     </g>
     <g id="line2d_20">
      <g>
       <use style="stroke:#000000;stroke-width:0.8;" x="57.6" xlink:href="#ma7ccfd77fe" y="141.872111"/>
      </g>
     </g>
     <g id="text_11">
      <!-- $\mathdefault{10^{-1}}$ -->
      <g transform="translate(27.1 145.67133)scale(0.1 -0.1)">
       <use transform="translate(0 0.684375)" xlink:href="#DejaVuSans-31"/>
       <use transform="translate(63.623047 0.684375)" xlink:href="#DejaVuSans-30"/>
       <use transform="translate(128.203125 38.965625)scale(0.7)" xlink:href="#DejaVuSans-2212"/>
       <use transform="translate(186.855469 38.965625)scale(0.7)" xlink:href="#DejaVuSans-31"/>
      </g>
     </g>
    </g>
    <g id="ytick_5">
     <g id="line2d_21">
      <path clip-path="url(#p6ffef61e75)" d="M 57.6 91.672056 
L 414.72 91.672056 
" style="fill:none;stroke:#b0b0b0;stroke-linecap:square;stroke-width:0.8;"/>
     </g>
     <g id="line2d_22">
      <g>
       <use style="stroke:#000000;stroke-width:0.8;" x="57.6" xlink:href="#ma7ccfd77fe" y="91.672056"/>
      </g>
     </g>
     <g id="text_12">
      <!-- $\mathdefault{10^{0}}$ -->
      <g transform="translate(33 95.471274)scale(0.1 -0.1)">
       <use transform="translate(0 0.765625)" xlink:href="#DejaVuSans-31"/>
       <use transform="translate(63.623047 0.765625)" xlink:href="#DejaVuSans-30"/>
       <use transform="translate(128.203125 39.046875)scale(0.7)" xlink:href="#DejaVuSans-30"/>
      </g>
     </g>
    </g>
    <g id="ytick_6">
     <g id="line2d_23">
      <path clip-path="url(#p6ffef61e75)" d="M 57.6 41.472 
L 414.72 41.472 
" style="fill:none;stroke:#b0b0b0;stroke-linecap:square;stroke-width:0.8;"/>
     </g>
     <g id="line2d_24">
      <g>
       <use style="stroke:#000000;stroke-width:0.8;" x="57.6" xlink:href="#ma7ccfd77fe" y="41.472"/>
      </g>
     </g>
     <g id="text_13">
      <!-- $\mathdefault{10^{1}}$ -->
      <g transform="translate(33 45.271219)scale(0.1 -0.1)">
       <use transform="translate(0 0.684375)" xlink:href="#DejaVuSans-31"/>
       <use transform="translate(63.623047 0.684375)" xlink:href="#DejaVuSans-30"/>
       <use transform="translate(128.203125 38.965625)scale(0.7)" xlink:href="#DejaVuSans-31"/>
      </g>
     </g>
    </g>
    <g id="ytick_7">
     <g id="line2d_25">
      <path clip-path="url(#p6ffef61e75)" d="M 57.6 307.584 
L 414.72 307.584 
" style="fill:none;stroke:#b0b0b0;stroke-linecap:square;stroke-width:0.8;"/>
     </g>
     <g id="line2d_26">
      <defs>
       <path d="M 0 0 
L -2 0 
" id="m4910d00809" style="stroke:#000000;stroke-width:0.6;"/>
      </defs>
      <g>
       <use style="stroke:#000000;stroke-width:0.6;" x="57.6" xlink:href="#m4910d00809" y="307.584"/>
      </g>
     </g>
    </g>
    <g id="ytick_8">
     <g id="line2d_27">
      <path clip-path="url(#p6ffef61e75)" d="M 57.6 303.609097 
L 414.72 303.609097 
" style="fill:none;stroke:#b0b0b0;stroke-linecap:square;stroke-width:0.8;"/>
     </g>
     <g id="line2d_28">
      <g>
       <use style="stroke:#000000;stroke-width:0.6;" x="57.6" xlink:href="#m4910d00809" y="303.609097"/>
      </g>
     </g>
    </g>
    <g id="ytick_9">
     <g id="line2d_29">
      <path clip-path="url(#p6ffef61e75)" d="M 57.6 300.248364 
L 414.72 300.248364 
" style="fill:none;stroke:#b0b0b0;stroke-linecap:square;stroke-width:0.8;"/>
     </g>
     <g id="line2d_30">
      <g>
       <use style="stroke:#000000;stroke-width:0.6;" x="57.6" xlink:href="#m4910d00809" y="300.248364"/>
      </g>
     </g>
    </g>
    <g id="ytick_10">
     <g id="line2d_31">
      <path clip-path="url(#p6ffef61e75)" d="M 57.6 297.337166 
L 414.72 297.337166 
" style="fill:none;stroke:#b0b0b0;stroke-linecap:square;stroke-width:0.8;"/>
     </g>
     <g id="line2d_32">
      <g>
       <use style="stroke:#000000;stroke-width:0.6;" x="57.6" xlink:href="#m4910d00809" y="297.337166"/>
      </g>
     </g>
    </g>
    <g id="ytick_11">
     <g id="line2d_33">
      <path clip-path="url(#p6ffef61e75)" d="M 57.6 294.769306 
L 414.72 294.769306 
" style="fill:none;stroke:#b0b0b0;stroke-linecap:square;stroke-width:0.8;"/>
     </g>
     <g id="line2d_34">
      <g>
       <use style="stroke:#000000;stroke-width:0.6;" x="57.6" xlink:href="#m4910d00809" y="294.769306"/>
      </g>
     </g>
    </g>
    <g id="ytick_12">
     <g id="line2d_35">
      <path clip-path="url(#p6ffef61e75)" d="M 57.6 277.360555 
L 414.72 277.360555 
" style="fill:none;stroke:#b0b0b0;stroke-linecap:square;stroke-width:0.8;"/>
     </g>
     <g id="line2d_36">
      <g>
       <use style="stroke:#000000;stroke-width:0.6;" x="57.6" xlink:href="#m4910d00809" y="277.360555"/>
      </g>
     </g>
    </g>
    <g id="ytick_13">
     <g id="line2d_37">
      <path clip-path="url(#p6ffef61e75)" d="M 57.6 268.520764 
L 414.72 268.520764 
" style="fill:none;stroke:#b0b0b0;stroke-linecap:square;stroke-width:0.8;"/>
     </g>
     <g id="line2d_38">
      <g>
       <use style="stroke:#000000;stroke-width:0.6;" x="57.6" xlink:href="#m4910d00809" y="268.520764"/>
      </g>
     </g>
    </g>
    <g id="ytick_14">
     <g id="line2d_39">
      <path clip-path="url(#p6ffef61e75)" d="M 57.6 262.248833 
L 414.72 262.248833 
" style="fill:none;stroke:#b0b0b0;stroke-linecap:square;stroke-width:0.8;"/>
     </g>
     <g id="line2d_40">
      <g>
       <use style="stroke:#000000;stroke-width:0.6;" x="57.6" xlink:href="#m4910d00809" y="262.248833"/>
      </g>
     </g>
    </g>
    <g id="ytick_15">
     <g id="line2d_41">
      <path clip-path="url(#p6ffef61e75)" d="M 57.6 257.383944 
L 414.72 257.383944 
" style="fill:none;stroke:#b0b0b0;stroke-linecap:square;stroke-width:0.8;"/>
     </g>
     <g id="line2d_42">
      <g>
       <use style="stroke:#000000;stroke-width:0.6;" x="57.6" xlink:href="#m4910d00809" y="257.383944"/>
      </g>
     </g>
    </g>
    <g id="ytick_16">
     <g id="line2d_43">
      <path clip-path="url(#p6ffef61e75)" d="M 57.6 253.409042 
L 414.72 253.409042 
" style="fill:none;stroke:#b0b0b0;stroke-linecap:square;stroke-width:0.8;"/>
     </g>
     <g id="line2d_44">
      <g>
       <use style="stroke:#000000;stroke-width:0.6;" x="57.6" xlink:href="#m4910d00809" y="253.409042"/>
      </g>
     </g>
    </g>
    <g id="ytick_17">
     <g id="line2d_45">
      <path clip-path="url(#p6ffef61e75)" d="M 57.6 250.048309 
L 414.72 250.048309 
" style="fill:none;stroke:#b0b0b0;stroke-linecap:square;stroke-width:0.8;"/>
     </g>
     <g id="line2d_46">
      <g>
       <use style="stroke:#000000;stroke-width:0.6;" x="57.6" xlink:href="#m4910d00809" y="250.048309"/>
      </g>
     </g>
    </g>
    <g id="ytick_18">
     <g id="line2d_47">
      <path clip-path="url(#p6ffef61e75)" d="M 57.6 247.13711 
L 414.72 247.13711 
" style="fill:none;stroke:#b0b0b0;stroke-linecap:square;stroke-width:0.8;"/>
     </g>
     <g id="line2d_48">
      <g>
       <use style="stroke:#000000;stroke-width:0.6;" x="57.6" xlink:href="#m4910d00809" y="247.13711"/>
      </g>
     </g>
    </g>
    <g id="ytick_19">
     <g id="line2d_49">
      <path clip-path="url(#p6ffef61e75)" d="M 57.6 244.569251 
L 414.72 244.569251 
" style="fill:none;stroke:#b0b0b0;stroke-linecap:square;stroke-width:0.8;"/>
     </g>
     <g id="line2d_50">
      <g>
       <use style="stroke:#000000;stroke-width:0.6;" x="57.6" xlink:href="#m4910d00809" y="244.569251"/>
      </g>
     </g>
    </g>
    <g id="ytick_20">
     <g id="line2d_51">
      <path clip-path="url(#p6ffef61e75)" d="M 57.6 227.1605 
L 414.72 227.1605 
" style="fill:none;stroke:#b0b0b0;stroke-linecap:square;stroke-width:0.8;"/>
     </g>
     <g id="line2d_52">
      <g>
       <use style="stroke:#000000;stroke-width:0.6;" x="57.6" xlink:href="#m4910d00809" y="227.1605"/>
      </g>
     </g>
    </g>
    <g id="ytick_21">
     <g id="line2d_53">
      <path clip-path="url(#p6ffef61e75)" d="M 57.6 218.320709 
L 414.72 218.320709 
" style="fill:none;stroke:#b0b0b0;stroke-linecap:square;stroke-width:0.8;"/>
     </g>
     <g id="line2d_54">
      <g>
       <use style="stroke:#000000;stroke-width:0.6;" x="57.6" xlink:href="#m4910d00809" y="218.320709"/>
      </g>
     </g>
    </g>
    <g id="ytick_22">
     <g id="line2d_55">
      <path clip-path="url(#p6ffef61e75)" d="M 57.6 212.048777 
L 414.72 212.048777 
" style="fill:none;stroke:#b0b0b0;stroke-linecap:square;stroke-width:0.8;"/>
     </g>
     <g id="line2d_56">
      <g>
       <use style="stroke:#000000;stroke-width:0.6;" x="57.6" xlink:href="#m4910d00809" y="212.048777"/>
      </g>
     </g>
    </g>
    <g id="ytick_23">
     <g id="line2d_57">
      <path clip-path="url(#p6ffef61e75)" d="M 57.6 207.183889 
L 414.72 207.183889 
" style="fill:none;stroke:#b0b0b0;stroke-linecap:square;stroke-width:0.8;"/>
     </g>
     <g id="line2d_58">
      <g>
       <use style="stroke:#000000;stroke-width:0.6;" x="57.6" xlink:href="#m4910d00809" y="207.183889"/>
      </g>
     </g>
    </g>
    <g id="ytick_24">
     <g id="line2d_59">
      <path clip-path="url(#p6ffef61e75)" d="M 57.6 203.208986 
L 414.72 203.208986 
" style="fill:none;stroke:#b0b0b0;stroke-linecap:square;stroke-width:0.8;"/>
     </g>
     <g id="line2d_60">
      <g>
       <use style="stroke:#000000;stroke-width:0.6;" x="57.6" xlink:href="#m4910d00809" y="203.208986"/>
      </g>
     </g>
    </g>
    <g id="ytick_25">
     <g id="line2d_61">
      <path clip-path="url(#p6ffef61e75)" d="M 57.6 199.848253 
L 414.72 199.848253 
" style="fill:none;stroke:#b0b0b0;stroke-linecap:square;stroke-width:0.8;"/>
     </g>
     <g id="line2d_62">
      <g>
       <use style="stroke:#000000;stroke-width:0.6;" x="57.6" xlink:href="#m4910d00809" y="199.848253"/>
      </g>
     </g>
    </g>
    <g id="ytick_26">
     <g id="line2d_63">
      <path clip-path="url(#p6ffef61e75)" d="M 57.6 196.937055 
L 414.72 196.937055 
" style="fill:none;stroke:#b0b0b0;stroke-linecap:square;stroke-width:0.8;"/>
     </g>
     <g id="line2d_64">
      <g>
       <use style="stroke:#000000;stroke-width:0.6;" x="57.6" xlink:href="#m4910d00809" y="196.937055"/>
      </g>
     </g>
    </g>
    <g id="ytick_27">
     <g id="line2d_65">
      <path clip-path="url(#p6ffef61e75)" d="M 57.6 194.369195 
L 414.72 194.369195 
" style="fill:none;stroke:#b0b0b0;stroke-linecap:square;stroke-width:0.8;"/>
     </g>
     <g id="line2d_66">
      <g>
       <use style="stroke:#000000;stroke-width:0.6;" x="57.6" xlink:href="#m4910d00809" y="194.369195"/>
      </g>
     </g>
    </g>
    <g id="ytick_28">
     <g id="line2d_67">
      <path clip-path="url(#p6ffef61e75)" d="M 57.6 176.960444 
L 414.72 176.960444 
" style="fill:none;stroke:#b0b0b0;stroke-linecap:square;stroke-width:0.8;"/>
     </g>
     <g id="line2d_68">
      <g>
       <use style="stroke:#000000;stroke-width:0.6;" x="57.6" xlink:href="#m4910d00809" y="176.960444"/>
      </g>
     </g>
    </g>
    <g id="ytick_29">
     <g id="line2d_69">
      <path clip-path="url(#p6ffef61e75)" d="M 57.6 168.120653 
L 414.72 168.120653 
" style="fill:none;stroke:#b0b0b0;stroke-linecap:square;stroke-width:0.8;"/>
     </g>
     <g id="line2d_70">
      <g>
       <use style="stroke:#000000;stroke-width:0.6;" x="57.6" xlink:href="#m4910d00809" y="168.120653"/>
      </g>
     </g>
    </g>
    <g id="ytick_30">
     <g id="line2d_71">
      <path clip-path="url(#p6ffef61e75)" d="M 57.6 161.848722 
L 414.72 161.848722 
" style="fill:none;stroke:#b0b0b0;stroke-linecap:square;stroke-width:0.8;"/>
     </g>
     <g id="line2d_72">
      <g>
       <use style="stroke:#000000;stroke-width:0.6;" x="57.6" xlink:href="#m4910d00809" y="161.848722"/>
      </g>
     </g>
    </g>
    <g id="ytick_31">
     <g id="line2d_73">
      <path clip-path="url(#p6ffef61e75)" d="M 57.6 156.983833 
L 414.72 156.983833 
" style="fill:none;stroke:#b0b0b0;stroke-linecap:square;stroke-width:0.8;"/>
     </g>
     <g id="line2d_74">
      <g>
       <use style="stroke:#000000;stroke-width:0.6;" x="57.6" xlink:href="#m4910d00809" y="156.983833"/>
      </g>
     </g>
    </g>
    <g id="ytick_32">
     <g id="line2d_75">
      <path clip-path="url(#p6ffef61e75)" d="M 57.6 153.008931 
L 414.72 153.008931 
" style="fill:none;stroke:#b0b0b0;stroke-linecap:square;stroke-width:0.8;"/>
     </g>
     <g id="line2d_76">
      <g>
       <use style="stroke:#000000;stroke-width:0.6;" x="57.6" xlink:href="#m4910d00809" y="153.008931"/>
      </g>
     </g>
    </g>
    <g id="ytick_33">
     <g id="line2d_77">
      <path clip-path="url(#p6ffef61e75)" d="M 57.6 149.648198 
L 414.72 149.648198 
" style="fill:none;stroke:#b0b0b0;stroke-linecap:square;stroke-width:0.8;"/>
     </g>
     <g id="line2d_78">
      <g>
       <use style="stroke:#000000;stroke-width:0.6;" x="57.6" xlink:href="#m4910d00809" y="149.648198"/>
      </g>
     </g>
    </g>
    <g id="ytick_34">
     <g id="line2d_79">
      <path clip-path="url(#p6ffef61e75)" d="M 57.6 146.736999 
L 414.72 146.736999 
" style="fill:none;stroke:#b0b0b0;stroke-linecap:square;stroke-width:0.8;"/>
     </g>
     <g id="line2d_80">
      <g>
       <use style="stroke:#000000;stroke-width:0.6;" x="57.6" xlink:href="#m4910d00809" y="146.736999"/>
      </g>
     </g>
    </g>
    <g id="ytick_35">
     <g id="line2d_81">
      <path clip-path="url(#p6ffef61e75)" d="M 57.6 144.16914 
L 414.72 144.16914 
" style="fill:none;stroke:#b0b0b0;stroke-linecap:square;stroke-width:0.8;"/>
     </g>
     <g id="line2d_82">
      <g>
       <use style="stroke:#000000;stroke-width:0.6;" x="57.6" xlink:href="#m4910d00809" y="144.16914"/>
      </g>
     </g>
    </g>
    <g id="ytick_36">
     <g id="line2d_83">
      <path clip-path="url(#p6ffef61e75)" d="M 57.6 126.760389 
L 414.72 126.760389 
" style="fill:none;stroke:#b0b0b0;stroke-linecap:square;stroke-width:0.8;"/>
     </g>
     <g id="line2d_84">
      <g>
       <use style="stroke:#000000;stroke-width:0.6;" x="57.6" xlink:href="#m4910d00809" y="126.760389"/>
      </g>
     </g>
    </g>
    <g id="ytick_37">
     <g id="line2d_85">
      <path clip-path="url(#p6ffef61e75)" d="M 57.6 117.920598 
L 414.72 117.920598 
" style="fill:none;stroke:#b0b0b0;stroke-linecap:square;stroke-width:0.8;"/>
     </g>
     <g id="line2d_86">
      <g>
       <use style="stroke:#000000;stroke-width:0.6;" x="57.6" xlink:href="#m4910d00809" y="117.920598"/>
      </g>
     </g>
    </g>
    <g id="ytick_38">
     <g id="line2d_87">
      <path clip-path="url(#p6ffef61e75)" d="M 57.6 111.648666 
L 414.72 111.648666 
" style="fill:none;stroke:#b0b0b0;stroke-linecap:square;stroke-width:0.8;"/>
     </g>
     <g id="line2d_88">
      <g>
       <use style="stroke:#000000;stroke-width:0.6;" x="57.6" xlink:href="#m4910d00809" y="111.648666"/>
      </g>
     </g>
    </g>
    <g id="ytick_39">
     <g id="line2d_89">
      <path clip-path="url(#p6ffef61e75)" d="M 57.6 106.783778 
L 414.72 106.783778 
" style="fill:none;stroke:#b0b0b0;stroke-linecap:square;stroke-width:0.8;"/>
     </g>
     <g id="line2d_90">
      <g>
       <use style="stroke:#000000;stroke-width:0.6;" x="57.6" xlink:href="#m4910d00809" y="106.783778"/>
      </g>
     </g>
    </g>
    <g id="ytick_40">
     <g id="line2d_91">
      <path clip-path="url(#p6ffef61e75)" d="M 57.6 102.808875 
L 414.72 102.808875 
" style="fill:none;stroke:#b0b0b0;stroke-linecap:square;stroke-width:0.8;"/>
     </g>
     <g id="line2d_92">
      <g>
       <use style="stroke:#000000;stroke-width:0.6;" x="57.6" xlink:href="#m4910d00809" y="102.808875"/>
      </g>
     </g>
    </g>
    <g id="ytick_41">
     <g id="line2d_93">
      <path clip-path="url(#p6ffef61e75)" d="M 57.6 99.448142 
L 414.72 99.448142 
" style="fill:none;stroke:#b0b0b0;stroke-linecap:square;stroke-width:0.8;"/>
     </g>
     <g id="line2d_94">
      <g>
       <use style="stroke:#000000;stroke-width:0.6;" x="57.6" xlink:href="#m4910d00809" y="99.448142"/>
      </g>
     </g>
    </g>
    <g id="ytick_42">
     <g id="line2d_95">
      <path clip-path="url(#p6ffef61e75)" d="M 57.6 96.536944 
L 414.72 96.536944 
" style="fill:none;stroke:#b0b0b0;stroke-linecap:square;stroke-width:0.8;"/>
     </g>
     <g id="line2d_96">
      <g>
       <use style="stroke:#000000;stroke-width:0.6;" x="57.6" xlink:href="#m4910d00809" y="96.536944"/>
      </g>
     </g>
    </g>
    <g id="ytick_43">
     <g id="line2d_97">
      <path clip-path="url(#p6ffef61e75)" d="M 57.6 93.969084 
L 414.72 93.969084 
" style="fill:none;stroke:#b0b0b0;stroke-linecap:square;stroke-width:0.8;"/>
     </g>
     <g id="line2d_98">
      <g>
       <use style="stroke:#000000;stroke-width:0.6;" x="57.6" xlink:href="#m4910d00809" y="93.969084"/>
      </g>
     </g>
    </g>
    <g id="ytick_44">
     <g id="line2d_99">
      <path clip-path="url(#p6ffef61e75)" d="M 57.6 76.560333 
L 414.72 76.560333 
" style="fill:none;stroke:#b0b0b0;stroke-linecap:square;stroke-width:0.8;"/>
     </g>
     <g id="line2d_100">
      <g>
       <use style="stroke:#000000;stroke-width:0.6;" x="57.6" xlink:href="#m4910d00809" y="76.560333"/>
      </g>
     </g>
    </g>
    <g id="ytick_45">
     <g id="line2d_101">
      <path clip-path="url(#p6ffef61e75)" d="M 57.6 67.720542 
L 414.72 67.720542 
" style="fill:none;stroke:#b0b0b0;stroke-linecap:square;stroke-width:0.8;"/>
     </g>
     <g id="line2d_102">
      <g>
       <use style="stroke:#000000;stroke-width:0.6;" x="57.6" xlink:href="#m4910d00809" y="67.720542"/>
      </g>
     </g>
    </g>
    <g id="ytick_46">
     <g id="line2d_103">
      <path clip-path="url(#p6ffef61e75)" d="M 57.6 61.448611 
L 414.72 61.448611 
" style="fill:none;stroke:#b0b0b0;stroke-linecap:square;stroke-width:0.8;"/>
     </g>
     <g id="line2d_104">
      <g>
       <use style="stroke:#000000;stroke-width:0.6;" x="57.6" xlink:href="#m4910d00809" y="61.448611"/>
      </g>
     </g>
    </g>
    <g id="ytick_47">
     <g id="line2d_105">
      <path clip-path="url(#p6ffef61e75)" d="M 57.6 56.583722 
L 414.72 56.583722 
" style="fill:none;stroke:#b0b0b0;stroke-linecap:square;stroke-width:0.8;"/>
     </g>
     <g id="line2d_106">
      <g>
       <use style="stroke:#000000;stroke-width:0.6;" x="57.6" xlink:href="#m4910d00809" y="56.583722"/>
      </g>
     </g>
    </g>
    <g id="ytick_48">
     <g id="line2d_107">
      <path clip-path="url(#p6ffef61e75)" d="M 57.6 52.60882 
L 414.72 52.60882 
" style="fill:none;stroke:#b0b0b0;stroke-linecap:square;stroke-width:0.8;"/>
     </g>
     <g id="line2d_108">
      <g>
       <use style="stroke:#000000;stroke-width:0.6;" x="57.6" xlink:href="#m4910d00809" y="52.60882"/>
      </g>
     </g>
    </g>
    <g id="ytick_49">
     <g id="line2d_109">
      <path clip-path="url(#p6ffef61e75)" d="M 57.6 49.248087 
L 414.72 49.248087 
" style="fill:none;stroke:#b0b0b0;stroke-linecap:square;stroke-width:0.8;"/>
     </g>
     <g id="line2d_110">
      <g>
       <use style="stroke:#000000;stroke-width:0.6;" x="57.6" xlink:href="#m4910d00809" y="49.248087"/>
      </g>
     </g>
    </g>
    <g id="ytick_50">
     <g id="line2d_111">
      <path clip-path="url(#p6ffef61e75)" d="M 57.6 46.336888 
L 414.72 46.336888 
" style="fill:none;stroke:#b0b0b0;stroke-linecap:square;stroke-width:0.8;"/>
     </g>
     <g id="line2d_112">
      <g>
       <use style="stroke:#000000;stroke-width:0.6;" x="57.6" xlink:href="#m4910d00809" y="46.336888"/>
      </g>
     </g>
    </g>
    <g id="ytick_51">
     <g id="line2d_113">
      <path clip-path="url(#p6ffef61e75)" d="M 57.6 43.769029 
L 414.72 43.769029 
" style="fill:none;stroke:#b0b0b0;stroke-linecap:square;stroke-width:0.8;"/>
     </g>
     <g id="line2d_114">
      <g>
       <use style="stroke:#000000;stroke-width:0.6;" x="57.6" xlink:href="#m4910d00809" y="43.769029"/>
      </g>
     </g>
    </g>
    <g id="text_14">
     <!-- loss -->
     <defs>
      <path d="M 9.421875 75.984375 
L 18.40625 75.984375 
L 18.40625 0 
L 9.421875 0 
z
" id="DejaVuSans-6c"/>
      <path d="M 30.609375 48.390625 
Q 23.390625 48.390625 19.1875 42.75 
Q 14.984375 37.109375 14.984375 27.296875 
Q 14.984375 17.484375 19.15625 11.84375 
Q 23.34375 6.203125 30.609375 6.203125 
Q 37.796875 6.203125 41.984375 11.859375 
Q 46.1875 17.53125 46.1875 27.296875 
Q 46.1875 37.015625 41.984375 42.703125 
Q 37.796875 48.390625 30.609375 48.390625 
z
M 30.609375 56 
Q 42.328125 56 49.015625 48.375 
Q 55.71875 40.765625 55.71875 27.296875 
Q 55.71875 13.875 49.015625 6.21875 
Q 42.328125 -1.421875 30.609375 -1.421875 
Q 18.84375 -1.421875 12.171875 6.21875 
Q 5.515625 13.875 5.515625 27.296875 
Q 5.515625 40.765625 12.171875 48.375 
Q 18.84375 56 30.609375 56 
z
" id="DejaVuSans-6f"/>
     </defs>
     <g transform="translate(21.020313 184.185812)rotate(-90)scale(0.1 -0.1)">
      <use xlink:href="#DejaVuSans-6c"/>
      <use x="27.783203" xlink:href="#DejaVuSans-6f"/>
      <use x="88.964844" xlink:href="#DejaVuSans-73"/>
      <use x="141.064453" xlink:href="#DejaVuSans-73"/>
     </g>
    </g>
   </g>
   <g id="line2d_115">
    <path clip-path="url(#p6ffef61e75)" d="M 73.833772 73.212493 
L 74.04016 104.077936 
L 74.246547 107.496288 
L 74.452934 107.733711 
L 77.342359 107.891468 
L 77.548746 107.849583 
L 77.755134 107.949397 
L 78.167909 107.825193 
L 78.374296 107.936753 
L 78.993458 107.903146 
L 80.438171 107.989036 
L 80.644558 107.858791 
L 80.850945 107.944018 
L 81.470108 107.8744 
L 82.502045 107.967805 
L 82.91482 107.921146 
L 83.121207 108.018668 
L 84.359532 107.863211 
L 84.56592 107.940824 
L 84.772307 107.878051 
L 85.185082 107.961968 
L 85.597857 108.012464 
L 85.804244 108.028516 
L 86.010632 107.912181 
L 86.217019 108.050126 
L 86.423407 107.933743 
L 87.455344 107.970543 
L 87.661731 107.87874 
L 88.487281 108.027364 
L 91.170318 107.999371 
L 92.202255 108.030409 
L 92.408643 107.992884 
L 92.61503 108.088252 
L 92.821418 107.905485 
L 93.234192 108.076786 
L 93.44058 107.96154 
L 93.646967 108.059559 
L 93.853355 107.904909 
L 94.059742 108.055609 
L 94.678905 107.993879 
L 95.710842 108.051779 
L 95.917229 108.121569 
L 96.330004 108.036258 
L 98.187491 108.037678 
L 100.251366 108.078344 
L 100.664141 107.831702 
L 100.870528 108.016195 
L 103.347178 108.11746 
L 103.96634 108.072828 
L 104.998277 108.081641 
L 105.411052 108.161205 
L 105.823827 108.074638 
L 107.062152 108.124931 
L 107.681314 108.034726 
L 108.300476 108.197982 
L 112.428225 108.092882 
L 112.634613 108.201565 
L 113.460163 108.07797 
L 114.904875 108.176593 
L 115.111262 108.076497 
L 115.730425 108.206042 
L 116.1432 108.092285 
L 116.349587 108.22282 
L 116.555974 108.138998 
L 116.968749 108.257357 
L 117.587912 108.082213 
L 117.794299 108.172701 
L 118.000687 108.106385 
L 118.207074 108.20924 
L 118.619849 108.206396 
L 119.858174 108.217402 
L 120.064561 108.094532 
L 120.477336 108.15234 
L 122.747598 108.221059 
L 122.953985 108.315809 
L 123.573148 108.275809 
L 123.985923 108.296568 
L 124.19231 108.158818 
L 125.84341 108.278888 
L 126.049797 108.213309 
L 126.462572 108.284099 
L 126.66896 108.189488 
L 126.875347 108.340302 
L 127.288122 108.141341 
L 127.907284 108.36257 
L 128.320059 108.224352 
L 129.145609 108.370525 
L 130.796709 108.300781 
L 131.209483 108.339801 
L 132.035033 108.381509 
L 132.447808 108.282239 
L 132.860583 108.427869 
L 133.066971 108.387058 
L 133.273358 108.179616 
L 133.686133 108.428867 
L 134.924458 108.182196 
L 135.337232 108.42631 
L 135.54362 108.380481 
L 135.956395 108.458114 
L 136.162782 108.250487 
L 136.988332 108.441988 
L 137.19472 108.220532 
L 137.401107 108.438135 
L 138.020269 108.413566 
L 138.433044 108.439856 
L 138.639432 108.324305 
L 138.845819 108.543978 
L 139.464981 108.455414 
L 140.703306 108.308236 
L 140.909694 108.526655 
L 141.735243 108.393587 
L 142.148018 108.578331 
L 142.354406 108.306525 
L 142.560793 108.483637 
L 143.799118 108.603929 
L 144.005505 108.329341 
L 144.211893 108.276988 
L 144.41828 108.506907 
L 144.624668 108.485481 
L 144.831055 108.283398 
L 145.037443 108.47781 
L 145.656605 108.553478 
L 145.862992 108.624955 
L 146.275767 108.529568 
L 147.307705 108.482065 
L 147.72048 108.5837 
L 147.926867 108.402245 
L 148.339642 108.424496 
L 148.546029 108.217809 
L 148.752417 108.729447 
L 148.958804 108.521158 
L 149.371579 108.697957 
L 149.784354 108.708891 
L 149.990741 108.609469 
L 150.197129 108.71069 
L 150.403516 108.610408 
L 150.609904 108.662857 
L 150.816291 108.485295 
L 151.641841 108.613647 
L 151.848229 108.54178 
L 152.054616 108.227629 
L 152.261003 108.512651 
L 152.467391 108.414732 
L 152.880166 108.697824 
L 153.292941 108.457023 
L 153.499328 108.349365 
L 153.912103 108.74301 
L 154.737653 108.427662 
L 154.94404 108.754019 
L 155.150428 108.749914 
L 155.356815 108.485399 
L 155.563203 108.820768 
L 155.76959 108.54331 
L 155.975978 108.582653 
L 156.182365 108.746906 
L 156.388752 108.570259 
L 156.801527 108.739201 
L 157.007915 108.404103 
L 157.627077 108.583385 
L 157.833465 108.595222 
L 158.039852 108.481282 
L 158.24624 108.779011 
L 159.071789 108.613196 
L 159.278177 108.834006 
L 159.484564 108.547417 
L 159.690952 108.662804 
L 159.897339 108.595348 
L 160.516501 108.769451 
L 160.722889 108.771008 
L 160.929276 108.973955 
L 161.135664 108.883405 
L 161.342051 108.097182 
L 161.548439 108.347686 
L 161.754826 108.792841 
L 162.167601 108.325117 
L 162.373989 108.799036 
L 162.786763 108.562842 
L 162.993151 108.1245 
L 163.199538 108.057784 
L 163.405926 108.217858 
L 163.818701 108.821038 
L 164.025088 108.890007 
L 164.231476 108.699178 
L 164.437863 108.688464 
L 164.644251 108.796992 
L 164.850638 108.638094 
L 165.263413 108.633039 
L 165.4698 108.961771 
L 165.676188 108.915282 
L 165.882575 108.629501 
L 166.088963 108.150893 
L 166.29535 108.862021 
L 166.501738 108.567167 
L 166.708125 108.733613 
L 167.1209 108.190614 
L 167.327287 108.725131 
L 167.533675 108.949226 
L 167.94645 108.978923 
L 168.359225 108.542619 
L 168.772 108.768041 
L 169.184774 108.922423 
L 169.391162 108.766528 
L 169.597549 108.470078 
L 169.803937 108.733288 
L 170.010324 108.732939 
L 170.216712 108.988877 
L 170.423099 108.810671 
L 170.629487 108.957097 
L 170.835874 108.832973 
L 171.455036 108.874091 
L 171.867811 108.665676 
L 172.074199 108.982137 
L 172.280586 108.873138 
L 172.486974 108.637391 
L 172.693361 109.042771 
L 172.899749 109.034344 
L 173.312523 108.620198 
L 173.518911 108.845752 
L 173.931686 108.931151 
L 174.138073 108.588287 
L 174.344461 108.589016 
L 174.550848 108.984981 
L 175.170011 108.962576 
L 175.376398 108.890132 
L 175.582785 109.078433 
L 176.201948 108.83586 
L 176.408335 109.069831 
L 176.614723 109.122697 
L 176.82111 109.050767 
L 177.027498 108.764551 
L 177.233885 108.861267 
L 177.440272 108.596324 
L 177.853047 109.039938 
L 178.059435 108.813095 
L 178.265822 108.305191 
L 178.678597 109.014558 
L 178.884985 108.92564 
L 179.091372 108.598288 
L 179.29776 109.030581 
L 179.710534 108.39385 
L 179.916922 108.860446 
L 180.123309 109.032854 
L 180.329697 108.781909 
L 180.742472 108.957575 
L 180.948859 108.881795 
L 181.361634 109.040161 
L 181.568021 108.933239 
L 181.774409 109.096123 
L 181.980796 109.08355 
L 182.187184 108.806289 
L 182.393571 109.152237 
L 183.012734 108.938802 
L 183.631896 109.085899 
L 183.838283 108.749789 
L 184.251058 109.109653 
L 184.457446 109.132722 
L 184.663833 108.972445 
L 185.282996 109.117737 
L 185.69577 109.060698 
L 185.902158 109.07111 
L 186.108545 108.78128 
L 186.314933 108.833356 
L 186.52132 108.721159 
L 186.934095 109.114708 
L 187.140483 109.242543 
L 187.34687 108.932321 
L 187.553258 109.17667 
L 187.759645 109.208576 
L 187.966032 109.102403 
L 188.17242 109.264036 
L 188.378807 108.923258 
L 188.585195 109.090168 
L 188.791582 109.088958 
L 188.99797 109.224563 
L 189.204357 109.120007 
L 189.410745 108.726622 
L 189.617132 108.583148 
L 190.029907 109.159903 
L 190.236294 108.992686 
L 190.649069 109.017904 
L 191.061844 108.93155 
L 191.887394 109.252576 
L 192.093781 108.606446 
L 192.300169 109.082793 
L 192.506556 109.240895 
L 192.919331 109.088033 
L 193.125719 108.759571 
L 193.332106 109.106209 
L 193.744881 109.181353 
L 193.951269 108.816776 
L 194.157656 109.130052 
L 194.570431 108.815697 
L 194.776818 109.19727 
L 194.983206 109.272736 
L 195.395981 108.839793 
L 195.602368 108.89458 
L 195.808756 108.76614 
L 196.015143 109.061298 
L 196.22153 108.890444 
L 196.634305 109.115671 
L 196.840693 109.243895 
L 197.04708 109.17542 
L 197.253468 108.949132 
L 197.459855 109.079064 
L 197.666243 108.91937 
L 197.87263 109.28414 
L 198.491792 109.019111 
L 198.69818 109.203848 
L 199.110955 109.045096 
L 199.317342 109.078064 
L 199.52373 108.862295 
L 200.142892 109.143051 
L 200.34928 109.323 
L 200.555667 109.263476 
L 200.762054 108.911076 
L 201.174829 109.357761 
L 201.381217 109.340885 
L 201.587604 109.172426 
L 202.413154 109.206012 
L 202.619541 108.989902 
L 203.032316 109.198362 
L 203.857866 109.240897 
L 204.064254 109.259813 
L 204.270641 108.925785 
L 204.683416 109.330605 
L 205.096191 109.150283 
L 205.302578 109.279273 
L 205.921741 109.269598 
L 206.540903 109.200914 
L 206.74729 109.050471 
L 206.953678 109.249153 
L 207.160065 109.166634 
L 207.57284 109.404078 
L 207.779228 109.16799 
L 208.39839 109.052545 
L 208.604778 108.724224 
L 208.811165 109.19003 
L 209.22394 109.310139 
L 209.430327 109.205079 
L 209.636715 109.366411 
L 210.04949 109.198616 
L 210.462265 109.109924 
L 210.668652 109.198016 
L 210.87504 109.406929 
L 211.081427 109.420018 
L 211.494202 108.929082 
L 211.700589 109.216596 
L 211.906977 109.059297 
L 212.526139 109.403698 
L 212.938914 109.436628 
L 213.764464 109.18899 
L 214.177239 109.389928 
L 214.796401 109.413018 
L 215.209176 108.927179 
L 215.621951 109.054808 
L 216.034726 109.211063 
L 216.860276 109.487288 
L 218.511375 109.155564 
L 218.717763 109.508289 
L 218.92415 109.274687 
L 219.336925 109.341767 
L 219.543312 109.112873 
L 219.7497 109.31031 
L 219.956087 109.327975 
L 220.162475 109.513993 
L 220.368862 109.295116 
L 220.781637 109.594733 
L 221.194412 109.148493 
L 221.4008 109.523612 
L 221.813574 109.066004 
L 222.019962 109.461741 
L 222.226349 109.352716 
L 222.432737 109.529858 
L 224.083836 109.487379 
L 224.290224 109.302161 
L 224.909386 109.512577 
L 225.115774 109.565326 
L 225.322161 109.378884 
L 225.528549 109.471191 
L 225.734936 109.315173 
L 226.560486 109.547824 
L 226.766873 109.334748 
L 227.592423 109.520449 
L 227.79881 109.688169 
L 228.417973 109.601077 
L 229.243523 109.744052 
L 229.44991 109.599928 
L 230.27546 109.591136 
L 230.481847 109.452501 
L 230.688235 109.709851 
L 230.894622 109.724154 
L 231.10101 109.575109 
L 231.307397 109.665203 
L 231.513785 109.499315 
L 231.92656 109.612205 
L 232.132947 109.374815 
L 232.545722 109.659532 
L 232.958497 109.600222 
L 233.164884 109.627563 
L 233.371272 109.778307 
L 233.577659 109.321381 
L 233.990434 109.709636 
L 234.196821 109.471023 
L 234.403209 109.482397 
L 234.609596 109.760167 
L 234.815984 109.828149 
L 235.228759 109.540405 
L 235.435146 109.804876 
L 235.641534 109.597209 
L 236.260696 109.791532 
L 236.879858 109.837728 
L 237.086246 109.550692 
L 237.705408 109.840701 
L 238.118183 109.5016 
L 238.32457 109.736079 
L 238.530958 109.796123 
L 238.737345 109.413203 
L 238.943733 109.771537 
L 239.15012 109.906341 
L 239.562895 109.78072 
L 239.769283 109.463716 
L 239.97567 109.467173 
L 240.182058 109.852463 
L 240.388445 109.712974 
L 240.594832 109.963936 
L 240.80122 109.945866 
L 241.007607 109.742724 
L 241.213995 109.757859 
L 241.420382 109.938137 
L 241.62677 109.867623 
L 241.833157 110.012039 
L 242.658707 109.665084 
L 243.071482 109.629533 
L 243.277869 109.765523 
L 243.484257 109.748102 
L 243.690644 109.89463 
L 244.103419 109.561525 
L 244.309807 109.890186 
L 244.928969 109.993298 
L 245.135356 110.119079 
L 245.548131 109.991674 
L 245.754519 110.185698 
L 245.960906 109.993615 
L 246.167294 110.1374 
L 246.373681 110.030868 
L 246.786456 110.147099 
L 246.992843 110.013934 
L 247.199231 110.112506 
L 247.818393 109.987106 
L 248.437556 110.00107 
L 248.643943 110.166633 
L 249.056718 109.801127 
L 249.263105 110.157218 
L 249.882268 110.373517 
L 250.295043 109.971314 
L 250.914205 110.178043 
L 251.120592 109.762875 
L 251.32698 109.927027 
L 251.533367 110.311097 
L 251.946142 110.361013 
L 252.15253 110.199466 
L 252.358917 109.691233 
L 252.565305 109.944069 
L 252.771692 110.49651 
L 253.184467 110.208257 
L 253.390854 110.333298 
L 253.597242 110.23673 
L 254.216404 110.501256 
L 254.422792 110.049363 
L 254.629179 109.87497 
L 255.041954 110.491102 
L 255.454729 110.255575 
L 255.661116 110.628173 
L 256.073891 110.134185 
L 256.280279 110.503143 
L 256.486666 110.565504 
L 256.693054 110.144933 
L 256.899441 110.480191 
L 257.518603 110.562186 
L 257.931378 110.803184 
L 258.344153 110.488898 
L 258.550541 110.789361 
L 258.963316 110.812102 
L 259.169703 110.387059 
L 259.37609 110.788049 
L 259.788865 110.907308 
L 259.995253 110.322307 
L 260.408028 110.950606 
L 260.614415 110.77743 
L 260.820803 110.876524 
L 261.02719 110.79163 
L 261.233578 110.553354 
L 261.646352 111.040908 
L 261.85274 111.021722 
L 262.059127 111.166659 
L 263.297452 111.20181 
L 263.503839 111.009658 
L 263.710227 111.17842 
L 263.916614 110.888537 
L 264.123002 111.229451 
L 264.329389 111.272648 
L 264.535777 111.133183 
L 264.742164 111.423992 
L 265.154939 110.728449 
L 265.567714 111.472003 
L 265.774101 111.206186 
L 265.980489 111.194818 
L 266.186876 111.594887 
L 266.599651 111.352375 
L 266.806039 111.560066 
L 267.012426 111.331752 
L 267.218814 111.579982 
L 267.425201 111.18579 
L 267.631589 111.640737 
L 268.044363 111.236802 
L 268.457138 111.696979 
L 268.663526 111.488986 
L 268.869913 111.612666 
L 269.076301 111.563752 
L 269.282688 111.829516 
L 269.489076 111.347463 
L 269.695463 111.390018 
L 270.108238 111.995946 
L 270.521013 112.073531 
L 270.7274 111.671837 
L 270.933788 111.802722 
L 271.140175 111.508814 
L 271.346563 111.855866 
L 271.55295 111.816394 
L 271.759338 112.094842 
L 271.965725 112.109669 
L 272.172112 112.00636 
L 272.3785 112.259286 
L 272.584887 112.114178 
L 272.791275 112.161438 
L 272.997662 111.934116 
L 273.410437 110.829366 
L 273.616825 110.6272 
L 273.823212 111.477017 
L 274.029599 111.815983 
L 274.235987 111.855948 
L 274.648762 111.394666 
L 275.061537 112.354351 
L 275.680699 112.523701 
L 275.887087 112.562948 
L 276.299861 111.478231 
L 276.919024 112.627586 
L 277.538186 112.176592 
L 277.950961 111.911951 
L 278.157349 111.888812 
L 278.363736 112.042014 
L 278.570123 112.629042 
L 278.776511 112.867148 
L 278.982898 112.869486 
L 279.189286 112.667037 
L 279.602061 110.648842 
L 280.221223 112.794797 
L 280.42761 112.52246 
L 280.840385 112.655757 
L 281.046773 113.198877 
L 281.25316 113.297625 
L 281.459548 113.040016 
L 281.872323 113.286936 
L 282.07871 113.079381 
L 282.285098 113.030076 
L 282.491485 113.370226 
L 282.697872 113.318883 
L 283.110647 112.209737 
L 283.317035 112.248146 
L 283.72981 113.249016 
L 284.142585 111.932319 
L 284.348972 111.995464 
L 284.555359 112.206742 
L 284.968134 111.726372 
L 285.587297 113.519481 
L 285.793684 113.577853 
L 286.206459 113.549732 
L 286.825621 112.052033 
L 287.032009 113.167657 
L 287.238396 112.947304 
L 287.651171 113.729872 
L 287.857559 113.134186 
L 288.063946 113.409445 
L 288.270334 113.896733 
L 288.476721 114.046169 
L 288.683109 113.830895 
L 288.889496 113.884023 
L 289.095883 113.381703 
L 289.508658 113.970666 
L 289.715046 113.432793 
L 289.921433 112.238725 
L 290.127821 112.676569 
L 290.540596 112.015952 
L 290.746983 112.05534 
L 291.159758 112.612402 
L 291.366145 112.830752 
L 291.572533 113.908895 
L 291.77892 113.953065 
L 291.985308 114.392124 
L 292.191695 114.045216 
L 292.60447 112.797328 
L 293.017245 112.716071 
L 293.223632 112.857832 
L 293.43002 113.520518 
L 293.636407 113.493858 
L 293.842795 113.744916 
L 294.049182 113.701731 
L 294.25557 113.059493 
L 294.461957 114.013198 
L 294.668345 114.290144 
L 295.081119 114.117047 
L 295.287507 113.281483 
L 295.493894 113.605185 
L 295.700282 114.61343 
L 296.113057 114.652698 
L 296.319444 114.208604 
L 296.732219 114.680245 
L 296.938607 113.410914 
L 297.144994 113.316839 
L 297.557769 114.277806 
L 297.764156 114.102716 
L 297.970544 114.074238 
L 298.383319 113.712544 
L 298.589706 114.144673 
L 298.796094 113.801537 
L 299.002481 114.354099 
L 299.415256 113.696553 
L 299.828031 114.973285 
L 300.034418 114.913052 
L 300.447193 113.972329 
L 300.859968 114.537746 
L 301.066356 114.238934 
L 301.47913 114.671204 
L 301.685518 114.583448 
L 301.891905 114.248425 
L 302.098293 114.615615 
L 302.30468 114.451418 
L 302.511068 113.921001 
L 302.717455 113.699485 
L 302.923843 114.333507 
L 303.543005 114.693804 
L 303.749392 114.694777 
L 303.95578 113.292253 
L 304.162167 113.286515 
L 304.78133 113.62697 
L 304.987717 113.371908 
L 305.194105 114.135306 
L 305.400492 114.060075 
L 305.606879 114.365039 
L 305.813267 113.836206 
L 306.019654 114.009912 
L 306.226042 114.80362 
L 306.432429 115.087779 
L 306.638817 114.827287 
L 306.845204 115.288612 
L 307.051592 115.148207 
L 307.257979 115.306826 
L 307.464367 114.474122 
L 307.670754 114.182814 
L 307.877141 113.647091 
L 308.083529 114.327826 
L 308.289916 114.417497 
L 308.496304 114.338196 
L 308.702691 114.514392 
L 308.909079 115.300565 
L 309.115466 115.354237 
L 309.321854 115.624042 
L 309.528241 115.207086 
L 309.734629 114.307694 
L 310.147403 113.959636 
L 310.353791 114.623458 
L 310.560178 114.673904 
L 310.766566 114.97569 
L 310.972953 114.851459 
L 311.385728 115.410404 
L 311.592116 114.92369 
L 311.798503 114.832816 
L 312.211278 115.738937 
L 312.417665 115.645642 
L 312.624053 114.895428 
L 312.83044 114.827424 
L 313.243215 114.23132 
L 313.449603 114.491434 
L 313.65599 115.041666 
L 313.862378 115.023356 
L 314.068765 115.199273 
L 314.275152 114.88107 
L 314.48154 114.962782 
L 314.687927 114.655261 
L 315.100702 115.280992 
L 315.30709 114.484023 
L 315.719865 114.058106 
L 315.926252 115.076634 
L 316.132639 115.006903 
L 316.339027 114.708521 
L 316.751802 115.687338 
L 316.958189 115.806152 
L 317.577352 115.272743 
L 317.990127 114.55524 
L 318.196514 114.572341 
L 318.402901 114.755502 
L 318.815676 115.700738 
L 319.641226 115.79197 
L 319.847614 115.223626 
L 320.054001 115.022187 
L 320.260389 115.270388 
L 320.466776 115.033423 
L 320.673163 115.180136 
L 321.085938 114.208924 
L 321.292326 114.034802 
L 321.498713 114.757883 
L 321.705101 114.137701 
L 322.117876 114.157749 
L 322.324263 113.858837 
L 322.53065 114.939229 
L 322.737038 114.463529 
L 323.149813 115.928239 
L 323.3562 115.566415 
L 323.562588 114.925071 
L 323.768975 115.02237 
L 324.18175 116.110476 
L 324.388138 115.969701 
L 324.594525 115.359281 
L 324.800912 113.530115 
L 325.213687 115.134697 
L 325.420075 115.243102 
L 325.626462 115.88363 
L 325.83285 115.290058 
L 326.039237 115.053496 
L 326.452012 115.443424 
L 326.658399 115.613823 
L 326.864787 116.110867 
L 327.071174 116.156989 
L 327.277562 115.642111 
L 327.483949 115.847676 
L 327.896724 115.758132 
L 328.103112 115.708753 
L 328.309499 114.269724 
L 328.515887 114.066762 
L 328.722274 115.255048 
L 329.135049 115.720321 
L 329.341436 115.339023 
L 329.754211 115.954187 
L 330.166986 114.720122 
L 330.373374 115.113622 
L 330.579761 114.080532 
L 330.786148 113.955048 
L 331.405311 116.465559 
L 331.611698 116.188835 
L 331.818086 116.320909 
L 332.437248 115.313478 
L 332.643636 116.019037 
L 332.850023 115.923297 
L 333.262798 115.985935 
L 333.469185 115.906576 
L 333.88196 114.822729 
L 334.501123 115.807017 
L 334.913898 115.017847 
L 335.326672 116.601343 
L 335.53306 116.69363 
L 335.739447 116.570868 
L 336.152222 115.325372 
L 336.35861 113.537615 
L 336.977772 116.172718 
L 337.184159 115.653702 
L 337.596934 113.418283 
L 337.803322 113.283147 
L 338.628872 116.680353 
L 338.835259 116.108691 
L 339.041647 115.050421 
L 339.248034 115.430742 
L 339.454421 115.187783 
L 339.660809 115.319387 
L 339.867196 116.048946 
L 340.073584 116.30822 
L 340.692746 115.852322 
L 340.899134 115.948284 
L 341.105521 116.542916 
L 341.311908 116.715845 
L 341.518296 116.423448 
L 341.724683 116.367187 
L 342.137458 116.513381 
L 342.343846 116.297754 
L 342.550233 116.968093 
L 342.756621 116.456865 
L 342.963008 116.408312 
L 343.375783 116.659142 
L 343.58217 116.49998 
L 343.788558 116.011571 
L 343.994945 114.88562 
L 344.201333 115.084748 
L 344.820495 117.079732 
L 345.23327 114.744286 
L 345.439658 115.166291 
L 345.646045 114.45344 
L 345.852432 114.742661 
L 346.05882 115.390001 
L 346.265207 114.25106 
L 346.471595 114.606116 
L 346.677982 116.244545 
L 346.88437 116.009283 
L 347.090757 115.944615 
L 347.297145 115.486457 
L 347.503532 116.075626 
L 348.329082 116.516152 
L 348.535469 116.588826 
L 348.741857 116.359042 
L 348.948244 116.742326 
L 349.154632 116.662176 
L 349.361019 116.964801 
L 349.567407 116.302178 
L 349.773794 116.182662 
L 350.186569 115.086714 
L 350.392956 115.994682 
L 350.599344 115.633458 
L 350.805731 116.14903 
L 351.012119 115.57391 
L 351.218506 114.382027 
L 351.424894 114.801795 
L 351.631281 114.512186 
L 351.837668 115.84799 
L 352.250443 116.703731 
L 352.456831 116.041194 
L 352.663218 116.780267 
L 353.075993 116.035202 
L 353.695156 116.965501 
L 353.901543 116.413387 
L 354.10793 114.326255 
L 354.314318 113.91137 
L 354.93348 117.170938 
L 355.139868 117.24794 
L 355.346255 116.744868 
L 355.75903 116.430789 
L 356.171805 116.729674 
L 356.378192 115.714185 
L 356.58458 115.65397 
L 356.790967 115.217719 
L 356.997355 115.371111 
L 357.203742 115.791714 
L 357.41013 116.556368 
L 357.616517 116.871622 
L 357.822905 117.496404 
L 358.029292 117.239397 
L 358.235679 116.099144 
L 358.442067 115.720254 
L 358.648454 115.878635 
L 358.854842 116.49611 
L 359.061229 116.640016 
L 359.267617 115.770808 
L 359.474004 116.877252 
L 359.886779 116.068351 
L 360.093167 117.13199 
L 360.299554 117.053272 
L 360.505941 117.462499 
L 360.712329 117.526884 
L 360.918716 116.784285 
L 361.125104 114.784077 
L 361.331491 114.241454 
L 361.744266 116.706733 
L 361.950654 116.524421 
L 362.157041 115.284952 
L 362.363428 113.345972 
L 362.569816 114.525046 
L 362.776203 117.27171 
L 362.982591 117.993879 
L 363.188978 118.087761 
L 363.395366 118.304832 
L 363.601753 118.339872 
L 364.220916 114.542139 
L 364.427303 114.38522 
L 364.63369 115.499771 
L 364.840078 115.759203 
L 365.252853 117.595939 
L 365.665628 118.282284 
L 365.872015 117.809813 
L 366.078403 116.930775 
L 366.28479 117.426788 
L 366.491178 117.136261 
L 366.697565 115.861807 
L 366.903952 116.958677 
L 367.11034 117.142924 
L 367.316727 116.224867 
L 367.523115 116.528618 
L 367.729502 116.373057 
L 367.93589 115.921855 
L 368.142277 114.161042 
L 368.348665 115.371218 
L 368.555052 117.40427 
L 368.761439 117.397884 
L 368.967827 117.223395 
L 369.174214 117.564014 
L 369.380602 117.310792 
L 369.586989 117.577951 
L 369.793377 118.12505 
L 369.999764 117.763437 
L 370.206152 117.721079 
L 370.412539 116.605859 
L 370.618927 116.414182 
L 370.825314 115.280496 
L 371.031701 115.367234 
L 371.238089 116.403029 
L 371.650864 115.947441 
L 371.857251 116.58259 
L 372.063639 118.199218 
L 372.682801 119.544156 
L 372.889188 118.531208 
L 373.301963 115.286492 
L 373.921126 118.935528 
L 374.127513 119.741002 
L 374.333901 119.658056 
L 374.540288 118.33881 
L 374.746676 115.988501 
L 374.953063 112.077751 
L 375.15945 110.78284 
L 375.572225 116.648196 
L 375.778613 118.100013 
L 375.985 117.843758 
L 376.191388 118.30319 
L 376.397775 119.504522 
L 376.604163 118.796404 
L 376.81055 118.53253 
L 377.016938 117.686185 
L 377.223325 117.934068 
L 377.429712 116.683653 
L 377.6361 116.865174 
L 377.842487 117.407317 
L 378.048875 116.005494 
L 378.46165 118.753832 
L 378.874425 119.073 
L 379.287199 119.203713 
L 379.493587 118.05026 
L 379.699974 115.252811 
L 379.906362 115.754023 
L 380.112749 115.88756 
L 380.525524 117.237215 
L 380.731912 117.221179 
L 381.144687 119.633487 
L 381.351074 119.169629 
L 381.557461 117.294976 
L 381.970236 118.527835 
L 382.176624 119.967841 
L 382.383011 120.367208 
L 382.589399 118.946347 
L 382.795786 118.633258 
L 383.208561 115.855878 
L 383.414948 115.9966 
L 383.621336 118.533422 
L 383.827723 118.793903 
L 384.034111 116.116896 
L 384.240498 116.52645 
L 384.446886 116.602709 
L 384.653273 116.348753 
L 385.066048 120.356472 
L 385.68521 121.855333 
L 385.891598 121.792399 
L 386.304373 119.965248 
L 386.717148 115.059271 
L 387.33631 120.8915 
L 387.542698 121.403029 
L 387.749085 119.61187 
L 388.16186 118.498534 
L 388.368247 120.120977 
L 388.574635 119.526866 
L 388.781022 116.377417 
L 388.98741 118.000094 
L 389.193797 118.658407 
L 389.400185 118.074863 
L 389.606572 118.101784 
L 390.019347 120.596649 
L 390.225734 119.940577 
L 390.638509 120.677191 
L 390.844897 121.28456 
L 391.051284 123.06622 
L 391.257672 123.201163 
L 391.876834 119.765123 
L 392.083221 119.170337 
L 392.289609 119.969541 
L 392.495996 120.136835 
L 392.702384 119.166258 
L 393.115159 121.614935 
L 393.321546 120.007649 
L 393.527934 120.809338 
L 393.734321 119.262348 
L 393.940708 120.720193 
L 394.147096 123.021976 
L 394.353483 123.691561 
L 394.559871 122.833047 
L 394.766258 122.647152 
L 394.972646 122.242986 
L 395.179033 122.248108 
L 395.591808 122.409823 
L 396.004583 116.786826 
L 396.21097 116.816272 
L 396.417358 118.142311 
L 396.417358 118.142311 
" style="fill:none;stroke:#1f77b4;stroke-linecap:square;stroke-width:1.5;"/>
   </g>
   <g id="line2d_116">
    <path clip-path="url(#p6ffef61e75)" d="M 73.832727 85.155147 
L 74.03807 102.845646 
L 74.243413 104.096463 
L 74.85944 105.13205 
L 75.680811 106.04172 
L 76.502181 106.640126 
L 77.528895 107.117668 
L 78.966293 107.502396 
L 81.225062 107.775441 
L 84.099859 107.903328 
L 90.260137 107.966261 
L 274.24713 108.129885 
L 292.111939 108.142006 
L 303.816469 108.15146 
L 316.958397 108.16035 
L 365.008571 108.193428 
L 373.016934 108.201401 
L 387.59626 108.210619 
L 394.577909 108.218078 
L 396.425993 108.21813 
L 396.425993 108.21813 
" style="fill:none;stroke:#ff7f0e;stroke-linecap:square;stroke-width:1.5;"/>
   </g>
   <g id="line2d_117">
    <path clip-path="url(#p6ffef61e75)" d="M 73.835897 71.423008 
L 74.461432 85.603302 
L 75.086968 94.708076 
L 75.503992 98.350353 
L 75.921016 100.618511 
L 76.33804 101.982653 
L 76.755064 102.797064 
L 77.380599 103.462198 
L 78.214647 103.888919 
L 79.674231 104.262731 
L 83.427445 104.888532 
L 89.057267 105.605703 
L 95.729649 106.226172 
L 104.070126 106.762349 
L 114.078699 107.180433 
L 126.797927 107.500775 
L 146.398048 107.752749 
L 181.21954 107.91221 
L 250.236989 107.972329 
L 396.403852 107.99394 
L 396.403852 107.99394 
" style="fill:none;stroke:#2ca02c;stroke-linecap:square;stroke-width:1.5;"/>
   </g>
   <g id="line2d_118">
    <path clip-path="url(#p6ffef61e75)" d="M 78.783891 95.882774 
L 83.940397 113.230352 
L 89.096903 128.547863 
L 94.253409 153.28787 
L 99.409915 199.055289 
L 104.566422 260.524529 
L 109.722928 282.091326 
L 114.879434 287.135399 
L 120.03594 289.124473 
L 125.192446 289.948712 
L 130.348952 290.763111 
L 135.505459 291.068801 
L 140.661965 291.034547 
L 145.818471 291.360373 
L 150.974977 291.404207 
L 156.131483 291.383227 
L 161.287989 291.311356 
L 166.444496 291.392616 
L 171.601002 291.384178 
L 176.757508 291.439416 
L 181.914014 291.432682 
L 187.07052 291.409862 
L 192.227026 291.396219 
L 197.383532 291.535656 
L 202.540039 291.43831 
L 207.696545 291.325514 
L 212.853051 291.509844 
L 218.009557 291.412693 
L 223.166063 291.429659 
L 228.322569 291.526751 
L 233.479076 291.398238 
L 238.635582 291.46047 
L 243.792088 291.569184 
L 248.948594 291.466279 
L 254.1051 291.353594 
L 259.261606 291.471906 
L 264.418113 291.442674 
L 269.574619 291.551748 
L 274.731125 291.395859 
L 279.887631 291.541051 
L 285.044137 291.501083 
L 290.200643 291.525131 
L 295.35715 291.579262 
L 300.513656 291.462375 
L 305.670162 291.514933 
L 310.826668 291.371338 
L 315.983174 291.551764 
L 321.13968 291.568896 
L 326.296186 291.617099 
L 331.452693 291.628917 
L 336.609199 291.522723 
L 341.765705 291.463352 
L 346.922211 291.562581 
L 352.078717 291.622223 
L 357.235223 291.45576 
L 362.39173 291.39227 
L 367.548236 291.512329 
L 372.704742 291.559535 
L 377.861248 291.448383 
L 383.017754 291.558874 
L 388.17426 291.513607 
L 393.330767 291.556965 
L 398.487273 291.450026 
" style="fill:none;stroke:#d62728;stroke-dasharray:5.55,2.4;stroke-dashoffset:0;stroke-width:1.5;"/>
   </g>
   <g id="line2d_119">
    <path clip-path="url(#p6ffef61e75)" d="M 78.619268 95.882774 
L 83.611152 113.230352 
L 88.603035 128.547863 
L 93.594919 153.28787 
L 98.586803 199.055291 
L 103.578686 260.529449 
L 108.57057 282.059092 
L 113.562453 287.071124 
L 118.554337 289.043003 
L 123.54622 289.921197 
L 128.538104 290.59982 
L 133.529988 290.917818 
L 138.521871 291.145931 
L 143.513755 291.226656 
L 148.505638 291.270704 
L 153.497522 291.35015 
L 158.489405 291.288554 
L 163.481289 291.382298 
L 168.473173 291.211113 
L 173.465056 291.470286 
L 178.45694 291.4486 
L 183.448823 291.460859 
L 188.440707 291.473019 
L 193.43259 291.581971 
L 198.424474 291.483168 
L 203.416358 291.290504 
L 208.408241 291.394956 
L 213.400125 291.438244 
L 218.392008 291.502012 
L 223.383892 291.563455 
L 228.375775 291.398599 
L 233.367659 291.436812 
L 238.359543 291.497551 
L 243.351426 291.464209 
L 248.34331 291.527452 
L 253.335193 291.426913 
L 258.327077 291.341694 
L 263.31896 291.59551 
L 268.310844 291.467769 
L 273.302728 291.454205 
L 278.294611 291.52131 
L 283.286495 291.470966 
L 288.278378 291.596856 
L 293.270262 291.492804 
L 298.262145 291.431096 
L 303.254029 291.338965 
L 308.245913 291.427043 
L 313.237796 291.429737 
L 318.22968 291.56987 
L 323.221563 291.54394 
L 328.213447 291.492446 
L 333.20533 291.515414 
L 338.197214 291.529151 
L 343.189098 291.5407 
L 348.180981 291.400239 
L 353.172865 291.403695 
L 358.164748 291.400321 
L 363.156632 291.53455 
L 368.148515 291.390636 
L 373.140399 291.592032 
L 378.132283 291.516536 
L 383.124166 291.516463 
L 388.11605 291.409831 
L 393.107933 291.637879 
L 398.099817 291.374698 
" style="fill:none;stroke:#9467bd;stroke-dasharray:5.55,2.4;stroke-dashoffset:0;stroke-width:1.5;"/>
   </g>
   <g id="line2d_120">
    <path clip-path="url(#p6ffef61e75)" d="M 77.231292 95.882774 
L 80.835199 113.230352 
L 84.439107 128.547863 
L 88.043014 153.287704 
L 91.646922 199.048395 
L 95.250829 260.068685 
L 98.854737 280.159042 
L 102.458644 284.179023 
L 106.062551 286.101739 
L 109.666459 287.425075 
L 113.270366 288.232612 
L 116.874274 288.9057 
L 120.478181 289.323113 
L 124.082088 289.666273 
L 127.685996 289.817196 
L 131.289903 290.153288 
L 134.893811 290.239138 
L 138.497718 290.427588 
L 142.101625 290.479817 
L 145.705533 290.675947 
L 149.30944 290.72161 
L 152.913348 290.839392 
L 156.517255 290.84953 
L 160.121162 290.988971 
L 163.72507 291.066294 
L 167.328977 290.987839 
L 170.932885 291.113181 
L 174.536792 291.07257 
L 178.140699 291.139938 
L 181.744607 291.223966 
L 185.348514 291.178226 
L 188.952422 291.243049 
L 192.556329 291.271334 
L 196.160237 291.259927 
L 199.764144 291.272452 
L 203.368051 291.181108 
L 206.971959 291.317562 
L 210.575866 291.360646 
L 214.179774 291.383849 
L 217.783681 291.387333 
L 221.387588 291.320217 
L 224.991496 291.381955 
L 228.595403 291.422128 
L 232.199311 291.378119 
L 235.803218 291.432581 
L 239.407125 291.355985 
L 243.011033 291.471838 
L 246.61494 291.417045 
L 250.218848 291.460717 
L 253.822755 291.463366 
L 257.426662 291.458111 
L 261.03057 291.491459 
L 264.634477 291.501363 
L 268.238385 291.479404 
L 271.842292 291.423894 
L 275.446199 291.428739 
L 279.050107 291.42949 
L 282.654014 291.475185 
L 286.257922 291.514655 
L 289.861829 291.476713 
L 293.465737 291.516466 
L 297.069644 291.510985 
L 300.673551 291.402781 
L 304.277459 291.574441 
L 307.881366 291.465683 
L 311.485274 291.51153 
L 315.089181 291.506606 
L 318.693088 291.54502 
L 322.296996 291.556743 
L 325.900903 291.558992 
L 329.504811 291.467903 
L 333.108718 291.54597 
L 336.712625 291.486706 
L 340.316533 291.522506 
L 343.92044 291.515721 
L 347.524348 291.515954 
L 351.128255 291.573759 
L 354.732162 291.632835 
L 358.33607 291.545183 
L 361.939977 291.511101 
L 365.543885 291.56563 
L 369.147792 291.595514 
L 372.7517 291.621195 
L 376.355607 291.539058 
L 379.959514 291.461327 
L 383.563422 291.485277 
L 387.167329 291.564952 
L 390.771237 291.55011 
L 394.375144 291.563492 
L 397.979051 291.643321 
" style="fill:none;stroke:#8c564b;stroke-dasharray:5.55,2.4;stroke-dashoffset:0;stroke-width:1.5;"/>
   </g>
   <g id="line2d_121">
    <path clip-path="url(#p6ffef61e75)" d="M 75.624291 95.882774 
L 77.621198 113.115947 
L 79.618104 128.464222 
L 81.61501 155.17721 
L 85.608823 243.650551 
L 87.60573 256.557747 
L 89.602636 260.859036 
L 91.599543 264.023221 
L 93.596449 266.196535 
L 99.587169 270.650179 
L 101.584075 271.530197 
L 107.574794 273.447524 
L 117.559327 275.355706 
L 121.55314 275.97377 
L 123.550046 276.304463 
L 125.546953 276.474522 
L 127.543859 276.814671 
L 133.534578 277.449191 
L 137.528391 277.915774 
L 139.525298 278.21879 
L 145.516017 278.704169 
L 153.503643 279.30173 
L 157.497456 279.596612 
L 181.460334 281.045927 
L 183.45724 281.110291 
L 187.451053 281.395101 
L 189.447959 281.411563 
L 191.444866 281.588875 
L 209.417024 282.238657 
L 215.407743 282.441636 
L 225.392276 282.743645 
L 229.386089 283.007181 
L 231.382995 282.936922 
L 241.367527 283.314794 
L 245.36134 283.347766 
L 247.358247 283.495954 
L 251.35206 283.588659 
L 253.348966 283.699997 
L 255.345873 283.637903 
L 257.342779 283.772576 
L 261.336592 283.855427 
L 269.324218 284.084416 
L 279.30875 284.299443 
L 281.305657 284.414312 
L 283.302563 284.348915 
L 287.296376 284.500501 
L 341.21285 285.582082 
L 345.206663 285.554158 
L 349.200476 285.671571 
L 359.185008 285.915046 
L 365.175728 285.859251 
L 371.166447 286.082861 
L 379.154073 286.136591 
L 383.147886 286.223724 
L 387.141699 286.219495 
L 395.129325 286.391448 
L 397.126231 286.397209 
L 397.126231 286.397209 
" style="fill:none;stroke:#e377c2;stroke-dasharray:5.55,2.4;stroke-dashoffset:0;stroke-width:1.5;"/>
   </g>
   <g id="line2d_122">
    <path clip-path="url(#p6ffef61e75)" d="M 74.789955 95.882774 
L 75.952526 113.330108 
L 77.115096 118.978632 
L 78.277667 123.746993 
L 79.440238 129.280595 
L 81.765379 143.754193 
L 82.927949 149.922332 
L 84.09052 155.012062 
L 86.415661 164.478691 
L 87.578232 170.229005 
L 88.740802 177.594199 
L 91.065944 190.021726 
L 92.228514 195.4869 
L 93.391085 202.363681 
L 96.878797 215.306888 
L 98.041367 218.271031 
L 101.529079 223.06908 
L 103.85422 225.346068 
L 105.016791 226.253295 
L 106.179362 227.323131 
L 109.667073 230.017464 
L 118.967638 235.084703 
L 121.292779 236.121463 
L 127.105632 238.305025 
L 130.593344 239.353479 
L 132.918485 240.333667 
L 135.243627 241.043618 
L 139.893909 242.37138 
L 143.381621 243.249041 
L 148.031903 244.428021 
L 152.682186 245.34346 
L 156.169897 246.046936 
L 180.58388 250.584424 
L 187.559304 251.552307 
L 188.721874 251.770589 
L 192.209586 252.172649 
L 206.160433 253.972235 
L 211.973286 254.55237 
L 216.623569 255.023922 
L 217.786139 255.079477 
L 220.111281 255.373897 
L 236.387269 256.856072 
L 238.71241 257.01513 
L 243.362693 257.411332 
L 244.525263 257.399337 
L 250.338116 257.886745 
L 271.264387 259.342364 
L 272.426958 259.495903 
L 274.752099 259.578491 
L 279.402381 259.875721 
L 281.727522 259.999043 
L 284.052664 260.182059 
L 286.377805 260.294867 
L 288.702946 260.422249 
L 293.353228 260.742555 
L 299.166081 261.018354 
L 338.693482 262.895751 
L 341.018623 262.955098 
L 343.343764 263.127393 
L 344.506335 263.11218 
L 346.831476 263.224336 
L 349.156617 263.325209 
L 351.481759 263.401304 
L 353.8069 263.481444 
L 359.619753 263.731496 
L 375.895741 264.328472 
L 378.220882 264.435389 
L 380.546024 264.446223 
L 382.871165 264.573886 
L 389.846588 264.83124 
L 395.659441 265.002017 
L 396.822012 265.074211 
L 396.822012 265.074211 
" style="fill:none;stroke:#7f7f7f;stroke-dasharray:5.55,2.4;stroke-dashoffset:0;stroke-width:1.5;"/>
   </g>
   <g id="line2d_123">
    <path clip-path="url(#p6ffef61e75)" d="M 74.510126 95.882774 
L 75.392868 112.826137 
L 76.27561 115.512897 
L 77.158351 116.448414 
L 78.041093 117.078595 
L 81.57206 120.39167 
L 82.454802 120.877719 
L 85.103027 122.769586 
L 86.86851 124.018316 
L 87.751252 125.657369 
L 88.633994 126.775002 
L 90.399477 129.447969 
L 93.047702 134.578415 
L 94.813186 138.204811 
L 95.695927 139.929005 
L 96.578669 141.339684 
L 100.109636 145.529007 
L 103.640603 149.00012 
L 104.523344 149.785367 
L 105.406086 150.758403 
L 106.288828 151.446499 
L 107.17157 152.368606 
L 108.054311 153.028892 
L 109.819795 154.645117 
L 122.178179 164.973127 
L 123.06092 165.528553 
L 124.826404 166.995656 
L 130.122854 170.542713 
L 131.005596 170.965653 
L 132.771079 172.522673 
L 135.419304 174.22224 
L 138.950271 176.288469 
L 144.246721 179.132974 
L 146.012205 179.932214 
L 146.894947 180.344925 
L 148.66043 181.464785 
L 156.605105 185.186542 
L 161.018814 187.139741 
L 170.728973 191.184489 
L 173.377198 192.445671 
L 176.025423 193.419371 
L 178.673648 194.582294 
L 179.55639 194.868577 
L 182.204615 196.398752 
L 183.087357 196.771456 
L 183.970098 196.98468 
L 186.618323 198.292927 
L 187.501065 198.611374 
L 192.797515 201.242008 
L 193.680257 201.532525 
L 195.445741 202.431492 
L 197.211224 203.086137 
L 198.093966 203.453662 
L 198.976707 203.959641 
L 199.859449 204.316222 
L 200.742191 204.843178 
L 202.507674 205.616534 
L 204.273158 206.563966 
L 206.038641 207.313531 
L 206.921383 207.551553 
L 208.686866 208.2857 
L 210.45235 208.945007 
L 222.810734 214.063925 
L 225.458959 215.042985 
L 227.224442 215.684881 
L 230.755409 216.757116 
L 231.638151 217.159774 
L 239.582826 219.3458 
L 240.465568 219.637778 
L 242.231051 219.993516 
L 243.113793 220.276129 
L 246.64476 220.896962 
L 247.527501 221.243792 
L 259.003144 223.435389 
L 260.768627 223.747755 
L 264.299594 224.398447 
L 266.947819 224.761642 
L 267.830561 224.950358 
L 268.713302 224.868466 
L 270.478786 225.293726 
L 277.54072 226.24649 
L 279.306203 226.461973 
L 283.719912 226.998519 
L 290.781845 227.841533 
L 291.664587 227.878169 
L 294.312812 228.22699 
L 303.140229 229.278856 
L 306.671196 229.546928 
L 309.319421 229.860524 
L 334.918931 232.143265 
L 336.684414 232.266564 
L 338.449898 232.417318 
L 342.863606 232.771319 
L 348.160056 233.157575 
L 356.987473 233.832399 
L 359.635699 233.96576 
L 365.814891 234.407957 
L 369.345857 234.709456 
L 370.228599 234.692158 
L 371.994083 234.853738 
L 373.759566 234.914049 
L 374.642308 235.099303 
L 377.290533 235.187335 
L 382.586983 235.581854 
L 385.235208 235.730227 
L 396.71085 236.46996 
L 396.71085 236.46996 
" style="fill:none;stroke:#bcbd22;stroke-dasharray:5.55,2.4;stroke-dashoffset:0;stroke-width:1.5;"/>
   </g>
   <g id="line2d_124">
    <path clip-path="url(#p6ffef61e75)" d="M 74.307431 95.882774 
L 74.987478 112.63175 
L 75.667525 114.883494 
L 76.347571 115.422743 
L 78.387711 115.906917 
L 84.508131 117.016385 
L 85.868224 117.326305 
L 87.908364 117.707559 
L 91.308597 118.586543 
L 92.66869 118.860361 
L 94.028784 119.373452 
L 94.70883 120.595764 
L 96.068924 121.135715 
L 96.74897 121.235588 
L 98.78911 121.875515 
L 101.509297 122.587893 
L 105.589577 123.928133 
L 107.629717 124.748387 
L 112.390043 127.366791 
L 113.07009 127.963913 
L 115.790276 129.415655 
L 118.510463 130.758096 
L 123.950836 133.079285 
L 125.310929 133.711322 
L 126.671022 134.303755 
L 129.391209 135.383632 
L 130.071256 135.56501 
L 131.431349 136.182188 
L 149.792608 142.076423 
L 151.832748 142.883358 
L 152.512795 143.086315 
L 153.192841 143.495297 
L 154.552934 143.967536 
L 162.033448 146.416982 
L 162.713494 146.731789 
L 163.393541 146.905217 
L 164.073587 147.231078 
L 164.753634 147.399432 
L 165.433681 147.694556 
L 166.113727 147.855963 
L 167.473821 148.383961 
L 180.394707 152.628138 
L 181.074753 153.020042 
L 183.79494 154.00835 
L 187.87522 155.454051 
L 194.675686 157.619393 
L 195.355733 157.972683 
L 200.796106 159.752643 
L 202.156199 160.233356 
L 203.516292 160.657731 
L 204.876386 161.059454 
L 213.716992 163.787483 
L 215.077085 164.164086 
L 217.797272 165.056939 
L 219.837412 165.661931 
L 225.957831 167.459441 
L 227.317925 167.825826 
L 230.038111 168.44515 
L 231.398205 168.933016 
L 232.758298 169.312344 
L 234.798438 169.787694 
L 241.598904 171.387831 
L 242.278951 171.486074 
L 242.958997 171.716618 
L 244.999137 172.145153 
L 246.359231 172.483036 
L 251.799604 173.943029 
L 261.320257 176.207343 
L 262.68035 176.575616 
L 264.040443 176.937096 
L 266.080583 177.429936 
L 269.480816 178.114088 
L 270.160863 178.086087 
L 272.881049 178.786494 
L 274.241143 178.919452 
L 274.921189 179.195444 
L 276.281283 179.364194 
L 276.961329 179.597663 
L 277.641376 179.585238 
L 279.001469 179.99975 
L 287.162029 181.369803 
L 288.522122 181.724489 
L 292.602402 182.429314 
L 304.843241 184.490861 
L 305.523288 184.738627 
L 306.883381 184.884985 
L 307.563428 185.106784 
L 309.603568 185.505243 
L 310.963661 185.744641 
L 313.683848 186.198561 
L 317.084081 186.864666 
L 328.644874 188.891227 
L 330.685014 189.205316 
L 335.44534 189.961502 
L 336.805433 190.316072 
L 338.165527 190.627395 
L 338.845573 190.619819 
L 339.52562 190.875441 
L 342.245806 191.467622 
L 351.766459 193.278247 
L 352.446506 193.30881 
L 353.806599 193.641872 
L 359.927019 194.743282 
L 360.607066 194.901605 
L 361.967159 195.089877 
L 366.047439 195.803695 
L 370.127719 196.561117 
L 372.167858 196.892855 
L 376.248138 197.679637 
L 377.608232 197.917817 
L 381.688511 198.710131 
L 393.929351 201.013046 
L 395.289444 201.346063 
L 396.649537 201.679046 
L 396.649537 201.679046 
" style="fill:none;stroke:#17becf;stroke-dasharray:5.55,2.4;stroke-dashoffset:0;stroke-width:1.5;"/>
   </g>
   <g id="patch_3">
    <path d="M 57.6 307.584 
L 57.6 41.472 
" style="fill:none;stroke:#000000;stroke-linecap:square;stroke-linejoin:miter;stroke-width:0.8;"/>
   </g>
   <g id="patch_4">
    <path d="M 414.72 307.584 
L 414.72 41.472 
" style="fill:none;stroke:#000000;stroke-linecap:square;stroke-linejoin:miter;stroke-width:0.8;"/>
   </g>
   <g id="patch_5">
    <path d="M 57.6 307.584 
L 414.72 307.584 
" style="fill:none;stroke:#000000;stroke-linecap:square;stroke-linejoin:miter;stroke-width:0.8;"/>
   </g>
   <g id="patch_6">
    <path d="M 57.6 41.472 
L 414.72 41.472 
" style="fill:none;stroke:#000000;stroke-linecap:square;stroke-linejoin:miter;stroke-width:0.8;"/>
   </g>
   <g id="legend_1">
    <g id="patch_7">
     <path d="M 299.895 302.584 
L 407.72 302.584 
Q 409.72 302.584 409.72 300.584 
L 409.72 154.80275 
Q 409.72 152.80275 407.72 152.80275 
L 299.895 152.80275 
Q 297.895 152.80275 297.895 154.80275 
L 297.895 300.584 
Q 297.895 302.584 299.895 302.584 
z
" style="fill:#ffffff;opacity:0.8;stroke:#cccccc;stroke-linejoin:miter;"/>
    </g>
    <g id="line2d_125">
     <path d="M 301.895 160.901187 
L 321.895 160.901187 
" style="fill:none;stroke:#1f77b4;stroke-linecap:square;stroke-width:1.5;"/>
    </g>
    <g id="line2d_126"/>
    <g id="text_15">
     <!-- SGD, lr 0.1 -->
     <defs>
      <path d="M 53.515625 70.515625 
L 53.515625 60.890625 
Q 47.90625 63.578125 42.921875 64.890625 
Q 37.9375 66.21875 33.296875 66.21875 
Q 25.25 66.21875 20.875 63.09375 
Q 16.5 59.96875 16.5 54.203125 
Q 16.5 49.359375 19.40625 46.890625 
Q 22.3125 44.4375 30.421875 42.921875 
L 36.375 41.703125 
Q 47.40625 39.59375 52.65625 34.296875 
Q 57.90625 29 57.90625 20.125 
Q 57.90625 9.515625 50.796875 4.046875 
Q 43.703125 -1.421875 29.984375 -1.421875 
Q 24.8125 -1.421875 18.96875 -0.25 
Q 13.140625 0.921875 6.890625 3.21875 
L 6.890625 13.375 
Q 12.890625 10.015625 18.65625 8.296875 
Q 24.421875 6.59375 29.984375 6.59375 
Q 38.421875 6.59375 43.015625 9.90625 
Q 47.609375 13.234375 47.609375 19.390625 
Q 47.609375 24.75 44.3125 27.78125 
Q 41.015625 30.8125 33.5 32.328125 
L 27.484375 33.5 
Q 16.453125 35.6875 11.515625 40.375 
Q 6.59375 45.0625 6.59375 53.421875 
Q 6.59375 63.09375 13.40625 68.65625 
Q 20.21875 74.21875 32.171875 74.21875 
Q 37.3125 74.21875 42.625 73.28125 
Q 47.953125 72.359375 53.515625 70.515625 
z
" id="DejaVuSans-53"/>
      <path d="M 59.515625 10.40625 
L 59.515625 29.984375 
L 43.40625 29.984375 
L 43.40625 38.09375 
L 69.28125 38.09375 
L 69.28125 6.78125 
Q 63.578125 2.734375 56.6875 0.65625 
Q 49.8125 -1.421875 42 -1.421875 
Q 24.90625 -1.421875 15.25 8.5625 
Q 5.609375 18.5625 5.609375 36.375 
Q 5.609375 54.25 15.25 64.234375 
Q 24.90625 74.21875 42 74.21875 
Q 49.125 74.21875 55.546875 72.453125 
Q 61.96875 70.703125 67.390625 67.28125 
L 67.390625 56.78125 
Q 61.921875 61.421875 55.765625 63.765625 
Q 49.609375 66.109375 42.828125 66.109375 
Q 29.4375 66.109375 22.71875 58.640625 
Q 16.015625 51.171875 16.015625 36.375 
Q 16.015625 21.625 22.71875 14.15625 
Q 29.4375 6.6875 42.828125 6.6875 
Q 48.046875 6.6875 52.140625 7.59375 
Q 56.25 8.5 59.515625 10.40625 
z
" id="DejaVuSans-47"/>
      <path d="M 19.671875 64.796875 
L 19.671875 8.109375 
L 31.59375 8.109375 
Q 46.6875 8.109375 53.6875 14.9375 
Q 60.6875 21.78125 60.6875 36.53125 
Q 60.6875 51.171875 53.6875 57.984375 
Q 46.6875 64.796875 31.59375 64.796875 
z
M 9.8125 72.90625 
L 30.078125 72.90625 
Q 51.265625 72.90625 61.171875 64.09375 
Q 71.09375 55.28125 71.09375 36.53125 
Q 71.09375 17.671875 61.125 8.828125 
Q 51.171875 0 30.078125 0 
L 9.8125 0 
z
" id="DejaVuSans-44"/>
      <path d="M 11.71875 12.40625 
L 22.015625 12.40625 
L 22.015625 4 
L 14.015625 -11.625 
L 7.71875 -11.625 
L 11.71875 4 
z
" id="DejaVuSans-2c"/>
      <path id="DejaVuSans-20"/>
      <path d="M 41.109375 46.296875 
Q 39.59375 47.171875 37.8125 47.578125 
Q 36.03125 48 33.890625 48 
Q 26.265625 48 22.1875 43.046875 
Q 18.109375 38.09375 18.109375 28.8125 
L 18.109375 0 
L 9.078125 0 
L 9.078125 54.6875 
L 18.109375 54.6875 
L 18.109375 46.1875 
Q 20.953125 51.171875 25.484375 53.578125 
Q 30.03125 56 36.53125 56 
Q 37.453125 56 38.578125 55.875 
Q 39.703125 55.765625 41.0625 55.515625 
z
" id="DejaVuSans-72"/>
      <path d="M 10.6875 12.40625 
L 21 12.40625 
L 21 0 
L 10.6875 0 
z
" id="DejaVuSans-2e"/>
     </defs>
     <g transform="translate(329.895 164.401187)scale(0.1 -0.1)">
      <use xlink:href="#DejaVuSans-53"/>
      <use x="63.476562" xlink:href="#DejaVuSans-47"/>
      <use x="140.966797" xlink:href="#DejaVuSans-44"/>
      <use x="217.96875" xlink:href="#DejaVuSans-2c"/>
      <use x="249.755859" xlink:href="#DejaVuSans-20"/>
      <use x="281.542969" xlink:href="#DejaVuSans-6c"/>
      <use x="309.326172" xlink:href="#DejaVuSans-72"/>
      <use x="350.439453" xlink:href="#DejaVuSans-20"/>
      <use x="382.226562" xlink:href="#DejaVuSans-30"/>
      <use x="445.849609" xlink:href="#DejaVuSans-2e"/>
      <use x="477.636719" xlink:href="#DejaVuSans-31"/>
     </g>
    </g>
    <g id="line2d_127">
     <path d="M 301.895 175.579313 
L 321.895 175.579313 
" style="fill:none;stroke:#ff7f0e;stroke-linecap:square;stroke-width:1.5;"/>
    </g>
    <g id="line2d_128"/>
    <g id="text_16">
     <!-- SGD, lr 0.01 -->
     <g transform="translate(329.895 179.079313)scale(0.1 -0.1)">
      <use xlink:href="#DejaVuSans-53"/>
      <use x="63.476562" xlink:href="#DejaVuSans-47"/>
      <use x="140.966797" xlink:href="#DejaVuSans-44"/>
      <use x="217.96875" xlink:href="#DejaVuSans-2c"/>
      <use x="249.755859" xlink:href="#DejaVuSans-20"/>
      <use x="281.542969" xlink:href="#DejaVuSans-6c"/>
      <use x="309.326172" xlink:href="#DejaVuSans-72"/>
      <use x="350.439453" xlink:href="#DejaVuSans-20"/>
      <use x="382.226562" xlink:href="#DejaVuSans-30"/>
      <use x="445.849609" xlink:href="#DejaVuSans-2e"/>
      <use x="477.636719" xlink:href="#DejaVuSans-30"/>
      <use x="541.259766" xlink:href="#DejaVuSans-31"/>
     </g>
    </g>
    <g id="line2d_129">
     <path d="M 301.895 190.257438 
L 321.895 190.257438 
" style="fill:none;stroke:#2ca02c;stroke-linecap:square;stroke-width:1.5;"/>
    </g>
    <g id="line2d_130"/>
    <g id="text_17">
     <!-- SGD, lr 0.001 -->
     <g transform="translate(329.895 193.757438)scale(0.1 -0.1)">
      <use xlink:href="#DejaVuSans-53"/>
      <use x="63.476562" xlink:href="#DejaVuSans-47"/>
      <use x="140.966797" xlink:href="#DejaVuSans-44"/>
      <use x="217.96875" xlink:href="#DejaVuSans-2c"/>
      <use x="249.755859" xlink:href="#DejaVuSans-20"/>
      <use x="281.542969" xlink:href="#DejaVuSans-6c"/>
      <use x="309.326172" xlink:href="#DejaVuSans-72"/>
      <use x="350.439453" xlink:href="#DejaVuSans-20"/>
      <use x="382.226562" xlink:href="#DejaVuSans-30"/>
      <use x="445.849609" xlink:href="#DejaVuSans-2e"/>
      <use x="477.636719" xlink:href="#DejaVuSans-30"/>
      <use x="541.259766" xlink:href="#DejaVuSans-30"/>
      <use x="604.882812" xlink:href="#DejaVuSans-31"/>
     </g>
    </g>
    <g id="line2d_131">
     <path d="M 301.895 204.935563 
L 321.895 204.935563 
" style="fill:none;stroke:#d62728;stroke-dasharray:5.55,2.4;stroke-dashoffset:0;stroke-width:1.5;"/>
    </g>
    <g id="line2d_132"/>
    <g id="text_18">
     <!-- SGN, cg iter 40 -->
     <defs>
      <path d="M 9.8125 72.90625 
L 23.09375 72.90625 
L 55.421875 11.921875 
L 55.421875 72.90625 
L 64.984375 72.90625 
L 64.984375 0 
L 51.703125 0 
L 19.390625 60.984375 
L 19.390625 0 
L 9.8125 0 
z
" id="DejaVuSans-4e"/>
      <path d="M 45.40625 27.984375 
Q 45.40625 37.75 41.375 43.109375 
Q 37.359375 48.484375 30.078125 48.484375 
Q 22.859375 48.484375 18.828125 43.109375 
Q 14.796875 37.75 14.796875 27.984375 
Q 14.796875 18.265625 18.828125 12.890625 
Q 22.859375 7.515625 30.078125 7.515625 
Q 37.359375 7.515625 41.375 12.890625 
Q 45.40625 18.265625 45.40625 27.984375 
z
M 54.390625 6.78125 
Q 54.390625 -7.171875 48.1875 -13.984375 
Q 42 -20.796875 29.203125 -20.796875 
Q 24.46875 -20.796875 20.265625 -20.09375 
Q 16.0625 -19.390625 12.109375 -17.921875 
L 12.109375 -9.1875 
Q 16.0625 -11.328125 19.921875 -12.34375 
Q 23.78125 -13.375 27.78125 -13.375 
Q 36.625 -13.375 41.015625 -8.765625 
Q 45.40625 -4.15625 45.40625 5.171875 
L 45.40625 9.625 
Q 42.625 4.78125 38.28125 2.390625 
Q 33.9375 0 27.875 0 
Q 17.828125 0 11.671875 7.65625 
Q 5.515625 15.328125 5.515625 27.984375 
Q 5.515625 40.671875 11.671875 48.328125 
Q 17.828125 56 27.875 56 
Q 33.9375 56 38.28125 53.609375 
Q 42.625 51.21875 45.40625 46.390625 
L 45.40625 54.6875 
L 54.390625 54.6875 
z
" id="DejaVuSans-67"/>
      <path d="M 9.421875 54.6875 
L 18.40625 54.6875 
L 18.40625 0 
L 9.421875 0 
z
M 9.421875 75.984375 
L 18.40625 75.984375 
L 18.40625 64.59375 
L 9.421875 64.59375 
z
" id="DejaVuSans-69"/>
      <path d="M 18.3125 70.21875 
L 18.3125 54.6875 
L 36.8125 54.6875 
L 36.8125 47.703125 
L 18.3125 47.703125 
L 18.3125 18.015625 
Q 18.3125 11.328125 20.140625 9.421875 
Q 21.96875 7.515625 27.59375 7.515625 
L 36.8125 7.515625 
L 36.8125 0 
L 27.59375 0 
Q 17.1875 0 13.234375 3.875 
Q 9.28125 7.765625 9.28125 18.015625 
L 9.28125 47.703125 
L 2.6875 47.703125 
L 2.6875 54.6875 
L 9.28125 54.6875 
L 9.28125 70.21875 
z
" id="DejaVuSans-74"/>
     </defs>
     <g transform="translate(329.895 208.435563)scale(0.1 -0.1)">
      <use xlink:href="#DejaVuSans-53"/>
      <use x="63.476562" xlink:href="#DejaVuSans-47"/>
      <use x="140.966797" xlink:href="#DejaVuSans-4e"/>
      <use x="215.771484" xlink:href="#DejaVuSans-2c"/>
      <use x="247.558594" xlink:href="#DejaVuSans-20"/>
      <use x="279.345703" xlink:href="#DejaVuSans-63"/>
      <use x="334.326172" xlink:href="#DejaVuSans-67"/>
      <use x="397.802734" xlink:href="#DejaVuSans-20"/>
      <use x="429.589844" xlink:href="#DejaVuSans-69"/>
      <use x="457.373047" xlink:href="#DejaVuSans-74"/>
      <use x="496.582031" xlink:href="#DejaVuSans-65"/>
      <use x="558.105469" xlink:href="#DejaVuSans-72"/>
      <use x="599.21875" xlink:href="#DejaVuSans-20"/>
      <use x="631.005859" xlink:href="#DejaVuSans-34"/>
      <use x="694.628906" xlink:href="#DejaVuSans-30"/>
     </g>
    </g>
    <g id="line2d_133">
     <path d="M 301.895 219.613688 
L 321.895 219.613688 
" style="fill:none;stroke:#9467bd;stroke-dasharray:5.55,2.4;stroke-dashoffset:0;stroke-width:1.5;"/>
    </g>
    <g id="line2d_134"/>
    <g id="text_19">
     <!-- SGN, cg iter 30 -->
     <g transform="translate(329.895 223.113688)scale(0.1 -0.1)">
      <use xlink:href="#DejaVuSans-53"/>
      <use x="63.476562" xlink:href="#DejaVuSans-47"/>
      <use x="140.966797" xlink:href="#DejaVuSans-4e"/>
      <use x="215.771484" xlink:href="#DejaVuSans-2c"/>
      <use x="247.558594" xlink:href="#DejaVuSans-20"/>
      <use x="279.345703" xlink:href="#DejaVuSans-63"/>
      <use x="334.326172" xlink:href="#DejaVuSans-67"/>
      <use x="397.802734" xlink:href="#DejaVuSans-20"/>
      <use x="429.589844" xlink:href="#DejaVuSans-69"/>
      <use x="457.373047" xlink:href="#DejaVuSans-74"/>
      <use x="496.582031" xlink:href="#DejaVuSans-65"/>
      <use x="558.105469" xlink:href="#DejaVuSans-72"/>
      <use x="599.21875" xlink:href="#DejaVuSans-20"/>
      <use x="631.005859" xlink:href="#DejaVuSans-33"/>
      <use x="694.628906" xlink:href="#DejaVuSans-30"/>
     </g>
    </g>
    <g id="line2d_135">
     <path d="M 301.895 234.291812 
L 321.895 234.291812 
" style="fill:none;stroke:#8c564b;stroke-dasharray:5.55,2.4;stroke-dashoffset:0;stroke-width:1.5;"/>
    </g>
    <g id="line2d_136"/>
    <g id="text_20">
     <!-- SGN, cg iter 20 -->
     <g transform="translate(329.895 237.791812)scale(0.1 -0.1)">
      <use xlink:href="#DejaVuSans-53"/>
      <use x="63.476562" xlink:href="#DejaVuSans-47"/>
      <use x="140.966797" xlink:href="#DejaVuSans-4e"/>
      <use x="215.771484" xlink:href="#DejaVuSans-2c"/>
      <use x="247.558594" xlink:href="#DejaVuSans-20"/>
      <use x="279.345703" xlink:href="#DejaVuSans-63"/>
      <use x="334.326172" xlink:href="#DejaVuSans-67"/>
      <use x="397.802734" xlink:href="#DejaVuSans-20"/>
      <use x="429.589844" xlink:href="#DejaVuSans-69"/>
      <use x="457.373047" xlink:href="#DejaVuSans-74"/>
      <use x="496.582031" xlink:href="#DejaVuSans-65"/>
      <use x="558.105469" xlink:href="#DejaVuSans-72"/>
      <use x="599.21875" xlink:href="#DejaVuSans-20"/>
      <use x="631.005859" xlink:href="#DejaVuSans-32"/>
      <use x="694.628906" xlink:href="#DejaVuSans-30"/>
     </g>
    </g>
    <g id="line2d_137">
     <path d="M 301.895 248.969938 
L 321.895 248.969938 
" style="fill:none;stroke:#e377c2;stroke-dasharray:5.55,2.4;stroke-dashoffset:0;stroke-width:1.5;"/>
    </g>
    <g id="line2d_138"/>
    <g id="text_21">
     <!-- SGN, cg iter 10 -->
     <g transform="translate(329.895 252.469938)scale(0.1 -0.1)">
      <use xlink:href="#DejaVuSans-53"/>
      <use x="63.476562" xlink:href="#DejaVuSans-47"/>
      <use x="140.966797" xlink:href="#DejaVuSans-4e"/>
      <use x="215.771484" xlink:href="#DejaVuSans-2c"/>
      <use x="247.558594" xlink:href="#DejaVuSans-20"/>
      <use x="279.345703" xlink:href="#DejaVuSans-63"/>
      <use x="334.326172" xlink:href="#DejaVuSans-67"/>
      <use x="397.802734" xlink:href="#DejaVuSans-20"/>
      <use x="429.589844" xlink:href="#DejaVuSans-69"/>
      <use x="457.373047" xlink:href="#DejaVuSans-74"/>
      <use x="496.582031" xlink:href="#DejaVuSans-65"/>
      <use x="558.105469" xlink:href="#DejaVuSans-72"/>
      <use x="599.21875" xlink:href="#DejaVuSans-20"/>
      <use x="631.005859" xlink:href="#DejaVuSans-31"/>
      <use x="694.628906" xlink:href="#DejaVuSans-30"/>
     </g>
    </g>
    <g id="line2d_139">
     <path d="M 301.895 263.648062 
L 321.895 263.648062 
" style="fill:none;stroke:#7f7f7f;stroke-dasharray:5.55,2.4;stroke-dashoffset:0;stroke-width:1.5;"/>
    </g>
    <g id="line2d_140"/>
    <g id="text_22">
     <!-- SGN, cg iter 5 -->
     <defs>
      <path d="M 10.796875 72.90625 
L 49.515625 72.90625 
L 49.515625 64.59375 
L 19.828125 64.59375 
L 19.828125 46.734375 
Q 21.96875 47.46875 24.109375 47.828125 
Q 26.265625 48.1875 28.421875 48.1875 
Q 40.625 48.1875 47.75 41.5 
Q 54.890625 34.8125 54.890625 23.390625 
Q 54.890625 11.625 47.5625 5.09375 
Q 40.234375 -1.421875 26.90625 -1.421875 
Q 22.3125 -1.421875 17.546875 -0.640625 
Q 12.796875 0.140625 7.71875 1.703125 
L 7.71875 11.625 
Q 12.109375 9.234375 16.796875 8.0625 
Q 21.484375 6.890625 26.703125 6.890625 
Q 35.15625 6.890625 40.078125 11.328125 
Q 45.015625 15.765625 45.015625 23.390625 
Q 45.015625 31 40.078125 35.4375 
Q 35.15625 39.890625 26.703125 39.890625 
Q 22.75 39.890625 18.8125 39.015625 
Q 14.890625 38.140625 10.796875 36.28125 
z
" id="DejaVuSans-35"/>
     </defs>
     <g transform="translate(329.895 267.148062)scale(0.1 -0.1)">
      <use xlink:href="#DejaVuSans-53"/>
      <use x="63.476562" xlink:href="#DejaVuSans-47"/>
      <use x="140.966797" xlink:href="#DejaVuSans-4e"/>
      <use x="215.771484" xlink:href="#DejaVuSans-2c"/>
      <use x="247.558594" xlink:href="#DejaVuSans-20"/>
      <use x="279.345703" xlink:href="#DejaVuSans-63"/>
      <use x="334.326172" xlink:href="#DejaVuSans-67"/>
      <use x="397.802734" xlink:href="#DejaVuSans-20"/>
      <use x="429.589844" xlink:href="#DejaVuSans-69"/>
      <use x="457.373047" xlink:href="#DejaVuSans-74"/>
      <use x="496.582031" xlink:href="#DejaVuSans-65"/>
      <use x="558.105469" xlink:href="#DejaVuSans-72"/>
      <use x="599.21875" xlink:href="#DejaVuSans-20"/>
      <use x="631.005859" xlink:href="#DejaVuSans-35"/>
     </g>
    </g>
    <g id="line2d_141">
     <path d="M 301.895 278.326188 
L 321.895 278.326188 
" style="fill:none;stroke:#bcbd22;stroke-dasharray:5.55,2.4;stroke-dashoffset:0;stroke-width:1.5;"/>
    </g>
    <g id="line2d_142"/>
    <g id="text_23">
     <!-- SGN, cg iter 3 -->
     <g transform="translate(329.895 281.826188)scale(0.1 -0.1)">
      <use xlink:href="#DejaVuSans-53"/>
      <use x="63.476562" xlink:href="#DejaVuSans-47"/>
      <use x="140.966797" xlink:href="#DejaVuSans-4e"/>
      <use x="215.771484" xlink:href="#DejaVuSans-2c"/>
      <use x="247.558594" xlink:href="#DejaVuSans-20"/>
      <use x="279.345703" xlink:href="#DejaVuSans-63"/>
      <use x="334.326172" xlink:href="#DejaVuSans-67"/>
      <use x="397.802734" xlink:href="#DejaVuSans-20"/>
      <use x="429.589844" xlink:href="#DejaVuSans-69"/>
      <use x="457.373047" xlink:href="#DejaVuSans-74"/>
      <use x="496.582031" xlink:href="#DejaVuSans-65"/>
      <use x="558.105469" xlink:href="#DejaVuSans-72"/>
      <use x="599.21875" xlink:href="#DejaVuSans-20"/>
      <use x="631.005859" xlink:href="#DejaVuSans-33"/>
     </g>
    </g>
    <g id="line2d_143">
     <path d="M 301.895 293.004312 
L 321.895 293.004312 
" style="fill:none;stroke:#17becf;stroke-dasharray:5.55,2.4;stroke-dashoffset:0;stroke-width:1.5;"/>
    </g>
    <g id="line2d_144"/>
    <g id="text_24">
     <!-- SGN, cg iter 2 -->
     <g transform="translate(329.895 296.504312)scale(0.1 -0.1)">
      <use xlink:href="#DejaVuSans-53"/>
      <use x="63.476562" xlink:href="#DejaVuSans-47"/>
      <use x="140.966797" xlink:href="#DejaVuSans-4e"/>
      <use x="215.771484" xlink:href="#DejaVuSans-2c"/>
      <use x="247.558594" xlink:href="#DejaVuSans-20"/>
      <use x="279.345703" xlink:href="#DejaVuSans-63"/>
      <use x="334.326172" xlink:href="#DejaVuSans-67"/>
      <use x="397.802734" xlink:href="#DejaVuSans-20"/>
      <use x="429.589844" xlink:href="#DejaVuSans-69"/>
      <use x="457.373047" xlink:href="#DejaVuSans-74"/>
      <use x="496.582031" xlink:href="#DejaVuSans-65"/>
      <use x="558.105469" xlink:href="#DejaVuSans-72"/>
      <use x="599.21875" xlink:href="#DejaVuSans-20"/>
      <use x="631.005859" xlink:href="#DejaVuSans-32"/>
     </g>
    </g>
   </g>
  </g>
 </g>
 <defs>
  <clipPath id="p6ffef61e75">
   <rect height="266.112" width="357.12" x="57.6" y="41.472"/>
  </clipPath>
 </defs>
</svg>
