<?xml version="1.0" encoding="utf-8" standalone="no"?>
<!DOCTYPE svg PUBLIC "-//W3C//DTD SVG 1.1//EN"
  "http://www.w3.org/Graphics/SVG/1.1/DTD/svg11.dtd">
<!-- Created with matplotlib (http://matplotlib.org/) -->
<svg height="345pt" version="1.1" viewBox="0 0 460 345" width="460pt" xmlns="http://www.w3.org/2000/svg" xmlns:xlink="http://www.w3.org/1999/xlink">
 <defs>
  <style type="text/css">
*{stroke-linecap:butt;stroke-linejoin:round;}
  </style>
 </defs>
 <g id="figure_1">
  <g id="patch_1">
   <path d="M 0 345.6 
L 460.8 345.6 
L 460.8 0 
L 0 0 
z
" style="fill:none;opacity:0;"/>
  </g>
  <g id="axes_1">
   <g id="patch_2">
    <path d="M 57.6 307.584 
L 414.72 307.584 
L 414.72 41.472 
L 57.6 41.472 
z
" style="fill:#ffffff;"/>
   </g>
   <g id="matplotlib.axis_1">
    <g id="xtick_1">
     <g id="line2d_1">
      <path clip-path="url(#p4d8fc0ba74)" d="M 73.582222 307.584 
L 73.582222 41.472 
" style="fill:none;stroke:#b0b0b0;stroke-linecap:square;stroke-width:0.8;"/>
     </g>
     <g id="line2d_2">
      <defs>
       <path d="M 0 0 
L 0 3.5 
" id="m5cd3990b5a" style="stroke:#000000;stroke-width:0.8;"/>
      </defs>
      <g>
       <use style="stroke:#000000;stroke-width:0.8;" x="73.582222" xlink:href="#m5cd3990b5a" y="307.584"/>
      </g>
     </g>
     <g id="text_1">
      <!-- 0 -->
      <defs>
       <path d="M 31.78125 66.40625 
Q 24.171875 66.40625 20.328125 58.90625 
Q 16.5 51.421875 16.5 36.375 
Q 16.5 21.390625 20.328125 13.890625 
Q 24.171875 6.390625 31.78125 6.390625 
Q 39.453125 6.390625 43.28125 13.890625 
Q 47.125 21.390625 47.125 36.375 
Q 47.125 51.421875 43.28125 58.90625 
Q 39.453125 66.40625 31.78125 66.40625 
z
M 31.78125 74.21875 
Q 44.046875 74.21875 50.515625 64.515625 
Q 56.984375 54.828125 56.984375 36.375 
Q 56.984375 17.96875 50.515625 8.265625 
Q 44.046875 -1.421875 31.78125 -1.421875 
Q 19.53125 -1.421875 13.0625 8.265625 
Q 6.59375 17.96875 6.59375 36.375 
Q 6.59375 54.828125 13.0625 64.515625 
Q 19.53125 74.21875 31.78125 74.21875 
z
" id="DejaVuSans-30"/>
      </defs>
      <g transform="translate(70.400972 322.182437)scale(0.1 -0.1)">
       <use xlink:href="#DejaVuSans-30"/>
      </g>
     </g>
    </g>
    <g id="xtick_2">
     <g id="line2d_3">
      <path clip-path="url(#p4d8fc0ba74)" d="M 123.683232 307.584 
L 123.683232 41.472 
" style="fill:none;stroke:#b0b0b0;stroke-linecap:square;stroke-width:0.8;"/>
     </g>
     <g id="line2d_4">
      <g>
       <use style="stroke:#000000;stroke-width:0.8;" x="123.683232" xlink:href="#m5cd3990b5a" y="307.584"/>
      </g>
     </g>
     <g id="text_2">
      <!-- 200 -->
      <defs>
       <path d="M 19.1875 8.296875 
L 53.609375 8.296875 
L 53.609375 0 
L 7.328125 0 
L 7.328125 8.296875 
Q 12.9375 14.109375 22.625 23.890625 
Q 32.328125 33.6875 34.8125 36.53125 
Q 39.546875 41.84375 41.421875 45.53125 
Q 43.3125 49.21875 43.3125 52.78125 
Q 43.3125 58.59375 39.234375 62.25 
Q 35.15625 65.921875 28.609375 65.921875 
Q 23.96875 65.921875 18.8125 64.3125 
Q 13.671875 62.703125 7.8125 59.421875 
L 7.8125 69.390625 
Q 13.765625 71.78125 18.9375 73 
Q 24.125 74.21875 28.421875 74.21875 
Q 39.75 74.21875 46.484375 68.546875 
Q 53.21875 62.890625 53.21875 53.421875 
Q 53.21875 48.921875 51.53125 44.890625 
Q 49.859375 40.875 45.40625 35.40625 
Q 44.1875 33.984375 37.640625 27.21875 
Q 31.109375 20.453125 19.1875 8.296875 
z
" id="DejaVuSans-32"/>
      </defs>
      <g transform="translate(114.139482 322.182437)scale(0.1 -0.1)">
       <use xlink:href="#DejaVuSans-32"/>
       <use x="63.623047" xlink:href="#DejaVuSans-30"/>
       <use x="127.246094" xlink:href="#DejaVuSans-30"/>
      </g>
     </g>
    </g>
    <g id="xtick_3">
     <g id="line2d_5">
      <path clip-path="url(#p4d8fc0ba74)" d="M 173.784242 307.584 
L 173.784242 41.472 
" style="fill:none;stroke:#b0b0b0;stroke-linecap:square;stroke-width:0.8;"/>
     </g>
     <g id="line2d_6">
      <g>
       <use style="stroke:#000000;stroke-width:0.8;" x="173.784242" xlink:href="#m5cd3990b5a" y="307.584"/>
      </g>
     </g>
     <g id="text_3">
      <!-- 400 -->
      <defs>
       <path d="M 37.796875 64.3125 
L 12.890625 25.390625 
L 37.796875 25.390625 
z
M 35.203125 72.90625 
L 47.609375 72.90625 
L 47.609375 25.390625 
L 58.015625 25.390625 
L 58.015625 17.1875 
L 47.609375 17.1875 
L 47.609375 0 
L 37.796875 0 
L 37.796875 17.1875 
L 4.890625 17.1875 
L 4.890625 26.703125 
z
" id="DejaVuSans-34"/>
      </defs>
      <g transform="translate(164.240492 322.182437)scale(0.1 -0.1)">
       <use xlink:href="#DejaVuSans-34"/>
       <use x="63.623047" xlink:href="#DejaVuSans-30"/>
       <use x="127.246094" xlink:href="#DejaVuSans-30"/>
      </g>
     </g>
    </g>
    <g id="xtick_4">
     <g id="line2d_7">
      <path clip-path="url(#p4d8fc0ba74)" d="M 223.885253 307.584 
L 223.885253 41.472 
" style="fill:none;stroke:#b0b0b0;stroke-linecap:square;stroke-width:0.8;"/>
     </g>
     <g id="line2d_8">
      <g>
       <use style="stroke:#000000;stroke-width:0.8;" x="223.885253" xlink:href="#m5cd3990b5a" y="307.584"/>
      </g>
     </g>
     <g id="text_4">
      <!-- 600 -->
      <defs>
       <path d="M 33.015625 40.375 
Q 26.375 40.375 22.484375 35.828125 
Q 18.609375 31.296875 18.609375 23.390625 
Q 18.609375 15.53125 22.484375 10.953125 
Q 26.375 6.390625 33.015625 6.390625 
Q 39.65625 6.390625 43.53125 10.953125 
Q 47.40625 15.53125 47.40625 23.390625 
Q 47.40625 31.296875 43.53125 35.828125 
Q 39.65625 40.375 33.015625 40.375 
z
M 52.59375 71.296875 
L 52.59375 62.3125 
Q 48.875 64.0625 45.09375 64.984375 
Q 41.3125 65.921875 37.59375 65.921875 
Q 27.828125 65.921875 22.671875 59.328125 
Q 17.53125 52.734375 16.796875 39.40625 
Q 19.671875 43.65625 24.015625 45.921875 
Q 28.375 48.1875 33.59375 48.1875 
Q 44.578125 48.1875 50.953125 41.515625 
Q 57.328125 34.859375 57.328125 23.390625 
Q 57.328125 12.15625 50.6875 5.359375 
Q 44.046875 -1.421875 33.015625 -1.421875 
Q 20.359375 -1.421875 13.671875 8.265625 
Q 6.984375 17.96875 6.984375 36.375 
Q 6.984375 53.65625 15.1875 63.9375 
Q 23.390625 74.21875 37.203125 74.21875 
Q 40.921875 74.21875 44.703125 73.484375 
Q 48.484375 72.75 52.59375 71.296875 
z
" id="DejaVuSans-36"/>
      </defs>
      <g transform="translate(214.341503 322.182437)scale(0.1 -0.1)">
       <use xlink:href="#DejaVuSans-36"/>
       <use x="63.623047" xlink:href="#DejaVuSans-30"/>
       <use x="127.246094" xlink:href="#DejaVuSans-30"/>
      </g>
     </g>
    </g>
    <g id="xtick_5">
     <g id="line2d_9">
      <path clip-path="url(#p4d8fc0ba74)" d="M 273.986263 307.584 
L 273.986263 41.472 
" style="fill:none;stroke:#b0b0b0;stroke-linecap:square;stroke-width:0.8;"/>
     </g>
     <g id="line2d_10">
      <g>
       <use style="stroke:#000000;stroke-width:0.8;" x="273.986263" xlink:href="#m5cd3990b5a" y="307.584"/>
      </g>
     </g>
     <g id="text_5">
      <!-- 800 -->
      <defs>
       <path d="M 31.78125 34.625 
Q 24.75 34.625 20.71875 30.859375 
Q 16.703125 27.09375 16.703125 20.515625 
Q 16.703125 13.921875 20.71875 10.15625 
Q 24.75 6.390625 31.78125 6.390625 
Q 38.8125 6.390625 42.859375 10.171875 
Q 46.921875 13.96875 46.921875 20.515625 
Q 46.921875 27.09375 42.890625 30.859375 
Q 38.875 34.625 31.78125 34.625 
z
M 21.921875 38.8125 
Q 15.578125 40.375 12.03125 44.71875 
Q 8.5 49.078125 8.5 55.328125 
Q 8.5 64.0625 14.71875 69.140625 
Q 20.953125 74.21875 31.78125 74.21875 
Q 42.671875 74.21875 48.875 69.140625 
Q 55.078125 64.0625 55.078125 55.328125 
Q 55.078125 49.078125 51.53125 44.71875 
Q 48 40.375 41.703125 38.8125 
Q 48.828125 37.15625 52.796875 32.3125 
Q 56.78125 27.484375 56.78125 20.515625 
Q 56.78125 9.90625 50.3125 4.234375 
Q 43.84375 -1.421875 31.78125 -1.421875 
Q 19.734375 -1.421875 13.25 4.234375 
Q 6.78125 9.90625 6.78125 20.515625 
Q 6.78125 27.484375 10.78125 32.3125 
Q 14.796875 37.15625 21.921875 38.8125 
z
M 18.3125 54.390625 
Q 18.3125 48.734375 21.84375 45.5625 
Q 25.390625 42.390625 31.78125 42.390625 
Q 38.140625 42.390625 41.71875 45.5625 
Q 45.3125 48.734375 45.3125 54.390625 
Q 45.3125 60.0625 41.71875 63.234375 
Q 38.140625 66.40625 31.78125 66.40625 
Q 25.390625 66.40625 21.84375 63.234375 
Q 18.3125 60.0625 18.3125 54.390625 
z
" id="DejaVuSans-38"/>
      </defs>
      <g transform="translate(264.442513 322.182437)scale(0.1 -0.1)">
       <use xlink:href="#DejaVuSans-38"/>
       <use x="63.623047" xlink:href="#DejaVuSans-30"/>
       <use x="127.246094" xlink:href="#DejaVuSans-30"/>
      </g>
     </g>
    </g>
    <g id="xtick_6">
     <g id="line2d_11">
      <path clip-path="url(#p4d8fc0ba74)" d="M 324.087273 307.584 
L 324.087273 41.472 
" style="fill:none;stroke:#b0b0b0;stroke-linecap:square;stroke-width:0.8;"/>
     </g>
     <g id="line2d_12">
      <g>
       <use style="stroke:#000000;stroke-width:0.8;" x="324.087273" xlink:href="#m5cd3990b5a" y="307.584"/>
      </g>
     </g>
     <g id="text_6">
      <!-- 1000 -->
      <defs>
       <path d="M 12.40625 8.296875 
L 28.515625 8.296875 
L 28.515625 63.921875 
L 10.984375 60.40625 
L 10.984375 69.390625 
L 28.421875 72.90625 
L 38.28125 72.90625 
L 38.28125 8.296875 
L 54.390625 8.296875 
L 54.390625 0 
L 12.40625 0 
z
" id="DejaVuSans-31"/>
      </defs>
      <g transform="translate(311.362273 322.182437)scale(0.1 -0.1)">
       <use xlink:href="#DejaVuSans-31"/>
       <use x="63.623047" xlink:href="#DejaVuSans-30"/>
       <use x="127.246094" xlink:href="#DejaVuSans-30"/>
       <use x="190.869141" xlink:href="#DejaVuSans-30"/>
      </g>
     </g>
    </g>
    <g id="xtick_7">
     <g id="line2d_13">
      <path clip-path="url(#p4d8fc0ba74)" d="M 374.188283 307.584 
L 374.188283 41.472 
" style="fill:none;stroke:#b0b0b0;stroke-linecap:square;stroke-width:0.8;"/>
     </g>
     <g id="line2d_14">
      <g>
       <use style="stroke:#000000;stroke-width:0.8;" x="374.188283" xlink:href="#m5cd3990b5a" y="307.584"/>
      </g>
     </g>
     <g id="text_7">
      <!-- 1200 -->
      <g transform="translate(361.463283 322.182437)scale(0.1 -0.1)">
       <use xlink:href="#DejaVuSans-31"/>
       <use x="63.623047" xlink:href="#DejaVuSans-32"/>
       <use x="127.246094" xlink:href="#DejaVuSans-30"/>
       <use x="190.869141" xlink:href="#DejaVuSans-30"/>
      </g>
     </g>
    </g>
    <g id="text_8">
     <!-- epochs -->
     <defs>
      <path d="M 56.203125 29.59375 
L 56.203125 25.203125 
L 14.890625 25.203125 
Q 15.484375 15.921875 20.484375 11.0625 
Q 25.484375 6.203125 34.421875 6.203125 
Q 39.59375 6.203125 44.453125 7.46875 
Q 49.3125 8.734375 54.109375 11.28125 
L 54.109375 2.78125 
Q 49.265625 0.734375 44.1875 -0.34375 
Q 39.109375 -1.421875 33.890625 -1.421875 
Q 20.796875 -1.421875 13.15625 6.1875 
Q 5.515625 13.8125 5.515625 26.8125 
Q 5.515625 40.234375 12.765625 48.109375 
Q 20.015625 56 32.328125 56 
Q 43.359375 56 49.78125 48.890625 
Q 56.203125 41.796875 56.203125 29.59375 
z
M 47.21875 32.234375 
Q 47.125 39.59375 43.09375 43.984375 
Q 39.0625 48.390625 32.421875 48.390625 
Q 24.90625 48.390625 20.390625 44.140625 
Q 15.875 39.890625 15.1875 32.171875 
z
" id="DejaVuSans-65"/>
      <path d="M 18.109375 8.203125 
L 18.109375 -20.796875 
L 9.078125 -20.796875 
L 9.078125 54.6875 
L 18.109375 54.6875 
L 18.109375 46.390625 
Q 20.953125 51.265625 25.265625 53.625 
Q 29.59375 56 35.59375 56 
Q 45.5625 56 51.78125 48.09375 
Q 58.015625 40.1875 58.015625 27.296875 
Q 58.015625 14.40625 51.78125 6.484375 
Q 45.5625 -1.421875 35.59375 -1.421875 
Q 29.59375 -1.421875 25.265625 0.953125 
Q 20.953125 3.328125 18.109375 8.203125 
z
M 48.6875 27.296875 
Q 48.6875 37.203125 44.609375 42.84375 
Q 40.53125 48.484375 33.40625 48.484375 
Q 26.265625 48.484375 22.1875 42.84375 
Q 18.109375 37.203125 18.109375 27.296875 
Q 18.109375 17.390625 22.1875 11.75 
Q 26.265625 6.109375 33.40625 6.109375 
Q 40.53125 6.109375 44.609375 11.75 
Q 48.6875 17.390625 48.6875 27.296875 
z
" id="DejaVuSans-70"/>
      <path d="M 30.609375 48.390625 
Q 23.390625 48.390625 19.1875 42.75 
Q 14.984375 37.109375 14.984375 27.296875 
Q 14.984375 17.484375 19.15625 11.84375 
Q 23.34375 6.203125 30.609375 6.203125 
Q 37.796875 6.203125 41.984375 11.859375 
Q 46.1875 17.53125 46.1875 27.296875 
Q 46.1875 37.015625 41.984375 42.703125 
Q 37.796875 48.390625 30.609375 48.390625 
z
M 30.609375 56 
Q 42.328125 56 49.015625 48.375 
Q 55.71875 40.765625 55.71875 27.296875 
Q 55.71875 13.875 49.015625 6.21875 
Q 42.328125 -1.421875 30.609375 -1.421875 
Q 18.84375 -1.421875 12.171875 6.21875 
Q 5.515625 13.875 5.515625 27.296875 
Q 5.515625 40.765625 12.171875 48.375 
Q 18.84375 56 30.609375 56 
z
" id="DejaVuSans-6f"/>
      <path d="M 48.78125 52.59375 
L 48.78125 44.1875 
Q 44.96875 46.296875 41.140625 47.34375 
Q 37.3125 48.390625 33.40625 48.390625 
Q 24.65625 48.390625 19.8125 42.84375 
Q 14.984375 37.3125 14.984375 27.296875 
Q 14.984375 17.28125 19.8125 11.734375 
Q 24.65625 6.203125 33.40625 6.203125 
Q 37.3125 6.203125 41.140625 7.25 
Q 44.96875 8.296875 48.78125 10.40625 
L 48.78125 2.09375 
Q 45.015625 0.34375 40.984375 -0.53125 
Q 36.96875 -1.421875 32.421875 -1.421875 
Q 20.0625 -1.421875 12.78125 6.34375 
Q 5.515625 14.109375 5.515625 27.296875 
Q 5.515625 40.671875 12.859375 48.328125 
Q 20.21875 56 33.015625 56 
Q 37.15625 56 41.109375 55.140625 
Q 45.0625 54.296875 48.78125 52.59375 
z
" id="DejaVuSans-63"/>
      <path d="M 54.890625 33.015625 
L 54.890625 0 
L 45.90625 0 
L 45.90625 32.71875 
Q 45.90625 40.484375 42.875 44.328125 
Q 39.84375 48.1875 33.796875 48.1875 
Q 26.515625 48.1875 22.3125 43.546875 
Q 18.109375 38.921875 18.109375 30.90625 
L 18.109375 0 
L 9.078125 0 
L 9.078125 75.984375 
L 18.109375 75.984375 
L 18.109375 46.1875 
Q 21.34375 51.125 25.703125 53.5625 
Q 30.078125 56 35.796875 56 
Q 45.21875 56 50.046875 50.171875 
Q 54.890625 44.34375 54.890625 33.015625 
z
" id="DejaVuSans-68"/>
      <path d="M 44.28125 53.078125 
L 44.28125 44.578125 
Q 40.484375 46.53125 36.375 47.5 
Q 32.28125 48.484375 27.875 48.484375 
Q 21.1875 48.484375 17.84375 46.4375 
Q 14.5 44.390625 14.5 40.28125 
Q 14.5 37.15625 16.890625 35.375 
Q 19.28125 33.59375 26.515625 31.984375 
L 29.59375 31.296875 
Q 39.15625 29.25 43.1875 25.515625 
Q 47.21875 21.78125 47.21875 15.09375 
Q 47.21875 7.46875 41.1875 3.015625 
Q 35.15625 -1.421875 24.609375 -1.421875 
Q 20.21875 -1.421875 15.453125 -0.5625 
Q 10.6875 0.296875 5.421875 2 
L 5.421875 11.28125 
Q 10.40625 8.6875 15.234375 7.390625 
Q 20.0625 6.109375 24.8125 6.109375 
Q 31.15625 6.109375 34.5625 8.28125 
Q 37.984375 10.453125 37.984375 14.40625 
Q 37.984375 18.0625 35.515625 20.015625 
Q 33.0625 21.96875 24.703125 23.78125 
L 21.578125 24.515625 
Q 13.234375 26.265625 9.515625 29.90625 
Q 5.8125 33.546875 5.8125 39.890625 
Q 5.8125 47.609375 11.28125 51.796875 
Q 16.75 56 26.8125 56 
Q 31.78125 56 36.171875 55.265625 
Q 40.578125 54.546875 44.28125 53.078125 
z
" id="DejaVuSans-73"/>
     </defs>
     <g transform="translate(218.327188 335.860562)scale(0.1 -0.1)">
      <use xlink:href="#DejaVuSans-65"/>
      <use x="61.523438" xlink:href="#DejaVuSans-70"/>
      <use x="125" xlink:href="#DejaVuSans-6f"/>
      <use x="186.181641" xlink:href="#DejaVuSans-63"/>
      <use x="241.162109" xlink:href="#DejaVuSans-68"/>
      <use x="304.541016" xlink:href="#DejaVuSans-73"/>
     </g>
    </g>
   </g>
   <g id="matplotlib.axis_2">
    <g id="ytick_1">
     <g id="line2d_15">
      <path clip-path="url(#p4d8fc0ba74)" d="M 57.6 167.990386 
L 414.72 167.990386 
" style="fill:none;stroke:#b0b0b0;stroke-linecap:square;stroke-width:0.8;"/>
     </g>
     <g id="line2d_16">
      <defs>
       <path d="M 0 0 
L -3.5 0 
" id="mc6fb3be7db" style="stroke:#000000;stroke-width:0.8;"/>
      </defs>
      <g>
       <use style="stroke:#000000;stroke-width:0.8;" x="57.6" xlink:href="#mc6fb3be7db" y="167.990386"/>
      </g>
     </g>
     <g id="text_9">
      <!-- $\mathdefault{10^{0}}$ -->
      <g transform="translate(33 171.789604)scale(0.1 -0.1)">
       <use transform="translate(0 0.765625)" xlink:href="#DejaVuSans-31"/>
       <use transform="translate(63.623047 0.765625)" xlink:href="#DejaVuSans-30"/>
       <use transform="translate(128.203125 39.046875)scale(0.7)" xlink:href="#DejaVuSans-30"/>
      </g>
     </g>
    </g>
    <g id="ytick_2">
     <g id="line2d_17">
      <path clip-path="url(#p4d8fc0ba74)" d="M 57.6 300.018231 
L 414.72 300.018231 
" style="fill:none;stroke:#b0b0b0;stroke-linecap:square;stroke-width:0.8;"/>
     </g>
     <g id="line2d_18">
      <defs>
       <path d="M 0 0 
L -2 0 
" id="m12e4c8e930" style="stroke:#000000;stroke-width:0.6;"/>
      </defs>
      <g>
       <use style="stroke:#000000;stroke-width:0.6;" x="57.6" xlink:href="#m12e4c8e930" y="300.018231"/>
      </g>
     </g>
    </g>
    <g id="ytick_3">
     <g id="line2d_19">
      <path clip-path="url(#p4d8fc0ba74)" d="M 57.6 268.47097 
L 414.72 268.47097 
" style="fill:none;stroke:#b0b0b0;stroke-linecap:square;stroke-width:0.8;"/>
     </g>
     <g id="line2d_20">
      <g>
       <use style="stroke:#000000;stroke-width:0.6;" x="57.6" xlink:href="#m12e4c8e930" y="268.47097"/>
      </g>
     </g>
    </g>
    <g id="ytick_4">
     <g id="line2d_21">
      <path clip-path="url(#p4d8fc0ba74)" d="M 57.6 244.001013 
L 414.72 244.001013 
" style="fill:none;stroke:#b0b0b0;stroke-linecap:square;stroke-width:0.8;"/>
     </g>
     <g id="line2d_22">
      <g>
       <use style="stroke:#000000;stroke-width:0.6;" x="57.6" xlink:href="#m12e4c8e930" y="244.001013"/>
      </g>
     </g>
    </g>
    <g id="ytick_5">
     <g id="line2d_23">
      <path clip-path="url(#p4d8fc0ba74)" d="M 57.6 224.007603 
L 414.72 224.007603 
" style="fill:none;stroke:#b0b0b0;stroke-linecap:square;stroke-width:0.8;"/>
     </g>
     <g id="line2d_24">
      <g>
       <use style="stroke:#000000;stroke-width:0.6;" x="57.6" xlink:href="#m12e4c8e930" y="224.007603"/>
      </g>
     </g>
    </g>
    <g id="ytick_6">
     <g id="line2d_25">
      <path clip-path="url(#p4d8fc0ba74)" d="M 57.6 207.103416 
L 414.72 207.103416 
" style="fill:none;stroke:#b0b0b0;stroke-linecap:square;stroke-width:0.8;"/>
     </g>
     <g id="line2d_26">
      <g>
       <use style="stroke:#000000;stroke-width:0.6;" x="57.6" xlink:href="#m12e4c8e930" y="207.103416"/>
      </g>
     </g>
    </g>
    <g id="ytick_7">
     <g id="line2d_27">
      <path clip-path="url(#p4d8fc0ba74)" d="M 57.6 192.460342 
L 414.72 192.460342 
" style="fill:none;stroke:#b0b0b0;stroke-linecap:square;stroke-width:0.8;"/>
     </g>
     <g id="line2d_28">
      <g>
       <use style="stroke:#000000;stroke-width:0.6;" x="57.6" xlink:href="#m12e4c8e930" y="192.460342"/>
      </g>
     </g>
    </g>
    <g id="ytick_8">
     <g id="line2d_29">
      <path clip-path="url(#p4d8fc0ba74)" d="M 57.6 179.544236 
L 414.72 179.544236 
" style="fill:none;stroke:#b0b0b0;stroke-linecap:square;stroke-width:0.8;"/>
     </g>
     <g id="line2d_30">
      <g>
       <use style="stroke:#000000;stroke-width:0.6;" x="57.6" xlink:href="#m12e4c8e930" y="179.544236"/>
      </g>
     </g>
    </g>
    <g id="ytick_9">
     <g id="line2d_31">
      <path clip-path="url(#p4d8fc0ba74)" d="M 57.6 91.979758 
L 414.72 91.979758 
" style="fill:none;stroke:#b0b0b0;stroke-linecap:square;stroke-width:0.8;"/>
     </g>
     <g id="line2d_32">
      <g>
       <use style="stroke:#000000;stroke-width:0.6;" x="57.6" xlink:href="#m12e4c8e930" y="91.979758"/>
      </g>
     </g>
    </g>
    <g id="ytick_10">
     <g id="line2d_33">
      <path clip-path="url(#p4d8fc0ba74)" d="M 57.6 47.516391 
L 414.72 47.516391 
" style="fill:none;stroke:#b0b0b0;stroke-linecap:square;stroke-width:0.8;"/>
     </g>
     <g id="line2d_34">
      <g>
       <use style="stroke:#000000;stroke-width:0.6;" x="57.6" xlink:href="#m12e4c8e930" y="47.516391"/>
      </g>
     </g>
    </g>
    <g id="text_10">
     <!-- loss -->
     <defs>
      <path d="M 9.421875 75.984375 
L 18.40625 75.984375 
L 18.40625 0 
L 9.421875 0 
z
" id="DejaVuSans-6c"/>
     </defs>
     <g transform="translate(26.920313 184.185812)rotate(-90)scale(0.1 -0.1)">
      <use xlink:href="#DejaVuSans-6c"/>
      <use x="27.783203" xlink:href="#DejaVuSans-6f"/>
      <use x="88.964844" xlink:href="#DejaVuSans-73"/>
      <use x="141.064453" xlink:href="#DejaVuSans-73"/>
     </g>
    </g>
   </g>
   <g id="line2d_35">
    <path clip-path="url(#p4d8fc0ba74)" d="M 73.832727 75.468702 
L 74.083232 221.10804 
L 74.333737 237.994406 
L 74.834747 241.277237 
L 75.085253 241.469518 
L 75.335758 242.148601 
L 75.586263 242.136269 
L 76.087273 241.58488 
L 76.337778 242.517422 
L 76.588283 242.188069 
L 76.838788 242.456233 
L 77.089293 242.496043 
L 77.339798 241.955099 
L 77.590303 242.500326 
L 77.840808 241.792331 
L 78.341818 242.397045 
L 78.592323 242.132985 
L 78.842828 242.357501 
L 79.093333 241.885606 
L 79.844848 242.386487 
L 80.095354 242.262962 
L 80.345859 242.365934 
L 80.596364 241.696925 
L 80.846869 242.133902 
L 81.097374 241.545697 
L 81.347879 242.121801 
L 81.598384 241.180792 
L 81.848889 241.891654 
L 82.099394 242.113967 
L 82.349899 241.611988 
L 82.850909 242.465187 
L 83.101414 241.898445 
L 83.351919 241.745255 
L 84.604444 242.386234 
L 84.854949 241.911063 
L 85.105455 242.024642 
L 85.35596 241.960968 
L 85.606465 242.293219 
L 85.85697 242.390045 
L 86.85899 242.270865 
L 87.109495 242.416269 
L 87.610505 241.884831 
L 87.86101 242.24414 
L 88.111515 242.381818 
L 88.36202 242.301238 
L 88.612525 242.448549 
L 88.86303 241.78566 
L 89.113535 242.327761 
L 89.36404 242.017679 
L 89.614545 242.333739 
L 89.865051 242.133346 
L 90.115556 242.25587 
L 90.366061 242.196282 
L 90.616566 241.943687 
L 90.867071 242.176218 
L 91.368081 242.122897 
L 91.618586 241.750644 
L 92.119596 241.771564 
L 92.370101 242.364441 
L 92.620606 242.197113 
L 92.871111 241.177997 
L 93.121616 242.018403 
L 93.372121 242.091876 
L 93.622626 242.342132 
L 93.873131 241.885666 
L 94.374141 242.422665 
L 94.875152 242.349804 
L 95.125657 242.130362 
L 95.376162 241.699436 
L 95.877172 242.533502 
L 96.378182 241.971197 
L 96.628687 242.547271 
L 96.879192 242.350027 
L 97.380202 241.686124 
L 97.630707 241.827831 
L 97.881212 242.408999 
L 98.131717 242.343754 
L 98.382222 241.414148 
L 98.632727 242.195697 
L 98.883232 242.374263 
L 99.634747 242.354535 
L 99.885253 241.884326 
L 100.135758 242.418504 
L 100.386263 242.586683 
L 100.636768 242.182371 
L 100.887273 242.114579 
L 101.137778 242.276227 
L 101.388283 241.86605 
L 101.889293 241.839535 
L 102.139798 242.408036 
L 102.891313 242.311861 
L 103.141818 242.203399 
L 103.392323 242.400457 
L 103.642828 242.224778 
L 104.394343 242.126409 
L 104.644848 242.536794 
L 104.895354 241.309652 
L 105.145859 242.32186 
L 105.396364 242.18506 
L 105.646869 242.304634 
L 105.897374 241.943193 
L 106.398384 242.571583 
L 106.648889 241.305353 
L 106.899394 242.058735 
L 107.149899 242.186289 
L 107.400404 242.123138 
L 108.652929 242.433698 
L 108.903434 242.173217 
L 109.153939 242.267946 
L 109.654949 242.138073 
L 109.905455 242.435119 
L 110.406465 242.47268 
L 110.65697 242.19538 
L 110.907475 242.375703 
L 111.15798 242.160283 
L 111.408485 242.390597 
L 111.65899 242.06128 
L 111.909495 242.216366 
L 112.16 242.133006 
L 112.410505 241.655349 
L 112.66101 242.241348 
L 112.911515 242.104455 
L 113.412525 242.450908 
L 113.66303 242.098402 
L 113.913535 242.116851 
L 114.16404 242.384721 
L 114.665051 241.91044 
L 115.166061 242.550013 
L 115.416566 242.338231 
L 115.667071 242.469067 
L 115.917576 241.906364 
L 116.168081 241.938314 
L 116.418586 242.253781 
L 116.669091 241.709431 
L 117.170101 242.233784 
L 117.420606 242.162563 
L 117.671111 242.435396 
L 118.422626 242.216262 
L 118.673131 242.098186 
L 118.923636 242.462602 
L 119.174141 242.012585 
L 119.675152 242.105147 
L 119.925657 241.912688 
L 120.176162 242.271112 
L 120.426667 242.059537 
L 120.927677 242.349103 
L 121.428687 242.539655 
L 121.679192 242.445707 
L 121.929697 242.510792 
L 122.681212 242.327567 
L 123.182222 242.447693 
L 123.933737 241.974783 
L 124.184242 242.203905 
L 124.434747 242.173706 
L 124.685253 241.915215 
L 124.935758 242.157886 
L 125.186263 241.836177 
L 125.436768 242.597873 
L 125.687273 242.228502 
L 126.939798 242.398775 
L 127.190303 242.687112 
L 127.440808 242.655158 
L 127.691313 241.364431 
L 127.941818 242.121023 
L 128.192323 242.007991 
L 128.442828 242.382872 
L 128.693333 242.399251 
L 128.943838 242.199253 
L 129.194343 242.561634 
L 129.444848 242.125698 
L 129.695354 242.076822 
L 129.945859 242.548137 
L 130.196364 242.240771 
L 130.446869 242.277564 
L 130.697374 242.080839 
L 130.947879 242.216525 
L 131.198384 242.072722 
L 131.448889 242.478236 
L 131.699394 242.355813 
L 131.949899 241.986051 
L 132.450909 242.371313 
L 132.701414 241.957463 
L 132.951919 242.223258 
L 133.202424 241.819041 
L 133.703434 242.489928 
L 133.953939 242.308918 
L 134.204444 241.650246 
L 134.454949 242.343645 
L 134.705455 242.400707 
L 135.206465 241.518366 
L 135.707475 242.444622 
L 135.95798 242.349713 
L 136.208485 242.580672 
L 136.709495 242.233615 
L 136.96 242.325884 
L 137.210505 242.213625 
L 138.96404 242.388629 
L 139.214545 241.753694 
L 139.465051 242.070061 
L 139.715556 242.182138 
L 139.966061 242.419993 
L 140.216566 241.807439 
L 140.467071 242.180533 
L 140.717576 242.139476 
L 140.968081 242.213922 
L 141.218586 242.41405 
L 141.719596 242.339305 
L 142.220606 242.281922 
L 142.471111 242.558683 
L 142.721616 242.304631 
L 142.972121 242.312142 
L 143.222626 241.983909 
L 143.473131 241.929677 
L 143.723636 242.333379 
L 143.974141 242.462646 
L 144.224646 242.352363 
L 144.475152 242.000495 
L 144.725657 242.529149 
L 144.976162 241.887135 
L 145.727677 242.49258 
L 145.978182 242.614248 
L 146.228687 242.261622 
L 146.479192 242.163107 
L 146.729697 242.297206 
L 146.980202 242.067023 
L 147.230707 241.625833 
L 147.481212 241.978221 
L 147.731717 242.037475 
L 147.982222 242.379092 
L 148.232727 242.281868 
L 148.483232 242.440664 
L 148.984242 242.274897 
L 149.485253 242.352526 
L 149.735758 242.440753 
L 149.986263 242.027302 
L 150.236768 242.427163 
L 150.487273 241.282227 
L 150.737778 241.207862 
L 150.988283 242.363127 
L 151.990303 242.31286 
L 152.240808 242.200673 
L 152.491313 242.548714 
L 152.741818 242.207501 
L 152.992323 242.238391 
L 153.242828 242.438654 
L 153.493333 241.992143 
L 153.743838 242.357612 
L 153.994343 242.463256 
L 154.244848 242.298285 
L 154.495354 242.552655 
L 154.745859 242.429418 
L 154.996364 242.460593 
L 155.246869 242.347236 
L 155.497374 241.951067 
L 155.998384 242.374657 
L 156.499394 242.111645 
L 156.749899 242.545231 
L 157.501414 242.313748 
L 158.002424 242.273926 
L 158.503434 242.526647 
L 159.254949 242.249857 
L 159.505455 242.486173 
L 159.75596 242.525856 
L 160.006465 242.22484 
L 160.25697 242.380907 
L 160.507475 242.299338 
L 160.75798 242.400807 
L 161.008485 242.259018 
L 161.25899 242.580211 
L 161.509495 242.291358 
L 161.76 242.258978 
L 162.010505 242.4097 
L 162.511515 242.350626 
L 162.76202 242.472141 
L 163.012525 242.418658 
L 163.26303 242.061218 
L 163.513535 242.110672 
L 163.76404 242.501179 
L 164.014545 242.256189 
L 164.515556 242.552621 
L 164.766061 242.346392 
L 165.016566 242.632587 
L 165.267071 242.431576 
L 165.517576 242.575215 
L 165.768081 242.26198 
L 166.269091 242.203293 
L 166.519596 242.20944 
L 166.770101 242.074382 
L 167.020606 242.64131 
L 167.271111 241.91084 
L 167.772121 242.490593 
L 168.022626 242.227331 
L 168.273131 242.650671 
L 168.774141 242.21731 
L 169.024646 242.204804 
L 169.525657 242.600902 
L 170.527677 242.593573 
L 170.778182 242.275461 
L 171.529697 242.528516 
L 171.780202 242.217457 
L 172.030707 242.556981 
L 172.281212 242.126788 
L 172.531717 242.459797 
L 172.782222 242.602213 
L 173.283232 242.169711 
L 173.533737 242.538314 
L 173.784242 242.374755 
L 174.786263 242.503033 
L 175.287273 242.221234 
L 175.537778 242.288122 
L 175.788283 241.949269 
L 176.289293 241.879633 
L 176.790303 242.337284 
L 177.040808 242.174502 
L 177.541818 242.399872 
L 177.792323 242.089277 
L 178.042828 242.534131 
L 178.293333 242.277771 
L 179.044848 242.192149 
L 179.295354 242.391088 
L 179.796364 242.130147 
L 180.297374 242.388584 
L 180.547879 242.266182 
L 181.299394 242.525647 
L 181.549899 242.637153 
L 181.800404 242.341282 
L 182.301414 242.438886 
L 182.551919 242.151581 
L 182.802424 242.497018 
L 183.052929 242.437073 
L 183.303434 242.562143 
L 184.305455 242.515831 
L 184.55596 241.89031 
L 184.806465 242.559442 
L 185.05697 242.62656 
L 185.307475 242.432163 
L 185.55798 242.080052 
L 185.808485 242.140677 
L 186.05899 242.397921 
L 186.56 242.481017 
L 186.810505 242.215007 
L 187.06101 242.552352 
L 187.311515 242.441371 
L 187.56202 242.501 
L 187.812525 242.425225 
L 188.06303 242.589034 
L 188.313535 242.306998 
L 188.56404 242.209704 
L 188.814545 242.611855 
L 189.065051 242.59716 
L 189.315556 242.377098 
L 189.566061 242.516086 
L 189.816566 242.261625 
L 190.067071 242.522004 
L 190.317576 242.533188 
L 190.568081 242.34384 
L 190.818586 242.548568 
L 191.319596 242.33401 
L 191.570101 242.506815 
L 192.071111 242.416494 
L 192.321616 242.303828 
L 193.323636 242.545803 
L 193.574141 242.257151 
L 193.824646 242.451875 
L 194.075152 242.235393 
L 194.325657 242.514841 
L 194.576162 242.313758 
L 194.826667 242.276725 
L 195.077172 242.488776 
L 195.327677 242.270609 
L 195.828687 242.562229 
L 196.580202 242.378379 
L 197.081212 242.431785 
L 197.331717 242.397694 
L 197.832727 241.973526 
L 198.083232 242.519895 
L 198.333737 242.34225 
L 198.584242 242.489467 
L 198.834747 242.378581 
L 199.085253 241.937395 
L 199.335758 242.40914 
L 199.586263 242.505423 
L 199.836768 242.266833 
L 200.087273 242.44993 
L 200.337778 242.169191 
L 200.588283 242.359229 
L 201.089293 242.391432 
L 201.339798 242.54315 
L 201.590303 242.467236 
L 201.840808 242.526798 
L 202.091313 242.459152 
L 202.341818 242.58432 
L 202.592323 242.537331 
L 202.842828 242.361411 
L 203.093333 242.561134 
L 203.343838 242.534918 
L 203.844848 242.130402 
L 204.095354 242.661158 
L 204.345859 242.405968 
L 204.596364 242.465125 
L 204.846869 242.389392 
L 205.097374 242.432159 
L 205.347879 242.265885 
L 205.598384 242.593242 
L 205.848889 242.584233 
L 206.099394 242.341897 
L 206.349899 242.57674 
L 206.600404 242.478784 
L 206.850909 242.601376 
L 207.602424 242.368615 
L 207.852929 242.664143 
L 208.103434 242.198541 
L 208.353939 242.148822 
L 208.854949 242.505267 
L 209.35596 242.480991 
L 209.606465 242.528454 
L 210.107475 242.109075 
L 210.35798 242.634638 
L 210.608485 242.532053 
L 211.109495 241.976825 
L 211.36 242.686235 
L 211.610505 242.481336 
L 211.86101 242.672336 
L 212.36202 242.52458 
L 212.612525 242.367191 
L 212.86303 242.633603 
L 213.36404 242.173394 
L 213.614545 242.226632 
L 213.865051 242.656597 
L 214.115556 242.485868 
L 214.616566 242.586725 
L 214.867071 242.148467 
L 215.117576 242.203996 
L 215.618586 242.530324 
L 216.119596 242.413343 
L 216.620606 242.089691 
L 216.871111 242.468399 
L 217.121616 242.375586 
L 217.372121 242.654798 
L 217.622626 242.643241 
L 217.873131 242.168073 
L 218.374141 242.697038 
L 218.624646 242.556019 
L 218.875152 242.035445 
L 219.626667 242.614383 
L 220.628687 242.015296 
L 220.879192 242.522392 
L 221.129697 242.279621 
L 221.380202 242.438457 
L 221.630707 242.447086 
L 221.881212 242.318597 
L 222.131717 242.548787 
L 222.382222 242.111136 
L 222.632727 242.551629 
L 222.883232 242.394557 
L 223.133737 242.600278 
L 223.384242 242.203326 
L 223.634747 242.357485 
L 223.885253 241.966354 
L 224.135758 242.397964 
L 224.636768 242.322949 
L 224.887273 242.495169 
L 225.137778 242.322443 
L 225.388283 242.382948 
L 225.638788 242.622546 
L 225.889293 242.433156 
L 226.891313 242.551973 
L 227.392323 242.535136 
L 227.642828 242.238027 
L 227.893333 242.701173 
L 228.394343 242.598528 
L 228.644848 242.340833 
L 228.895354 242.423087 
L 229.396364 242.204096 
L 229.646869 242.121014 
L 229.897374 242.621895 
L 230.147879 242.192685 
L 230.398384 242.617805 
L 230.899394 242.470791 
L 231.650909 242.364928 
L 231.901414 242.090232 
L 232.151919 242.384919 
L 232.652929 242.390183 
L 232.903434 242.501936 
L 233.153939 242.36191 
L 233.404444 242.598333 
L 233.654949 242.405553 
L 234.15596 242.644799 
L 234.406465 242.439428 
L 234.907475 242.469121 
L 235.15798 242.22637 
L 235.65899 242.63299 
L 236.16 241.966463 
L 236.410505 242.291709 
L 236.66101 242.253164 
L 236.911515 242.531724 
L 237.16202 242.245528 
L 237.412525 242.533463 
L 237.66303 242.415017 
L 238.915556 242.437147 
L 239.166061 242.671787 
L 239.416566 242.554788 
L 239.667071 242.569663 
L 239.917576 242.161922 
L 240.168081 242.219441 
L 240.669091 242.584497 
L 240.919596 242.635752 
L 241.170101 242.3611 
L 241.420606 242.420533 
L 241.671111 242.276 
L 241.921616 242.543058 
L 242.422626 242.58544 
L 242.923636 242.670813 
L 243.174141 242.436039 
L 243.424646 242.449982 
L 243.675152 241.935972 
L 243.925657 242.555633 
L 244.677172 242.573588 
L 244.927677 242.480384 
L 245.178182 242.734112 
L 245.428687 242.47393 
L 245.679192 242.682224 
L 245.929697 242.352549 
L 246.180202 242.609153 
L 246.430707 242.670717 
L 246.681212 242.484239 
L 246.931717 242.595208 
L 247.432727 242.499057 
L 247.683232 242.671576 
L 247.933737 242.395436 
L 248.434747 242.496363 
L 248.685253 242.303165 
L 249.687273 242.551065 
L 250.188283 242.52296 
L 250.438788 242.479092 
L 250.939798 242.58937 
L 251.440808 242.492144 
L 251.691313 242.195545 
L 251.941818 242.642472 
L 252.442828 242.663537 
L 252.693333 242.543951 
L 252.943838 241.880609 
L 253.194343 242.556509 
L 253.444848 242.645576 
L 253.695354 242.446592 
L 253.945859 242.510544 
L 254.196364 242.142482 
L 254.697374 242.577105 
L 255.198384 242.482648 
L 255.448889 242.564885 
L 255.699394 242.148792 
L 256.200404 242.585228 
L 256.701414 242.57152 
L 257.202424 242.547204 
L 257.452929 242.694023 
L 257.703434 242.536825 
L 257.953939 242.589603 
L 258.204444 242.41248 
L 258.705455 242.586774 
L 258.95596 242.47165 
L 259.45697 242.521978 
L 259.707475 242.655576 
L 259.95798 242.487387 
L 260.208485 242.683179 
L 260.709495 242.447748 
L 261.210505 242.725721 
L 261.711515 242.648475 
L 261.96202 242.329157 
L 262.46303 242.523445 
L 262.713535 242.426295 
L 262.96404 242.574142 
L 263.214545 242.40901 
L 263.465051 242.44054 
L 263.715556 242.293584 
L 263.966061 242.391818 
L 264.216566 242.681183 
L 264.467071 242.428384 
L 264.717576 242.603064 
L 264.968081 242.248311 
L 265.218586 242.562347 
L 265.469091 242.550908 
L 265.970101 242.695524 
L 266.220606 242.525692 
L 266.471111 242.609795 
L 266.721616 242.397782 
L 266.972121 241.987014 
L 267.473131 242.524385 
L 268.224646 242.533634 
L 268.475152 242.715362 
L 268.725657 242.438847 
L 268.976162 242.57669 
L 269.477172 242.557308 
L 269.727677 241.758949 
L 269.978182 242.600204 
L 270.479192 242.534948 
L 270.729697 241.778373 
L 270.980202 242.547063 
L 271.230707 242.376884 
L 271.481212 242.699227 
L 271.731717 242.692321 
L 272.232727 242.267077 
L 272.483232 242.711086 
L 272.733737 242.518357 
L 272.984242 242.709304 
L 273.234747 242.667878 
L 273.485253 242.456227 
L 273.735758 242.527457 
L 274.236768 242.404476 
L 274.487273 242.468335 
L 274.737778 242.366554 
L 274.988283 242.676185 
L 275.489293 242.433539 
L 275.990303 242.392953 
L 276.491313 242.569221 
L 276.741818 242.302983 
L 276.992323 242.612343 
L 277.242828 242.425438 
L 277.743838 242.501079 
L 277.994343 242.589188 
L 278.244848 242.447439 
L 278.495354 242.6341 
L 278.745859 242.517585 
L 278.996364 242.619498 
L 279.246869 242.394171 
L 279.497374 242.621777 
L 279.747879 242.632935 
L 279.998384 242.509847 
L 280.749899 242.54585 
L 281.000404 242.438401 
L 281.250909 242.167514 
L 281.751919 242.57273 
L 282.002424 242.439252 
L 282.252929 242.50436 
L 282.503434 242.372336 
L 283.004444 242.67858 
L 283.254949 242.262785 
L 283.505455 242.09436 
L 283.75596 242.10036 
L 284.006465 242.527036 
L 284.25697 242.518346 
L 284.507475 242.266072 
L 284.75798 242.622342 
L 285.008485 242.398619 
L 285.76 242.448882 
L 286.511515 242.492163 
L 286.76202 242.468579 
L 287.012525 242.556714 
L 287.26303 242.466323 
L 287.513535 242.650496 
L 287.76404 242.628136 
L 288.014545 242.731498 
L 288.265051 242.20917 
L 288.766061 242.485642 
L 289.016566 242.385005 
L 289.267071 242.660562 
L 289.517576 242.494454 
L 290.018586 242.567342 
L 290.519596 242.661886 
L 290.770101 242.520049 
L 291.521616 242.521687 
L 292.022626 242.711954 
L 293.024646 242.288788 
L 293.776162 242.626501 
L 294.527677 242.452787 
L 294.778182 242.612384 
L 295.028687 242.486414 
L 295.529697 242.741757 
L 295.780202 242.402357 
L 296.030707 242.526948 
L 296.531717 242.130405 
L 296.782222 242.72418 
L 297.283232 242.482377 
L 297.533737 242.646758 
L 298.535758 242.66697 
L 299.036768 242.341553 
L 299.287273 242.634596 
L 299.788283 242.651643 
L 300.038788 242.308346 
L 300.289293 242.410032 
L 300.539798 241.87662 
L 300.790303 242.569978 
L 301.040808 242.723715 
L 301.291313 242.472722 
L 301.541818 242.598109 
L 301.792323 242.533098 
L 302.293333 242.266556 
L 302.543838 242.702975 
L 302.794343 242.551913 
L 303.796364 242.728862 
L 304.046869 242.419124 
L 304.798384 242.629469 
L 305.048889 242.21003 
L 305.299394 242.518869 
L 305.549899 242.623337 
L 306.050909 242.358805 
L 306.551919 242.644961 
L 307.052929 242.583323 
L 307.553939 242.637823 
L 308.305455 242.543468 
L 308.806465 242.32144 
L 309.307475 242.577981 
L 309.55798 242.44387 
L 309.808485 242.623225 
L 310.05899 242.625411 
L 310.309495 242.355343 
L 310.56 242.293319 
L 310.810505 242.62918 
L 311.06101 242.549683 
L 311.311515 242.605506 
L 311.56202 242.476504 
L 312.313535 242.54529 
L 312.814545 242.365874 
L 313.315556 242.550564 
L 315.069091 242.571122 
L 315.319596 242.701075 
L 315.570101 242.273207 
L 315.820606 242.231605 
L 316.071111 242.625022 
L 316.822626 242.486402 
L 317.073131 242.428194 
L 317.574141 242.534622 
L 317.824646 242.420605 
L 318.075152 242.664411 
L 318.826667 242.417495 
L 319.327677 242.64534 
L 319.578182 242.301124 
L 319.828687 242.473058 
L 320.079192 242.132934 
L 320.329697 242.286087 
L 320.580202 242.596969 
L 321.081212 242.596306 
L 321.582222 242.440817 
L 321.832727 242.573663 
L 322.083232 242.4434 
L 322.333737 242.631162 
L 322.834747 242.680489 
L 323.085253 242.458054 
L 323.836768 242.693028 
L 324.087273 242.665562 
L 324.337778 242.473273 
L 324.838788 242.661027 
L 325.089293 242.484273 
L 325.840808 242.598808 
L 326.842828 242.27617 
L 327.093333 242.597799 
L 327.343838 242.695076 
L 327.594343 242.369518 
L 327.844848 242.562758 
L 328.095354 242.299863 
L 328.345859 242.690308 
L 328.596364 242.428873 
L 328.846869 242.400597 
L 329.097374 242.732588 
L 329.347879 242.482658 
L 329.598384 242.648408 
L 329.848889 242.475238 
L 330.850909 242.690511 
L 331.101414 242.581284 
L 331.351919 242.779217 
L 332.103434 242.581373 
L 332.353939 242.264469 
L 332.604444 242.520792 
L 333.105455 242.611679 
L 333.35596 242.42449 
L 334.35798 242.589086 
L 334.608485 242.500978 
L 334.85899 242.586125 
L 335.109495 242.171444 
L 335.36 242.31149 
L 335.610505 242.757387 
L 336.36202 242.165286 
L 336.86303 242.573075 
L 337.614545 242.526732 
L 337.865051 242.690574 
L 338.366061 242.501234 
L 338.616566 242.644847 
L 339.368081 242.717428 
L 339.618586 242.518253 
L 339.869091 242.668684 
L 340.119596 242.45854 
L 340.370101 242.520147 
L 340.871111 242.454053 
L 341.121616 242.503116 
L 341.372121 242.364444 
L 341.622626 242.591316 
L 341.873131 242.49638 
L 342.123636 242.138914 
L 342.374141 242.609609 
L 342.875152 242.456919 
L 343.125657 242.370648 
L 343.376162 242.697419 
L 343.626667 242.5033 
L 343.877172 242.606169 
L 344.127677 242.35304 
L 344.628687 242.602232 
L 344.879192 242.395245 
L 345.380202 242.613018 
L 345.630707 242.402849 
L 345.881212 242.607274 
L 346.131717 242.311682 
L 346.382222 242.382587 
L 346.632727 242.643514 
L 346.883232 242.434445 
L 347.133737 242.734824 
L 347.634747 242.415202 
L 347.885253 242.59536 
L 348.135758 242.381955 
L 348.386263 242.598723 
L 348.636768 242.590967 
L 348.887273 242.405171 
L 349.137778 242.407121 
L 349.388283 242.626309 
L 349.889293 242.446814 
L 350.139798 242.179055 
L 350.640808 242.670392 
L 350.891313 242.39997 
L 351.141818 242.562255 
L 351.392323 242.507241 
L 351.642828 242.260475 
L 351.893333 242.664091 
L 352.644848 242.682185 
L 352.895354 242.498702 
L 353.145859 242.609204 
L 353.396364 242.25628 
L 353.897374 242.72666 
L 354.147879 242.711295 
L 354.398384 242.394898 
L 354.648889 242.645169 
L 354.899394 242.404969 
L 355.149899 242.488634 
L 355.400404 242.418433 
L 355.650909 242.632111 
L 355.901414 242.387236 
L 356.652929 242.645281 
L 357.153939 242.585989 
L 357.404444 242.735634 
L 357.654949 242.590602 
L 358.15596 242.742215 
L 358.65697 242.325948 
L 358.907475 242.626399 
L 359.15798 242.579195 
L 359.408485 242.645444 
L 359.65899 242.442565 
L 360.16 242.751103 
L 360.410505 242.454965 
L 360.66101 242.657584 
L 360.911515 242.403701 
L 361.16202 242.668333 
L 361.66303 242.598403 
L 361.913535 242.209772 
L 362.16404 242.45577 
L 362.414545 242.369026 
L 362.665051 242.611368 
L 362.915556 242.552916 
L 363.166061 242.754044 
L 363.416566 242.423594 
L 363.667071 242.333421 
L 363.917576 242.66073 
L 364.168081 242.540208 
L 364.418586 242.693292 
L 364.919596 242.259679 
L 365.170101 242.582593 
L 365.420606 242.484632 
L 365.671111 242.614416 
L 365.921616 242.44259 
L 366.422626 242.620581 
L 366.673131 242.30914 
L 366.923636 242.572399 
L 367.424646 242.657246 
L 367.675152 242.129866 
L 367.925657 242.439876 
L 368.176162 242.474423 
L 368.426667 242.273288 
L 369.178182 242.630237 
L 369.428687 242.668487 
L 369.929697 242.389706 
L 370.180202 242.540802 
L 370.430707 242.513228 
L 370.681212 242.697689 
L 370.931717 242.502524 
L 371.432727 242.48687 
L 371.683232 242.714031 
L 372.184242 242.533318 
L 372.935758 242.590661 
L 373.186263 242.429689 
L 373.436768 242.592688 
L 373.937778 242.486884 
L 374.188283 242.205138 
L 374.438788 242.360923 
L 374.689293 242.274625 
L 374.939798 242.429636 
L 375.440808 242.402804 
L 375.941818 242.688292 
L 376.192323 242.620128 
L 376.442828 242.687992 
L 376.693333 242.545488 
L 376.943838 242.677033 
L 377.444848 242.43034 
L 377.695354 242.705389 
L 378.196364 242.614326 
L 378.697374 242.522723 
L 378.947879 242.289436 
L 379.198384 242.70549 
L 379.448889 242.533585 
L 379.949899 242.491383 
L 380.200404 242.711599 
L 380.450909 242.564656 
L 380.701414 242.652997 
L 380.951919 242.362613 
L 381.202424 242.535543 
L 381.953939 242.673973 
L 382.204444 242.436312 
L 382.95596 242.670669 
L 383.206465 242.383062 
L 383.707475 242.728037 
L 383.95798 242.553967 
L 384.208485 242.625522 
L 385.210505 242.346711 
L 385.46101 242.570224 
L 385.711515 242.613397 
L 386.212525 242.31419 
L 386.713535 242.618773 
L 386.96404 242.362323 
L 387.214545 242.362224 
L 387.715556 242.74309 
L 387.966061 242.588748 
L 389.218586 242.533712 
L 389.469091 242.527466 
L 389.719596 242.403211 
L 389.970101 242.524452 
L 390.220606 242.462002 
L 390.471111 242.614747 
L 390.721616 242.539333 
L 391.473131 242.675289 
L 392.224646 242.586735 
L 392.224646 242.586735 
" style="fill:none;stroke:#1f77b4;stroke-linecap:square;stroke-width:1.5;"/>
   </g>
   <g id="line2d_36">
    <path clip-path="url(#p4d8fc0ba74)" d="M 73.832727 126.160016 
L 74.083232 205.756147 
L 74.333737 212.405402 
L 75.085253 219.887708 
L 75.836768 225.255962 
L 76.588283 229.242598 
L 77.339798 232.226536 
L 78.091313 234.494267 
L 78.842828 236.242744 
L 79.844848 237.972178 
L 80.846869 239.21739 
L 82.099394 240.299726 
L 83.602424 241.154124 
L 85.105455 241.707783 
L 88.111515 242.279644 
L 89.614545 242.44395 
L 100.135758 242.713518 
L 164.515556 242.740482 
L 172.782222 242.746284 
L 177.040808 242.735137 
L 181.048889 242.744679 
L 221.380202 242.74824 
L 225.889293 242.745597 
L 231.650909 242.744563 
L 326.842828 242.751885 
L 328.846869 242.755724 
L 334.35798 242.765629 
L 335.610505 242.768066 
L 340.119596 242.758379 
L 345.881212 242.760605 
L 351.642828 242.751938 
L 353.897374 242.764534 
L 361.913535 242.750449 
L 364.168081 242.761756 
L 369.178182 242.770969 
L 379.448889 242.762003 
L 388.216566 242.767392 
L 398.487273 242.771803 
L 398.487273 242.771803 
" style="fill:none;stroke:#ff7f0e;stroke-linecap:square;stroke-width:1.5;"/>
   </g>
   <g id="line2d_37">
    <path clip-path="url(#p4d8fc0ba74)" d="M 73.832727 61.745502 
L 74.584242 128.462723 
L 75.085253 158.548823 
L 75.586263 178.714794 
L 76.087273 191.458663 
L 76.588283 199.250194 
L 77.089293 203.983137 
L 77.590303 206.914398 
L 78.091313 208.819477 
L 78.842828 210.667737 
L 79.844848 212.293738 
L 81.097374 213.841985 
L 83.101414 215.964363 
L 85.85697 218.553585 
L 88.86303 221.051929 
L 91.869091 223.260624 
L 94.875152 225.217626 
L 98.632727 227.355043 
L 102.390303 229.203724 
L 106.398384 230.904531 
L 110.907475 232.53861 
L 115.667071 233.997461 
L 121.178182 235.406606 
L 127.190303 236.665426 
L 133.202424 237.692431 
L 139.966061 238.631839 
L 149.735758 239.671786 
L 159.254949 240.421493 
L 171.279192 241.103336 
L 184.305455 241.611596 
L 210.35798 242.197618 
L 251.440808 242.564475 
L 326.341818 242.716442 
L 370.931717 242.732252 
L 389.218586 242.736325 
L 389.218586 242.736325 
" style="fill:none;stroke:#2ca02c;stroke-linecap:square;stroke-width:1.5;"/>
   </g>
   <g id="line2d_38">
    <path clip-path="url(#p4d8fc0ba74)" d="M 73.832727 180.44762 
L 74.083232 242.260009 
L 74.333737 242.252726 
L 74.584242 242.157686 
L 74.834747 242.42775 
L 75.085253 242.275574 
L 75.335758 242.534713 
L 75.586263 242.595894 
L 75.836768 242.254625 
L 76.087273 242.536563 
L 76.337778 242.585941 
L 76.588283 242.729959 
L 76.838788 242.5869 
L 77.089293 242.762907 
L 77.339798 242.817138 
L 77.590303 243.191132 
L 77.840808 243.279281 
L 78.091313 243.482939 
L 78.341818 243.563532 
L 78.592323 243.928424 
L 78.842828 243.70243 
L 79.093333 244.283463 
L 79.343838 244.731792 
L 79.594343 245.1403 
L 79.844848 245.166684 
L 80.095354 245.709926 
L 80.345859 246.524512 
L 80.596364 246.77629 
L 80.846869 247.29511 
L 81.097374 247.75508 
L 81.347879 248.109457 
L 81.598384 248.505822 
L 81.848889 249.115604 
L 82.099394 249.403936 
L 82.349899 249.456454 
L 82.600404 249.786691 
L 82.850909 250.390868 
L 83.101414 251.090771 
L 83.351919 251.42956 
L 83.602424 251.753769 
L 83.852929 252.358309 
L 84.103434 253.12853 
L 84.353939 253.697891 
L 84.604444 254.527822 
L 84.854949 254.705136 
L 85.105455 255.198689 
L 85.35596 255.454782 
L 85.606465 256.259241 
L 85.85697 257.018266 
L 86.107475 257.596365 
L 86.35798 258.114569 
L 86.608485 258.765978 
L 86.85899 259.083197 
L 87.109495 259.963882 
L 87.36 260.376236 
L 87.610505 261.160677 
L 87.86101 262.419958 
L 88.111515 262.923487 
L 88.36202 264.06967 
L 88.612525 264.432593 
L 88.86303 265.137002 
L 89.113535 265.836246 
L 89.36404 266.447003 
L 89.614545 267.40015 
L 89.865051 267.934301 
L 90.115556 268.594157 
L 90.366061 269.437614 
" style="fill:none;stroke:#d62728;stroke-dasharray:5.55,2.4;stroke-dashoffset:0;stroke-width:1.5;"/>
   </g>
   <g id="line2d_39">
    <path clip-path="url(#p4d8fc0ba74)" d="M 73.832727 180.44762 
L 74.083232 242.260009 
L 74.333737 242.252726 
L 74.584242 242.157686 
L 74.834747 242.42775 
L 75.085253 242.275574 
L 75.335758 242.534713 
L 75.586263 242.595894 
L 75.836768 242.254625 
L 76.087273 242.536563 
L 76.337778 242.585941 
L 76.588283 242.729959 
L 76.838788 242.5869 
L 77.089293 242.762907 
L 77.339798 242.817138 
L 77.590303 243.191132 
L 77.840808 243.279281 
L 78.091313 243.482939 
L 78.341818 243.563532 
L 78.592323 243.928424 
L 78.842828 243.70243 
L 79.093333 244.283463 
L 79.343838 244.731792 
L 79.594343 245.1403 
L 79.844848 245.166684 
L 80.095354 245.709926 
L 80.345859 246.524512 
L 80.596364 246.77629 
L 80.846869 247.29511 
L 81.097374 247.75508 
L 81.347879 248.109457 
L 81.598384 248.505822 
L 81.848889 249.115604 
L 82.099394 249.403936 
L 82.349899 249.456454 
L 82.600404 249.786691 
L 82.850909 250.390868 
L 83.101414 251.090795 
L 83.351919 251.430357 
L 83.602424 251.753263 
L 83.852929 252.357496 
L 84.103434 253.13141 
L 84.353939 253.696596 
L 84.604444 254.526786 
L 84.854949 254.703961 
L 85.105455 255.201698 
L 85.35596 255.44363 
L 85.606465 256.191193 
L 85.85697 256.73802 
L 86.107475 257.480149 
L 86.35798 257.973581 
L 86.608485 258.668084 
L 86.85899 259.004252 
L 87.109495 259.556525 
L 87.36 260.294372 
L 87.610505 260.750655 
L 87.86101 261.904234 
L 88.111515 262.462941 
L 88.36202 263.667102 
L 88.612525 264.016275 
L 88.86303 264.833139 
L 89.113535 265.755445 
L 89.36404 266.794001 
L 89.614545 267.496649 
L 89.865051 267.920713 
L 90.115556 268.725057 
L 90.366061 269.771459 
L 90.616566 269.645521 
L 90.867071 270.346429 
L 91.117576 271.066199 
L 91.368081 272.132779 
L 91.618586 272.515122 
L 91.869091 273.376586 
L 92.119596 273.805696 
L 92.370101 274.729234 
L 92.620606 275.059681 
L 92.871111 275.515601 
L 93.121616 276.26896 
L 93.372121 276.595892 
L 93.622626 277.125368 
" style="fill:none;stroke:#9467bd;stroke-dasharray:5.55,2.4;stroke-dashoffset:0;stroke-width:1.5;"/>
   </g>
   <g id="line2d_40">
    <path clip-path="url(#p4d8fc0ba74)" d="M 73.832727 180.44762 
L 74.083232 242.260009 
L 74.333737 242.252726 
L 74.584242 242.157686 
L 74.834747 242.42775 
L 75.085253 242.275574 
L 75.335758 242.534713 
L 75.586263 242.595894 
L 75.836768 242.254625 
L 76.087273 242.536563 
L 76.337778 242.585941 
L 76.588283 242.729959 
L 76.838788 242.5869 
L 77.089293 242.762907 
L 77.339798 242.817138 
L 77.590303 243.191132 
L 77.840808 243.279281 
L 78.091313 243.482939 
L 78.341818 243.563532 
L 78.592323 243.928424 
L 78.842828 243.70243 
L 79.093333 244.283463 
L 79.343838 244.731792 
L 79.594343 245.1403 
L 79.844848 245.166684 
L 80.095354 245.709926 
L 80.345859 246.524512 
L 80.596364 246.776229 
L 80.846869 247.294747 
L 81.097374 247.759969 
L 81.347879 248.101267 
L 81.598384 248.490544 
L 81.848889 249.10497 
L 82.099394 249.402405 
L 82.349899 249.370688 
L 82.600404 249.915084 
L 82.850909 250.317685 
L 83.101414 251.179915 
L 83.351919 251.411991 
L 83.602424 251.829904 
L 83.852929 252.213222 
L 84.103434 253.151137 
L 84.353939 253.592486 
L 84.604444 254.083998 
L 84.854949 254.781209 
L 85.105455 255.197534 
L 85.35596 255.749301 
L 85.606465 256.279857 
L 85.85697 256.875301 
L 86.107475 257.334685 
L 86.35798 257.821353 
L 86.608485 258.091451 
L 86.85899 258.120264 
L 87.109495 258.946501 
L 87.36 259.555113 
L 87.610505 259.785539 
L 87.86101 260.648174 
L 88.111515 261.085073 
L 88.36202 262.20625 
L 88.612525 262.488975 
L 88.86303 263.156168 
L 89.113535 263.50076 
L 89.36404 263.776762 
L 89.614545 264.5693 
L 89.865051 264.956859 
L 90.115556 265.256264 
L 90.366061 265.666589 
L 90.616566 266.167561 
L 90.867071 266.310043 
L 91.117576 266.91518 
L 91.368081 266.916254 
L 91.618586 267.540018 
L 91.869091 267.352529 
L 92.119596 267.539774 
L 92.370101 268.183535 
L 92.620606 268.246313 
L 92.871111 267.963974 
L 93.121616 268.808602 
L 93.372121 268.943864 
L 93.622626 269.525497 
L 93.873131 269.537957 
L 94.123636 270.0658 
L 94.374141 270.148871 
L 94.624646 270.601683 
L 94.875152 271.037061 
L 95.125657 271.410471 
L 95.376162 271.382637 
L 95.626667 272.015199 
L 95.877172 272.594018 
L 96.127677 273.185923 
L 96.378182 273.586104 
L 96.628687 273.692039 
L 96.879192 274.011077 
L 97.129697 273.930976 
L 97.380202 274.106258 
L 97.630707 274.376253 
L 97.881212 274.623992 
L 98.131717 275.021067 
L 98.382222 274.980929 
L 98.632727 275.264084 
L 98.883232 275.666966 
" style="fill:none;stroke:#8c564b;stroke-dasharray:5.55,2.4;stroke-dashoffset:0;stroke-width:1.5;"/>
   </g>
   <g id="line2d_41">
    <path clip-path="url(#p4d8fc0ba74)" d="M 73.832727 180.44762 
L 74.083232 242.260009 
L 74.584242 242.157686 
L 74.834747 242.42775 
L 75.085253 242.275574 
L 75.335758 242.562642 
L 75.586263 242.597008 
L 75.836768 242.203061 
L 76.087273 242.485553 
L 76.337778 242.49273 
L 76.588283 242.929508 
L 76.838788 242.747931 
L 77.339798 242.852819 
L 77.590303 243.187386 
L 78.341818 243.541149 
L 78.592323 243.920926 
L 78.842828 243.669594 
L 79.343838 244.887071 
L 80.095354 245.616299 
L 80.596364 247.148832 
L 80.846869 247.572445 
L 81.598384 248.036972 
L 82.099394 249.132319 
L 82.349899 248.918784 
L 82.850909 249.799618 
L 83.101414 250.097482 
L 83.351919 249.807973 
L 83.602424 250.459795 
L 83.852929 250.56922 
L 84.103434 250.958792 
L 84.353939 251.124342 
L 84.604444 251.10835 
L 85.105455 251.811138 
L 85.35596 251.935035 
L 85.606465 252.288006 
L 85.85697 252.219523 
L 86.107475 252.442698 
L 86.35798 252.941993 
L 86.608485 253.073165 
L 86.85899 253.334144 
L 87.109495 253.3577 
L 87.610505 254.10279 
L 87.86101 254.453706 
L 88.111515 254.500569 
L 88.36202 254.964015 
L 89.113535 255.522194 
L 89.36404 255.496748 
L 89.614545 255.926754 
L 89.865051 255.652286 
L 90.366061 256.095169 
L 90.616566 256.380743 
L 90.867071 256.438775 
L 91.368081 256.818313 
L 91.618586 256.908304 
L 91.869091 257.343214 
L 92.620606 257.872703 
L 92.871111 257.241494 
L 93.121616 257.946454 
L 93.372121 257.826203 
L 94.123636 258.323543 
L 94.374141 258.228046 
L 94.624646 258.283655 
L 94.875152 258.605501 
L 95.125657 258.60635 
L 95.376162 258.890799 
L 95.877172 259.056869 
L 96.127677 259.039019 
L 96.378182 259.198529 
L 96.628687 259.142798 
L 96.879192 259.342401 
L 97.129697 259.326738 
L 97.380202 259.572742 
L 97.630707 259.524104 
L 97.881212 259.764824 
L 98.632727 259.84328 
L 99.133737 260.146693 
L 99.384242 260.395975 
L 99.634747 260.285539 
L 100.386263 260.57953 
L 100.887273 260.778467 
L 101.137778 260.990678 
L 101.388283 260.815377 
L 101.638788 260.801406 
L 101.889293 261.146205 
L 102.640808 261.457286 
L 103.392323 261.611628 
L 104.143838 261.652491 
L 104.644848 261.990253 
L 104.895354 261.805301 
L 105.396364 262.022066 
L 105.646869 262.011647 
L 105.897374 262.135331 
L 106.147879 262.125382 
L 106.398384 262.295754 
L 106.648889 262.285326 
L 106.899394 262.479204 
L 107.149899 262.342972 
L 108.652929 262.589544 
L 109.153939 262.832233 
L 109.404444 262.702599 
L 109.905455 263.091535 
L 110.65697 263.17674 
L 110.907475 263.254932 
L 111.15798 263.196285 
L 111.15798 263.196285 
" style="fill:none;stroke:#e377c2;stroke-dasharray:5.55,2.4;stroke-dashoffset:0;stroke-width:1.5;"/>
   </g>
   <g id="line2d_42">
    <path clip-path="url(#p4d8fc0ba74)" d="M 73.832727 180.44762 
L 74.083232 242.446225 
L 74.333737 242.407578 
L 74.584242 241.904938 
L 74.834747 242.408735 
L 75.085253 242.231914 
L 75.586263 242.550604 
L 75.836768 242.20236 
L 76.087273 242.436591 
L 76.337778 242.179712 
L 76.588283 242.330664 
L 76.838788 242.162843 
L 77.089293 242.172937 
L 77.339798 242.436115 
L 78.091313 242.61629 
L 78.341818 242.853441 
L 78.842828 242.69663 
L 79.844848 242.953497 
L 80.095354 243.355548 
L 80.846869 243.418726 
L 81.347879 243.803321 
L 81.598384 243.271838 
L 81.848889 243.957211 
L 82.349899 244.030705 
L 82.850909 244.478791 
L 83.351919 244.640613 
L 83.602424 244.990644 
L 83.852929 244.952185 
L 84.103434 245.114733 
L 84.353939 245.117195 
L 84.604444 245.422949 
L 84.854949 245.337165 
L 85.105455 245.577775 
L 85.35596 245.584744 
L 85.606465 245.825577 
L 85.85697 245.908717 
L 86.35798 246.298834 
L 86.85899 246.121855 
L 87.109495 246.397498 
L 87.610505 246.583673 
L 87.86101 246.856911 
L 88.111515 246.710391 
L 88.36202 247.069075 
L 88.612525 246.923827 
L 88.86303 247.381343 
L 89.36404 247.4634 
L 89.614545 247.757519 
L 91.368081 248.449214 
L 92.119596 248.560673 
L 92.620606 248.932094 
L 92.871111 248.733218 
L 93.121616 249.018134 
L 93.372121 248.902557 
L 93.873131 249.247975 
L 94.123636 249.323527 
L 94.374141 249.215894 
L 95.376162 249.429055 
L 95.626667 249.383199 
L 96.127677 249.57533 
L 96.378182 249.475815 
L 96.879192 249.608777 
L 97.129697 249.412768 
L 97.380202 249.669997 
L 98.632727 249.743454 
L 98.883232 249.950486 
L 99.384242 250.000153 
L 99.885253 250.014912 
L 100.636768 250.044211 
L 100.887273 249.970095 
L 101.638788 250.111789 
L 102.139798 250.160501 
L 102.891313 250.289496 
L 104.644848 250.40066 
L 104.895354 250.281697 
L 105.145859 250.569906 
L 105.646869 250.563736 
L 106.398384 250.75882 
L 106.899394 250.698249 
L 107.149899 250.788815 
L 107.400404 250.732064 
L 107.901414 250.955677 
L 108.652929 250.892091 
L 108.903434 251.027175 
L 109.153939 250.950585 
L 109.654949 251.201243 
L 111.65899 251.232626 
L 111.909495 251.336625 
L 112.410505 251.308756 
L 112.66101 251.393848 
L 112.911515 251.321415 
L 113.412525 251.354513 
L 113.913535 251.447648 
L 114.16404 251.476529 
L 114.414545 251.334847 
L 114.915556 251.493859 
L 115.917576 251.545176 
L 116.168081 251.401229 
L 116.669091 251.547382 
L 116.919596 251.635278 
L 117.170101 251.600863 
L 117.671111 251.687604 
L 118.172121 251.742737 
L 120.927677 251.856702 
L 121.178182 252.117062 
L 121.428687 251.986068 
L 123.182222 252.07455 
L 123.432727 252.151303 
L 123.933737 252.017854 
L 124.184242 252.155689 
L 124.685253 252.047213 
L 124.935758 252.203886 
L 125.186263 252.071427 
L 125.436768 252.308947 
L 125.937778 252.205874 
L 126.188283 252.363652 
L 126.689293 252.348592 
L 126.939798 252.498423 
L 127.190303 252.41755 
L 127.440808 252.476072 
L 127.941818 252.274443 
L 128.192323 252.428884 
L 132.450909 252.758086 
L 132.701414 252.680092 
L 132.951919 252.803356 
L 133.452929 252.891382 
L 133.703434 252.976881 
L 134.204444 252.816898 
L 134.454949 253.081604 
L 134.95596 253.081166 
L 135.206465 252.727231 
L 135.707475 253.09061 
L 136.208485 253.20772 
L 136.709495 253.059519 
L 137.210505 253.32635 
L 137.46101 253.07836 
L 137.711515 253.245668 
L 137.96202 253.260268 
L 138.46303 253.429403 
L 139.715556 253.405314 
L 139.966061 253.546155 
L 140.717576 253.400843 
L 141.218586 253.547409 
L 141.719596 253.487809 
L 141.719596 253.487809 
" style="fill:none;stroke:#7f7f7f;stroke-dasharray:5.55,2.4;stroke-dashoffset:0;stroke-width:1.5;"/>
   </g>
   <g id="line2d_43">
    <path clip-path="url(#p4d8fc0ba74)" d="M 73.832727 180.44762 
L 74.083232 242.574655 
L 74.333737 242.590273 
L 74.584242 242.325115 
L 74.834747 242.62166 
L 75.085253 242.439239 
L 75.335758 242.578343 
L 75.586263 242.555904 
L 75.836768 242.279535 
L 76.087273 242.573558 
L 76.337778 242.324294 
L 76.838788 242.45798 
L 77.089293 242.462854 
L 77.339798 242.239591 
L 77.590303 242.558549 
L 77.840808 242.441829 
L 78.592323 242.50592 
L 78.842828 242.371679 
L 79.093333 242.441071 
L 79.343838 242.288194 
L 80.095354 242.509172 
L 80.596364 242.351108 
L 80.846869 242.55107 
L 81.598384 242.331695 
L 81.848889 242.563364 
L 82.099394 242.50355 
L 82.349899 242.157193 
L 82.850909 242.565487 
L 83.101414 242.561475 
L 83.351919 242.440284 
L 83.602424 242.456455 
L 83.852929 242.590404 
L 84.103434 242.453158 
L 84.353939 242.667619 
L 85.35596 242.826048 
L 85.606465 242.773937 
L 86.107475 243.051481 
L 87.109495 243.119412 
L 87.36 243.18358 
L 87.610505 243.114257 
L 87.86101 243.317369 
L 88.111515 243.221823 
L 88.36202 243.597631 
L 88.612525 243.348656 
L 88.86303 243.351666 
L 89.113535 243.716176 
L 89.36404 243.700847 
L 89.614545 243.957709 
L 90.115556 244.047222 
L 90.366061 243.862755 
L 91.368081 244.151752 
L 91.618586 243.994093 
L 91.869091 244.075671 
L 92.119596 244.015934 
L 92.370101 244.345044 
L 92.620606 244.455111 
L 92.871111 244.202945 
L 93.121616 244.545834 
L 94.123636 244.935148 
L 94.374141 244.747974 
L 94.875152 245.026186 
L 95.125657 244.887706 
L 95.376162 244.892224 
L 95.626667 245.073147 
L 97.881212 245.406979 
L 98.131717 245.512041 
L 98.382222 245.330245 
L 99.133737 245.597572 
L 100.386263 245.74642 
L 100.887273 245.66165 
L 102.139798 245.777132 
L 102.891313 245.826832 
L 103.141818 245.775528 
L 103.893333 245.958164 
L 104.644848 246.004668 
L 104.895354 245.916997 
L 105.145859 246.082579 
L 105.396364 246.011229 
L 105.646869 246.068106 
L 105.897374 245.954593 
L 106.147879 246.082696 
L 106.648889 246.025499 
L 106.899394 246.165207 
L 109.153939 246.188998 
L 110.406465 246.305345 
L 111.15798 246.278544 
L 111.65899 246.341563 
L 111.909495 246.355531 
L 112.16 246.220536 
L 112.66101 246.35488 
L 113.412525 246.456558 
L 113.913535 246.385953 
L 114.414545 246.438597 
L 114.665051 246.421269 
L 114.915556 246.521546 
L 115.416566 246.525572 
L 117.170101 246.60765 
L 117.671111 246.691143 
L 119.675152 246.65451 
L 120.176162 246.743333 
L 120.426667 246.417997 
L 120.677172 246.695161 
L 123.683232 246.942066 
L 123.933737 246.813502 
L 124.184242 247.005841 
L 124.685253 246.889303 
L 124.935758 247.023948 
L 125.186263 246.932394 
L 125.436768 247.113193 
L 125.937778 247.063884 
L 126.939798 247.214609 
L 127.440808 247.196263 
L 127.691313 247.099241 
L 128.192323 247.190977 
L 128.693333 247.322427 
L 128.943838 247.233298 
L 129.194343 247.3856 
L 129.695354 247.303684 
L 129.945859 247.471517 
L 130.947879 247.434121 
L 134.95596 247.763235 
L 135.206465 247.59516 
L 135.707475 247.894816 
L 135.95798 247.834889 
L 136.45899 247.912567 
L 136.709495 247.800282 
L 137.210505 247.986702 
L 137.96202 248.013083 
L 138.96404 248.070677 
L 139.214545 247.982404 
L 139.715556 248.086741 
L 139.966061 248.167057 
L 140.467071 248.077537 
L 140.968081 248.222727 
L 142.220606 248.324751 
L 142.471111 248.394492 
L 142.972121 248.319861 
L 143.473131 248.290309 
L 143.974141 248.410433 
L 144.224646 248.423308 
L 144.475152 248.306229 
L 144.725657 248.481209 
L 144.976162 248.357165 
L 145.978182 248.524397 
L 146.729697 248.471137 
L 147.230707 248.380279 
L 147.481212 248.511714 
L 147.731717 248.503587 
L 147.982222 248.629013 
L 148.984242 248.513309 
L 149.234747 248.628405 
L 149.986263 248.487788 
L 150.236768 248.667149 
L 150.487273 248.492905 
L 150.737778 248.471056 
L 150.988283 248.695785 
L 151.489293 248.554036 
L 151.739798 248.76393 
L 152.240808 248.659504 
L 152.491313 248.71675 
L 152.741818 248.625285 
L 152.992323 248.764801 
L 153.743838 248.700059 
L 153.994343 248.789727 
L 154.495354 248.751341 
L 158.252929 248.868763 
L 158.753939 248.956325 
L 159.254949 248.883687 
L 159.505455 249.033593 
L 159.75596 248.854965 
L 160.006465 248.974919 
L 161.509495 248.976854 
L 162.010505 249.070434 
L 162.511515 249.056425 
L 163.012525 249.037588 
L 163.513535 249.020315 
L 163.76404 249.150798 
L 164.265051 249.064194 
L 164.766061 249.18685 
L 165.267071 249.168376 
L 167.020606 249.277835 
L 167.271111 249.084625 
L 167.772121 249.278854 
L 168.022626 249.137895 
L 168.273131 249.278255 
L 169.024646 249.257552 
L 169.275152 249.277556 
L 169.275152 249.277556 
" style="fill:none;stroke:#bcbd22;stroke-dasharray:5.55,2.4;stroke-dashoffset:0;stroke-width:1.5;"/>
   </g>
   <g id="line2d_44">
    <path clip-path="url(#p4d8fc0ba74)" d="M 73.832727 180.44762 
L 74.083232 242.584697 
L 74.333737 242.662029 
L 74.584242 242.622076 
L 74.834747 242.792768 
L 75.085253 242.604976 
L 75.335758 242.774327 
L 75.836768 242.668017 
L 76.588283 242.669862 
L 76.838788 242.589296 
L 77.089293 242.727086 
L 77.339798 242.507316 
L 77.590303 242.763534 
L 77.840808 242.667713 
L 78.592323 242.68849 
L 79.844848 242.638405 
L 80.345859 242.596235 
L 80.596364 242.554468 
L 81.347879 242.703524 
L 81.598384 242.578686 
L 81.848889 242.752636 
L 82.099394 242.762967 
L 82.349899 242.558278 
L 82.850909 242.723622 
L 83.602424 242.56814 
L 83.852929 242.749579 
L 85.606465 242.675227 
L 85.85697 242.757037 
L 86.107475 242.68385 
L 86.35798 242.739764 
L 86.85899 242.556801 
L 87.109495 242.664115 
L 87.36 242.591965 
L 87.86101 242.652302 
L 88.111515 242.589716 
L 88.36202 242.773432 
L 89.113535 242.635812 
L 89.36404 242.628285 
L 89.865051 242.749405 
L 90.366061 242.527255 
L 90.867071 242.637934 
L 91.368081 242.594397 
L 91.618586 242.654333 
L 92.119596 242.512001 
L 92.370101 242.747796 
L 92.620606 242.755547 
L 92.871111 242.400684 
L 93.121616 242.745934 
L 94.624646 242.667976 
L 94.875152 242.788914 
L 95.125657 242.563207 
L 95.376162 242.654436 
L 95.877172 242.647555 
L 96.127677 242.647964 
L 96.628687 242.513922 
L 96.879192 242.723482 
L 97.129697 242.600312 
L 97.630707 242.674722 
L 98.632727 242.605883 
L 98.883232 242.760386 
L 99.634747 242.642743 
L 100.386263 242.777422 
L 100.636768 242.653184 
L 101.137778 242.720497 
L 101.388283 242.69091 
L 101.638788 242.546126 
L 101.889293 242.564352 
L 102.139798 242.697336 
L 104.644848 242.765521 
L 104.895354 242.573397 
L 105.646869 242.771364 
L 105.897374 242.641529 
L 106.398384 242.712465 
L 106.648889 242.531427 
L 106.899394 242.721341 
L 107.400404 242.673796 
L 107.650909 242.82549 
L 107.901414 242.684093 
L 108.402424 242.752996 
L 108.652929 242.59236 
L 108.903434 242.765481 
L 109.404444 242.623659 
L 109.654949 242.798433 
L 109.905455 242.671363 
L 110.406465 242.766887 
L 110.65697 242.618048 
L 111.65899 242.770334 
L 112.16 242.580065 
L 112.66101 242.764094 
L 113.16202 242.695194 
L 113.66303 242.75413 
L 113.913535 242.674146 
L 114.16404 242.818356 
L 114.665051 242.703036 
L 114.915556 242.843018 
L 115.166061 242.679812 
L 115.667071 242.834157 
L 116.168081 242.601614 
L 116.418586 242.67693 
L 116.669091 242.615187 
L 116.919596 242.715667 
L 117.170101 242.667087 
L 117.420606 242.84082 
L 117.671111 242.735521 
L 117.921616 242.846901 
L 118.673131 242.741094 
L 118.923636 242.824982 
L 119.174141 242.604068 
L 119.424646 242.798897 
L 119.675152 242.662192 
L 119.925657 242.791341 
L 120.426667 242.689111 
L 120.677172 242.84751 
L 120.927677 242.73865 
L 121.178182 242.88244 
L 121.929697 242.835491 
L 123.182222 242.818494 
L 123.432727 242.727867 
L 124.184242 242.903732 
L 124.685253 242.633902 
L 124.935758 242.814258 
L 125.186263 242.722547 
L 125.436768 242.865287 
L 131.198384 242.816689 
L 131.699394 243.001897 
L 132.450909 242.925762 
L 132.701414 242.792024 
L 132.951919 242.947587 
L 134.204444 242.913594 
L 134.454949 243.021919 
L 134.95596 242.945682 
L 135.206465 242.637508 
L 136.208485 242.971553 
L 136.709495 242.849309 
L 137.210505 242.901018 
L 137.46101 242.696905 
L 137.711515 242.966218 
L 137.96202 242.824639 
L 138.96404 243.010525 
L 139.214545 242.778581 
L 139.715556 242.943833 
L 139.966061 243.071022 
L 140.467071 242.901914 
L 140.717576 243.031427 
L 142.220606 243.071369 
L 142.471111 242.91459 
L 142.972121 243.058378 
L 143.473131 242.795462 
L 143.723636 243.051129 
L 144.224646 243.075282 
L 144.475152 242.910127 
L 144.725657 243.053409 
L 146.479192 242.983674 
L 146.980202 243.06297 
L 147.230707 242.923019 
L 147.481212 243.072273 
L 147.731717 242.956957 
L 148.483232 243.162699 
L 148.984242 242.988522 
L 149.234747 243.059006 
L 149.485253 242.980767 
L 149.735758 243.165841 
L 149.986263 243.029862 
L 150.236768 243.171117 
L 150.487273 242.990045 
L 150.737778 242.946271 
L 150.988283 243.113797 
L 151.990303 242.996459 
L 152.491313 243.17975 
L 152.741818 243.027413 
L 152.992323 243.158784 
L 153.242828 243.031425 
L 155.497374 243.139566 
L 155.747879 243.039446 
L 155.998384 243.244813 
L 156.499394 243.143959 
L 157.250909 243.184938 
L 157.501414 242.987669 
L 157.751919 243.115261 
L 158.002424 242.951475 
L 158.503434 243.245628 
L 159.75596 243.192916 
L 160.25697 243.168105 
L 160.507475 243.247982 
L 161.509495 243.125223 
L 161.76 243.249358 
L 162.010505 243.145209 
L 163.012525 243.276075 
L 163.513535 243.109434 
L 163.76404 243.300495 
L 164.265051 243.283228 
L 166.770101 243.151419 
L 167.020606 243.412375 
L 167.271111 243.218292 
L 168.022626 243.327205 
L 168.774141 243.224479 
L 169.024646 243.381474 
L 170.277172 243.333397 
L 171.028687 243.366714 
L 171.529697 243.383424 
L 171.780202 243.261103 
L 172.030707 243.411967 
L 172.281212 243.326365 
L 172.782222 243.35133 
L 173.283232 243.334868 
L 173.784242 243.357753 
L 174.285253 243.186413 
L 175.287273 243.363789 
L 176.038788 243.242189 
L 176.790303 243.425121 
L 177.291313 243.334717 
L 177.541818 243.422544 
L 177.792323 243.27325 
L 178.293333 243.424407 
L 178.543838 243.234828 
L 181.048889 243.442717 
L 181.048889 243.442717 
" style="fill:none;stroke:#17becf;stroke-dasharray:5.55,2.4;stroke-dashoffset:0;stroke-width:1.5;"/>
   </g>
   <g id="patch_3">
    <path d="M 57.6 307.584 
L 57.6 41.472 
" style="fill:none;stroke:#000000;stroke-linecap:square;stroke-linejoin:miter;stroke-width:0.8;"/>
   </g>
   <g id="patch_4">
    <path d="M 414.72 307.584 
L 414.72 41.472 
" style="fill:none;stroke:#000000;stroke-linecap:square;stroke-linejoin:miter;stroke-width:0.8;"/>
   </g>
   <g id="patch_5">
    <path d="M 57.6 307.584 
L 414.72 307.584 
" style="fill:none;stroke:#000000;stroke-linecap:square;stroke-linejoin:miter;stroke-width:0.8;"/>
   </g>
   <g id="patch_6">
    <path d="M 57.6 41.472 
L 414.72 41.472 
" style="fill:none;stroke:#000000;stroke-linecap:square;stroke-linejoin:miter;stroke-width:0.8;"/>
   </g>
   <g id="legend_1">
    <g id="patch_7">
     <path d="M 182.2475 196.25325 
L 290.0725 196.25325 
Q 292.0725 196.25325 292.0725 194.25325 
L 292.0725 48.472 
Q 292.0725 46.472 290.0725 46.472 
L 182.2475 46.472 
Q 180.2475 46.472 180.2475 48.472 
L 180.2475 194.25325 
Q 180.2475 196.25325 182.2475 196.25325 
z
" style="fill:#ffffff;opacity:0.8;stroke:#cccccc;stroke-linejoin:miter;"/>
    </g>
    <g id="line2d_45">
     <path d="M 184.2475 54.570437 
L 204.2475 54.570437 
" style="fill:none;stroke:#1f77b4;stroke-linecap:square;stroke-width:1.5;"/>
    </g>
    <g id="line2d_46"/>
    <g id="text_11">
     <!-- SGD, lr 0.1 -->
     <defs>
      <path d="M 53.515625 70.515625 
L 53.515625 60.890625 
Q 47.90625 63.578125 42.921875 64.890625 
Q 37.9375 66.21875 33.296875 66.21875 
Q 25.25 66.21875 20.875 63.09375 
Q 16.5 59.96875 16.5 54.203125 
Q 16.5 49.359375 19.40625 46.890625 
Q 22.3125 44.4375 30.421875 42.921875 
L 36.375 41.703125 
Q 47.40625 39.59375 52.65625 34.296875 
Q 57.90625 29 57.90625 20.125 
Q 57.90625 9.515625 50.796875 4.046875 
Q 43.703125 -1.421875 29.984375 -1.421875 
Q 24.8125 -1.421875 18.96875 -0.25 
Q 13.140625 0.921875 6.890625 3.21875 
L 6.890625 13.375 
Q 12.890625 10.015625 18.65625 8.296875 
Q 24.421875 6.59375 29.984375 6.59375 
Q 38.421875 6.59375 43.015625 9.90625 
Q 47.609375 13.234375 47.609375 19.390625 
Q 47.609375 24.75 44.3125 27.78125 
Q 41.015625 30.8125 33.5 32.328125 
L 27.484375 33.5 
Q 16.453125 35.6875 11.515625 40.375 
Q 6.59375 45.0625 6.59375 53.421875 
Q 6.59375 63.09375 13.40625 68.65625 
Q 20.21875 74.21875 32.171875 74.21875 
Q 37.3125 74.21875 42.625 73.28125 
Q 47.953125 72.359375 53.515625 70.515625 
z
" id="DejaVuSans-53"/>
      <path d="M 59.515625 10.40625 
L 59.515625 29.984375 
L 43.40625 29.984375 
L 43.40625 38.09375 
L 69.28125 38.09375 
L 69.28125 6.78125 
Q 63.578125 2.734375 56.6875 0.65625 
Q 49.8125 -1.421875 42 -1.421875 
Q 24.90625 -1.421875 15.25 8.5625 
Q 5.609375 18.5625 5.609375 36.375 
Q 5.609375 54.25 15.25 64.234375 
Q 24.90625 74.21875 42 74.21875 
Q 49.125 74.21875 55.546875 72.453125 
Q 61.96875 70.703125 67.390625 67.28125 
L 67.390625 56.78125 
Q 61.921875 61.421875 55.765625 63.765625 
Q 49.609375 66.109375 42.828125 66.109375 
Q 29.4375 66.109375 22.71875 58.640625 
Q 16.015625 51.171875 16.015625 36.375 
Q 16.015625 21.625 22.71875 14.15625 
Q 29.4375 6.6875 42.828125 6.6875 
Q 48.046875 6.6875 52.140625 7.59375 
Q 56.25 8.5 59.515625 10.40625 
z
" id="DejaVuSans-47"/>
      <path d="M 19.671875 64.796875 
L 19.671875 8.109375 
L 31.59375 8.109375 
Q 46.6875 8.109375 53.6875 14.9375 
Q 60.6875 21.78125 60.6875 36.53125 
Q 60.6875 51.171875 53.6875 57.984375 
Q 46.6875 64.796875 31.59375 64.796875 
z
M 9.8125 72.90625 
L 30.078125 72.90625 
Q 51.265625 72.90625 61.171875 64.09375 
Q 71.09375 55.28125 71.09375 36.53125 
Q 71.09375 17.671875 61.125 8.828125 
Q 51.171875 0 30.078125 0 
L 9.8125 0 
z
" id="DejaVuSans-44"/>
      <path d="M 11.71875 12.40625 
L 22.015625 12.40625 
L 22.015625 4 
L 14.015625 -11.625 
L 7.71875 -11.625 
L 11.71875 4 
z
" id="DejaVuSans-2c"/>
      <path id="DejaVuSans-20"/>
      <path d="M 41.109375 46.296875 
Q 39.59375 47.171875 37.8125 47.578125 
Q 36.03125 48 33.890625 48 
Q 26.265625 48 22.1875 43.046875 
Q 18.109375 38.09375 18.109375 28.8125 
L 18.109375 0 
L 9.078125 0 
L 9.078125 54.6875 
L 18.109375 54.6875 
L 18.109375 46.1875 
Q 20.953125 51.171875 25.484375 53.578125 
Q 30.03125 56 36.53125 56 
Q 37.453125 56 38.578125 55.875 
Q 39.703125 55.765625 41.0625 55.515625 
z
" id="DejaVuSans-72"/>
      <path d="M 10.6875 12.40625 
L 21 12.40625 
L 21 0 
L 10.6875 0 
z
" id="DejaVuSans-2e"/>
     </defs>
     <g transform="translate(212.2475 58.070437)scale(0.1 -0.1)">
      <use xlink:href="#DejaVuSans-53"/>
      <use x="63.476562" xlink:href="#DejaVuSans-47"/>
      <use x="140.966797" xlink:href="#DejaVuSans-44"/>
      <use x="217.96875" xlink:href="#DejaVuSans-2c"/>
      <use x="249.755859" xlink:href="#DejaVuSans-20"/>
      <use x="281.542969" xlink:href="#DejaVuSans-6c"/>
      <use x="309.326172" xlink:href="#DejaVuSans-72"/>
      <use x="350.439453" xlink:href="#DejaVuSans-20"/>
      <use x="382.226562" xlink:href="#DejaVuSans-30"/>
      <use x="445.849609" xlink:href="#DejaVuSans-2e"/>
      <use x="477.636719" xlink:href="#DejaVuSans-31"/>
     </g>
    </g>
    <g id="line2d_47">
     <path d="M 184.2475 69.248562 
L 204.2475 69.248562 
" style="fill:none;stroke:#ff7f0e;stroke-linecap:square;stroke-width:1.5;"/>
    </g>
    <g id="line2d_48"/>
    <g id="text_12">
     <!-- SGD, lr 0.01 -->
     <g transform="translate(212.2475 72.748562)scale(0.1 -0.1)">
      <use xlink:href="#DejaVuSans-53"/>
      <use x="63.476562" xlink:href="#DejaVuSans-47"/>
      <use x="140.966797" xlink:href="#DejaVuSans-44"/>
      <use x="217.96875" xlink:href="#DejaVuSans-2c"/>
      <use x="249.755859" xlink:href="#DejaVuSans-20"/>
      <use x="281.542969" xlink:href="#DejaVuSans-6c"/>
      <use x="309.326172" xlink:href="#DejaVuSans-72"/>
      <use x="350.439453" xlink:href="#DejaVuSans-20"/>
      <use x="382.226562" xlink:href="#DejaVuSans-30"/>
      <use x="445.849609" xlink:href="#DejaVuSans-2e"/>
      <use x="477.636719" xlink:href="#DejaVuSans-30"/>
      <use x="541.259766" xlink:href="#DejaVuSans-31"/>
     </g>
    </g>
    <g id="line2d_49">
     <path d="M 184.2475 83.926688 
L 204.2475 83.926688 
" style="fill:none;stroke:#2ca02c;stroke-linecap:square;stroke-width:1.5;"/>
    </g>
    <g id="line2d_50"/>
    <g id="text_13">
     <!-- SGD, lr 0.001 -->
     <g transform="translate(212.2475 87.426688)scale(0.1 -0.1)">
      <use xlink:href="#DejaVuSans-53"/>
      <use x="63.476562" xlink:href="#DejaVuSans-47"/>
      <use x="140.966797" xlink:href="#DejaVuSans-44"/>
      <use x="217.96875" xlink:href="#DejaVuSans-2c"/>
      <use x="249.755859" xlink:href="#DejaVuSans-20"/>
      <use x="281.542969" xlink:href="#DejaVuSans-6c"/>
      <use x="309.326172" xlink:href="#DejaVuSans-72"/>
      <use x="350.439453" xlink:href="#DejaVuSans-20"/>
      <use x="382.226562" xlink:href="#DejaVuSans-30"/>
      <use x="445.849609" xlink:href="#DejaVuSans-2e"/>
      <use x="477.636719" xlink:href="#DejaVuSans-30"/>
      <use x="541.259766" xlink:href="#DejaVuSans-30"/>
      <use x="604.882812" xlink:href="#DejaVuSans-31"/>
     </g>
    </g>
    <g id="line2d_51">
     <path d="M 184.2475 98.604812 
L 204.2475 98.604812 
" style="fill:none;stroke:#d62728;stroke-dasharray:5.55,2.4;stroke-dashoffset:0;stroke-width:1.5;"/>
    </g>
    <g id="line2d_52"/>
    <g id="text_14">
     <!-- SGN, cg iter 40 -->
     <defs>
      <path d="M 9.8125 72.90625 
L 23.09375 72.90625 
L 55.421875 11.921875 
L 55.421875 72.90625 
L 64.984375 72.90625 
L 64.984375 0 
L 51.703125 0 
L 19.390625 60.984375 
L 19.390625 0 
L 9.8125 0 
z
" id="DejaVuSans-4e"/>
      <path d="M 45.40625 27.984375 
Q 45.40625 37.75 41.375 43.109375 
Q 37.359375 48.484375 30.078125 48.484375 
Q 22.859375 48.484375 18.828125 43.109375 
Q 14.796875 37.75 14.796875 27.984375 
Q 14.796875 18.265625 18.828125 12.890625 
Q 22.859375 7.515625 30.078125 7.515625 
Q 37.359375 7.515625 41.375 12.890625 
Q 45.40625 18.265625 45.40625 27.984375 
z
M 54.390625 6.78125 
Q 54.390625 -7.171875 48.1875 -13.984375 
Q 42 -20.796875 29.203125 -20.796875 
Q 24.46875 -20.796875 20.265625 -20.09375 
Q 16.0625 -19.390625 12.109375 -17.921875 
L 12.109375 -9.1875 
Q 16.0625 -11.328125 19.921875 -12.34375 
Q 23.78125 -13.375 27.78125 -13.375 
Q 36.625 -13.375 41.015625 -8.765625 
Q 45.40625 -4.15625 45.40625 5.171875 
L 45.40625 9.625 
Q 42.625 4.78125 38.28125 2.390625 
Q 33.9375 0 27.875 0 
Q 17.828125 0 11.671875 7.65625 
Q 5.515625 15.328125 5.515625 27.984375 
Q 5.515625 40.671875 11.671875 48.328125 
Q 17.828125 56 27.875 56 
Q 33.9375 56 38.28125 53.609375 
Q 42.625 51.21875 45.40625 46.390625 
L 45.40625 54.6875 
L 54.390625 54.6875 
z
" id="DejaVuSans-67"/>
      <path d="M 9.421875 54.6875 
L 18.40625 54.6875 
L 18.40625 0 
L 9.421875 0 
z
M 9.421875 75.984375 
L 18.40625 75.984375 
L 18.40625 64.59375 
L 9.421875 64.59375 
z
" id="DejaVuSans-69"/>
      <path d="M 18.3125 70.21875 
L 18.3125 54.6875 
L 36.8125 54.6875 
L 36.8125 47.703125 
L 18.3125 47.703125 
L 18.3125 18.015625 
Q 18.3125 11.328125 20.140625 9.421875 
Q 21.96875 7.515625 27.59375 7.515625 
L 36.8125 7.515625 
L 36.8125 0 
L 27.59375 0 
Q 17.1875 0 13.234375 3.875 
Q 9.28125 7.765625 9.28125 18.015625 
L 9.28125 47.703125 
L 2.6875 47.703125 
L 2.6875 54.6875 
L 9.28125 54.6875 
L 9.28125 70.21875 
z
" id="DejaVuSans-74"/>
     </defs>
     <g transform="translate(212.2475 102.104812)scale(0.1 -0.1)">
      <use xlink:href="#DejaVuSans-53"/>
      <use x="63.476562" xlink:href="#DejaVuSans-47"/>
      <use x="140.966797" xlink:href="#DejaVuSans-4e"/>
      <use x="215.771484" xlink:href="#DejaVuSans-2c"/>
      <use x="247.558594" xlink:href="#DejaVuSans-20"/>
      <use x="279.345703" xlink:href="#DejaVuSans-63"/>
      <use x="334.326172" xlink:href="#DejaVuSans-67"/>
      <use x="397.802734" xlink:href="#DejaVuSans-20"/>
      <use x="429.589844" xlink:href="#DejaVuSans-69"/>
      <use x="457.373047" xlink:href="#DejaVuSans-74"/>
      <use x="496.582031" xlink:href="#DejaVuSans-65"/>
      <use x="558.105469" xlink:href="#DejaVuSans-72"/>
      <use x="599.21875" xlink:href="#DejaVuSans-20"/>
      <use x="631.005859" xlink:href="#DejaVuSans-34"/>
      <use x="694.628906" xlink:href="#DejaVuSans-30"/>
     </g>
    </g>
    <g id="line2d_53">
     <path d="M 184.2475 113.282938 
L 204.2475 113.282938 
" style="fill:none;stroke:#9467bd;stroke-dasharray:5.55,2.4;stroke-dashoffset:0;stroke-width:1.5;"/>
    </g>
    <g id="line2d_54"/>
    <g id="text_15">
     <!-- SGN, cg iter 30 -->
     <defs>
      <path d="M 40.578125 39.3125 
Q 47.65625 37.796875 51.625 33 
Q 55.609375 28.21875 55.609375 21.1875 
Q 55.609375 10.40625 48.1875 4.484375 
Q 40.765625 -1.421875 27.09375 -1.421875 
Q 22.515625 -1.421875 17.65625 -0.515625 
Q 12.796875 0.390625 7.625 2.203125 
L 7.625 11.71875 
Q 11.71875 9.328125 16.59375 8.109375 
Q 21.484375 6.890625 26.8125 6.890625 
Q 36.078125 6.890625 40.9375 10.546875 
Q 45.796875 14.203125 45.796875 21.1875 
Q 45.796875 27.640625 41.28125 31.265625 
Q 36.765625 34.90625 28.71875 34.90625 
L 20.21875 34.90625 
L 20.21875 43.015625 
L 29.109375 43.015625 
Q 36.375 43.015625 40.234375 45.921875 
Q 44.09375 48.828125 44.09375 54.296875 
Q 44.09375 59.90625 40.109375 62.90625 
Q 36.140625 65.921875 28.71875 65.921875 
Q 24.65625 65.921875 20.015625 65.03125 
Q 15.375 64.15625 9.8125 62.3125 
L 9.8125 71.09375 
Q 15.4375 72.65625 20.34375 73.4375 
Q 25.25 74.21875 29.59375 74.21875 
Q 40.828125 74.21875 47.359375 69.109375 
Q 53.90625 64.015625 53.90625 55.328125 
Q 53.90625 49.265625 50.4375 45.09375 
Q 46.96875 40.921875 40.578125 39.3125 
z
" id="DejaVuSans-33"/>
     </defs>
     <g transform="translate(212.2475 116.782938)scale(0.1 -0.1)">
      <use xlink:href="#DejaVuSans-53"/>
      <use x="63.476562" xlink:href="#DejaVuSans-47"/>
      <use x="140.966797" xlink:href="#DejaVuSans-4e"/>
      <use x="215.771484" xlink:href="#DejaVuSans-2c"/>
      <use x="247.558594" xlink:href="#DejaVuSans-20"/>
      <use x="279.345703" xlink:href="#DejaVuSans-63"/>
      <use x="334.326172" xlink:href="#DejaVuSans-67"/>
      <use x="397.802734" xlink:href="#DejaVuSans-20"/>
      <use x="429.589844" xlink:href="#DejaVuSans-69"/>
      <use x="457.373047" xlink:href="#DejaVuSans-74"/>
      <use x="496.582031" xlink:href="#DejaVuSans-65"/>
      <use x="558.105469" xlink:href="#DejaVuSans-72"/>
      <use x="599.21875" xlink:href="#DejaVuSans-20"/>
      <use x="631.005859" xlink:href="#DejaVuSans-33"/>
      <use x="694.628906" xlink:href="#DejaVuSans-30"/>
     </g>
    </g>
    <g id="line2d_55">
     <path d="M 184.2475 127.961062 
L 204.2475 127.961062 
" style="fill:none;stroke:#8c564b;stroke-dasharray:5.55,2.4;stroke-dashoffset:0;stroke-width:1.5;"/>
    </g>
    <g id="line2d_56"/>
    <g id="text_16">
     <!-- SGN, cg iter 20 -->
     <g transform="translate(212.2475 131.461062)scale(0.1 -0.1)">
      <use xlink:href="#DejaVuSans-53"/>
      <use x="63.476562" xlink:href="#DejaVuSans-47"/>
      <use x="140.966797" xlink:href="#DejaVuSans-4e"/>
      <use x="215.771484" xlink:href="#DejaVuSans-2c"/>
      <use x="247.558594" xlink:href="#DejaVuSans-20"/>
      <use x="279.345703" xlink:href="#DejaVuSans-63"/>
      <use x="334.326172" xlink:href="#DejaVuSans-67"/>
      <use x="397.802734" xlink:href="#DejaVuSans-20"/>
      <use x="429.589844" xlink:href="#DejaVuSans-69"/>
      <use x="457.373047" xlink:href="#DejaVuSans-74"/>
      <use x="496.582031" xlink:href="#DejaVuSans-65"/>
      <use x="558.105469" xlink:href="#DejaVuSans-72"/>
      <use x="599.21875" xlink:href="#DejaVuSans-20"/>
      <use x="631.005859" xlink:href="#DejaVuSans-32"/>
      <use x="694.628906" xlink:href="#DejaVuSans-30"/>
     </g>
    </g>
    <g id="line2d_57">
     <path d="M 184.2475 142.639187 
L 204.2475 142.639187 
" style="fill:none;stroke:#e377c2;stroke-dasharray:5.55,2.4;stroke-dashoffset:0;stroke-width:1.5;"/>
    </g>
    <g id="line2d_58"/>
    <g id="text_17">
     <!-- SGN, cg iter 10 -->
     <g transform="translate(212.2475 146.139187)scale(0.1 -0.1)">
      <use xlink:href="#DejaVuSans-53"/>
      <use x="63.476562" xlink:href="#DejaVuSans-47"/>
      <use x="140.966797" xlink:href="#DejaVuSans-4e"/>
      <use x="215.771484" xlink:href="#DejaVuSans-2c"/>
      <use x="247.558594" xlink:href="#DejaVuSans-20"/>
      <use x="279.345703" xlink:href="#DejaVuSans-63"/>
      <use x="334.326172" xlink:href="#DejaVuSans-67"/>
      <use x="397.802734" xlink:href="#DejaVuSans-20"/>
      <use x="429.589844" xlink:href="#DejaVuSans-69"/>
      <use x="457.373047" xlink:href="#DejaVuSans-74"/>
      <use x="496.582031" xlink:href="#DejaVuSans-65"/>
      <use x="558.105469" xlink:href="#DejaVuSans-72"/>
      <use x="599.21875" xlink:href="#DejaVuSans-20"/>
      <use x="631.005859" xlink:href="#DejaVuSans-31"/>
      <use x="694.628906" xlink:href="#DejaVuSans-30"/>
     </g>
    </g>
    <g id="line2d_59">
     <path d="M 184.2475 157.317312 
L 204.2475 157.317312 
" style="fill:none;stroke:#7f7f7f;stroke-dasharray:5.55,2.4;stroke-dashoffset:0;stroke-width:1.5;"/>
    </g>
    <g id="line2d_60"/>
    <g id="text_18">
     <!-- SGN, cg iter 5 -->
     <defs>
      <path d="M 10.796875 72.90625 
L 49.515625 72.90625 
L 49.515625 64.59375 
L 19.828125 64.59375 
L 19.828125 46.734375 
Q 21.96875 47.46875 24.109375 47.828125 
Q 26.265625 48.1875 28.421875 48.1875 
Q 40.625 48.1875 47.75 41.5 
Q 54.890625 34.8125 54.890625 23.390625 
Q 54.890625 11.625 47.5625 5.09375 
Q 40.234375 -1.421875 26.90625 -1.421875 
Q 22.3125 -1.421875 17.546875 -0.640625 
Q 12.796875 0.140625 7.71875 1.703125 
L 7.71875 11.625 
Q 12.109375 9.234375 16.796875 8.0625 
Q 21.484375 6.890625 26.703125 6.890625 
Q 35.15625 6.890625 40.078125 11.328125 
Q 45.015625 15.765625 45.015625 23.390625 
Q 45.015625 31 40.078125 35.4375 
Q 35.15625 39.890625 26.703125 39.890625 
Q 22.75 39.890625 18.8125 39.015625 
Q 14.890625 38.140625 10.796875 36.28125 
z
" id="DejaVuSans-35"/>
     </defs>
     <g transform="translate(212.2475 160.817312)scale(0.1 -0.1)">
      <use xlink:href="#DejaVuSans-53"/>
      <use x="63.476562" xlink:href="#DejaVuSans-47"/>
      <use x="140.966797" xlink:href="#DejaVuSans-4e"/>
      <use x="215.771484" xlink:href="#DejaVuSans-2c"/>
      <use x="247.558594" xlink:href="#DejaVuSans-20"/>
      <use x="279.345703" xlink:href="#DejaVuSans-63"/>
      <use x="334.326172" xlink:href="#DejaVuSans-67"/>
      <use x="397.802734" xlink:href="#DejaVuSans-20"/>
      <use x="429.589844" xlink:href="#DejaVuSans-69"/>
      <use x="457.373047" xlink:href="#DejaVuSans-74"/>
      <use x="496.582031" xlink:href="#DejaVuSans-65"/>
      <use x="558.105469" xlink:href="#DejaVuSans-72"/>
      <use x="599.21875" xlink:href="#DejaVuSans-20"/>
      <use x="631.005859" xlink:href="#DejaVuSans-35"/>
     </g>
    </g>
    <g id="line2d_61">
     <path d="M 184.2475 171.995437 
L 204.2475 171.995437 
" style="fill:none;stroke:#bcbd22;stroke-dasharray:5.55,2.4;stroke-dashoffset:0;stroke-width:1.5;"/>
    </g>
    <g id="line2d_62"/>
    <g id="text_19">
     <!-- SGN, cg iter 3 -->
     <g transform="translate(212.2475 175.495437)scale(0.1 -0.1)">
      <use xlink:href="#DejaVuSans-53"/>
      <use x="63.476562" xlink:href="#DejaVuSans-47"/>
      <use x="140.966797" xlink:href="#DejaVuSans-4e"/>
      <use x="215.771484" xlink:href="#DejaVuSans-2c"/>
      <use x="247.558594" xlink:href="#DejaVuSans-20"/>
      <use x="279.345703" xlink:href="#DejaVuSans-63"/>
      <use x="334.326172" xlink:href="#DejaVuSans-67"/>
      <use x="397.802734" xlink:href="#DejaVuSans-20"/>
      <use x="429.589844" xlink:href="#DejaVuSans-69"/>
      <use x="457.373047" xlink:href="#DejaVuSans-74"/>
      <use x="496.582031" xlink:href="#DejaVuSans-65"/>
      <use x="558.105469" xlink:href="#DejaVuSans-72"/>
      <use x="599.21875" xlink:href="#DejaVuSans-20"/>
      <use x="631.005859" xlink:href="#DejaVuSans-33"/>
     </g>
    </g>
    <g id="line2d_63">
     <path d="M 184.2475 186.673562 
L 204.2475 186.673562 
" style="fill:none;stroke:#17becf;stroke-dasharray:5.55,2.4;stroke-dashoffset:0;stroke-width:1.5;"/>
    </g>
    <g id="line2d_64"/>
    <g id="text_20">
     <!-- SGN, cg iter 2 -->
     <g transform="translate(212.2475 190.173562)scale(0.1 -0.1)">
      <use xlink:href="#DejaVuSans-53"/>
      <use x="63.476562" xlink:href="#DejaVuSans-47"/>
      <use x="140.966797" xlink:href="#DejaVuSans-4e"/>
      <use x="215.771484" xlink:href="#DejaVuSans-2c"/>
      <use x="247.558594" xlink:href="#DejaVuSans-20"/>
      <use x="279.345703" xlink:href="#DejaVuSans-63"/>
      <use x="334.326172" xlink:href="#DejaVuSans-67"/>
      <use x="397.802734" xlink:href="#DejaVuSans-20"/>
      <use x="429.589844" xlink:href="#DejaVuSans-69"/>
      <use x="457.373047" xlink:href="#DejaVuSans-74"/>
      <use x="496.582031" xlink:href="#DejaVuSans-65"/>
      <use x="558.105469" xlink:href="#DejaVuSans-72"/>
      <use x="599.21875" xlink:href="#DejaVuSans-20"/>
      <use x="631.005859" xlink:href="#DejaVuSans-32"/>
     </g>
    </g>
   </g>
  </g>
 </g>
 <defs>
  <clipPath id="p4d8fc0ba74">
   <rect height="266.112" width="357.12" x="57.6" y="41.472"/>
  </clipPath>
 </defs>
</svg>
