<?xml version="1.0" encoding="utf-8" standalone="no"?>
<!DOCTYPE svg PUBLIC "-//W3C//DTD SVG 1.1//EN"
  "http://www.w3.org/Graphics/SVG/1.1/DTD/svg11.dtd">
<!-- Created with matplotlib (http://matplotlib.org/) -->
<svg height="345pt" version="1.1" viewBox="0 0 460 345" width="460pt" xmlns="http://www.w3.org/2000/svg" xmlns:xlink="http://www.w3.org/1999/xlink">
 <defs>
  <style type="text/css">
*{stroke-linecap:butt;stroke-linejoin:round;}
  </style>
 </defs>
 <g id="figure_1">
  <g id="patch_1">
   <path d="M 0 345.6 
L 460.8 345.6 
L 460.8 0 
L 0 0 
z
" style="fill:none;opacity:0;"/>
  </g>
  <g id="axes_1">
   <g id="patch_2">
    <path d="M 57.6 307.584 
L 414.72 307.584 
L 414.72 41.472 
L 57.6 41.472 
z
" style="fill:#ffffff;"/>
   </g>
   <g id="matplotlib.axis_1">
    <g id="xtick_1">
     <g id="line2d_1">
      <path clip-path="url(#pf0b6525df2)" d="M 73.585252 307.584 
L 73.585252 41.472 
" style="fill:none;stroke:#b0b0b0;stroke-linecap:square;stroke-width:0.8;"/>
     </g>
     <g id="line2d_2">
      <defs>
       <path d="M 0 0 
L 0 3.5 
" id="m64dbaa47ef" style="stroke:#000000;stroke-width:0.8;"/>
      </defs>
      <g>
       <use style="stroke:#000000;stroke-width:0.8;" x="73.585252" xlink:href="#m64dbaa47ef" y="307.584"/>
      </g>
     </g>
     <g id="text_1">
      <!-- 0 -->
      <defs>
       <path d="M 31.78125 66.40625 
Q 24.171875 66.40625 20.328125 58.90625 
Q 16.5 51.421875 16.5 36.375 
Q 16.5 21.390625 20.328125 13.890625 
Q 24.171875 6.390625 31.78125 6.390625 
Q 39.453125 6.390625 43.28125 13.890625 
Q 47.125 21.390625 47.125 36.375 
Q 47.125 51.421875 43.28125 58.90625 
Q 39.453125 66.40625 31.78125 66.40625 
z
M 31.78125 74.21875 
Q 44.046875 74.21875 50.515625 64.515625 
Q 56.984375 54.828125 56.984375 36.375 
Q 56.984375 17.96875 50.515625 8.265625 
Q 44.046875 -1.421875 31.78125 -1.421875 
Q 19.53125 -1.421875 13.0625 8.265625 
Q 6.59375 17.96875 6.59375 36.375 
Q 6.59375 54.828125 13.0625 64.515625 
Q 19.53125 74.21875 31.78125 74.21875 
z
" id="DejaVuSans-30"/>
      </defs>
      <g transform="translate(70.404002 322.182437)scale(0.1 -0.1)">
       <use xlink:href="#DejaVuSans-30"/>
      </g>
     </g>
    </g>
    <g id="xtick_2">
     <g id="line2d_3">
      <path clip-path="url(#pf0b6525df2)" d="M 137.761351 307.584 
L 137.761351 41.472 
" style="fill:none;stroke:#b0b0b0;stroke-linecap:square;stroke-width:0.8;"/>
     </g>
     <g id="line2d_4">
      <g>
       <use style="stroke:#000000;stroke-width:0.8;" x="137.761351" xlink:href="#m64dbaa47ef" y="307.584"/>
      </g>
     </g>
     <g id="text_2">
      <!-- 20 -->
      <defs>
       <path d="M 19.1875 8.296875 
L 53.609375 8.296875 
L 53.609375 0 
L 7.328125 0 
L 7.328125 8.296875 
Q 12.9375 14.109375 22.625 23.890625 
Q 32.328125 33.6875 34.8125 36.53125 
Q 39.546875 41.84375 41.421875 45.53125 
Q 43.3125 49.21875 43.3125 52.78125 
Q 43.3125 58.59375 39.234375 62.25 
Q 35.15625 65.921875 28.609375 65.921875 
Q 23.96875 65.921875 18.8125 64.3125 
Q 13.671875 62.703125 7.8125 59.421875 
L 7.8125 69.390625 
Q 13.765625 71.78125 18.9375 73 
Q 24.125 74.21875 28.421875 74.21875 
Q 39.75 74.21875 46.484375 68.546875 
Q 53.21875 62.890625 53.21875 53.421875 
Q 53.21875 48.921875 51.53125 44.890625 
Q 49.859375 40.875 45.40625 35.40625 
Q 44.1875 33.984375 37.640625 27.21875 
Q 31.109375 20.453125 19.1875 8.296875 
z
" id="DejaVuSans-32"/>
      </defs>
      <g transform="translate(131.398851 322.182437)scale(0.1 -0.1)">
       <use xlink:href="#DejaVuSans-32"/>
       <use x="63.623047" xlink:href="#DejaVuSans-30"/>
      </g>
     </g>
    </g>
    <g id="xtick_3">
     <g id="line2d_5">
      <path clip-path="url(#pf0b6525df2)" d="M 201.937449 307.584 
L 201.937449 41.472 
" style="fill:none;stroke:#b0b0b0;stroke-linecap:square;stroke-width:0.8;"/>
     </g>
     <g id="line2d_6">
      <g>
       <use style="stroke:#000000;stroke-width:0.8;" x="201.937449" xlink:href="#m64dbaa47ef" y="307.584"/>
      </g>
     </g>
     <g id="text_3">
      <!-- 40 -->
      <defs>
       <path d="M 37.796875 64.3125 
L 12.890625 25.390625 
L 37.796875 25.390625 
z
M 35.203125 72.90625 
L 47.609375 72.90625 
L 47.609375 25.390625 
L 58.015625 25.390625 
L 58.015625 17.1875 
L 47.609375 17.1875 
L 47.609375 0 
L 37.796875 0 
L 37.796875 17.1875 
L 4.890625 17.1875 
L 4.890625 26.703125 
z
" id="DejaVuSans-34"/>
      </defs>
      <g transform="translate(195.574949 322.182437)scale(0.1 -0.1)">
       <use xlink:href="#DejaVuSans-34"/>
       <use x="63.623047" xlink:href="#DejaVuSans-30"/>
      </g>
     </g>
    </g>
    <g id="xtick_4">
     <g id="line2d_7">
      <path clip-path="url(#pf0b6525df2)" d="M 266.113547 307.584 
L 266.113547 41.472 
" style="fill:none;stroke:#b0b0b0;stroke-linecap:square;stroke-width:0.8;"/>
     </g>
     <g id="line2d_8">
      <g>
       <use style="stroke:#000000;stroke-width:0.8;" x="266.113547" xlink:href="#m64dbaa47ef" y="307.584"/>
      </g>
     </g>
     <g id="text_4">
      <!-- 60 -->
      <defs>
       <path d="M 33.015625 40.375 
Q 26.375 40.375 22.484375 35.828125 
Q 18.609375 31.296875 18.609375 23.390625 
Q 18.609375 15.53125 22.484375 10.953125 
Q 26.375 6.390625 33.015625 6.390625 
Q 39.65625 6.390625 43.53125 10.953125 
Q 47.40625 15.53125 47.40625 23.390625 
Q 47.40625 31.296875 43.53125 35.828125 
Q 39.65625 40.375 33.015625 40.375 
z
M 52.59375 71.296875 
L 52.59375 62.3125 
Q 48.875 64.0625 45.09375 64.984375 
Q 41.3125 65.921875 37.59375 65.921875 
Q 27.828125 65.921875 22.671875 59.328125 
Q 17.53125 52.734375 16.796875 39.40625 
Q 19.671875 43.65625 24.015625 45.921875 
Q 28.375 48.1875 33.59375 48.1875 
Q 44.578125 48.1875 50.953125 41.515625 
Q 57.328125 34.859375 57.328125 23.390625 
Q 57.328125 12.15625 50.6875 5.359375 
Q 44.046875 -1.421875 33.015625 -1.421875 
Q 20.359375 -1.421875 13.671875 8.265625 
Q 6.984375 17.96875 6.984375 36.375 
Q 6.984375 53.65625 15.1875 63.9375 
Q 23.390625 74.21875 37.203125 74.21875 
Q 40.921875 74.21875 44.703125 73.484375 
Q 48.484375 72.75 52.59375 71.296875 
z
" id="DejaVuSans-36"/>
      </defs>
      <g transform="translate(259.751047 322.182437)scale(0.1 -0.1)">
       <use xlink:href="#DejaVuSans-36"/>
       <use x="63.623047" xlink:href="#DejaVuSans-30"/>
      </g>
     </g>
    </g>
    <g id="xtick_5">
     <g id="line2d_9">
      <path clip-path="url(#pf0b6525df2)" d="M 330.289646 307.584 
L 330.289646 41.472 
" style="fill:none;stroke:#b0b0b0;stroke-linecap:square;stroke-width:0.8;"/>
     </g>
     <g id="line2d_10">
      <g>
       <use style="stroke:#000000;stroke-width:0.8;" x="330.289646" xlink:href="#m64dbaa47ef" y="307.584"/>
      </g>
     </g>
     <g id="text_5">
      <!-- 80 -->
      <defs>
       <path d="M 31.78125 34.625 
Q 24.75 34.625 20.71875 30.859375 
Q 16.703125 27.09375 16.703125 20.515625 
Q 16.703125 13.921875 20.71875 10.15625 
Q 24.75 6.390625 31.78125 6.390625 
Q 38.8125 6.390625 42.859375 10.171875 
Q 46.921875 13.96875 46.921875 20.515625 
Q 46.921875 27.09375 42.890625 30.859375 
Q 38.875 34.625 31.78125 34.625 
z
M 21.921875 38.8125 
Q 15.578125 40.375 12.03125 44.71875 
Q 8.5 49.078125 8.5 55.328125 
Q 8.5 64.0625 14.71875 69.140625 
Q 20.953125 74.21875 31.78125 74.21875 
Q 42.671875 74.21875 48.875 69.140625 
Q 55.078125 64.0625 55.078125 55.328125 
Q 55.078125 49.078125 51.53125 44.71875 
Q 48 40.375 41.703125 38.8125 
Q 48.828125 37.15625 52.796875 32.3125 
Q 56.78125 27.484375 56.78125 20.515625 
Q 56.78125 9.90625 50.3125 4.234375 
Q 43.84375 -1.421875 31.78125 -1.421875 
Q 19.734375 -1.421875 13.25 4.234375 
Q 6.78125 9.90625 6.78125 20.515625 
Q 6.78125 27.484375 10.78125 32.3125 
Q 14.796875 37.15625 21.921875 38.8125 
z
M 18.3125 54.390625 
Q 18.3125 48.734375 21.84375 45.5625 
Q 25.390625 42.390625 31.78125 42.390625 
Q 38.140625 42.390625 41.71875 45.5625 
Q 45.3125 48.734375 45.3125 54.390625 
Q 45.3125 60.0625 41.71875 63.234375 
Q 38.140625 66.40625 31.78125 66.40625 
Q 25.390625 66.40625 21.84375 63.234375 
Q 18.3125 60.0625 18.3125 54.390625 
z
" id="DejaVuSans-38"/>
      </defs>
      <g transform="translate(323.927146 322.182437)scale(0.1 -0.1)">
       <use xlink:href="#DejaVuSans-38"/>
       <use x="63.623047" xlink:href="#DejaVuSans-30"/>
      </g>
     </g>
    </g>
    <g id="xtick_6">
     <g id="line2d_11">
      <path clip-path="url(#pf0b6525df2)" d="M 394.465744 307.584 
L 394.465744 41.472 
" style="fill:none;stroke:#b0b0b0;stroke-linecap:square;stroke-width:0.8;"/>
     </g>
     <g id="line2d_12">
      <g>
       <use style="stroke:#000000;stroke-width:0.8;" x="394.465744" xlink:href="#m64dbaa47ef" y="307.584"/>
      </g>
     </g>
     <g id="text_6">
      <!-- 100 -->
      <defs>
       <path d="M 12.40625 8.296875 
L 28.515625 8.296875 
L 28.515625 63.921875 
L 10.984375 60.40625 
L 10.984375 69.390625 
L 28.421875 72.90625 
L 38.28125 72.90625 
L 38.28125 8.296875 
L 54.390625 8.296875 
L 54.390625 0 
L 12.40625 0 
z
" id="DejaVuSans-31"/>
      </defs>
      <g transform="translate(384.921994 322.182437)scale(0.1 -0.1)">
       <use xlink:href="#DejaVuSans-31"/>
       <use x="63.623047" xlink:href="#DejaVuSans-30"/>
       <use x="127.246094" xlink:href="#DejaVuSans-30"/>
      </g>
     </g>
    </g>
    <g id="text_7">
     <!-- sec -->
     <defs>
      <path d="M 44.28125 53.078125 
L 44.28125 44.578125 
Q 40.484375 46.53125 36.375 47.5 
Q 32.28125 48.484375 27.875 48.484375 
Q 21.1875 48.484375 17.84375 46.4375 
Q 14.5 44.390625 14.5 40.28125 
Q 14.5 37.15625 16.890625 35.375 
Q 19.28125 33.59375 26.515625 31.984375 
L 29.59375 31.296875 
Q 39.15625 29.25 43.1875 25.515625 
Q 47.21875 21.78125 47.21875 15.09375 
Q 47.21875 7.46875 41.1875 3.015625 
Q 35.15625 -1.421875 24.609375 -1.421875 
Q 20.21875 -1.421875 15.453125 -0.5625 
Q 10.6875 0.296875 5.421875 2 
L 5.421875 11.28125 
Q 10.40625 8.6875 15.234375 7.390625 
Q 20.0625 6.109375 24.8125 6.109375 
Q 31.15625 6.109375 34.5625 8.28125 
Q 37.984375 10.453125 37.984375 14.40625 
Q 37.984375 18.0625 35.515625 20.015625 
Q 33.0625 21.96875 24.703125 23.78125 
L 21.578125 24.515625 
Q 13.234375 26.265625 9.515625 29.90625 
Q 5.8125 33.546875 5.8125 39.890625 
Q 5.8125 47.609375 11.28125 51.796875 
Q 16.75 56 26.8125 56 
Q 31.78125 56 36.171875 55.265625 
Q 40.578125 54.546875 44.28125 53.078125 
z
" id="DejaVuSans-73"/>
      <path d="M 56.203125 29.59375 
L 56.203125 25.203125 
L 14.890625 25.203125 
Q 15.484375 15.921875 20.484375 11.0625 
Q 25.484375 6.203125 34.421875 6.203125 
Q 39.59375 6.203125 44.453125 7.46875 
Q 49.3125 8.734375 54.109375 11.28125 
L 54.109375 2.78125 
Q 49.265625 0.734375 44.1875 -0.34375 
Q 39.109375 -1.421875 33.890625 -1.421875 
Q 20.796875 -1.421875 13.15625 6.1875 
Q 5.515625 13.8125 5.515625 26.8125 
Q 5.515625 40.234375 12.765625 48.109375 
Q 20.015625 56 32.328125 56 
Q 43.359375 56 49.78125 48.890625 
Q 56.203125 41.796875 56.203125 29.59375 
z
M 47.21875 32.234375 
Q 47.125 39.59375 43.09375 43.984375 
Q 39.0625 48.390625 32.421875 48.390625 
Q 24.90625 48.390625 20.390625 44.140625 
Q 15.875 39.890625 15.1875 32.171875 
z
" id="DejaVuSans-65"/>
      <path d="M 48.78125 52.59375 
L 48.78125 44.1875 
Q 44.96875 46.296875 41.140625 47.34375 
Q 37.3125 48.390625 33.40625 48.390625 
Q 24.65625 48.390625 19.8125 42.84375 
Q 14.984375 37.3125 14.984375 27.296875 
Q 14.984375 17.28125 19.8125 11.734375 
Q 24.65625 6.203125 33.40625 6.203125 
Q 37.3125 6.203125 41.140625 7.25 
Q 44.96875 8.296875 48.78125 10.40625 
L 48.78125 2.09375 
Q 45.015625 0.34375 40.984375 -0.53125 
Q 36.96875 -1.421875 32.421875 -1.421875 
Q 20.0625 -1.421875 12.78125 6.34375 
Q 5.515625 14.109375 5.515625 27.296875 
Q 5.515625 40.671875 12.859375 48.328125 
Q 20.21875 56 33.015625 56 
Q 37.15625 56 41.109375 55.140625 
Q 45.0625 54.296875 48.78125 52.59375 
z
" id="DejaVuSans-63"/>
     </defs>
     <g transform="translate(227.729531 335.860562)scale(0.1 -0.1)">
      <use xlink:href="#DejaVuSans-73"/>
      <use x="52.099609" xlink:href="#DejaVuSans-65"/>
      <use x="113.623047" xlink:href="#DejaVuSans-63"/>
     </g>
    </g>
   </g>
   <g id="matplotlib.axis_2">
    <g id="ytick_1">
     <g id="line2d_13">
      <path clip-path="url(#pf0b6525df2)" d="M 57.6 167.990386 
L 414.72 167.990386 
" style="fill:none;stroke:#b0b0b0;stroke-linecap:square;stroke-width:0.8;"/>
     </g>
     <g id="line2d_14">
      <defs>
       <path d="M 0 0 
L -3.5 0 
" id="mee029c72a9" style="stroke:#000000;stroke-width:0.8;"/>
      </defs>
      <g>
       <use style="stroke:#000000;stroke-width:0.8;" x="57.6" xlink:href="#mee029c72a9" y="167.990386"/>
      </g>
     </g>
     <g id="text_8">
      <!-- $\mathdefault{10^{0}}$ -->
      <g transform="translate(33 171.789604)scale(0.1 -0.1)">
       <use transform="translate(0 0.765625)" xlink:href="#DejaVuSans-31"/>
       <use transform="translate(63.623047 0.765625)" xlink:href="#DejaVuSans-30"/>
       <use transform="translate(128.203125 39.046875)scale(0.7)" xlink:href="#DejaVuSans-30"/>
      </g>
     </g>
    </g>
    <g id="ytick_2">
     <g id="line2d_15">
      <path clip-path="url(#pf0b6525df2)" d="M 57.6 300.018231 
L 414.72 300.018231 
" style="fill:none;stroke:#b0b0b0;stroke-linecap:square;stroke-width:0.8;"/>
     </g>
     <g id="line2d_16">
      <defs>
       <path d="M 0 0 
L -2 0 
" id="m9070155ce2" style="stroke:#000000;stroke-width:0.6;"/>
      </defs>
      <g>
       <use style="stroke:#000000;stroke-width:0.6;" x="57.6" xlink:href="#m9070155ce2" y="300.018231"/>
      </g>
     </g>
    </g>
    <g id="ytick_3">
     <g id="line2d_17">
      <path clip-path="url(#pf0b6525df2)" d="M 57.6 268.47097 
L 414.72 268.47097 
" style="fill:none;stroke:#b0b0b0;stroke-linecap:square;stroke-width:0.8;"/>
     </g>
     <g id="line2d_18">
      <g>
       <use style="stroke:#000000;stroke-width:0.6;" x="57.6" xlink:href="#m9070155ce2" y="268.47097"/>
      </g>
     </g>
    </g>
    <g id="ytick_4">
     <g id="line2d_19">
      <path clip-path="url(#pf0b6525df2)" d="M 57.6 244.001013 
L 414.72 244.001013 
" style="fill:none;stroke:#b0b0b0;stroke-linecap:square;stroke-width:0.8;"/>
     </g>
     <g id="line2d_20">
      <g>
       <use style="stroke:#000000;stroke-width:0.6;" x="57.6" xlink:href="#m9070155ce2" y="244.001013"/>
      </g>
     </g>
    </g>
    <g id="ytick_5">
     <g id="line2d_21">
      <path clip-path="url(#pf0b6525df2)" d="M 57.6 224.007603 
L 414.72 224.007603 
" style="fill:none;stroke:#b0b0b0;stroke-linecap:square;stroke-width:0.8;"/>
     </g>
     <g id="line2d_22">
      <g>
       <use style="stroke:#000000;stroke-width:0.6;" x="57.6" xlink:href="#m9070155ce2" y="224.007603"/>
      </g>
     </g>
    </g>
    <g id="ytick_6">
     <g id="line2d_23">
      <path clip-path="url(#pf0b6525df2)" d="M 57.6 207.103416 
L 414.72 207.103416 
" style="fill:none;stroke:#b0b0b0;stroke-linecap:square;stroke-width:0.8;"/>
     </g>
     <g id="line2d_24">
      <g>
       <use style="stroke:#000000;stroke-width:0.6;" x="57.6" xlink:href="#m9070155ce2" y="207.103416"/>
      </g>
     </g>
    </g>
    <g id="ytick_7">
     <g id="line2d_25">
      <path clip-path="url(#pf0b6525df2)" d="M 57.6 192.460342 
L 414.72 192.460342 
" style="fill:none;stroke:#b0b0b0;stroke-linecap:square;stroke-width:0.8;"/>
     </g>
     <g id="line2d_26">
      <g>
       <use style="stroke:#000000;stroke-width:0.6;" x="57.6" xlink:href="#m9070155ce2" y="192.460342"/>
      </g>
     </g>
    </g>
    <g id="ytick_8">
     <g id="line2d_27">
      <path clip-path="url(#pf0b6525df2)" d="M 57.6 179.544236 
L 414.72 179.544236 
" style="fill:none;stroke:#b0b0b0;stroke-linecap:square;stroke-width:0.8;"/>
     </g>
     <g id="line2d_28">
      <g>
       <use style="stroke:#000000;stroke-width:0.6;" x="57.6" xlink:href="#m9070155ce2" y="179.544236"/>
      </g>
     </g>
    </g>
    <g id="ytick_9">
     <g id="line2d_29">
      <path clip-path="url(#pf0b6525df2)" d="M 57.6 91.979758 
L 414.72 91.979758 
" style="fill:none;stroke:#b0b0b0;stroke-linecap:square;stroke-width:0.8;"/>
     </g>
     <g id="line2d_30">
      <g>
       <use style="stroke:#000000;stroke-width:0.6;" x="57.6" xlink:href="#m9070155ce2" y="91.979758"/>
      </g>
     </g>
    </g>
    <g id="ytick_10">
     <g id="line2d_31">
      <path clip-path="url(#pf0b6525df2)" d="M 57.6 47.516391 
L 414.72 47.516391 
" style="fill:none;stroke:#b0b0b0;stroke-linecap:square;stroke-width:0.8;"/>
     </g>
     <g id="line2d_32">
      <g>
       <use style="stroke:#000000;stroke-width:0.6;" x="57.6" xlink:href="#m9070155ce2" y="47.516391"/>
      </g>
     </g>
    </g>
    <g id="text_9">
     <!-- loss -->
     <defs>
      <path d="M 9.421875 75.984375 
L 18.40625 75.984375 
L 18.40625 0 
L 9.421875 0 
z
" id="DejaVuSans-6c"/>
      <path d="M 30.609375 48.390625 
Q 23.390625 48.390625 19.1875 42.75 
Q 14.984375 37.109375 14.984375 27.296875 
Q 14.984375 17.484375 19.15625 11.84375 
Q 23.34375 6.203125 30.609375 6.203125 
Q 37.796875 6.203125 41.984375 11.859375 
Q 46.1875 17.53125 46.1875 27.296875 
Q 46.1875 37.015625 41.984375 42.703125 
Q 37.796875 48.390625 30.609375 48.390625 
z
M 30.609375 56 
Q 42.328125 56 49.015625 48.375 
Q 55.71875 40.765625 55.71875 27.296875 
Q 55.71875 13.875 49.015625 6.21875 
Q 42.328125 -1.421875 30.609375 -1.421875 
Q 18.84375 -1.421875 12.171875 6.21875 
Q 5.515625 13.875 5.515625 27.296875 
Q 5.515625 40.765625 12.171875 48.375 
Q 18.84375 56 30.609375 56 
z
" id="DejaVuSans-6f"/>
     </defs>
     <g transform="translate(26.920313 184.185812)rotate(-90)scale(0.1 -0.1)">
      <use xlink:href="#DejaVuSans-6c"/>
      <use x="27.783203" xlink:href="#DejaVuSans-6f"/>
      <use x="88.964844" xlink:href="#DejaVuSans-73"/>
      <use x="141.064453" xlink:href="#DejaVuSans-73"/>
     </g>
    </g>
   </g>
   <g id="line2d_33">
    <path clip-path="url(#pf0b6525df2)" d="M 73.837731 75.468702 
L 74.090209 221.10804 
L 74.342687 237.994406 
L 74.847643 241.277237 
L 75.100121 241.469518 
L 75.3526 242.148601 
L 75.605078 242.136269 
L 76.110034 241.58488 
L 76.362512 242.517422 
L 76.61499 242.188069 
L 76.867469 242.456233 
L 77.119947 242.496043 
L 77.372425 241.955099 
L 77.624903 242.500326 
L 77.877381 241.792331 
L 78.382338 242.397045 
L 78.634816 242.132985 
L 78.887294 242.357501 
L 79.139772 241.885606 
L 79.897207 242.386487 
L 80.149685 242.262962 
L 80.402163 242.365934 
L 80.654641 241.696925 
L 80.907119 242.133902 
L 81.159597 241.545697 
L 81.412076 242.121801 
L 81.664554 241.180792 
L 81.917032 241.891654 
L 82.16951 242.113967 
L 82.421988 241.611988 
L 82.926945 242.465187 
L 83.179423 241.898445 
L 83.431901 241.745255 
L 84.694292 242.386234 
L 84.94677 241.911063 
L 85.199248 242.024642 
L 85.451726 241.960968 
L 85.704204 242.293219 
L 85.956683 242.390045 
L 86.966595 242.270865 
L 87.219073 242.416269 
L 87.72403 241.884831 
L 87.976508 242.24414 
L 88.228986 242.381818 
L 88.481464 242.301238 
L 88.733942 242.448549 
L 88.986421 241.78566 
L 89.238899 242.327761 
L 89.491377 242.017679 
L 89.743855 242.333739 
L 89.996333 242.133346 
L 90.248811 242.25587 
L 90.50129 242.196282 
L 90.753768 241.943687 
L 91.006246 242.176218 
L 91.511202 242.122897 
L 91.76368 241.750644 
L 92.268637 241.771564 
L 92.521115 242.364441 
L 92.773593 242.197113 
L 93.026071 241.177997 
L 93.278549 242.018403 
L 93.531028 242.091876 
L 93.783506 242.342132 
L 94.035984 241.885666 
L 94.54094 242.422665 
L 95.045897 242.349804 
L 95.298375 242.130362 
L 95.550853 241.699436 
L 96.055809 242.533502 
L 96.560766 241.971197 
L 96.813244 242.547271 
L 97.065722 242.350027 
L 97.570678 241.686124 
L 97.823156 241.827831 
L 98.075635 242.408999 
L 98.328113 242.343754 
L 98.580591 241.414148 
L 98.833069 242.195697 
L 99.085547 242.374263 
L 99.842982 242.354535 
L 100.09546 241.884326 
L 100.347938 242.418504 
L 100.600416 242.586683 
L 100.852894 242.182371 
L 101.105373 242.114579 
L 101.357851 242.276227 
L 101.610329 241.86605 
L 102.115285 241.839535 
L 102.367763 242.408036 
L 103.125198 242.311861 
L 103.377676 242.203399 
L 103.630154 242.400457 
L 103.882632 242.224778 
L 104.640067 242.126409 
L 104.892545 242.536794 
L 105.145023 241.309652 
L 105.397501 242.32186 
L 105.64998 242.18506 
L 105.902458 242.304634 
L 106.154936 241.943193 
L 106.659892 242.571583 
L 106.91237 241.305353 
L 107.164849 242.058735 
L 107.417327 242.186289 
L 107.669805 242.123138 
L 108.932196 242.433698 
L 109.184674 242.173217 
L 109.437152 242.267946 
L 109.942108 242.138073 
L 110.194587 242.435119 
L 110.699543 242.47268 
L 110.952021 242.19538 
L 111.204499 242.375703 
L 111.456977 242.160283 
L 111.709456 242.390597 
L 111.961934 242.06128 
L 112.214412 242.216366 
L 112.46689 242.133006 
L 112.719368 241.655349 
L 112.971846 242.241348 
L 113.224325 242.104455 
L 113.729281 242.450908 
L 113.981759 242.098402 
L 114.234237 242.116851 
L 114.486715 242.384721 
L 114.991672 241.91044 
L 115.496628 242.550013 
L 115.749106 242.338231 
L 116.001584 242.469067 
L 116.254063 241.906364 
L 116.506541 241.938314 
L 116.759019 242.253781 
L 117.011497 241.709431 
L 117.516453 242.233784 
L 117.768932 242.162563 
L 118.02141 242.435396 
L 118.778844 242.216262 
L 119.031322 242.098186 
L 119.283801 242.462602 
L 119.536279 242.012585 
L 120.041235 242.105147 
L 120.293713 241.912688 
L 120.546191 242.271112 
L 120.79867 242.059537 
L 121.303626 242.349103 
L 121.808582 242.539655 
L 122.06106 242.445707 
L 122.313539 242.510792 
L 123.070973 242.327567 
L 123.575929 242.447693 
L 124.333364 241.974783 
L 124.585842 242.203905 
L 124.83832 242.173706 
L 125.090798 241.915215 
L 125.343277 242.157886 
L 125.595755 241.836177 
L 125.848233 242.597873 
L 126.100711 242.228502 
L 127.363102 242.398775 
L 127.61558 242.687112 
L 127.868058 242.655158 
L 128.120536 241.364431 
L 128.373015 242.121023 
L 128.625493 242.007991 
L 128.877971 242.382872 
L 129.130449 242.399251 
L 129.382927 242.199253 
L 129.635405 242.561634 
L 129.887884 242.125698 
L 130.140362 242.076822 
L 130.39284 242.548137 
L 130.645318 242.240771 
L 130.897796 242.277564 
L 131.150274 242.080839 
L 131.402753 242.216525 
L 131.655231 242.072722 
L 131.907709 242.478236 
L 132.160187 242.355813 
L 132.412665 241.986051 
L 132.917622 242.371313 
L 133.1701 241.957463 
L 133.422578 242.223258 
L 133.675056 241.819041 
L 134.180012 242.489928 
L 134.432491 242.308918 
L 134.684969 241.650246 
L 134.937447 242.343645 
L 135.189925 242.400707 
L 135.694881 241.518366 
L 136.199838 242.444622 
L 136.452316 242.349713 
L 136.704794 242.580672 
L 137.20975 242.233615 
L 137.462229 242.325884 
L 137.714707 242.213625 
L 139.482054 242.388629 
L 139.734532 241.753694 
L 139.98701 242.070061 
L 140.239488 242.182138 
L 140.491967 242.419993 
L 140.744445 241.807439 
L 140.996923 242.180533 
L 141.249401 242.139476 
L 141.501879 242.213922 
L 141.754357 242.41405 
L 142.259314 242.339305 
L 142.76427 242.281922 
L 143.016748 242.558683 
L 143.269226 242.304631 
L 143.521705 242.312142 
L 143.774183 241.983909 
L 144.026661 241.929677 
L 144.279139 242.333379 
L 144.531617 242.462646 
L 144.784095 242.352363 
L 145.036574 242.000495 
L 145.289052 242.529149 
L 145.54153 241.887135 
L 146.298964 242.49258 
L 146.551443 242.614248 
L 146.803921 242.261622 
L 147.056399 242.163107 
L 147.308877 242.297206 
L 147.561355 242.067023 
L 147.813833 241.625833 
L 148.066312 241.978221 
L 148.31879 242.037475 
L 148.571268 242.379092 
L 148.823746 242.281868 
L 149.076224 242.440664 
L 149.581181 242.274897 
L 150.086137 242.352526 
L 150.338615 242.440753 
L 150.591093 242.027302 
L 150.843571 242.427163 
L 151.09605 241.282227 
L 151.348528 241.207862 
L 151.601006 242.363127 
L 152.610919 242.31286 
L 152.863397 242.200673 
L 153.115875 242.548714 
L 153.368353 242.207501 
L 153.620831 242.238391 
L 153.873309 242.438654 
L 154.125788 241.992143 
L 154.378266 242.357612 
L 154.630744 242.463256 
L 154.883222 242.298285 
L 155.1357 242.552655 
L 155.388178 242.429418 
L 155.640657 242.460593 
L 155.893135 242.347236 
L 156.145613 241.951067 
L 156.650569 242.374657 
L 157.155526 242.111645 
L 157.408004 242.545231 
L 158.165438 242.313748 
L 158.670395 242.273926 
L 159.175351 242.526647 
L 159.932785 242.249857 
L 160.185264 242.486173 
L 160.437742 242.525856 
L 160.69022 242.22484 
L 160.942698 242.380907 
L 161.195176 242.299338 
L 161.447654 242.400807 
L 161.700133 242.259018 
L 161.952611 242.580211 
L 162.205089 242.291358 
L 162.457567 242.258978 
L 162.710045 242.4097 
L 163.215001 242.350626 
L 163.46748 242.472141 
L 163.719958 242.418658 
L 163.972436 242.061218 
L 164.224914 242.110672 
L 164.477392 242.501179 
L 164.72987 242.256189 
L 165.234827 242.552621 
L 165.487305 242.346392 
L 165.739783 242.632587 
L 165.992261 242.431576 
L 166.244739 242.575215 
L 166.497218 242.26198 
L 167.002174 242.203293 
L 167.254652 242.20944 
L 167.50713 242.074382 
L 167.759608 242.64131 
L 168.012087 241.91084 
L 168.517043 242.490593 
L 168.769521 242.227331 
L 169.021999 242.650671 
L 169.526956 242.21731 
L 169.779434 242.204804 
L 170.28439 242.600902 
L 171.294303 242.593573 
L 171.546781 242.275461 
L 172.304215 242.528516 
L 172.556694 242.217457 
L 172.809172 242.556981 
L 173.06165 242.126788 
L 173.314128 242.459797 
L 173.566606 242.602213 
L 174.071563 242.169711 
L 174.324041 242.538314 
L 174.576519 242.374755 
L 175.586432 242.503033 
L 176.091388 242.221234 
L 176.343866 242.288122 
L 176.596344 241.949269 
L 177.101301 241.879633 
L 177.606257 242.337284 
L 177.858735 242.174502 
L 178.363691 242.399872 
L 178.61617 242.089277 
L 178.868648 242.534131 
L 179.121126 242.277771 
L 179.87856 242.192149 
L 180.131039 242.391088 
L 180.635995 242.130147 
L 181.140951 242.388584 
L 181.393429 242.266182 
L 182.150864 242.525647 
L 182.403342 242.637153 
L 182.65582 242.341282 
L 183.160777 242.438886 
L 183.413255 242.151581 
L 183.665733 242.497018 
L 183.918211 242.437073 
L 184.170689 242.562143 
L 185.180602 242.515831 
L 185.43308 241.89031 
L 185.685558 242.559442 
L 185.938036 242.62656 
L 186.190515 242.432163 
L 186.442993 242.080052 
L 186.695471 242.140677 
L 186.947949 242.397921 
L 187.452905 242.481017 
L 187.705384 242.215007 
L 187.957862 242.552352 
L 188.21034 242.441371 
L 188.462818 242.501 
L 188.715296 242.425225 
L 188.967774 242.589034 
L 189.220253 242.306998 
L 189.472731 242.209704 
L 189.725209 242.611855 
L 189.977687 242.59716 
L 190.230165 242.377098 
L 190.482643 242.516086 
L 190.735122 242.261625 
L 190.9876 242.522004 
L 191.240078 242.533188 
L 191.492556 242.34384 
L 191.745034 242.548568 
L 192.249991 242.33401 
L 192.502469 242.506815 
L 193.007425 242.416494 
L 193.259903 242.303828 
L 194.269816 242.545803 
L 194.522294 242.257151 
L 194.774772 242.451875 
L 195.02725 242.235393 
L 195.279729 242.514841 
L 195.532207 242.313758 
L 195.784685 242.276725 
L 196.037163 242.488776 
L 196.289641 242.270609 
L 196.794598 242.562229 
L 197.552032 242.378379 
L 198.056988 242.431785 
L 198.309467 242.397694 
L 198.814423 241.973526 
L 199.066901 242.519895 
L 199.319379 242.34225 
L 199.571857 242.489467 
L 199.824336 242.378581 
L 200.076814 241.937395 
L 200.329292 242.40914 
L 200.58177 242.505423 
L 200.834248 242.266833 
L 201.086726 242.44993 
L 201.339205 242.169191 
L 201.591683 242.359229 
L 202.096639 242.391432 
L 202.349117 242.54315 
L 202.601595 242.467236 
L 202.854074 242.526798 
L 203.106552 242.459152 
L 203.35903 242.58432 
L 203.611508 242.537331 
L 203.863986 242.361411 
L 204.116464 242.561134 
L 204.368943 242.534918 
L 204.873899 242.130402 
L 205.126377 242.661158 
L 205.378855 242.405968 
L 205.631333 242.465125 
L 205.883812 242.389392 
L 206.13629 242.432159 
L 206.388768 242.265885 
L 206.641246 242.593242 
L 206.893724 242.584233 
L 207.146202 242.341897 
L 207.398681 242.57674 
L 207.651159 242.478784 
L 207.903637 242.601376 
L 208.661071 242.368615 
L 208.91355 242.664143 
L 209.166028 242.198541 
L 209.418506 242.148822 
L 209.923462 242.505267 
L 210.428419 242.480991 
L 210.680897 242.528454 
L 211.185853 242.109075 
L 211.438331 242.634638 
L 211.690809 242.532053 
L 212.195766 241.976825 
L 212.448244 242.686235 
L 212.700722 242.481336 
L 212.9532 242.672336 
L 213.458157 242.52458 
L 213.710635 242.367191 
L 213.963113 242.633603 
L 214.468069 242.173394 
L 214.720547 242.226632 
L 214.973026 242.656597 
L 215.225504 242.485868 
L 215.73046 242.586725 
L 215.982938 242.148467 
L 216.235416 242.203996 
L 216.740373 242.530324 
L 217.245329 242.413343 
L 217.750285 242.089691 
L 218.002764 242.468399 
L 218.255242 242.375586 
L 218.50772 242.654798 
L 218.760198 242.643241 
L 219.012676 242.168073 
L 219.517633 242.697038 
L 219.770111 242.556019 
L 220.022589 242.035445 
L 220.780023 242.614383 
L 221.789936 242.015296 
L 222.042414 242.522392 
L 222.294892 242.279621 
L 222.547371 242.438457 
L 222.799849 242.447086 
L 223.052327 242.318597 
L 223.304805 242.548787 
L 223.557283 242.111136 
L 223.809761 242.551629 
L 224.06224 242.394557 
L 224.314718 242.600278 
L 224.567196 242.203326 
L 224.819674 242.357485 
L 225.072152 241.966354 
L 225.32463 242.397964 
L 225.829587 242.322949 
L 226.082065 242.495169 
L 226.334543 242.322443 
L 226.587021 242.382948 
L 226.839499 242.622546 
L 227.091978 242.433156 
L 228.10189 242.551973 
L 228.606847 242.535136 
L 228.859325 242.238027 
L 229.111803 242.701173 
L 229.616759 242.598528 
L 229.869237 242.340833 
L 230.121716 242.423087 
L 230.626672 242.204096 
L 230.87915 242.121014 
L 231.131628 242.621895 
L 231.384106 242.192685 
L 231.636585 242.617805 
L 232.141541 242.470791 
L 232.898975 242.364928 
L 233.151454 242.090232 
L 233.403932 242.384919 
L 233.908888 242.390183 
L 234.161366 242.501936 
L 234.413844 242.36191 
L 234.666323 242.598333 
L 234.918801 242.405553 
L 235.423757 242.644799 
L 235.676235 242.439428 
L 236.181192 242.469121 
L 236.43367 242.22637 
L 236.938626 242.63299 
L 237.443582 241.966463 
L 237.696061 242.291709 
L 237.948539 242.253164 
L 238.201017 242.531724 
L 238.453495 242.245528 
L 238.705973 242.533463 
L 238.958451 242.415017 
L 240.220842 242.437147 
L 240.47332 242.671787 
L 240.725799 242.554788 
L 240.978277 242.569663 
L 241.230755 242.161922 
L 241.483233 242.219441 
L 241.988189 242.584497 
L 242.240668 242.635752 
L 242.493146 242.3611 
L 242.745624 242.420533 
L 242.998102 242.276 
L 243.25058 242.543058 
L 243.755537 242.58544 
L 244.260493 242.670813 
L 244.512971 242.436039 
L 244.765449 242.449982 
L 245.017927 241.935972 
L 245.270406 242.555633 
L 246.02784 242.573588 
L 246.280318 242.480384 
L 246.532796 242.734112 
L 246.785275 242.47393 
L 247.037753 242.682224 
L 247.290231 242.352549 
L 247.542709 242.609153 
L 247.795187 242.670717 
L 248.047665 242.484239 
L 248.300144 242.595208 
L 248.8051 242.499057 
L 249.057578 242.671576 
L 249.310056 242.395436 
L 249.815013 242.496363 
L 250.067491 242.303165 
L 251.077403 242.551065 
L 251.58236 242.52296 
L 251.834838 242.479092 
L 252.339794 242.58937 
L 252.844751 242.492144 
L 253.097229 242.195545 
L 253.349707 242.642472 
L 253.854663 242.663537 
L 254.107141 242.543951 
L 254.35962 241.880609 
L 254.612098 242.556509 
L 254.864576 242.645576 
L 255.117054 242.446592 
L 255.369532 242.510544 
L 255.62201 242.142482 
L 256.126967 242.577105 
L 256.631923 242.482648 
L 256.884401 242.564885 
L 257.136879 242.148792 
L 257.641836 242.585228 
L 258.146792 242.57152 
L 258.651748 242.547204 
L 258.904227 242.694023 
L 259.156705 242.536825 
L 259.409183 242.589603 
L 259.661661 242.41248 
L 260.166617 242.586774 
L 260.419096 242.47165 
L 260.924052 242.521978 
L 261.17653 242.655576 
L 261.429008 242.487387 
L 261.681486 242.683179 
L 262.186443 242.447748 
L 262.691399 242.725721 
L 263.196355 242.648475 
L 263.448834 242.329157 
L 263.95379 242.523445 
L 264.206268 242.426295 
L 264.458746 242.574142 
L 264.711224 242.40901 
L 264.963703 242.44054 
L 265.216181 242.293584 
L 265.468659 242.391818 
L 265.721137 242.681183 
L 265.973615 242.428384 
L 266.226093 242.603064 
L 266.478572 242.248311 
L 266.73105 242.562347 
L 266.983528 242.550908 
L 267.488484 242.695524 
L 267.740962 242.525692 
L 267.993441 242.609795 
L 268.245919 242.397782 
L 268.498397 241.987014 
L 269.003353 242.524385 
L 269.760788 242.533634 
L 270.013266 242.715362 
L 270.265744 242.438847 
L 270.518222 242.57669 
L 271.023179 242.557308 
L 271.275657 241.758949 
L 271.528135 242.600204 
L 272.033091 242.534948 
L 272.285569 241.778373 
L 272.538048 242.547063 
L 272.790526 242.376884 
L 273.043004 242.699227 
L 273.295482 242.692321 
L 273.800438 242.267077 
L 274.052917 242.711086 
L 274.305395 242.518357 
L 274.557873 242.709304 
L 274.810351 242.667878 
L 275.062829 242.456227 
L 275.315307 242.527457 
L 275.820264 242.404476 
L 276.072742 242.468335 
L 276.32522 242.366554 
L 276.577698 242.676185 
L 277.082655 242.433539 
L 277.587611 242.392953 
L 278.092567 242.569221 
L 278.345045 242.302983 
L 278.597524 242.612343 
L 278.850002 242.425438 
L 279.354958 242.501079 
L 279.607436 242.589188 
L 279.859914 242.447439 
L 280.112393 242.6341 
L 280.364871 242.517585 
L 280.617349 242.619498 
L 280.869827 242.394171 
L 281.122305 242.621777 
L 281.374783 242.632935 
L 281.627262 242.509847 
L 282.384696 242.54585 
L 282.637174 242.438401 
L 282.889652 242.167514 
L 283.394609 242.57273 
L 283.647087 242.439252 
L 283.899565 242.50436 
L 284.152043 242.372336 
L 284.657 242.67858 
L 284.909478 242.262785 
L 285.161956 242.09436 
L 285.414434 242.10036 
L 285.666912 242.527036 
L 285.91939 242.518346 
L 286.171869 242.266072 
L 286.424347 242.622342 
L 286.676825 242.398619 
L 287.434259 242.448882 
L 288.191694 242.492163 
L 288.444172 242.468579 
L 288.69665 242.556714 
L 288.949128 242.466323 
L 289.201606 242.650496 
L 289.454085 242.628136 
L 289.706563 242.731498 
L 289.959041 242.20917 
L 290.463997 242.485642 
L 290.716475 242.385005 
L 290.968954 242.660562 
L 291.221432 242.494454 
L 291.726388 242.567342 
L 292.231344 242.661886 
L 292.483823 242.520049 
L 293.241257 242.521687 
L 293.746213 242.711954 
L 294.756126 242.288788 
L 295.513561 242.626501 
L 296.270995 242.452787 
L 296.523473 242.612384 
L 296.775951 242.486414 
L 297.280908 242.741757 
L 297.533386 242.402357 
L 297.785864 242.526948 
L 298.29082 242.130405 
L 298.543299 242.72418 
L 299.048255 242.482377 
L 299.300733 242.646758 
L 300.310646 242.66697 
L 300.815602 242.341553 
L 301.06808 242.634596 
L 301.573037 242.651643 
L 301.825515 242.308346 
L 302.077993 242.410032 
L 302.330471 241.87662 
L 302.582949 242.569978 
L 302.835427 242.723715 
L 303.087906 242.472722 
L 303.340384 242.598109 
L 303.592862 242.533098 
L 304.097818 242.266556 
L 304.350296 242.702975 
L 304.602775 242.551913 
L 305.612687 242.728862 
L 305.865165 242.419124 
L 306.6226 242.629469 
L 306.875078 242.21003 
L 307.127556 242.518869 
L 307.380034 242.623337 
L 307.884991 242.358805 
L 308.389947 242.644961 
L 308.894903 242.583323 
L 309.39986 242.637823 
L 310.157294 242.543468 
L 310.662251 242.32144 
L 311.167207 242.577981 
L 311.419685 242.44387 
L 311.672163 242.623225 
L 311.924641 242.625411 
L 312.17712 242.355343 
L 312.429598 242.293319 
L 312.682076 242.62918 
L 312.934554 242.549683 
L 313.187032 242.605506 
L 313.43951 242.476504 
L 314.196945 242.54529 
L 314.701901 242.365874 
L 315.206858 242.550564 
L 316.974205 242.571122 
L 317.226683 242.701075 
L 317.479161 242.273207 
L 317.731639 242.231605 
L 317.984117 242.625022 
L 318.741552 242.486402 
L 318.99403 242.428194 
L 319.498986 242.534622 
L 319.751465 242.420605 
L 320.003943 242.664411 
L 320.761377 242.417495 
L 321.266334 242.64534 
L 321.518812 242.301124 
L 321.77129 242.473058 
L 322.023768 242.132934 
L 322.276246 242.286087 
L 322.528724 242.596969 
L 323.033681 242.596306 
L 323.538637 242.440817 
L 323.791115 242.573663 
L 324.043593 242.4434 
L 324.296072 242.631162 
L 324.801028 242.680489 
L 325.053506 242.458054 
L 325.810941 242.693028 
L 326.063419 242.665562 
L 326.315897 242.473273 
L 326.820853 242.661027 
L 327.073331 242.484273 
L 327.830766 242.598808 
L 328.840679 242.27617 
L 329.093157 242.597799 
L 329.345635 242.695076 
L 329.598113 242.369518 
L 329.850591 242.562758 
L 330.103069 242.299863 
L 330.355548 242.690308 
L 330.608026 242.428873 
L 330.860504 242.400597 
L 331.112982 242.732588 
L 331.36546 242.482658 
L 331.617938 242.648408 
L 331.870417 242.475238 
L 332.880329 242.690511 
L 333.132807 242.581284 
L 333.385286 242.779217 
L 334.14272 242.581373 
L 334.395198 242.264469 
L 334.647676 242.520792 
L 335.152633 242.611679 
L 335.405111 242.42449 
L 336.415024 242.589086 
L 336.667502 242.500978 
L 336.91998 242.586125 
L 337.172458 242.171444 
L 337.424936 242.31149 
L 337.677414 242.757387 
L 338.434849 242.165286 
L 338.939805 242.573075 
L 339.69724 242.526732 
L 339.949718 242.690574 
L 340.454674 242.501234 
L 340.707152 242.644847 
L 341.464587 242.717428 
L 341.717065 242.518253 
L 341.969543 242.668684 
L 342.222021 242.45854 
L 342.4745 242.520147 
L 342.979456 242.454053 
L 343.231934 242.503116 
L 343.484412 242.364444 
L 343.73689 242.591316 
L 343.989369 242.49638 
L 344.241847 242.138914 
L 344.494325 242.609609 
L 344.999281 242.456919 
L 345.251759 242.370648 
L 345.504238 242.697419 
L 345.756716 242.5033 
L 346.009194 242.606169 
L 346.261672 242.35304 
L 346.766628 242.602232 
L 347.019107 242.395245 
L 347.524063 242.613018 
L 347.776541 242.402849 
L 348.029019 242.607274 
L 348.281497 242.311682 
L 348.533976 242.382587 
L 348.786454 242.643514 
L 349.038932 242.434445 
L 349.29141 242.734824 
L 349.796366 242.415202 
L 350.048845 242.59536 
L 350.301323 242.381955 
L 350.553801 242.598723 
L 350.806279 242.590967 
L 351.058757 242.405171 
L 351.311235 242.407121 
L 351.563714 242.626309 
L 352.06867 242.446814 
L 352.321148 242.179055 
L 352.826104 242.670392 
L 353.078583 242.39997 
L 353.331061 242.562255 
L 353.583539 242.507241 
L 353.836017 242.260475 
L 354.088495 242.664091 
L 354.84593 242.682185 
L 355.098408 242.498702 
L 355.350886 242.609204 
L 355.603364 242.25628 
L 356.108321 242.72666 
L 356.360799 242.711295 
L 356.613277 242.394898 
L 356.865755 242.645169 
L 357.118233 242.404969 
L 357.370711 242.488634 
L 357.62319 242.418433 
L 357.875668 242.632111 
L 358.128146 242.387236 
L 358.88558 242.645281 
L 359.390537 242.585989 
L 359.643015 242.735634 
L 359.895493 242.590602 
L 360.400449 242.742215 
L 360.905406 242.325948 
L 361.157884 242.626399 
L 361.410362 242.579195 
L 361.66284 242.645444 
L 361.915318 242.442565 
L 362.420275 242.751103 
L 362.672753 242.454965 
L 362.925231 242.657584 
L 363.177709 242.403701 
L 363.430187 242.668333 
L 363.935144 242.598403 
L 364.187622 242.209772 
L 364.4401 242.45577 
L 364.692578 242.369026 
L 364.945056 242.611368 
L 365.197535 242.552916 
L 365.450013 242.754044 
L 365.702491 242.423594 
L 365.954969 242.333421 
L 366.207447 242.66073 
L 366.459925 242.540208 
L 366.712404 242.693292 
L 367.21736 242.259679 
L 367.469838 242.582593 
L 367.722316 242.484632 
L 367.974794 242.614416 
L 368.227273 242.44259 
L 368.732229 242.620581 
L 368.984707 242.30914 
L 369.237185 242.572399 
L 369.742142 242.657246 
L 369.99462 242.129866 
L 370.247098 242.439876 
L 370.499576 242.474423 
L 370.752054 242.273288 
L 371.509489 242.630237 
L 371.761967 242.668487 
L 372.266923 242.389706 
L 372.519401 242.540802 
L 372.77188 242.513228 
L 373.024358 242.697689 
L 373.276836 242.502524 
L 373.781792 242.48687 
L 374.03427 242.714031 
L 374.539227 242.533318 
L 375.296661 242.590661 
L 375.549139 242.429689 
L 375.801618 242.592688 
L 376.306574 242.486884 
L 376.559052 242.205138 
L 376.81153 242.360923 
L 377.064008 242.274625 
L 377.316487 242.429636 
L 377.821443 242.402804 
L 378.326399 242.688292 
L 378.578877 242.620128 
L 378.831356 242.687992 
L 379.083834 242.545488 
L 379.336312 242.677033 
L 379.841268 242.43034 
L 380.093746 242.705389 
L 380.598703 242.614326 
L 381.103659 242.522723 
L 381.356137 242.289436 
L 381.608615 242.70549 
L 381.861094 242.533585 
L 382.36605 242.491383 
L 382.618528 242.711599 
L 382.871006 242.564656 
L 383.123484 242.652997 
L 383.375963 242.362613 
L 383.628441 242.535543 
L 384.385875 242.673973 
L 384.638353 242.436312 
L 385.395788 242.670669 
L 385.648266 242.383062 
L 386.153222 242.728037 
L 386.405701 242.553967 
L 386.658179 242.625522 
L 387.668091 242.346711 
L 387.92057 242.570224 
L 388.173048 242.613397 
L 388.678004 242.31419 
L 389.18296 242.618773 
L 389.435439 242.362323 
L 389.687917 242.362224 
L 390.192873 242.74309 
L 390.445351 242.588748 
L 391.707742 242.533712 
L 391.96022 242.527466 
L 392.212698 242.403211 
L 392.465177 242.524452 
L 392.717655 242.462002 
L 392.970133 242.614747 
L 393.222611 242.539333 
L 393.980046 242.675289 
L 394.73748 242.586735 
L 394.73748 242.586735 
" style="fill:none;stroke:#1f77b4;stroke-linecap:square;stroke-width:1.5;"/>
   </g>
   <g id="line2d_34">
    <path clip-path="url(#pf0b6525df2)" d="M 73.832727 126.160016 
L 74.080202 205.756147 
L 74.327677 212.405402 
L 75.070101 219.887708 
L 75.812526 225.255962 
L 76.55495 229.242598 
L 77.297375 232.226536 
L 78.039799 234.494267 
L 78.782224 236.242744 
L 79.772123 237.972178 
L 80.762022 239.21739 
L 81.999396 240.299726 
L 83.484245 241.154124 
L 84.969094 241.707783 
L 87.938792 242.279644 
L 89.423641 242.44395 
L 99.817583 242.713518 
L 163.418612 242.740482 
L 171.585281 242.746284 
L 175.792353 242.735137 
L 179.75195 242.744679 
L 219.595396 242.74824 
L 224.049943 242.745597 
L 229.741864 242.744563 
L 323.782295 242.751885 
L 325.762094 242.755724 
L 331.20654 242.765629 
L 332.443914 242.768066 
L 336.89846 242.758379 
L 342.590381 242.760605 
L 348.282302 242.751938 
L 350.509576 242.764534 
L 358.42877 242.750449 
L 360.656043 242.761756 
L 365.60554 242.770969 
L 375.752007 242.762003 
L 384.413626 242.767392 
L 394.560093 242.771803 
L 394.560093 242.771803 
" style="fill:none;stroke:#ff7f0e;stroke-linecap:square;stroke-width:1.5;"/>
   </g>
   <g id="line2d_35">
    <path clip-path="url(#pf0b6525df2)" d="M 73.840035 61.745502 
L 74.604384 128.462723 
L 75.113949 158.548823 
L 75.623515 178.714794 
L 76.133081 191.458663 
L 76.642646 199.250194 
L 77.152212 203.983137 
L 77.661777 206.914398 
L 78.171343 208.819477 
L 78.935691 210.667737 
L 79.70004 211.936659 
L 80.973954 213.554587 
L 83.012216 215.712704 
L 85.814827 218.330537 
L 88.617438 220.657819 
L 91.674832 222.911174 
L 94.987009 225.062656 
L 98.299185 226.952348 
L 101.866144 228.736067 
L 105.942669 230.503454 
L 110.273977 232.111547 
L 114.860068 233.563343 
L 119.955724 234.9242 
L 125.306163 236.11942 
L 131.420951 237.24662 
L 137.535738 238.170995 
L 145.943571 239.178804 
L 154.860969 239.993835 
L 163.778368 240.615481 
L 176.517508 241.260623 
L 193.842739 241.828108 
L 217.282758 242.260725 
L 258.30279 242.581619 
L 360.215915 242.729399 
L 394.611594 242.736325 
L 394.611594 242.736325 
" style="fill:none;stroke:#2ca02c;stroke-linecap:square;stroke-width:1.5;"/>
   </g>
   <g id="line2d_36">
    <path clip-path="url(#pf0b6525df2)" d="M 78.434536 180.44762 
L 83.28382 242.260009 
L 88.133104 242.252726 
L 92.982388 242.157686 
L 97.831672 242.42775 
L 102.680956 242.275574 
L 107.53024 242.534713 
L 112.379524 242.595894 
L 117.228807 242.254625 
L 122.078091 242.536563 
L 126.927375 242.585941 
L 131.776659 242.729959 
L 136.625943 242.5869 
L 141.475227 242.762907 
L 146.324511 242.817138 
L 151.173795 243.191132 
L 156.023078 243.279281 
L 160.872362 243.482939 
L 165.721646 243.563532 
L 170.57093 243.928424 
L 175.420214 243.70243 
L 180.269498 244.283463 
L 185.118782 244.731792 
L 189.968066 245.1403 
L 194.81735 245.166684 
L 199.666633 245.709926 
L 204.515917 246.524512 
L 209.365201 246.77629 
L 214.214485 247.29511 
L 219.063769 247.75508 
L 223.913053 248.109457 
L 228.762337 248.505822 
L 233.611621 249.115604 
L 238.460905 249.403936 
L 243.310188 249.456454 
L 248.159472 249.786691 
L 253.008756 250.390868 
L 257.85804 251.090771 
L 262.707324 251.42956 
L 267.556608 251.753769 
L 272.405892 252.358309 
L 277.255176 253.12853 
L 282.104459 253.697891 
L 286.953743 254.527822 
L 291.803027 254.705136 
L 296.652311 255.198689 
L 301.501595 255.454782 
L 306.350879 256.259241 
L 311.200163 257.018266 
L 316.049447 257.596365 
L 320.898731 258.114569 
L 325.748014 258.765978 
L 330.597298 259.083197 
L 335.446582 259.963882 
L 340.295866 260.376236 
L 345.14515 261.160677 
L 349.994434 262.419958 
L 354.843718 262.923487 
L 359.693002 264.06967 
L 364.542286 264.432593 
L 369.391569 265.137002 
L 374.240853 265.836246 
L 379.090137 266.447003 
L 383.939421 267.40015 
L 388.788705 267.934301 
L 393.637989 268.594157 
L 398.487273 269.437614 
" style="fill:none;stroke:#d62728;stroke-dasharray:5.55,2.4;stroke-dashoffset:0;stroke-width:1.5;"/>
   </g>
   <g id="line2d_37">
    <path clip-path="url(#pf0b6525df2)" d="M 77.632359 180.44762 
L 81.679465 242.260009 
L 85.726572 242.252726 
L 89.773678 242.157686 
L 93.820785 242.42775 
L 97.867892 242.275574 
L 101.914998 242.534713 
L 105.962105 242.595894 
L 110.009211 242.254625 
L 114.056318 242.536563 
L 118.103424 242.585941 
L 122.150531 242.729959 
L 126.197637 242.5869 
L 130.244744 242.762907 
L 134.29185 242.817138 
L 138.338957 243.191132 
L 142.386063 243.279281 
L 146.43317 243.482939 
L 150.480276 243.563532 
L 154.527383 243.928424 
L 158.574489 243.70243 
L 162.621596 244.283463 
L 166.668702 244.731792 
L 170.715809 245.1403 
L 174.762915 245.166684 
L 178.810022 245.709926 
L 182.857128 246.524512 
L 186.904235 246.77629 
L 190.951341 247.29511 
L 194.998448 247.75508 
L 199.045554 248.109457 
L 203.092661 248.505822 
L 207.139767 249.115604 
L 211.186874 249.403936 
L 215.23398 249.456454 
L 219.281087 249.786691 
L 223.328193 250.390868 
L 227.3753 251.090795 
L 231.422406 251.430357 
L 235.469513 251.753263 
L 239.516619 252.357496 
L 243.563726 253.13141 
L 247.610832 253.696596 
L 251.657939 254.526786 
L 255.705045 254.703961 
L 259.752152 255.201698 
L 263.799258 255.44363 
L 267.846365 256.191193 
L 271.893471 256.73802 
L 275.940578 257.480149 
L 279.987684 257.973581 
L 284.034791 258.668084 
L 288.081897 259.004252 
L 292.129004 259.556525 
L 296.17611 260.294372 
L 300.223217 260.750655 
L 304.270323 261.904234 
L 308.31743 262.462941 
L 312.364536 263.667102 
L 316.411643 264.016275 
L 320.458749 264.833139 
L 324.505856 265.755445 
L 328.552963 266.794001 
L 332.600069 267.496649 
L 336.647176 267.920713 
L 340.694282 268.725057 
L 344.741389 269.771459 
L 348.788495 269.645521 
L 352.835602 270.346429 
L 356.882708 271.066199 
L 360.929815 272.132779 
L 364.976921 272.515122 
L 369.024028 273.376586 
L 373.071134 273.805696 
L 377.118241 274.729234 
L 381.165347 275.059681 
L 385.212454 275.515601 
L 389.25956 276.26896 
L 393.306667 276.595892 
L 397.353773 277.125368 
" style="fill:none;stroke:#9467bd;stroke-dasharray:5.55,2.4;stroke-dashoffset:0;stroke-width:1.5;"/>
   </g>
   <g id="line2d_38">
    <path clip-path="url(#pf0b6525df2)" d="M 76.778117 180.44762 
L 79.970981 242.260009 
L 83.163845 242.252726 
L 86.356709 242.157686 
L 89.549573 242.42775 
L 92.742437 242.275574 
L 95.935302 242.534713 
L 99.128166 242.595894 
L 102.32103 242.254625 
L 105.513894 242.536563 
L 108.706758 242.585941 
L 111.899623 242.729959 
L 115.092487 242.5869 
L 118.285351 242.762907 
L 121.478215 242.817138 
L 124.671079 243.191132 
L 127.863943 243.279281 
L 131.056808 243.482939 
L 134.249672 243.563532 
L 137.442536 243.928424 
L 140.6354 243.70243 
L 143.828264 244.283463 
L 147.021128 244.731792 
L 150.213993 245.1403 
L 153.406857 245.166684 
L 156.599721 245.709926 
L 159.792585 246.524512 
L 162.985449 246.776229 
L 166.178313 247.294747 
L 169.371178 247.759969 
L 172.564042 248.101267 
L 175.756906 248.490544 
L 178.94977 249.10497 
L 182.142634 249.402405 
L 185.335498 249.370688 
L 188.528363 249.915084 
L 191.721227 250.317685 
L 194.914091 251.179915 
L 198.106955 251.411991 
L 201.299819 251.829904 
L 204.492683 252.213222 
L 207.685548 253.151137 
L 210.878412 253.592486 
L 214.071276 254.083998 
L 217.26414 254.781209 
L 220.457004 255.197534 
L 223.649869 255.749301 
L 226.842733 256.279857 
L 230.035597 256.875301 
L 233.228461 257.334685 
L 236.421325 257.821353 
L 239.614189 258.091451 
L 242.807054 258.120264 
L 245.999918 258.946501 
L 249.192782 259.555113 
L 252.385646 259.785539 
L 255.57851 260.648174 
L 258.771374 261.085073 
L 261.964239 262.20625 
L 265.157103 262.488975 
L 268.349967 263.156168 
L 271.542831 263.50076 
L 274.735695 263.776762 
L 277.928559 264.5693 
L 281.121424 264.956859 
L 284.314288 265.256264 
L 287.507152 265.666589 
L 290.700016 266.167561 
L 293.89288 266.310043 
L 297.085744 266.91518 
L 300.278609 266.916254 
L 303.471473 267.540018 
L 306.664337 267.352529 
L 309.857201 267.539774 
L 313.050065 268.183535 
L 316.242929 268.246313 
L 319.435794 267.963974 
L 322.628658 268.808602 
L 325.821522 268.943864 
L 329.014386 269.525497 
L 332.20725 269.537957 
L 335.400115 270.0658 
L 338.592979 270.148871 
L 341.785843 270.601683 
L 344.978707 271.037061 
L 348.171571 271.410471 
L 351.364435 271.382637 
L 354.5573 272.015199 
L 357.750164 272.594018 
L 360.943028 273.185923 
L 364.135892 273.586104 
L 367.328756 273.692039 
L 370.52162 274.011077 
L 373.714485 273.930976 
L 376.907349 274.106258 
L 380.100213 274.376253 
L 383.293077 274.623992 
L 386.485941 275.021067 
L 389.678805 274.980929 
L 392.87167 275.264084 
L 396.064534 275.666966 
" style="fill:none;stroke:#8c564b;stroke-dasharray:5.55,2.4;stroke-dashoffset:0;stroke-width:1.5;"/>
   </g>
   <g id="line2d_39">
    <path clip-path="url(#pf0b6525df2)" d="M 75.734437 180.44762 
L 77.883622 242.260009 
L 82.181991 242.157686 
L 84.331176 242.42775 
L 86.480361 242.275574 
L 88.629545 242.562642 
L 90.77873 242.597008 
L 92.927915 242.203061 
L 95.077099 242.485553 
L 97.226284 242.49273 
L 99.375469 242.929508 
L 101.524654 242.747931 
L 105.823023 242.852819 
L 107.972208 243.187386 
L 114.419762 243.541149 
L 116.568946 243.920926 
L 118.718131 243.669594 
L 120.867316 244.380594 
L 123.016501 244.887071 
L 129.464055 245.616299 
L 131.613239 246.590945 
L 133.762424 247.148832 
L 135.911609 247.572445 
L 142.359163 248.036972 
L 144.508348 248.72422 
L 146.657532 249.132319 
L 148.806717 248.918784 
L 150.955902 249.41728 
L 155.254271 250.097482 
L 157.403456 249.807973 
L 159.55264 250.459795 
L 161.701825 250.56922 
L 163.85101 250.958792 
L 166.000195 251.124342 
L 168.149379 251.10835 
L 172.447749 251.811138 
L 174.596933 251.935035 
L 176.746118 252.288006 
L 178.895303 252.219523 
L 181.044487 252.442698 
L 183.193672 252.941993 
L 185.342857 253.073165 
L 187.492042 253.334144 
L 189.641226 253.3577 
L 191.790411 253.822885 
L 196.08878 254.453706 
L 198.237965 254.500569 
L 200.38715 254.964015 
L 204.685519 255.516919 
L 208.983889 255.496748 
L 211.133073 255.926754 
L 213.282258 255.652286 
L 215.431443 255.958001 
L 217.580627 256.095169 
L 219.729812 256.380743 
L 221.878997 256.438775 
L 226.177366 256.818313 
L 228.326551 256.908304 
L 230.475736 257.343214 
L 236.92329 257.872703 
L 239.072474 257.241494 
L 241.221659 257.946454 
L 243.370844 257.826203 
L 249.818398 258.323543 
L 251.967583 258.228046 
L 254.116767 258.283655 
L 256.265952 258.605501 
L 258.415137 258.60635 
L 260.564321 258.890799 
L 264.862691 259.056869 
L 267.011876 259.039019 
L 269.16106 259.198529 
L 271.310245 259.142798 
L 273.45943 259.342401 
L 275.608614 259.326738 
L 277.757799 259.572742 
L 279.906984 259.524104 
L 282.056168 259.764824 
L 288.503723 259.84328 
L 292.802092 260.146693 
L 294.951277 260.395975 
L 297.100461 260.285539 
L 303.548015 260.57953 
L 307.846385 260.778467 
L 309.99557 260.990678 
L 312.144754 260.815377 
L 314.293939 260.801406 
L 316.443124 261.146205 
L 318.592308 261.288146 
L 320.741493 261.310697 
L 325.039862 261.546599 
L 329.338232 261.611628 
L 335.785786 261.652491 
L 340.084155 261.990253 
L 342.23334 261.805301 
L 344.382525 261.972606 
L 357.277633 262.285326 
L 359.426818 262.479204 
L 361.576002 262.342972 
L 374.471111 262.589544 
L 378.76948 262.832233 
L 380.918665 262.702599 
L 383.067849 262.959111 
L 385.217034 263.091535 
L 391.664588 263.17674 
L 393.813773 263.254932 
L 395.962958 263.196285 
L 395.962958 263.196285 
" style="fill:none;stroke:#e377c2;stroke-dasharray:5.55,2.4;stroke-dashoffset:0;stroke-width:1.5;"/>
   </g>
   <g id="line2d_40">
    <path clip-path="url(#pf0b6525df2)" d="M 74.766432 180.44762 
L 75.947611 242.446225 
L 77.12879 242.407578 
L 78.309969 241.904938 
L 79.491149 242.408735 
L 80.672328 242.231914 
L 83.034686 242.550604 
L 84.215866 242.20236 
L 85.397045 242.436591 
L 86.578224 242.179712 
L 87.759403 242.330664 
L 88.940583 242.162843 
L 90.121762 242.172937 
L 91.302941 242.436115 
L 94.846479 242.61629 
L 96.027658 242.853441 
L 98.390017 242.69663 
L 103.114734 242.953497 
L 104.295913 243.355548 
L 107.83945 243.418726 
L 110.201809 243.803321 
L 111.382988 243.271838 
L 112.564167 243.957211 
L 114.926526 244.030705 
L 117.288884 244.478791 
L 119.651243 244.640613 
L 120.832422 244.990644 
L 122.013601 244.952185 
L 123.194781 245.114733 
L 124.37596 245.117195 
L 125.557139 245.422949 
L 126.738318 245.337165 
L 127.919498 245.577775 
L 129.100677 245.584744 
L 130.281856 245.825577 
L 131.463035 245.908717 
L 133.825394 246.298834 
L 136.187752 246.121855 
L 137.368932 246.397498 
L 139.73129 246.583673 
L 140.912469 246.856911 
L 142.093649 246.710391 
L 143.274828 247.069075 
L 144.456007 246.923827 
L 145.637186 247.381343 
L 147.999545 247.4634 
L 149.180724 247.757519 
L 157.448979 248.449214 
L 160.992516 248.560673 
L 163.354875 248.932094 
L 164.536054 248.733218 
L 165.717233 249.018134 
L 166.898413 248.902557 
L 169.260771 249.247975 
L 170.44195 249.323527 
L 171.62313 249.215894 
L 176.347847 249.429055 
L 177.529026 249.383199 
L 179.891384 249.57533 
L 181.072564 249.475815 
L 183.434922 249.608777 
L 184.616101 249.412768 
L 185.79728 249.669997 
L 191.703177 249.743454 
L 192.884356 249.950486 
L 195.246714 250.000153 
L 197.609073 250.014912 
L 201.152611 250.044211 
L 202.33379 249.970095 
L 205.877328 250.111789 
L 208.239686 250.160501 
L 211.783224 250.289496 
L 220.051479 250.40066 
L 221.232658 250.281697 
L 222.413837 250.569906 
L 224.776195 250.563736 
L 228.319733 250.75882 
L 230.682092 250.698249 
L 231.863271 250.788815 
L 233.04445 250.732064 
L 234.225629 250.905835 
L 237.769167 250.971853 
L 238.950346 250.892091 
L 240.131526 251.027175 
L 241.312705 250.950585 
L 243.675063 251.201243 
L 253.124497 251.232626 
L 254.305677 251.336625 
L 256.668035 251.308756 
L 257.849214 251.393848 
L 259.030394 251.321415 
L 261.392752 251.354513 
L 263.75511 251.447648 
L 264.93629 251.476529 
L 266.117469 251.334847 
L 268.479827 251.493859 
L 273.204544 251.545176 
L 274.385724 251.401229 
L 276.748082 251.547382 
L 277.929261 251.635278 
L 279.110441 251.600863 
L 281.472799 251.687604 
L 283.835158 251.742737 
L 296.828129 251.856702 
L 298.009309 252.117062 
L 299.190488 251.986068 
L 307.458742 252.07455 
L 308.639922 252.151303 
L 311.00228 252.017854 
L 312.183459 252.155689 
L 314.545818 252.047213 
L 315.726997 252.203886 
L 316.908176 252.071427 
L 318.089356 252.308947 
L 320.451714 252.205874 
L 321.632893 252.363652 
L 323.995252 252.348592 
L 325.176431 252.498423 
L 326.35761 252.41755 
L 327.53879 252.476072 
L 329.901148 252.274443 
L 331.082327 252.428884 
L 351.162374 252.758086 
L 352.343554 252.680092 
L 353.524733 252.803356 
L 355.887091 252.891382 
L 357.068271 252.976881 
L 359.430629 252.816898 
L 360.611808 253.081604 
L 362.974167 253.081166 
L 364.155346 252.727231 
L 366.517705 253.09061 
L 368.880063 253.20772 
L 371.242422 253.059519 
L 373.60478 253.32635 
L 374.785959 253.07836 
L 375.967138 253.245668 
L 377.148318 253.260268 
L 379.510676 253.429403 
L 385.416572 253.405314 
L 386.597752 253.546155 
L 390.141289 253.400843 
L 392.503648 253.547409 
L 394.866006 253.487809 
L 394.866006 253.487809 
" style="fill:none;stroke:#7f7f7f;stroke-dasharray:5.55,2.4;stroke-dashoffset:0;stroke-width:1.5;"/>
   </g>
   <g id="line2d_41">
    <path clip-path="url(#pf0b6525df2)" d="M 74.426746 180.44762 
L 75.26824 242.574655 
L 76.109734 242.590273 
L 76.951228 242.325115 
L 77.792721 242.62166 
L 78.634215 242.439239 
L 79.475709 242.578343 
L 80.317203 242.555904 
L 81.158697 242.279535 
L 82.00019 242.573558 
L 82.841684 242.324294 
L 83.683178 242.449566 
L 85.366165 242.462854 
L 86.207659 242.239591 
L 87.049153 242.558549 
L 87.890647 242.441829 
L 90.415128 242.50592 
L 91.256622 242.371679 
L 92.098116 242.441071 
L 92.939609 242.288194 
L 95.464091 242.509172 
L 97.147078 242.351108 
L 97.988572 242.55107 
L 100.513054 242.331695 
L 101.354547 242.563364 
L 102.196041 242.50355 
L 103.037535 242.157193 
L 104.720522 242.565487 
L 105.562016 242.561475 
L 106.40351 242.440284 
L 107.245004 242.456455 
L 108.086498 242.590404 
L 108.927991 242.453158 
L 109.769485 242.667619 
L 113.13546 242.826048 
L 113.976954 242.773937 
L 114.818448 242.971535 
L 117.342929 243.111424 
L 119.025917 243.119412 
L 119.867411 243.18358 
L 120.708904 243.114257 
L 121.550398 243.317369 
L 122.391892 243.221823 
L 123.233386 243.597631 
L 124.074879 243.348656 
L 124.916373 243.351666 
L 125.757867 243.716176 
L 126.599361 243.700847 
L 127.440855 243.957709 
L 129.123842 244.047222 
L 129.965336 243.862755 
L 133.331311 244.151752 
L 134.172805 243.994093 
L 135.014299 244.075671 
L 135.855792 244.015934 
L 136.697286 244.345044 
L 137.53878 244.455111 
L 138.380274 244.202945 
L 139.221768 244.545834 
L 142.587743 244.935148 
L 143.429236 244.747974 
L 145.112224 245.026186 
L 145.953718 244.887706 
L 146.795212 244.892224 
L 147.636705 245.073147 
L 155.210149 245.406979 
L 156.051643 245.512041 
L 156.893137 245.330245 
L 159.417618 245.597572 
L 163.625087 245.74642 
L 165.308075 245.66165 
L 169.515544 245.777132 
L 172.040025 245.826832 
L 172.881519 245.775528 
L 175.406 245.958164 
L 177.930482 246.004668 
L 178.771975 245.916997 
L 179.613469 246.082579 
L 180.454963 246.011229 
L 181.296457 246.068106 
L 182.13795 245.954593 
L 182.979444 246.082696 
L 184.662432 246.025499 
L 185.503926 246.165207 
L 193.07737 246.188998 
L 197.284839 246.305345 
L 199.80932 246.278544 
L 201.492307 246.341563 
L 202.333801 246.355531 
L 203.175295 246.220536 
L 204.858283 246.35488 
L 207.382764 246.456558 
L 209.065752 246.385953 
L 210.748739 246.438597 
L 211.590233 246.421269 
L 212.431727 246.521546 
L 214.114714 246.525572 
L 220.005171 246.60765 
L 221.688158 246.691143 
L 228.420109 246.65451 
L 230.103096 246.743333 
L 230.94459 246.417997 
L 231.786084 246.695161 
L 241.884009 246.942066 
L 242.725503 246.813502 
L 243.566997 247.005841 
L 245.249984 246.889303 
L 246.091478 247.023948 
L 246.932972 246.932394 
L 247.774466 247.113193 
L 249.457453 247.063884 
L 251.140441 247.108738 
L 254.506416 247.196263 
L 255.34791 247.099241 
L 257.030897 247.190977 
L 258.713885 247.322427 
L 259.555378 247.233298 
L 260.396872 247.3856 
L 262.07986 247.303684 
L 262.921354 247.471517 
L 266.287329 247.434121 
L 279.751229 247.763235 
L 280.592723 247.59516 
L 282.275711 247.894816 
L 283.117204 247.834889 
L 284.800192 247.912567 
L 285.641686 247.800282 
L 287.324673 247.986702 
L 289.849155 248.013083 
L 293.21513 248.070677 
L 294.056624 247.982404 
L 294.898117 248.092001 
L 298.264093 248.077537 
L 299.94708 248.222727 
L 304.154549 248.324751 
L 304.996043 248.394492 
L 306.67903 248.319861 
L 308.362018 248.290309 
L 309.203512 248.409146 
L 322.667412 248.503587 
L 323.508906 248.629013 
L 326.874881 248.513309 
L 327.716375 248.628405 
L 330.240856 248.487788 
L 331.08235 248.667149 
L 331.923844 248.492905 
L 332.765338 248.471056 
L 333.606831 248.695785 
L 335.289819 248.554036 
L 336.131313 248.76393 
L 337.8143 248.659504 
L 338.655794 248.71675 
L 339.497288 248.625285 
L 340.338782 248.764801 
L 342.863263 248.700059 
L 343.704757 248.789727 
L 345.387744 248.751341 
L 358.010151 248.868763 
L 359.693139 248.956325 
L 361.376126 248.883687 
L 362.21762 249.033593 
L 363.059114 248.854965 
L 363.900608 248.974919 
L 368.94957 248.976854 
L 370.632558 249.070434 
L 372.315545 249.056425 
L 373.998533 249.037588 
L 375.681521 249.020315 
L 376.523014 249.150798 
L 378.206002 249.064194 
L 379.888989 249.18685 
L 381.571977 249.168376 
L 387.462434 249.277835 
L 388.303927 249.084625 
L 389.986915 249.278854 
L 390.828409 249.137895 
L 391.669902 249.278255 
L 394.194384 249.257552 
L 395.035878 249.277556 
L 395.035878 249.277556 
" style="fill:none;stroke:#bcbd22;stroke-dasharray:5.55,2.4;stroke-dashoffset:0;stroke-width:1.5;"/>
   </g>
   <g id="line2d_42">
    <path clip-path="url(#pf0b6525df2)" d="M 74.334119 180.44762 
L 75.082986 242.584697 
L 75.831853 242.662029 
L 76.58072 242.622076 
L 77.329587 242.792768 
L 78.078454 242.604976 
L 78.82732 242.774327 
L 79.576187 242.660715 
L 84.069388 242.727086 
L 84.818255 242.507316 
L 85.567122 242.763534 
L 86.315989 242.667713 
L 88.562589 242.68849 
L 92.306924 242.638405 
L 93.804657 242.596235 
L 94.553524 242.554468 
L 96.051258 242.621633 
L 96.800125 242.703524 
L 97.548992 242.578686 
L 98.297858 242.752636 
L 99.046725 242.762967 
L 99.795592 242.558278 
L 101.293326 242.723622 
L 103.539926 242.56814 
L 104.288793 242.749579 
L 109.530861 242.675227 
L 110.279728 242.757037 
L 111.028595 242.68385 
L 111.777462 242.739764 
L 113.275195 242.556801 
L 114.024062 242.664115 
L 114.772929 242.591965 
L 116.270663 242.652302 
L 117.01953 242.589716 
L 117.768397 242.773432 
L 120.014997 242.635812 
L 120.763864 242.628285 
L 122.261598 242.749405 
L 123.759331 242.527255 
L 125.257065 242.637934 
L 126.754799 242.594397 
L 127.503666 242.654333 
L 129.001399 242.512001 
L 129.750266 242.747796 
L 130.499133 242.755547 
L 131.248 242.400684 
L 131.996867 242.745934 
L 136.490068 242.667976 
L 137.238935 242.788914 
L 137.987802 242.563207 
L 138.736668 242.654436 
L 140.234402 242.647555 
L 140.983269 242.647964 
L 142.481003 242.513922 
L 143.229869 242.723482 
L 143.978736 242.600312 
L 145.47647 242.674722 
L 148.471937 242.605883 
L 149.220804 242.760386 
L 151.467405 242.642743 
L 153.714005 242.777422 
L 154.462872 242.653184 
L 155.960606 242.720497 
L 156.709473 242.69091 
L 157.45834 242.546126 
L 158.207206 242.564352 
L 158.956073 242.697336 
L 166.444742 242.765521 
L 167.193609 242.573397 
L 169.440209 242.771364 
L 170.189076 242.641529 
L 171.68681 242.712465 
L 172.435677 242.531427 
L 173.184543 242.721341 
L 174.682277 242.673796 
L 175.431144 242.82549 
L 176.180011 242.684093 
L 177.677745 242.752996 
L 178.426611 242.59236 
L 179.175478 242.765481 
L 180.673212 242.623659 
L 181.422079 242.798433 
L 182.170946 242.671363 
L 183.668679 242.766887 
L 184.417546 242.618048 
L 187.413014 242.770334 
L 188.910747 242.580065 
L 190.408481 242.764094 
L 191.906215 242.695194 
L 193.403948 242.75413 
L 194.152815 242.674146 
L 194.901682 242.818356 
L 196.399416 242.703036 
L 197.148283 242.843018 
L 197.89715 242.679812 
L 199.394883 242.834157 
L 200.892617 242.601614 
L 201.641484 242.67693 
L 202.390351 242.615187 
L 203.139217 242.715667 
L 203.888084 242.667087 
L 204.636951 242.84082 
L 205.385818 242.735521 
L 206.134685 242.846901 
L 208.381285 242.741094 
L 209.130152 242.824982 
L 209.879019 242.604068 
L 210.627886 242.798897 
L 211.376753 242.662192 
L 212.12562 242.791341 
L 213.623353 242.689111 
L 214.37222 242.84751 
L 215.121087 242.73865 
L 215.869954 242.88244 
L 218.116554 242.835491 
L 221.860889 242.818494 
L 222.609756 242.727867 
L 224.856356 242.903732 
L 226.35409 242.633902 
L 227.102957 242.814258 
L 227.851824 242.722547 
L 228.60069 242.865287 
L 245.824628 242.816689 
L 247.322362 243.001897 
L 249.568962 242.925762 
L 250.317829 242.792024 
L 251.066696 242.947587 
L 254.81103 242.913594 
L 255.559897 243.021919 
L 257.057631 242.945682 
L 257.806497 242.637508 
L 260.801965 242.971553 
L 262.299699 242.849309 
L 263.797432 242.901018 
L 264.546299 242.696905 
L 265.295166 242.966218 
L 266.044033 242.824639 
L 269.0395 243.010525 
L 269.788367 242.778581 
L 271.286101 242.943833 
L 272.034968 243.071022 
L 273.532701 242.901914 
L 274.281568 243.031427 
L 278.774769 243.071369 
L 279.523636 242.91459 
L 281.02137 243.058378 
L 282.519104 242.795462 
L 283.26797 243.051129 
L 284.765704 243.075282 
L 285.514571 242.910127 
L 286.263438 243.053409 
L 291.505506 242.983674 
L 293.003239 243.06297 
L 293.752106 242.923019 
L 294.500973 243.072273 
L 295.24984 242.956957 
L 297.496441 243.162699 
L 298.994174 242.988522 
L 299.743041 243.059006 
L 300.491908 242.980767 
L 301.240775 243.165841 
L 301.989642 243.029862 
L 302.738508 243.171117 
L 303.487375 242.990045 
L 304.236242 242.946271 
L 304.985109 243.113797 
L 307.980576 242.996459 
L 308.729443 243.152496 
L 309.47831 243.17975 
L 310.227177 243.027413 
L 310.976044 243.158784 
L 311.724911 243.031425 
L 318.464712 243.139566 
L 319.213579 243.039446 
L 319.962446 243.244813 
L 321.46018 243.143959 
L 323.70678 243.184938 
L 324.455647 242.987669 
L 325.204514 243.115261 
L 325.953381 242.951475 
L 326.702248 243.16474 
L 328.199981 243.252823 
L 342.428452 243.109434 
L 343.177318 243.300495 
L 344.675052 243.283228 
L 352.163721 243.151419 
L 352.912587 243.412375 
L 353.661454 243.218292 
L 355.908055 243.327205 
L 358.154655 243.224479 
L 358.903522 243.381474 
L 362.647856 243.333397 
L 364.894457 243.366714 
L 366.392191 243.383424 
L 367.141058 243.261103 
L 367.889924 243.411967 
L 368.638791 243.326365 
L 370.136525 243.35133 
L 371.634259 243.334868 
L 373.131992 243.357753 
L 374.629726 243.186413 
L 377.625193 243.363789 
L 379.871794 243.242189 
L 382.118395 243.425121 
L 383.616128 243.334717 
L 384.364995 243.422544 
L 385.113862 243.27325 
L 386.611596 243.424407 
L 387.360462 243.234828 
L 394.849131 243.442717 
L 394.849131 243.442717 
" style="fill:none;stroke:#17becf;stroke-dasharray:5.55,2.4;stroke-dashoffset:0;stroke-width:1.5;"/>
   </g>
   <g id="patch_3">
    <path d="M 57.6 307.584 
L 57.6 41.472 
" style="fill:none;stroke:#000000;stroke-linecap:square;stroke-linejoin:miter;stroke-width:0.8;"/>
   </g>
   <g id="patch_4">
    <path d="M 414.72 307.584 
L 414.72 41.472 
" style="fill:none;stroke:#000000;stroke-linecap:square;stroke-linejoin:miter;stroke-width:0.8;"/>
   </g>
   <g id="patch_5">
    <path d="M 57.6 307.584 
L 414.72 307.584 
" style="fill:none;stroke:#000000;stroke-linecap:square;stroke-linejoin:miter;stroke-width:0.8;"/>
   </g>
   <g id="patch_6">
    <path d="M 57.6 41.472 
L 414.72 41.472 
" style="fill:none;stroke:#000000;stroke-linecap:square;stroke-linejoin:miter;stroke-width:0.8;"/>
   </g>
   <g id="legend_1">
    <g id="patch_7">
     <path d="M 182.2475 196.25325 
L 290.0725 196.25325 
Q 292.0725 196.25325 292.0725 194.25325 
L 292.0725 48.472 
Q 292.0725 46.472 290.0725 46.472 
L 182.2475 46.472 
Q 180.2475 46.472 180.2475 48.472 
L 180.2475 194.25325 
Q 180.2475 196.25325 182.2475 196.25325 
z
" style="fill:#ffffff;opacity:0.8;stroke:#cccccc;stroke-linejoin:miter;"/>
    </g>
    <g id="line2d_43">
     <path d="M 184.2475 54.570437 
L 204.2475 54.570437 
" style="fill:none;stroke:#1f77b4;stroke-linecap:square;stroke-width:1.5;"/>
    </g>
    <g id="line2d_44"/>
    <g id="text_10">
     <!-- SGD, lr 0.1 -->
     <defs>
      <path d="M 53.515625 70.515625 
L 53.515625 60.890625 
Q 47.90625 63.578125 42.921875 64.890625 
Q 37.9375 66.21875 33.296875 66.21875 
Q 25.25 66.21875 20.875 63.09375 
Q 16.5 59.96875 16.5 54.203125 
Q 16.5 49.359375 19.40625 46.890625 
Q 22.3125 44.4375 30.421875 42.921875 
L 36.375 41.703125 
Q 47.40625 39.59375 52.65625 34.296875 
Q 57.90625 29 57.90625 20.125 
Q 57.90625 9.515625 50.796875 4.046875 
Q 43.703125 -1.421875 29.984375 -1.421875 
Q 24.8125 -1.421875 18.96875 -0.25 
Q 13.140625 0.921875 6.890625 3.21875 
L 6.890625 13.375 
Q 12.890625 10.015625 18.65625 8.296875 
Q 24.421875 6.59375 29.984375 6.59375 
Q 38.421875 6.59375 43.015625 9.90625 
Q 47.609375 13.234375 47.609375 19.390625 
Q 47.609375 24.75 44.3125 27.78125 
Q 41.015625 30.8125 33.5 32.328125 
L 27.484375 33.5 
Q 16.453125 35.6875 11.515625 40.375 
Q 6.59375 45.0625 6.59375 53.421875 
Q 6.59375 63.09375 13.40625 68.65625 
Q 20.21875 74.21875 32.171875 74.21875 
Q 37.3125 74.21875 42.625 73.28125 
Q 47.953125 72.359375 53.515625 70.515625 
z
" id="DejaVuSans-53"/>
      <path d="M 59.515625 10.40625 
L 59.515625 29.984375 
L 43.40625 29.984375 
L 43.40625 38.09375 
L 69.28125 38.09375 
L 69.28125 6.78125 
Q 63.578125 2.734375 56.6875 0.65625 
Q 49.8125 -1.421875 42 -1.421875 
Q 24.90625 -1.421875 15.25 8.5625 
Q 5.609375 18.5625 5.609375 36.375 
Q 5.609375 54.25 15.25 64.234375 
Q 24.90625 74.21875 42 74.21875 
Q 49.125 74.21875 55.546875 72.453125 
Q 61.96875 70.703125 67.390625 67.28125 
L 67.390625 56.78125 
Q 61.921875 61.421875 55.765625 63.765625 
Q 49.609375 66.109375 42.828125 66.109375 
Q 29.4375 66.109375 22.71875 58.640625 
Q 16.015625 51.171875 16.015625 36.375 
Q 16.015625 21.625 22.71875 14.15625 
Q 29.4375 6.6875 42.828125 6.6875 
Q 48.046875 6.6875 52.140625 7.59375 
Q 56.25 8.5 59.515625 10.40625 
z
" id="DejaVuSans-47"/>
      <path d="M 19.671875 64.796875 
L 19.671875 8.109375 
L 31.59375 8.109375 
Q 46.6875 8.109375 53.6875 14.9375 
Q 60.6875 21.78125 60.6875 36.53125 
Q 60.6875 51.171875 53.6875 57.984375 
Q 46.6875 64.796875 31.59375 64.796875 
z
M 9.8125 72.90625 
L 30.078125 72.90625 
Q 51.265625 72.90625 61.171875 64.09375 
Q 71.09375 55.28125 71.09375 36.53125 
Q 71.09375 17.671875 61.125 8.828125 
Q 51.171875 0 30.078125 0 
L 9.8125 0 
z
" id="DejaVuSans-44"/>
      <path d="M 11.71875 12.40625 
L 22.015625 12.40625 
L 22.015625 4 
L 14.015625 -11.625 
L 7.71875 -11.625 
L 11.71875 4 
z
" id="DejaVuSans-2c"/>
      <path id="DejaVuSans-20"/>
      <path d="M 41.109375 46.296875 
Q 39.59375 47.171875 37.8125 47.578125 
Q 36.03125 48 33.890625 48 
Q 26.265625 48 22.1875 43.046875 
Q 18.109375 38.09375 18.109375 28.8125 
L 18.109375 0 
L 9.078125 0 
L 9.078125 54.6875 
L 18.109375 54.6875 
L 18.109375 46.1875 
Q 20.953125 51.171875 25.484375 53.578125 
Q 30.03125 56 36.53125 56 
Q 37.453125 56 38.578125 55.875 
Q 39.703125 55.765625 41.0625 55.515625 
z
" id="DejaVuSans-72"/>
      <path d="M 10.6875 12.40625 
L 21 12.40625 
L 21 0 
L 10.6875 0 
z
" id="DejaVuSans-2e"/>
     </defs>
     <g transform="translate(212.2475 58.070437)scale(0.1 -0.1)">
      <use xlink:href="#DejaVuSans-53"/>
      <use x="63.476562" xlink:href="#DejaVuSans-47"/>
      <use x="140.966797" xlink:href="#DejaVuSans-44"/>
      <use x="217.96875" xlink:href="#DejaVuSans-2c"/>
      <use x="249.755859" xlink:href="#DejaVuSans-20"/>
      <use x="281.542969" xlink:href="#DejaVuSans-6c"/>
      <use x="309.326172" xlink:href="#DejaVuSans-72"/>
      <use x="350.439453" xlink:href="#DejaVuSans-20"/>
      <use x="382.226562" xlink:href="#DejaVuSans-30"/>
      <use x="445.849609" xlink:href="#DejaVuSans-2e"/>
      <use x="477.636719" xlink:href="#DejaVuSans-31"/>
     </g>
    </g>
    <g id="line2d_45">
     <path d="M 184.2475 69.248562 
L 204.2475 69.248562 
" style="fill:none;stroke:#ff7f0e;stroke-linecap:square;stroke-width:1.5;"/>
    </g>
    <g id="line2d_46"/>
    <g id="text_11">
     <!-- SGD, lr 0.01 -->
     <g transform="translate(212.2475 72.748562)scale(0.1 -0.1)">
      <use xlink:href="#DejaVuSans-53"/>
      <use x="63.476562" xlink:href="#DejaVuSans-47"/>
      <use x="140.966797" xlink:href="#DejaVuSans-44"/>
      <use x="217.96875" xlink:href="#DejaVuSans-2c"/>
      <use x="249.755859" xlink:href="#DejaVuSans-20"/>
      <use x="281.542969" xlink:href="#DejaVuSans-6c"/>
      <use x="309.326172" xlink:href="#DejaVuSans-72"/>
      <use x="350.439453" xlink:href="#DejaVuSans-20"/>
      <use x="382.226562" xlink:href="#DejaVuSans-30"/>
      <use x="445.849609" xlink:href="#DejaVuSans-2e"/>
      <use x="477.636719" xlink:href="#DejaVuSans-30"/>
      <use x="541.259766" xlink:href="#DejaVuSans-31"/>
     </g>
    </g>
    <g id="line2d_47">
     <path d="M 184.2475 83.926688 
L 204.2475 83.926688 
" style="fill:none;stroke:#2ca02c;stroke-linecap:square;stroke-width:1.5;"/>
    </g>
    <g id="line2d_48"/>
    <g id="text_12">
     <!-- SGD, lr 0.001 -->
     <g transform="translate(212.2475 87.426688)scale(0.1 -0.1)">
      <use xlink:href="#DejaVuSans-53"/>
      <use x="63.476562" xlink:href="#DejaVuSans-47"/>
      <use x="140.966797" xlink:href="#DejaVuSans-44"/>
      <use x="217.96875" xlink:href="#DejaVuSans-2c"/>
      <use x="249.755859" xlink:href="#DejaVuSans-20"/>
      <use x="281.542969" xlink:href="#DejaVuSans-6c"/>
      <use x="309.326172" xlink:href="#DejaVuSans-72"/>
      <use x="350.439453" xlink:href="#DejaVuSans-20"/>
      <use x="382.226562" xlink:href="#DejaVuSans-30"/>
      <use x="445.849609" xlink:href="#DejaVuSans-2e"/>
      <use x="477.636719" xlink:href="#DejaVuSans-30"/>
      <use x="541.259766" xlink:href="#DejaVuSans-30"/>
      <use x="604.882812" xlink:href="#DejaVuSans-31"/>
     </g>
    </g>
    <g id="line2d_49">
     <path d="M 184.2475 98.604812 
L 204.2475 98.604812 
" style="fill:none;stroke:#d62728;stroke-dasharray:5.55,2.4;stroke-dashoffset:0;stroke-width:1.5;"/>
    </g>
    <g id="line2d_50"/>
    <g id="text_13">
     <!-- SGN, cg iter 40 -->
     <defs>
      <path d="M 9.8125 72.90625 
L 23.09375 72.90625 
L 55.421875 11.921875 
L 55.421875 72.90625 
L 64.984375 72.90625 
L 64.984375 0 
L 51.703125 0 
L 19.390625 60.984375 
L 19.390625 0 
L 9.8125 0 
z
" id="DejaVuSans-4e"/>
      <path d="M 45.40625 27.984375 
Q 45.40625 37.75 41.375 43.109375 
Q 37.359375 48.484375 30.078125 48.484375 
Q 22.859375 48.484375 18.828125 43.109375 
Q 14.796875 37.75 14.796875 27.984375 
Q 14.796875 18.265625 18.828125 12.890625 
Q 22.859375 7.515625 30.078125 7.515625 
Q 37.359375 7.515625 41.375 12.890625 
Q 45.40625 18.265625 45.40625 27.984375 
z
M 54.390625 6.78125 
Q 54.390625 -7.171875 48.1875 -13.984375 
Q 42 -20.796875 29.203125 -20.796875 
Q 24.46875 -20.796875 20.265625 -20.09375 
Q 16.0625 -19.390625 12.109375 -17.921875 
L 12.109375 -9.1875 
Q 16.0625 -11.328125 19.921875 -12.34375 
Q 23.78125 -13.375 27.78125 -13.375 
Q 36.625 -13.375 41.015625 -8.765625 
Q 45.40625 -4.15625 45.40625 5.171875 
L 45.40625 9.625 
Q 42.625 4.78125 38.28125 2.390625 
Q 33.9375 0 27.875 0 
Q 17.828125 0 11.671875 7.65625 
Q 5.515625 15.328125 5.515625 27.984375 
Q 5.515625 40.671875 11.671875 48.328125 
Q 17.828125 56 27.875 56 
Q 33.9375 56 38.28125 53.609375 
Q 42.625 51.21875 45.40625 46.390625 
L 45.40625 54.6875 
L 54.390625 54.6875 
z
" id="DejaVuSans-67"/>
      <path d="M 9.421875 54.6875 
L 18.40625 54.6875 
L 18.40625 0 
L 9.421875 0 
z
M 9.421875 75.984375 
L 18.40625 75.984375 
L 18.40625 64.59375 
L 9.421875 64.59375 
z
" id="DejaVuSans-69"/>
      <path d="M 18.3125 70.21875 
L 18.3125 54.6875 
L 36.8125 54.6875 
L 36.8125 47.703125 
L 18.3125 47.703125 
L 18.3125 18.015625 
Q 18.3125 11.328125 20.140625 9.421875 
Q 21.96875 7.515625 27.59375 7.515625 
L 36.8125 7.515625 
L 36.8125 0 
L 27.59375 0 
Q 17.1875 0 13.234375 3.875 
Q 9.28125 7.765625 9.28125 18.015625 
L 9.28125 47.703125 
L 2.6875 47.703125 
L 2.6875 54.6875 
L 9.28125 54.6875 
L 9.28125 70.21875 
z
" id="DejaVuSans-74"/>
     </defs>
     <g transform="translate(212.2475 102.104812)scale(0.1 -0.1)">
      <use xlink:href="#DejaVuSans-53"/>
      <use x="63.476562" xlink:href="#DejaVuSans-47"/>
      <use x="140.966797" xlink:href="#DejaVuSans-4e"/>
      <use x="215.771484" xlink:href="#DejaVuSans-2c"/>
      <use x="247.558594" xlink:href="#DejaVuSans-20"/>
      <use x="279.345703" xlink:href="#DejaVuSans-63"/>
      <use x="334.326172" xlink:href="#DejaVuSans-67"/>
      <use x="397.802734" xlink:href="#DejaVuSans-20"/>
      <use x="429.589844" xlink:href="#DejaVuSans-69"/>
      <use x="457.373047" xlink:href="#DejaVuSans-74"/>
      <use x="496.582031" xlink:href="#DejaVuSans-65"/>
      <use x="558.105469" xlink:href="#DejaVuSans-72"/>
      <use x="599.21875" xlink:href="#DejaVuSans-20"/>
      <use x="631.005859" xlink:href="#DejaVuSans-34"/>
      <use x="694.628906" xlink:href="#DejaVuSans-30"/>
     </g>
    </g>
    <g id="line2d_51">
     <path d="M 184.2475 113.282938 
L 204.2475 113.282938 
" style="fill:none;stroke:#9467bd;stroke-dasharray:5.55,2.4;stroke-dashoffset:0;stroke-width:1.5;"/>
    </g>
    <g id="line2d_52"/>
    <g id="text_14">
     <!-- SGN, cg iter 30 -->
     <defs>
      <path d="M 40.578125 39.3125 
Q 47.65625 37.796875 51.625 33 
Q 55.609375 28.21875 55.609375 21.1875 
Q 55.609375 10.40625 48.1875 4.484375 
Q 40.765625 -1.421875 27.09375 -1.421875 
Q 22.515625 -1.421875 17.65625 -0.515625 
Q 12.796875 0.390625 7.625 2.203125 
L 7.625 11.71875 
Q 11.71875 9.328125 16.59375 8.109375 
Q 21.484375 6.890625 26.8125 6.890625 
Q 36.078125 6.890625 40.9375 10.546875 
Q 45.796875 14.203125 45.796875 21.1875 
Q 45.796875 27.640625 41.28125 31.265625 
Q 36.765625 34.90625 28.71875 34.90625 
L 20.21875 34.90625 
L 20.21875 43.015625 
L 29.109375 43.015625 
Q 36.375 43.015625 40.234375 45.921875 
Q 44.09375 48.828125 44.09375 54.296875 
Q 44.09375 59.90625 40.109375 62.90625 
Q 36.140625 65.921875 28.71875 65.921875 
Q 24.65625 65.921875 20.015625 65.03125 
Q 15.375 64.15625 9.8125 62.3125 
L 9.8125 71.09375 
Q 15.4375 72.65625 20.34375 73.4375 
Q 25.25 74.21875 29.59375 74.21875 
Q 40.828125 74.21875 47.359375 69.109375 
Q 53.90625 64.015625 53.90625 55.328125 
Q 53.90625 49.265625 50.4375 45.09375 
Q 46.96875 40.921875 40.578125 39.3125 
z
" id="DejaVuSans-33"/>
     </defs>
     <g transform="translate(212.2475 116.782938)scale(0.1 -0.1)">
      <use xlink:href="#DejaVuSans-53"/>
      <use x="63.476562" xlink:href="#DejaVuSans-47"/>
      <use x="140.966797" xlink:href="#DejaVuSans-4e"/>
      <use x="215.771484" xlink:href="#DejaVuSans-2c"/>
      <use x="247.558594" xlink:href="#DejaVuSans-20"/>
      <use x="279.345703" xlink:href="#DejaVuSans-63"/>
      <use x="334.326172" xlink:href="#DejaVuSans-67"/>
      <use x="397.802734" xlink:href="#DejaVuSans-20"/>
      <use x="429.589844" xlink:href="#DejaVuSans-69"/>
      <use x="457.373047" xlink:href="#DejaVuSans-74"/>
      <use x="496.582031" xlink:href="#DejaVuSans-65"/>
      <use x="558.105469" xlink:href="#DejaVuSans-72"/>
      <use x="599.21875" xlink:href="#DejaVuSans-20"/>
      <use x="631.005859" xlink:href="#DejaVuSans-33"/>
      <use x="694.628906" xlink:href="#DejaVuSans-30"/>
     </g>
    </g>
    <g id="line2d_53">
     <path d="M 184.2475 127.961062 
L 204.2475 127.961062 
" style="fill:none;stroke:#8c564b;stroke-dasharray:5.55,2.4;stroke-dashoffset:0;stroke-width:1.5;"/>
    </g>
    <g id="line2d_54"/>
    <g id="text_15">
     <!-- SGN, cg iter 20 -->
     <g transform="translate(212.2475 131.461062)scale(0.1 -0.1)">
      <use xlink:href="#DejaVuSans-53"/>
      <use x="63.476562" xlink:href="#DejaVuSans-47"/>
      <use x="140.966797" xlink:href="#DejaVuSans-4e"/>
      <use x="215.771484" xlink:href="#DejaVuSans-2c"/>
      <use x="247.558594" xlink:href="#DejaVuSans-20"/>
      <use x="279.345703" xlink:href="#DejaVuSans-63"/>
      <use x="334.326172" xlink:href="#DejaVuSans-67"/>
      <use x="397.802734" xlink:href="#DejaVuSans-20"/>
      <use x="429.589844" xlink:href="#DejaVuSans-69"/>
      <use x="457.373047" xlink:href="#DejaVuSans-74"/>
      <use x="496.582031" xlink:href="#DejaVuSans-65"/>
      <use x="558.105469" xlink:href="#DejaVuSans-72"/>
      <use x="599.21875" xlink:href="#DejaVuSans-20"/>
      <use x="631.005859" xlink:href="#DejaVuSans-32"/>
      <use x="694.628906" xlink:href="#DejaVuSans-30"/>
     </g>
    </g>
    <g id="line2d_55">
     <path d="M 184.2475 142.639187 
L 204.2475 142.639187 
" style="fill:none;stroke:#e377c2;stroke-dasharray:5.55,2.4;stroke-dashoffset:0;stroke-width:1.5;"/>
    </g>
    <g id="line2d_56"/>
    <g id="text_16">
     <!-- SGN, cg iter 10 -->
     <g transform="translate(212.2475 146.139187)scale(0.1 -0.1)">
      <use xlink:href="#DejaVuSans-53"/>
      <use x="63.476562" xlink:href="#DejaVuSans-47"/>
      <use x="140.966797" xlink:href="#DejaVuSans-4e"/>
      <use x="215.771484" xlink:href="#DejaVuSans-2c"/>
      <use x="247.558594" xlink:href="#DejaVuSans-20"/>
      <use x="279.345703" xlink:href="#DejaVuSans-63"/>
      <use x="334.326172" xlink:href="#DejaVuSans-67"/>
      <use x="397.802734" xlink:href="#DejaVuSans-20"/>
      <use x="429.589844" xlink:href="#DejaVuSans-69"/>
      <use x="457.373047" xlink:href="#DejaVuSans-74"/>
      <use x="496.582031" xlink:href="#DejaVuSans-65"/>
      <use x="558.105469" xlink:href="#DejaVuSans-72"/>
      <use x="599.21875" xlink:href="#DejaVuSans-20"/>
      <use x="631.005859" xlink:href="#DejaVuSans-31"/>
      <use x="694.628906" xlink:href="#DejaVuSans-30"/>
     </g>
    </g>
    <g id="line2d_57">
     <path d="M 184.2475 157.317312 
L 204.2475 157.317312 
" style="fill:none;stroke:#7f7f7f;stroke-dasharray:5.55,2.4;stroke-dashoffset:0;stroke-width:1.5;"/>
    </g>
    <g id="line2d_58"/>
    <g id="text_17">
     <!-- SGN, cg iter 5 -->
     <defs>
      <path d="M 10.796875 72.90625 
L 49.515625 72.90625 
L 49.515625 64.59375 
L 19.828125 64.59375 
L 19.828125 46.734375 
Q 21.96875 47.46875 24.109375 47.828125 
Q 26.265625 48.1875 28.421875 48.1875 
Q 40.625 48.1875 47.75 41.5 
Q 54.890625 34.8125 54.890625 23.390625 
Q 54.890625 11.625 47.5625 5.09375 
Q 40.234375 -1.421875 26.90625 -1.421875 
Q 22.3125 -1.421875 17.546875 -0.640625 
Q 12.796875 0.140625 7.71875 1.703125 
L 7.71875 11.625 
Q 12.109375 9.234375 16.796875 8.0625 
Q 21.484375 6.890625 26.703125 6.890625 
Q 35.15625 6.890625 40.078125 11.328125 
Q 45.015625 15.765625 45.015625 23.390625 
Q 45.015625 31 40.078125 35.4375 
Q 35.15625 39.890625 26.703125 39.890625 
Q 22.75 39.890625 18.8125 39.015625 
Q 14.890625 38.140625 10.796875 36.28125 
z
" id="DejaVuSans-35"/>
     </defs>
     <g transform="translate(212.2475 160.817312)scale(0.1 -0.1)">
      <use xlink:href="#DejaVuSans-53"/>
      <use x="63.476562" xlink:href="#DejaVuSans-47"/>
      <use x="140.966797" xlink:href="#DejaVuSans-4e"/>
      <use x="215.771484" xlink:href="#DejaVuSans-2c"/>
      <use x="247.558594" xlink:href="#DejaVuSans-20"/>
      <use x="279.345703" xlink:href="#DejaVuSans-63"/>
      <use x="334.326172" xlink:href="#DejaVuSans-67"/>
      <use x="397.802734" xlink:href="#DejaVuSans-20"/>
      <use x="429.589844" xlink:href="#DejaVuSans-69"/>
      <use x="457.373047" xlink:href="#DejaVuSans-74"/>
      <use x="496.582031" xlink:href="#DejaVuSans-65"/>
      <use x="558.105469" xlink:href="#DejaVuSans-72"/>
      <use x="599.21875" xlink:href="#DejaVuSans-20"/>
      <use x="631.005859" xlink:href="#DejaVuSans-35"/>
     </g>
    </g>
    <g id="line2d_59">
     <path d="M 184.2475 171.995437 
L 204.2475 171.995437 
" style="fill:none;stroke:#bcbd22;stroke-dasharray:5.55,2.4;stroke-dashoffset:0;stroke-width:1.5;"/>
    </g>
    <g id="line2d_60"/>
    <g id="text_18">
     <!-- SGN, cg iter 3 -->
     <g transform="translate(212.2475 175.495437)scale(0.1 -0.1)">
      <use xlink:href="#DejaVuSans-53"/>
      <use x="63.476562" xlink:href="#DejaVuSans-47"/>
      <use x="140.966797" xlink:href="#DejaVuSans-4e"/>
      <use x="215.771484" xlink:href="#DejaVuSans-2c"/>
      <use x="247.558594" xlink:href="#DejaVuSans-20"/>
      <use x="279.345703" xlink:href="#DejaVuSans-63"/>
      <use x="334.326172" xlink:href="#DejaVuSans-67"/>
      <use x="397.802734" xlink:href="#DejaVuSans-20"/>
      <use x="429.589844" xlink:href="#DejaVuSans-69"/>
      <use x="457.373047" xlink:href="#DejaVuSans-74"/>
      <use x="496.582031" xlink:href="#DejaVuSans-65"/>
      <use x="558.105469" xlink:href="#DejaVuSans-72"/>
      <use x="599.21875" xlink:href="#DejaVuSans-20"/>
      <use x="631.005859" xlink:href="#DejaVuSans-33"/>
     </g>
    </g>
    <g id="line2d_61">
     <path d="M 184.2475 186.673562 
L 204.2475 186.673562 
" style="fill:none;stroke:#17becf;stroke-dasharray:5.55,2.4;stroke-dashoffset:0;stroke-width:1.5;"/>
    </g>
    <g id="line2d_62"/>
    <g id="text_19">
     <!-- SGN, cg iter 2 -->
     <g transform="translate(212.2475 190.173562)scale(0.1 -0.1)">
      <use xlink:href="#DejaVuSans-53"/>
      <use x="63.476562" xlink:href="#DejaVuSans-47"/>
      <use x="140.966797" xlink:href="#DejaVuSans-4e"/>
      <use x="215.771484" xlink:href="#DejaVuSans-2c"/>
      <use x="247.558594" xlink:href="#DejaVuSans-20"/>
      <use x="279.345703" xlink:href="#DejaVuSans-63"/>
      <use x="334.326172" xlink:href="#DejaVuSans-67"/>
      <use x="397.802734" xlink:href="#DejaVuSans-20"/>
      <use x="429.589844" xlink:href="#DejaVuSans-69"/>
      <use x="457.373047" xlink:href="#DejaVuSans-74"/>
      <use x="496.582031" xlink:href="#DejaVuSans-65"/>
      <use x="558.105469" xlink:href="#DejaVuSans-72"/>
      <use x="599.21875" xlink:href="#DejaVuSans-20"/>
      <use x="631.005859" xlink:href="#DejaVuSans-32"/>
     </g>
    </g>
   </g>
  </g>
 </g>
 <defs>
  <clipPath id="pf0b6525df2">
   <rect height="266.112" width="357.12" x="57.6" y="41.472"/>
  </clipPath>
 </defs>
</svg>
